<svg xmlns="http://www.w3.org/2000/svg" viewBox="0 0 20 17.843">
  <path d="M4,9.528a11.867,11.867,0,0,0,3,1v7.938C5.171,18.049,4,17.462,4,17Zm5,9.288v2.027C4.944,20.4,2,19.032,2,17V7C2,4.493,6.48,3,12,3S22,4.493,22,7V17c0,2.032-2.944,3.4-7,3.843V15.184a24.5,24.5,0,0,0-6,0ZM20,17c0,.462-1.171,1.049-3,1.468V10.53a11.868,11.868,0,0,0,3-1Zm-5-3.843V8.816c2.933-.366,5-1.2,5-1.816,0-.807-3.579-2-8-2S4,6.193,4,7c0,.613,2.067,1.45,5,1.816v4.342a28.686,28.686,0,0,1,6,0Z" transform="translate(-2 -3)" />
</svg>