<svg xmlns="http://www.w3.org/2000/svg" viewBox="0 0 86.324 86.663" fill="#b1b1b1">
  <g>
    <path d="M80.554 68.4V55.349a2.539 2.539 0 0 0-2.539-2.539H64.756v-2.031a18.645 18.645 0 0 0-11.177-17.065 14.355 14.355 0 0 0 4.97-10.863V22h2.539a2.539 2.539 0 1 0 0-5.078h-1.047A16.119 16.119 0 0 0 46.7 3.586V2.539a2.539 2.539 0 0 0-5.078 0v1.047a16.119 16.119 0 0 0-13.34 13.34h-1.046a2.539 2.539 0 1 0 0 5.078h2.539v.846a14.355 14.355 0 0 0 4.97 10.863 18.645 18.645 0 0 0-11.177 17.066v2.031H10.309a2.539 2.539 0 0 0-2.539 2.539V68.4a9.308 9.308 0 0 0 2.539 18.264h67.706A9.308 9.308 0 0 0 80.554 68.4zm-44.68 4.722a9.275 9.275 0 0 0 0 8.463H18.6a9.275 9.275 0 0 0 0-8.463zm13.648-5.078H38.8V57.888h10.72zm-9.592 9.309a4.232 4.232 0 1 1 4.232 4.232 4.236 4.236 0 0 1-4.232-4.232zm12.52-4.232h17.277a9.275 9.275 0 0 0 0 8.463H52.45a9.275 9.275 0 0 0 0-8.463zm23.026-15.233v10.156h-10.72V57.888zM34.853 22h18.619v.846a9.309 9.309 0 0 1-18.619 0zm6.77-13.239v.548a2.539 2.539 0 0 0 5.078 0v-.548a11.038 11.038 0 0 1 8.167 8.165H33.456a11.038 11.038 0 0 1 8.167-8.165zM28.646 50.779a13.556 13.556 0 0 1 13.541-13.541h3.95a13.556 13.556 0 0 1 13.541 13.541v17.265H54.6V55.349a2.539 2.539 0 0 0-2.539-2.539h-15.8a2.539 2.539 0 0 0-2.539 2.539v12.695h-5.076zm-15.8 7.109h10.72v10.156H12.848zM6.078 77.353a4.232 4.232 0 1 1 4.232 4.232 4.236 4.236 0 0 1-4.232-4.232zm71.937 4.232a4.232 4.232 0 1 1 4.232-4.232 4.236 4.236 0 0 1-4.232 4.232z" transform="translate(-1)" />
  </g>
</svg>