<svg xmlns="http://www.w3.org/2000/svg" viewBox="0 0 34.078 27.319">
  <g transform="translate(0 -50.774)">
    <path d="M438.861 211.733a9.817 9.817 0 0 1 0 13.876l1.412 1.412a11.814 11.814 0 0 0 0-16.7z" transform="translate(-409.651 -148.928)" />
    <path d="M397.849 263.8a7.822 7.822 0 0 0 0-11.053l-1.412 1.412a5.825 5.825 0 0 1 0 8.229z" transform="translate(-370.051 -188.527)" />
    <path d="M4.868 225.609a9.817 9.817 0 0 1 0-13.875l-1.412-1.412a11.814 11.814 0 0 0 0 16.7z" transform="translate(0 -148.928)" />
    <path d="M62.286 252.745a7.822 7.822 0 0 0 0 11.053l1.412-1.412a5.825 5.825 0 0 1 0-8.229z" transform="translate(-56.006 -188.528)" />
    <path d="M136.487 66.017a5.443 5.443 0 0 1-1.794-2.781l-2.163-9.731a3.488 3.488 0 0 0-6.809 0l-2.162 9.731a5.252 5.252 0 0 1-1.728 2.781 4.978 4.978 0 0 0-1.669 4.673 5.083 5.083 0 0 0 4.97 4.045 4.986 4.986 0 0 0 7.982 0 5.083 5.083 0 0 0 4.973-4.045 4.955 4.955 0 0 0-1.6-4.673zm-.36 4.308a3.088 3.088 0 0 1-2.084 2.274 5 5 0 0 0 .076-.859v-1h-2v1a3 3 0 1 1-5.99 0v-1h-2v1a4.994 4.994 0 0 0 .076.859 3.088 3.088 0 0 1-2.084-2.274 3 3 0 0 1 1.023-2.808 7.231 7.231 0 0 0 2.36-3.848l2.163-9.731a1.491 1.491 0 0 1 2.91 0l2.162 9.731a7.317 7.317 0 0 0 2.426 3.848 2.975 2.975 0 0 1 .957 2.808z" transform="translate(-112.087 0)" />
  </g>
</svg>