<svg xmlns="http://www.w3.org/2000/svg" viewBox="0 0 98.237 86.341" fill="#b1b1b1">
  <g transform="translate(0 -31)">
    <path d="M370.634 91a8.634 8.634 0 1 0 8.634 8.634A8.644 8.644 0 0 0 370.634 91zm0 11.512a2.878 2.878 0 1 1 2.878-2.878 2.881 2.881 0 0 1-2.878 2.878z" transform="translate(-292.544 -48.488)" />
    <path d="M370.634 211a8.634 8.634 0 1 0 8.634 8.634 8.644 8.644 0 0 0-8.634-8.634zm0 11.512a2.878 2.878 0 1 1 2.878-2.878 2.881 2.881 0 0 1-2.878 2.878z" transform="translate(-292.544 -145.464)" />
    <path d="M370.634 331a8.634 8.634 0 1 0 8.634 8.634 8.644 8.644 0 0 0-8.634-8.634zm0 11.512a2.878 2.878 0 1 1 2.878-2.878 2.881 2.881 0 0 1-2.878 2.878z" transform="translate(-292.544 -242.439)" />
    <path d="M90.558 31H33.005a7.687 7.687 0 0 0-7.679 7.679v4.031H5.564a2.878 2.878 0 0 0-2.878 2.878v15.347a2.878 2.878 0 0 0 2.878 2.878h1.942v4.628a1.13 1.13 0 0 1-1.128 1.128A6.385 6.385 0 0 0 0 75.947v35.016a6.385 6.385 0 0 0 6.378 6.378h84.18a7.687 7.687 0 0 0 7.679-7.679V38.679A7.688 7.688 0 0 0 90.558 31zM8.442 48.466h35.3v9.592h-35.3zM6.378 75.325a6.892 6.892 0 0 0 6.884-6.884v-4.628h25.664v4.628a6.892 6.892 0 0 0 6.884 6.884.622.622 0 0 1 .622.622v5.323H5.756v-5.323a.622.622 0 0 1 .622-.622zm-.622 11.7H46.24v13.047H5.756zm.622 24.559a.622.622 0 0 1-.622-.622v-5.134h40.676v5.756H6.378zm86.1-1.923a1.925 1.925 0 0 1-1.923 1.923H52.188V75.947a6.385 6.385 0 0 0-6.378-6.378 1.13 1.13 0 0 1-1.128-1.128v-4.628h1.942a2.878 2.878 0 0 0 2.876-2.878V45.588a2.878 2.878 0 0 0-2.878-2.878H31.083v-4.031a1.925 1.925 0 0 1 1.923-1.923h57.552a1.925 1.925 0 0 1 1.923 1.923z" />
    <path d="M304.878 91A2.878 2.878 0 0 0 302 93.878v57.561a2.878 2.878 0 0 0 5.756 0V93.878A2.878 2.878 0 0 0 304.878 91z" transform="translate(-244.056 -48.488)" />
  </g>
</svg>