<svg xmlns="http://www.w3.org/2000/svg" width="22" height="20.126" viewBox="0 0 22 20.126">
  <defs>
    <style>
      .cls-1 {
        fill: #ff2e2e;
        fill-rule: evenodd;
      }
    </style>
  </defs>
  <path id="Trazado_377" data-name="Trazado 377" class="cls-1" d="M16.553,2a7.112,7.112,0,0,0-3.45.7,6.166,6.166,0,0,0-1.113.7,6.3,6.3,0,0,0-1.068-.668A7.185,7.185,0,0,0,7.455,2C3.716,2,1,5.1,1,9.12c0,3.038,1.694,5.972,4.849,8.81a28.355,28.355,0,0,0,5.285,3.748l.866.449.866-.449a28.356,28.356,0,0,0,5.285-3.748C21.306,15.092,23,12.158,23,9.12,23,5.14,20.258,2.015,16.553,2ZM21,9.12c0,2.38-1.414,4.829-4.186,7.323A26.566,26.566,0,0,1,12,19.874a26.567,26.567,0,0,1-4.814-3.431C4.414,13.949,3,11.5,3,9.12,3,6.148,4.884,4,7.455,4a5.247,5.247,0,0,1,2.581.521,4.265,4.265,0,0,1,1.231.913L12,6.219l.729-.791a4.194,4.194,0,0,1,1.25-.935A5.191,5.191,0,0,1,16.549,4C19.088,4.011,21,6.189,21,9.12Z" transform="translate(-1 -2)"/>
</svg>
