<svg version="1.1" xmlns="http://www.w3.org/2000/svg" xmlns:xlink="http://www.w3.org/1999/xlink" x="0px" y="0px" viewBox="0.68 1.18 23.39 23.39" xml:space="preserve">
  <path d="M12.376,1.18C5.912,1.18,0.68,6.41,0.68,12.876c0,6.462,5.231,11.694,11.696,11.694
				c6.462,0,11.694-5.232,11.694-11.694C24.07,6.412,18.84,1.18,12.376,1.18z M12.376,22.742c-5.454,0-9.869-4.413-9.869-9.866
				c0-5.454,4.413-9.869,9.869-9.869c5.453,0,9.866,4.413,9.866,9.869C22.242,18.329,17.829,22.742,12.376,22.742z" />
  <path d="M16.377,15.585l-2.709-2.709l2.709-2.71c0.356-0.357,0.356-0.934,0-1.292
				c-0.356-0.357-0.937-0.357-1.292,0l-2.709,2.709l-2.71-2.709c-0.357-0.357-0.936-0.357-1.292,0c-0.357,0.357-0.357,0.935,0,1.292
				l2.709,2.71l-2.709,2.709c-0.357,0.355-0.357,0.936,0,1.292c0.357,0.356,0.935,0.356,1.292,0l2.71-2.709l2.709,2.709
				c0.355,0.356,0.936,0.356,1.292,0S16.733,15.94,16.377,15.585z" />
</svg>