<svg xmlns="http://www.w3.org/2000/svg" width="17.16" height="17.16" viewBox="0 0 17.16 17.16">
  <defs>
    <style>
      .cls-1 {
        fill: #fff;
        fill-rule: evenodd;
      }
    </style>
  </defs>
  <path id="Trazado_79" data-name="Trazado 79" class="cls-1" d="M9.58,18.16a8.58,8.58,0,1,1,8.58-8.58A8.58,8.58,0,0,1,9.58,18.16Zm0-1.56A7.02,7.02,0,1,0,2.56,9.58,7.02,7.02,0,0,0,9.58,16.6ZM7.012,13.252,9.58,10.683l2.568,2.568,1.1-1.1L10.683,9.58l2.568-2.568-1.1-1.1L9.58,8.477,7.012,5.908l-1.1,1.1L8.477,9.58,5.908,12.148Z" transform="translate(-1 -1)"/>
</svg>
