<svg xmlns="http://www.w3.org/2000/svg" width="20" height="20" viewBox="0 0 20 20">
  <defs>
    <style>
      .cls-1 {
        fill: #ff2626;
      }
    </style>
  </defs>
  <path id="Trazado_388" data-name="Trazado 388" class="cls-1" d="M7,17a1,1,0,0,0,.38-.08,1.15,1.15,0,0,0,.33-.21,1,1,0,0,0,.12-.16.561.561,0,0,0,.09-.17A.639.639,0,0,0,8,16.2,1.359,1.359,0,0,0,8,16a1,1,0,0,0-.08-.38.9.9,0,0,0-.54-.54A1,1,0,0,0,6.8,15l-.18.06a.56.56,0,0,0-.17.09A1.008,1.008,0,0,0,7,17Zm-3.71-.29a1.15,1.15,0,0,0,.33.21A1,1,0,0,0,4,17h.19a.6.6,0,0,0,.19-.06.762.762,0,0,0,.18-.09l.15-.12a1.15,1.15,0,0,0,.21-.33A.84.84,0,0,0,5,16a1.36,1.36,0,0,0,0-.2.641.641,0,0,0-.06-.18.561.561,0,0,0-.09-.17,1.018,1.018,0,0,0-1.54-.16,1,1,0,0,0-.12.16.561.561,0,0,0-.09.17.64.64,0,0,0-.1.18A1.36,1.36,0,0,0,3,16a1,1,0,0,0,.08.38A1.15,1.15,0,0,0,3.29,16.71ZM17,0H3A3,3,0,0,0,0,3V17a3,3,0,0,0,3,3H17a3,3,0,0,0,3-3V3a3,3,0,0,0-3-3Zm1,17a1,1,0,0,1-1,1H3a1,1,0,0,1-1-1V14H18Zm0-5H2V8H6a1,1,0,0,0,.71-.29L8,6.46l2.8,3.2a.978.978,0,0,0,1.43.05L13.91,8H18Zm0-6H13.5a1,1,0,0,0-.71.29L11.55,7.54l-2.8-3.2a1,1,0,0,0-1.46,0L5.59,6H2V3A1,1,0,0,1,3,2H17a1,1,0,0,1,1,1Z"/>
</svg>
