<?xml version="1.0" encoding="utf-8"?>
<!-- Generator: Adobe Illustrator 16.0.0, SVG Export Plug-In . SVG Version: 6.00 Build 0)  -->
<!DOCTYPE svg PUBLIC "-//W3C//DTD SVG 1.1//EN" "http://www.w3.org/Graphics/SVG/1.1/DTD/svg11.dtd">
<svg version="1.1" id="Capa_1" xmlns="http://www.w3.org/2000/svg" xmlns:xlink="http://www.w3.org/1999/xlink" x="0px" y="0px"
	 width="17.164px" height="17.164px" viewBox="0 0 17.164 17.164" enable-background="new 0 0 17.164 17.164" xml:space="preserve">
<path fill="#C3C3C3" d="M8.582,17.164C3.842,17.164,0,13.321,0,8.581s3.842-8.582,8.582-8.582s8.582,3.842,8.582,8.582
	S13.322,17.164,8.582,17.164L8.582,17.164z M8.582,15.603c3.877,0,7.021-3.145,7.02-7.022s-3.145-7.021-7.022-7.02
	S1.56,4.705,1.56,8.582c0.001,3.876,3.145,7.019,7.022,7.018V15.603z M11.15,5.689l-4.129,4.13L5.232,8.03l-1.1,1.101l2.892,2.892
	l5.231-5.232L11.15,5.689z"/>
<ellipse fill="#FFFFFF" cx="8.166" cy="8.582" rx="4.438" ry="4.65"/>
</svg>
