<?xml version="1.0" encoding="utf-8"?>
<!-- Generator: Adobe Illustrator 16.0.0, SVG Export Plug-In . SVG Version: 6.00 Build 0)  -->
<svg version="1.2" baseProfile="tiny" id="Capa_1" xmlns="http://www.w3.org/2000/svg" xmlns:xlink="http://www.w3.org/1999/xlink"
	 x="0px" y="0px" width="17.164px" height="17.164px" viewBox="0 0 17.164 17.164" xml:space="preserve">
<path fill="#00E93B" d="M8.582,0.001c-4.74,0-8.58,3.84-8.58,8.58s3.84,8.58,8.58,8.58s8.58-3.84,8.58-8.58
	S13.322,0.001,8.582,0.001z M8.582,15.601c-3.88,0-7.02-3.14-7.02-7.02s3.14-7.02,7.02-7.02s7.02,3.14,7.02,7.02
	S12.461,15.601,8.582,15.601z"/>
<ellipse fill="#00E93B" cx="8.582" cy="8.582" rx="7.207" ry="7.292"/>
<polygon fill="#FFFFFF" points="13.084,6.517 7.854,11.748 4.964,8.856 6.065,7.757 7.854,9.546 11.985,5.417 "/>
</svg>
