<svg xmlns="http://www.w3.org/2000/svg" width="35" height="35" fill="none" viewBox="0 0 35 35">
    <path fill="#05BEEE" d="M21.26 35H8.203c-3.015 0-5.469-2.453-5.469-5.469V11.006c0-3.016 2.454-5.469 5.47-5.469H21.26c3.015 0 5.468 2.453 5.468 5.469V29.53c0 3.016-2.453 5.469-5.468 5.469zM8.203 8.271c-1.508 0-2.734 1.227-2.734 2.735V29.53c0 1.508 1.226 2.735 2.734 2.735H21.26c1.507 0 2.734-1.227 2.734-2.735V11.006c0-1.508-1.227-2.735-2.734-2.735H8.203zm23.994 17.842V5.47C32.197 2.453 29.744 0 26.728 0H11.553c-.755 0-1.368.612-1.368 1.367s.613 1.367 1.368 1.367h15.175c1.508 0 2.735 1.227 2.735 2.735v20.644c0 .755.612 1.367 1.367 1.367s1.367-.612 1.367-1.367z"/>
</svg>
