<svg xmlns="http://www.w3.org/2000/svg" width="22" height="22" viewBox="0 0 22 22">
  <path d="M12,23A11,11,0,1,1,23,12,11,11,0,0,1,12,23Zm7.4-5.875a9,9,0,1,0-14.8,0C5.726,15.638,8.371,15,12,15S18.274,15.638,19.4,17.125ZM17.965,18.74C17.672,17.687,15.569,17,12,17s-5.672.687-5.965,1.74a9,9,0,0,0,11.929,0ZM12,15c-2.239,0-4-1.573-4-5a3.851,3.851,0,0,1,4-4,4,4,0,0,1,4,4.2C16,13.48,14.218,15,12,15Zm-2-5c0,2.269.818,3,2,3s2-.7,2-2.8A2.019,2.019,0,0,0,12,8,1.864,1.864,0,0,0,10,10Z" transform="translate(-1 -1)" />
</svg>