<svg xmlns="http://www.w3.org/2000/svg" width="16.094" height="16.094" viewBox="0 0 16.094 16.094">
  <defs>
    <style>
      .cls-1 {
        fill: #44b5ff;
        fill-rule: evenodd;
      }
    </style>
  </defs>
  <path id="Trazado_1184" data-name="Trazado 1184" class="cls-1" d="M16.484,10.852H12.461a1.609,1.609,0,0,0-1.609,1.609v4.023a1.609,1.609,0,0,0,1.609,1.609h4.023a1.609,1.609,0,0,0,1.609-1.609V12.461A1.609,1.609,0,0,0,16.484,10.852Zm-4.023,5.633V12.461h4.023v4.023ZM9.242,3.609V16.484a1.609,1.609,0,0,1-1.609,1.609H3.609A1.609,1.609,0,0,1,2,16.484V3.609A1.609,1.609,0,0,1,3.609,2H7.633A1.609,1.609,0,0,1,9.242,3.609Zm-1.609,0H3.609V16.484H7.633ZM16.484,2H12.461a1.609,1.609,0,0,0-1.609,1.609V7.633a1.609,1.609,0,0,0,1.609,1.609h4.023a1.609,1.609,0,0,0,1.609-1.609V3.609A1.609,1.609,0,0,0,16.484,2ZM12.461,7.633V3.609h4.023V7.633Z" transform="translate(-2 -2)"/>
</svg>
