<svg xmlns="http://www.w3.org/2000/svg" viewBox="0 0 15.748 18.234">
    <path fill-rule="evenodd"
        d="M7.512 1h4.724a1.618 1.618 0 0 1 1.575 1.658v.829h2.362a1.618 1.618 0 0 1 1.575 1.658V6.8a1.618 1.618 0 0 1-1.575 1.66h-.063l-.724 9.117a1.618 1.618 0 0 1-1.575 1.658H5.937a1.6 1.6 0 0 1-1.572-1.589L3.638 8.46h-.063A1.618 1.618 0 0 1 2 6.8V5.144a1.618 1.618 0 0 1 1.575-1.657h2.362v-.829A1.618 1.618 0 0 1 7.512 1zM3.575 5.144h12.6V6.8h-12.6zM5.218 8.46h9.312l-.716 9.048v.069H5.937zm7.019-5.8v.829H7.512v-.831z"
        transform="translate(-2 -1)" />
</svg>