<svg xmlns="http://www.w3.org/2000/svg" viewBox="0 0 100.189 81.85" fill="#b1b1b1">
  <path d="M95.3 87.916v-1.908a10.024 10.024 0 0 0-4.565-8.4V56.792A9.943 9.943 0 0 0 80.8 46.86H19.388a9.943 9.943 0 0 0-9.932 9.932v20.814a10.024 10.024 0 0 0-4.565 8.4v1.908A6.572 6.572 0 0 0 0 94.26v22.327a6.568 6.568 0 0 0 6.248 6.552v2.642a2.93 2.93 0 1 0 5.859 0v-2.634h75.975v2.634a2.93 2.93 0 1 0 5.859 0v-2.642a6.568 6.568 0 0 0 6.248-6.552V94.26a6.571 6.571 0 0 0-4.889-6.344zM15.315 56.792a4.077 4.077 0 0 1 4.073-4.073H80.8a4.077 4.077 0 0 1 4.073 4.073v19.19h-3.906v-5.164a6.562 6.562 0 0 0-6.555-6.555H58.649a6.562 6.562 0 0 0-6.555 6.555v5.164h-4v-5.164a6.562 6.562 0 0 0-6.555-6.555H25.776a6.562 6.562 0 0 0-6.555 6.555v5.164h-3.906zm59.793 14.026v4.468a.7.7 0 0 1-.7.7H58.649a.7.7 0 0 1-.7-.7v-4.468a.7.7 0 0 1 .7-.7h15.764a.7.7 0 0 1 .7.7zm-32.873 0v4.468a.7.7 0 0 1-.7.7H25.776a.7.7 0 0 1-.7-.7v-4.468a.7.7 0 0 1 .7-.7H41.54a.7.7 0 0 1 .696.7zM10.75 86.008a4.172 4.172 0 0 1 4.167-4.167h70.355a4.172 4.172 0 0 1 4.167 4.167V87.7H10.75zm83.58 30.579a.7.7 0 0 1-.7.7H6.56a.7.7 0 0 1-.7-.7V94.26a.7.7 0 0 1 .7-.7h87.069a.7.7 0 0 1 .7.7v22.326z" transform="translate(0 -46.86)" />
</svg>