<svg xmlns="http://www.w3.org/2000/svg" viewBox="0 0 29.339 29.34">
  <path d="M28.347,1.007a3.438,3.438,0,0,0-4.863,0L20.915,3.576A3.445,3.445,0,0,0,17,4.249L15.38,5.87a1.146,1.146,0,0,0,0,1.621l.81.81L3.919,20.572a3.444,3.444,0,0,0-.671,3.913l-2.9,2.9A1.146,1.146,0,1,0,1.97,29l2.9-2.9a3.444,3.444,0,0,0,3.913-.671L21.053,13.164l.81.81a1.146,1.146,0,0,0,1.621,0l1.621-1.621a3.444,3.444,0,0,0,.672-3.913l2.57-2.57a3.443,3.443,0,0,0,0-4.863ZM7.161,23.814A1.146,1.146,0,0,1,5.54,22.193L17.811,9.922l1.621,1.621ZM26.726,4.249,23.484,7.49a1.146,1.146,0,0,0,0,1.621,1.148,1.148,0,0,1,0,1.621l-.811.81-.81-.81h0L18.622,7.491h0l-.81-.81.81-.81a1.146,1.146,0,0,1,1.621,0,1.146,1.146,0,0,0,1.621,0l3.242-3.242a1.146,1.146,0,0,1,1.621,1.621Z" transform="translate(-0.014)" />
</svg>