<svg xmlns="http://www.w3.org/2000/svg" viewBox="0 0 16.188 16.189">
    <path fill-rule="evenodd"
        d="M13.685 2a1.986 1.986 0 0 1 1.409.586L17.6 5.1a1.992 1.992 0 0 1 0 2.818l-9.159 9.156a3.277 3.277 0 0 1-2.285 1.116H2V13.968a3.276 3.276 0 0 1 1.071-2.18l9.2-9.2A1.988 1.988 0 0 1 13.685 2zM6.1 16.573a1.68 1.68 0 0 0 1.158-.6l6.12-6.12-3.04-3.041-6.156 6.155a1.676 1.676 0 0 0-.563 1.067v2.537zm5.383-10.906l3.039 3.039 1.938-1.938a.374.374 0 0 0 0-.529l-2.513-2.511a.369.369 0 0 0-.524 0z"
        transform="translate(-2 -2)" />
</svg>