<svg xmlns="http://www.w3.org/2000/svg" width="94.783" height="95.155" viewBox="0 0 94.783 95.155" fill="#b1b1b1">
  <g>
    <path d="M92.009 47.065a43.67 43.67 0 0 0-31.537-39.78V6.5a6.512 6.512 0 0 0-6.5-6.5H42.816a6.512 6.512 0 0 0-6.5 6.5v.78A43.67 43.67 0 0 0 4.775 47.065 6.512 6.512 0 0 0 1 52.967v5.947a2.788 2.788 0 0 0 1.906 2.645 150.312 150.312 0 0 0 20.4 5.262v9.019a2.788 2.788 0 0 0 2.788 2.788h3.657a20.223 20.223 0 0 0 2.083 3.6L30 85.4a2.788 2.788 0 0 0 1.02 3.808l9.657 5.575a2.788 2.788 0 0 0 3.808-1.02l1.822-3.163a20.678 20.678 0 0 0 4.17 0l1.823 3.161a2.788 2.788 0 0 0 3.808 1.02l9.657-5.575a2.788 2.788 0 0 0 1.02-3.808l-1.832-3.174a20.216 20.216 0 0 0 2.083-3.6h3.657a2.788 2.788 0 0 0 2.788-2.788v-9.015a150.338 150.338 0 0 0 20.4-5.262 2.788 2.788 0 0 0 1.906-2.645v-5.947a6.512 6.512 0 0 0-3.774-5.9zm-31.537-33.95a38.23 38.23 0 0 1 5.575 2.35v10.554h-5.575zm-29.736 2.35a38.209 38.209 0 0 1 5.575-2.35v12.9h-5.575zM25.16 19v9.8a2.788 2.788 0 0 0 2.788 2.788H39.1a2.788 2.788 0 0 0 2.788-2.788V6.5a.93.93 0 0 1 .929-.929h11.15a.93.93 0 0 1 .933.929v22.3a2.788 2.788 0 0 0 2.788 2.788h11.147a2.788 2.788 0 0 0 2.788-2.788V19a37.892 37.892 0 0 1 14.766 27.46h-76A37.893 37.893 0 0 1 25.16 19zm42.745 54.05h-2.771a2.788 2.788 0 0 0-2.645 1.907 14.755 14.755 0 0 1-2.989 5.161 2.788 2.788 0 0 0-.329 3.245l1.391 2.409-4.829 2.788-1.378-2.39a2.788 2.788 0 0 0-2.972-1.338 15.1 15.1 0 0 1-5.984 0 2.788 2.788 0 0 0-2.972 1.338l-1.379 2.389-4.828-2.788 1.391-2.409a2.788 2.788 0 0 0-.329-3.245 14.755 14.755 0 0 1-2.988-5.158 2.788 2.788 0 0 0-2.645-1.907h-2.772v-5.32q4.709.674 9.411 1.025a9.693 9.693 0 0 0-.119 1.508 10.222 10.222 0 0 0 20.443 0 9.7 9.7 0 0 0-.119-1.508q4.7-.35 9.411-1.025zm-24.16-2.788a4.2 4.2 0 0 1 .179-1.2q2.236.074 4.468.075t4.468-.075a4.2 4.2 0 0 1 .179 1.2 4.646 4.646 0 0 1-9.292 0zm46.463-13.371a135.161 135.161 0 0 1-83.632 0v-3.924a.93.93 0 0 1 .929-.929h81.773a.93.93 0 0 1 .929.929z" transform="translate(-1)" />
  </g>
</svg>