<svg xmlns="http://www.w3.org/2000/svg" id="engineer" width="91.351" height="91.351" viewBox="0 0 91.351 91.351" fill="#b1b1b1">
  <path id="Trazado_308" d="M299.029 316.058a8.029 8.029 0 1 0-8.029-8.029 8.038 8.038 0 0 0 8.029 8.029zm0-10.705a2.676 2.676 0 1 1-2.676 2.676 2.679 2.679 0 0 1 2.676-2.676z" class="cls-1" transform="translate(-239.08 -246.474)" />
  <path id="Trazado_309" d="M88.674 51.742h-7.187l.743-5.911a2.676 2.676 0 0 0-2.655-3.01H50.091a20.629 20.629 0 0 0-8.813-7.239 15.133 15.133 0 0 0 5.29-11.495v-.892h2.676a2.676 2.676 0 1 0 0-5.353h-1.1A16.991 16.991 0 0 0 34.078 3.78v-1.1a2.676 2.676 0 1 0-5.353 0v1.1a16.991 16.991 0 0 0-14.061 14.062h-1.1a2.676 2.676 0 1 0 0 5.353h2.676v.892a15.132 15.132 0 0 0 5.273 11.483A20.575 20.575 0 0 0 9.274 51.742h-6.6A2.676 2.676 0 0 0 0 54.418v34.256a2.676 2.676 0 0 0 2.676 2.676h86a2.676 2.676 0 0 0 2.676-2.676V54.418a2.676 2.676 0 0 0-2.678-2.676zM73.646 71.189H46.252l-2.9-23.016h33.189zM21.589 23.195h19.626v.892a9.813 9.813 0 0 1-19.626 0zm7.137-13.96v.578a2.676 2.676 0 1 0 5.353 0v-.578a11.635 11.635 0 0 1 8.609 8.607H20.116a11.635 11.635 0 0 1 8.61-8.607zm.892 30.017h3.568a15.171 15.171 0 0 1 9.741 3.568h-2.6a2.676 2.676 0 0 0-2.655 3.01l.743 5.911H26.194l.61-1.83a2.676 2.676 0 1 0-5.078-1.693l-1.784 5.353a2.676 2.676 0 0 0 .244 2.223l2.779 4.632a2.329 2.329 0 0 1-.8 3.191 2.326 2.326 0 0 1-3.277-.954l-4.423-8.847a15.182 15.182 0 0 1 15.15-14.564zM86 86H5.353V57.1h4.769l3.978 7.957a7.678 7.678 0 1 0 13.452-7.384l-.347-.578h11.879l1.773 14.1h-.372a2.676 2.676 0 1 0 0 5.353h38.928a2.676 2.676 0 1 0 0-5.353h-.372l1.773-14.1H86z" class="cls-1" />
</svg>