<svg xmlns="http://www.w3.org/2000/svg" width="22.639" height="16.189" viewBox="0 0 22.639 16.189">
  <defs>
    <style>
      .cls-1 {
        fill: #01719d;
        fill-rule: evenodd;
      }
    </style>
  </defs>
  <path id="Trazado_204" data-name="Trazado 204" class="cls-1" d="M12.132,4c2.76,0,5.4,1.448,7.858,3.826a23.586,23.586,0,0,1,2.266,2.544c.4.523.689.934.846,1.179l.349.545-.349.545c-.157.245-.443.656-.846,1.179a23.59,23.59,0,0,1-2.266,2.544c-2.459,2.378-5.1,3.826-7.858,3.826s-5.4-1.448-7.858-3.826a23.588,23.588,0,0,1-2.266-2.544c-.4-.523-.69-.934-.846-1.179l-.349-.545.349-.545c.157-.245.443-.656.846-1.179A23.584,23.584,0,0,1,4.274,7.826C6.734,5.448,9.373,4,12.132,4Zm8.522,7.606a21.583,21.583,0,0,0-2.071-2.325c-2.118-2.048-4.321-3.257-6.451-3.257S7.8,7.232,5.681,9.281A21.576,21.576,0,0,0,3.61,11.606c-.132.171-.254.335-.366.489.112.154.234.318.366.489a21.571,21.571,0,0,0,2.071,2.325C7.8,16.957,10,18.166,12.132,18.166s4.333-1.209,6.451-3.257a21.578,21.578,0,0,0,2.071-2.325c.132-.171.254-.335.366-.489C20.909,11.941,20.786,11.777,20.654,11.606Zm-12.569.489a4.047,4.047,0,1,0,4.047-4.047A4.047,4.047,0,0,0,8.085,12.095Zm6.071,0a2.024,2.024,0,1,1-2.024-2.024A2.024,2.024,0,0,1,14.156,12.095Z" transform="translate(-0.813 -4)"/>
</svg>
