<?xml version="1.0" encoding="utf-8"?>
<!-- Generator: Adobe Illustrator 16.0.0, SVG Export Plug-In . SVG Version: 6.00 Build 0)  -->
<svg version="1.2" baseProfile="tiny" id="Capa_1" xmlns="http://www.w3.org/2000/svg" xmlns:xlink="http://www.w3.org/1999/xlink"
	 x="0px" y="0px" width="222px" height="222px" viewBox="0 0 222 222" xml:space="preserve">
<circle fill="#1EBBEC" cx="111" cy="111" r="111"/>
<path id="Trazado_28" fill="#FFFFFF" d="M130.318,94.66h-0.012c-0.895,0-1.754,0.357-2.385,0.993l-19.273,19.424l-7.214-7.322
	c-0.626-0.635-1.479-0.994-2.371-1h-0.022c-0.884,0-1.733,0.349-2.362,0.971L83.771,120.49c-1.319,1.306-1.331,3.434-0.024,4.754
	c1.306,1.318,3.434,1.33,4.753,0.023l10.516-10.399l7.237,7.345c0.63,0.639,1.49,0.999,2.387,1h0.006
	c0.895,0,1.754-0.357,2.385-0.992l19.26-19.415l5.176,5.29c1.306,1.318,3.433,1.328,4.75,0.022c1.308-1.295,1.33-3.4,0.051-4.723
	l-7.561-7.726C132.078,95.027,131.219,94.664,130.318,94.66z"/>
<path id="Trazado_29" fill="#FFFFFF" d="M151.641,114.648c1.855,0,3.359-1.504,3.359-3.359V84.246c0-1.855-1.504-3.359-3.359-3.359
	l0,0h-36.281v-3.528c0-1.855-1.504-3.359-3.359-3.359s-3.36,1.504-3.36,3.359v3.528H72.359c-1.855,0-3.359,1.503-3.359,3.359l0,0
	v44.008c0.009,7.418,6.02,13.429,13.438,13.438h26.2v11.59H98.563c-1.855,0-3.359,1.504-3.359,3.359S96.708,160,98.563,160h26.707
	c1.855,0,3.359-1.504,3.359-3.359s-1.504-3.359-3.359-3.359h-9.91v-11.59h26.201c7.418-0.008,13.431-6.02,13.439-13.438
	c0-1.855-1.504-3.359-3.359-3.359s-3.359,1.504-3.359,3.359c-0.004,3.709-3.01,6.715-6.719,6.719H82.438
	c-3.709-0.004-6.715-3.01-6.719-6.719V87.606h72.562v23.683C148.281,113.145,149.785,114.648,151.641,114.648L151.641,114.648z"/>
</svg>
