<?xml version="1.0" encoding="utf-8"?>
<!-- Generator: Adobe Illustrator 16.0.0, SVG Export Plug-In . SVG Version: 6.00 Build 0)  -->
<svg version="1.2" baseProfile="tiny" id="Capa_1" xmlns="http://www.w3.org/2000/svg" xmlns:xlink="http://www.w3.org/1999/xlink"
	 x="0px" y="0px" width="222px" height="222px" viewBox="0 0 222 222" xml:space="preserve">
<circle fill="#E5E5E5" cx="111" cy="111" r="111"/>
<path fill="#C1C1C1" d="M159.995,100.266c-0.433-21.592-26.776-37.498-47.495-19.381c-20.705-18.104-47.062-2.217-47.495,19.381
	c-0.158,7.914,3.195,15.532,9.695,22.033c0.018,0.019,13.2,13.127,35.833,35.64c1.086,1.08,2.842,1.08,3.928,0l35.839-35.64
	C156.8,115.798,160.152,108.18,159.995,100.266L159.995,100.266z M112.5,152.037L81.926,121.63h9.782
	c0.98,0,1.889-0.514,2.392-1.355l2.137-3.562l7.973,12.536c0.827,1.298,2.549,1.68,3.847,0.854c0.441-0.281,0.795-0.681,1.02-1.153
	l11.008-23.238l7.785,14.454c0.486,0.902,1.428,1.464,2.451,1.464h12.752L112.5,152.037z M148.46,116.063h-16.476l-9.607-17.838
	c-0.732-1.354-2.424-1.858-3.777-1.126c-0.52,0.281-0.937,0.72-1.19,1.254L106.2,122.006l-7.687-12.078
	c-0.826-1.297-2.548-1.68-3.845-0.854c-0.364,0.232-0.669,0.545-0.892,0.916l-3.644,6.072H76.54
	c-4.022-4.836-6.076-10.209-5.967-15.688c0.348-17.355,22.475-31.187,39.958-13.709c1.088,1.087,2.85,1.087,3.938,0
	C136.791,64.348,167.479,93.198,148.46,116.063z"/>
<circle fill="#1BBAEB" cx="111" cy="110.871" r="111"/>
<g id="Grupo_6">
	<path id="Trazado_26" fill="#FFFFFF" d="M151.391,96.704c-0.048-2.538-0.094-4.935-0.094-7.255c0-1.817-1.473-3.29-3.29-3.29l0,0
		c-14.071,0-24.784-4.044-33.715-12.727c-1.276-1.243-3.312-1.243-4.588,0c-8.929,8.686-19.641,12.73-33.711,12.73
		c-1.817,0-3.29,1.473-3.29,3.29c0,2.32-0.046,4.718-0.094,7.257c-0.452,23.618-1.069,55.964,38.311,69.613
		c0.697,0.243,1.457,0.243,2.155,0C152.459,152.672,151.842,120.324,151.391,96.704z M112,159.722
		c-33.776-12.269-33.265-39.146-32.812-62.888c0.027-1.425,0.054-2.806,0.072-4.16c13.178-0.555,23.717-4.549,32.74-12.408
		c9.021,7.859,19.563,11.853,32.742,12.409c0.018,1.353,0.045,2.734,0.072,4.158C145.266,120.574,145.775,147.453,112,159.722z"/>
	<path id="Trazado_27" fill="#FFFFFF" d="M123.328,108.074l-15.88,15.88l-6.777-6.777c-1.285-1.284-3.368-1.284-4.653,0
		c-1.285,1.285-1.285,3.368,0,4.653l9.1,9.1c1.285,1.285,3.368,1.285,4.653,0l18.209-18.201c1.299-1.271,1.321-3.354,0.051-4.653
		c-1.271-1.298-3.354-1.321-4.652-0.05C123.361,108.042,123.346,108.058,123.328,108.074L123.328,108.074z"/>
</g>
</svg>
