<?xml version="1.0" encoding="utf-8"?>
<!-- Generator: Adobe Illustrator 16.0.0, SVG Export Plug-In . SVG Version: 6.00 Build 0)  -->
<svg version="1.2" baseProfile="tiny" id="Capa_1" xmlns="http://www.w3.org/2000/svg" xmlns:xlink="http://www.w3.org/1999/xlink"
	 x="0px" y="0px" width="222px" height="222px" viewBox="0 0 222 222" xml:space="preserve">
<circle fill="#E5E5E5" cx="111" cy="111" r="111"/>
<path fill="#C1C1C1" d="M159.995,100.266c-0.433-21.592-26.776-37.498-47.495-19.381c-20.705-18.104-47.062-2.217-47.495,19.381
	c-0.158,7.914,3.195,15.532,9.695,22.033c0.018,0.019,13.2,13.127,35.833,35.64c1.086,1.08,2.842,1.08,3.928,0l35.839-35.64
	C156.8,115.798,160.152,108.18,159.995,100.266L159.995,100.266z M112.5,152.037L81.926,121.63h9.782
	c0.98,0,1.889-0.514,2.392-1.355l2.137-3.562l7.973,12.536c0.827,1.298,2.549,1.68,3.847,0.854c0.441-0.281,0.795-0.681,1.02-1.153
	l11.008-23.238l7.785,14.454c0.486,0.902,1.428,1.464,2.451,1.464h12.752L112.5,152.037z M148.46,116.063h-16.476l-9.607-17.838
	c-0.732-1.354-2.424-1.858-3.777-1.126c-0.52,0.281-0.937,0.72-1.19,1.254L106.2,122.006l-7.687-12.078
	c-0.826-1.297-2.548-1.68-3.845-0.854c-0.364,0.232-0.669,0.545-0.892,0.916l-3.644,6.072H76.54
	c-4.022-4.836-6.076-10.209-5.967-15.688c0.348-17.355,22.475-31.187,39.958-13.709c1.088,1.087,2.85,1.087,3.938,0
	C136.791,64.348,167.479,93.198,148.46,116.063z"/>
<circle fill="#1BBAEB" cx="111" cy="110.871" r="111"/>
<path fill="#FFFFFF" stroke="#FFFFFF" stroke-miterlimit="10" d="M159.995,100.266c-0.433-21.592-26.776-37.498-47.495-19.381
	c-20.705-18.105-47.062-2.217-47.495,19.381c-0.158,7.914,3.195,15.532,9.695,22.033c0.018,0.019,13.2,13.127,35.833,35.64
	c1.086,1.08,2.842,1.08,3.928,0l35.839-35.64C156.8,115.798,160.152,108.18,159.995,100.266L159.995,100.266z M112.5,152.037
	L81.926,121.63h9.782c0.98,0,1.889-0.514,2.392-1.355l2.137-3.562l7.973,12.536c0.827,1.298,2.549,1.68,3.847,0.854
	c0.441-0.281,0.794-0.681,1.02-1.152l11.008-23.238l7.785,14.454c0.485,0.901,1.428,1.464,2.45,1.464h12.753L112.5,152.037z
	 M148.46,116.063h-16.476l-9.607-17.838c-0.732-1.354-2.424-1.858-3.777-1.126c-0.52,0.281-0.937,0.72-1.189,1.254l-11.21,23.654
	l-7.687-12.078c-0.826-1.298-2.548-1.68-3.845-0.854c-0.364,0.232-0.669,0.545-0.892,0.916l-3.644,6.072H76.54
	c-4.022-4.836-6.076-10.208-5.967-15.688c0.348-17.355,22.475-31.187,39.958-13.709c1.088,1.087,2.85,1.087,3.938,0
	C136.791,64.348,167.479,93.198,148.46,116.063z"/>
</svg>
