<?xml version="1.0" encoding="utf-8"?>
<!-- Generator: Adobe Illustrator 16.0.0, SVG Export Plug-In . SVG Version: 6.00 Build 0)  -->
<svg version="1.2" baseProfile="tiny" id="Capa_1" xmlns="http://www.w3.org/2000/svg" xmlns:xlink="http://www.w3.org/1999/xlink"
	 x="0px" y="0px" width="222px" height="222px" viewBox="0 0 222 222" xml:space="preserve">
<circle fill="#E5E5E5" cx="111" cy="111" r="111"/>
<g id="Grupo_6">
	<path id="Trazado_26" fill="#C1C1C1" d="M151.391,96.704c-0.048-2.538-0.094-4.935-0.094-7.255c0-1.817-1.473-3.29-3.29-3.29l0,0
		c-14.071,0-24.784-4.044-33.715-12.727c-1.276-1.243-3.312-1.243-4.588,0c-8.929,8.686-19.641,12.73-33.711,12.73
		c-1.817,0-3.29,1.473-3.29,3.29c0,2.32-0.046,4.718-0.094,7.257c-0.452,23.618-1.069,55.964,38.311,69.613
		c0.697,0.243,1.457,0.243,2.155,0C152.459,152.672,151.842,120.324,151.391,96.704z M112,159.722
		c-33.776-12.269-33.265-39.146-32.812-62.888c0.027-1.425,0.054-2.806,0.072-4.16c13.178-0.555,23.717-4.549,32.74-12.408
		c9.021,7.859,19.563,11.853,32.742,12.409c0.018,1.353,0.045,2.734,0.072,4.158C145.266,120.574,145.775,147.453,112,159.722z"/>
	<path id="Trazado_27" fill="#C1C1C1" d="M123.328,108.074l-15.88,15.88l-6.777-6.777c-1.285-1.284-3.368-1.284-4.653,0
		c-1.285,1.285-1.285,3.368,0,4.653l9.1,9.1c1.285,1.285,3.368,1.285,4.653,0l18.209-18.201c1.299-1.271,1.321-3.354,0.051-4.653
		c-1.271-1.298-3.354-1.321-4.652-0.05C123.361,108.042,123.346,108.058,123.328,108.074L123.328,108.074z"/>
</g>
</svg>
