<svg id="Grupo_82" data-name="Grupo 82" xmlns="http://www.w3.org/2000/svg" width="86" height="86" viewBox="0 0 86 86">
  <path id="Trazado_28" data-name="Trazado 28" d="M61.319,20.66h-.012a3.359,3.359,0,0,0-2.385.993L39.649,41.077l-7.214-7.322a3.36,3.36,0,0,0-2.371-1h-.022a3.36,3.36,0,0,0-2.362.971L14.771,46.49A3.359,3.359,0,0,0,19.5,51.268l10.516-10.4,7.237,7.345a3.359,3.359,0,0,0,2.387,1h.006a3.36,3.36,0,0,0,2.385-.993L61.291,28.806l5.176,5.29a3.359,3.359,0,0,0,4.8-4.7l-7.56-7.726A3.361,3.361,0,0,0,61.319,20.66Z" fill="#fff"/>
  <path id="Trazado_29" data-name="Trazado 29" d="M82.641,40.648A3.359,3.359,0,0,0,86,37.289V10.246a3.359,3.359,0,0,0-3.359-3.359H46.359V3.359a3.359,3.359,0,0,0-6.719,0V6.887H3.359A3.359,3.359,0,0,0,0,10.246V54.254A13.453,13.453,0,0,0,13.438,67.691h26.2v11.59H29.563a3.359,3.359,0,0,0,0,6.719H56.27a3.359,3.359,0,0,0,0-6.719h-9.91V67.691h26.2A13.453,13.453,0,0,0,86,54.254a3.359,3.359,0,0,0-6.719,0,6.726,6.726,0,0,1-6.719,6.719H13.438a6.726,6.726,0,0,1-6.719-6.719V13.606H79.281V37.289A3.359,3.359,0,0,0,82.641,40.648Z" fill="#fff"/>
</svg>
