<svg xmlns="http://www.w3.org/2000/svg" width="94" height="94" viewBox="0 0 94 94">
    <defs>
        <clipPath id="clip-path">
            <path id="Rectángulo_9" d="M0 0H94V94H0z" class="cls-1"/>
        </clipPath>
        <style>
            .cls-1{fill:#fff}
        </style>
    </defs>
    <g id="Grupo_6" clip-path="url(#clip-path)">
        <path id="Trazado_26" d="M86.391 24.2c-.048-2.538-.094-4.935-.094-7.255a3.29 3.29 0 0 0-3.29-3.29c-14.071 0-24.785-4.044-33.715-12.727a3.29 3.29 0 0 0-4.588 0c-8.929 8.686-19.641 12.73-33.711 12.73a3.29 3.29 0 0 0-3.29 3.29c0 2.32-.046 4.718-.094 7.257C7.157 47.823 6.54 80.169 45.92 93.819a3.285 3.285 0 0 0 2.155 0C87.459 80.168 86.842 47.821 86.391 24.2zM47 87.218C13.224 74.949 13.735 48.072 14.188 24.33c.027-1.425.054-2.806.072-4.16C27.438 19.615 37.977 15.621 47 7.762c9.022 7.859 19.562 11.853 32.742 12.409.018 1.353.045 2.734.072 4.158.451 23.742.961 50.62-32.814 62.889z" class="cls-1"/>
        <path id="Trazado_27" d="M58.328 35.57l-15.88 15.88-6.777-6.777a3.29 3.29 0 1 0-4.653 4.653l9.1 9.1a3.291 3.291 0 0 0 4.653 0l18.21-18.202a3.29 3.29 0 1 0-4.652-4.653z" class="cls-1"/>
    </g>
</svg>
