<svg xmlns="http://www.w3.org/2000/svg" id="Grupo_7" width="86" height="86" viewBox="0 0 86 86">
    <defs>
        <style>
            .cls-1{fill:#c1c1c1}
        </style>
    </defs>
    <path id="Trazado_28" d="M61.319 20.66h-.012a3.359 3.359 0 0 0-2.385.993L39.649 41.077l-7.214-7.322a3.36 3.36 0 0 0-2.371-1h-.022a3.36 3.36 0 0 0-2.362.971L14.771 46.49a3.359 3.359 0 0 0 4.729 4.778l10.516-10.4 7.237 7.345a3.359 3.359 0 0 0 2.387 1h.006a3.36 3.36 0 0 0 2.385-.993l19.26-19.414 5.176 5.29a3.359 3.359 0 0 0 4.8-4.7l-7.56-7.726a3.361 3.361 0 0 0-2.388-1.01z" class="cls-1"/>
    <path id="Trazado_29" d="M82.641 40.648A3.359 3.359 0 0 0 86 37.289V10.246a3.359 3.359 0 0 0-3.359-3.359H46.359V3.359a3.359 3.359 0 0 0-6.719 0v3.528H3.359A3.359 3.359 0 0 0 0 10.246v44.008a13.453 13.453 0 0 0 13.438 13.437h26.2v11.59H29.563a3.359 3.359 0 0 0 0 6.719H56.27a3.359 3.359 0 0 0 0-6.719h-9.91v-11.59h26.2A13.453 13.453 0 0 0 86 54.254a3.359 3.359 0 0 0-6.719 0 6.726 6.726 0 0 1-6.719 6.719H13.438a6.726 6.726 0 0 1-6.719-6.719V13.606h72.562v23.683a3.359 3.359 0 0 0 3.36 3.359z" class="cls-1"/>
</svg>
