<svg xmlns="http://www.w3.org/2000/svg" viewBox="0 0 20.63 29.34">
  <g transform="translate(-76)">
    <path d="M95.484,2.292H92.045V1.146A1.146,1.146,0,0,0,90.9,0H81.73a1.146,1.146,0,0,0-1.146,1.146V2.292H77.146A1.146,1.146,0,0,0,76,3.438V28.194a1.146,1.146,0,0,0,1.146,1.146H95.484a1.146,1.146,0,0,0,1.146-1.146V3.438A1.146,1.146,0,0,0,95.484,2.292Zm-12.607,0h6.877V4.584H82.877ZM94.338,27.048H78.292V4.584h2.292V5.73A1.146,1.146,0,0,0,81.73,6.877H90.9A1.146,1.146,0,0,0,92.045,5.73V4.584h2.292Z" />
    <path d="M197.146,160.584h1.146v1.146a1.146,1.146,0,1,0,2.292,0v-1.146h1.146a1.146,1.146,0,1,0,0-2.292h-1.146v-1.146a1.146,1.146,0,1,0-2.292,0v1.146h-1.146a1.146,1.146,0,1,0,0,2.292Z" transform="translate(-113.123 -147.06)" />
    <path d="M166.315,316h-9.169a1.146,1.146,0,1,0,0,2.292h9.169a1.146,1.146,0,1,0,0-2.292Z" transform="translate(-75.416 -297.892)" />
    <path d="M166.315,396h-9.169a1.146,1.146,0,1,0,0,2.292h9.169a1.146,1.146,0,1,0,0-2.292Z" transform="translate(-75.416 -373.307)" />
  </g>
</svg>