<svg xmlns="http://www.w3.org/2000/svg" viewBox="0 0 73.066 91.244" fill="#b1b1b1">
  <g transform="translate(-51)">
    <path d="M123.283 18.543L105.523.783a2.672 2.672 0 0 0-1.89-.783H61.592A10.6 10.6 0 0 0 51 10.592v70.059a10.6 10.6 0 0 0 10.592 10.593h51.881a10.6 10.6 0 0 0 10.593-10.592V20.433a2.672 2.672 0 0 0-.783-1.89zm-16.977-9.416l8.634 8.634h-8.634zm7.168 76.773H61.592a5.252 5.252 0 0 1-5.246-5.246V10.592a5.252 5.252 0 0 1 5.246-5.246h39.367v15.087a2.673 2.673 0 0 0 2.673 2.673h15.088v57.545a5.252 5.252 0 0 1-5.246 5.249z" transform="translate(0 0)" />
    <path d="M118.808 79.681h3.661v3.661a2.673 2.673 0 0 0 5.346 0v-3.661h3.661a2.673 2.673 0 1 0 0-5.346h-3.661v-3.662a2.673 2.673 0 1 0-5.346 0v3.661h-3.661a2.673 2.673 0 0 0 0 5.346z" transform="translate(-53.527 -55.882)" />
    <path d="M163.447 203.544h-44.639a2.673 2.673 0 1 0 0 5.346h44.639a2.673 2.673 0 1 0 0-5.346z" transform="translate(-53.527 -167.27)" />
    <path d="M163.447 417.445h-44.639a2.673 2.673 0 1 0 0 5.346h44.639a2.673 2.673 0 1 0 0-5.346z" transform="translate(-53.527 -343.052)" />
    <path d="M118.808 262.341H158.1a2.673 2.673 0 1 0 0-5.346h-39.292a2.673 2.673 0 1 0 0 5.346z" transform="translate(-53.527 -211.196)" />
    <path d="M163.447 309.995h-44.639a2.673 2.673 0 1 0 0 5.346h44.639a2.673 2.673 0 1 0 0-5.346z" transform="translate(-53.527 -254.751)" />
    <path d="M118.808 367.791h35.33a2.673 2.673 0 0 0 0-5.346h-35.33a2.673 2.673 0 0 0 0 5.346z" transform="translate(-53.527 -297.854)" />
  </g>
</svg>