<svg xmlns="http://www.w3.org/2000/svg" viewBox="0 0 101.053 89.218" fill="#b1b1b1">
  <g transform="translate(0 -29.982)">
    <path d=" M77.35 53.688V29.982H23.7v23.706H0V119.2h101.053V53.688zM5.921 113.279v-53.67H23.7v53.67zm53.5 0h-5.934v-6.264h5.931zm-11.852 0h-5.934v-6.264h5.931zm23.863 0h-6.09v-12.185H35.714v12.185h-6.09V35.9h41.8zm23.7 0H77.35v-53.67h17.782z" />
    <path d="M216.892 107.843h5.921v-5.928h5.928v-5.921h-5.928v-5.928h-5.921v5.928h-5.928v5.921h5.928z" transform="translate(-169.326 -48.225)" />
    <path d="M60.036 270.186h5.926v5.921h-5.926z" transform="translate(-48.187 -192.795)" />
    <path d="M60.036 330.234h5.926v5.921h-5.926z" transform="translate(-48.187 -240.991)" />
    <path d="M421.94 270.186h5.926v5.921h-5.926z" transform="translate(-338.662 -192.795)" />
    <path d="M60.036 210.138h5.926v5.921h-5.926z" transform="translate(-48.187 -144.599)" />
    <path d="M421.94 210.138h5.926v5.921h-5.926z" transform="translate(-338.662 -144.599)" />
    <path d="M421.94 330.234h5.926v5.921h-5.926z" transform="translate(-338.662 -240.991)" />
    <path d="M240.988 210.138h5.926v5.921h-5.926z" transform="translate(-193.424 -144.599)" />
    <path d="M180.94 210.138h5.926v5.921h-5.926z" transform="translate(-145.228 -144.599)" />
    <path d="M301.036 210.138h5.926v5.921h-5.926z" transform="translate(-241.621 -144.599)" />
    <path d="M240.988 270.186h5.926v5.921h-5.926z" transform="translate(-193.424 -192.795)" />
    <path d="M180.94 270.186h5.926v5.921h-5.926z" transform="translate(-145.228 -192.795)" />
    <path d="M301.036 270.186h5.926v5.921h-5.926z" transform="translate(-241.621 -192.795)" />
    <path d="M240.988 330.234h5.926v5.921h-5.926z" transform="translate(-193.424 -240.991)" />
    <path d="M180.94 330.234h5.926v5.921h-5.926z" transform="translate(-145.228 -240.991)" />
    <path d="M301.036 330.234h5.926v5.921h-5.926z" transform="translate(-241.621 -240.991)" />
  </g>
</svg>