<svg xmlns="http://www.w3.org/2000/svg">
  <g>
    <path d="M24 16.684a.976.976 0 0 0 .976-.976V3.9a3.907 3.907 0 0 0-3.9-3.9H3.9A3.907 3.907 0 0 0 0 3.9v17.174a3.907 3.907 0 0 0 3.9 3.9h17.174a3.907 3.907 0 0 0 3.9-3.9.976.976 0 1 0-1.951 0 1.954 1.954 0 0 1-1.951 1.951H7.756V19.22H20.1a.976.976 0 0 0 0-1.951H7.756v-3.805h15.269v2.244a.976.976 0 0 0 .975.976zM5.8 23.026H3.9a1.954 1.954 0 0 1-1.951-1.951V19.22h3.856zm0-5.756H1.951v-3.806h3.854zm0-5.756H1.951V7.659h3.854zm0-5.805H1.951V3.9A1.954 1.954 0 0 1 3.9 1.951h1.9zm1.956-3.758h13.318A1.954 1.954 0 0 1 23.025 3.9v1.8H7.756zm0 9.561V7.659h15.269v3.854z" />
  </g>
</svg>