<svg xmlns="http://www.w3.org/2000/svg" viewBox="0 0 68.464 97.371" fill="#b1b1b1">
  <g transform="translate(-76)">
    <path d="M346,332h5.705v5.705H346Z" transform="translate(-218.652 -268.861)" />
    <path d="M115.937,97.371a17.135,17.135,0,0,0,17.116-17.116v-.287a14.263,14.263,0,1,0-5.705,0v.287a11.411,11.411,0,0,1-22.821,0V51.569a25.71,25.71,0,0,0,22.821-25.515V8.558A8.568,8.568,0,0,0,118.79,0h-8.558V5.705h8.558a2.856,2.856,0,0,1,2.853,2.853v17.5a19.969,19.969,0,0,1-39.937,0V8.558a2.856,2.856,0,0,1,2.853-2.853h8.558V0H84.558A8.568,8.568,0,0,0,76,8.558v17.5A25.71,25.71,0,0,0,98.821,51.569V80.255A17.135,17.135,0,0,0,115.937,97.371Zm5.705-31.379A8.558,8.558,0,1,1,130.2,74.55,8.568,8.568,0,0,1,121.643,65.992Z" />
  </g>
</svg>