<svg xmlns="http://www.w3.org/2000/svg" width="92.418" height="92.418" viewBox="0 0 92.418 92.418" fill="#b1b1b1">
  <g id="loss" transform="translate(0)">
    <g id="Grupo_67" transform="translate(0)">
      <g id="Grupo_66">
        <path id="Trazado_255" d="M10.836 16.15a3.61 3.61 0 0 0 4.885-5.317L6.053 1.952a3.61 3.61 0 1 0-4.885 5.317z" transform="translate(0 -0.819)" />
        <path id="Trazado_256" d="M54.513 0a37.885 37.885 0 0 0-29.147 62.113L1.067 86.246a3.61 3.61 0 1 0 5.088 5.123L30.487 67.2a37.882 37.882 0 0 0 42.582 3.763 3.61 3.61 0 0 0-3.539-6.293 30.691 30.691 0 0 1-44.256-36.08l14.753 13.53a10.888 10.888 0 0 0 14.978-.32l9.107-9.107a3.664 3.664 0 0 1 2.532-1.1h.018a3.666 3.666 0 0 1 2.516 1.063l14.586 14.523a30.435 30.435 0 0 1-2.576 5.906 3.61 3.61 0 1 0 6.272 3.577 37.7 37.7 0 0 0 3.706-9.085 3.606 3.606 0 0 0 .281-1.138A37.913 37.913 0 0 0 54.513 0zM85.19 38.409L74.259 27.521l-.025-.024a10.791 10.791 0 0 0-7.57-3.129H66.6a10.789 10.789 0 0 0-7.6 3.216l-9.1 9.107a3.669 3.669 0 0 1-4.993.108L28.458 21.714A30.678 30.678 0 0 1 85.2 37.906c0 .168-.007.335-.01.503z" transform="translate(0)" />
      </g>
    </g>
  </g>
</svg>