<svg xmlns="http://www.w3.org/2000/svg" viewBox="0 0 28.779 22.268">
  <path d="M14.8 11.922a6.444 6.444 0 0 0 2.229-4.872 6.55 6.55 0 0 0-13.1 0 6.445 6.445 0 0 0 2.227 4.873A10.479 10.479 0 0 0 0 21.459a1.31 1.31 0 0 0 2.62 0 7.859 7.859 0 0 1 15.719 0 1.31 1.31 0 0 0 2.62 0 10.479 10.479 0 0 0-6.159-9.537zm-4.323-.943a3.93 3.93 0 1 1 2.779-1.151 3.93 3.93 0 0 1-2.777 1.151zm12.758.419A6.55 6.55 0 0 0 18.339.5a1.31 1.31 0 0 0 0 2.62 3.924 3.924 0 0 1 1.961 7.322 1.309 1.309 0 0 0-.065 2.227l.511.341.17.092a9.169 9.169 0 0 1 5.24 8.357 1.31 1.31 0 0 0 2.62 0A11.789 11.789 0 0 0 23.238 11.4z" transform="translate(0 -0.5)" />
</svg>