<svg xmlns="http://www.w3.org/2000/svg" viewBox="0 0 30.286 30.763">
  <g transform="translate(-27.757 -17.773)">
    <g transform="translate(34.546 28.64)">
      <path d="M121.205 107.869a4.276 4.276 0 1 1-2.8 2.024 4.3 4.3 0 0 1 2.8-2.024z" transform="translate(-113.743 -107.767)" />
      <path d="M85.695 197.894a8.392 8.392 0 0 1 10.2-1.349 8.444 8.444 0 0 1 4.124 6.355q-8.354.011-16.706 0a8.415 8.415 0 0 1 2.382-5.006z" transform="translate(-83.31 -185.044)" />
    </g>
    <g transform="translate(28.012 18.037)">
      <path d="M41.19 18.132a14.975 14.975 0 0 1 10.639 2.889c.32.222.707.482.716.918a.9.9 0 0 1-1.2.9c-.529-.278-.956-.715-1.479-1.006a13.1 13.1 0 0 0-18.203 17.824 1.009 1.009 0 0 1 .095 1.132.9.9 0 0 1-1.477.034A14.889 14.889 0 0 1 41.19 18.132z" transform="translate(-28.012 -18.037)" />
      <path d="M89.544 54.866A10.556 10.556 0 0 1 100.355 70.6a.894.894 0 0 1-1.424.116.917.917 0 0 1-.061-1.1 8.764 8.764 0 0 0-14.162-10.16c-.266.308-.568.694-1.027.65A.892.892 0 0 1 83 58.7a10.486 10.486 0 0 1 6.544-3.834z" transform="translate(-76.355 -50.396)" />
      <path d="M241.681 65.2a.877.877 0 0 1 .928.269 14.711 14.711 0 0 1 2.947 7.374 14.883 14.883 0 0 1-1.908 9.093c-.17.288-.326.635-.664.757a.9.9 0 0 1-1.2-.638 1.091 1.091 0 0 1 .212-.838 13.081 13.081 0 0 0 1.726-8.636 12.921 12.921 0 0 0-2-5.287 9.587 9.587 0 0 1-.6-.9.891.891 0 0 1 .559-1.194z" transform="translate(-215.875 -59.589)" />
      <path d="M73.639 94.619a6.059 6.059 0 1 1 7.947 9.078 10.265 10.265 0 0 1 5.092 4.163 10.066 10.066 0 0 1 1.542 5.453.9.9 0 0 1-.962.825H68.822a.893.893 0 0 1-.958-.821 10.17 10.17 0 0 1 6.63-9.614A6.153 6.153 0 0 1 72 99.245a6.04 6.04 0 0 1 1.639-4.626m3.511-.019a4.272 4.272 0 1 0 4.755 2.347A4.284 4.284 0 0 0 77.15 94.6m-5.078 12.748a8.415 8.415 0 0 0-2.385 5.006q8.354.007 16.706 0A8.444 8.444 0 0 0 82.27 106a8.392 8.392 0 0 0-10.2 1.349z" transform="translate(-63.153 -83.892)" />
      <path d="M65.488 115.441a.894.894 0 0 1 1.253.445 1.526 1.526 0 0 1-.05.956 8.769 8.769 0 0 0 .931 6.2.911.911 0 0 1-.239 1.263.9.9 0 0 1-1.282-.334 10.575 10.575 0 0 1-1.158-7.515c.079-.375.162-.826.545-1.015z" transform="translate(-60.365 -103.833)" />
    </g>
  </g>
</svg>