<svg xmlns="http://www.w3.org/2000/svg" width="56" height="56" viewBox="0 0 56 56">
    <path fill="#44b5ff" fill-rule="evenodd" d="M29 57a28 28 0 1 1 28-28 28 28 0 0 1-28 28zm18.835-14.956a22.909 22.909 0 1 0-37.67 0c2.865-3.784 9.6-5.408 18.835-5.408s15.97 1.625 18.835 5.408zm-3.652 4.111c-.745-2.679-6.1-4.429-15.183-4.429s-14.438 1.75-15.183 4.429a22.91 22.91 0 0 0 30.366 0zM29 36.636c-5.7 0-10.182-4-10.182-12.727A9.8 9.8 0 0 1 29 13.727c6.145 0 10.182 4.891 10.182 10.691 0 8.348-4.536 12.218-10.182 12.218zm-5.091-12.727c0 5.776 2.083 7.636 5.091 7.636s5.091-1.786 5.091-7.127c0-3.181-2-5.6-5.091-5.6a4.744 4.744 0 0 0-5.091 5.091z" transform="translate(-1 -1)"/>
</svg>
