<svg xmlns="http://www.w3.org/2000/svg" width="47.292" height="91.029" viewBox="0 0 47.292 91.029" fill="#b1b1b1">
  <g id="pregnant" transform="translate(-122.999)">
    <path id="Trazado_312" d="M163.058 151.872a23.173 23.173 0 0 0-12.152-6.136 8 8 0 0 0 .441-8.687c-.478-.827-3.32-5.645-4.222-7.338A12.616 12.616 0 0 0 135.977 123h-.355A12.638 12.638 0 0 0 123 135.624v53.864a2.667 2.667 0 0 0 5.334 0v-21.919l4.661 4.661a8 8 0 0 0 11.314-11.314L139 155.607v-11.8a2.667 2.667 0 1 0-5.334 0v12.9a2.667 2.667 0 0 0 .781 1.886l6.089 6.089a2.667 2.667 0 0 1-3.771 3.771l-7.64-7.64a2.718 2.718 0 0 1-.792-1.894v-23.3a7.3 7.3 0 0 1 7.29-7.29h.355a7.292 7.292 0 0 1 6.441 3.884c.957 1.8 3.846 6.693 4.311 7.5a2.7 2.7 0 0 1-.863 3.575 5.6 5.6 0 0 0-2.6 4.776v.025a2.667 2.667 0 0 0 2.791 2.664 18.045 18.045 0 1 1 0 36.05 2.667 2.667 0 1 0-.248 5.328q.564.026 1.124.026a23.379 23.379 0 0 0 16.124-40.288z" class="cls-1" transform="translate(0 -101.132)" />
    <path id="Trazado_313" d="M139.544 20.09A10.045 10.045 0 1 0 129.5 10.045a10.057 10.057 0 0 0 10.044 10.045zm0-14.757a4.711 4.711 0 1 1-4.711 4.711 4.717 4.717 0 0 1 4.711-4.71z" class="cls-1" transform="translate(-5.344)" />
  </g>
</svg>