<svg xmlns="http://www.w3.org/2000/svg" width="17.16" height="17.16" viewBox="0 0 17.16 17.16">
    <path fill="#fff" fill-rule="evenodd" d="M3.716 6.29h1.716V2h10.3v4.29h1.716a1.716 1.716 0 0 1 1.712 1.716v6.864a1.716 1.716 0 0 1-1.716 1.716h-1.716v2.574H5.432v-2.574H3.716A1.716 1.716 0 0 1 2 14.87V8.006A1.716 1.716 0 0 1 3.716 6.29zm10.3 0H7.148V3.716h6.864zm3.432 1.716v6.864h-1.72v-1.716H5.432v1.716H3.716V8.006zm-3.436 6.864H7.148v2.574h6.864zm2.574-5.148a.858.858 0 1 0-.858.858.858.858 0 0 0 .858-.858z" transform="translate(-2 -2)"/>
</svg>
