<svg xmlns="http://www.w3.org/2000/svg" viewBox="0 0 33.748 25.731">
  <g>
    <g>
      <path d="M32.321 72.213l.079-.158a7.192 7.192 0 0 0 .01-6.235l-.035-.061a9.9 9.9 0 0 0-10-4.847 9.442 9.442 0 0 0-1.546.353 10.024 10.024 0 0 0-4.392-.353 9.4 9.4 0 0 0-2.526.726A9.828 9.828 0 0 0 .835 66.961a10.586 10.586 0 0 0 1.127 10.247v9.337h25.8v-4.488q.452.033.909.034a2.471 2.471 0 0 0 2.346-1.691l1.08-3.24 1.651-1.812zm-15.613-9.34a7.932 7.932 0 0 1 7.98 3.819 5.14 5.14 0 0 1 0 4.479l-.511 1.023 1.387 2.774-1.145 1.145-1.22 3.66a.494.494 0 0 1-.469.338 10.149 10.149 0 0 1-5.031-1.33l.533-1.6 1.824-1.824-1.582-3.165.069-.138a7.192 7.192 0 0 0 .01-6.235 9.925 9.925 0 0 0-2.425-2.843q.288-.062.58-.103zm-4.783 21.692H3.941v-7.994l-.189-.26a8.6 8.6 0 0 1-1.095-8.577 7.874 7.874 0 0 1 14.113-1.043 5.14 5.14 0 0 1 0 4.479l-.511 1.023 1.387 2.774-1.146 1.146-1.22 3.66a.494.494 0 0 1-.469.338A10.154 10.154 0 0 1 9.164 78.4l-1.639-1.092-1.1 1.647 1.638 1.092a12.141 12.141 0 0 0 3.859 1.7v2.821zm7.918 0H13.9v-2.508q.452.034.909.034a2.471 2.471 0 0 0 2.234-1.41 12.1 12.1 0 0 0 2.8 1.063v2.821zm5.938 0h-3.959v-2.508q.452.034.909.034a2.47 2.47 0 0 0 1.764-.739 12.1 12.1 0 0 0 1.285.392v2.821zm4.571-8.429l-1.212 3.637a.494.494 0 0 1-.469.338 10.114 10.114 0 0 1-3.311-.553l.792-2.376 1.824-1.824-1.582-3.165.069-.138a7.192 7.192 0 0 0 .01-6.235l-.035-.061a9.9 9.9 0 0 0-2.629-2.966 7.914 7.914 0 0 1 6.819 3.9 5.14 5.14 0 0 1 0 4.479l-.5 1 1.278 2.805z" transform="translate(0 -60.813) translate(0 60.813) translate(0 -60.813)" />
    </g>
  </g>
</svg>