<svg xmlns="http://www.w3.org/2000/svg" width="74.1" height="93.446" viewBox="0 0 74.1 93.446" fill="#b1b1b1">
  <g id="report" transform="translate(-53)">
    <path id="Trazado_315" d="M118.887 5.12h-10.28A14.738 14.738 0 0 0 97.442 0H82.658a14.738 14.738 0 0 0-11.165 5.12h-10.28A8.23 8.23 0 0 0 53 13.35v71.867a8.23 8.23 0 0 0 8.213 8.229h57.674a8.23 8.23 0 0 0 8.213-8.229V13.35a8.23 8.23 0 0 0-8.213-8.23zm-36.229.366h14.784a9.335 9.335 0 0 1 8.9 6.583H73.761a9.335 9.335 0 0 1 8.897-6.583zm38.966 79.731a2.743 2.743 0 0 1-2.738 2.743H61.213a2.743 2.743 0 0 1-2.738-2.743V13.35a2.743 2.743 0 0 1 2.738-2.743h7.272a14.787 14.787 0 0 0-.611 4.206 2.74 2.74 0 0 0 2.738 2.743h38.875a2.74 2.74 0 0 0 2.738-2.743 14.787 14.787 0 0 0-.611-4.206h7.272a2.743 2.743 0 0 1 2.738 2.743z" />
    <path id="Trazado_316" d="M138.684 295.045l-4.026 4.034-.984-.986a2.74 2.74 0 1 0-3.872 3.879l2.92 2.926a2.734 2.734 0 0 0 3.872 0l5.962-5.974a2.74 2.74 0 1 0-3.871-3.879z" transform="translate(-62.129 -240.539)" />
    <path id="Trazado_317" d="M255.822 310.607h-22.084a2.743 2.743 0 0 0 0 5.486h22.084a2.743 2.743 0 0 0 0-5.486z" transform="translate(-145.513 -253.917)" />
    <path id="Trazado_318" d="M138.684 381.213l-4.026 4.034-.984-.986a2.74 2.74 0 0 0-3.872 3.879l2.92 2.926a2.734 2.734 0 0 0 3.872 0l5.962-5.974a2.74 2.74 0 1 0-3.871-3.879z" transform="translate(-62.129 -310.98)" />
    <path id="Trazado_319" d="M255.822 396.775h-22.084a2.743 2.743 0 0 0 0 5.486h22.084a2.743 2.743 0 0 0 0-5.486z" transform="translate(-145.513 -324.359)" />
    <path id="Trazado_320" d="M173.749 161.129l8.467-8.484v.327a2.738 2.738 0 1 0 5.475 0c0-7.759.013-7.037-.031-7.343a2.737 2.737 0 0 0-2.707-2.349h-6.935a2.743 2.743 0 0 0 0 5.486h.326l-6.532 6.544-8.285-8.3a2.734 2.734 0 0 0-3.872 0l-9.856 9.875a2.74 2.74 0 0 0 3.872 3.879l7.92-7.935 8.285 8.3a2.734 2.734 0 0 0 3.873 0z" transform="translate(-78.478 -117.13)" />
  </g>
</svg>