<svg xmlns="http://www.w3.org/2000/svg" width="95.061" height="95.061" viewBox="0 0 95.061 95.061" fill="#b1b1b1">
  <path d="M46.045 66.84a3.713 3.713 0 0 1 0 7.427h-5.2a3.713 3.713 0 1 1 0-7.427zm30.449-19.867a3.713 3.713 0 0 0-3.713-3.713H40.846a3.713 3.713 0 0 0 0 7.427h31.935a3.713 3.713 0 0 0 3.713-3.714zM40.846 28.407h31.935a3.713 3.713 0 0 0 0-7.427H40.846a3.713 3.713 0 1 0 0 7.427zM25.993 66.84H22.28a3.713 3.713 0 1 0 0 7.427h3.713a3.713 3.713 0 1 0 0-7.427zm0-23.58H22.28a3.713 3.713 0 0 0 0 7.427h3.713a3.713 3.713 0 0 0 0-7.427zm0-22.28H22.28a3.713 3.713 0 1 0 0 7.427h3.713a3.713 3.713 0 1 0 0-7.427zm67.98 67.741a3.714 3.714 0 0 1-5.252 5.252l-6.281-6.281a16.731 16.731 0 1 1 5.378-5.125zm-20.079-6.1a9.283 9.283 0 1 0-9.283-9.283 9.294 9.294 0 0 0 9.284 9.283zM80.208 0H14.853A14.87 14.87 0 0 0 0 14.853v65.355a14.87 14.87 0 0 0 14.853 14.853H53.1a3.713 3.713 0 0 0 0-7.427H14.853a7.435 7.435 0 0 1-7.427-7.427V14.853a7.435 7.435 0 0 1 7.427-7.427h65.355a7.435 7.435 0 0 1 7.427 7.427v36.762a3.713 3.713 0 0 0 7.427 0V14.853A14.87 14.87 0 0 0 80.208 0zm0 0" />
</svg>