<svg xmlns="http://www.w3.org/2000/svg" width="12.643" height="25.285" viewBox="0 0 12.643 25.285">
  <defs>
    <style>
      .cls-1 {
        fill: #34a9ff;
      }
    </style>
  </defs>
  <path id="Trazado_386" data-name="Trazado 386" class="cls-1" d="M12.643,18.964A6.321,6.321,0,1,1,2.529,13.907V3.793a3.793,3.793,0,0,1,7.586,0V13.907A6.312,6.312,0,0,1,12.643,18.964ZM8.6,15.928l-1.01-.759V3.793a1.264,1.264,0,1,0-2.529,0V15.17l-1.01.759a3.793,3.793,0,1,0,4.549,0ZM6.321,21.492a2.529,2.529,0,1,1,1.788-.741A2.528,2.528,0,0,1,6.321,21.492Z"/>
</svg>
