<?xml version="1.0" encoding="utf-8"?>
<!-- Generator: Adobe Illustrator 16.0.0, SVG Export Plug-In . SVG Version: 6.00 Build 0)  -->
<svg version="1.2" baseProfile="tiny" id="Capa_1" xmlns="http://www.w3.org/2000/svg" xmlns:xlink="http://www.w3.org/1999/xlink"
	 x="0px" y="0px" width="95px" height="85.748px" viewBox="0 0 95 85.748" xml:space="preserve">
<path fill="#FFFFFF" stroke="#FFFFFF" stroke-miterlimit="10" d="M94.995,27.266C94.563,5.674,68.219-10.232,47.5,7.885
	C26.795-10.22,0.438,5.668,0.005,27.266C-0.153,35.179,3.2,42.798,9.7,49.299c0.018,0.019,13.2,13.127,35.833,35.64
	c1.086,1.08,2.842,1.08,3.928,0L85.3,49.299C91.8,42.798,95.152,35.179,94.995,27.266L94.995,27.266z M47.5,79.037L16.926,48.63
	h9.782c0.98,0,1.889-0.514,2.392-1.355l2.137-3.562l7.973,12.536c0.827,1.298,2.549,1.68,3.847,0.854
	c0.441-0.281,0.794-0.681,1.02-1.153l11.008-23.238l7.785,14.454c0.486,0.902,1.428,1.464,2.451,1.464h12.752L47.5,79.037z
	 M83.46,43.062H66.984l-9.607-17.838c-0.732-1.354-2.424-1.858-3.777-1.126c-0.52,0.281-0.937,0.72-1.19,1.254L41.2,49.006
	l-7.687-12.078c-0.826-1.298-2.548-1.68-3.845-0.854c-0.364,0.232-0.669,0.545-0.892,0.916l-3.644,6.072H11.54
	c-4.022-4.836-6.076-10.208-5.967-15.688C5.921,10.019,28.048-3.813,45.531,13.665c1.088,1.087,2.85,1.087,3.938,0
	C71.791-8.652,102.479,20.198,83.46,43.062z"/>
</svg>
