<svg xmlns="http://www.w3.org/2000/svg" width="95" height="85.748" viewBox="0 0 95 85.748">
    <path fill="#c1c1c1" d="M94.995 31.892C94.562 10.3 68.219-5.606 47.5 12.511 26.795-5.594.438 10.294.005 31.892-.153 39.805 3.2 47.424 9.7 53.925c.018.019 13.2 13.127 35.833 35.639a2.785 2.785 0 0 0 3.928 0L85.3 53.925c6.5-6.501 9.853-14.12 9.695-22.033zM47.5 83.663L16.926 53.256h9.782A2.785 2.785 0 0 0 29.1 51.9l2.137-3.561 7.973 12.536a2.786 2.786 0 0 0 4.866-.3l11.008-23.238 7.785 14.454a2.785 2.785 0 0 0 2.452 1.464h12.752zm35.96-35.975H66.984L57.377 29.85a2.787 2.787 0 0 0-4.968.128L41.2 53.632l-7.687-12.078a2.785 2.785 0 0 0-4.737.062l-3.644 6.072H11.54C7.518 42.852 5.464 37.48 5.573 32 5.921 14.645 28.048.813 45.531 18.291a2.786 2.786 0 0 0 3.938 0c22.322-22.317 53.009 6.533 33.991 29.397z" transform="translate(0 -4.626)"/>
</svg>
