<svg id="Capa_1" fill="#b1b1b1" enable-background="new 0 0 512 512" height="512" viewBox="0 0 512 512" width="512" xmlns="http://www.w3.org/2000/svg"><g><g><path d="m122.123 312.327h23.753c4.142 0 7.5-3.358 7.5-7.5s-3.358-7.5-7.5-7.5h-23.753c-4.142 0-7.5 3.358-7.5 7.5s3.358 7.5 7.5 7.5z"/><path d="m257.105 297.327h-65.337c-4.142 0-7.5 3.358-7.5 7.5s3.358 7.5 7.5 7.5h65.337c4.142 0 7.5-3.358 7.5-7.5s-3.357-7.5-7.5-7.5z"/><path d="m235.903 387.639h-23.385c-4.142 0-7.5 3.358-7.5 7.5s3.358 7.5 7.5 7.5h23.385c4.142 0 7.5-3.358 7.5-7.5s-3.358-7.5-7.5-7.5z"/><path d="m163.933 387.639h-41.81c-4.142 0-7.5 3.358-7.5 7.5s3.358 7.5 7.5 7.5h41.81c4.142 0 7.5-3.358 7.5-7.5s-3.358-7.5-7.5-7.5z"/><path d="m251.72 342.483h-129.597c-4.142 0-7.5 3.358-7.5 7.5s3.358 7.5 7.5 7.5h129.597c4.142 0 7.5-3.358 7.5-7.5s-3.358-7.5-7.5-7.5z"/><path d="m255.858 175.664h-18.295v-18.267c0-6.167-5.005-11.185-11.156-11.185h-40.081c-6.167 0-11.185 5.018-11.185 11.185v18.267h-18.266c-6.152 0-11.157 5.018-11.157 11.185v40.082c0 6.152 5.005 11.157 11.157 11.157h18.266v18.295c0 6.152 5.018 11.157 11.185 11.157h40.081c6.151 0 11.156-5.005 11.156-11.157v-18.295h18.295c6.151 0 11.156-5.005 11.156-11.157v-40.082c.001-6.168-5.004-11.185-11.156-11.185zm-3.843 47.423h-21.951c-4.142 0-7.5 3.358-7.5 7.5v21.952h-32.422v-21.952c0-4.142-3.358-7.5-7.5-7.5h-21.923v-32.424h21.923c4.142 0 7.5-3.358 7.5-7.5v-21.952h32.422v21.952c0 4.142 3.358 7.5 7.5 7.5h21.951z"/><path d="m379.559 376.673c4.142 0 7.5-3.358 7.5-7.5v-8.986c0-4.142-3.358-7.5-7.5-7.5s-7.5 3.358-7.5 7.5v8.986c0 4.142 3.358 7.5 7.5 7.5z"/><path d="m344.753 381.162-6.35-6.35c-2.929-2.929-7.678-2.929-10.606 0-2.929 2.929-2.929 7.678 0 10.606l6.35 6.35c1.464 1.464 3.384 2.197 5.303 2.197s3.839-.732 5.303-2.197c2.93-2.929 2.93-7.678 0-10.606z"/><path d="m420.675 374.824-6.321 6.35c-2.922 2.936-2.912 7.684.023 10.606 1.464 1.458 3.377 2.185 5.292 2.185 1.925 0 3.85-.737 5.315-2.208l6.321-6.35c2.922-2.936 2.912-7.684-.023-10.606-2.937-2.924-7.685-2.913-10.607.023z"/><path d="m409.287 419.881-14.488-13.411c-4.788-4.426-9.915-6.67-15.239-6.67-5.343 0-10.479 2.244-15.271 6.673l-14.487 13.41c-7.785 7.212-10.81 19.144-7.192 28.372 3.134 7.995 10.506 12.58 20.226 12.58 5.097 0 8.335-1.526 10.699-2.64 1.982-.935 3.179-1.499 6.025-1.499 2.839 0 4.03.562 6.004 1.494 2.365 1.116 5.604 2.645 10.72 2.645 9.726 0 17.099-4.589 20.228-12.59 3.611-9.234.57-21.165-7.225-28.364zm-6.745 22.9c-.327.835-1.195 3.054-6.259 3.054-1.754 0-2.558-.379-4.318-1.21-2.619-1.236-6.205-2.929-12.406-2.929-6.204 0-9.796 1.693-12.42 2.93-1.761.83-2.564 1.208-4.304 1.208-5.063 0-5.934-2.219-6.261-3.055-1.336-3.409.262-8.967 3.418-11.891l14.481-13.404c1.325-1.225 3.282-2.685 5.084-2.685 1.429 0 3.13.903 5.053 2.681l14.491 13.414c3.168 2.923 4.774 8.478 3.441 11.887z"/><path d="m385.5 301.72v-81.11c0-4.14-3.36-7.5-7.5-7.5s-7.5 3.36-7.5 7.5v81.33c-10.04.86-19.67 3.13-28.71 6.62v-198.9c0-7.26-5.89-13.17-13.14-13.17h-35.047v-28.71h62.597c7.89 0 14.3 6.43 14.3 14.33v103.86c0 4.14 3.36 7.5 7.5 7.5s7.5-3.36 7.5-7.5v-103.86c0-16.17-13.14-29.33-29.3-29.33h-64.343c-2.8-5.744-8.688-9.721-15.505-9.721h-25.528c-.373-23.807-19.855-43.059-43.749-43.059s-43.375 19.252-43.749 43.059h-26.974c-6.805 0-12.684 3.978-15.479 9.721h-64.343c-16.15 0-29.3 13.16-29.3 29.33v183.06c0 4.14 3.36 7.5 7.5 7.5 4.15 0 7.5-3.36 7.5-7.5v-183.06c0-7.9 6.42-14.33 14.3-14.33h62.6v28.71h-35.05c-7.24 0-13.14 5.91-13.14 13.17v323.52c0 7.25 5.9 13.14 13.14 13.14h197.96c4.28 10.52 10.22 20.2 17.5 28.71h-243.01c-7.88 0-14.3-6.41-14.3-14.3v-160.92c0-4.14-3.35-7.5-7.5-7.5-4.14 0-7.5 3.36-7.5 7.5v160.92c0 16.16 13.15 29.3 29.3 29.3h258.75c17.79 13.77 40.09 21.97 64.28 21.97 58.01 0 105.21-47.21 105.21-105.24 0-56.02-44.01-101.95-99.27-105.04zm-251.37-197.732v-43.706-.002c.001-1.225.997-2.221 2.223-2.221h34.468c4.142 0 7.5-3.358 7.5-7.5v-6.803c0-15.857 12.899-28.756 28.754-28.756s28.754 12.899 28.754 28.755v6.803c0 4.142 3.358 7.5 7.5 7.5h33.022c1.213 0 2.237 1.007 2.249 2.203 0 .006-.001.012-.001.019 0 .02.003.04.003.06v43.589c0 .02-.003.04-.003.06 0 .007.001.014.001.021-.011 1.212-1.035 2.232-2.249 2.232h-140c-1.184 0-2.223-1.052-2.223-2.251 0-.001 0-.001 0-.002s.002-.001.002-.001zm143.09 327.332h-191.28v-319.83h34.926c2.792 5.761 8.675 9.753 15.487 9.753h140c6.823 0 12.715-3.991 15.512-9.753h34.926v204.27c-31.35 18.24-52.47 52.2-52.47 91-.001 8.46.999 16.68 2.899 24.56zm102.34 65.68c-12.32 0-24.07-2.48-34.77-6.97-8.87-3.71-17.02-8.8-24.18-15-9.19-7.94-16.76-17.7-22.14-28.71-2.35-4.78-4.28-9.8-5.75-15-2.22-7.81-3.4-16.05-3.4-24.56 0-30.06 14.79-56.74 37.47-73.13 4.68-3.39 9.7-6.34 15-8.79 8.88-4.11 18.55-6.82 28.71-7.83 2.98-.31 6-.46 9.06-.46 2 0 3.98.07 5.94.2 46.98 3.06 84.27 42.27 84.27 90.01 0 49.76-40.47 90.24-90.21 90.24z"/></g></g></svg>