<?xml version="1.0" encoding="utf-8"?>
<!-- Generator: Adobe Illustrator 16.0.0, SVG Export Plug-In . SVG Version: 6.00 Build 0)  -->
<svg version="1.2" baseProfile="tiny" id="Capa_1" xmlns="http://www.w3.org/2000/svg" xmlns:xlink="http://www.w3.org/1999/xlink"
	 x="0px" y="0px" width="222px" height="222px" viewBox="0 0 222 222" xml:space="preserve">
<circle fill="#E5E5E5" cx="111" cy="111" r="111"/>
<path fill="#C1C1C1" d="M108.174,150.914c0,1.705-1.382,3.086-3.086,3.086H91.51c-6.807,0-12.344-5.537-12.344-12.344V87.344
	C79.166,80.537,84.703,75,91.51,75h37.94c6.806,0,12.344,5.537,12.344,12.344v29.471c0,1.705-1.382,3.086-3.086,3.086
	c-1.705,0-3.086-1.381-3.086-3.086V87.344c0-3.403-2.771-6.172-6.172-6.172H91.51c-3.402,0-6.172,2.769-6.172,6.172v54.313
	c0,3.402,2.77,6.172,6.172,6.172h13.578C106.792,147.828,108.174,149.21,108.174,150.914z M126.363,93.516H94.579
	c-1.705,0-3.086,1.381-3.086,3.086s1.381,3.086,3.086,3.086h31.784c1.705,0,3.087-1.381,3.087-3.086S128.068,93.516,126.363,93.516z
	 M129.45,108.945c0-1.704-1.382-3.086-3.087-3.086H94.579c-1.705,0-3.086,1.382-3.086,3.086c0,1.705,1.381,3.086,3.086,3.086h31.784
	C128.068,112.031,129.45,110.65,129.45,108.945L129.45,108.945z M94.579,118.203c-1.705,0-3.086,1.382-3.086,3.086
	c0,1.705,1.381,3.086,3.086,3.086h16.218c1.704,0,3.086-1.381,3.086-3.086c0-1.704-1.382-3.086-3.086-3.086H94.579z
	 M149.428,140.807c-0.109,0.155-0.48,0.682-0.712,0.973c-1.034,1.3-3.452,4.343-6.819,7.029c-4.314,3.444-8.756,5.191-13.199,5.191
	c-4.445,0-8.887-1.747-13.202-5.191c-3.366-2.687-5.786-5.729-6.819-7.029c-0.23-0.29-0.604-0.818-0.711-0.973
	c-0.748-1.063-0.748-2.483,0-3.548c0.108-0.153,0.48-0.681,0.711-0.972c1.033-1.301,3.453-4.344,6.819-7.03
	c4.315-3.444,8.757-5.19,13.2-5.19c4.445,0,8.887,1.746,13.203,5.19c3.365,2.687,5.785,5.729,6.817,7.03
	c0.231,0.291,0.604,0.818,0.712,0.972C150.176,138.324,150.176,139.743,149.428,140.807L149.428,140.807z M142.99,139.033
	c-4.907-5.838-9.711-8.795-14.295-8.795s-9.389,2.957-14.295,8.795c4.906,5.838,9.711,8.795,14.295,8.795
	S138.083,144.871,142.99,139.033z M128.85,133.17c-3.238,0-5.863,2.625-5.863,5.863s2.625,5.863,5.863,5.863
	s5.863-2.625,5.863-5.863S132.088,133.17,128.85,133.17z"/>
</svg>
