<svg xmlns="http://www.w3.org/2000/svg" width="87" height="87" fill="none" viewBox="0 0 87 87">
    <path fill="#C1C1C1" d="M33.174 75.914c0 1.705-1.382 3.086-3.086 3.086H16.51C9.703 79 4.166 73.463 4.166 66.656V12.344C4.166 5.537 9.703 0 16.51 0h37.94c6.806 0 12.344 5.537 12.344 12.344v29.47c0 1.705-1.382 3.086-3.086 3.086-1.705 0-3.086-1.381-3.086-3.085V12.344c0-3.403-2.77-6.172-6.172-6.172H16.51c-3.403 0-6.172 2.769-6.172 6.172v54.312c0 3.403 2.769 6.172 6.172 6.172h13.578c1.704 0 3.086 1.382 3.086 3.086zm18.19-57.398H19.579c-1.705 0-3.086 1.381-3.086 3.086 0 1.704 1.381 3.085 3.086 3.085h31.785c1.704 0 3.086-1.38 3.086-3.085s-1.382-3.086-3.086-3.086zm3.086 15.43c0-1.705-1.382-3.087-3.086-3.087H19.579c-1.705 0-3.086 1.382-3.086 3.086 0 1.705 1.381 3.086 3.086 3.086h31.785c1.704 0 3.086-1.381 3.086-3.086zm-34.871 9.257c-1.705 0-3.086 1.382-3.086 3.086 0 1.705 1.381 3.086 3.086 3.086h16.218c1.704 0 3.086-1.381 3.086-3.086 0-1.704-1.382-3.086-3.086-3.086H19.579zm54.848 22.604c-.108.155-.48.681-.711.972-1.034 1.3-3.453 4.343-6.82 7.03C62.582 77.253 58.14 79 53.697 79c-4.445 0-8.886-1.747-13.202-5.191-3.366-2.687-5.786-5.73-6.819-7.03-.231-.29-.603-.818-.711-.972-.748-1.064-.748-2.484 0-3.548.108-.154.48-.681.711-.972 1.033-1.3 3.453-4.343 6.819-7.03 4.316-3.444 8.757-5.19 13.201-5.19 4.444 0 8.886 1.746 13.202 5.19 3.366 2.687 5.785 5.73 6.818 7.03.232.291.604.818.712.972.748 1.065.748 2.484 0 3.548zm-6.437-1.774c-4.907-5.837-9.711-8.795-14.295-8.795-4.583 0-9.388 2.957-14.294 8.795 4.906 5.838 9.71 8.795 14.294 8.795s9.388-2.957 14.295-8.795zM53.85 58.17c-3.239 0-5.864 2.625-5.864 5.863 0 3.239 2.625 5.864 5.864 5.864 3.238 0 5.863-2.625 5.863-5.864 0-3.238-2.625-5.863-5.863-5.863z"/>
</svg>
