<svg width="123" height="123" viewBox="0 0 123 123" fill="none" xmlns="http://www.w3.org/2000/svg">
<g clip-path="url(#clip0)">
<path d="M120.88 78.3362C118.727 76.7943 115.731 77.2902 114.189 79.4441L90.5502 112.464C89.9047 113.212 89.0955 113.374 88.6622 113.403C88.2163 113.432 87.362 113.376 86.6084 112.67L71.3307 97.7605C69.4353 95.9107 66.3987 95.9477 64.5489 97.8434C62.6991 99.7391 62.7364 102.775 64.6318 104.625L79.9357 119.56C79.9498 119.573 79.9643 119.587 79.9787 119.601C82.2731 121.785 85.3356 123 88.4866 123C88.7573 123 89.0292 122.991 89.3007 122.973C92.7332 122.744 95.9374 121.075 98.0923 118.393C98.148 118.324 98.2016 118.253 98.2535 118.181L121.989 85.0274C123.53 82.8737 123.034 79.878 120.88 78.3362Z" fill="#34559C"/>
<path d="M60.2307 65.1992C60.652 65.2156 61.0748 65.2237 61.5 65.2237C61.926 65.2237 62.3498 65.2156 62.7716 65.1992C75.0999 65.4954 86.9377 70.0909 96.2304 78.2149C98.2248 79.9583 101.254 79.7548 102.998 77.7606C104.741 75.7664 104.537 72.7368 102.543 70.9934C96.2124 65.4587 88.8829 61.3099 81.0195 58.7209C88.9626 52.7674 94.1113 43.2793 94.1113 32.6115C94.1116 14.6295 79.4823 0 61.4998 0C43.5173 0 28.8881 14.6295 28.8881 32.6118C28.8881 43.2837 34.0406 52.7746 41.989 58.7278C34.7068 61.1254 27.8738 64.8557 21.8934 69.7745C10.9272 78.7948 3.30266 91.3763 0.424421 105.202C-0.477657 109.534 0.603155 113.984 3.38891 117.41C6.16121 120.819 10.2718 122.774 14.6672 122.774H56.9443C59.5931 122.774 61.74 120.626 61.74 117.978C61.74 115.329 59.5926 113.182 56.9443 113.182H14.6669C12.6197 113.182 11.3844 112.039 10.8304 111.358C9.87378 110.182 9.50358 108.651 9.81468 107.157C14.7918 83.2509 35.8791 65.7878 60.2307 65.1992ZM38.4801 32.612C38.4801 19.9185 48.8068 9.59182 61.5003 9.59182C74.1938 9.59182 84.5205 19.9185 84.5205 32.612C84.5205 44.9156 74.8184 54.9953 62.6633 55.6031C62.276 55.5959 61.8885 55.5923 61.5005 55.5923C61.114 55.5923 60.7277 55.5961 60.3419 55.6033C48.1844 54.9975 38.4801 44.9168 38.4801 32.612Z" fill="#34559C"/>
</g>
<defs>
<clipPath id="clip0">
<rect width="123" height="123" fill="white"/>
</clipPath>
</defs>
</svg>
