<svg xmlns="http://www.w3.org/2000/svg" width="449" height="56" fill="none" viewBox="0 0 449 56">
    <g filter="url(#filter0_d)">
        <rect width="434.911" height="39.371" x="10.088" fill="#fff" rx="19.686"/>
    </g>
    <path fill="#408B41" d="M114.719 14.943l-.194 1.384c-.783-.3-1.47-.45-2.06-.45-.397 0-.745.064-1.046.193-.295.123-.526.3-.692.53-.161.226-.241.492-.241.797 0 .478.166.843.499 1.095.338.252.928.598 1.77 1.038.848.434 1.483.877 1.907 1.328.424.445.636 1.038.636 1.778 0 .644-.156 1.22-.467 1.73-.311.51-.754.902-1.328 1.175-.568.274-1.223.41-1.963.41-.875 0-1.709-.144-2.503-.434l.161-1.48c.81.386 1.529.579 2.157.579.445 0 .839-.075 1.183-.226.348-.15.614-.364.796-.643.188-.285.282-.617.282-.998 0-.547-.185-.96-.555-1.24-.37-.284-.958-.62-1.763-1.005-.804-.387-1.413-.786-1.826-1.2-.413-.418-.62-1.005-.62-1.762 0-.59.142-1.11.427-1.56.289-.457.697-.811 1.223-1.063.531-.252 1.134-.378 1.81-.378.853 0 1.655.134 2.407.402zm3.387 7.146c.108.8.4 1.432.878 1.9.482.46 1.086.691 1.81.691.429 0 .848-.061 1.256-.185.407-.123.829-.314 1.263-.571v1.432c-.488.215-.931.368-1.328.459-.397.091-.815.137-1.255.137-.622 0-1.188-.102-1.698-.306-.51-.204-.944-.496-1.304-.877-.359-.381-.635-.84-.829-1.376-.193-.542-.289-1.135-.289-1.779 0-.82.155-1.545.466-2.173.312-.627.757-1.113 1.336-1.456.585-.349 1.248-.523 1.988-.523.869 0 1.561.214 2.076.643.521.424.888.985 1.103 1.682.22.698.33 1.465.33 2.302h-5.803zm.017-1.167h4.289c-.054-.44-.156-.826-.306-1.159-.15-.338-.373-.609-.668-.813-.295-.203-.657-.305-1.086-.305-.59 0-1.084.204-1.481.611-.392.403-.641.958-.748 1.666zm14.726-3.267v6.68c0 .799-.048 1.488-.145 2.067-.091.58-.273 1.079-.547 1.497-.274.424-.671.748-1.191.974-.52.225-1.199.338-2.036.338-1.014 0-2.036-.18-3.066-.54l.145-1.456c1.003.483 1.966.724 2.889.724.547 0 1.014-.104 1.4-.314.392-.209.676-.51.853-.9.107-.205.18-.433.217-.685.038-.247.057-.536.057-.869.005-.333.013-.585.024-.756-.606.89-1.502 1.335-2.688 1.335-.697 0-1.314-.166-1.851-.498-.536-.333-.952-.8-1.247-1.4-.295-.607-.443-1.31-.443-2.11 0-.81.148-1.536.443-2.18.295-.644.705-1.14 1.231-1.489.531-.354 1.143-.53 1.835-.53.628 0 1.186.139 1.674.418.493.279.842.652 1.046 1.118.005-.043.008-.08.008-.112.005-.033.008-.062.008-.089l-.016-.217v-1.006h1.4zm-3.774 1.159c-.435 0-.826.126-1.175.378-.349.247-.62.593-.813 1.038-.193.44-.289.939-.289 1.497 0 .542.093 1.022.281 1.44.193.413.459.735.797.966.338.23.721.346 1.151.346.343 0 .66-.067.949-.201.29-.14.539-.335.749-.588.214-.252.378-.55.491-.893.112-.343.169-.721.169-1.135 0-.525-.102-1.005-.306-1.44-.199-.44-.478-.783-.837-1.03-.354-.252-.743-.378-1.167-.378zm12.916-1.119v5.07c0 .44.037 1.43.113 2.97h-1.385l-.064-1.256c-.327.456-.719.8-1.175 1.03-.456.225-.971.338-1.545.338-1.121 0-1.899-.349-2.334-1.046-.434-.697-.652-1.644-.652-2.84v-4.266h1.497v3.734c0 .295.006.6.016.918.016.316.038.563.065.74.027.177.067.34.12.49.145.355.352.626.62.813.274.183.596.274.966.274.343 0 .654-.067.933-.201.279-.14.518-.338.716-.596.199-.257.352-.566.459-.925.107-.36.161-.754.161-1.183v-4.064h1.489zm3.927-3.597v1.65h-1.634v-1.65h1.634zm-.032 3.581v8.055h-1.505V17.68h1.505zm3.661 0l.089 1.296c.145-.295.34-.55.587-.765.247-.214.534-.378.861-.49.333-.119.695-.178 1.087-.178.606 0 1.11.14 1.513.419.407.273.694.673.861 1.199.536-1.079 1.421-1.618 2.655-1.618.574 0 1.044.11 1.409.33.364.22.638.512.82.877.188.36.312.768.371 1.224.064.45.096.96.096 1.529v4.232h-1.497V21.8c0-.52-.01-.922-.032-1.207-.016-.284-.048-.51-.096-.676-.21-.735-.671-1.102-1.385-1.102-.214 0-.423.037-.627.112-.199.076-.381.188-.548.338-.166.15-.311.328-.434.532-.123.203-.22.431-.29.684-.059.187-.099.41-.12.667-.017.258-.025.65-.025 1.175v3.412h-1.504v-4.136c0-.558-.009-.939-.025-1.143-.01-.203-.04-.389-.088-.555-.102-.343-.271-.609-.507-.797-.231-.193-.507-.29-.829-.29-.402 0-.767.121-1.094.363-.322.236-.574.566-.757.99-.182.424-.273.9-.273 1.432v4.136h-1.497v-4.53c0-1.433-.035-2.608-.105-3.525h1.384zm14.075-3.581v1.65h-1.634v-1.65h1.634zm-.032 3.581v8.055h-1.505V17.68h1.505zm3.283 4.41c.107.8.4 1.432.877 1.9.483.46 1.087.691 1.811.691.429 0 .848-.061 1.255-.185.408-.123.829-.314 1.264-.571v1.432c-.489.215-.931.368-1.328.459-.397.091-.816.137-1.255.137-.623 0-1.189-.102-1.698-.306-.51-.204-.945-.496-1.304-.877-.36-.381-.636-.84-.829-1.376-.193-.542-.29-1.135-.29-1.779 0-.82.156-1.545.467-2.173.311-.627.756-1.113 1.336-1.456.585-.349 1.247-.523 1.988-.523.869 0 1.561.214 2.076.643.52.424.888.985 1.102 1.682.22.698.33 1.465.33 2.302h-5.802zm.016-1.167h4.289c-.053-.44-.155-.826-.305-1.159-.151-.338-.373-.609-.668-.813-.295-.203-.658-.305-1.087-.305-.59 0-1.083.204-1.48.611-.392.403-.642.958-.749 1.666zm8.989-3.243l.072 1.28c.612-.945 1.535-1.417 2.769-1.417.676 0 1.218.124 1.625.37.408.247.708.574.902.982.193.403.319.848.378 1.336.059.483.088 1.07.088 1.762v3.742h-1.48v-3.629c0-.58-.011-1-.033-1.263-.016-.269-.048-.505-.096-.708-.113-.43-.317-.757-.612-.982-.295-.226-.662-.338-1.102-.338-.494 0-.934.147-1.32.442-.386.295-.657.698-.813 1.207-.048.145-.088.314-.12.507-.027.194-.043.403-.049.628-.005.225-.008.62-.008 1.183v2.953h-1.497V21.76c-.01-.456-.018-.875-.024-1.255-.005-.387-.016-.84-.032-1.36-.011-.526-.027-1.014-.048-1.465h1.4zm10.18-2.326v2.358h2.14v1.167h-2.14v3.163c0 .724.032 1.252.096 1.585.049.29.18.52.395.692.22.166.499.25.837.25.311 0 .635-.084.973-.25v1.288c-.472.15-.933.225-1.384.225-.697 0-1.223-.142-1.577-.427-.354-.284-.582-.657-.684-1.118-.097-.462-.145-1.06-.145-1.795v-3.613h-1.859v-1.167h1.859v-1.85l1.489-.508zm11.652 6.374c0 .815-.177 1.545-.531 2.189-.349.643-.842 1.145-1.481 1.505-.633.354-1.346.53-2.14.53-.783 0-1.486-.18-2.108-.538-.623-.365-1.111-.872-1.465-1.521-.354-.655-.531-1.377-.531-2.165 0-.622.099-1.191.298-1.706.203-.52.49-.971.861-1.352.375-.386.815-.684 1.319-.893.51-.21 1.057-.314 1.642-.314.59 0 1.14.102 1.65.306.509.203.952.498 1.328.885.375.386.662.842.861 1.368.198.526.297 1.094.297 1.706zm-1.585.032c0-.44-.064-.856-.193-1.247-.124-.392-.301-.725-.531-.998-.226-.28-.494-.494-.805-.644-.306-.15-.641-.225-1.006-.225-.735 0-1.346.29-1.835.869-.483.58-.724 1.312-.724 2.197 0 .585.107 1.11.322 1.577.22.467.523.829.909 1.086.392.258.835.387 1.328.387.478 0 .909-.126 1.296-.379.386-.257.689-.617.909-1.078.22-.461.33-.976.33-1.545zm15.105-7.894v8.111c0 .419.013 1.05.04 1.891.027.843.051 1.465.072 1.867h-1.448v-1.352c-.327.5-.716.87-1.167 1.111-.451.236-.99.354-1.617.354-.703 0-1.323-.166-1.859-.499-.537-.332-.95-.81-1.24-1.432-.284-.623-.426-1.347-.426-2.173 0-.628.08-1.194.241-1.698.167-.504.411-.95.733-1.336.321-.386.697-.676 1.126-.869.429-.198.904-.298 1.425-.298 1.142 0 2.033.467 2.671 1.4 0-.08-.005-.193-.016-.337-.005-.145-.013-.288-.024-.427-.005-.145-.008-.258-.008-.338v-3.975h1.497zm-3.758 4.949c-.338 0-.647.07-.926.209-.279.14-.523.34-.732.604-.209.262-.37.576-.483.941-.113.365-.169.751-.169 1.159 0 .837.212 1.523.636 2.06.424.531.966.797 1.625.797.446 0 .845-.124 1.199-.37.355-.253.633-.599.837-1.039.204-.445.306-.933.306-1.464 0-.537-.102-1.028-.306-1.473-.198-.445-.474-.794-.829-1.046-.348-.252-.734-.378-1.158-.378zm7.17 3.275c.107.8.4 1.432.877 1.9.483.46 1.086.691 1.811.691.429 0 .847-.061 1.255-.185.408-.123.829-.314 1.263-.571v1.432c-.488.215-.93.368-1.327.459-.397.091-.816.137-1.256.137-.622 0-1.188-.102-1.698-.306-.509-.204-.944-.496-1.303-.877-.36-.381-.636-.84-.829-1.376-.193-.542-.29-1.135-.29-1.779 0-.82.156-1.545.467-2.173.311-.627.756-1.113 1.336-1.456.584-.349 1.247-.523 1.987-.523.869 0 1.561.214 2.077.643.52.424.887.985 1.102 1.682.22.698.33 1.465.33 2.302h-5.802zm.016-1.167h4.289c-.054-.44-.155-.826-.306-1.159-.15-.338-.373-.609-.668-.813-.295-.203-.657-.305-1.086-.305-.59 0-1.084.204-1.481.611-.391.403-.641.958-.748 1.666zm17.125-6.381c1.105 0 2.06.244 2.864.732.81.483 1.425 1.156 1.843 2.02.419.858.628 1.843.628 2.953 0 .87-.123 1.658-.37 2.366-.242.703-.596 1.304-1.063 1.803-.461.499-1.016.88-1.665 1.142-.649.263-1.379.395-2.189.395-1.1 0-2.055-.244-2.865-.733-.81-.493-1.427-1.172-1.851-2.036-.418-.869-.628-1.848-.628-2.937 0-.82.118-1.577.355-2.27.236-.697.579-1.3 1.03-1.81.45-.51 1.008-.907 1.673-1.19.671-.29 1.417-.435 2.238-.435zm-.017 1.239c-.702 0-1.33.188-1.883.563-.547.37-.971.896-1.271 1.578-.295.675-.443 1.445-.443 2.309 0 .638.089 1.24.266 1.803.177.563.429 1.046.756 1.448.328.397.711.703 1.151.917.445.21.936.314 1.473.314.526 0 1.008-.107 1.448-.322.446-.214.832-.523 1.159-.925.333-.402.585-.866.757-1.392.171-.531.257-1.124.257-1.779 0-.686-.086-1.303-.257-1.85-.172-.553-.424-1.03-.757-1.433-.327-.402-.716-.708-1.167-.917-.45-.21-.947-.314-1.489-.314zm8.82-1.915v4.273c0 .31-.016.625-.048.941.199-.461.55-.831 1.054-1.11.51-.285 1.081-.427 1.714-.427.526 0 1.001.094 1.425.282.429.188.796.464 1.102.829.311.36.547.788.708 1.287.161.5.242 1.063.242 1.69 0 .633-.081 1.21-.242 1.73-.161.515-.397.96-.708 1.336-.311.376-.684.663-1.118.861-.43.194-.904.29-1.425.29-.622 0-1.175-.129-1.658-.386-.482-.263-.853-.628-1.11-1.095v1.368h-1.441v-11.87h1.505zm2.406 4.949c-.445 0-.85.126-1.215.378-.365.252-.649.6-.853 1.046-.204.44-.306.93-.306 1.473 0 .526.1 1.011.298 1.456.204.44.483.786.837 1.038.36.253.757.379 1.191.379.424 0 .808-.124 1.151-.37.349-.247.62-.593.813-1.039.193-.445.289-.939.289-1.48 0-.853-.203-1.545-.611-2.077-.403-.536-.934-.804-1.594-.804zm9.689-.942l-.112 1.256c-.526-.263-1.071-.395-1.634-.395-.413 0-.743.094-.99.282-.241.182-.362.424-.362.724 0 .311.121.55.362.716.242.167.671.405 1.288.717.622.305 1.094.622 1.416.95.322.326.483.761.483 1.303 0 .365-.07.7-.209 1.006-.134.3-.333.56-.596.78-.263.215-.579.381-.949.5-.365.112-.759.168-1.183.168-.741 0-1.438-.153-2.093-.459v-1.335c.387.187.727.324 1.022.41.296.08.585.12.87.12.295 0 .56-.045.796-.136.236-.091.421-.217.556-.378.134-.161.201-.34.201-.54 0-.305-.129-.544-.387-.716-.252-.171-.684-.415-1.295-.732-.606-.316-1.068-.638-1.384-.966-.317-.332-.475-.753-.475-1.263 0-.467.115-.877.346-1.231.231-.354.558-.628.982-.821.429-.193.92-.29 1.472-.29.596 0 1.221.11 1.875.33zm3.115 4.217c.107.8.399 1.432.877 1.9.483.46 1.086.691 1.81.691.43 0 .848-.061 1.256-.185.408-.123.829-.314 1.263-.571v1.432c-.488.215-.931.368-1.328.459-.397.091-.815.137-1.255.137-.622 0-1.188-.102-1.698-.306-.51-.204-.944-.496-1.304-.877-.359-.381-.635-.84-.828-1.376-.194-.542-.29-1.135-.29-1.779 0-.82.155-1.545.467-2.173.311-.627.756-1.113 1.335-1.456.585-.349 1.248-.523 1.988-.523.869 0 1.561.214 2.076.643.521.424.888.985 1.103 1.682.22.698.33 1.465.33 2.302h-5.802zm.016-1.167h4.289c-.054-.44-.156-.826-.306-1.159-.15-.338-.373-.609-.668-.813-.295-.203-.657-.305-1.086-.305-.59 0-1.084.204-1.481.611-.391.403-.641.958-.748 1.666zm7.604-3.243h1.385l.072 1.433c.241-.505.555-.886.942-1.143.391-.263.845-.395 1.36-.395.268 0 .539.035.812.105v1.368c-.257-.091-.493-.137-.708-.137-.52 0-.952.153-1.295.459-.344.3-.593.687-.749 1.159-.155.466-.233.955-.233 1.464v3.742h-1.481v-4.909c0-.793-.035-1.842-.105-3.146zm12.466 0l-2.897 8.055h-1.714l-2.97-8.055h1.618l1.649 4.643c.097.29.183.542.258.757.08.209.147.413.201.611.059.194.105.408.137.644.054-.36.169-.788.346-1.287l1.891-5.368h1.481zm1.698.604c.44-.258.874-.446 1.303-.564.435-.118.899-.177 1.393-.177.756 0 1.389.145 1.899.435.515.284.871.69 1.07 1.215.166.44.249 1.186.249 2.237V23c0 .606.006 1.137.017 1.593.016.45.037.831.064 1.142h-1.368c-.011-.187-.016-.397-.016-.627 0-.285.005-.537.016-.757-.311.52-.681.901-1.111 1.143-.429.236-.96.354-1.593.354-.558 0-1.052-.1-1.481-.298-.424-.198-.751-.48-.981-.845-.226-.37-.338-.796-.338-1.28 0-.423.091-.796.273-1.118.188-.327.462-.603.821-.829.359-.23.799-.402 1.32-.515.52-.112 1.121-.169 1.802-.169.408 0 .784.011 1.127.033-.011-.692-.18-1.2-.507-1.521-.327-.328-.829-.491-1.505-.491-.44 0-.842.061-1.207.185-.365.118-.754.314-1.167.587l-.08-1.303zm4.498 3.645c-.332-.032-.603-.048-.813-.048-1.985 0-2.977.51-2.977 1.529 0 .247.064.464.193.652.129.187.311.335.547.442.236.107.505.161.805.161.553 0 .995-.12 1.328-.362.332-.241.568-.566.708-.974.139-.407.209-.874.209-1.4zm9.15-4.024l-.097 1.32c-.407-.241-.898-.362-1.472-.362-.515 0-.982.118-1.401.354-.418.236-.743.566-.973.99-.231.418-.346.899-.346 1.44 0 .564.112 1.068.338 1.513.225.446.539.792.941 1.038.408.247.877.37 1.409.37.316 0 .6-.04.853-.12.252-.08.528-.212.828-.395l.121 1.369c-.306.139-.617.244-.933.313-.312.065-.66.097-1.047.097-.799 0-1.512-.172-2.14-.515-.622-.343-1.103-.824-1.441-1.44-.338-.623-.507-1.344-.507-2.165 0-.784.175-1.489.524-2.117.348-.633.831-1.126 1.448-1.48.617-.36 1.306-.54 2.068-.54.628 0 1.237.11 1.827.33zm3.195-3.806v1.65h-1.634v-1.65h1.634zm-.032 3.581v8.055h-1.505V17.68h1.505zm10.043 4.048c0 .815-.178 1.545-.532 2.189-.348.643-.842 1.145-1.48 1.505-.633.354-1.347.53-2.141.53-.783 0-1.486-.18-2.108-.538-.623-.365-1.111-.872-1.465-1.521-.354-.655-.531-1.377-.531-2.165 0-.622.099-1.191.298-1.706.204-.52.491-.971.861-1.352.375-.386.815-.684 1.32-.893.509-.21 1.056-.314 1.641-.314.59 0 1.14.102 1.65.306.51.203.952.498 1.328.885.375.386.662.842.861 1.368.198.526.298 1.094.298 1.706zm-1.586.032c0-.44-.064-.856-.193-1.247-.123-.392-.3-.725-.531-.998-.225-.28-.494-.494-.805-.644-.306-.15-.641-.225-1.006-.225-.735 0-1.346.29-1.834.869-.483.58-.725 1.312-.725 2.197 0 .585.108 1.11.322 1.577.22.467.523.829.91 1.086.391.258.834.387 1.327.387.478 0 .91-.126 1.296-.379.386-.257.689-.617.909-1.078.22-.461.33-.976.33-1.545zm4.764-4.08l.073 1.28c.611-.945 1.534-1.417 2.768-1.417.676 0 1.218.124 1.625.37.408.247.709.574.902.982.193.403.319.848.378 1.336.059.483.089 1.07.089 1.762v3.742h-1.481v-3.629c0-.58-.011-1-.032-1.263-.016-.269-.049-.505-.097-.708-.113-.43-.316-.757-.612-.982-.295-.226-.662-.338-1.102-.338-.494 0-.934.147-1.32.442-.386.295-.657.698-.813 1.207-.048.145-.088.314-.12.507-.027.194-.043.403-.049.628-.005.225-.008.62-.008 1.183v2.953h-1.496V21.76c-.011-.456-.019-.875-.025-1.255-.005-.387-.016-.84-.032-1.36-.01-.526-.027-1.014-.048-1.465h1.4zm9.021 4.41c.108.8.4 1.432.877 1.9.483.46 1.087.691 1.811.691.429 0 .848-.061 1.255-.185.408-.123.829-.314 1.264-.571v1.432c-.488.215-.931.368-1.328.459-.397.091-.815.137-1.255.137-.623 0-1.189-.102-1.698-.306-.51-.204-.945-.496-1.304-.877-.359-.381-.636-.84-.829-1.376-.193-.542-.29-1.135-.29-1.779 0-.82.156-1.545.467-2.173.311-.627.757-1.113 1.336-1.456.585-.349 1.247-.523 1.988-.523.869 0 1.561.214 2.076.643.52.424.888.985 1.102 1.682.22.698.33 1.465.33 2.302h-5.802zm.016-1.167h4.29c-.054-.44-.156-.826-.306-1.159-.15-.338-.373-.609-.668-.813-.295-.203-.657-.305-1.087-.305-.59 0-1.083.204-1.48.611-.392.403-.641.958-.749 1.666zm11.709-3.05l-.113 1.256c-.525-.263-1.07-.395-1.633-.395-.413 0-.743.094-.99.282-.241.182-.362.424-.362.724 0 .311.121.55.362.716.241.167.671.405 1.288.717.622.305 1.094.622 1.416.95.322.326.483.761.483 1.303 0 .365-.07.7-.209 1.006-.135.3-.333.56-.596.78-.263.215-.579.381-.95.5-.364.112-.759.168-1.182.168-.741 0-1.438-.153-2.093-.459v-1.335c.386.187.727.324 1.022.41.295.08.585.12.869.12.295 0 .561-.045.797-.136.236-.091.421-.217.555-.378.134-.161.201-.34.201-.54 0-.305-.128-.544-.386-.716-.252-.171-.684-.415-1.295-.732-.607-.316-1.068-.638-1.385-.966-.316-.332-.474-.753-.474-1.263 0-.467.115-.877.346-1.231.23-.354.558-.628.981-.821.43-.193.921-.29 1.473-.29.596 0 1.221.11 1.875.33zm6.993-3.13h2.181c.783 0 1.368.024 1.754.072.387.043.73.124 1.03.242.612.22 1.095.598 1.449 1.134.359.531.539 1.143.539 1.835 0 .461-.08.89-.241 1.288-.156.391-.381.735-.676 1.03-.29.29-.636.515-1.038.676-.285.107-.633.187-1.047.241-.413.048-.917.072-1.512.072h-.87v4.402h-1.569V14.742zm1.569 1.352v3.903h.853c.843 0 1.529-.137 2.061-.41.531-.28.796-.8.796-1.562 0-.365-.083-.684-.249-.958-.167-.279-.408-.496-.724-.651-.312-.161-.693-.258-1.143-.29-.349-.022-.88-.032-1.594-.032zm6.905 1.585h1.384l.073 1.433c.241-.505.555-.886.941-1.143.392-.263.845-.395 1.36-.395.268 0 .539.035.813.105v1.368c-.258-.091-.494-.137-.708-.137-.521 0-.953.153-1.296.459-.343.3-.593.687-.748 1.159-.156.466-.234.955-.234 1.464v3.742h-1.48v-4.909c0-.793-.035-1.842-.105-3.146zm6.929 4.41c.107.8.399 1.432.877 1.9.483.46 1.086.691 1.811.691.429 0 .847-.061 1.255-.185.408-.123.829-.314 1.263-.571v1.432c-.488.215-.93.368-1.327.459-.397.091-.816.137-1.256.137-.622 0-1.188-.102-1.698-.306-.509-.204-.944-.496-1.303-.877-.36-.381-.636-.84-.829-1.376-.193-.542-.29-1.135-.29-1.779 0-.82.156-1.545.467-2.173.311-.627.756-1.113 1.336-1.456.584-.349 1.247-.523 1.987-.523.869 0 1.561.214 2.076.643.521.424.888.985 1.103 1.682.22.698.33 1.465.33 2.302h-5.802zm.016-1.167h4.289c-.054-.44-.156-.826-.306-1.159-.15-.338-.373-.609-.668-.813-.295-.203-.657-.305-1.086-.305-.59 0-1.084.204-1.481.611-.391.403-.641.958-.748 1.666zm14.131-3.243l-2.897 8.055h-1.714l-2.97-8.055h1.618l1.65 4.643c.096.29.182.542.257.757.081.209.148.413.201.611.059.194.105.408.137.644.054-.36.169-.788.346-1.287l1.891-5.368h1.481zm2.253 4.41c.107.8.4 1.432.877 1.9.483.46 1.087.691 1.811.691.429 0 .848-.061 1.255-.185.408-.123.829-.314 1.264-.571v1.432c-.488.215-.931.368-1.328.459-.397.091-.816.137-1.255.137-.623 0-1.189-.102-1.698-.306-.51-.204-.945-.496-1.304-.877-.36-.381-.636-.84-.829-1.376-.193-.542-.29-1.135-.29-1.779 0-.82.156-1.545.467-2.173.311-.627.757-1.113 1.336-1.456.585-.349 1.247-.523 1.988-.523.869 0 1.561.214 2.076.643.52.424.888.985 1.102 1.682.22.698.33 1.465.33 2.302h-5.802zm.016-1.167h4.289c-.053-.44-.155-.826-.305-1.159-.151-.338-.373-.609-.668-.813-.295-.203-.657-.305-1.087-.305-.59 0-1.083.204-1.48.611-.392.403-.641.958-.749 1.666zm8.989-3.243l.072 1.28c.612-.945 1.535-1.417 2.769-1.417.676 0 1.218.124 1.625.37.408.247.708.574.902.982.193.403.319.848.378 1.336.059.483.088 1.07.088 1.762v3.742h-1.48v-3.629c0-.58-.011-1-.033-1.263-.016-.269-.048-.505-.096-.708-.113-.43-.317-.757-.612-.982-.295-.226-.662-.338-1.102-.338-.494 0-.934.147-1.32.442-.386.295-.657.698-.813 1.207-.048.145-.088.314-.12.507-.027.194-.043.403-.049.628-.005.225-.008.62-.008 1.183v2.953h-1.497V21.76c-.01-.456-.018-.875-.024-1.255-.005-.387-.016-.84-.032-1.36-.011-.526-.027-1.014-.048-1.465h1.4zm10.18-2.326v2.358h2.14v1.167h-2.14v3.163c0 .724.032 1.252.096 1.585.049.29.18.52.395.692.22.166.499.25.837.25.311 0 .635-.084.973-.25v1.288c-.472.15-.933.225-1.384.225-.697 0-1.223-.142-1.577-.427-.354-.284-.582-.657-.684-1.118-.097-.462-.145-1.06-.145-1.795v-3.613h-1.859v-1.167h1.859v-1.85l1.489-.508zm5.424-1.255v1.65h-1.634v-1.65h1.634zm-.032 3.581v8.055h-1.505V17.68h1.505zm8.819 0l-2.897 8.055h-1.714l-2.969-8.055h1.617l1.65 4.643c.097.29.182.542.258.757.08.209.147.413.201.611.059.194.104.408.137.644.053-.36.169-.788.346-1.287l1.891-5.368h1.48zm1.698.604c.44-.258.875-.446 1.304-.564.435-.118.899-.177 1.392-.177.757 0 1.39.145 1.899.435.515.284.872.69 1.071 1.215.166.44.249 1.186.249 2.237V23c0 .606.006 1.137.016 1.593.016.45.038.831.065 1.142h-1.368c-.011-.187-.016-.397-.016-.627 0-.285.005-.537.016-.757-.312.52-.682.901-1.111 1.143-.429.236-.96.354-1.593.354-.558 0-1.052-.1-1.481-.298-.424-.198-.751-.48-.982-.845-.225-.37-.338-.796-.338-1.28 0-.423.091-.796.274-1.118.188-.327.461-.603.821-.829.359-.23.799-.402 1.319-.515.521-.112 1.122-.169 1.803-.169.408 0 .783.011 1.127.033-.011-.692-.18-1.2-.507-1.521-.328-.328-.829-.491-1.505-.491-.44 0-.842.061-1.207.185-.365.118-.754.314-1.167.587l-.081-1.303zm4.499 3.645c-.333-.032-.604-.048-.813-.048-1.985 0-2.977.51-2.977 1.529 0 .247.064.464.193.652.128.187.311.335.547.442.236.107.504.161.805.161.552 0 .995-.12 1.327-.362.333-.241.569-.566.709-.974.139-.407.209-.874.209-1.4zm7.894-4.056l-.112 1.256c-.526-.263-1.071-.395-1.634-.395-.413 0-.743.094-.99.282-.241.182-.362.424-.362.724 0 .311.121.55.362.716.242.167.671.405 1.288.717.622.305 1.094.622 1.416.95.322.326.483.761.483 1.303 0 .365-.07.7-.209 1.006-.134.3-.333.56-.596.78-.263.215-.579.381-.949.5-.365.112-.76.168-1.183.168-.741 0-1.438-.153-2.093-.459v-1.335c.387.187.727.324 1.022.41.295.08.585.12.869.12.296 0 .561-.045.797-.136.236-.091.421-.217.555-.378.135-.161.202-.34.202-.54 0-.305-.129-.544-.387-.716-.252-.171-.684-.415-1.295-.732-.607-.316-1.068-.638-1.384-.966-.317-.332-.475-.753-.475-1.263 0-.467.115-.877.346-1.231.23-.354.558-.628.982-.821.429-.193.92-.29 1.472-.29.596 0 1.221.11 1.875.33z"/>
    <path stroke="#D3D3D3" stroke-width=".916" d="M98.902 7.325v24.722"/>
    <path fill="#fff" d="M17.048 2.182C19.818.926 22.797.009 25.865 0c15.89 0 31.78.009 47.665 0 4.891.074 9.826 1.996 13.258 5.529 3.8 3.615 5.943 8.918 5.684 14.161.19 6.866-3.883 13.555-9.9 16.79-2.74 1.58-5.912 2.194-9.033 2.402-10.406.026-20.811-.017-31.217.013-4.917.407-9.527 3.511-11.834 7.875-1.385 2.494-1.852 5.377-1.844 8.2-11.215.861-22.213-6.511-26.36-16.846-2.736-6.606-2.81-14.313-.039-20.92C4.915 10.495 10.413 5 17.048 2.183zm28.079 5.59c-.134.926-.303 1.852-.299 2.792.022 5.494.018 10.992.005 16.486-.013 1.095.164 2.173.316 3.251 1.303.052 2.601.048 3.904-.017.087-7.498.078-14.997.004-22.495-1.294-.412-2.64-.477-3.93-.018zm-29.412 2.61c-2.502 2.082-2.623 6.286-.376 8.598 1.9 1.892 4.787 2.255 6.748 4.048 1.311 1.165.558 3.399-1.009 3.905-2.58.948-5.146-.476-7.419-1.567-.112 1.208-.593 2.719.204 3.749 3.116 2.169 7.579 2.182 10.734.078 2.636-1.818 3.39-5.836 1.597-8.477-1.649-2.49-4.87-2.879-7.111-4.598-1.381-.909-1.104-3.268.489-3.792 2.142-.862 4.211.627 6.211 1.242.143-.835.35-1.68.251-2.537-.329-1.29-1.718-1.753-2.865-2.022-2.506-.558-5.428-.342-7.454 1.373zm14.306 5.186c-1.204.732-.68 2.26-.36 3.338 2.121-.835 4.35-2.086 6.7-1.42 1.351.429 1.386 2.057 1.585 3.213-2.056.926-4.462.03-6.501 1.086-1.879.563-3.13 2.42-2.835 4.386-.308 2.615 2.276 4.503 4.67 4.572 1.827.238 3.432-.814 4.904-1.745.16.446.33.892.498 1.342.991-.009 1.982-.017 2.97-.039.073-3.697.042-7.39.03-11.087.06-1.862-1.009-3.771-2.814-4.408-2.852-1.108-6.181-.653-8.847.762zm20.763-.164c1.126 4.134 2.74 8.126 3.922 12.248.311.896.532 1.9 1.22 2.602 1.637.212 3.294.064 4.94.056 1.51-3.364 2.384-6.966 3.644-10.425.55-1.702 1.393-3.386 1.281-5.226-1.234-.043-2.467-.03-3.7.052-1.273 3.797-2.416 7.637-3.645 11.451-1.394-3.775-2.2-7.74-3.667-11.49-.818-.026-1.64-.069-2.458-.052-.567.048-1.645-.117-1.537.784zm16.83.13c-1.304.684-.94 2.407-.226 3.403 1.926-1 4.073-2.014 6.302-1.498 1.507.42 1.689 2.286 1.576 3.593-2.653.22-5.67-.212-7.856 1.645-2.515 2.04-1.658 6.693 1.472 7.642 2.324 1.056 4.86.116 6.77-1.325.19.446.384.896.588 1.342.935-.009 1.87-.005 2.809 0 .385-3.104.104-6.243.2-9.365.042-2.069-.096-4.645-2.13-5.784-2.922-1.575-6.645-1.177-9.506.347z"/>
    <path fill="#408B41" d="M71.556 23.863c1.22-.238 2.472-.139 3.705-.135.082 1.052.238 2.347-.727 3.07-1.126 1.048-3.355 1.48-4.32.017-.736-1.104.104-2.693 1.342-2.952zM33.467 24.156c1.311-.74 2.926-.36 4.363-.394-.04.788.013 1.589-.165 2.364-.891 1.139-2.328 1.887-3.796 1.541-1.675-.247-1.848-2.814-.402-3.511z"/>
    <path fill="#fff" d="M20.684 4.007c-.93 0-8.668 7.385-12.421 11.077-.279 1.792-1.024 5.92-1.78 8.1-.944 2.723 4.431 10.023 7.627 11.076 3.196 1.054 11.804.618 17.034 0 5.23-.617 26.004.618 34.575.618 8.571 0 15.98-3.124 16.453-3.705.472-.58 2.142-9.878 2.142-13.946S79.557 8.184 78.358 6.73C77.16 5.278 52.5 3.17 49.412 3.063c-3.087-.11-27.566.944-28.728.944z"/>
    <path fill="#408B41" d="M25.354 9.977l-.355 2.543c-1.439-.552-2.7-.828-3.785-.828-.73 0-1.37.118-1.922.354-.542.227-.966.552-1.271.976-.296.414-.444.902-.444 1.464 0 .877.306 1.547.917 2.01.62.464 1.705 1.1 3.253 1.908 1.557.798 2.725 1.611 3.503 2.44.78.817 1.168 1.906 1.168 3.267 0 1.182-.285 2.242-.857 3.178-.572.937-1.385 1.656-2.44 2.159-1.044.503-2.247.754-3.607.754-1.607 0-3.14-.266-4.598-.798l.296-2.72c1.488.709 2.809 1.064 3.962 1.064.818 0 1.543-.138 2.173-.414.64-.276 1.129-.67 1.464-1.183.345-.522.517-1.134.517-1.833 0-1.006-.34-1.765-1.02-2.277-.68-.523-1.76-1.139-3.238-1.848-1.478-.71-2.597-1.444-3.356-2.203-.759-.769-1.138-1.848-1.138-3.238 0-1.084.261-2.04.784-2.868.532-.838 1.28-1.489 2.247-1.952.976-.463 2.084-.695 3.326-.695 1.567 0 3.041.247 4.42.74zm5.204 6.135c.808-.473 1.607-.818 2.395-1.035.798-.216 1.651-.325 2.558-.325 1.39 0 2.553.266 3.489.798.946.523 1.602 1.267 1.966 2.233.306.808.459 2.178.459 4.11v2.883c0 1.114.01 2.09.03 2.927.029.828.068 1.528.118 2.1h-2.514c-.02-.345-.03-.73-.03-1.154 0-.522.01-.985.03-1.39-.572.957-1.252 1.657-2.04 2.1-.789.434-1.764.65-2.927.65-1.026 0-1.932-.182-2.72-.546-.78-.365-1.38-.883-1.805-1.553-.413-.68-.62-1.463-.62-2.35 0-.78.167-1.464.502-2.055.345-.602.848-1.11 1.508-1.523.66-.424 1.469-.74 2.425-.947.956-.207 2.06-.31 3.312-.31.749 0 1.439.02 2.07.06-.02-1.272-.33-2.204-.932-2.795-.601-.601-1.523-.902-2.765-.902-.808 0-1.547.113-2.217.34-.67.217-1.385.577-2.144 1.08l-.148-2.396zm8.265 6.698c-.611-.06-1.11-.09-1.494-.09-3.647 0-5.47.937-5.47 2.81 0 .453.118.853.355 1.197.236.346.572.617 1.005.814.434.197.927.295 1.479.295 1.015 0 1.828-.221 2.44-.665.61-.444 1.044-1.04 1.3-1.789.256-.749.385-1.606.385-2.572zM48.52 7.996v21.807h-2.764V7.995h2.764zm16.204 7.007l-5.322 14.8h-3.15l-5.455-14.8h2.972l3.03 8.531c.178.532.336.996.474 1.39.148.384.27.759.37 1.123.108.355.192.75.25 1.183.1-.66.311-1.449.637-2.365l3.474-9.862h2.72zm3.12 1.11c.808-.474 1.606-.819 2.395-1.036.798-.216 1.65-.325 2.558-.325 1.39 0 2.552.266 3.489.798.946.523 1.601 1.267 1.966 2.233.306.808.458 2.178.458 4.11v2.883c0 1.114.01 2.09.03 2.927.03.828.069 1.528.118 2.1h-2.513c-.02-.345-.03-.73-.03-1.154 0-.522.01-.985.03-1.39-.572.957-1.252 1.657-2.04 2.1-.789.434-1.765.65-2.928.65-1.025 0-1.932-.182-2.72-.546-.779-.365-1.38-.883-1.804-1.553-.414-.68-.62-1.463-.62-2.35 0-.78.167-1.464.502-2.055.345-.602.847-1.11 1.508-1.523.66-.424 1.469-.74 2.425-.947.956-.207 2.06-.31 3.311-.31.75 0 1.44.02 2.07.06-.02-1.272-.33-2.204-.931-2.795-.602-.601-1.523-.902-2.765-.902-.808 0-1.547.113-2.218.34-.67.217-1.385.577-2.143 1.08l-.148-2.396zm8.264 6.697c-.61-.06-1.108-.09-1.493-.09-3.647 0-5.47.937-5.47 2.81 0 .453.118.853.355 1.197.236.346.571.617 1.005.814.434.197.927.295 1.478.295 1.016 0 1.829-.221 2.44-.665.611-.444 1.045-1.04 1.3-1.789.257-.749.385-1.606.385-2.572z"/>
    <path fill="#408B41" d="M25.354 9.977l.55.076.063-.448-.426-.152-.187.524zm-.355 2.543l-.2.519.654.25.097-.693-.55-.076zm-5.707-.473l.215.513.004-.002-.219-.511zm-1.271.975l-.451-.325-.002.002.453.323zm.473 3.475l-.336.443.003.002.333-.445zm3.253 1.907l-.258.493.004.002.254-.495zm3.503 2.44l-.405.38.003.003.402-.384zm-2.129 8.604l-.239-.502h-.002l.241.502zm-8.205-.044l-.553-.06-.047.433.41.15.19-.523zm.296-2.72l.24-.503-.709-.337-.084.78.553.06zm6.135.65l-.22-.511-.003.001.223.51zm1.464-1.183l-.464-.307-.002.003.466.304zm-.503-4.11l-.339.44.005.004.334-.444zm-6.594-4.051l-.396.39.003.003.393-.393zm-.354-6.106l-.47-.298v.001l.47.297zm2.247-1.952l-.239-.502h-.002l.24.502zm7.196-.032l-.355 2.543 1.102.153.355-2.543-1.102-.153zm.395 2.1c-1.478-.567-2.81-.865-3.984-.865v1.113c.994 0 2.186.254 3.586.79L25.198 12zm-3.984-.865c-.789 0-1.506.128-2.14.4l.437 1.023c.47-.201 1.033-.31 1.703-.31v-1.113zm-2.136.398c-.625.262-1.136.647-1.508 1.164l.902.65c.238-.33.575-.595 1.035-.787l-.43-1.027zm-1.51 1.166c-.37.518-.547 1.122-.547 1.787h1.112c0-.459.119-.83.34-1.14l-.905-.647zm-.547 1.787c0 1.023.366 1.87 1.137 2.454l.672-.887c-.451-.342-.697-.835-.697-1.567h-1.112zm1.14 2.456c.66.492 1.778 1.146 3.328 1.955l.515-.986c-1.546-.807-2.595-1.426-3.178-1.86l-.665.891zm3.332 1.957c1.528.783 2.634 1.562 3.352 2.325l.81-.762c-.839-.892-2.068-1.74-3.655-2.553l-.507.99zm3.355 2.328c.66.694 1.014 1.635 1.014 2.884h1.113c0-1.472-.425-2.71-1.322-3.651l-.805.767zm1.014 2.884c0 1.088-.262 2.046-.776 2.889l.95.58c.629-1.031.939-2.193.939-3.47h-1.113zM25.086 27c-.512.838-1.24 1.486-2.204 1.946l.479 1.004c1.145-.546 2.043-1.336 2.675-2.37l-.95-.58zm-2.206 1.947c-.957.46-2.075.699-3.366.699v1.112c1.43 0 2.717-.264 3.849-.809l-.483-1.002zm-3.366.699c-1.544 0-3.012-.256-4.407-.765l-.382 1.045c1.522.555 3.12.832 4.789.832v-1.112zm-4.045-.182l.296-2.72-1.106-.12-.296 2.72 1.106.12zm-.497-2.279c1.534.731 2.938 1.119 4.202 1.119v-1.112c-1.043 0-2.28-.323-3.723-1.01l-.479 1.003zm4.202 1.119c.88 0 1.683-.149 2.396-.46l-.446-1.02c-.548.24-1.194.367-1.95.367v1.113zm2.393-.46c.727-.313 1.306-.772 1.71-1.389l-.932-.608c-.267.408-.663.737-1.218.976l.44 1.021zm1.708-1.387c.412-.623.61-1.344.61-2.14h-1.113c0 .605-.147 1.107-.425 1.527l.928.613zm.61-2.14c0-1.144-.396-2.083-1.242-2.72l-.67.888c.515.388.8.966.8 1.833h1.112zM22.647 21.6c-.727-.559-1.848-1.195-3.336-1.909l-.481 1.003c1.469.705 2.506 1.302 3.14 1.788l.677-.882zm-3.336-1.909c-1.448-.695-2.506-1.397-3.203-2.094l-.787.786c.82.82 2 1.587 3.509 2.311l.481-1.003zm-3.2-2.092c-.63-.637-.979-1.56-.979-2.847H14.02c0 1.492.41 2.728 1.299 3.629l.791-.782zm-.979-2.847c0-.99.238-1.842.698-2.571l-.94-.594c-.585.926-.87 1.988-.87 3.165h1.112zm.697-2.57c.472-.743 1.139-1.326 2.018-1.748l-.48-1.003c-1.053.504-1.885 1.222-2.477 2.155l.939.596zm2.016-1.747c.891-.423 1.917-.641 3.088-.641V8.68c-1.312 0-2.504.245-3.565.749l.477 1.005zm3.088-.641c1.508 0 2.918.236 4.234.706l.374-1.047c-1.444-.516-2.981-.772-4.608-.772v1.113zm9.625 6.318l-.28-.48-.296.173.02.341.556-.034zm2.395-1.035l-.146-.536h-.001l.147.536zM39 15.55l-.275.484.006.003.269-.487zm1.966 2.233l-.52.196.52-.196zm.488 9.92l-.556.013v.007l.556-.02zm.119 2.1v.556h.606l-.052-.604-.554.048zm-2.514 0l-.555.031.03.525h.525v-.556zm0-2.543l.556.027-1.033-.313.477.286zm-2.04 2.1l.268.487.005-.003-.273-.485zm-5.648.103l-.236.503.003.002.233-.505zm-1.803-1.553l-.476.29.005.008.47-.298zm-.119-4.405l-.482-.277-.002.002.484.274zm1.508-1.523l.296.471.005-.003-.3-.468zm7.806-1.198l-.034.555.6.038-.01-.601-.556.008zm-.93-2.794l-.394.393.003.003.39-.396zm-4.983-.562l.17.53.008-.003-.178-.527zm-2.144 1.08l-.555.034.06.96.802-.531-.307-.464zm8.117 4.302h.556v-.505l-.503-.049-.053.554zm-7.984-6.218c.772-.452 1.526-.776 2.262-.978l-.295-1.073c-.842.231-1.685.597-2.529 1.091l.562.96zm2.26-.978c.747-.203 1.55-.306 2.412-.306v-1.112c-.952 0-1.853.114-2.704.345l.292 1.073zm2.412-.306c1.32 0 2.383.253 3.214.726l.55-.967c-1.041-.592-2.305-.871-3.764-.871v1.112zm3.22.73c.837.461 1.4 1.105 1.715 1.941l1.04-.393c-.413-1.095-1.161-1.94-2.217-2.522l-.538.973zm1.715 1.942c.267.705.422 1.986.422 3.913h1.113c0-1.937-.15-3.396-.494-4.307l-1.04.394zm.422 3.913v2.883h1.113v-2.883h-1.113zm0 2.883c0 1.117.01 2.097.03 2.94l1.112-.026c-.02-.832-.03-1.803-.03-2.914H40.87zm.03 2.947c.03.834.07 1.544.12 2.128l1.109-.096c-.049-.56-.088-1.25-.117-2.072l-1.112.04zm.675 1.524h-2.514v1.112h2.514v-1.113zm-1.959.524c-.018-.332-.028-.706-.028-1.122h-1.113c0 .433.01.828.03 1.185l1.111-.063zm-.028-1.122c0-.515.01-.97.029-1.362l-1.111-.054c-.02.415-.03.888-.03 1.416h1.112zm-1.004-1.675c-.534.892-1.15 1.514-1.836 1.9l.546.97c.89-.5 1.635-1.279 2.245-2.299l-.955-.57zm-1.831 1.898c-.686.377-1.563.581-2.66.581v1.113c1.23 0 2.305-.23 3.196-.72l-.536-.974zm-2.66.581c-.958 0-1.783-.17-2.486-.495l-.467 1.01c.873.404 1.862.598 2.954.598v-1.113zm-2.484-.494c-.69-.324-1.207-.773-1.57-1.346l-.94.595c.486.767 1.172 1.353 2.038 1.758l.472-1.007zm-1.564-1.338c-.355-.583-.54-1.264-.54-2.061H28.39c0 .977.23 1.863.702 2.64l.95-.579zm-.54-2.061c0-.697.149-1.285.43-1.781l-.968-.549c-.389.687-.575 1.469-.575 2.33h1.113zm.429-1.779c.294-.512.728-.956 1.32-1.328l-.59-.943c-.728.457-1.3 1.028-1.695 1.718l.965.553zm1.326-1.331c.592-.38 1.335-.675 2.242-.87l-.236-1.088c-1.005.218-1.879.554-2.607 1.022l.6.936zm2.242-.87c.908-.198 1.971-.299 3.194-.299V20.17c-1.281 0-2.426.106-3.43.323l.236 1.087zm3.194-.299c.74 0 1.417.02 2.035.058l.07-1.11c-.645-.04-1.347-.06-2.105-.06v1.112zm2.626-.505c-.021-1.345-.35-2.447-1.098-3.183l-.78.793c.455.448.747 1.208.765 2.407l1.113-.017zm-1.095-3.18c-.745-.745-1.836-1.064-3.158-1.064v1.112c1.163 0 1.915.282 2.372.74l.786-.787zm-3.158-1.064c-.86 0-1.66.12-2.395.37l.356 1.053c.605-.205 1.283-.31 2.04-.31v-1.113zm-2.389.367c-.73.236-1.49.622-2.28 1.145l.615.927c.728-.482 1.397-.816 2.008-1.014l-.343-1.058zm-1.417 1.574l-.148-2.395-1.11.069.148 2.395 1.11-.069zm7.615 3.783c-.62-.06-1.137-.091-1.547-.091v1.112c.36 0 .838.028 1.44.086l.107-1.107zm-1.547-.091c-1.853 0-3.327.235-4.356.763-.523.269-.947.621-1.238 1.07-.294.452-.432.97-.432 1.532h1.112c0-.374.09-.676.252-.926.165-.253.425-.486.814-.686.793-.408 2.054-.64 3.848-.64v-1.113zm-6.026 3.365c0 .556.147 1.067.452 1.512l.918-.629c-.168-.244-.258-.532-.258-.883h-1.112zm.452 1.512c.302.44.721.772 1.234 1.005l.46-1.013c-.354-.16-.605-.37-.776-.621l-.918.63zm1.234 1.005c.517.235 1.09.346 1.709.346V27.28c-.485 0-.898-.086-1.249-.246l-.46 1.013zm1.709.346c1.092 0 2.032-.24 2.766-.772l-.654-.9c-.488.354-1.175.56-2.112.56v1.112zm2.766-.772c.708-.514 1.209-1.207 1.5-2.059l-1.052-.36c-.221.646-.588 1.146-1.102 1.519l.654.9zm1.5-2.059c.28-.818.415-1.738.415-2.752h-1.113c0 .917-.121 1.712-.354 2.392l1.053.36zm9.557-17.567h.556V7.44h-.556v.556zm0 21.808v.556h.556v-.556h-.556zm-2.764 0H45.2v.556h.557v-.556zm0-21.808V7.44H45.2v.556h.557zm2.208 0v21.808h1.112V7.995h-1.112zm.556 21.252h-2.764v1.112h2.764v-1.113zm-2.208.556V7.995H45.2v21.808h1.113zm-.556-21.251h2.764V7.439h-2.764v1.113zm18.968 6.451l.524.189.267-.745h-.79v.556zm-5.322 14.8v.556h.39l.133-.368-.523-.188zm-3.15 0l-.521.192.134.364h.388v-.556zm-5.455-14.8v-.556H50l.276.749.522-.193zm2.972 0l.524-.186-.131-.37h-.393v.556zm3.03 8.531l.528-.176-.003-.01-.524.186zm.474 1.39l-.525.184.003.008.003.008.519-.2zm.37 1.123l-.538.146.003.008.002.009.532-.163zm.25 1.183l-.55.075 1.1.007-.55-.082zm.637-2.365l.524.186v-.002l-.524-.184zm3.474-9.862v-.556h-.394l-.13.372.524.184zm2.197-.188l-5.323 14.8 1.047.376 5.323-14.8-1.047-.376zm-4.8 14.432h-3.148v1.112h3.149v-1.113zm-2.627.363L51.32 14.811l-1.044.385 5.456 14.8 1.044-.386zm-5.977-14.05h2.972v-1.113h-2.972v1.113zm2.448-.37l3.03 8.53 1.049-.372-3.031-8.53-1.048.372zm3.027 8.52c.178.534.337 1 .476 1.398l1.05-.368c-.137-.39-.294-.851-.47-1.382l-1.056.352zm.482 1.413c.141.369.258.725.351 1.07l1.074-.29c-.104-.385-.233-.778-.387-1.179l-1.038.4zm.356 1.087c.099.322.177.686.233 1.095l1.102-.15c-.063-.458-.152-.882-.27-1.27l-1.065.325zm1.334 1.102c.091-.613.291-1.365.61-2.261l-1.049-.372c-.332.936-.556 1.761-.661 2.47l1.1.163zm.61-2.263l3.474-9.86-1.049-.37-3.474 9.86 1.05.37zm2.95-9.49h2.72v-1.112h-2.72v1.113zm5.84.553l-.281-.48-.295.173.02.341.556-.034zm2.395-1.035l-.146-.536h-.002l.148.536zm6.047.473l-.275.484.006.003.269-.487zm1.966 2.233l-.52.196.52-.196zm.488 9.92l-.556.013v.007l.556-.02zm.118 2.1v.556h.606l-.052-.604-.554.048zm-2.513 0l-.555.031.03.525h.525v-.556zm0-2.543l.555.027-1.032-.313.477.286zm-2.04 2.1l.268.487.004-.003-.272-.485zm-5.648.103l-.236.503.002.002.234-.505zm-1.804-1.553l-.475.29.005.008.47-.298zm-.118-4.405l-.483-.277-.001.002.484.274zm1.508-1.523l.295.471.005-.003-.3-.468zm7.806-1.198l-.034.555.6.038-.01-.601-.556.008zm-.931-2.794l-.394.393.004.003.39-.396zm-4.983-.562l.172.53.007-.003-.179-.527zm-2.143 1.08l-.556.034.06.96.803-.531-.307-.464zm8.116 4.302h.556v-.505l-.502-.049-.054.554zm-7.983-6.218c.772-.452 1.526-.776 2.261-.978l-.295-1.073c-.841.231-1.684.597-2.528 1.091l.562.96zm2.26-.978c.746-.203 1.55-.306 2.412-.306v-1.112c-.952 0-1.854.114-2.704.345l.292 1.073zm2.412-.306c1.32 0 2.382.253 3.214.726l.55-.967c-1.041-.592-2.306-.871-3.764-.871v1.112zm3.22.73c.836.461 1.399 1.105 1.715 1.941l1.04-.393c-.413-1.095-1.161-1.94-2.218-2.522l-.537.973zm1.715 1.942c.267.705.422 1.986.422 3.913h1.113c0-1.937-.15-3.396-.495-4.307l-1.04.394zm.422 3.913v2.883h1.113v-2.883h-1.113zm0 2.883c0 1.117.01 2.097.03 2.94l1.112-.026c-.02-.832-.03-1.803-.03-2.914h-1.112zm.03 2.947c.03.834.07 1.544.12 2.128l1.108-.096c-.048-.56-.087-1.25-.116-2.072l-1.112.04zm.674 1.524h-2.513v1.112h2.513v-1.113zm-1.958.524c-.019-.332-.028-.706-.028-1.122H75.76c0 .433.01.828.03 1.185l1.111-.063zm-.028-1.122c0-.515.01-.97.028-1.362l-1.11-.054c-.02.415-.03.888-.03 1.416h1.112zm-1.005-1.675c-.533.892-1.148 1.514-1.835 1.9l.545.97c.89-.5 1.635-1.279 2.245-2.299l-.954-.57zm-1.83 1.898c-.686.377-1.564.581-2.66.581v1.113c1.23 0 2.304-.23 3.196-.72l-.536-.974zm-2.66.581c-.959 0-1.783-.17-2.487-.495l-.467 1.01c.874.404 1.863.598 2.954.598v-1.113zm-2.484-.494c-.691-.324-1.207-.773-1.57-1.346l-.94.595c.485.767 1.172 1.353 2.038 1.758l.472-1.007zm-1.565-1.338c-.355-.583-.54-1.264-.54-2.061h-1.112c0 .977.23 1.863.702 2.64l.95-.579zm-.54-2.061c0-.697.15-1.285.43-1.781l-.967-.549c-.389.687-.575 1.469-.575 2.33h1.112zm.43-1.779c.294-.512.728-.956 1.32-1.328l-.59-.943c-.728.457-1.3 1.028-1.695 1.718l.964.553zm1.325-1.331c.593-.38 1.336-.675 2.242-.87l-.235-1.088c-1.006.218-1.88.554-2.608 1.022l.601.936zm2.242-.87c.909-.198 1.972-.299 3.194-.299V20.17c-1.28 0-2.425.106-3.43.323l.236 1.087zm3.194-.299c.74 0 1.418.02 2.035.058l.07-1.11c-.644-.04-1.346-.06-2.105-.06v1.112zm2.626-.505c-.02-1.345-.35-2.447-1.097-3.183l-.78.793c.454.448.746 1.208.765 2.407l1.112-.017zm-1.094-3.18c-.745-.745-1.836-1.064-3.158-1.064v1.112c1.162 0 1.914.282 2.371.74l.787-.787zm-3.158-1.064c-.86 0-1.66.12-2.396.37l.357 1.053c.605-.205 1.283-.31 2.039-.31v-1.113zm-2.389.367c-.73.236-1.49.622-2.28 1.145l.615.927c.728-.482 1.397-.816 2.008-1.014l-.343-1.058zm-1.417 1.574l-.148-2.395-1.11.069.147 2.395 1.11-.069zm7.615 3.783c-.62-.06-1.137-.091-1.547-.091v1.112c.36 0 .837.028 1.44.086l.107-1.107zm-1.547-.091c-1.853 0-3.327.235-4.357.763-.523.269-.946.621-1.238 1.07-.293.452-.431.97-.431 1.532h1.112c0-.374.09-.676.252-.926.165-.253.425-.486.813-.686.794-.408 2.055-.64 3.85-.64v-1.113zM68.59 25.53c0 .556.147 1.067.452 1.512l.917-.629c-.167-.244-.257-.532-.257-.883H68.59zm.452 1.512c.301.44.721.772 1.234 1.005l.46-1.013c-.354-.16-.605-.37-.777-.621l-.917.63zm1.234 1.005c.516.235 1.09.346 1.708.346V27.28c-.485 0-.897-.086-1.248-.246l-.46 1.013zm1.708.346c1.093 0 2.033-.24 2.767-.772l-.654-.9c-.488.354-1.175.56-2.113.56v1.112zm2.767-.772c.708-.514 1.209-1.207 1.5-2.059l-1.052-.36c-.221.646-.588 1.146-1.102 1.519l.654.9zm1.5-2.059c.28-.818.414-1.738.414-2.752h-1.112c0 .917-.122 1.712-.354 2.392l1.052.36z"/>
    <defs>
        <filter id="filter0_d" width="442.236" height="46.696" x="6.426" y="0" color-interpolation-filters="sRGB" filterUnits="userSpaceOnUse">
            <feFlood flood-opacity="0" result="BackgroundImageFix"/>
            <feColorMatrix in="SourceAlpha" values="0 0 0 0 0 0 0 0 0 0 0 0 0 0 0 0 0 0 127 0"/>
            <feOffset dy="3.662"/>
            <feGaussianBlur stdDeviation="1.831"/>
            <feColorMatrix values="0 0 0 0 0 0 0 0 0 0 0 0 0 0 0 0 0 0 0.25 0"/>
            <feBlend in2="BackgroundImageFix" result="effect1_dropShadow"/>
            <feBlend in="SourceGraphic" in2="effect1_dropShadow" result="shape"/>
        </filter>
    </defs>
</svg>
