<svg xmlns="http://www.w3.org/2000/svg" width="90" height="90" fill="none" viewBox="0 0 90 90">
    <g fill="#fff" clip-path="url(#clip0)">
        <path d="M63.75 82.5C53.411 82.5 45 74.089 45 63.75S53.411 45 63.75 45 82.5 53.411 82.5 63.75 74.089 82.5 63.75 82.5zm0-31.875c-7.237 0-13.125 5.888-13.125 13.125s5.888 13.125 13.125 13.125 13.125-5.888 13.125-13.125-5.888-13.125-13.125-13.125z"/>
        <path d="M87.187 90c-.72 0-1.44-.274-1.988-.825L73.012 76.987c-1.1-1.098-1.1-2.88 0-3.978 1.098-1.1 2.88-1.1 3.978 0l12.188 12.187c1.099 1.099 1.099 2.88 0 3.979-.551.551-1.271.825-1.991.825zM39.487 78.75H10.312C4.625 78.75 0 74.126 0 68.437V10.313C0 4.622 4.624 0 10.313 0h43.124c5.69 0 10.313 4.624 10.313 10.313v26.4c0 1.552-1.26 2.812-2.813 2.812-1.552 0-2.812-1.26-2.812-2.813v-26.4c0-2.583-2.104-4.687-4.688-4.687H10.313c-2.584 0-4.688 2.104-4.688 4.688v58.124c0 2.584 2.104 4.688 4.688 4.688h29.174c1.553 0 2.813 1.26 2.813 2.813 0 1.552-1.26 2.812-2.813 2.812z"/>
        <path d="M49.688 35.625H14.062c-1.552 0-2.812-1.26-2.812-2.813 0-1.552 1.26-2.812 2.813-2.812h35.624c1.553 0 2.813 1.26 2.813 2.813 0 1.552-1.26 2.812-2.813 2.812zM34.688 50.625H14.061c-1.552 0-2.812-1.26-2.812-2.813 0-1.552 1.26-2.812 2.813-2.812h20.624c1.553 0 2.813 1.26 2.813 2.813 0 1.552-1.26 2.812-2.813 2.812zM30.938 20.625H14.063c-1.553 0-2.813-1.26-2.813-2.813 0-1.552 1.26-2.812 2.813-2.812h16.874c1.553 0 2.813 1.26 2.813 2.813 0 1.552-1.26 2.812-2.813 2.812z"/>
    </g>
    <defs>
        <clipPath id="clip0">
            <path fill="#fff" d="M0 0H90V90H0z"/>
        </clipPath>
    </defs>
</svg>
