<svg xmlns="http://www.w3.org/2000/svg" width="116" height="116" fill="none" viewBox="0 0 116 116">
    <path fill="#C2C2C2" d="M111.469 77.484c2.502 0 4.531-2.028 4.531-4.53V18.124C116 8.131 107.869 0 97.875 0h-79.75C8.131 0 0 8.13 0 18.125v79.75C0 107.869 8.13 116 18.125 116h79.75c9.994 0 18.125-8.131 18.125-18.125 0-2.503-2.029-4.531-4.531-4.531-2.503 0-4.531 2.028-4.531 4.531 0 4.997-4.066 9.063-9.063 9.063H36.023V89.266h57.32c2.503 0 4.532-2.029 4.532-4.532 0-2.502-2.029-4.53-4.531-4.53h-57.32V62.53h70.914v10.422c0 2.503 2.028 4.531 4.531 4.531zm-84.508 29.454h-8.836c-4.997 0-9.063-4.066-9.063-9.063v-8.61h17.899v17.673zm0-26.735H9.063V62.531H26.96v17.672zm0-26.734H9.063V35.57H26.96V53.47zm0-26.961H9.063v-8.383c0-4.997 4.065-9.063 9.062-9.063h8.836v17.446zm9.062-17.445h61.852c4.997 0 9.063 4.065 9.063 9.062v8.383H36.023V9.063zm0 44.406V35.57h70.915V53.47H36.023z"/>
</svg>
