<svg xmlns="http://www.w3.org/2000/svg" width="79" height="79" fill="none" viewBox="0 0 79 79">
    <g clip-path="url(#clip0)">
        <path fill="#C1C1C1" d="M54.175 49.888c2.03-2.902 3.223-6.431 3.223-10.234 0-9.869-8.029-17.898-17.898-17.898s-17.898 8.03-17.898 17.898c0 9.87 8.029 17.899 17.898 17.899 3.842 0 7.406-1.218 10.325-3.286l11.68 11.679c.601.602 1.392.903 2.181.903.79 0 1.58-.301 2.182-.903 1.205-1.206 1.205-3.16 0-4.365L54.175 49.888zM27.773 39.654c0-6.466 5.261-11.726 11.727-11.726s11.727 5.26 11.727 11.726c0 6.466-5.261 11.727-11.727 11.727s-11.727-5.26-11.727-11.727zM79 37.957v3.086c0 5.105-4.153 9.258-9.258 9.258h-1.554c-.251 0-.442.094-.558.174-1.405.964-3.326.606-4.29-.8-.964-1.405-.606-3.326.8-4.29 1.198-.822 2.598-1.256 4.048-1.256h1.554c1.702 0 3.086-1.384 3.086-3.086v-3.086c0-1.702-1.384-3.086-3.086-3.086h-1.554c-2.917 0-5.527-1.756-6.649-4.472l-.019-.045c-1.127-2.716-.524-5.804 1.539-7.866l1.099-1.1c1.203-1.203 1.203-3.16 0-4.364l-2.183-2.181c-.582-.583-1.357-.904-2.181-.904-.825 0-1.6.32-2.182.904l-1.1 1.098c-2.062 2.063-5.15 2.667-7.866 1.538l-.046-.019c-2.715-1.121-4.471-3.73-4.471-6.648V9.258c0-1.702-1.384-3.086-3.086-3.086h-3.086c-1.702 0-3.086 1.384-3.086 3.086v1.554c0 2.917-1.756 5.527-4.472 6.648l-.04.017c-2.722 1.13-5.809.527-7.871-1.536l-1.1-1.099c-.582-.583-1.357-.903-2.182-.903-.824 0-1.599.32-2.181.903l-2.183 2.182c-1.203 1.203-1.203 3.161 0 4.365l1.1 1.099c2.062 2.062 2.665 5.15 1.537 7.866l-.019.046c-1.121 2.715-3.73 4.471-6.648 4.471H9.258c-1.702 0-3.086 1.384-3.086 3.086v3.086c0 1.702 1.384 3.086 3.086 3.086h1.554c2.917 0 5.527 1.756 6.648 4.472l.023.054c1.124 2.707.52 5.795-1.542 7.857l-1.099 1.1c-.583.582-.903 1.357-.903 2.182 0 .824.32 1.599.903 2.181l2.182 2.183c1.203 1.203 3.161 1.204 4.365 0l1.099-1.1c2.06-2.06 5.146-2.665 7.861-1.539l.04.017c2.727 1.125 4.482 3.735 4.482 6.652v1.554c0 1.702 1.384 3.086 3.086 3.086h3.086c1.702 0 3.086-1.384 3.086-3.086v-1.554c0-1.45.434-2.85 1.257-4.049.963-1.405 2.884-1.763 4.29-.799 1.405.964 1.763 2.885.799 4.29-.08.116-.174.307-.174.558v1.554c0 5.105-4.153 9.258-9.258 9.258h-3.086c-5.105 0-9.258-4.153-9.258-9.258v-1.554c0-.409-.257-.78-.656-.944l-.056-.024c-.401-.166-.846-.086-1.135.203l-1.1 1.1c-3.609 3.608-9.482 3.608-13.092 0l-2.182-2.183c-1.749-1.749-2.711-4.073-2.711-6.546s.962-4.798 2.711-6.546l1.1-1.1c.288-.289.367-.734.202-1.134l-.026-.06c-.162-.396-.533-.653-.942-.653H9.258C4.153 50.3 0 46.148 0 41.043v-3.086c0-5.105 4.153-9.258 9.258-9.258h1.554c.409 0 .78-.257.944-.655l.023-.057c.167-.4.087-.846-.202-1.135l-1.099-1.099c-3.61-3.61-3.61-9.483 0-13.093l2.182-2.182c1.75-1.748 4.074-2.711 6.546-2.711 2.473 0 4.798.963 6.547 2.711l1.099 1.1c.29.288.735.368 1.135.202l.055-.024c.4-.164.657-.535.657-.944V9.258C28.7 4.153 32.853 0 37.957 0h3.086c5.105 0 9.258 4.153 9.258 9.258v1.554c0 .409.257.78.655.944l.063.026c.395.164.84.084 1.13-.205l1.099-1.099c1.748-1.749 4.073-2.711 6.546-2.711 2.472 0 4.797.962 6.546 2.711l2.182 2.182c3.61 3.61 3.61 9.483 0 13.093l-1.1 1.099c-.288.289-.368.734-.202 1.135l.023.055c.165.4.536.657.945.657h1.554c5.105 0 9.258 4.153 9.258 9.258z"/>
    </g>
    <defs>
        <clipPath id="clip0">
            <path fill="#fff" d="M0 0H79V79H0z"/>
        </clipPath>
    </defs>
</svg>
