<svg xmlns="http://www.w3.org/2000/svg" width="127" height="127" fill="none" viewBox="0 0 127 127">
    <path fill="#C2C2C2" d="M122.039 87.313c2.74 0 4.961-2.222 4.961-4.961V29.766c0-10.942-8.902-19.844-19.844-19.844h-6.449V4.96c0-2.74-2.221-4.961-4.96-4.961-2.74 0-4.962 2.221-4.962 4.96v4.962H68.213V4.96C68.213 2.22 65.992 0 63.252 0s-4.961 2.221-4.961 4.96v4.962H35.967V4.96C35.967 2.22 33.746 0 31.006 0s-4.961 2.221-4.961 4.96v4.962h-6.201C8.902 9.922 0 18.824 0 29.766v77.39C0 118.098 8.902 127 19.844 127h87.312c10.942 0 19.844-8.902 19.844-19.844 0-2.74-2.221-4.961-4.961-4.961s-4.961 2.221-4.961 4.961c0 5.471-4.451 9.922-9.922 9.922H19.844c-5.471 0-9.922-4.451-9.922-9.922v-77.39c0-5.471 4.45-9.922 9.922-9.922h6.2v4.96c0 2.74 2.222 4.962 4.962 4.962 2.74 0 4.96-2.221 4.96-4.961v-4.961h22.325v4.96c0 2.74 2.221 4.962 4.961 4.962s4.96-2.221 4.96-4.961v-4.961h22.573v4.96c0 2.74 2.221 4.962 4.961 4.962s4.961-2.221 4.961-4.961v-4.961h6.449c5.471 0 9.922 4.45 9.922 9.922v52.586c0 2.74 2.221 4.96 4.961 4.96z"/>
    <path fill="#C2C2C2" d="M85.513 51.93L61.06 86.088c-.668.774-1.504.941-1.953.971-.462.032-1.357-.029-2.126-.76l-15.83-15.2c-1.977-1.898-5.118-1.834-7.015.142-1.897 1.976-1.834 5.117.143 7.014L50.125 93.47c2.373 2.259 5.541 3.516 8.8 3.516.28 0 .561-.01.842-.028 3.55-.237 6.866-1.963 9.095-4.737.057-.072.113-.145.167-.22L93.58 57.706c1.595-2.228 1.081-5.327-1.146-6.922-2.229-1.594-5.328-1.081-6.922 1.147z"/>
</svg>
