<?xml version="1.0" encoding="UTF-8"?>
<!DOCTYPE svg PUBLIC "-//W3C//DTD SVG 1.1//EN" "http://www.w3.org/Graphics/SVG/1.1/DTD/svg11.dtd">
<svg version="1.2" width="78.32mm" height="78.32mm" viewBox="0 0 7832 7832" preserveAspectRatio="xMidYMid" fill-rule="evenodd" stroke-width="28.222" stroke-linejoin="round" xmlns="http://www.w3.org/2000/svg" xmlns:ooo="http://xml.openoffice.org/svg/export" xmlns:xlink="http://www.w3.org/1999/xlink" xmlns:presentation="http://sun.com/xmlns/staroffice/presentation" xmlns:smil="http://www.w3.org/2001/SMIL20/" xmlns:anim="urn:oasis:names:tc:opendocument:xmlns:animation:1.0" xml:space="preserve">
 <defs class="ClipPathGroup">
  <clipPath id="presentation_clip_path" clipPathUnits="userSpaceOnUse">
   <rect x="0" y="0" width="7832" height="7832"/>
  </clipPath>
  <clipPath id="presentation_clip_path_shrink" clipPathUnits="userSpaceOnUse">
   <rect x="7" y="7" width="7817" height="7817"/>
  </clipPath>
 </defs>
 <defs class="TextShapeIndex">
  <g ooo:slide="id1" ooo:id-list="id3 id4 id5 id6 id7"/>
 </defs>
 <defs class="EmbeddedBulletChars">
  <g id="bullet-char-template-57356" transform="scale(0.00048828125,-0.00048828125)">
   <path d="M 580,1141 L 1163,571 580,0 -4,571 580,1141 Z"/>
  </g>
  <g id="bullet-char-template-57354" transform="scale(0.00048828125,-0.00048828125)">
   <path d="M 8,1128 L 1137,1128 1137,0 8,0 8,1128 Z"/>
  </g>
  <g id="bullet-char-template-10146" transform="scale(0.00048828125,-0.00048828125)">
   <path d="M 174,0 L 602,739 174,1481 1456,739 174,0 Z M 1358,739 L 309,1346 659,739 1358,739 Z"/>
  </g>
  <g id="bullet-char-template-10132" transform="scale(0.00048828125,-0.00048828125)">
   <path d="M 2015,739 L 1276,0 717,0 1260,543 174,543 174,936 1260,936 717,1481 1274,1481 2015,739 Z"/>
  </g>
  <g id="bullet-char-template-10007" transform="scale(0.00048828125,-0.00048828125)">
   <path d="M 0,-2 C -7,14 -16,27 -25,37 L 356,567 C 262,823 215,952 215,954 215,979 228,992 255,992 264,992 276,990 289,987 310,991 331,999 354,1012 L 381,999 492,748 772,1049 836,1024 860,1049 C 881,1039 901,1025 922,1006 886,937 835,863 770,784 769,783 710,716 594,584 L 774,223 C 774,196 753,168 711,139 L 727,119 C 717,90 699,76 672,76 641,76 570,178 457,381 L 164,-76 C 142,-110 111,-127 72,-127 30,-127 9,-110 8,-76 1,-67 -2,-52 -2,-32 -2,-23 -1,-13 0,-2 Z"/>
  </g>
  <g id="bullet-char-template-10004" transform="scale(0.00048828125,-0.00048828125)">
   <path d="M 285,-33 C 182,-33 111,30 74,156 52,228 41,333 41,471 41,549 55,616 82,672 116,743 169,778 240,778 293,778 328,747 346,684 L 369,508 C 377,444 397,411 428,410 L 1163,1116 C 1174,1127 1196,1133 1229,1133 1271,1133 1292,1118 1292,1087 L 1292,965 C 1292,929 1282,901 1262,881 L 442,47 C 390,-6 338,-33 285,-33 Z"/>
  </g>
  <g id="bullet-char-template-9679" transform="scale(0.00048828125,-0.00048828125)">
   <path d="M 813,0 C 632,0 489,54 383,161 276,268 223,411 223,592 223,773 276,916 383,1023 489,1130 632,1184 813,1184 992,1184 1136,1130 1245,1023 1353,916 1407,772 1407,592 1407,412 1353,268 1245,161 1136,54 992,0 813,0 Z"/>
  </g>
  <g id="bullet-char-template-8226" transform="scale(0.00048828125,-0.00048828125)">
   <path d="M 346,457 C 273,457 209,483 155,535 101,586 74,649 74,723 74,796 101,859 155,911 209,963 273,989 346,989 419,989 480,963 531,910 582,859 608,796 608,723 608,648 583,586 532,535 482,483 420,457 346,457 Z"/>
  </g>
  <g id="bullet-char-template-8211" transform="scale(0.00048828125,-0.00048828125)">
   <path d="M -4,459 L 1135,459 1135,606 -4,606 -4,459 Z"/>
  </g>
  <g id="bullet-char-template-61548" transform="scale(0.00048828125,-0.00048828125)">
   <path d="M 173,740 C 173,903 231,1043 346,1159 462,1274 601,1332 765,1332 928,1332 1067,1274 1183,1159 1299,1043 1357,903 1357,740 1357,577 1299,437 1183,322 1067,206 928,148 765,148 601,148 462,206 346,322 231,437 173,577 173,740 Z"/>
  </g>
 </defs>
 <defs class="TextEmbeddedBitmaps"/>
 <g>
  <g id="id2" class="Master_Slide">
   <g id="bg-id2" class="Background"/>
   <g id="bo-id2" class="BackgroundObjects"/>
  </g>
 </g>
 <g class="SlideGroup">
  <g>
   <g id="container-id1">
    <g id="id1" class="Slide" clip-path="url(#presentation_clip_path)">
     <g class="Page">
      <g class="com.sun.star.drawing.ClosedBezierShape">
       <g id="id3">
        <rect class="BoundingBox" stroke="none" fill="none" x="0" y="0" width="7834" height="7834"/>
        <path fill="rgb(5,190,238)" stroke="none" d="M 7833,3916 C 7833,4637 7668,5250 7308,5874 6947,6499 6499,6947 5874,7308 5250,7668 4637,7833 3916,7833 3195,7833 2583,7668 1958,7308 1334,6947 885,6499 525,5874 164,5250 0,4637 0,3916 0,3195 164,2583 525,1958 885,1334 1334,885 1958,525 2583,164 3195,0 3916,0 4637,0 5250,164 5874,525 6499,885 6947,1334 7308,1958 7668,2583 7833,3195 7833,3916 Z"/>
       </g>
      </g>
      <g class="com.sun.star.drawing.ClosedBezierShape">
       <g id="id4">
        <rect class="BoundingBox" stroke="none" fill="none" x="1" y="1" width="7834" height="7834"/>
        <path fill="rgb(229,229,229)" stroke="none" d="M 7834,3917 C 7834,4638 7669,5251 7309,5875 6948,6500 6500,6948 5875,7309 5251,7669 4638,7834 3917,7834 3196,7834 2584,7669 1959,7309 1335,6948 886,6500 526,5875 165,5251 1,4638 1,3917 1,3196 165,2584 526,1959 886,1335 1335,886 1959,526 2584,165 3196,1 3917,1 4638,1 5251,165 5875,526 6500,886 6948,1335 7309,1959 7669,2584 7834,3196 7834,3917 Z"/>
       </g>
      </g>
      <g class="com.sun.star.drawing.ClosedBezierShape">
       <g id="id5">
        <rect class="BoundingBox" stroke="none" fill="none" x="2983" y="3269" width="661" height="1141"/>
        <path fill="rgb(193,193,193)" stroke="none" d="M 3553,3269 L 3073,3269 C 3023,3269 2983,3309 2983,3359 2983,3409 3023,3449 3073,3449 L 3553,3449 C 3603,3449 3643,3409 3643,3359 3643,3309 3603,3269 3553,3269 Z M 3553,3749 L 3073,3749 C 3023,3749 2983,3789 2983,3839 2983,3889 3023,3929 3073,3929 L 3553,3929 C 3603,3929 3643,3889 3643,3839 3643,3789 3603,3749 3553,3749 Z M 3553,4229 L 3073,4229 C 3023,4229 2983,4269 2983,4319 2983,4369 3023,4409 3073,4409 L 3553,4409 C 3603,4409 3643,4369 3643,4319 3643,4269 3603,4229 3553,4229 Z"/>
       </g>
      </g>
      <g class="com.sun.star.drawing.ClosedBezierShape">
       <g id="id6">
        <rect class="BoundingBox" stroke="none" fill="none" x="2599" y="2400" width="2873" height="3071"/>
        <path fill="rgb(193,193,193)" stroke="none" d="M 4842,4049 L 4842,3227 C 4842,3109 4796,2997 4713,2912 L 4348,2535 4347,2534 C 4263,2449 4147,2400 4027,2400 L 2869,2400 C 2720,2400 2599,2521 2599,2670 L 2599,5002 C 2599,5151 2720,5272 2869,5272 L 4259,5272 C 4387,5395 4561,5470 4752,5470 5149,5470 5471,5150 5471,4757 5471,4393 5196,4093 4842,4049 Z M 2779,5002 L 2779,2670 C 2779,2620 2819,2580 2869,2580 L 4027,2580 C 4099,2580 4169,2609 4219,2660 L 4584,3038 4584,3038 C 4634,3089 4662,3156 4662,3227 L 4662,4049 C 4311,4093 4038,4394 4038,4757 4038,4878 4069,4992 4122,5092 L 2869,5092 C 2819,5092 2779,5052 2779,5002 Z M 4752,5290 C 4457,5290 4218,5051 4218,4757 4218,4462 4457,4223 4752,4223 5049,4223 5291,4462 5291,4757 5291,5051 5049,5290 4752,5290 Z"/>
       </g>
      </g>
      <g class="com.sun.star.drawing.ClosedBezierShape">
       <g id="id7">
        <rect class="BoundingBox" stroke="none" fill="none" x="3941" y="3268" width="1053" height="1723"/>
        <path fill="rgb(193,193,193)" stroke="none" d="M 4960,4543 C 4922,4512 4865,4517 4833,4555 L 4681,4737 4647,4668 C 4624,4624 4570,4606 4526,4628 4481,4650 4463,4704 4486,4749 L 4582,4941 C 4595,4968 4621,4986 4652,4990 4655,4990 4659,4990 4662,4990 4689,4990 4714,4979 4731,4958 L 4971,4670 C 5003,4632 4998,4575 4960,4543 Z M 4032,3449 L 4128,3449 C 4178,3449 4218,3409 4218,3359 4218,3309 4178,3269 4128,3269 L 4032,3269 C 3982,3269 3942,3309 3942,3359 3942,3409 3982,3449 4032,3449 Z M 4218,3839 C 4218,3789 4178,3749 4128,3749 L 4032,3749 C 3982,3749 3942,3789 3942,3839 3942,3888 3982,3929 4032,3929 L 4128,3929 C 4178,3929 4218,3888 4218,3839 Z"/>
       </g>
      </g>
     </g>
    </g>
   </g>
  </g>
 </g>
</svg>