<?xml version="1.0" encoding="utf-8"?>
<!-- Generator: Adobe Illustrator 16.0.0, SVG Export Plug-In . SVG Version: 6.00 Build 0)  -->
<svg version="1.2" baseProfile="tiny" id="Capa_1" xmlns="http://www.w3.org/2000/svg" xmlns:xlink="http://www.w3.org/1999/xlink"
	 x="0px" y="0px" width="222px" height="222px" viewBox="0 0 222 222" xml:space="preserve">
<circle fill="#E5E5E5" cx="111" cy="111" r="111"/>
<g>
	<path fill="#C1C1C1" d="M129.45,108.234c0-1.77-1.435-3.203-3.204-3.203H93.254c-1.77,0-3.203,1.434-3.203,3.203
		s1.434,3.203,3.203,3.203h32.992C128.016,111.438,129.449,110.004,129.45,108.234L129.45,108.234z M93.254,117.844
		c-1.77,0-3.203,1.434-3.203,3.203s1.434,3.203,3.203,3.203h20.036c1.771,0,3.203-1.434,3.203-3.203s-1.435-3.203-3.203-3.203
		H93.254z"/>
	<path fill="#C1C1C1" d="M100.781,148.594H90.068c-3.532,0-6.406-2.874-6.406-6.406V85.812c0-3.532,2.874-6.406,6.406-6.406h39.382
		c3.532,0,6.405,2.874,6.405,6.407v19.699c0,1.77,1.435,3.203,3.203,3.203c1.771,0,3.203-1.434,3.203-3.203v-19.7
		c0-7.064-5.748-12.812-12.812-12.812H90.07c-7.067,0-12.815,5.748-12.815,12.813v56.375C77.256,149.252,83.004,155,90.068,155
		h10.713c1.77,0,3.203-1.434,3.203-3.203S102.55,148.594,100.781,148.594z"/>
	<path fill="#C1C1C1" d="M147.936,119.377c-3.746-3.747-9.843-3.747-13.588-0.003l-17.584,17.547
		c-0.375,0.373-0.65,0.832-0.804,1.336l-3.83,12.609c-0.339,1.118-0.043,2.332,0.772,3.168c0.611,0.626,1.441,0.966,2.293,0.966
		c0.285,0,0.572-0.038,0.855-0.116l12.928-3.582c0.533-0.146,1.018-0.43,1.408-0.819l17.549-17.516
		C151.682,129.221,151.682,123.124,147.936,119.377z M126.457,145.354l-6.504,1.802l1.902-6.267l11.867-11.839l4.53,4.53
		L126.457,145.354L126.457,145.354z M143.408,128.436l-0.62,0.619l-4.53-4.529l0.618-0.618c1.249-1.249,3.281-1.249,4.53,0
		C144.654,125.156,144.654,127.188,143.408,128.436z M126.246,92.219H93.254c-1.77,0-3.203,1.434-3.203,3.203
		s1.434,3.203,3.203,3.203h32.992c1.77,0,3.203-1.434,3.203-3.203S128.016,92.219,126.246,92.219z"/>
</g>
</svg>
