<svg xmlns="http://www.w3.org/2000/svg" width="82" height="82" fill="none" viewBox="0 0 82 82">
    <g fill="#fff" clip-path="url(#clip0)">
        <path d="M56.45 35.234c0-1.769-1.435-3.203-3.204-3.203H20.254c-1.77 0-3.203 1.434-3.203 3.203 0 1.77 1.434 3.203 3.203 3.203h32.992c1.77 0 3.203-1.433 3.203-3.203zM20.254 44.844c-1.77 0-3.203 1.434-3.203 3.203s1.434 3.203 3.203 3.203H40.29c1.77 0 3.203-1.434 3.203-3.203 0-1.77-1.434-3.203-3.203-3.203H20.254z"/>
        <path d="M27.781 75.594H17.068c-3.532 0-6.406-2.874-6.406-6.406V12.812c0-3.532 2.874-6.406 6.406-6.406H56.45c3.532 0 6.406 2.874 6.406 6.407v19.699c0 1.769 1.434 3.203 3.203 3.203 1.77 0 3.203-1.434 3.203-3.203v-19.7C69.261 5.748 63.514 0 56.45 0h-39.38C10.003 0 4.255 5.748 4.255 12.813v56.374C4.256 76.252 10.004 82 17.068 82h10.713c1.77 0 3.203-1.434 3.203-3.203 0-1.77-1.434-3.203-3.203-3.203z"/>
        <path d="M74.936 46.377c-3.747-3.747-9.843-3.747-13.588-.003L43.763 63.921c-.374.373-.65.832-.803 1.336l-3.83 12.609c-.339 1.118-.043 2.332.773 3.168.61.626 1.441.966 2.293.966.285 0 .572-.038.855-.116l12.928-3.582c.532-.147 1.017-.43 1.408-.82l17.549-17.515c3.746-3.747 3.746-9.843 0-13.59zM53.457 72.353l-6.504 1.802 1.903-6.267L60.722 56.05l4.531 4.53-11.796 11.774zm16.951-16.918l-.62.62-4.53-4.53.618-.618c1.249-1.249 3.281-1.249 4.53 0s1.249 3.281.002 4.528zM53.246 19.219H20.254c-1.77 0-3.203 1.434-3.203 3.203s1.434 3.203 3.203 3.203h32.992c1.77 0 3.203-1.434 3.203-3.203 0-1.77-1.434-3.203-3.203-3.203z"/>
    </g>
    <defs>
        <clipPath id="clip0">
            <path fill="#fff" d="M0 0H82V82H0z"/>
        </clipPath>
    </defs>
</svg>
