<svg xmlns="http://www.w3.org/2000/svg" width="119" height="42" fill="none" viewBox="0 0 119 42">
    <path fill="#fff" d="M63.919 13.454H56.7v19.037h-2.903V13.454h-7.16v-2.563h17.28v2.563z"/>
    <path fill="#fff" fill-rule="evenodd" d="M79 32.49h3.28l-8.957-21.6h-3.13l-8.433 21.6h3.07l2.427-6.57h9.167L79 32.49zm-6.5-16.804c.23.634 1.242 3.289 3.04 7.964h-7.46l2.457-6.469c.47-1.237.844-2.583 1.124-4.037h.074c.28 1.061.535 1.908.764 2.542z" clip-rule="evenodd"/>
    <path fill="#fff" d="M95.047 17.697c-.118-1.397-.616-2.446-1.494-3.15-.878-.702-2.135-1.054-3.772-1.054-1.48 0-2.683.28-3.61.837-.927.56-1.391 1.372-1.391 2.44 0 .947.358 1.653 1.073 2.116.714.464 2.083.926 4.105 1.384 1.795.4 3.26.808 4.394 1.227 1.134.419 2.106 1.07 2.914 1.952.81.883 1.213 2.067 1.213 3.553 0 1.886-.742 3.451-2.227 4.698-1.484 1.247-3.42 1.87-5.806 1.87-3.048 0-5.33-.688-6.843-2.064-1.513-1.376-2.315-3.162-2.404-5.356l2.722-.239c.129 1.756.8 3.034 2.013 3.837 1.213.804 2.678 1.205 4.394 1.205 1.607 0 2.907-.334 3.898-1.003.992-.668 1.487-1.575 1.487-2.722 0-1.198-.518-2.07-1.554-2.619-1.036-.548-2.773-1.09-5.215-1.623-2.44-.533-4.2-1.284-5.275-2.252-1.075-.967-1.612-2.223-1.612-3.77 0-1.755.68-3.207 2.042-4.353 1.36-1.147 3.215-1.72 5.563-1.72 2.406 0 4.342.57 5.807 1.713 1.464 1.142 2.241 2.765 2.33 4.869l-2.752.224z"/>
    <path fill="#fff" fill-rule="evenodd" d="M115.719 32.49h3.28l-8.958-21.6h-3.129l-8.434 21.6h3.071l2.427-6.57h9.166l2.577 6.57zm-6.501-16.804c.23.634 1.244 3.289 3.041 7.964h-7.46l2.457-6.469c.47-1.237.844-2.583 1.123-4.037h.075c.28 1.061.534 1.908.764 2.542z" clip-rule="evenodd"/>
    <path fill="#fff" d="M35.189 11.67s-1.133 9.024-7.448 14.63c-6.712 6.849-16.27 5.861-16.27 5.861l-7.127 7.484L6.5 31.327S.572 29.165 0 29.083c0 0 7.367.51 16.153-2.902 8.725-3.319 19.036-14.51 19.036-14.51z"/>
    <path fill="#BAD6F0" d="M34.095 13.57s-1.108 6.332-7.207 12.3c-6.577 6.56-15.658 5.358-15.658 5.358l-5.854 6.634 2.07-7.035s-4.413-1.342-4.985-1.424c0 0 10.013 1.737 22.848-7.335 4.34-2.993 8.786-8.497 8.786-8.497z"/>
    <path fill="#fff" d="M.164 14.4s8.818-3.73 16.678-1.17C25.97 15.466 29.93 23.9 29.93 23.9l10.231 2.308-8.238 2.505s1.24 6.133 1.44 6.685c0 0-7.081-12.72-19.028-16.718C9.677 16.456.164 14.4.164 14.4z"/>
    <path fill="#34559C" d="M2.236 14.34s7.76-2.581 14.976.072c8.815 2.274 12.227 10.349 12.227 10.349l8.777 1.545-7.153 1.864s1.11 4.484 1.31 5.037c0 0-3.979-10.038-17.88-15.514C9.836 15.468 2.236 14.34 2.236 14.34z"/>
    <path fill="#fff" d="M19.892 41.219S11.47 34.15 11.47 23.34c-.015-8.336 4.478-13.135 4.478-13.135L13.715 0l5.755 6.478s4.87-3.623 5.408-4.107c0 0-6.964 9.202-7.186 21.454-.376 6.346 2.2 17.394 2.2 17.394z"/>
    <path fill="#C5CF55" d="M18.84 39.207s-6.185-6.4-6.508-15.866c-.015-8.335 4.625-12.854 4.625-12.854l-2.366-8.659 4.733 5.648s3.442-2.797 3.98-3.281c0 0-6.393 7.379-6.615 19.63-.377 6.347 2.15 15.382 2.15 15.382z"/>
</svg>
