<svg xmlns="http://www.w3.org/2000/svg" width="20" height="20" fill="none" viewBox="0 0 20 20">
    <path fill="#05BEEE" fill-rule="evenodd" d="M16.998 6.294c.686-.685 1.801-.685 2.487 0 .687.687.687 1.799 0 2.486l-4.25 4.253v5.21c0 .968-.788 1.757-1.758 1.757H1.757C.79 20 0 19.211 0 18.242V1.758C0 .788.789 0 1.758 0H11.82c.47 0 .911.183 1.243.515l1.657 1.657c.333.332.515.774.515 1.243v4.643l1.763-1.764zm-5.25-5.122h-.028v2.344h2.344v-.025c0-.126.002-.316-.172-.49l-1.657-1.657c-.176-.176-.371-.173-.487-.172zm2.315 17.07c0 .323-.262.586-.586.586H1.757c-.322 0-.585-.263-.585-.586V1.758c0-.323.263-.586.586-.586h8.79v2.93c0 .323.262.585.585.585h2.93v4.544l-1.729 1.73-.828.829c-.064.064-.113.143-.141.229l-.83 2.486c-.07.21-.014.442.143.6.157.157.389.211.6.141l2.485-.829c.087-.028.165-.077.23-.141l.07-.071v4.037zm-.485-5.21l-.829-.828-.316.316-.415 1.243 1.243-.414.317-.317zm.829-.828l-.829-.828 2.817-2.82.829.83-2.817 2.819zm3.645-3.648l.604-.605c.23-.23.229-.6 0-.829-.228-.228-.6-.228-.828 0l-.605.605.829.829z" clip-rule="evenodd"/>
    <path fill="#05BEEE" d="M10.822 5.714h-8.5c-.335 0-.607.256-.607.571 0 .316.272.572.607.572h8.5c.335 0 .607-.256.607-.572 0-.315-.272-.571-.607-.571zM9.143 8.571H3.43c-.316 0-.572.256-.572.572 0 .315.256.571.572.571h5.714c.316 0 .572-.256.572-.571 0-.316-.256-.572-.572-.572zM9.143 10.285H3.43c-.316 0-.572.256-.572.572 0 .315.256.571.572.571h5.714c.316 0 .572-.256.572-.571 0-.316-.256-.572-.572-.572zM9.143 13.143H3.43c-.316 0-.572.255-.572.571 0 .316.256.571.572.571h5.714c.316 0 .572-.255.572-.571 0-.316-.256-.571-.572-.571zM10.857 15.999H7.43c-.316 0-.572.256-.572.571 0 .316.256.572.572.572h3.428c.316 0 .572-.256.572-.572 0-.315-.256-.571-.572-.571z"/>
</svg>
