<svg xmlns="http://www.w3.org/2000/svg" width="19" height="19" fill="none" viewBox="0 0 19 19">
    <path fill="#05BEEE" d="M18.205 16.068c-.52-.69-1.235-1.18-2.066-1.417l-1.822-.52c.87-1.088 1.356-2.451 1.356-3.859v-4.1C15.673 2.77 12.903 0 9.5 0 6.096 0 3.327 2.77 3.327 6.173v4.1c0 1.407.486 2.77 1.356 3.857l-1.822.52c-.831.238-1.545.728-2.066 1.418-.52.69-.795 1.511-.795 2.375V19h19v-.557c0-.864-.275-1.685-.795-2.375zm-5.979-7.31h-.948c-.148 0-.287-.058-.39-.162-.316-.314-.734-.488-1.179-.488h-.418c-.445 0-.863.174-1.178.488-.104.104-.243.162-.391.162h-.948V6.322c1.593-1.283 3.859-1.283 5.452 0v2.436zM7.722 9.87c.445 0 .863-.173 1.178-.487.104-.105.243-.162.39-.162h.42c.147 0 .286.057.39.162.315.314.733.487 1.178.487h.902c-.236 1.364-1.347 2.4-2.68 2.4-1.333 0-2.444-1.036-2.68-2.4h.902zm7.445 8.016V16.86h-1.113v1.027h-3.997V13.34c1.854-.285 3.282-1.974 3.282-4.008V5.817l-.184-.166C12.15 4.747 10.852 4.25 9.5 4.25c-1.352 0-2.65.498-3.655 1.402l-.184.166v3.516c0 2.034 1.428 3.723 3.282 4.008v4.546H4.946V16.86H3.833v1.027H1.169c.207-1.02.97-1.872 1.997-2.166l3.654-1.043-.735-.673c-1.045-.957-1.644-2.317-1.644-3.733v-4.1c0-2.79 2.27-5.059 5.059-5.059 2.79 0 5.06 2.27 5.06 5.06v4.1c0 1.415-.6 2.776-1.645 3.732l-.735.673 3.654 1.043c1.026.294 1.79 1.145 1.997 2.166h-2.664z"/>
</svg>
