<svg width="11" height="11" viewBox="0 0 11 11" fill="none" xmlns="http://www.w3.org/2000/svg">
<g clip-path="url(#clip0)">
<path d="M7.24414 8.25005C7.24414 9.24865 6.43175 10.061 5.43316 10.061C4.43456 10.061 3.62217 9.24865 3.62217 8.25005C3.62217 7.25146 4.43456 6.43907 5.43316 6.43907C6.43175 6.43907 7.24414 7.25146 7.24414 8.25005ZM4.42707 8.25005C4.42707 8.80489 4.87834 9.25614 5.43316 9.25614C5.98797 9.25614 6.43925 8.80487 6.43925 8.25005C6.43925 7.69524 5.98797 7.24396 5.43316 7.24396C4.87834 7.24396 4.42707 7.69522 4.42707 8.25005Z" fill="#676767"/>
<path d="M11 2.75005C11 3.74865 10.1876 4.56104 9.18902 4.56104C8.19042 4.56104 7.37804 3.74865 7.37803 2.75005C7.37803 1.75146 8.19042 0.93907 9.18902 0.93907C10.1876 0.93907 11 1.75146 11 2.75005ZM8.18293 2.75005C8.18293 3.30489 8.63418 3.75614 9.18902 3.75614C9.74385 3.75614 10.1951 3.30486 10.1951 2.75005C10.1951 2.19524 9.74385 1.74396 9.18902 1.74396C8.6342 1.74396 8.18293 2.19522 8.18293 2.75005Z" fill="#676767"/>
<path d="M3.62109 2.75005C3.62109 3.74865 2.8087 4.56104 1.81011 4.56104C0.811513 4.56104 -0.000855481 3.74865 -0.000855525 2.75005C-0.000855569 1.75146 0.811534 0.93907 1.81013 0.93907C2.80873 0.93907 3.62109 1.75146 3.62109 2.75005ZM0.804015 2.75005C0.804015 3.30489 1.25527 3.75614 1.81011 3.75614C2.36494 3.75614 2.8162 3.30486 2.8162 2.75005C2.8162 2.19524 2.36494 1.74396 1.81011 1.74396C1.25529 1.74396 0.804015 2.19522 0.804015 2.75005Z" fill="#676767"/>
<path d="M8.66886 3.9608L6.48242 7.34131L5.80656 6.90417L7.99299 3.52367L8.66886 3.9608Z" fill="#676767"/>
<path d="M5.01888 6.9046L4.34375 7.34277L2.21061 4.05609L2.88574 3.61792L5.01888 6.9046Z" fill="#676767"/>
</g>
<defs>
<clipPath id="clip0">
<rect width="11" height="11" fill="white" transform="matrix(-4.37114e-08 -1 -1 4.37114e-08 11 11)"/>
</clipPath>
</defs>
</svg>
