<svg xmlns="http://www.w3.org/2000/svg" width="19" height="19" fill="none" viewBox="0 0 19 19">
    <path fill="#58C25D" stroke="#58C25D" stroke-width=".3" d="M.85 18v.15h1.628V18c0-3.872 3.15-7.022 7.022-7.022 3.872 0 7.022 3.15 7.022 7.022v.15h1.628V18c0-2.31-.9-4.483-2.533-6.117l-.107.107.107-.107c-.874-.872-1.9-1.536-3.021-1.964 1.196-.927 1.968-2.377 1.968-4.005C14.564 3.122 12.293.85 9.5.85c-2.792 0-5.064 2.272-5.064 5.064 0 1.628.772 3.078 1.968 4.005-1.12.428-2.147 1.091-3.02 1.964l.106.107-.106-.107C1.75 13.518.85 15.69.85 18zM9.5 9.35c-1.894 0-3.436-1.541-3.436-3.436 0-1.894 1.542-3.436 3.436-3.436s3.436 1.542 3.436 3.436c0 1.895-1.542 3.436-3.436 3.436z"/>
</svg>
