<svg width="350" height="62" viewBox="0 0 350 62" fill="none" xmlns="http://www.w3.org/2000/svg">
<path d="M40.5363 44.5503C40.5363 49.6193 38.6759 53.6907 34.955 56.7645C31.1802 59.7843 26.5965 61.2942 21.204 61.2942C16.4046 61.2942 12.1714 59.8921 8.50448 57.088C4.83753 54.2839 2.30303 50.4552 0.900963 45.6019L8.01915 42.6899C8.50448 44.4155 9.17855 45.9793 10.0414 47.3814C10.9042 48.7835 11.9018 49.9968 13.0342 51.0214C14.2206 51.992 15.5148 52.774 16.9169 53.3671C18.3189 53.9064 19.8019 54.176 21.3657 54.176C24.7631 54.176 27.5402 53.3132 29.6972 51.5876C31.8543 49.8081 32.9328 47.4623 32.9328 44.5503C32.9328 42.1237 32.043 40.0475 30.2635 38.3219C28.5918 36.6502 25.4641 35.0324 20.8804 33.4686C16.2428 31.7969 13.3578 30.6645 12.2253 30.0713C6.07782 26.9436 3.00406 22.3329 3.00406 16.2394C3.00406 11.9792 4.70272 8.33925 8.10003 5.31941C11.5513 2.29958 15.7844 0.789661 20.7995 0.789661C25.2214 0.789661 29.0501 1.9221 32.2857 4.18697C35.5212 6.39793 37.6782 9.1751 38.7568 12.5185L31.8003 15.4305C31.1532 13.2734 29.859 11.4939 27.9177 10.0918C26.0303 8.63584 23.7115 7.90784 20.9613 7.90784C18.0493 7.90784 15.5957 8.71673 13.6004 10.3345C11.6052 11.8444 10.6076 13.8127 10.6076 16.2394C10.6076 18.2346 11.3895 19.9602 12.9533 21.4162C14.679 22.8722 18.4268 24.5978 24.1968 26.5931C30.0747 28.5883 34.254 31.0419 36.7345 33.9539C39.269 36.812 40.5363 40.3441 40.5363 44.5503ZM60.2668 60H52.825V2.08388H60.2668V60ZM130.215 33.3877C130.215 41.4765 127.815 47.9207 123.016 52.72C117.623 58.4362 110.532 61.2942 101.742 61.2942C93.3299 61.2942 86.2118 58.3822 80.3878 52.5583C74.5638 46.7343 71.6518 39.5622 71.6518 31.0419C71.6518 22.5217 74.5638 15.3496 80.3878 9.52562C86.2118 3.70165 93.3299 0.789661 101.742 0.789661C106.002 0.789661 110.02 1.54462 113.795 3.05454C117.57 4.56445 120.67 6.69452 123.097 9.44473L117.758 14.7834C115.979 12.6263 113.66 10.9546 110.802 9.76828C107.998 8.52799 104.978 7.90784 101.742 7.90784C95.433 7.90784 90.0944 10.0918 85.7264 14.4598C81.4124 18.8817 79.2554 24.4091 79.2554 31.0419C79.2554 37.6748 81.4124 43.2022 85.7264 47.6241C90.0944 51.992 95.433 54.176 101.742 54.176C107.512 54.176 112.312 52.5583 116.14 49.3227C119.969 46.0872 122.18 41.6383 122.773 35.9761H101.742V29.0197H129.811C130.08 30.5296 130.215 31.9856 130.215 33.3877Z" fill="#C6CF5F"/>
<path d="M154.884 60V12.4376H138.706V2.08388H181.981V12.4376H165.803V60H154.884ZM204.692 2.08388H217.149L238.908 60H226.855L222.083 46.1681H199.758L194.985 60H182.933L204.692 2.08388ZM218.524 36.1379L213.347 21.6589L211.244 14.6216H210.597L208.494 21.6589L203.317 36.1379H218.524ZM266.734 61.2942C264.253 61.2942 261.881 60.9437 259.616 60.2427C257.351 59.5416 255.275 58.4901 253.387 57.088C251.5 55.6859 249.855 53.9873 248.453 51.992C247.051 49.9429 245.946 47.5701 245.137 44.8739L255.41 40.8294C256.165 43.7414 257.486 46.1681 259.373 48.1094C261.261 49.9968 263.741 50.9405 266.815 50.9405C267.947 50.9405 269.026 50.8057 270.05 50.5361C271.129 50.2125 272.073 49.7811 272.881 49.2418C273.744 48.6487 274.418 47.9207 274.904 47.0578C275.389 46.195 275.632 45.1974 275.632 44.065C275.632 42.9865 275.443 42.0158 275.065 41.153C274.688 40.2902 274.041 39.4813 273.124 38.7263C272.261 37.9714 271.102 37.2434 269.646 36.5424C268.244 35.8413 266.491 35.1133 264.388 34.3584L260.829 33.0642C259.265 32.5249 257.674 31.7969 256.057 30.8802C254.493 29.9634 253.064 28.858 251.77 27.5637C250.475 26.2695 249.397 24.7596 248.534 23.034C247.725 21.2544 247.321 19.2592 247.321 17.0482C247.321 14.7834 247.752 12.6803 248.615 10.7389C249.532 8.74369 250.799 7.01807 252.417 5.56208C254.088 4.05216 256.057 2.89276 258.322 2.08388C260.64 1.22107 263.202 0.789661 266.006 0.789661C268.918 0.789661 271.426 1.1941 273.529 2.00299C275.686 2.75795 277.492 3.75557 278.948 4.99586C280.458 6.18222 281.671 7.5034 282.588 8.95939C283.505 10.4154 284.179 11.7905 284.61 13.0847L274.985 17.1291C274.445 15.5114 273.448 14.0554 271.992 12.7611C270.59 11.4669 268.648 10.8198 266.168 10.8198C263.795 10.8198 261.827 11.386 260.263 12.5185C258.699 13.597 257.917 15.026 257.917 16.8056C257.917 18.5312 258.672 20.0141 260.182 21.2544C261.692 22.4408 264.092 23.6002 267.381 24.7326L271.021 25.946C273.34 26.7549 275.443 27.6986 277.33 28.7771C279.272 29.8016 280.916 31.0419 282.265 32.4979C283.667 33.9539 284.718 35.6256 285.419 37.513C286.174 39.3465 286.552 41.4765 286.552 43.9032C286.552 46.923 285.931 49.5384 284.691 51.7494C283.505 53.9064 281.968 55.6859 280.081 57.088C278.193 58.4901 276.063 59.5416 273.69 60.2427C271.318 60.9437 268.999 61.2942 266.734 61.2942ZM314.993 2.08388H327.45L349.209 60H337.157L332.384 46.1681H310.059L305.287 60H293.234L314.993 2.08388ZM328.825 36.1379L323.648 21.6589L321.545 14.6216H320.898L318.795 21.6589L313.618 36.1379H328.825Z" fill="#34559C"/>
</svg>
