<svg xmlns="http://www.w3.org/2000/svg" width="108" height="42" fill="none" viewBox="0 0 108 42">
    <path fill="#fff" d="M35.189 11.67s-1.133 9.023-7.448 14.629c-6.712 6.85-16.27 5.862-16.27 5.862l-7.127 7.483L6.5 31.326S.572 29.164 0 29.082c0 0 7.367.51 16.153-2.902 8.725-3.318 19.036-14.51 19.036-14.51z"/>
    <path fill="#56BCEB" d="M34.095 13.57s-1.108 6.332-7.207 12.299C20.31 32.43 11.23 31.228 11.23 31.228L5.376 37.86l2.07-7.034s-4.413-1.342-4.985-1.425c0 0 10.013 1.737 22.848-7.334 4.34-2.994 8.786-8.498 8.786-8.498z"/>
    <path fill="#fff" d="M.163 14.4s8.818-3.73 16.678-1.17C25.97 15.466 29.928 23.9 29.928 23.9l10.231 2.308-8.238 2.505s1.24 6.133 1.44 6.685c0 0-7.081-12.72-19.028-16.718C9.676 16.456.163 14.4.163 14.4z"/>
    <path fill="#154A7D" d="M2.236 14.34s7.76-2.581 14.976.072c8.814 2.274 12.227 10.349 12.227 10.349l8.776 1.545-7.152 1.864s1.11 4.484 1.31 5.037c0 0-3.98-10.038-17.88-15.514C9.834 15.468 2.235 14.34 2.235 14.34z"/>
    <path fill="#fff" d="M19.891 41.219s-8.42-7.068-8.42-17.878c-.016-8.336 4.477-13.135 4.477-13.135L13.714 0l5.755 6.478s4.87-3.623 5.408-4.107c0 0-6.963 9.202-7.186 21.454-.376 6.346 2.2 17.394 2.2 17.394z"/>
    <path fill="#78A240" d="M18.838 39.207s-6.184-6.4-6.507-15.866c-.015-8.335 4.625-12.854 4.625-12.854L14.59 1.828l4.733 5.648s3.442-2.797 3.98-3.281c0 0-6.393 7.379-6.615 19.63-.377 6.347 2.15 15.382 2.15 15.382z"/>
    <path fill="#fff" d="M79.277 12.744c2.233-1.19 4.848-.716 7.198-.202-.078.638-.225 1.907-.303 2.537-1.751-.42-3.736-1.152-5.456-.234-1.214.6-1.276 2.444-.256 3.261 1.945 1.455 4.614 1.946 6.085 4.016 1.502 2.272.934 5.89-1.564 7.222-2.451 1.3-5.339.941-7.914.288l.28-2.608c1.665.413 3.455 1.253 5.167.56 1.479-.482 2.654-2.412 1.51-3.79-1.51-1.766-4.024-2.077-5.736-3.587-2.303-1.937-1.805-6.225.989-7.463zM44 12.3c4.607 0 9.206 0 13.813.009v2.319c-1.875.007-3.743.007-5.61 0-.07 5.12-.008 10.249-.032 15.377h-2.724c-.007-5.12.008-10.249-.007-15.37h-5.432c0-.583-.008-1.75-.008-2.334zM57.16 30.013c2.537-5.915 5.027-11.852 7.673-17.728.685 0 2.054 0 2.74.008 2.606 5.876 5.065 11.813 7.595 17.728-1.012 0-2.016 0-3.02-.008-.591-1.494-1.206-2.98-1.829-4.467-2.801-.023-5.603-.023-8.412-.016-.615 1.487-1.23 2.981-1.845 4.467-.965.008-1.937.016-2.902.016zm5.603-6.63c2.241.007 4.49.007 6.731.007-1.16-2.716-2.24-5.455-3.291-8.21-1.362 2.638-2.304 5.463-3.44 8.203zM96.654 12.285c.7.008 2.094.008 2.786.008 2.592 5.852 5.035 11.774 7.58 17.65-.755.023-2.264.062-3.019.085-.592-1.486-1.175-2.972-1.751-4.459-2.825-.062-5.65-.046-8.475-.039-.623 1.541-1.276 3.059-1.961 4.56l-2.786-.124c2.521-5.899 5.082-11.782 7.626-17.68zm-2.039 11.09c2.25.015 4.49.023 6.74.008-1.152-2.724-2.234-5.471-3.315-8.218-1.285 2.677-2.296 5.463-3.425 8.21z"/>
</svg>
