<svg xmlns="http://www.w3.org/2000/svg" width="224" height="18" fill="none" viewBox="0 0 224 18">
    <path fill="#fff" d="M11.775 12.624c0 1.436-.527 2.59-1.58 3.46-1.07.855-2.368 1.282-3.895 1.282-1.36 0-2.558-.396-3.597-1.19C1.665 15.38.947 14.295.55 12.921l2.016-.825c.137.49.328.932.573 1.33.244.396.526.74.847 1.03.336.275.703.496 1.1.664.397.153.817.23 1.26.23.962 0 1.749-.245 2.36-.734.61-.504.916-1.168.916-1.993 0-.687-.252-1.275-.756-1.764-.474-.473-1.36-.931-2.658-1.374-1.313-.474-2.13-.794-2.45-.962-1.742-.886-2.613-2.192-2.613-3.918 0-1.206.482-2.237 1.444-3.093C3.566.658 4.765.231 6.185.231c1.253 0 2.337.32 3.254.962.916.626 1.527 1.412 1.832 2.36l-1.97.824c-.183-.61-.55-1.115-1.1-1.512-.534-.412-1.19-.618-1.97-.618-.824 0-1.52.229-2.084.687-.566.427-.848.985-.848 1.672 0 .565.221 1.054.664 1.466.489.413 1.55.901 3.185 1.467 1.664.565 2.848 1.26 3.55 2.084.718.81 1.077 1.81 1.077 3.001zm27.23-3.161c0 2.29-.68 4.116-2.038 5.475-1.528 1.62-3.536 2.428-6.025 2.428-2.383 0-4.399-.824-6.049-2.474-1.649-1.65-2.474-3.68-2.474-6.093 0-2.414.825-4.445 2.474-6.094C26.543 1.055 28.56.23 30.942.23c1.206 0 2.344.213 3.413.641 1.07.428 1.947 1.03 2.635 1.81l-1.512 1.512c-.505-.611-1.161-1.085-1.97-1.42-.795-.352-1.65-.527-2.567-.527-1.786 0-3.298.618-4.535 1.855-1.222 1.253-1.833 2.818-1.833 4.697 0 1.878.61 3.444 1.832 4.696 1.238 1.237 2.75 1.856 4.537 1.856 1.634 0 2.993-.459 4.077-1.375 1.085-.916 1.71-2.176 1.879-3.78H30.94v-1.97h7.95c.076.427.114.84.114 1.237zM50.475 17V.597h5.017c2.505 0 4.514.756 6.026 2.268 1.527 1.512 2.29 3.49 2.29 5.934 0 2.459-.763 4.444-2.29 5.956C60.006 16.252 57.998 17 55.492 17h-5.017zm2.108-14.387v12.371h2.91c1.909 0 3.413-.542 4.513-1.627 1.1-1.1 1.65-2.619 1.65-4.558 0-1.925-.55-3.437-1.65-4.536-1.1-1.1-2.604-1.65-4.514-1.65h-2.909zm27.904.573l-2.68 7.4h5.452l-2.68-7.4h-.092zM75.493 17h-2.337L79.34.597h2.383L87.909 17h-2.336l-1.581-4.444h-6.896L75.493 17zm27.781-7.629V17h-2.108V9.371L95.645.597h2.474l4.055 6.667h.092l3.963-6.667h2.474l-5.429 8.774zm26.047 3.253c0 1.436-.527 2.59-1.581 3.46-1.069.855-2.367 1.282-3.894 1.282-1.359 0-2.558-.396-3.597-1.19-1.038-.795-1.756-1.88-2.153-3.254l2.016-.825c.137.49.328.932.572 1.33.245.396.527.74.848 1.03.336.275.703.496 1.1.664.397.153.817.23 1.26.23.962 0 1.748-.245 2.359-.734.611-.504.917-1.168.917-1.993 0-.687-.252-1.275-.756-1.764-.474-.473-1.36-.931-2.658-1.374-1.313-.474-2.13-.794-2.451-.962-1.741-.886-2.612-2.192-2.612-3.918 0-1.206.481-2.237 1.444-3.093.977-.855 2.176-1.282 3.596-1.282 1.253 0 2.337.32 3.253.962.917.626 1.528 1.412 1.833 2.36l-1.97.824c-.183-.61-.55-1.115-1.1-1.512-.534-.412-1.191-.618-1.97-.618-.825 0-1.52.229-2.085.687-.565.427-.847.985-.847 1.672 0 .565.221 1.054.664 1.466.489.413 1.55.901 3.184 1.467 1.665.565 2.849 1.26 3.551 2.084.718.81 1.077 1.81 1.077 3.001z"/>
    <path fill="#D2D97B" d="M144.249 17V3.53h-4.582V.596h12.257V3.53h-4.582V17h-3.093zM166.321.597h3.528L176.012 17h-3.414l-1.351-3.918h-6.323L163.572 17h-3.413L166.321.597zm3.918 9.645l-1.466-4.1-.596-1.994h-.183l-.596 1.993-1.466 4.1h4.307zm21.619 7.124c-.702 0-1.374-.099-2.016-.297-.641-.199-1.229-.497-1.764-.894-.534-.397-1-.878-1.397-1.443-.397-.58-.71-1.252-.939-2.016l2.909-1.146c.214.825.588 1.512 1.123 2.062.534.535 1.237.802 2.107.802.321 0 .626-.038.917-.114.305-.092.572-.214.801-.367.245-.168.436-.374.573-.618.138-.245.206-.527.206-.848 0-.306-.053-.58-.16-.825-.107-.244-.29-.473-.55-.687-.244-.214-.573-.42-.985-.619-.397-.198-.893-.404-1.489-.618l-1.008-.367c-.443-.152-.894-.359-1.352-.618-.443-.26-.847-.573-1.214-.94-.366-.366-.672-.794-.916-1.282-.229-.504-.344-1.07-.344-1.696 0-.641.122-1.237.367-1.787.259-.565.618-1.053 1.076-1.466.474-.427 1.031-.756 1.673-.985.656-.244 1.382-.366 2.176-.366.825 0 1.535.114 2.131.343.611.214 1.122.497 1.535.848.427.336.771.71 1.03 1.122.26.413.451.802.573 1.169l-2.726 1.145c-.153-.458-.435-.87-.848-1.237-.397-.366-.947-.55-1.649-.55-.672 0-1.23.16-1.672.481-.443.306-.665.71-.665 1.215 0 .488.214.908.642 1.26.427.336 1.107.664 2.039.985l1.03.343c.657.23 1.253.497 1.787.802.55.29 1.016.642 1.398 1.054.397.412.695.886.893 1.42.214.52.321 1.123.321 1.81 0 .855-.176 1.596-.527 2.222-.336.611-.771 1.115-1.306 1.512-.534.397-1.138.695-1.81.894-.672.198-1.328.297-1.97.297zM213.492.598h3.528L223.182 17h-3.413l-1.352-3.918h-6.323L210.743 17h-3.414L213.492.597zm3.917 9.645l-1.466-4.1-.596-1.994h-.183l-.595 1.993-1.467 4.1h4.307z"/>
</svg>
