<?xml version="1.0" encoding="utf-8"?>
<!-- Generator: Adobe Illustrator 16.0.0, SVG Export Plug-In . SVG Version: 6.00 Build 0)  -->
<!DOCTYPE svg PUBLIC "-//W3C//DTD SVG 1.1//EN" "http://www.w3.org/Graphics/SVG/1.1/DTD/svg11.dtd">
<svg version="1.1" id="Capa_1" xmlns="http://www.w3.org/2000/svg" xmlns:xlink="http://www.w3.org/1999/xlink" x="0px" y="0px"
	 width="422px" height="67px" viewBox="46.515 18.095 422 67" enable-background="new 46.515 18.095 422 67" xml:space="preserve">
<path fill="#C6CF5F" d="M76.471,55.854c0,2.577-0.946,4.648-2.838,6.21c-1.92,1.535-4.249,2.302-6.991,2.302
	c-2.44,0-4.592-0.711-6.455-2.137c-1.865-1.429-3.154-3.376-3.866-5.844l3.618-1.48c0.248,0.88,0.591,1.673,1.029,2.388
	c0.438,0.712,0.946,1.328,1.522,1.85c0.604,0.492,1.26,0.891,1.975,1.191c0.711,0.276,1.464,0.412,2.262,0.412
	c1.725,0,3.138-0.438,4.234-1.316c1.094-0.906,1.644-2.096,1.644-3.578c0-1.234-0.452-2.289-1.357-3.165
	c-0.849-0.851-2.44-1.672-4.77-2.468c-2.359-0.851-3.823-1.424-4.4-1.726c-3.126-1.588-4.688-3.933-4.688-7.031
	c0-2.165,0.863-4.015,2.59-5.552c1.755-1.535,3.91-2.302,6.459-2.302c2.247,0,4.194,0.574,5.838,1.727
	c1.645,1.124,2.742,2.534,3.291,4.235l-3.535,1.48c-0.331-1.095-0.988-2.001-1.975-2.714c-0.96-0.74-2.138-1.109-3.537-1.109
	c-1.48,0-2.729,0.411-3.742,1.233c-1.014,0.766-1.522,1.768-1.522,3.001c0,1.014,0.397,1.892,1.193,2.632
	c0.876,0.741,2.783,1.617,5.716,2.633c2.988,1.014,5.112,2.261,6.375,3.741c1.288,1.455,1.932,3.25,1.932,5.387H76.471z
	 M125.35,50.179c0,4.11-1.22,7.389-3.66,9.827c-2.742,2.91-6.348,4.359-10.815,4.359c-4.278,0-7.896-1.479-10.856-4.44
	c-2.962-2.963-4.441-6.606-4.441-10.938c0-4.333,1.479-7.979,4.441-10.938c2.962-2.962,6.579-4.443,10.856-4.443
	c2.167,0,4.208,0.382,6.126,1.151c1.92,0.768,3.497,1.849,4.73,3.249l-2.714,2.714c-0.904-1.097-2.082-1.948-3.536-2.549
	c-1.425-0.632-2.962-0.946-4.606-0.946c-3.208,0-5.922,1.109-8.142,3.33c-2.194,2.25-3.29,5.058-3.29,8.431
	c0,3.371,1.096,6.183,3.29,8.43c2.22,2.219,4.937,3.33,8.142,3.33c2.933,0,5.373-0.824,7.32-2.469
	c1.946-1.644,3.069-3.905,3.371-6.783h-10.691v-3.537h14.271c0.137,0.766,0.205,1.508,0.205,2.22V50.179z M145.939,63.709V34.265
	h9.006c4.496,0,8.1,1.357,10.815,4.071c2.741,2.714,4.112,6.265,4.112,10.651c0,4.414-1.372,7.978-4.11,10.691
	c-2.719,2.688-6.323,4.03-10.819,4.03h-9.006H145.939z M149.721,37.883v22.208h5.224c3.428,0,6.126-0.975,8.1-2.921
	c1.975-1.976,2.963-4.701,2.963-8.183c0-3.455-0.988-6.169-2.963-8.141c-1.974-1.975-4.674-2.963-8.1-2.963H149.721z
	 M199.809,38.912l-4.81,13.283h9.787l-4.811-13.283H199.809z M190.845,63.709h-4.193l11.103-29.444h4.275l11.104,29.444h-4.196
	l-2.835-7.977h-12.377L190.845,63.709z M240.711,50.014v13.694h-3.784V50.014l-9.907-15.75h4.44l7.276,11.968h0.165l7.114-11.968
	h4.442L240.711,50.014z M287.469,55.854c0,2.577-0.946,4.648-2.841,6.21c-1.917,1.535-4.248,2.302-6.99,2.302
	c-2.439,0-4.592-0.711-6.454-2.137c-1.865-1.428-3.155-3.375-3.867-5.841l3.619-1.48c0.248,0.878,0.588,1.673,1.028,2.386
	c0.438,0.711,0.944,1.329,1.52,1.85c0.604,0.493,1.262,0.89,1.974,1.191c0.715,0.274,1.47,0.413,2.263,0.413
	c1.728,0,3.14-0.44,4.238-1.318c1.097-0.904,1.644-2.096,1.644-3.576c0-1.233-0.452-2.288-1.357-3.168
	c-0.849-0.849-2.439-1.669-4.771-2.465c-2.356-0.851-3.825-1.426-4.399-1.728c-3.125-1.59-4.687-3.935-4.687-7.033
	c0-2.165,0.861-4.015,2.59-5.552c1.753-1.535,3.905-2.302,6.457-2.302c2.247,0,4.192,0.574,5.838,1.727
	c1.645,1.124,2.742,2.534,3.29,4.235l-3.537,1.48c-0.327-1.095-0.986-2.001-1.972-2.714c-0.961-0.74-2.14-1.109-3.538-1.109
	c-1.479,0-2.728,0.411-3.741,1.233c-1.016,0.766-1.522,1.768-1.522,3.001c0,1.014,0.397,1.892,1.193,2.632
	c0.877,0.741,2.783,1.617,5.716,2.633c2.988,1.014,5.111,2.261,6.373,3.741C286.824,51.922,287.469,53.717,287.469,55.854z"/>
<path fill="#34559C" d="M314.263,63.709V39.53h-8.225v-5.267h22v5.267h-8.225v24.179H314.263z M353.885,34.265h6.331l11.062,29.444
	h-6.126l-2.429-7.032h-11.349l-2.426,7.032h-6.129L353.885,34.265z M360.915,51.578l-2.633-7.36l-1.068-3.579h-0.328l-1.071,3.578
	l-2.631,7.36h7.731V51.578z M399.723,64.366c-1.262,0-2.469-0.177-3.618-0.534c-1.152-0.356-2.207-0.891-3.168-1.604
	c-0.961-0.713-1.795-1.575-2.509-2.59c-0.714-1.041-1.274-2.247-1.685-3.618l5.221-2.057c0.385,1.48,1.055,2.714,2.016,3.7
	c0.96,0.962,2.221,1.44,3.782,1.44c0.576,0,1.126-0.066,1.646-0.204c0.548-0.164,1.03-0.386,1.44-0.659
	c0.438-0.301,0.781-0.671,1.027-1.109c0.247-0.439,0.371-0.945,0.371-1.522c0-0.548-0.099-1.04-0.289-1.48
	c-0.193-0.438-0.521-0.849-0.987-1.234c-0.438-0.384-1.027-0.754-1.769-1.112c-0.714-0.354-1.604-0.723-2.673-1.107l-1.809-0.659
	c-0.797-0.273-1.603-0.644-2.428-1.109c-0.793-0.466-1.521-1.028-2.177-1.688c-0.658-0.656-1.206-1.425-1.646-2.3
	c-0.411-0.906-0.615-1.921-0.615-3.045c0-1.15,0.219-2.22,0.657-3.208c0.466-1.014,1.111-1.89,1.933-2.631
	c0.849-0.766,1.849-1.357,3.001-1.768c1.181-0.438,2.481-0.657,3.907-0.657c1.479,0,2.755,0.205,3.825,0.616
	c1.096,0.384,2.017,0.892,2.755,1.521c0.769,0.603,1.383,1.274,1.851,2.014c0.467,0.742,0.808,1.44,1.029,2.099l-4.896,2.055
	c-0.271-0.822-0.78-1.563-1.52-2.22c-0.712-0.657-1.701-0.988-2.963-0.988c-1.206,0-2.205,0.288-3.001,0.863
	c-0.796,0.55-1.191,1.275-1.191,2.182c0,0.875,0.381,1.629,1.149,2.261c0.77,0.604,1.987,1.193,3.66,1.77l1.851,0.615
	c1.181,0.412,2.247,0.892,3.209,1.44c0.988,0.521,1.822,1.151,2.507,1.892c0.714,0.74,1.248,1.591,1.604,2.549
	c0.386,0.932,0.575,2.016,0.575,3.25c0,1.533-0.315,2.863-0.942,3.987c-0.604,1.097-1.389,2.001-2.346,2.714
	c-0.961,0.714-2.045,1.248-3.25,1.604C402.052,64.189,400.874,64.366,399.723,64.366L399.723,64.366z M438.556,34.266h6.331
	l11.063,29.442h-6.129l-2.425-7.032h-11.35l-2.428,7.032h-6.125l11.062-29.444V34.266z M445.589,51.58l-2.634-7.36l-1.068-3.58
	h-0.33l-1.068,3.578l-2.631,7.36h7.731V51.58z"/>
</svg>
