<?xml version="1.0" encoding="utf-8"?>
<!-- Generator: Adobe Illustrator 16.0.0, SVG Export Plug-In . SVG Version: 6.00 Build 0)  -->
<!DOCTYPE svg PUBLIC "-//W3C//DTD SVG 1.1//EN" "http://www.w3.org/Graphics/SVG/1.1/DTD/svg11.dtd">
<svg version="1.1"
	 id="Capa_1" xmlns:anim="urn:oasis:names:tc:opendocument:xmlns:animation:1.0" xmlns:smil="http://www.w3.org/2001/SMIL20/" xmlns:ooo="http://xml.openoffice.org/svg/export" xmlns:presentation="http://sun.com/xmlns/staroffice/presentation"
	 xmlns="http://www.w3.org/2000/svg" xmlns:xlink="http://www.w3.org/1999/xlink" x="0px" y="0px" width="421.994px"
	 height="67.012px" viewBox="0 0 421.994 67.012" enable-background="new 0 0 421.994 67.012" xml:space="preserve">
<g>
	<g id="id2">
		<g id="bg-id2">
		</g>
		<g id="bo-id2">
		</g>
	</g>
</g>
<path fill="#C6CF5F" d="M32.858,45.736c0,3.769-1.382,6.792-4.147,9.074c-2.806,2.245-6.209,3.363-10.213,3.363
	c-3.566,0-6.712-1.04-9.433-3.121c-2.727-2.086-4.61-4.931-5.65-8.535l5.288-2.162c0.363,1.283,0.863,2.443,1.502,3.486
	c0.642,1.04,1.383,1.941,2.226,2.701c0.881,0.723,1.842,1.303,2.885,1.743c1.039,0.398,2.141,0.604,3.304,0.604
	c2.524,0,4.585-0.646,6.188-1.927c1.599-1.322,2.402-3.063,2.402-5.229c0-1.801-0.662-3.343-1.983-4.628
	c-1.24-1.238-3.564-2.438-6.969-3.602c-3.445-1.245-5.586-2.084-6.429-2.524c-4.565-2.321-6.851-5.749-6.851-10.274
	c0-3.164,1.262-5.867,3.785-8.112c2.564-2.242,5.709-3.363,9.435-3.363c3.284,0,6.129,0.838,8.531,2.522
	c2.402,1.642,4.005,3.704,4.809,6.188l-5.168,2.162c-0.482-1.6-1.441-2.924-2.885-3.964c-1.403-1.081-3.124-1.622-5.167-1.622
	c-2.164,0-3.986,0.602-5.469,1.802c-1.481,1.119-2.225,2.583-2.225,4.386c0,1.481,0.583,2.765,1.744,3.846
	c1.282,1.083,4.065,2.363,8.352,3.847c4.367,1.482,7.473,3.306,9.313,5.465C31.916,39.991,32.858,42.615,32.858,45.736z
	 M68.405,57.213h-5.527V14.192h5.527V57.213z M141.253,37.445c0,6.008-1.783,10.797-5.344,14.358
	c-4.008,4.252-9.273,6.37-15.805,6.37c-6.248,0-11.534-2.161-15.86-6.487c-4.328-4.329-6.49-9.653-6.49-15.981
	c0-6.332,2.163-11.658,6.488-15.983c4.329-4.328,9.615-6.492,15.863-6.492c3.166,0,6.149,0.56,8.954,1.682
	c2.804,1.122,5.104,2.701,6.911,4.748L132,23.623c-1.317-1.603-3.041-2.846-5.167-3.725c-2.082-0.924-4.328-1.382-6.729-1.382
	c-4.686,0-8.65,1.622-11.895,4.866c-3.206,3.286-4.808,7.391-4.808,12.317c0,4.926,1.6,9.033,4.805,12.317
	c3.247,3.242,7.212,4.866,11.897,4.866c4.287,0,7.851-1.204,10.693-3.606c2.847-2.401,4.485-5.705,4.93-9.911h-15.623v-5.167h20.848
	c0.199,1.117,0.299,2.2,0.299,3.243L141.253,37.445z"/>
<path fill="#FFFFFF" d="M180.47,57.213V21.885h-12.017V14.19h32.138v7.696h-12.01v35.327h-8.109H180.47z M238.359,14.192h9.255
	l16.162,43.021h-8.955l-3.545-10.276h-16.582l-3.544,10.276h-8.956l16.168-43.021H238.359z M248.634,39.49l-3.845-10.754
	l-1.564-5.23h-0.479l-1.563,5.228l-3.846,10.753h11.296L248.634,39.49L248.634,39.49z M305.339,58.174
	c-1.845,0-3.605-0.259-5.288-0.781c-1.684-0.52-3.227-1.301-4.626-2.344c-1.403-1.043-2.625-2.302-3.668-3.783
	c-1.04-1.521-1.859-3.282-2.462-5.289l7.631-3.004c0.561,2.162,1.542,3.964,2.944,5.406c1.403,1.404,3.243,2.104,5.527,2.104
	c0.84,0,1.646-0.097,2.402-0.297c0.8-0.241,1.505-0.563,2.105-0.963c0.641-0.439,1.141-0.98,1.5-1.621
	c0.359-0.644,0.543-1.381,0.543-2.227c0-0.799-0.143-1.521-0.425-2.161c-0.279-0.642-0.758-1.24-1.438-1.804
	c-0.642-0.563-1.501-1.103-2.588-1.624c-1.039-0.519-2.341-1.059-3.902-1.619l-2.645-0.962c-1.163-0.4-2.341-0.943-3.545-1.621
	c-1.162-0.684-2.223-1.502-3.184-2.466c-0.961-0.959-1.762-2.082-2.405-3.361c-0.599-1.323-0.898-2.808-0.898-4.449
	c0-1.681,0.319-3.244,0.961-4.687c0.682-1.482,1.624-2.763,2.821-3.846c1.242-1.119,2.705-1.981,4.387-2.583
	c1.726-0.64,3.626-0.96,5.712-0.96c2.161,0,4.021,0.3,5.586,0.9c1.602,0.561,2.944,1.303,4.024,2.224
	c1.123,0.88,2.022,1.861,2.703,2.942c0.685,1.084,1.184,2.104,1.506,3.066l-7.153,3.003c-0.396-1.202-1.14-2.282-2.221-3.245
	c-1.043-0.96-2.483-1.443-4.327-1.443c-1.764,0-3.224,0.42-4.387,1.261c-1.163,0.804-1.741,1.864-1.741,3.188
	c0,1.278,0.56,2.38,1.681,3.304c1.122,0.881,2.903,1.741,5.349,2.585l2.705,0.899c1.724,0.603,3.283,1.303,4.688,2.103
	c1.441,0.762,2.659,1.685,3.661,2.765c1.043,1.08,1.824,2.324,2.348,3.725c0.561,1.363,0.84,2.945,0.84,4.748
	c0,2.242-0.46,4.187-1.381,5.827c-0.881,1.602-2.026,2.922-3.424,3.965c-1.404,1.043-2.986,1.824-4.749,2.344
	C308.742,57.915,307.018,58.174,305.339,58.174z M362.077,14.195h9.255l16.162,43.019h-8.954l-3.539-10.277h-16.589l-3.544,10.276
	h-8.952l16.161-43.021V14.195z M372.353,39.491l-3.847-10.754l-1.561-5.229h-0.481l-1.563,5.228l-3.847,10.754L372.353,39.491
	L372.353,39.491L372.353,39.491z"/>
</svg>
