<?xml version="1.0" encoding="utf-8"?>
<!-- Generator: Adobe Illustrator 16.0.0, SVG Export Plug-In . SVG Version: 6.00 Build 0)  -->
<!DOCTYPE svg PUBLIC "-//W3C//DTD SVG 1.1//EN" "http://www.w3.org/Graphics/SVG/1.1/DTD/svg11.dtd">
<svg version="1.1"
	 id="Capa_1" xmlns:anim="urn:oasis:names:tc:opendocument:xmlns:animation:1.0" xmlns:smil="http://www.w3.org/2001/SMIL20/" xmlns:ooo="http://xml.openoffice.org/svg/export" xmlns:presentation="http://sun.com/xmlns/staroffice/presentation"
	 xmlns="http://www.w3.org/2000/svg" xmlns:xlink="http://www.w3.org/1999/xlink" x="0px" y="0px" width="421.994px"
	 height="67.012px" viewBox="0 0 421.994 67.012" enable-background="new 0 0 421.994 67.012" xml:space="preserve">
<g>
	<g id="id2">
		<g id="bg-id2">
		</g>
		<g id="bo-id2">
		</g>
	</g>
</g>
<path fill="#C6CF5F" d="M49.858,45.736c0,3.768-1.382,6.792-4.147,9.074c-2.806,2.245-6.209,3.363-10.213,3.363
	c-3.567,0-6.712-1.04-9.433-3.121c-2.726-2.086-4.61-4.931-5.65-8.535l5.288-2.162c0.363,1.283,0.863,2.443,1.502,3.486
	c0.641,1.04,1.383,1.941,2.225,2.701c0.881,0.723,1.842,1.303,2.885,1.743c1.039,0.399,2.141,0.604,3.304,0.604
	c2.524,0,4.585-0.646,6.188-1.927c1.599-1.322,2.403-3.063,2.403-5.228c0-1.801-0.662-3.343-1.984-4.628
	c-1.24-1.239-3.564-2.439-6.968-3.602c-3.446-1.245-5.586-2.084-6.429-2.524c-4.566-2.322-6.851-5.749-6.851-10.275
	c0-3.164,1.262-5.867,3.785-8.112c2.565-2.242,5.709-3.363,9.435-3.363c3.284,0,6.129,0.838,8.531,2.522
	c2.403,1.642,4.005,3.704,4.809,6.189l-5.168,2.162c-0.483-1.6-1.442-2.924-2.885-3.964c-1.403-1.081-3.124-1.622-5.167-1.622
	c-2.164,0-3.986,0.601-5.469,1.802c-1.481,1.119-2.224,2.583-2.224,4.385c0,1.482,0.583,2.765,1.744,3.846
	c1.282,1.083,4.065,2.363,8.351,3.847c4.368,1.482,7.473,3.305,9.313,5.465C48.916,39.991,49.858,42.614,49.858,45.736z
	 M85.405,57.213h-5.527V14.192h5.527V57.213z M158.253,37.445c0,6.007-1.784,10.796-5.344,14.358
	c-4.008,4.252-9.274,6.37-15.805,6.37c-6.248,0-11.534-2.161-15.86-6.487c-4.328-4.329-6.49-9.654-6.49-15.982
	c0-6.332,2.163-11.658,6.488-15.983c4.329-4.328,9.615-6.492,15.863-6.492c3.166,0,6.15,0.559,8.954,1.681s5.105,2.702,6.911,4.748
	L149,23.623c-1.318-1.602-3.041-2.845-5.167-3.724c-2.082-0.924-4.328-1.382-6.729-1.382c-4.685,0-8.65,1.622-11.894,4.866
	c-3.206,3.286-4.808,7.391-4.808,12.317s1.6,9.034,4.805,12.318c3.247,3.242,7.212,4.866,11.897,4.866
	c4.287,0,7.851-1.204,10.694-3.606c2.846-2.402,4.485-5.706,4.929-9.912h-15.623v-5.167h20.848c0.199,1.118,0.299,2.201,0.299,3.244
	L158.253,37.445z"/>
<path fill="#34559C" d="M197.47,57.213V21.885h-12.016V14.19h32.138v7.696h-12.01v35.327h-8.11H197.47z M255.359,14.192h9.255
	l16.162,43.021h-8.955l-3.545-10.276h-16.582l-3.544,10.276h-8.956l16.168-43.021H255.359z M265.634,39.489l-3.845-10.753
	l-1.565-5.231h-0.479l-1.563,5.228l-3.845,10.753h11.296V39.489z M322.338,58.174c-1.844,0-3.605-0.259-5.288-0.781
	c-1.683-0.52-3.226-1.301-4.626-2.344c-1.403-1.043-2.625-2.302-3.668-3.783c-1.04-1.521-1.859-3.282-2.461-5.289l7.63-3.004
	c0.561,2.162,1.542,3.964,2.945,5.406c1.403,1.404,3.243,2.104,5.527,2.104c0.84,0,1.645-0.097,2.402-0.297
	c0.8-0.241,1.505-0.563,2.106-0.963c0.64-0.44,1.14-0.981,1.5-1.621c0.359-0.644,0.543-1.381,0.543-2.227
	c0-0.799-0.143-1.52-0.425-2.161c-0.279-0.642-0.758-1.24-1.439-1.804c-0.641-0.562-1.501-1.102-2.587-1.624
	c-1.04-0.518-2.341-1.058-3.903-1.619l-2.644-0.962c-1.163-0.4-2.341-0.943-3.545-1.621c-1.162-0.683-2.223-1.502-3.184-2.466
	c-0.961-0.959-1.762-2.082-2.405-3.361c-0.599-1.323-0.899-2.808-0.899-4.449c0-1.681,0.32-3.244,0.961-4.687
	c0.682-1.482,1.624-2.762,2.822-3.845c1.242-1.12,2.705-1.982,4.386-2.583c1.726-0.64,3.626-0.96,5.712-0.96
	c2.161,0,4.021,0.299,5.586,0.9c1.602,0.561,2.945,1.303,4.025,2.224c1.123,0.88,2.022,1.861,2.703,2.942
	c0.684,1.084,1.183,2.104,1.506,3.066l-7.154,3.003c-0.396-1.202-1.139-2.282-2.22-3.245c-1.043-0.96-2.484-1.443-4.328-1.443
	c-1.763,0-3.223,0.42-4.386,1.261c-1.163,0.803-1.741,1.864-1.741,3.188c0,1.278,0.559,2.38,1.68,3.304
	c1.122,0.881,2.904,1.741,5.349,2.585l2.705,0.899c1.724,0.603,3.283,1.303,4.687,2.103c1.442,0.761,2.66,1.684,3.662,2.764
	c1.043,1.08,1.824,2.325,2.347,3.725c0.561,1.363,0.84,2.945,0.84,4.748c0,2.242-0.46,4.187-1.381,5.827
	c-0.881,1.602-2.026,2.922-3.424,3.965c-1.404,1.043-2.986,1.824-4.749,2.344C325.742,57.915,324.018,58.174,322.338,58.174z
	 M379.077,14.195h9.255l16.162,43.018h-8.954L392,46.936h-16.588l-3.544,10.276h-8.952l16.161-43.021V14.195z M389.353,39.491
	l-3.847-10.753l-1.56-5.229h-0.482l-1.563,5.228l-3.847,10.753h11.298V39.491z"/>
</svg>
