<svg width="120" height="120" viewBox="0 0 120 120" fill="none" xmlns="http://www.w3.org/2000/svg">
<path d="M73.8281 21.3281H45.7031C43.7616 21.3281 42.1875 22.9022 42.1875 24.8438C42.1875 26.7853 43.7616 28.3594 45.7031 28.3594H73.8281C75.7697 28.3594 77.3438 26.7853 77.3438 24.8438C77.3438 22.9022 75.7697 21.3281 73.8281 21.3281Z" fill="#34559C"/>
<path d="M73.8281 35.3906H45.7031C43.7616 35.3906 42.1875 36.9647 42.1875 38.9062C42.1875 40.8478 43.7616 42.4219 45.7031 42.4219H73.8281C75.7697 42.4219 77.3438 40.8478 77.3438 38.9062C77.3438 36.9647 75.7697 35.3906 73.8281 35.3906Z" fill="#34559C"/>
<path d="M73.8281 49.4531H17.5781C15.6366 49.4531 14.0625 51.0272 14.0625 52.9688C14.0625 54.9103 15.6366 56.4844 17.5781 56.4844H73.8281C75.7697 56.4844 77.3438 54.9103 77.3438 52.9688C77.3438 51.0272 75.7697 49.4531 73.8281 49.4531Z" fill="#34559C"/>
<path d="M61.0833 63.5156H17.5781C15.6366 63.5156 14.0625 65.0897 14.0625 67.0312C14.0625 68.9728 15.6366 70.5469 17.5781 70.5469H61.0833C63.0248 70.5469 64.5989 68.9728 64.5989 67.0312C64.5989 65.0897 63.0248 63.5156 61.0833 63.5156Z" fill="#34559C"/>
<path d="M91.6406 63.5156V10.5469C91.6406 4.7175 86.6962 0 80.8594 0H31.6402C30.7488 0 29.832 0.3525 29.1445 1.04016L1.01953 29.3995C0.373359 30.0509 0 30.9567 0 31.875V109.453C0 115.269 4.73133 120 10.5469 120C17.9639 120 20.4267 120 20.4162 120C31.1981 120 52.4142 120 91.6406 120C107.164 120 120 107.219 120 91.6406C120 76.1325 107.278 63.5156 91.6406 63.5156ZM28.125 12.0532V28.3594H11.9536L28.125 12.0532ZM10.5469 112.969C8.60836 112.969 7.03125 111.392 7.03125 109.453V35.3906H31.6406C33.5822 35.3906 35.1562 33.8166 35.1562 31.875V7.03125H80.8594C82.857 7.03125 84.6094 8.67398 84.6094 10.5469V64.391C77.1473 66.2857 70.8616 71.1234 67.0882 77.5781H17.5781C15.6366 77.5781 14.0625 79.1522 14.0625 81.0938C14.0625 83.0353 15.6366 84.6094 17.5781 84.6094H64.1784C63.593 86.8575 63.2812 89.2137 63.2812 91.6406H17.5781C15.6366 91.6406 14.0625 93.2147 14.0625 95.1562C14.0625 97.0978 15.6366 98.6719 17.5781 98.6719H64.173C65.5941 104.17 68.6665 109.125 73.0516 112.969H10.5469ZM91.6406 112.969C80.0796 112.969 70.3125 103.202 70.3125 91.6406C70.3125 80.0095 79.8802 70.5469 91.6406 70.5469C103.401 70.5469 112.969 80.0095 112.969 91.6406C112.969 103.202 103.202 112.969 91.6406 112.969Z" fill="#34559C"/>
<path d="M104.928 85.6602C103.567 84.276 101.341 84.2575 99.9564 85.619L88.105 97.2763L83.3041 92.6303C81.9089 91.2801 79.6832 91.3167 78.333 92.7119C76.9828 94.1071 77.0193 96.3327 78.4146 97.683L85.6802 104.714C87.0506 106.041 89.2296 106.033 90.5903 104.694L104.887 90.6318C106.271 89.2703 106.29 87.0445 104.928 85.6602Z" fill="#34559C"/>
</svg>
