<svg xmlns="http://www.w3.org/2000/svg" width="120" height="120" fill="none" viewBox="0 0 120 120">
    <path fill="#C2C2C2" d="M73.828 21.328H45.703c-1.941 0-3.516 1.574-3.516 3.516 0 1.941 1.575 3.515 3.516 3.515h28.125c1.942 0 3.516-1.574 3.516-3.515 0-1.942-1.574-3.516-3.516-3.516zM73.828 35.39H45.703c-1.941 0-3.516 1.575-3.516 3.516 0 1.942 1.575 3.516 3.516 3.516h28.125c1.942 0 3.516-1.574 3.516-3.516 0-1.941-1.574-3.515-3.516-3.515zM73.828 49.453h-56.25c-1.941 0-3.515 1.574-3.515 3.516 0 1.941 1.574 3.515 3.515 3.515h56.25c1.942 0 3.516-1.574 3.516-3.515 0-1.942-1.574-3.516-3.516-3.516zM61.083 63.516H17.578c-1.941 0-3.515 1.574-3.515 3.515 0 1.942 1.574 3.516 3.515 3.516h43.505c1.942 0 3.516-1.574 3.516-3.516 0-1.941-1.574-3.515-3.516-3.515z"/>
    <path fill="#C2C2C2" d="M91.64 63.516v-52.97C91.64 4.719 86.697 0 80.86 0H31.64c-.891 0-1.808.352-2.495 1.04L1.02 29.4C.373 30.05 0 30.956 0 31.875v77.578C0 115.269 4.731 120 10.547 120H91.64C107.164 120 120 107.219 120 91.64c0-15.508-12.722-28.124-28.36-28.124zM28.126 12.053V28.36H11.954l16.171-16.306zM10.547 112.97c-1.939 0-3.516-1.577-3.516-3.516V35.391h24.61c1.941 0 3.515-1.574 3.515-3.516V7.031H80.86c1.998 0 3.75 1.643 3.75 3.516V64.39c-7.462 1.895-13.747 6.732-17.52 13.187h-49.51c-1.942 0-3.517 1.574-3.517 3.516 0 1.941 1.575 3.515 3.516 3.515h46.6c-.585 2.249-.897 4.605-.897 7.032H17.578c-1.941 0-3.515 1.574-3.515 3.515 0 1.942 1.574 3.516 3.515 3.516h46.595c1.421 5.498 4.493 10.453 8.879 14.297H10.547zm81.094 0c-11.561 0-21.329-9.767-21.329-21.328 0-11.632 9.568-21.094 21.329-21.094 11.76 0 21.328 9.463 21.328 21.094 0 11.561-9.767 21.328-21.328 21.328z"/>
    <path fill="#C2C2C2" d="M104.928 85.66c-1.361-1.385-3.587-1.403-4.972-.041L88.105 97.275l-4.8-4.646c-1.396-1.35-3.622-1.314-4.972.081-1.35 1.396-1.314 3.621.082 4.972l7.265 7.031c1.37 1.326 3.55 1.318 4.91-.02l14.297-14.063c1.384-1.361 1.403-3.587.041-4.971z"/>
</svg>
