<svg xmlns="http://www.w3.org/2000/svg" width="126" height="126" fill="none" viewBox="0 0 126 126">
    <g clip-path="url(#clip0)">
        <path fill="#C2C2C2" d="M18.21 126C8.17 126 0 117.831 0 107.789V61.031c0-10.041 8.17-18.21 18.21-18.21 10.043 0 18.212 8.169 18.212 18.21v46.758c0 10.042-8.17 18.211-18.211 18.211zm0-73.336c-4.613 0-8.366 3.753-8.366 8.367v46.758c0 4.614 3.753 8.367 8.367 8.367 4.614 0 8.367-3.753 8.367-8.367V61.031c0-4.613-3.753-8.367-8.367-8.367zM63 126c-10.042 0-18.21-8.169-18.21-18.211v-20.18c0-10.041 8.168-18.21 18.21-18.21 10.042 0 18.21 8.169 18.21 18.21v20.18C81.21 117.831 73.043 126 63 126zm0-46.758c-4.614 0-8.367 3.754-8.367 8.367v20.18c0 4.614 3.753 8.367 8.367 8.367 4.614 0 8.367-3.753 8.367-8.367v-20.18c0-4.613-3.753-8.367-8.367-8.367zM107.789 126c-10.041 0-18.21-8.169-18.21-18.211V64.723c0-10.042 8.169-18.211 18.21-18.211 10.042 0 18.211 8.169 18.211 18.21v43.067c0 10.042-8.169 18.211-18.211 18.211zm0-69.644c-4.614 0-8.367 3.753-8.367 8.367v43.066c0 4.614 3.753 8.367 8.367 8.367 4.614 0 8.367-3.753 8.367-8.367V64.723c0-4.614-3.753-8.367-8.367-8.367zm-27.364-1.957l27.238-28.61c1.874-1.97 1.797-5.085-.171-6.96-1.969-1.874-5.085-1.797-6.959.172L73.251 47.658l-.094.1c-2.565 2.852-6.909 3.253-9.951.943L31.957 20.314c-.083-.076-.168-.148-.256-.218-6.606-5.224-15.944-4.928-22.205.703-.058.053-.115.106-.17.16L1.46 28.74c-1.933 1.912-1.95 5.028-.038 6.96 1.911 1.933 5.027 1.95 6.96.038l7.771-7.686c2.646-2.316 6.528-2.448 9.324-.324l31.25 28.387c.082.076.168.148.256.218 3.144 2.487 6.916 3.703 10.67 3.703 4.71 0 9.393-1.915 12.77-5.636zM126 28.055v-13.29C126 6.625 119.376 0 111.234 0H97.945c-2.718 0-4.922 2.204-4.922 4.922 0 2.718 2.204 4.922 4.922 4.922h13.289c2.714 0 4.922 2.208 4.922 4.922v13.289c0 2.718 2.204 4.922 4.922 4.922 2.718 0 4.922-2.204 4.922-4.922z"/>
    </g>
    <defs>
        <clipPath id="clip0">
            <path fill="#fff" d="M0 0H126V126H0z"/>
        </clipPath>
    </defs>
</svg>
