<svg width="126" height="126" viewBox="0 0 126 126" fill="none" xmlns="http://www.w3.org/2000/svg">
<path d="M59.5547 121.078C59.5547 123.797 57.3514 126 54.6328 126H26.332C15.476 126 6.64453 117.169 6.64453 106.312V19.6875C6.64453 8.8315 15.476 0 26.332 0H86.8442C97.6992 0 106.532 8.8315 106.532 19.6875V71.8594C106.532 74.5779 104.327 76.7812 101.61 76.7812C98.8912 76.7812 96.6879 74.5779 96.6879 71.8594V19.6875C96.6879 14.26 92.2717 9.84375 86.8442 9.84375H26.332C20.9045 9.84375 16.4883 14.26 16.4883 19.6875V106.312C16.4883 111.74 20.9045 116.156 26.332 116.156H54.6328C57.3514 116.156 59.5547 118.36 59.5547 121.078ZM117.544 80.1622C115.334 78.5798 112.26 79.0893 110.678 81.2984L86.4174 115.186C85.755 115.954 84.9244 116.12 84.4803 116.15C84.0208 116.179 83.1326 116.122 82.3703 115.396L66.6645 100.315C64.7044 98.4327 61.5888 98.4952 59.7056 100.456C57.8224 102.417 57.8859 105.533 59.8469 107.415L75.5681 122.511C77.9233 124.752 81.0658 126 84.2996 126C84.5774 126 84.8562 125.99 85.135 125.972C88.6572 125.738 91.9458 124.025 94.1578 121.271C94.2145 121.201 94.2702 121.128 94.3231 121.054L118.682 87.0287C120.264 84.8187 119.755 81.7445 117.544 80.1622V80.1622ZM81.9223 29.5312H31.227C28.5084 29.5312 26.3051 31.7346 26.3051 34.4531C26.3051 37.1717 28.5084 39.375 31.227 39.375H81.9223C84.6399 39.375 86.8442 37.1717 86.8442 34.4531C86.8442 31.7346 84.6399 29.5312 81.9223 29.5312ZM86.8442 54.1406C86.8442 51.4221 84.6399 49.2188 81.9223 49.2188H31.227C28.5084 49.2188 26.3051 51.4221 26.3051 54.1406C26.3051 56.8592 28.5084 59.0625 31.227 59.0625H81.9223C84.6399 59.0625 86.8442 56.8592 86.8442 54.1406ZM31.227 68.9062C28.5084 68.9062 26.3051 71.1096 26.3051 73.8281C26.3051 76.5467 28.5084 78.75 31.227 78.75H62.0156C64.7342 78.75 66.9375 76.5467 66.9375 73.8281C66.9375 71.1096 64.7342 68.9062 62.0156 68.9062H31.227Z" fill="#C2C2C2"/>
</svg>
