<?xml version="1.0" encoding="utf-8"?>
<!-- Generator: Adobe Illustrator 16.0.0, SVG Export Plug-In . SVG Version: 6.00 Build 0)  -->
<svg version="1.2" baseProfile="tiny" id="Capa_1" xmlns="http://www.w3.org/2000/svg" xmlns:xlink="http://www.w3.org/1999/xlink"
	 x="0px" y="0px" width="126px" height="126px" viewBox="0 0 126 126" xml:space="preserve">
<path fill="#34559C" d="M73.582,78.012c2.718,0,4.922-2.203,4.922-4.922c0-2.718-2.204-4.922-4.922-4.922
	c-2.719,0-4.922,2.204-4.922,4.922C68.66,75.809,70.863,78.012,73.582,78.012z M73.582,56.602c2.718,0,4.922-2.204,4.922-4.922
	c0-2.719-2.204-4.922-4.922-4.922c-2.719,0-4.922,2.203-4.922,4.922C68.66,54.398,70.863,56.602,73.582,56.602z M52.172,78.012
	c2.718,0,4.922-2.203,4.922-4.922c0-2.718-2.204-4.922-4.922-4.922c-2.718,0-4.922,2.204-4.922,4.922
	C47.25,75.809,49.454,78.012,52.172,78.012z M52.172,56.602c2.718,0,4.922-2.204,4.922-4.922c0-2.719-2.204-4.922-4.922-4.922
	c-2.718,0-4.922,2.203-4.922,4.922C47.25,54.398,49.454,56.602,52.172,56.602z M52.172,99.422c2.718,0,4.922-2.204,4.922-4.922
	s-2.204-4.922-4.922-4.922c-2.718,0-4.922,2.204-4.922,4.922S49.454,99.422,52.172,99.422z M94.992,56.602
	c2.718,0,4.922-2.204,4.922-4.922c0-2.719-2.204-4.922-4.922-4.922c-2.719,0-4.922,2.203-4.922,4.922
	C90.07,54.398,92.273,56.602,94.992,56.602z M30.762,56.602c2.718,0,4.922-2.204,4.922-4.922c0-2.719-2.204-4.922-4.922-4.922
	c-2.719,0-4.922,2.203-4.922,4.922C25.84,54.398,28.043,56.602,30.762,56.602z M103.852,72.352
	c-12.213,0-22.148,9.936-22.148,22.148c0,4.136,1.141,8.01,3.123,11.327l-11.771,11.771c-1.922,1.922-1.922,5.038,0,6.961
	c0.961,0.961,2.221,1.441,3.48,1.441s2.52-0.48,3.48-1.441l11.604-11.604c3.508,2.332,7.714,3.693,12.232,3.693
	c12.213,0,22.148-9.936,22.148-22.148S116.064,72.352,103.852,72.352z M103.852,106.805c-6.785,0-12.305-5.52-12.305-12.305
	s5.52-12.305,12.305-12.305s12.305,5.52,12.305,12.305S110.637,106.805,103.852,106.805z M30.762,99.422
	c2.718,0,4.922-2.204,4.922-4.922s-2.204-4.922-4.922-4.922c-2.719,0-4.922,2.204-4.922,4.922S28.043,99.422,30.762,99.422z"/>
<path fill="#34559C" d="M106.313,9.844h-6.398V4.922C99.914,2.204,97.71,0,94.992,0c-2.719,0-4.922,2.204-4.922,4.922v4.922H67.676
	V4.922C67.676,2.204,65.473,0,62.754,0c-2.718,0-4.922,2.204-4.922,4.922v4.922H35.684V4.922C35.684,2.204,33.48,0,30.762,0
	c-2.719,0-4.922,2.204-4.922,4.922v4.922h-6.152C8.832,9.844,0,18.676,0,29.53v76.78C0,117.168,8.832,126,19.688,126h32.238
	c2.718,0,4.922-2.204,4.922-4.922c0-2.719-2.204-4.922-4.922-4.922H19.687c-5.427,0-9.843-4.416-9.843-9.844v-76.78
	c0-5.429,4.416-9.845,9.844-9.845h6.152v4.922c0,2.719,2.203,4.922,4.922,4.922c2.718,0,4.922-2.203,4.922-4.922v-4.922h22.148
	v4.922c0,2.719,2.204,4.922,4.922,4.922c2.719,0,4.922-2.203,4.922-4.922v-4.922H90.07v4.922c0,2.719,2.203,4.922,4.922,4.922
	c2.718,0,4.922-2.203,4.922-4.922v-4.922h6.398c5.428,0,9.844,4.416,9.844,9.844v29.532c0,2.718,2.203,4.921,4.922,4.921
	c2.718,0,4.922-2.203,4.922-4.922v-29.53C126,18.676,117.168,9.844,106.313,9.844z"/>
<path fill="#34559C" d="M30.762,78.012c2.718,0,4.922-2.203,4.922-4.922c0-2.718-2.204-4.922-4.922-4.922
	c-2.719,0-4.922,2.204-4.922,4.922C25.84,75.809,28.043,78.012,30.762,78.012z"/>
</svg>
