<svg width="121" height="121" viewBox="0 0 121 121" fill="none" xmlns="http://www.w3.org/2000/svg">
<path d="M103.28 78.2199C96.6906 71.6306 88.8473 66.7525 80.2899 63.7996C89.4552 57.4871 95.4766 46.9225 95.4766 34.9766C95.4766 15.6905 79.786 0 60.5 0C41.214 0 25.5234 15.6905 25.5234 34.9766C25.5234 46.9225 31.5448 57.4871 40.7104 63.7996C32.1529 66.7525 24.3097 71.6306 17.7201 78.2199C6.29318 89.6471 0 104.84 0 121H9.45312C9.45312 92.8526 32.3526 69.9531 60.5 69.9531C88.6474 69.9531 111.547 92.8526 111.547 121H121C121 104.84 114.707 89.6471 103.28 78.2199ZM60.5 60.5C46.4264 60.5 34.9766 49.0504 34.9766 34.9766C34.9766 20.9028 46.4264 9.45312 60.5 9.45312C74.5736 9.45312 86.0234 20.9028 86.0234 34.9766C86.0234 49.0504 74.5736 60.5 60.5 60.5Z" fill="#C2C2C2"/>
</svg>
