<?xml version="1.0" encoding="utf-8"?>
<!-- Generator: Adobe Illustrator 16.0.0, SVG Export Plug-In . SVG Version: 6.00 Build 0)  -->
<!DOCTYPE svg PUBLIC "-//W3C//DTD SVG 1.1 Basic//EN" "http://www.w3.org/Graphics/SVG/1.1/DTD/svg11-basic.dtd">
<svg version="1.1" baseProfile="basic" id="Capa_1" xmlns="http://www.w3.org/2000/svg" xmlns:xlink="http://www.w3.org/1999/xlink"
	 x="0px" y="0px" width="134px" height="134px" viewBox="0 0 134 134" xml:space="preserve">
<g>
	<defs>
		<rect id="SVGID_1_" width="134" height="134"/>
	</defs>
	<clipPath id="SVGID_2_">
		<use xlink:href="#SVGID_1_"  overflow="visible"/>
	</clipPath>
	<path clip-path="url(#SVGID_2_)" fill="#C2C2C2" d="M108.635,65.476c13.734-12.346,14.859-33.488,2.512-47.222
		C99.824,5.66,80.871,3.52,67.024,13.274C51.929,2.62,31.057,6.22,20.404,21.314c-9.775,13.85-7.643,32.824,4.96,44.16
		C9.704,73.73-0.07,90.006,0,107.71v14.356c0,2.644,2.143,4.787,4.786,4.787h124.428c2.644,0,4.786-2.144,4.786-4.787V107.71
		C134.07,90.007,124.296,73.732,108.635,65.476L108.635,65.476z M86.143,16.78c13.196-0.014,23.906,10.672,23.922,23.869
		c0.011,9.411-5.506,17.952-14.088,21.815c-0.367,0.168-0.736,0.32-1.109,0.479c-1.182,0.476-2.4,0.855-3.643,1.134
		c-0.24,0.053-0.479,0.081-0.723,0.13c-1.389,0.266-2.797,0.408-4.211,0.425c-0.637,0-1.277-0.048-1.915-0.105
		c-0.239,0-0.478,0-0.717-0.048c-2.72-0.32-5.366-1.1-7.825-2.306c-0.09-0.044-0.195-0.039-0.287-0.077
		c-0.479-0.23-0.957-0.43-1.383-0.69c0.038-0.047,0.063-0.1,0.1-0.148c2.195-2.82,3.926-5.971,5.127-9.336l0.147-0.403
		c0.546-1.607,0.97-3.253,1.269-4.924c0.043-0.244,0.076-0.479,0.114-0.742c0.276-1.701,0.423-3.42,0.437-5.145
		c-0.015-1.72-0.16-3.437-0.437-5.135c-0.038-0.248-0.071-0.478-0.114-0.741c-0.299-1.671-0.723-3.318-1.269-4.925l-0.147-0.402
		c-1.201-3.365-2.932-6.517-5.127-9.337c-0.037-0.048-0.062-0.1-0.1-0.148C77.8,17.899,81.934,16.78,86.143,16.78z M23.93,40.71
		c-0.034-13.181,10.623-23.894,23.805-23.928c6.178-0.016,12.122,2.365,16.581,6.642c0.278,0.268,0.55,0.536,0.819,0.813
		c0.821,0.861,1.58,1.781,2.268,2.752c0.21,0.297,0.402,0.613,0.598,0.919c0.669,1.03,1.256,2.11,1.756,3.23
		c0.12,0.273,0.211,0.55,0.315,0.823c0.506,1.24,0.902,2.52,1.188,3.829c0.034,0.143,0.043,0.287,0.072,0.435
		c0.605,2.972,0.605,6.035,0,9.007c-0.029,0.148-0.038,0.292-0.072,0.435c-0.285,1.308-0.682,2.589-1.188,3.829
		c-0.104,0.272-0.195,0.55-0.315,0.823c-0.5,1.119-1.088,2.197-1.756,3.225c-0.196,0.306-0.388,0.622-0.598,0.92
		c-0.688,0.97-1.447,1.89-2.268,2.75c-0.269,0.278-0.541,0.547-0.819,0.814c-1.937,1.847-4.171,3.355-6.609,4.46
		c-0.387,0.177-0.78,0.34-1.177,0.48c-1.154,0.457-2.34,0.825-3.55,1.1c-0.302,0.067-0.613,0.105-0.92,0.158
		c-1.3,0.242-2.617,0.374-3.938,0.397h-0.527c-1.321-0.023-2.639-0.155-3.938-0.397c-0.306-0.053-0.618-0.091-0.92-0.158
		c-1.21-0.275-2.397-0.643-3.55-1.1c-0.397-0.159-0.79-0.321-1.177-0.48C29.448,58.623,23.94,50.104,23.93,40.71L23.93,40.71z
		 M86.143,117.281H9.573v-9.572c-0.07-16.217,10.147-30.695,25.45-36.064c8.215,3.42,17.455,3.42,25.67,0
		c1.598,0.584,3.155,1.272,4.662,2.063c0.995,0.512,1.914,1.096,2.872,1.686c0.621,0.387,1.254,0.765,1.852,1.19
		c0.924,0.656,1.795,1.369,2.65,2.101c0.551,0.479,1.097,0.957,1.613,1.437c0.79,0.746,1.532,1.536,2.245,2.345
		c0.513,0.584,1.011,1.178,1.483,1.79c0.627,0.804,1.225,1.627,1.779,2.474c0.48,0.719,0.905,1.465,1.326,2.211
		c0.479,0.824,0.92,1.646,1.32,2.504c0.402,0.856,0.757,1.795,1.102,2.709c0.301,0.793,0.623,1.584,0.87,2.392
		c0.335,1.11,0.57,2.261,0.804,3.408c0.145,0.679,0.33,1.345,0.437,2.034c0.283,1.894,0.429,3.807,0.435,5.723V117.281
		L86.143,117.281z M124.43,117.281H95.714v-9.572c0-1.498-0.086-2.98-0.22-4.45c-0.038-0.431-0.105-0.856-0.153-1.288
		c-0.13-1.057-0.278-2.104-0.479-3.144c-0.086-0.443-0.176-0.89-0.272-1.335c-0.229-1.066-0.496-2.122-0.799-3.168
		c-0.101-0.346-0.19-0.694-0.297-1.034c-1.341-4.284-3.281-8.354-5.767-12.093l-0.187-0.273c-0.823-1.222-1.702-2.404-2.638-3.546
		l-0.032-0.043c-0.957-1.187-1.996-2.34-3.087-3.433h0.195c1.351,0.179,2.711,0.274,4.074,0.287h0.262
		c1.262-0.01,2.521-0.092,3.772-0.244c0.392-0.047,0.78-0.119,1.172-0.182c1.019-0.156,2.023-0.357,3.015-0.606
		c0.283-0.072,0.57-0.14,0.857-0.22c1.303-0.355,2.58-0.791,3.828-1.303c15.314,5.363,25.541,19.85,25.471,36.075V117.281h-0.002
		H124.43z"/>
</g>
</svg>
