<?xml version="1.0" encoding="UTF-8"?>
<svg xmlns="http://www.w3.org/2000/svg" xmlns:xlink="http://www.w3.org/1999/xlink" width="126pt" height="126pt" viewBox="0 0 126 126" version="1.1">
<g id="surface1">
<path style=" stroke:none;fill-rule:evenodd;fill:rgb(20.392157%,33.333333%,61.176471%);fill-opacity:1;" d="M 81.488281 67.191406 C 90.175781 70.1875 98.136719 75.140625 104.820312 81.824219 C 116.417969 93.421875 122.804688 108.839844 122.804688 125.242188 L 113.210938 125.242188 C 113.210938 96.675781 89.96875 73.433594 61.402344 73.433594 C 32.835938 73.433594 9.59375 96.675781 9.59375 125.242188 L 0 125.242188 C 0 108.847656 6.386719 93.421875 17.984375 81.832031 C 24.671875 75.140625 32.632812 70.1875 41.316406 67.191406 C 32.015625 60.785156 25.90625 50.054688 25.90625 37.9375 C 25.90625 18.363281 41.828125 2.441406 61.402344 2.441406 C 80.976562 2.441406 96.898438 18.363281 96.898438 37.9375 C 96.898438 50.0625 90.789062 60.789062 81.492188 67.191406 Z M 35.496094 37.941406 C 35.496094 52.226562 47.117188 63.847656 61.402344 63.847656 C 75.6875 63.847656 87.304688 52.222656 87.304688 37.941406 C 87.304688 23.660156 75.6875 12.039062 61.402344 12.039062 C 47.117188 12.039062 35.496094 23.660156 35.496094 37.941406 Z M 35.496094 37.941406 "/>
</g>
</svg>
