<svg xmlns="http://www.w3.org/2000/svg" width="12.439" height="12.439" viewBox="0 0 12.439 12.439">
  <defs>
    <style>
      .cls-1 {
        fill-rule: evenodd;
      }
    </style>
  </defs>
  <g id="Grupo_82" data-name="Grupo 82" transform="translate(-4062 815.03)">
    <path id="Trazado_143" data-name="Trazado 143" class="cls-1" d="M752.732,272.488h-1.244v-.622h-1.244v1.866H760.2v-1.866h-1.244v.622h-1.244v-.622h-4.976Zm7.464,2.488h-9.952v6.22H760.2Zm-2.488-4.354h-4.976V270h-1.244v.622h-1.244A1.244,1.244,0,0,0,749,271.866v9.33a1.244,1.244,0,0,0,1.244,1.244H760.2a1.244,1.244,0,0,0,1.244-1.244v-9.33a1.244,1.244,0,0,0-1.244-1.244h-1.244V270h-1.244Zm-5.6,6.842V276.22h1.244v1.244Zm2.488,0h1.244V276.22H754.6Zm2.488,0V276.22h1.244v1.244Zm-4.976,1.244v1.244h1.244v-1.244Zm3.732,1.244H754.6v-1.244h1.244Z" transform="translate(3313 -1085.03)"/>
  </g>
</svg>
