<svg xmlns="http://www.w3.org/2000/svg" width="126" height="126" fill="none" viewBox="0 0 126 126">
    <path fill="#C2C2C2" d="M73.582 56.602c2.718 0 4.922-2.204 4.922-4.922 0-2.719-2.204-4.922-4.922-4.922-2.718 0-4.922 2.203-4.922 4.922 0 2.718 2.204 4.922 4.922 4.922zM73.582 78.012c2.718 0 4.922-2.204 4.922-4.922 0-2.718-2.204-4.922-4.922-4.922-2.718 0-4.922 2.204-4.922 4.922 0 2.718 2.204 4.922 4.922 4.922zM94.992 56.602c2.718 0 4.922-2.204 4.922-4.922 0-2.719-2.204-4.922-4.922-4.922-2.718 0-4.922 2.203-4.922 4.922 0 2.718 2.204 4.922 4.922 4.922z"/>
    <path fill="#C2C2C2" d="M121.078 61.523c2.718 0 4.922-2.203 4.922-4.922v-27.07c0-10.855-8.832-19.687-19.688-19.687h-6.398V4.922C99.914 2.204 97.71 0 94.992 0c-2.718 0-4.922 2.204-4.922 4.922v4.922H67.676V4.922C67.676 2.204 65.472 0 62.754 0c-2.719 0-4.922 2.204-4.922 4.922v4.922H35.684V4.922C35.684 2.204 33.48 0 30.762 0c-2.719 0-4.922 2.204-4.922 4.922v4.922h-6.152C8.832 9.844 0 18.676 0 29.53v76.781C0 117.168 8.832 126 19.688 126h62.015c.168 0 .333-.009.496-.025.163.016.325.025.487.025 1.313 0 2.6-.525 3.547-1.508l38.39-39.867c1.369-1.422 1.757-3.525.984-5.34-.772-1.817-2.555-2.996-4.529-2.996H97.453c-10.856 0-19.688 8.832-19.688 19.687v20.18H19.688c-5.427 0-9.843-4.416-9.843-9.844v-76.78c0-5.429 4.416-9.845 9.844-9.845h6.152v4.922c0 2.719 2.203 4.922 4.922 4.922 2.718 0 4.922-2.203 4.922-4.922v-4.922h22.148v4.922c0 2.719 2.203 4.922 4.922 4.922 2.718 0 4.922-2.203 4.922-4.922v-4.922H90.07v4.922c0 2.719 2.204 4.922 4.922 4.922 2.718 0 4.922-2.203 4.922-4.922v-4.922h6.398c5.428 0 9.844 4.416 9.844 9.844v27.07c0 2.719 2.204 4.922 4.922 4.922zM87.609 95.976c0-5.427 4.416-9.843 9.844-9.843h12.052L87.609 108.87V95.976z"/>
    <path fill="#C2C2C2" d="M30.762 56.602c2.718 0 4.922-2.204 4.922-4.922 0-2.719-2.204-4.922-4.922-4.922-2.719 0-4.922 2.203-4.922 4.922 0 2.718 2.203 4.922 4.922 4.922zM52.172 78.012c2.718 0 4.922-2.204 4.922-4.922 0-2.718-2.204-4.922-4.922-4.922-2.718 0-4.922 2.204-4.922 4.922 0 2.718 2.204 4.922 4.922 4.922zM30.762 99.422c2.718 0 4.922-2.204 4.922-4.922 0-2.718-2.204-4.922-4.922-4.922-2.719 0-4.922 2.204-4.922 4.922 0 2.718 2.203 4.922 4.922 4.922zM30.762 78.012c2.718 0 4.922-2.204 4.922-4.922 0-2.718-2.204-4.922-4.922-4.922-2.719 0-4.922 2.204-4.922 4.922 0 2.718 2.203 4.922 4.922 4.922zM52.172 99.422c2.718 0 4.922-2.204 4.922-4.922 0-2.718-2.204-4.922-4.922-4.922-2.718 0-4.922 2.204-4.922 4.922 0 2.718 2.204 4.922 4.922 4.922zM52.172 56.602c2.718 0 4.922-2.204 4.922-4.922 0-2.719-2.204-4.922-4.922-4.922-2.718 0-4.922 2.203-4.922 4.922 0 2.718 2.204 4.922 4.922 4.922z"/>
</svg>
