<svg xmlns="http://www.w3.org/2000/svg" width="17" height="17" fill="none" viewBox="0 0 17 17">
    <path fill="#fff" d="M14.254 2.877h-3.4V1.569C10.854.703 10.15 0 9.284 0H7.716C6.85 0 6.146.703 6.146 1.57v1.307h-3.4c-.722 0-1.308.585-1.308 1.308v11.507c0 .723.586 1.308 1.308 1.308h11.508c.722 0 1.308-.585 1.308-1.308V4.185c0-.723-.586-1.308-1.308-1.308zm-.262 12.554H3.008V4.446h3.138v.262c0 .866.703 1.569 1.57 1.569h1.569c.866 0 1.569-.703 1.569-1.57v-.26h3.138V15.43zM9.285 4.708h-1.57V1.569h1.57v3.139z"/>
    <path fill="#fff" d="M12.423 7.846H4.577v1.57h7.846v-1.57zM12.423 10.985H4.577v1.569h7.846v-1.57z"/>
</svg>
