<svg xmlns="http://www.w3.org/2000/svg" width="20" height="25" fill="none" viewBox="0 0 20 25">
    <path fill="#FFF" fill-rule="evenodd" d="M20 3.906v14.746c0 .54-.416.977-.928.977-.513 0-.928-.437-.928-.977V3.906c0-1.077-.833-1.953-1.856-1.953H5.986c-.513 0-.928-.437-.928-.976 0-.54.415-.977.928-.977h10.302C18.335 0 20 1.752 20 3.906zM12.575 25H3.712C1.665 25 0 23.248 0 21.094V7.86c0-2.154 1.665-3.906 3.712-3.906h8.863c2.047 0 3.713 1.752 3.713 3.906v13.233c0 2.154-1.666 3.906-3.713 3.906zM3.712 5.908c-1.023 0-1.856.876-1.856 1.953v13.233c0 1.077.833 1.953 1.856 1.953h8.863c1.024 0 1.857-.876 1.857-1.953V7.86c0-1.077-.833-1.953-1.857-1.953H3.712z" clip-rule="evenodd"/>
    <path fill="#FFF" d="M9.464 15.304c-.088 0-.16.072-.16.16V19H7.696v-3.536c0-.088-.072-.16-.16-.16H4v-1.608h3.536c.088 0 .16-.072.16-.16V10h1.608v3.536c0 .088.072.16.16.16H13v1.608H9.464z"/>
</svg>
