<svg xmlns="http://www.w3.org/2000/svg" width="20" height="20" fill="none" viewBox="0 0 20 20">
    <g fill="#fff" clip-path="url(#clip0)">
        <path d="M19.432 4.77c-.037 0-.81-.027-1.944-.002V2.444c0-.343-.292-.615-.637-.587-2.26.19-5.137 1.188-6.851 3.01-1.714-1.822-4.59-2.82-6.851-3.01-.344-.028-.637.243-.637.587V4.83c-.645-.024-1.254-.041-1.906-.06-.33-.01-.606.254-.606.588V16.07c0 .31.24.566.549.587 2.34.158 6.26.175 9.22 1.438.264.113.501-.017.462 0 2.96-1.263 6.88-1.28 9.22-1.438.31-.02.55-.277.55-.587V5.36c-.001-.317-.252-.577-.569-.588zm-3.12-1.665v10.082c-1.696.38-3.846 1.19-5.724 2.906V5.982c1.287-1.606 3.725-2.574 5.724-2.877zm-12.624 0c2 .303 4.437 1.271 5.724 2.877v10.111c-1.878-1.717-4.028-2.526-5.724-2.906V3.105zM1.176 15.518V5.964c.422.013.872.027 1.336.045v7.658c0 .283.201.526.48.578 1.343.252 3.09.8 4.717 1.977-2.322-.52-4.753-.604-6.533-.704zm17.648 0c-1.777.1-4.21.183-6.533.704 1.628-1.178 3.374-1.725 4.718-1.977.278-.052.48-.295.48-.578V5.945c.54-.012 1.002-.012 1.334-.009v9.582z"/>
        <path d="M7.887 7.338c-.456-.318-1.241-.708-2.08-.85-.32-.054-.624.163-.678.483-.054.32.162.624.482.678.647.11 1.268.42 1.603.654.267.185.633.12.819-.147.186-.266.12-.633-.146-.818zM7.828 10.65c-.42-.256-1.24-.705-2.02-.837-.32-.054-.625.162-.679.482-.054.32.162.624.482.678.609.103 1.324.51 1.603.681.278.17.64.082.81-.195.168-.277.08-.64-.196-.809zM12.786 8.303c.335-.234.956-.545 1.603-.654.32-.054.536-.358.482-.678-.054-.32-.358-.537-.678-.482-.838.141-1.624.531-2.08.849-.266.185-.332.552-.146.818.186.267.553.332.819.147zM14.193 9.813c-.782.132-1.601.581-2.02.837-.278.17-.365.532-.196.809.17.277.531.365.809.195.279-.17.994-.578 1.603-.68.32-.055.536-.359.482-.679-.054-.32-.358-.536-.678-.482z"/>
    </g>
    <defs>
        <clipPath id="clip0">
            <path fill="#fff" d="M0 0H20V20H0z"/>
        </clipPath>
    </defs>
</svg>
