<svg width="126" height="126" viewBox="0 0 126 126" fill="none" xmlns="http://www.w3.org/2000/svg">
<g clip-path="url(#clip0)">
<path d="M18.2109 126C8.16933 126 0 117.831 0 107.789V61.0312C0 50.9896 8.16933 42.8203 18.2109 42.8203C28.2525 42.8203 36.4219 50.9896 36.4219 61.0312V107.789C36.4219 117.831 28.2525 126 18.2109 126ZM18.2109 52.6641C13.5972 52.6641 9.84375 56.4175 9.84375 61.0312V107.789C9.84375 112.403 13.5972 116.156 18.2109 116.156C22.8247 116.156 26.5781 112.403 26.5781 107.789V61.0312C26.5781 56.4177 22.8247 52.6641 18.2109 52.6641ZM63 126C52.9584 126 44.7891 117.831 44.7891 107.789V87.6094C44.7891 77.5678 52.9584 69.3984 63 69.3984C73.0416 69.3984 81.2109 77.5678 81.2109 87.6094V107.789C81.2109 117.831 73.0416 126 63 126ZM63 79.2422C58.3862 79.2422 54.6328 82.9956 54.6328 87.6094V107.789C54.6328 112.403 58.3862 116.156 63 116.156C67.6138 116.156 71.3672 112.403 71.3672 107.789V87.6094C71.3672 82.9959 67.6138 79.2422 63 79.2422ZM107.789 126C97.7475 126 89.5781 117.831 89.5781 107.789V64.7227C89.5781 54.681 97.7475 46.5117 107.789 46.5117C117.831 46.5117 126 54.681 126 64.7227V107.789C126 117.831 117.831 126 107.789 126ZM107.789 56.3555C103.175 56.3555 99.4219 60.1089 99.4219 64.7227V107.789C99.4219 112.403 103.175 116.156 107.789 116.156C112.403 116.156 116.156 112.403 116.156 107.789V64.7227C116.156 60.1091 112.403 56.3555 107.789 56.3555ZM80.4247 54.399L107.663 25.7882C109.537 23.8194 109.46 20.7039 107.492 18.8296C105.523 16.9551 102.407 17.0319 100.533 19.0007L73.251 47.6578C73.2193 47.691 73.188 47.7247 73.1573 47.7589C70.5917 50.6099 66.2484 51.0106 63.206 48.7007L31.9572 20.3136C31.8741 20.2383 31.7887 20.1657 31.7008 20.096C25.0954 14.8724 15.7569 15.1682 9.49553 20.7994C9.4377 20.8515 9.38085 20.9049 9.32572 20.9596L1.46081 28.7391C-0.472008 30.6507 -0.488988 33.767 1.42291 35.6996C3.33408 37.6319 6.45036 37.6491 8.38318 35.7375L16.1543 28.0508C18.8003 25.7353 22.682 25.6029 25.4783 27.7271L56.7276 56.1145C56.8105 56.1898 56.8961 56.2624 56.984 56.3318C60.1283 58.8186 63.9002 60.0348 67.6544 60.0346C72.3646 60.0343 77.0468 58.1197 80.4247 54.399V54.399ZM126 28.0547V14.7656C126 6.62386 119.376 0 111.234 0H97.9453C95.227 0 93.0234 2.20352 93.0234 4.92188C93.0234 7.64023 95.227 9.84375 97.9453 9.84375H111.234C113.948 9.84375 116.156 12.0517 116.156 14.7656V28.0547C116.156 30.773 118.36 32.9766 121.078 32.9766C123.796 32.9766 126 30.773 126 28.0547V28.0547Z" fill="#C2C2C2"/>
</g>
<defs>
<clipPath id="clip0">
<rect width="126" height="126" fill="white"/>
</clipPath>
</defs>
</svg>
