<svg width="146" height="130" viewBox="0 0 146 130" fill="none" xmlns="http://www.w3.org/2000/svg">
<path d="M118.824 6.23079C119.923 6.09395 121.119 5.84395 122.155 6.38605C123.361 6.87289 124.183 8.0571 124.387 9.32553C124.717 12.0334 125.01 14.7466 125.284 17.4597L125.305 17.6545C125.515 19.3597 125.721 21.0676 125.85 22.7808C124.107 23.0334 122.354 23.2018 120.603 23.3782C119.887 23.5413 119.149 23.5518 118.416 23.5834C118.361 23.0624 118.298 22.5413 118.233 22.0229C118.149 21.1045 118.039 20.1861 117.867 19.2782C111.064 27.0966 103.28 34.0308 94.8782 40.0703C88.1329 44.9282 80.9768 49.2018 73.5486 52.915C72.1278 53.5676 70.7594 54.3308 69.3177 54.944C68.1743 55.4571 67.0466 56.0018 65.8954 56.494C64.404 57.0913 62.9466 57.7729 61.4526 58.3597C61.1804 58.4676 60.9083 58.5755 60.6388 58.6834C58.2683 59.6018 55.8847 60.4834 53.4775 61.3071C52.7423 61.5782 51.9966 61.8282 51.2509 62.0676C50.984 62.1492 50.7171 62.2282 50.4502 62.3018C48.705 62.8308 46.9834 63.4282 45.2225 63.8966C44.8169 64.0176 44.4061 64.115 44.0032 64.2334C41.5594 64.8624 39.1313 65.5571 36.6587 66.0624C35.5964 66.2834 34.5394 66.515 33.4745 66.7203C33.184 64.9729 32.7785 63.2518 32.4279 61.5176C32.2761 60.7939 32.1296 60.0676 31.9909 59.3387C32.9407 59.115 33.8957 58.8992 34.856 58.7097C35.2798 58.6097 35.7089 58.5282 36.1407 58.4545C36.5488 58.3334 36.9622 58.2334 37.373 58.115C37.6687 58.0518 37.9617 57.9834 38.2574 57.9124C40.2485 57.3966 42.2292 56.844 44.2099 56.2887C45.2774 55.9729 46.3266 55.6045 47.3863 55.2597C47.6532 55.1755 47.9201 55.0913 48.187 55.0097C48.4512 54.9255 48.7155 54.8466 48.9824 54.7729C50.4712 54.2729 51.9364 53.7097 53.4147 53.1861C53.747 53.0808 54.0584 52.9255 54.3907 52.8255C55.6544 52.3861 56.8737 51.8334 58.1192 51.3466C58.4488 51.2387 58.755 51.0703 59.0899 50.9703C61.7587 49.8439 64.3987 48.6545 67.0178 47.4124C67.8106 47.0466 68.5825 46.6387 69.3596 46.2334C73.1273 44.3913 76.7956 42.344 80.3959 40.1913C91.9529 33.1992 102.798 24.8597 111.851 14.7624C110.472 14.7755 109.107 14.9703 107.743 15.1545C107.623 14.1755 107.479 13.2018 107.382 12.2229C107.22 10.6861 106.993 9.15447 106.885 7.61237C108.343 7.49395 109.784 7.23868 111.242 7.13605C113.764 6.80974 116.302 6.59132 118.824 6.23079Z" fill="#C2C2C2"/>
<path d="M106.121 53.9334C106.04 51.965 107.678 50.1308 109.648 50.0782C115.664 50.0571 121.681 50.0834 127.697 50.065C128.521 50.0282 129.311 50.315 130.018 50.7203C130.986 51.4887 131.671 52.6676 131.614 53.9387C131.621 75.5966 131.611 97.2545 131.619 118.912C131.603 119.841 131.71 120.828 131.281 121.691C130.693 123.086 129.199 123.994 127.705 123.936C121.768 123.933 115.828 123.941 109.892 123.931C108.12 123.962 106.459 122.594 106.176 120.826C106.045 115.37 106.163 109.91 106.126 104.452C106.119 87.6124 106.129 70.7729 106.121 53.9334ZM113.612 75.7808C113.646 89.315 113.552 102.852 113.659 116.386C117.137 116.383 120.614 116.397 124.091 116.378C124.104 96.7966 124.094 77.215 124.096 57.6334C120.624 57.5755 117.15 57.6334 113.678 57.5992C113.518 63.6571 113.67 69.7203 113.612 75.7808Z" fill="#C2C2C2"/>
<path d="M17.6656 61.4545C20.1775 61.2255 22.6684 60.815 25.1802 60.5729C25.4837 62.7571 25.9102 64.9229 26.13 67.1176C26.2032 67.4045 26.266 67.6939 26.3184 67.9887C25.4602 68.0939 24.6046 68.215 23.749 68.336C21.9829 68.5966 20.2063 68.8229 18.4218 68.9281C18.1183 66.4439 17.9299 63.9439 17.6656 61.4545Z" fill="#C2C2C2"/>
<path d="M78.1536 63.0886C79.1845 62.6992 80.2965 62.8386 81.3719 62.8176C86.8874 62.8439 92.4056 62.7729 97.9211 62.8413C98.0127 62.8623 98.1932 62.9044 98.2822 62.9255C99.6114 63.3018 100.739 64.3492 101.137 65.6886C101.241 81.3308 101.155 96.9755 101.181 112.618C101.152 115.57 101.27 118.531 101.053 121.475C100.386 122.891 98.9625 124.015 97.3507 123.933C91.4113 123.936 85.4719 123.939 79.5325 123.933C77.5701 124.007 75.6601 122.275 75.7333 120.262C75.7229 102.712 75.7359 85.1597 75.7281 67.6071C75.7464 66.7229 75.6339 65.786 76.0656 64.9755C76.5418 64.1439 77.2875 63.486 78.1536 63.0886ZM83.2819 111.833C83.261 112.357 83.3552 112.912 83.1328 113.41C83.4284 114.365 83.2374 115.394 83.2688 116.381C86.7304 116.399 90.192 116.368 93.6536 116.402C93.7164 116.118 93.774 115.825 93.7871 115.536C93.7845 101.402 93.7871 87.2676 93.7871 73.1308C93.7766 72.2202 93.8734 71.2939 93.6589 70.3992C90.1973 70.4544 86.7304 70.3623 83.2688 70.4492C83.2924 84.2439 83.2662 98.0386 83.2819 111.833Z" fill="#C2C2C2"/>
<path d="M48.5114 75.9255C54.7255 75.9019 60.9397 75.8755 67.1539 75.9282C68.5615 76.0703 69.9169 77.0598 70.3407 78.444C70.5605 79.0124 70.5265 79.6361 70.5396 80.2361C70.5317 92.344 70.5396 104.452 70.5344 116.56C70.5239 118.07 70.571 119.583 70.4873 121.094C69.9875 122.72 68.449 124.002 66.7169 123.933C60.7853 123.939 54.8511 123.936 48.9196 123.933C46.9389 124.026 45.0236 122.276 45.0707 120.257C45.0629 106.741 45.0707 93.2255 45.0681 79.7098C44.9608 77.7861 46.6249 76.0387 48.5114 75.9255ZM52.5382 83.5019C52.5408 94.4598 52.5355 105.418 52.5408 116.376C56.0155 116.394 59.4928 116.378 62.9675 116.381C63.0067 105.412 62.9701 94.4466 62.9832 83.4782C59.5006 83.4834 56.0181 83.4676 52.5382 83.5019Z" fill="#C2C2C2"/>
<path d="M14.3976 92.3702C14.2694 90.2676 16.1952 88.2571 18.3119 88.4624C24.3298 88.4755 30.3477 88.4545 36.363 88.4702C38.1187 88.4755 39.6127 89.9781 39.8718 91.6834C39.9241 100.507 39.8613 109.331 39.8979 118.154C39.8979 119.173 39.9267 120.202 39.7854 121.215C39.2804 122.776 37.7786 123.965 36.1249 123.931C30.2745 123.944 24.4214 123.928 18.5709 123.939C16.3679 124.181 14.2537 122.252 14.3976 120.002C14.3976 110.791 14.3976 101.581 14.3976 92.3702ZM21.9253 95.9703C21.9279 96.5492 21.886 97.1334 21.9619 97.7124C21.8572 103.933 21.9384 110.157 21.9227 116.378C25.4 116.365 28.8799 116.441 32.3572 116.341C32.3284 109.549 32.3651 102.757 32.3389 95.9624C28.8668 95.9676 25.3947 95.9571 21.9253 95.9703Z" fill="#C2C2C2"/>
</svg>
