<svg xmlns="http://www.w3.org/2000/svg" width="24" height="25" fill="none" viewBox="0 0 24 25">
    <path fill="#fff" d="M19.971 4L18.37 22.892H6.63L5.029 4 3 4.184l1.63 19.234c.086.887.83 1.582 1.692 1.582h12.355c.863 0 1.607-.695 1.694-1.594L22 4.184 19.971 4z"/>
    <path fill="#fff" d="M16.281 0H8.72C7.77 0 7 .773 7 1.724V5h2.062V2.069h6.876V5H18V1.724C18 .774 17.23 0 16.281 0z"/>
    <path fill="#fff" d="M22.971 4H1.03C.46 4 0 4.448 0 5s.46 1 1.029 1H22.97C23.54 6 24 5.552 24 5s-.46-1-1.029-1z"/>
</svg>
