<svg xmlns="http://www.w3.org/2000/svg" width="22" height="22" fill="none" viewBox="0 0 22 22">
    <path fill="#58C25D" d="M18.563 0h-3.266c-1.896 0-3.438 1.542-3.438 3.438v3.265c0 1.896 1.542 3.438 3.438 3.438h3.265C20.459 10.14 22 8.599 22 6.703V3.437C22 1.542 20.458 0 18.562 0zm1.718 6.703c0 .948-.77 1.719-1.718 1.719h-3.266c-.948 0-1.719-.771-1.719-1.719V3.437c0-.947.771-1.718 1.719-1.718h3.265c.948 0 1.72.77 1.72 1.718v3.266zM6.703 0H3.437C1.542 0 0 1.542 0 3.438v3.265c0 1.896 1.542 3.438 3.438 3.438h3.265c1.896 0 3.438-1.542 3.438-3.438V3.437C10.14 1.542 8.599 0 6.703 0zm1.719 6.703c0 .948-.771 1.719-1.719 1.719H3.437c-.947 0-1.718-.771-1.718-1.719V3.437c0-.947.77-1.718 1.718-1.718h3.266c.948 0 1.719.77 1.719 1.718v3.266zM6.703 11.86H3.437C1.542 11.86 0 13.4 0 15.296v3.265C0 20.459 1.542 22 3.438 22h3.265c1.896 0 3.438-1.542 3.438-3.438v-3.265c0-1.896-1.542-3.438-3.438-3.438zm1.719 6.703c0 .947-.771 1.718-1.719 1.718H3.437c-.947 0-1.718-.77-1.718-1.718v-3.266c0-.948.77-1.719 1.718-1.719h3.266c.948 0 1.719.771 1.719 1.719v3.265zM21.14 17.703c-.474 0-.859.385-.859.86 0 .947-.77 1.718-1.718 1.718h-3.266c-.948 0-1.719-.77-1.719-1.718v-3.266c0-.948.771-1.719 1.719-1.719h3.265c.684 0 1.302.405 1.576 1.031.19.435.697.633 1.132.443.435-.19.633-.697.443-1.131-.547-1.253-1.784-2.062-3.15-2.062h-3.266c-1.896 0-3.438 1.542-3.438 3.438v3.265c0 1.896 1.542 3.438 3.438 3.438h3.265C20.459 22 22 20.458 22 18.562c0-.474-.385-.859-.86-.859z"/>
</svg>
