<?xml version="1.0" encoding="UTF-8"?>
<!DOCTYPE svg PUBLIC "-//W3C//DTD SVG 1.1//EN" "http://www.w3.org/Graphics/SVG/1.1/DTD/svg11.dtd">
<svg version="1.2" width="21.96mm" height="21.96mm" viewBox="0 0 2196 2196" preserveAspectRatio="xMidYMid" fill-rule="evenodd" stroke-width="28.222" stroke-linejoin="round" xmlns="http://www.w3.org/2000/svg" xmlns:ooo="http://xml.openoffice.org/svg/export" xmlns:xlink="http://www.w3.org/1999/xlink" xmlns:presentation="http://sun.com/xmlns/staroffice/presentation" xmlns:smil="http://www.w3.org/2001/SMIL20/" xmlns:anim="urn:oasis:names:tc:opendocument:xmlns:animation:1.0" xml:space="preserve">
 <defs class="ClipPathGroup">
  <clipPath id="presentation_clip_path" clipPathUnits="userSpaceOnUse">
   <rect x="0" y="0" width="2196" height="2196"/>
  </clipPath>
  <clipPath id="presentation_clip_path_shrink" clipPathUnits="userSpaceOnUse">
   <rect x="2" y="2" width="2192" height="2192"/>
  </clipPath>
 </defs>
 <defs class="TextShapeIndex">
  <g ooo:slide="id1" ooo:id-list="id3 id4 id5 id6 id7 id8"/>
 </defs>
 <defs class="EmbeddedBulletChars">
  <g id="bullet-char-template-57356" transform="scale(0.00048828125,-0.00048828125)">
   <path d="M 580,1141 L 1163,571 580,0 -4,571 580,1141 Z"/>
  </g>
  <g id="bullet-char-template-57354" transform="scale(0.00048828125,-0.00048828125)">
   <path d="M 8,1128 L 1137,1128 1137,0 8,0 8,1128 Z"/>
  </g>
  <g id="bullet-char-template-10146" transform="scale(0.00048828125,-0.00048828125)">
   <path d="M 174,0 L 602,739 174,1481 1456,739 174,0 Z M 1358,739 L 309,1346 659,739 1358,739 Z"/>
  </g>
  <g id="bullet-char-template-10132" transform="scale(0.00048828125,-0.00048828125)">
   <path d="M 2015,739 L 1276,0 717,0 1260,543 174,543 174,936 1260,936 717,1481 1274,1481 2015,739 Z"/>
  </g>
  <g id="bullet-char-template-10007" transform="scale(0.00048828125,-0.00048828125)">
   <path d="M 0,-2 C -7,14 -16,27 -25,37 L 356,567 C 262,823 215,952 215,954 215,979 228,992 255,992 264,992 276,990 289,987 310,991 331,999 354,1012 L 381,999 492,748 772,1049 836,1024 860,1049 C 881,1039 901,1025 922,1006 886,937 835,863 770,784 769,783 710,716 594,584 L 774,223 C 774,196 753,168 711,139 L 727,119 C 717,90 699,76 672,76 641,76 570,178 457,381 L 164,-76 C 142,-110 111,-127 72,-127 30,-127 9,-110 8,-76 1,-67 -2,-52 -2,-32 -2,-23 -1,-13 0,-2 Z"/>
  </g>
  <g id="bullet-char-template-10004" transform="scale(0.00048828125,-0.00048828125)">
   <path d="M 285,-33 C 182,-33 111,30 74,156 52,228 41,333 41,471 41,549 55,616 82,672 116,743 169,778 240,778 293,778 328,747 346,684 L 369,508 C 377,444 397,411 428,410 L 1163,1116 C 1174,1127 1196,1133 1229,1133 1271,1133 1292,1118 1292,1087 L 1292,965 C 1292,929 1282,901 1262,881 L 442,47 C 390,-6 338,-33 285,-33 Z"/>
  </g>
  <g id="bullet-char-template-9679" transform="scale(0.00048828125,-0.00048828125)">
   <path d="M 813,0 C 632,0 489,54 383,161 276,268 223,411 223,592 223,773 276,916 383,1023 489,1130 632,1184 813,1184 992,1184 1136,1130 1245,1023 1353,916 1407,772 1407,592 1407,412 1353,268 1245,161 1136,54 992,0 813,0 Z"/>
  </g>
  <g id="bullet-char-template-8226" transform="scale(0.00048828125,-0.00048828125)">
   <path d="M 346,457 C 273,457 209,483 155,535 101,586 74,649 74,723 74,796 101,859 155,911 209,963 273,989 346,989 419,989 480,963 531,910 582,859 608,796 608,723 608,648 583,586 532,535 482,483 420,457 346,457 Z"/>
  </g>
  <g id="bullet-char-template-8211" transform="scale(0.00048828125,-0.00048828125)">
   <path d="M -4,459 L 1135,459 1135,606 -4,606 -4,459 Z"/>
  </g>
  <g id="bullet-char-template-61548" transform="scale(0.00048828125,-0.00048828125)">
   <path d="M 173,740 C 173,903 231,1043 346,1159 462,1274 601,1332 765,1332 928,1332 1067,1274 1183,1159 1299,1043 1357,903 1357,740 1357,577 1299,437 1183,322 1067,206 928,148 765,148 601,148 462,206 346,322 231,437 173,577 173,740 Z"/>
  </g>
 </defs>
 <g>
  <g id="id2" class="Master_Slide">
   <g id="bg-id2" class="Background"/>
   <g id="bo-id2" class="BackgroundObjects"/>
  </g>
 </g>
 <g class="SlideGroup">
  <g>
   <g id="container-id1">
    <g id="id1" class="Slide" clip-path="url(#presentation_clip_path)">
     <g class="Page">
      <g class="com.sun.star.drawing.ClosedBezierShape">
       <g id="id3">
        <rect class="BoundingBox" stroke="none" fill="none" x="1668" y="398" width="383" height="1785"/>
        <path fill="rgb(193,193,193)" stroke="none" d="M 1668,589 L 1668,1732 C 1668,1739 1670,1746 1671,1752 L 1799,2137 C 1807,2163 1831,2181 1859,2181 1886,2181 1911,2163 1919,2137 L 2046,1752 C 2048,1746 2049,1739 2049,1732 2049,1676 2049,687 2049,589 2049,484 1964,399 1859,399 1754,399 1668,484 1668,589 Z M 1922,1668 L 1795,1668 1795,780 1922,780 1922,1668 Z M 1820,1795 L 1898,1795 1859,1914 1820,1795 Z M 1922,589 L 1922,653 1795,653 1795,589 C 1795,554 1824,526 1859,526 1894,526 1922,554 1922,589 Z"/>
       </g>
      </g>
      <g class="com.sun.star.drawing.ClosedBezierShape">
       <g id="id4">
        <rect class="BoundingBox" stroke="none" fill="none" x="144" y="12" width="1399" height="2171"/>
        <path fill="rgb(193,193,193)" stroke="none" d="M 145,2117 C 145,2152 173,2181 208,2181 L 1478,2181 C 1513,2181 1541,2152 1541,2117 L 1541,204 C 1541,169 1513,140 1478,140 L 1287,140 1287,77 C 1287,42 1259,13 1224,13 1188,13 1160,42 1160,77 L 1160,140 1034,140 1034,77 C 1034,42 1006,13 970,13 935,13 907,42 907,77 L 907,140 780,140 780,77 C 780,42 751,13 716,13 681,13 653,42 653,77 L 653,140 526,140 526,77 C 526,42 497,13 462,13 427,13 399,42 399,77 L 399,140 208,140 C 173,140 145,169 145,204 L 145,2117 Z M 272,2054 L 272,649 1414,649 1414,2054 272,2054 Z M 399,267 L 399,331 C 399,366 427,394 462,394 497,394 526,366 526,331 L 526,267 653,267 653,331 C 653,366 681,394 716,394 751,394 780,366 780,331 L 780,267 907,267 907,331 C 907,366 935,394 970,394 1006,394 1034,366 1034,331 L 1034,267 1160,267 1160,331 C 1160,366 1188,394 1224,394 1259,394 1287,366 1287,331 L 1287,267 1414,267 1414,521 272,521 272,267 399,267 Z"/>
       </g>
      </g>
      <g class="com.sun.star.drawing.ClosedBezierShape">
       <g id="id5">
        <rect class="BoundingBox" stroke="none" fill="none" x="652" y="906" width="637" height="129"/>
        <path fill="rgb(193,193,193)" stroke="none" d="M 1224,907 L 716,907 C 681,907 653,935 653,970 653,1006 681,1034 716,1034 L 1224,1034 C 1259,1034 1287,1006 1287,970 1287,935 1259,907 1224,907 Z"/>
       </g>
      </g>
      <g class="com.sun.star.drawing.ClosedBezierShape">
       <g id="id6">
        <rect class="BoundingBox" stroke="none" fill="none" x="398" y="1160" width="891" height="129"/>
        <path fill="rgb(193,193,193)" stroke="none" d="M 1224,1160 L 462,1160 C 427,1160 399,1188 399,1224 399,1259 427,1287 462,1287 L 1224,1287 C 1259,1287 1287,1259 1287,1224 1287,1188 1259,1160 1224,1160 Z"/>
       </g>
      </g>
      <g class="com.sun.star.drawing.ClosedBezierShape">
       <g id="id7">
        <rect class="BoundingBox" stroke="none" fill="none" x="398" y="1414" width="891" height="129"/>
        <path fill="rgb(193,193,193)" stroke="none" d="M 1224,1414 L 462,1414 C 427,1414 399,1443 399,1478 399,1513 427,1541 462,1541 L 1224,1541 C 1259,1541 1287,1513 1287,1478 1287,1443 1259,1414 1224,1414 Z"/>
       </g>
      </g>
      <g class="com.sun.star.drawing.ClosedBezierShape">
       <g id="id8">
        <rect class="BoundingBox" stroke="none" fill="none" x="398" y="1668" width="637" height="129"/>
        <path fill="rgb(193,193,193)" stroke="none" d="M 970,1668 L 462,1668 C 427,1668 399,1697 399,1732 399,1767 427,1795 462,1795 L 970,1795 C 1006,1795 1034,1767 1034,1732 1034,1697 1006,1668 970,1668 Z"/>
       </g>
      </g>
     </g>
    </g>
   </g>
  </g>
 </g>
</svg>