<svg width="82" height="82" viewBox="0 0 82 82" fill="none" xmlns="http://www.w3.org/2000/svg">
<path d="M62.6211 21.7812V65.0234C62.6211 65.2808 62.6741 65.5723 62.7419 65.7755L67.5465 80.3498C67.8712 81.3347 68.7911 82 69.8281 82C70.8651 82 71.7851 81.3347 72.1097 80.3498L76.9144 65.7755C76.9849 65.564 77.0352 65.2781 77.0352 65.0234C77.0352 62.928 77.0352 25.4695 77.0352 21.7812C77.0352 17.8073 73.8021 14.5742 69.8281 14.5742C65.8542 14.5742 62.6211 17.8073 62.6211 21.7812ZM72.2305 62.6211H67.4258V28.9883H72.2305V62.6211ZM68.3449 67.4258H71.3112L69.8281 71.9247L68.3449 67.4258ZM72.2305 21.7812V24.1836H67.4258V21.7812C67.4258 20.4566 68.5035 19.3789 69.8281 19.3789C71.1528 19.3789 72.2305 20.4566 72.2305 21.7812Z" fill="white"/>
<path d="M4.96484 79.5977C4.96484 80.9244 6.04045 82 7.36719 82H55.4141C56.7408 82 57.8164 80.9244 57.8164 79.5977V7.20703C57.8164 5.8803 56.7408 4.80469 55.4141 4.80469H48.207V2.40234C48.207 1.07561 47.1314 0 45.8047 0C44.478 0 43.4023 1.07561 43.4023 2.40234V4.80469H38.5977V2.40234C38.5977 1.07561 37.522 0 36.1953 0C34.8686 0 33.793 1.07561 33.793 2.40234V4.80469H28.9883V2.40234C28.9883 1.07561 27.9127 0 26.5859 0C25.2592 0 24.1836 1.07561 24.1836 2.40234V4.80469H19.3789V2.40234C19.3789 1.07561 18.3033 0 16.9766 0C15.6498 0 14.5742 1.07561 14.5742 2.40234V4.80469H7.36719C6.04045 4.80469 4.96484 5.8803 4.96484 7.20703V79.5977ZM9.76953 77.1953V24.0234H53.0117V77.1953H9.76953ZM14.5742 9.60938V12.0117C14.5742 13.3385 15.6498 14.4141 16.9766 14.4141C18.3033 14.4141 19.3789 13.3385 19.3789 12.0117V9.60938H24.1836V12.0117C24.1836 13.3385 25.2592 14.4141 26.5859 14.4141C27.9127 14.4141 28.9883 13.3385 28.9883 12.0117V9.60938H33.793V12.0117C33.793 13.3385 34.8686 14.4141 36.1953 14.4141C37.522 14.4141 38.5977 13.3385 38.5977 12.0117V9.60938H43.4023V12.0117C43.4023 13.3385 44.478 14.4141 45.8047 14.4141C47.1314 14.4141 48.207 13.3385 48.207 12.0117V9.60938H53.0117V19.2188H9.76953V9.60938H14.5742Z" fill="white"/>
<path d="M45.8047 33.793H26.5859C25.2592 33.793 24.1836 34.8686 24.1836 36.1953C24.1836 37.522 25.2592 38.5977 26.5859 38.5977H45.8047C47.1314 38.5977 48.207 37.522 48.207 36.1953C48.207 34.8686 47.1314 33.793 45.8047 33.793Z" fill="white"/>
<path d="M45.8047 43.4023H16.9766C15.6498 43.4023 14.5742 44.478 14.5742 45.8047C14.5742 47.1314 15.6498 48.207 16.9766 48.207H45.8047C47.1314 48.207 48.207 47.1314 48.207 45.8047C48.207 44.478 47.1314 43.4023 45.8047 43.4023Z" fill="white"/>
<path d="M45.8047 53.0117H16.9766C15.6498 53.0117 14.5742 54.0873 14.5742 55.4141C14.5742 56.7408 15.6498 57.8164 16.9766 57.8164H45.8047C47.1314 57.8164 48.207 56.7408 48.207 55.4141C48.207 54.0873 47.1314 53.0117 45.8047 53.0117Z" fill="white"/>
<path d="M36.1953 62.6211H16.9766C15.6498 62.6211 14.5742 63.6967 14.5742 65.0234C14.5742 66.3502 15.6498 67.4258 16.9766 67.4258H36.1953C37.522 67.4258 38.5977 66.3502 38.5977 65.0234C38.5977 63.6967 37.522 62.6211 36.1953 62.6211Z" fill="white"/>
</svg>
