<svg xmlns="http://www.w3.org/2000/svg" width="87" height="87" fill="none" viewBox="0 0 87 87">
    <g clip-path="url(#clip0)">
        <path fill="#fff" d="M87 35.684c0 6.196-1.613 12.302-4.667 17.656-.93 1.63-3.005 2.198-4.636 1.268-1.63-.93-2.198-3.005-1.268-4.636 2.47-4.33 3.775-9.27 3.775-14.288 0-15.929-12.959-28.887-28.887-28.887S22.43 19.755 22.43 35.684c0 15.928 12.959 28.886 28.887 28.886 4.957 0 9.846-1.275 14.137-3.689 1.636-.92 3.708-.339 4.628 1.297.92 1.636.34 3.708-1.296 4.627-5.306 2.985-11.347 4.562-17.469 4.562-8.577 0-16.456-3.043-22.617-8.104L5.794 86.013C5.132 86.671 4.265 87 3.4 87c-.873 0-1.747-.335-2.411-1.004-1.322-1.331-1.315-3.483.016-4.806L23.88 58.471c-5.147-6.185-8.246-14.13-8.246-22.787C15.634 16.008 31.642 0 51.317 0c19.676 0 35.684 16.008 35.684 35.684zm-12.852-1.445c.824 1.172.824 2.736.001 3.908-.12.17-.53.75-.784 1.071-1.138 1.43-3.802 4.782-7.51 7.74-4.753 3.794-9.644 5.718-14.538 5.718-4.893 0-9.784-1.924-14.537-5.717-3.708-2.959-6.373-6.31-7.51-7.74-.255-.322-.665-.902-.785-1.072-.823-1.172-.823-2.736.001-3.908.12-.17.529-.75.784-1.07 1.137-1.431 3.802-4.783 7.51-7.741 4.752-3.794 9.644-5.717 14.537-5.717 4.894 0 9.785 1.924 14.539 5.717 3.707 2.958 6.37 6.31 7.509 7.741.255.32.664.9.784 1.07zm-7.088 1.954c-5.404-6.428-10.695-9.685-15.743-9.685-5.047 0-10.338 3.257-15.741 9.685 5.403 6.429 10.694 9.686 15.741 9.686 5.048 0 10.338-3.256 15.743-9.686zm-15.573-6.457c-3.566 0-6.457 2.891-6.457 6.457 0 3.567 2.89 6.457 6.457 6.457 3.566 0 6.457-2.89 6.457-6.457 0-3.566-2.89-6.457-6.457-6.457z"/>
    </g>
    <defs>
        <clipPath id="clip0">
            <path fill="#fff" d="M0 0H87V87H0z"/>
        </clipPath>
    </defs>
</svg>
