<svg xmlns="http://www.w3.org/2000/svg" width="38" height="38" fill="none" viewBox="0 0 38 38">
    <g clip-path="url(#clip0)" opacity=".5">
        <path fill="#C1C1C1" d="M19.011 33.32c-4.617 0-8.858-1.66-12.604-4.936-3.048-2.666-5.002-5.781-5.895-7.4-.688-1.247-.682-2.733.015-3.975.909-1.617 2.888-4.728 5.94-7.393 3.757-3.278 7.977-4.94 12.544-4.94 4.57 0 8.788 1.663 12.539 4.944 3.048 2.666 5.021 5.777 5.926 7.395.693 1.238.7 2.72.016 3.963-.413.75-1.104 1.916-2.054 3.205-.486.66-1.415.8-2.075.314-.66-.487-.8-1.416-.314-2.076.853-1.157 1.472-2.2 1.841-2.873.187-.34.185-.745-.004-1.084-1.82-3.253-7.01-10.82-15.875-10.82-8.863 0-14.069 7.566-15.896 10.818-.19.34-.192.747-.004 1.087 1.791 3.248 6.927 10.802 15.9 10.802 3.304 0 6.407-1.032 9.222-3.07.664-.48 1.592-.33 2.073.333.48.665.331 1.592-.333 2.073-3.332 2.41-7.02 3.633-10.962 3.633zm8.746-14.322c0-4.828-3.929-8.756-8.757-8.756-4.828 0-8.756 3.928-8.756 8.756s3.928 8.756 8.756 8.756 8.757-3.928 8.757-8.756zm-2.969 0c0 3.191-2.596 5.788-5.788 5.788-3.191 0-5.788-2.597-5.788-5.788 0-3.191 2.597-5.788 5.788-5.788 3.192 0 5.788 2.597 5.788 5.788zm-4.123.403c-1.138-.076-2.046-1.028-2.072-2.168v-.029c-.008-.647-.725-1.026-1.26-.661-.845.575-1.378 1.573-1.292 2.69.111 1.445 1.28 2.613 2.725 2.724 1.116.086 2.115-.447 2.69-1.29.363-.536-.014-1.254-.662-1.261-.042 0-.086-.002-.129-.005z"/>
    </g>
    <defs>
        <clipPath id="clip0">
            <path fill="#fff" d="M0 0H38V38H0z"/>
        </clipPath>
    </defs>
</svg>
