<svg width="98" height="98" viewBox="0 0 98 98" fill="none" xmlns="http://www.w3.org/2000/svg">
<g clip-path="url(#clip0)">
<path d="M61.0637 7.83069V3.8095C61.2659 -1.27175 68.5226 -1.26792 68.7231 3.8095V7.83069C68.5207 12.9119 61.264 12.9079 61.0637 7.83069ZM26.0219 11.6604C28.137 11.6604 29.8516 9.94583 29.8516 7.83069V3.8095C29.6494 -1.27175 22.3927 -1.26792 22.1922 3.8095V7.83069C22.1922 9.94564 23.9067 11.6604 26.0219 11.6604ZM26.4049 86.3396C24.2897 86.3396 22.5752 88.0542 22.5752 90.1693V94.1905C22.7774 99.2717 30.0341 99.2679 30.2346 94.1905V90.1693C30.2346 88.0542 28.5198 86.3396 26.4049 86.3396ZM65.2763 86.3396C63.1612 86.3396 61.4466 88.0542 61.4466 90.1693V94.1905C61.6489 99.2717 68.9056 99.2679 69.1061 94.1905V90.1693C69.1061 88.0542 67.3913 86.3396 65.2763 86.3396ZM90.7439 49C90.7439 51.1151 89.0293 52.8297 86.9142 52.8297H84.0419V59.5317C84.0419 72.2019 73.7339 82.5099 61.0637 82.5099H30.2346C17.5644 82.5099 7.25635 72.2019 7.25635 59.5317V38.4683C7.25635 25.7981 17.5644 15.4901 30.2346 15.4901H61.0637C73.7339 15.4901 84.0419 25.7981 84.0419 38.4683V45.1703H86.9142C89.0291 45.1703 90.7439 46.8848 90.7439 49ZM76.3825 38.4683C76.3825 30.0215 69.5105 23.1495 61.0637 23.1495H30.2346C21.7878 23.1495 14.9158 30.0215 14.9158 38.4683V59.5317C14.9158 67.9785 21.7878 74.8505 30.2346 74.8505H61.0637C69.5105 74.8505 76.3825 67.9785 76.3825 59.5317V38.4683ZM63.1438 55.3399C63.166 55.3154 63.188 55.2907 63.2098 55.2656L67.7892 49.9741C69.1735 48.3748 68.9988 45.9561 67.3995 44.5721C65.8003 43.188 63.3818 43.3625 61.9976 44.9618L57.4555 50.21C55.8597 51.9282 53.1887 52.1691 51.2987 50.7816C51.2987 50.7816 45.625 45.5404 45.5409 45.4749C40.8562 41.818 34.2318 42.0259 29.7897 45.9692C29.7501 46.0044 23.7457 51.7972 23.7457 51.7972C20.2299 55.4712 25.2713 60.69 29.0642 57.3087L34.9256 51.6526C36.5691 50.236 38.9736 50.1474 40.7191 51.4303C40.7191 51.4303 46.3932 56.6717 46.4773 56.7373C48.7064 58.4774 51.3807 59.3279 54.0429 59.3279C57.4025 59.3279 60.7429 57.973 63.1438 55.3399V55.3399Z" fill="white"/>
</g>
<defs>
<clipPath id="clip0">
<rect width="98" height="98" fill="white"/>
</clipPath>
</defs>
</svg>
