<?xml version="1.0" encoding="utf-8"?>
<!-- Generator: Adobe Illustrator 16.0.0, SVG Export Plug-In . SVG Version: 6.00 Build 0)  -->
<!DOCTYPE svg PUBLIC "-//W3C//DTD SVG 1.1//EN" "http://www.w3.org/Graphics/SVG/1.1/DTD/svg11.dtd">
<svg version="1.1" id="Capa_1" xmlns="http://www.w3.org/2000/svg" xmlns:xlink="http://www.w3.org/1999/xlink" x="0px" y="0px"
	 width="98px" height="98px" viewBox="0 0 98 98" enable-background="new 0 0 98 98" xml:space="preserve">
<g>
	<defs>
		<rect id="SVGID_1_" width="98" height="98"/>
	</defs>
	<clipPath id="SVGID_2_">
		<use xlink:href="#SVGID_1_"  overflow="visible"/>
	</clipPath>
	<g clip-path="url(#SVGID_2_)">
		<path fill="#C1C1C1" d="M61.063,7.831V3.81c0.202-5.081,7.459-5.078,7.659,0v4.021C68.521,12.912,61.264,12.908,61.063,7.831z
			 M26.022,11.66c2.115,0,3.83-1.714,3.83-3.83V3.81c-0.202-5.081-7.459-5.078-7.659,0v4.021
			C22.192,9.946,23.907,11.66,26.022,11.66z M26.405,86.34c-2.115,0-3.83,1.715-3.83,3.83v4.021c0.202,5.081,7.459,5.077,7.659,0
			V90.17C30.234,88.055,28.52,86.34,26.405,86.34z M65.276,86.34c-2.115,0-3.829,1.715-3.829,3.83v4.021
			c0.201,5.081,7.459,5.077,7.658,0V90.17C69.105,88.055,67.391,86.34,65.276,86.34z M90.744,49c0,2.115-1.715,3.83-3.83,3.83
			h-2.872v6.701c0,12.671-10.308,22.979-22.979,22.979H30.234c-12.67,0-22.978-10.308-22.978-22.979V38.468
			c0-12.67,10.308-22.978,22.978-22.978h30.829c12.671,0,22.979,10.308,22.979,22.978v6.702h2.872
			C89.029,45.17,90.744,46.885,90.744,49z M76.383,38.468c0-8.447-6.873-15.319-15.319-15.319H30.234
			c-8.447,0-15.318,6.872-15.318,15.319v21.063c0,8.447,6.872,15.319,15.318,15.319h30.829c8.446,0,15.319-6.872,15.319-15.319
			V38.468z M63.145,55.34c0.021-0.024,0.043-0.049,0.065-0.074l4.579-5.291c1.385-1.6,1.21-4.019-0.39-5.402
			c-1.599-1.384-4.018-1.21-5.401,0.39l-4.543,5.248c-1.596,1.718-4.267,1.959-6.156,0.571c0,0-5.674-5.241-5.758-5.306
			c-4.685-3.657-11.309-3.449-15.751,0.494c-0.04,0.035-6.044,5.828-6.044,5.828c-3.516,3.674,1.526,8.893,5.318,5.512l5.862-5.656
			c1.643-1.416,4.048-1.505,5.793-0.223c0,0,5.674,5.242,5.758,5.308c2.229,1.74,4.904,2.591,7.566,2.591
			C57.402,59.328,60.742,57.973,63.145,55.34L63.145,55.34z"/>
	</g>
</g>
</svg>
