<svg xmlns="http://www.w3.org/2000/svg" width="24" height="24" fill="none" viewBox="0 0 24 24">
    <g fill="#676767" clip-path="url(#clip0)">
        <path d="M19.983 8.074C18.875 3.66 14.396.977 9.98 2.086c-3.45.866-5.956 3.849-6.214 7.397-2.45.404-4.11 2.718-3.705 5.169.359 2.178 2.246 3.773 4.454 3.764h8.244v-1.498H4.515c-1.656 0-2.998-1.342-2.998-2.998 0-1.656 1.342-2.998 2.998-2.998.414 0 .75-.335.75-.75-.004-3.724 3.012-6.747 6.737-6.75 3.225-.004 6 2.276 6.625 5.44.061.315.318.557.637.599 1.854.254 3.236 1.838 3.237 3.71H24c-.002-2.423-1.662-4.529-4.017-5.097z"/>
        <path d="M17.473 12.638l-2.997 2.998 1.056 1.056 1.724-1.716v7.187h1.499v-7.187l1.716 1.716 1.057-1.056-2.998-2.998c-.292-.29-.764-.29-1.057 0z"/>
    </g>
    <defs>
        <clipPath id="clip0">
            <path fill="#fff" d="M0 0H24V24H0z"/>
        </clipPath>
    </defs>
</svg>
