<svg xmlns="http://www.w3.org/2000/svg" width="119" height="42" fill="none" viewBox="0 0 119 42">
    <path fill="#fff" d="M63.92 13.453H56.7V32.49h-2.903V13.453H46.64V10.89h17.28v2.563z"/>
    <path fill="#fff" fill-rule="evenodd" d="M79 32.49h3.28l-8.957-21.6h-3.13l-8.433 21.6h3.07l2.427-6.571h9.167L79 32.489zm-6.5-16.804c.229.633 1.242 3.288 3.04 7.963h-7.46l2.457-6.468c.47-1.238.843-2.583 1.124-4.037h.074c.28 1.06.534 1.908.764 2.542z" clip-rule="evenodd"/>
    <path fill="#fff" d="M95.048 17.696c-.118-1.396-.617-2.446-1.494-3.15-.878-.702-2.136-1.054-3.773-1.054-1.48 0-2.683.28-3.61.838-.927.559-1.39 1.372-1.39 2.439 0 .948.357 1.653 1.072 2.117.715.464 2.084.925 4.105 1.383 1.795.4 3.26.809 4.395 1.228 1.133.418 2.105 1.07 2.914 1.951.809.883 1.213 2.068 1.213 3.554 0 1.885-.743 3.451-2.227 4.698-1.485 1.247-3.42 1.87-5.807 1.87-3.047 0-5.329-.688-6.842-2.064-1.514-1.377-2.316-3.162-2.404-5.356l2.722-.24c.128 1.756.799 3.035 2.012 3.838 1.213.803 2.678 1.204 4.394 1.204 1.608 0 2.907-.334 3.898-1.002.992-.668 1.487-1.576 1.487-2.723 0-1.197-.517-2.07-1.553-2.618s-2.774-1.09-5.215-1.623c-2.441-.534-4.2-1.284-5.275-2.252-1.075-.968-1.612-2.224-1.612-3.77 0-1.756.68-3.207 2.041-4.354 1.361-1.147 3.215-1.72 5.563-1.72 2.406 0 4.343.571 5.807 1.713 1.465 1.142 2.242 2.765 2.33 4.87l-2.751.223z"/>
    <path fill="#fff" fill-rule="evenodd" d="M115.72 32.49H119l-8.957-21.6h-3.13l-8.433 21.6h3.071l2.426-6.571h9.167l2.576 6.57zm-6.501-16.804c.23.633 1.244 3.288 3.041 7.963h-7.459l2.456-6.468c.47-1.238.844-2.583 1.124-4.037h.075c.279 1.06.534 1.908.763 2.542z" clip-rule="evenodd"/>
    <path fill="#fff" d="M35.189 11.67s-1.133 9.023-7.448 14.629c-6.712 6.85-16.27 5.862-16.27 5.862l-7.127 7.483L6.5 31.326S.572 29.164 0 29.082c0 0 7.367.51 16.153-2.902 8.725-3.318 19.036-14.51 19.036-14.51z"/>
    <path fill="#5A97C3" d="M34.095 13.57s-1.108 6.332-7.207 12.299c-6.577 6.561-15.658 5.359-15.658 5.359L5.376 37.86l2.07-7.034s-4.413-1.342-4.985-1.425c0 0 10.013 1.737 22.849-7.334 4.34-2.994 8.785-8.498 8.785-8.498z"/>
    <path fill="#fff" d="M.163 14.4s8.818-3.73 16.679-1.17c9.127 2.236 13.086 10.67 13.086 10.67l10.231 2.308-8.238 2.505s1.24 6.133 1.44 6.685c0 0-7.081-12.72-19.028-16.718C9.676 16.456.163 14.4.163 14.4z"/>
    <path fill="#254373" d="M2.236 14.34s7.76-2.581 14.976.072c8.814 2.274 12.227 10.349 12.227 10.349l8.776 1.545-7.152 1.864s1.11 4.484 1.31 5.037c0 0-3.98-10.038-17.88-15.514C9.834 15.468 2.235 14.34 2.235 14.34z"/>
    <path fill="#fff" d="M19.891 41.219s-8.42-7.068-8.42-17.878c-.016-8.336 4.477-13.135 4.477-13.135L13.714 0l5.755 6.478s4.87-3.623 5.408-4.107c0 0-6.963 9.202-7.186 21.454-.376 6.346 2.2 17.394 2.2 17.394z"/>
    <path fill="#7D8B3C" d="M18.838 39.207s-6.184-6.4-6.507-15.866c-.015-8.335 4.626-12.854 4.626-12.854L14.59 1.828l4.733 5.648s3.442-2.797 3.98-3.281c0 0-6.393 7.379-6.615 19.63-.377 6.347 2.15 15.382 2.15 15.382z"/>
</svg>
