<svg xmlns="http://www.w3.org/2000/svg" width="21" height="22" fill="none" viewBox="0 0 21 22">
    <g fill="#FF6767" clip-path="url(#clip0)">
        <path d="M20.343 10.313h-8.312c-.362 0-.656-.309-.656-.688 0-.38.294-.688.656-.688h8.312c.363 0 .657.308.657.688 0 .38-.294.688-.657.688z"/>
        <path d="M17.062 13.75c-.168 0-.336-.067-.464-.201-.256-.269-.256-.704 0-.973l2.818-2.951-2.818-2.952c-.256-.269-.256-.704 0-.972.257-.27.672-.27.929 0l3.28 3.437c.257.268.257.704 0 .972l-3.28 3.438c-.129.135-.297.202-.465.202zM7 22.001c-.187 0-.365-.027-.543-.085l-5.265-1.838C.475 19.816 0 19.117 0 18.335v-16.5C0 .825.785.002 1.75.002c.187 0 .365.027.542.085l5.266 1.838c.717.262 1.192.962 1.192 1.743v16.5C8.75 21.179 7.965 22 7 22zM1.75 1.377c-.24 0-.438.206-.438.458v16.5c0 .195.126.376.304.441l5.241 1.83c.038.013.087.02.143.02.24 0 .437-.206.437-.458v-16.5c0-.195-.125-.376-.303-.441l-5.241-1.83c-.038-.013-.087-.02-.143-.02z"/>
        <path d="M13.343 7.334c-.362 0-.656-.308-.656-.687V2.522c0-.632-.49-1.146-1.093-1.146H1.75c-.362 0-.656-.308-.656-.688 0-.379.294-.687.656-.687h9.844C12.92.001 14 1.131 14 2.521v4.126c0 .38-.294.687-.657.687zM11.593 19.25h-3.5c-.362 0-.656-.308-.656-.687 0-.38.294-.688.656-.688h3.5c.603 0 1.094-.514 1.094-1.146v-4.124c0-.38.294-.688.656-.688.362 0 .656.308.656.688v4.124c0 1.39-1.078 2.521-2.406 2.521z"/>
    </g>
    <defs>
        <clipPath id="clip0">
            <path fill="#fff" d="M0 0H21V22H0z"/>
        </clipPath>
    </defs>
</svg>
