<svg xmlns="http://www.w3.org/2000/svg" width="27" height="22" fill="none" viewBox="0 0 27 22">
    <path fill="#fff" d="M25.482 8.923l.042.009H7.457l5.68-5.584c.278-.273.43-.642.43-1.03 0-.387-.152-.754-.43-1.027l-.884-.868C11.975.151 11.605 0 11.21 0c-.395 0-.766.15-1.044.422L.43 9.972C.151 10.247 0 10.611 0 11c-.001.39.151.754.43 1.028l9.736 9.55c.278.273.649.423 1.044.423s.765-.15 1.043-.422l.884-.868c.278-.272.43-.635.43-1.023 0-.387-.152-.732-.43-1.004l-5.744-5.615h18.11c.813 0 1.497-.688 1.497-1.486v-1.227c0-.798-.704-1.432-1.518-1.432z"/>
</svg>
