<?xml version="1.0" encoding="utf-8"?>
<!-- Generator: Adobe Illustrator 16.0.0, SVG Export Plug-In . SVG Version: 6.00 Build 0)  -->
<svg version="1.2" baseProfile="tiny" id="Capa_1" xmlns="http://www.w3.org/2000/svg" xmlns:xlink="http://www.w3.org/1999/xlink"
	 x="0px" y="0px" width="222px" height="222px" viewBox="0 0 222 222" xml:space="preserve">
<circle fill="#05BEEE" cx="111" cy="111" r="111"/>
<path fill="#FFFFFF" d="M107.186,149.914c0,1.705-1.382,3.086-3.086,3.086H90.521c-6.807,0-12.344-5.537-12.344-12.344V86.344
	C78.178,79.537,83.715,74,90.521,74h37.94c6.806,0,12.344,5.537,12.344,12.344v29.471c0,1.705-1.382,3.086-3.086,3.086
	c-1.705,0-3.086-1.381-3.086-3.086V86.344c0-3.402-2.771-6.172-6.172-6.172h-37.94c-3.402,0-6.172,2.77-6.172,6.172v54.313
	c0,3.402,2.77,6.172,6.172,6.172H104.1C105.804,146.828,107.186,148.21,107.186,149.914z M125.375,92.516H93.591
	c-1.705,0-3.086,1.381-3.086,3.086s1.381,3.086,3.086,3.086h31.784c1.705,0,3.087-1.381,3.087-3.086S127.08,92.516,125.375,92.516z
	 M128.462,107.945c0-1.704-1.382-3.086-3.087-3.086H93.591c-1.705,0-3.086,1.382-3.086,3.086c0,1.705,1.381,3.086,3.086,3.086
	h31.784C127.08,111.031,128.462,109.65,128.462,107.945L128.462,107.945z M93.591,117.203c-1.705,0-3.086,1.382-3.086,3.086
	c0,1.705,1.381,3.086,3.086,3.086h16.218c1.704,0,3.086-1.381,3.086-3.086c0-1.704-1.382-3.086-3.086-3.086H93.591z
	 M148.439,139.807c-0.109,0.155-0.48,0.682-0.712,0.973c-1.034,1.3-3.452,4.343-6.819,7.029c-4.314,3.444-8.756,5.191-13.199,5.191
	c-4.445,0-8.887-1.747-13.202-5.191c-3.366-2.687-5.786-5.729-6.819-7.029c-0.23-0.29-0.604-0.818-0.711-0.973
	c-0.748-1.063-0.748-2.483,0-3.548c0.108-0.153,0.48-0.681,0.711-0.972c1.033-1.301,3.453-4.344,6.819-7.03
	c4.315-3.444,8.757-5.19,13.2-5.19c4.445,0,8.887,1.746,13.203,5.19c3.365,2.687,5.785,5.729,6.817,7.03
	c0.231,0.291,0.604,0.818,0.712,0.972C149.188,137.324,149.188,138.743,148.439,139.807L148.439,139.807z M142.002,138.033
	c-4.907-5.838-9.711-8.795-14.295-8.795s-9.389,2.957-14.295,8.795c4.906,5.838,9.711,8.795,14.295,8.795
	S137.095,143.871,142.002,138.033z M127.861,132.17c-3.238,0-5.863,2.625-5.863,5.863s2.625,5.863,5.863,5.863
	s5.863-2.625,5.863-5.863S131.1,132.17,127.861,132.17z"/>
</svg>
