<svg xmlns="http://www.w3.org/2000/svg" width="87" height="87" fill="none" viewBox="0 0 87 87">
    <g fill="#C1C1C1" clip-path="url(#clip0)">
        <path d="M29.822 24.639H16.23c-1.408 0-2.55 1.14-2.55 2.549 0 1.407 1.142 2.548 2.55 2.548h13.593c1.408 0 2.55-1.14 2.55-2.549 0-1.407-1.142-2.548-2.55-2.548zM29.822 38.232H16.23c-1.408 0-2.55 1.142-2.55 2.55 0 1.407 1.142 2.548 2.55 2.548h13.593c1.408 0 2.55-1.141 2.55-2.549 0-1.407-1.142-2.549-2.55-2.549zM29.822 51.826H16.23c-1.408 0-2.55 1.141-2.55 2.549s1.142 2.549 2.55 2.549h13.593c1.408 0 2.55-1.141 2.55-2.549s-1.142-2.549-2.55-2.549z"/>
        <path d="M66.356 46.716v-23.27c0-3.36-1.296-6.529-3.648-8.926L52.366 3.826l-.015-.016C49.971 1.39 46.657 0 43.261 0h-32.81C6.235 0 2.805 3.43 2.805 7.646v66.1c0 4.216 3.43 7.647 7.646 7.647h39.394C53.477 84.865 58.397 87 63.807 87c11.243 0 20.39-9.07 20.39-20.22 0-10.295-7.797-18.816-17.841-20.064zM7.902 73.746v-66.1c0-1.405 1.144-2.548 2.55-2.548h32.81c2.034 0 4.02.83 5.448 2.28L59.05 18.07l.015.015c1.414 1.439 2.193 3.342 2.193 5.36v23.273c-9.951 1.257-17.672 9.774-17.672 20.06 0 3.439.864 6.678 2.383 9.516H10.451c-1.405 0-2.549-1.144-2.549-2.549zm55.905 8.156c-8.34 0-15.123-6.784-15.123-15.123 0-8.339 6.784-15.123 15.123-15.123 8.432 0 15.293 6.784 15.293 15.123 0 8.34-6.86 15.123-15.293 15.123z"/>
        <path d="M69.687 60.743c-1.081-.9-2.688-.754-3.59.327l-4.302 5.162-.976-1.951c-.63-1.26-2.16-1.77-3.42-1.14-1.258.629-1.769 2.16-1.14 3.42l2.72 5.437c.384.77 1.131 1.292 1.986 1.392.098.01.196.017.294.017.75 0 1.47-.333 1.958-.917l6.796-8.157c.901-1.081.755-2.688-.326-3.59zM43.416 29.736h2.719c1.407 0 2.549-1.14 2.549-2.549 0-1.407-1.142-2.548-2.55-2.548h-2.718c-1.408 0-2.549 1.14-2.549 2.549 0 1.407 1.141 2.548 2.549 2.548zM48.684 40.781c0-1.407-1.142-2.549-2.55-2.549h-2.718c-1.408 0-2.549 1.142-2.549 2.55 0 1.407 1.141 2.548 2.549 2.548h2.719c1.407 0 2.549-1.141 2.549-2.549z"/>
    </g>
    <defs>
        <clipPath id="clip0">
            <path fill="#fff" d="M0 0H87V87H0z"/>
        </clipPath>
    </defs>
</svg>
