<?xml version="1.0" encoding="utf-8"?>
<!-- Generator: Adobe Illustrator 16.0.0, SVG Export Plug-In . SVG Version: 6.00 Build 0)  -->
<svg version="1.2" baseProfile="tiny" id="Capa_1" xmlns="http://www.w3.org/2000/svg" xmlns:xlink="http://www.w3.org/1999/xlink"
	 x="0px" y="0px" width="222px" height="222px" viewBox="0 0 222 222" xml:space="preserve">
<circle fill="#05BEEE" cx="111" cy="111" r="111"/>
<g>
	<path fill="#FFFFFF" d="M127.425,122.889c2.03-2.902,3.224-6.432,3.224-10.234c0-9.869-8.029-17.898-17.898-17.898
		s-17.898,8.03-17.898,17.898c0,9.869,8.029,17.898,17.898,17.898c3.842,0,7.406-1.218,10.325-3.285l11.68,11.678
		c0.601,0.603,1.392,0.904,2.181,0.904c0.791,0,1.58-0.302,2.183-0.904c1.205-1.205,1.205-3.159,0-4.364L127.425,122.889z
		 M101.023,112.654c0-6.467,5.261-11.727,11.727-11.727s11.727,5.26,11.727,11.727c0,6.466-5.261,11.727-11.727,11.727
		S101.023,119.121,101.023,112.654z M152.25,110.957v3.086c0,5.105-4.152,9.258-9.258,9.258h-1.555c-0.25,0-0.441,0.094-0.558,0.174
		c-1.405,0.965-3.325,0.606-4.29-0.8c-0.964-1.405-0.605-3.325,0.801-4.29c1.197-0.822,2.598-1.256,4.047-1.256h1.555
		c1.701,0,3.086-1.384,3.086-3.086v-3.086c0-1.702-1.385-3.086-3.086-3.086h-1.555c-2.916,0-5.526-1.756-6.648-4.473l-0.02-0.045
		c-1.127-2.715-0.523-5.804,1.539-7.865l1.1-1.1c1.203-1.203,1.203-3.16,0-4.365l-2.184-2.181c-0.582-0.583-1.356-0.903-2.181-0.903
		c-0.825,0-1.601,0.319-2.183,0.903l-1.1,1.099c-2.062,2.063-5.15,2.666-7.865,1.537l-0.047-0.019
		c-2.715-1.121-4.471-3.729-4.471-6.647v-1.555c0-1.702-1.384-3.086-3.086-3.086h-3.086c-1.702,0-3.086,1.384-3.086,3.086v1.555
		c0,2.916-1.756,5.526-4.473,6.647l-0.039,0.017c-2.723,1.131-5.81,0.527-7.871-1.535l-1.1-1.1
		c-0.582-0.583-1.357-0.902-2.183-0.902c-0.824,0-1.599,0.319-2.181,0.902l-2.184,2.182c-1.203,1.203-1.203,3.162,0,4.365l1.1,1.1
		c2.063,2.062,2.666,5.15,1.537,7.865L90.71,103.4c-1.121,2.715-3.729,4.471-6.647,4.471h-1.555c-1.701,0-3.086,1.384-3.086,3.086
		v3.086c0,1.702,1.385,3.086,3.086,3.086h1.555c2.916,0,5.526,1.756,6.647,4.473l0.022,0.053c1.125,2.707,0.521,5.796-1.541,7.857
		l-1.1,1.1c-0.583,0.582-0.902,1.357-0.902,2.183c0,0.824,0.319,1.599,0.902,2.181l2.182,2.184c1.203,1.203,3.162,1.203,4.365,0
		l1.1-1.1c2.06-2.061,5.146-2.666,7.861-1.539l0.039,0.017c2.728,1.125,4.482,3.735,4.482,6.651v1.555
		c0,1.701,1.384,3.086,3.086,3.086h3.086c1.702,0,3.086-1.385,3.086-3.086v-1.555c0-1.449,0.434-2.85,1.258-4.049
		c0.963-1.404,2.883-1.763,4.289-0.799c1.405,0.965,1.764,2.885,0.799,4.29c-0.08,0.116-0.174,0.308-0.174,0.558v1.555
		c0,5.105-4.152,9.258-9.258,9.258h-3.086c-5.105,0-9.258-4.152-9.258-9.258v-1.555c0-0.408-0.258-0.779-0.656-0.943l-0.057-0.024
		c-0.4-0.166-0.846-0.086-1.135,0.203l-1.1,1.101c-3.609,3.607-9.482,3.607-13.092,0l-2.182-2.184
		c-1.75-1.749-2.711-4.072-2.711-6.546s0.961-4.798,2.711-6.546l1.1-1.1c0.288-0.289,0.367-0.734,0.201-1.135l-0.025-0.06
		c-0.162-0.396-0.533-0.653-0.941-0.653h-1.555c-5.105-0.001-9.258-4.152-9.258-9.258v-3.086c0-5.105,4.152-9.258,9.258-9.258h1.555
		c0.408,0,0.779-0.258,0.943-0.655l0.023-0.058c0.166-0.399,0.087-0.846-0.202-1.135l-1.099-1.099c-3.61-3.61-3.61-9.483,0-13.093
		l2.182-2.182c1.75-1.748,4.074-2.711,6.546-2.711c2.474,0,4.798,0.963,6.547,2.711l1.099,1.1c0.291,0.288,0.735,0.367,1.135,0.202
		l0.056-0.024c0.399-0.164,0.657-0.535,0.657-0.943v-1.555c0.001-5.105,4.154-9.258,9.258-9.258h3.086
		c5.105,0,9.258,4.153,9.258,9.258v1.555c0,0.408,0.258,0.779,0.655,0.943l0.063,0.026c0.395,0.163,0.84,0.084,1.129-0.205
		l1.1-1.099c1.748-1.749,4.072-2.711,6.546-2.711c2.472,0,4.797,0.962,6.546,2.711l2.182,2.182c3.61,3.609,3.61,9.482,0,13.093
		l-1.1,1.099c-0.288,0.289-0.367,0.734-0.201,1.135l0.022,0.056c0.165,0.399,0.536,0.657,0.944,0.657h1.555
		C148.098,101.699,152.25,105.852,152.25,110.957z"/>
</g>
</svg>
