<?xml version="1.0" encoding="utf-8"?>
<!-- Generator: Adobe Illustrator 16.0.0, SVG Export Plug-In . SVG Version: 6.00 Build 0)  -->
<svg version="1.2" baseProfile="tiny" id="Capa_1" xmlns="http://www.w3.org/2000/svg" xmlns:xlink="http://www.w3.org/1999/xlink"
	 x="0px" y="0px" width="127px" height="127px" viewBox="0 0 127 127" xml:space="preserve">
<path fill="#34559C" d="M122.039,87.313c2.74,0,4.961-2.222,4.961-4.961V29.766c0-10.942-8.902-19.844-19.844-19.844h-6.449V4.96
	c0-2.74-2.221-4.961-4.96-4.961c-2.74,0-4.962,2.221-4.962,4.96v4.962H68.213V4.96c0-2.74-2.221-4.96-4.961-4.96
	c-2.74,0-4.961,2.221-4.961,4.96v4.962H35.967V4.96c0-2.74-2.221-4.96-4.961-4.96c-2.74,0-4.961,2.221-4.961,4.96v4.962h-6.201
	C8.902,9.922,0,18.824,0,29.766v77.39C0,118.098,8.902,127,19.844,127h87.312c10.941,0,19.844-8.902,19.844-19.844
	c0-2.74-2.221-4.961-4.961-4.961s-4.961,2.221-4.961,4.961c0,5.471-4.451,9.922-9.922,9.922H19.844
	c-5.471,0-9.922-4.451-9.922-9.922v-77.39c0-5.471,4.45-9.922,9.922-9.922h6.2v4.96c0,2.74,2.222,4.962,4.962,4.962
	c2.74,0,4.96-2.221,4.96-4.961v-4.961h22.325v4.96c0,2.74,2.221,4.962,4.961,4.962c2.74,0,4.96-2.221,4.96-4.961v-4.961h22.573v4.96
	c0,2.74,2.221,4.962,4.961,4.962s4.961-2.221,4.961-4.961v-4.961h6.449c5.471,0,9.922,4.45,9.922,9.922v52.585
	C117.078,85.092,119.299,87.313,122.039,87.313L122.039,87.313z"/>
<path fill="#34559C" d="M85.514,51.93L61.06,86.088c-0.668,0.773-1.504,0.941-1.953,0.971c-0.462,0.032-1.357-0.028-2.126-0.76
	L41.151,71.1c-1.977-1.898-5.118-1.834-7.015,0.142c-1.897,1.976-1.834,5.116,0.143,7.014L50.125,93.47
	c2.373,2.259,5.541,3.517,8.8,3.517c0.28,0,0.561-0.01,0.842-0.028c3.55-0.237,6.866-1.963,9.094-4.737
	c0.058-0.072,0.113-0.145,0.168-0.22L93.58,57.706c1.595-2.228,1.081-5.327-1.146-6.922c-2.229-1.594-5.328-1.081-6.922,1.147
	L85.514,51.93z"/>
</svg>
