<?xml version="1.0" encoding="UTF-8"?>
<!DOCTYPE svg PUBLIC "-//W3C//DTD SVG 1.1//EN" "http://www.w3.org/Graphics/SVG/1.1/DTD/svg11.dtd">
<svg version="1.2" width="78.32mm" height="78.32mm" viewBox="0 0 7832 7832" preserveAspectRatio="xMidYMid" fill-rule="evenodd" stroke-width="28.222" stroke-linejoin="round" xmlns="http://www.w3.org/2000/svg" xmlns:ooo="http://xml.openoffice.org/svg/export" xmlns:xlink="http://www.w3.org/1999/xlink" xmlns:presentation="http://sun.com/xmlns/staroffice/presentation" xmlns:smil="http://www.w3.org/2001/SMIL20/" xmlns:anim="urn:oasis:names:tc:opendocument:xmlns:animation:1.0" xml:space="preserve">
 <defs class="ClipPathGroup">
  <clipPath id="presentation_clip_path" clipPathUnits="userSpaceOnUse">
   <rect x="0" y="0" width="7832" height="7832"/>
  </clipPath>
  <clipPath id="presentation_clip_path_shrink" clipPathUnits="userSpaceOnUse">
   <rect x="7" y="7" width="7817" height="7817"/>
  </clipPath>
 </defs>
 <defs class="TextShapeIndex">
  <g ooo:slide="id1" ooo:id-list="id3 id4 id5 id6"/>
 </defs>
 <defs class="EmbeddedBulletChars">
  <g id="bullet-char-template-57356" transform="scale(0.00048828125,-0.00048828125)">
   <path d="M 580,1141 L 1163,571 580,0 -4,571 580,1141 Z"/>
  </g>
  <g id="bullet-char-template-57354" transform="scale(0.00048828125,-0.00048828125)">
   <path d="M 8,1128 L 1137,1128 1137,0 8,0 8,1128 Z"/>
  </g>
  <g id="bullet-char-template-10146" transform="scale(0.00048828125,-0.00048828125)">
   <path d="M 174,0 L 602,739 174,1481 1456,739 174,0 Z M 1358,739 L 309,1346 659,739 1358,739 Z"/>
  </g>
  <g id="bullet-char-template-10132" transform="scale(0.00048828125,-0.00048828125)">
   <path d="M 2015,739 L 1276,0 717,0 1260,543 174,543 174,936 1260,936 717,1481 1274,1481 2015,739 Z"/>
  </g>
  <g id="bullet-char-template-10007" transform="scale(0.00048828125,-0.00048828125)">
   <path d="M 0,-2 C -7,14 -16,27 -25,37 L 356,567 C 262,823 215,952 215,954 215,979 228,992 255,992 264,992 276,990 289,987 310,991 331,999 354,1012 L 381,999 492,748 772,1049 836,1024 860,1049 C 881,1039 901,1025 922,1006 886,937 835,863 770,784 769,783 710,716 594,584 L 774,223 C 774,196 753,168 711,139 L 727,119 C 717,90 699,76 672,76 641,76 570,178 457,381 L 164,-76 C 142,-110 111,-127 72,-127 30,-127 9,-110 8,-76 1,-67 -2,-52 -2,-32 -2,-23 -1,-13 0,-2 Z"/>
  </g>
  <g id="bullet-char-template-10004" transform="scale(0.00048828125,-0.00048828125)">
   <path d="M 285,-33 C 182,-33 111,30 74,156 52,228 41,333 41,471 41,549 55,616 82,672 116,743 169,778 240,778 293,778 328,747 346,684 L 369,508 C 377,444 397,411 428,410 L 1163,1116 C 1174,1127 1196,1133 1229,1133 1271,1133 1292,1118 1292,1087 L 1292,965 C 1292,929 1282,901 1262,881 L 442,47 C 390,-6 338,-33 285,-33 Z"/>
  </g>
  <g id="bullet-char-template-9679" transform="scale(0.00048828125,-0.00048828125)">
   <path d="M 813,0 C 632,0 489,54 383,161 276,268 223,411 223,592 223,773 276,916 383,1023 489,1130 632,1184 813,1184 992,1184 1136,1130 1245,1023 1353,916 1407,772 1407,592 1407,412 1353,268 1245,161 1136,54 992,0 813,0 Z"/>
  </g>
  <g id="bullet-char-template-8226" transform="scale(0.00048828125,-0.00048828125)">
   <path d="M 346,457 C 273,457 209,483 155,535 101,586 74,649 74,723 74,796 101,859 155,911 209,963 273,989 346,989 419,989 480,963 531,910 582,859 608,796 608,723 608,648 583,586 532,535 482,483 420,457 346,457 Z"/>
  </g>
  <g id="bullet-char-template-8211" transform="scale(0.00048828125,-0.00048828125)">
   <path d="M -4,459 L 1135,459 1135,606 -4,606 -4,459 Z"/>
  </g>
  <g id="bullet-char-template-61548" transform="scale(0.00048828125,-0.00048828125)">
   <path d="M 173,740 C 173,903 231,1043 346,1159 462,1274 601,1332 765,1332 928,1332 1067,1274 1183,1159 1299,1043 1357,903 1357,740 1357,577 1299,437 1183,322 1067,206 928,148 765,148 601,148 462,206 346,322 231,437 173,577 173,740 Z"/>
  </g>
 </defs>
 <defs class="TextEmbeddedBitmaps"/>
 <g>
  <g id="id2" class="Master_Slide">
   <g id="bg-id2" class="Background"/>
   <g id="bo-id2" class="BackgroundObjects"/>
  </g>
 </g>
 <g class="SlideGroup">
  <g>
   <g id="container-id1">
    <g id="id1" class="Slide" clip-path="url(#presentation_clip_path)">
     <g class="Page">
      <g class="com.sun.star.drawing.ClosedBezierShape">
       <g id="id3">
        <rect class="BoundingBox" stroke="none" fill="none" x="0" y="0" width="7834" height="7834"/>
        <path fill="rgb(229,229,229)" stroke="none" d="M 7833,3916 C 7833,4637 7668,5250 7308,5874 6947,6499 6499,6947 5874,7308 5250,7668 4637,7833 3916,7833 3195,7833 2583,7668 1958,7308 1334,6947 885,6499 525,5874 164,5250 0,4637 0,3916 0,3195 164,2583 525,1958 885,1334 1334,885 1958,525 2583,164 3195,0 3916,0 4637,0 5250,164 5874,525 6499,885 6947,1334 7308,1958 7668,2583 7833,3195 7833,3916 Z"/>
       </g>
      </g>
      <g class="com.sun.star.drawing.ClosedBezierShape">
       <g id="id4">
        <rect class="BoundingBox" stroke="none" fill="none" x="3989" y="4012" width="1326" height="1325"/>
        <path fill="rgb(193,193,193)" stroke="none" d="M 4651,5336 C 4286,5336 3989,5039 3989,4674 3989,4309 4286,4012 4651,4012 5016,4012 5313,4309 5313,4674 5313,5039 5016,5336 4651,5336 Z M 4651,4211 C 4395,4211 4188,4418 4188,4674 4188,4929 4395,5137 4651,5137 4906,5137 5114,4929 5114,4674 5114,4418 4906,4211 4651,4211 Z"/>
       </g>
      </g>
      <g class="com.sun.star.drawing.ClosedBezierShape">
       <g id="id5">
        <rect class="BoundingBox" stroke="none" fill="none" x="2400" y="2424" width="3179" height="3177"/>
        <path fill="rgb(193,193,193)" stroke="none" d="M 5478,5600 C 5452,5600 5427,5590 5408,5571 L 4978,5141 C 4939,5102 4939,5039 4978,5000 5016,4962 5079,4962 5118,5000 L 5548,5430 C 5587,5469 5587,5532 5548,5571 5529,5590 5503,5600 5478,5600 Z M 3794,5203 L 2765,5203 C 2564,5203 2401,5040 2401,4839 L 2401,2788 C 2401,2587 2564,2424 2765,2424 L 4287,2424 C 4488,2424 4651,2587 4651,2788 L 4651,3720 C 4651,3774 4606,3819 4551,3819 4497,3819 4452,3774 4452,3720 L 4452,2788 C 4452,2697 4378,2623 4287,2623 L 2765,2623 C 2674,2623 2600,2697 2600,2788 L 2600,4839 C 2600,4930 2674,5005 2765,5005 L 3794,5005 C 3849,5005 3894,5049 3894,5104 3894,5159 3849,5203 3794,5203 Z"/>
       </g>
      </g>
      <g class="com.sun.star.drawing.ClosedBezierShape">
       <g id="id6">
        <rect class="BoundingBox" stroke="none" fill="none" x="2798" y="2953" width="1457" height="1259"/>
        <path fill="rgb(193,193,193)" stroke="none" d="M 4155,3681 L 2897,3681 C 2843,3681 2798,3637 2798,3582 2798,3527 2843,3483 2897,3483 L 4155,3483 C 4210,3483 4254,3527 4254,3582 4254,3637 4210,3681 4155,3681 Z M 3625,4211 L 2897,4211 C 2842,4211 2798,4166 2798,4111 2798,4057 2842,4012 2897,4012 L 3625,4012 C 3680,4012 3725,4057 3725,4111 3725,4166 3680,4211 3625,4211 Z M 3493,3152 L 2897,3152 C 2843,3152 2798,3107 2798,3052 2798,2997 2843,2953 2897,2953 L 3493,2953 C 3548,2953 3592,2997 3592,3052 3592,3107 3548,3152 3493,3152 Z"/>
       </g>
      </g>
     </g>
    </g>
   </g>
  </g>
 </g>
</svg>