<?xml version="1.0" encoding="utf-8"?>
<!-- Generator: Adobe Illustrator 16.0.0, SVG Export Plug-In . SVG Version: 6.00 Build 0)  -->
<svg version="1.2" baseProfile="tiny" id="Capa_1" xmlns="http://www.w3.org/2000/svg" xmlns:xlink="http://www.w3.org/1999/xlink"
	 x="0px" y="0px" width="222px" height="222px" viewBox="0 0 222 222" xml:space="preserve">
<circle fill="#05BEEE" cx="111" cy="111" r="111"/>
<g>
	<path fill="#FFFFFF" d="M128.705,107.234c0-1.77-1.435-3.203-3.204-3.203H92.509c-1.77,0-3.203,1.434-3.203,3.203
		s1.434,3.203,3.203,3.203h32.992C127.271,110.438,128.704,109.004,128.705,107.234L128.705,107.234z M92.509,116.844
		c-1.77,0-3.203,1.434-3.203,3.203s1.434,3.203,3.203,3.203h20.036c1.771,0,3.203-1.434,3.203-3.203s-1.435-3.203-3.203-3.203
		H92.509z"/>
	<path fill="#FFFFFF" d="M100.036,147.594H89.323c-3.532,0-6.406-2.874-6.406-6.406V84.813c0-3.532,2.874-6.406,6.406-6.406h39.382
		c3.532,0,6.405,2.874,6.405,6.406v19.699c0,1.77,1.435,3.203,3.203,3.203c1.771,0,3.203-1.434,3.203-3.203V84.813
		c0-7.064-5.748-12.813-12.812-12.813h-39.38c-7.067,0-12.815,5.748-12.815,12.813v56.375C76.511,148.252,82.259,154,89.323,154
		h10.713c1.77,0,3.203-1.434,3.203-3.203S101.805,147.594,100.036,147.594z"/>
	<path fill="#FFFFFF" d="M147.19,118.377c-3.746-3.747-9.843-3.747-13.588-0.003l-17.584,17.547
		c-0.375,0.373-0.65,0.832-0.804,1.336l-3.83,12.609c-0.339,1.118-0.043,2.332,0.772,3.168c0.611,0.626,1.441,0.966,2.293,0.966
		c0.285,0,0.572-0.038,0.855-0.116l12.928-3.582c0.533-0.146,1.018-0.43,1.408-0.819l17.549-17.516
		C150.937,128.221,150.937,122.124,147.19,118.377z M125.712,144.354l-6.504,1.802l1.902-6.267l11.867-11.839l4.53,4.53
		L125.712,144.354L125.712,144.354z M142.663,127.436l-0.62,0.619l-4.53-4.529l0.618-0.618c1.249-1.249,3.281-1.249,4.53,0
		C143.909,124.156,143.909,126.188,142.663,127.436z M125.501,91.219H92.509c-1.77,0-3.203,1.434-3.203,3.203
		s1.434,3.203,3.203,3.203h32.992c1.77,0,3.203-1.434,3.203-3.203S127.271,91.219,125.501,91.219z"/>
</g>
</svg>
