<?xml version="1.0" encoding="UTF-8"?>
<svg xmlns="http://www.w3.org/2000/svg" xmlns:xlink="http://www.w3.org/1999/xlink" width="126pt" height="126pt" viewBox="0 0 126 126" version="1.1">
<g id="surface1">
<path style=" stroke:none;fill-rule:nonzero;fill:rgb(46.27451%,46.666667%,46.666667%);fill-opacity:1;" d="M 109.9375 83.269531 C 103.058594 76.363281 94.691406 71.105469 85.460938 67.914062 C 102.429688 56.28125 106.738281 33.105469 95.113281 16.160156 C 83.453125 -0.789062 60.285156 -5.097656 43.328125 6.527344 C 26.367188 18.152344 22.050781 41.328125 33.683594 58.289062 C 36.28125 62.050781 39.546875 65.328125 43.328125 67.914062 C 37.246094 70.003906 31.515625 73.003906 26.335938 76.835938 C 26.324219 76.785156 26.324219 76.742188 26.316406 76.707031 C 26.25 76.75 26.15625 76.785156 26.082031 76.816406 C 25.695312 77.152344 25.285156 77.472656 24.898438 77.777344 C 22.09375 79.890625 19.875 82.605469 17.246094 84.925781 C 17.246094 84.941406 17.246094 84.949219 17.246094 84.964844 C 6.132812 96.851562 -0.0429688 112.535156 0 128.8125 L 10.070312 128.8125 C 10.070312 98.816406 34.40625 74.5 64.417969 74.5 C 94.433594 74.5 118.769531 98.816406 118.769531 128.8125 L 128.796875 128.8125 C 128.863281 111.71875 122.058594 95.332031 109.9375 83.269531 Z M 64.394531 64.417969 C 49.390625 64.417969 37.21875 52.257812 37.21875 37.261719 C 37.21875 22.261719 49.390625 10.097656 64.394531 10.097656 C 79.398438 10.097656 91.570312 22.261719 91.570312 37.261719 L 91.570312 37.269531 C 91.550781 52.257812 79.398438 64.402344 64.394531 64.417969 Z M 64.394531 64.417969 "/>
</g>
</svg>
