<svg xmlns="http://www.w3.org/2000/svg" width="127" height="127" fill="none" viewBox="0 0 127 127">
    <path fill="#34559C" d="M95.746 57.05c2.74 0 4.961-2.22 4.961-4.96 0-2.74-2.221-4.961-4.96-4.961-2.74 0-4.962 2.221-4.962 4.96 0 2.74 2.221 4.962 4.961 4.962z"/>
    <path fill="#34559C" d="M107.156 9.922h-6.449V4.96c0-2.74-2.221-4.961-4.96-4.961-2.74 0-4.962 2.221-4.962 4.96v4.962H68.213V4.96C68.213 2.22 65.992 0 63.252 0s-4.961 2.221-4.961 4.96v4.962H35.967V4.96C35.967 2.22 33.746 0 31.006 0s-4.961 2.221-4.961 4.96v4.962h-6.201C8.902 9.922 0 18.824 0 29.766v77.39C0 118.098 8.902 127 19.844 127h37.95c2.74 0 4.962-2.221 4.962-4.961s-2.221-4.961-4.961-4.961H19.844c-5.471 0-9.922-4.451-9.922-9.922v-77.39c0-5.471 4.45-9.922 9.922-9.922h6.2v4.96c0 2.74 2.222 4.962 4.962 4.962 2.74 0 4.96-2.221 4.96-4.961v-4.961h22.325v4.96c0 2.74 2.221 4.962 4.961 4.962s4.96-2.221 4.96-4.961v-4.961h22.573v4.96c0 2.74 2.221 4.962 4.961 4.962s4.961-2.221 4.961-4.961v-4.961h6.449c5.471 0 9.922 4.45 9.922 9.922v28.277c0 2.74 2.221 4.96 4.961 4.96s4.961-2.22 4.961-4.96V29.766c0-10.942-8.902-19.844-19.844-19.844z"/>
    <path fill="#34559C" d="M96.986 66.973c-16.55 0-30.013 13.464-30.013 30.013 0 16.55 13.464 30.014 30.013 30.014C113.536 127 127 113.536 127 96.986c0-16.55-13.464-30.013-30.014-30.013zm0 50.105c-11.078 0-20.092-9.013-20.092-20.092 0-11.078 9.014-20.092 20.092-20.092 11.079 0 20.092 9.014 20.092 20.092 0 11.079-9.013 20.092-20.092 20.092z"/>
    <path fill="#34559C" d="M104.178 92.025h-2.233v-5.209c0-2.74-2.22-4.96-4.96-4.96-2.74 0-4.962 2.22-4.962 4.96v10.17c0 2.74 2.221 4.961 4.961 4.961h7.194c2.74 0 4.961-2.22 4.961-4.96 0-2.74-2.221-4.962-4.961-4.962zM74.164 57.05c2.74 0 4.961-2.22 4.961-4.96 0-2.74-2.221-4.961-4.96-4.961-2.74 0-4.962 2.221-4.962 4.96 0 2.74 2.221 4.962 4.961 4.962zM52.586 78.63c2.74 0 4.96-2.22 4.96-4.96 0-2.74-2.22-4.961-4.96-4.961-2.74 0-4.961 2.221-4.961 4.96 0 2.74 2.221 4.962 4.96 4.962zM31.008 57.05c2.74 0 4.96-2.22 4.96-4.96 0-2.74-2.22-4.961-4.96-4.961-2.74 0-4.961 2.221-4.961 4.96 0 2.74 2.221 4.962 4.96 4.962zM31.008 78.63c2.74 0 4.96-2.22 4.96-4.96 0-2.74-2.22-4.961-4.96-4.961-2.74 0-4.961 2.221-4.961 4.96 0 2.74 2.221 4.962 4.96 4.962zM31.008 100.211c2.74 0 4.96-2.221 4.96-4.961s-2.22-4.96-4.96-4.96c-2.74 0-4.961 2.22-4.961 4.96 0 2.74 2.221 4.961 4.96 4.961zM52.586 100.211c2.74 0 4.96-2.221 4.96-4.961s-2.22-4.96-4.96-4.96c-2.74 0-4.961 2.22-4.961 4.96 0 2.74 2.221 4.961 4.96 4.961zM52.586 57.05c2.74 0 4.96-2.22 4.96-4.96 0-2.74-2.22-4.961-4.96-4.961-2.74 0-4.961 2.221-4.961 4.96 0 2.74 2.221 4.962 4.96 4.962z"/>
</svg>
