<?xml version="1.0" encoding="utf-8"?>
<!-- Generator: Adobe Illustrator 16.0.0, SVG Export Plug-In . SVG Version: 6.00 Build 0)  -->
<svg version="1.2" baseProfile="tiny" id="Capa_1" xmlns="http://www.w3.org/2000/svg" xmlns:xlink="http://www.w3.org/1999/xlink"
	 x="0px" y="0px" width="127px" height="127px" viewBox="0 0 127 127" xml:space="preserve">
<path fill="#C2C2C2" d="M95.746,57.05c2.74,0,4.961-2.22,4.961-4.96c0-2.74-2.221-4.961-4.96-4.961c-2.74,0-4.962,2.221-4.962,4.96
	C90.785,54.829,93.006,57.051,95.746,57.05L95.746,57.05z"/>
<path fill="#C2C2C2" d="M107.156,9.922h-6.449V4.96c0-2.74-2.221-4.961-4.96-4.961c-2.74,0-4.962,2.221-4.962,4.96v4.962H68.213
	V4.96c0-2.74-2.221-4.96-4.961-4.96c-2.74,0-4.961,2.221-4.961,4.96v4.962H35.967V4.96c0-2.74-2.221-4.96-4.961-4.96
	c-2.74,0-4.961,2.221-4.961,4.96v4.962h-6.201C8.902,9.922,0,18.824,0,29.766v77.39C0,118.098,8.902,127,19.844,127h37.95
	c2.74,0,4.962-2.221,4.962-4.961s-2.221-4.961-4.961-4.961H19.844c-5.471,0-9.922-4.451-9.922-9.922v-77.39
	c0-5.471,4.45-9.922,9.922-9.922h6.2v4.96c0,2.74,2.222,4.962,4.962,4.962c2.74,0,4.96-2.221,4.96-4.961v-4.961h22.325v4.96
	c0,2.74,2.221,4.962,4.961,4.962c2.74,0,4.96-2.221,4.96-4.961v-4.961h22.573v4.96c0,2.74,2.221,4.962,4.961,4.962
	s4.961-2.221,4.961-4.961v-4.961h6.449c5.471,0,9.922,4.45,9.922,9.922v28.277c0,2.74,2.221,4.96,4.961,4.96s4.961-2.22,4.961-4.96
	V29.766C127,18.824,118.098,9.922,107.156,9.922L107.156,9.922z"/>
<path fill="#C2C2C2" d="M96.986,66.973c-16.551,0-30.014,13.465-30.014,30.014c0,16.55,13.465,30.014,30.014,30.014
	C113.536,127,127,113.536,127,96.986C127,80.436,113.536,66.973,96.986,66.973z M96.986,117.078
	c-11.078,0-20.092-9.014-20.092-20.092s9.014-20.092,20.092-20.092s20.092,9.014,20.092,20.092S108.064,117.078,96.986,117.078z"/>
<path fill="#C2C2C2" d="M104.178,92.025h-2.232v-5.209c0-2.74-2.221-4.961-4.961-4.961c-2.739,0-4.961,2.221-4.961,4.961v10.17
	c0,2.74,2.221,4.961,4.961,4.961h7.193c2.74,0,4.961-2.221,4.961-4.961C109.139,94.247,106.918,92.025,104.178,92.025z
	 M74.164,57.05c2.74,0,4.961-2.22,4.961-4.96c0-2.74-2.221-4.961-4.96-4.961c-2.74,0-4.962,2.221-4.962,4.96
	C69.203,54.829,71.424,57.051,74.164,57.05L74.164,57.05z M52.586,78.63c2.74,0,4.96-2.22,4.96-4.96s-2.22-4.961-4.96-4.961
	c-2.74,0-4.961,2.221-4.961,4.96C47.625,76.409,49.846,78.631,52.586,78.63L52.586,78.63z M31.008,57.05c2.74,0,4.96-2.22,4.96-4.96
	c0-2.74-2.22-4.961-4.96-4.961c-2.74,0-4.961,2.221-4.961,4.96C26.047,54.829,28.268,57.051,31.008,57.05L31.008,57.05z
	 M31.008,78.63c2.74,0,4.96-2.22,4.96-4.96s-2.22-4.961-4.96-4.961c-2.74,0-4.961,2.221-4.961,4.96
	C26.047,76.409,28.268,78.631,31.008,78.63L31.008,78.63z M31.008,100.211c2.74,0,4.96-2.221,4.96-4.961s-2.22-4.96-4.96-4.96
	c-2.74,0-4.961,2.22-4.961,4.96S28.268,100.211,31.008,100.211L31.008,100.211z M52.586,100.211c2.74,0,4.96-2.221,4.96-4.961
	s-2.22-4.96-4.96-4.96c-2.74,0-4.961,2.22-4.961,4.96S49.846,100.211,52.586,100.211L52.586,100.211z M52.586,57.05
	c2.74,0,4.96-2.22,4.96-4.96c0-2.74-2.22-4.961-4.96-4.961c-2.74,0-4.961,2.221-4.961,4.96
	C47.625,54.829,49.846,57.051,52.586,57.05L52.586,57.05z"/>
</svg>
