<svg xmlns="http://www.w3.org/2000/svg" width="126" height="126" fill="none" viewBox="0 0 126 126">
    <path fill="#C2C2C2" d="M73.582 78.012c2.718 0 4.922-2.204 4.922-4.922 0-2.718-2.204-4.922-4.922-4.922-2.718 0-4.922 2.204-4.922 4.922 0 2.718 2.204 4.922 4.922 4.922zM73.582 56.602c2.718 0 4.922-2.204 4.922-4.922 0-2.719-2.204-4.922-4.922-4.922-2.718 0-4.922 2.203-4.922 4.922 0 2.718 2.204 4.922 4.922 4.922zM52.172 78.012c2.718 0 4.922-2.204 4.922-4.922 0-2.718-2.204-4.922-4.922-4.922-2.718 0-4.922 2.204-4.922 4.922 0 2.718 2.204 4.922 4.922 4.922zM52.172 56.602c2.718 0 4.922-2.204 4.922-4.922 0-2.719-2.204-4.922-4.922-4.922-2.718 0-4.922 2.203-4.922 4.922 0 2.718 2.204 4.922 4.922 4.922zM52.172 99.422c2.718 0 4.922-2.204 4.922-4.922 0-2.718-2.204-4.922-4.922-4.922-2.718 0-4.922 2.204-4.922 4.922 0 2.718 2.204 4.922 4.922 4.922zM94.992 56.602c2.718 0 4.922-2.204 4.922-4.922 0-2.719-2.204-4.922-4.922-4.922-2.718 0-4.922 2.203-4.922 4.922 0 2.718 2.204 4.922 4.922 4.922zM30.762 56.602c2.718 0 4.922-2.204 4.922-4.922 0-2.719-2.204-4.922-4.922-4.922-2.719 0-4.922 2.203-4.922 4.922 0 2.718 2.203 4.922 4.922 4.922zM103.852 72.352c-12.213 0-22.149 9.935-22.149 22.148 0 4.136 1.141 8.01 3.123 11.327l-11.771 11.771c-1.922 1.922-1.922 5.038 0 6.96.961.961 2.22 1.442 3.48 1.442 1.26 0 2.52-.481 3.48-1.442l11.604-11.603c3.508 2.332 7.714 3.693 12.233 3.693 12.212 0 22.148-9.935 22.148-22.148s-9.936-22.148-22.148-22.148zm0 34.453c-6.785 0-12.305-5.52-12.305-12.305s5.52-12.305 12.305-12.305c6.784 0 12.304 5.52 12.304 12.305s-5.52 12.305-12.304 12.305zM30.762 99.422c2.718 0 4.922-2.204 4.922-4.922 0-2.718-2.204-4.922-4.922-4.922-2.719 0-4.922 2.204-4.922 4.922 0 2.718 2.203 4.922 4.922 4.922z"/>
    <path fill="#C2C2C2" d="M106.312 9.844h-6.398V4.922C99.914 2.204 97.71 0 94.992 0c-2.718 0-4.922 2.204-4.922 4.922v4.922H67.676V4.922C67.676 2.204 65.472 0 62.754 0c-2.718 0-4.922 2.204-4.922 4.922v4.922H35.684V4.922C35.684 2.204 33.48 0 30.762 0c-2.719 0-4.922 2.204-4.922 4.922v4.922h-6.152C8.832 9.844 0 18.676 0 29.53v76.781C0 117.168 8.832 126 19.688 126h32.238c2.718 0 4.922-2.204 4.922-4.922 0-2.718-2.204-4.922-4.922-4.922H19.687c-5.427 0-9.843-4.416-9.843-9.844v-76.78c0-5.429 4.416-9.845 9.844-9.845h6.152v4.922c0 2.719 2.203 4.922 4.922 4.922 2.718 0 4.922-2.203 4.922-4.922v-4.922h22.148v4.922c0 2.719 2.204 4.922 4.922 4.922 2.718 0 4.922-2.203 4.922-4.922v-4.922H90.07v4.922c0 2.719 2.204 4.922 4.922 4.922 2.718 0 4.922-2.203 4.922-4.922v-4.922h6.398c5.428 0 9.844 4.416 9.844 9.844v29.532c0 2.718 2.204 4.921 4.922 4.921 2.718 0 4.922-2.203 4.922-4.922v-29.53c0-10.856-8.832-19.688-19.688-19.688z"/>
    <path fill="#C2C2C2" d="M30.762 78.012c2.718 0 4.922-2.204 4.922-4.922 0-2.718-2.204-4.922-4.922-4.922-2.719 0-4.922 2.204-4.922 4.922 0 2.718 2.203 4.922 4.922 4.922z"/>
</svg>
