<svg width="111" height="20" viewBox="0 0 111 20" fill="none" xmlns="http://www.w3.org/2000/svg">
<g clip-path="url(#clip0)">
<path d="M12.8562 14.1284C12.8562 15.736 12.2662 17.0272 11.0861 18.002C9.88898 18.9597 8.43529 19.4386 6.7251 19.4386C5.203 19.4386 3.86047 18.9939 2.69753 18.1046C1.53459 17.2153 0.730788 16.0011 0.286133 14.4619L2.54361 13.5384C2.69753 14.0856 2.91131 14.5816 3.18496 15.0262C3.45859 15.4709 3.77497 15.8557 4.1341 16.1806C4.51036 16.4885 4.92081 16.7365 5.36547 16.9246C5.81011 17.0956 6.28043 17.1811 6.77638 17.1811C7.85384 17.1811 8.73458 16.9075 9.41865 16.3602C10.1028 15.7958 10.4448 15.0519 10.4448 14.1284C10.4448 13.3588 10.1626 12.7003 9.59825 12.1531C9.06808 11.6229 8.07616 11.1098 6.62247 10.6139C5.15169 10.0837 4.23673 9.72459 3.87757 9.53646C1.92794 8.54453 0.953115 7.08228 0.953115 5.14977C0.953115 3.79868 1.49183 2.6443 2.56927 1.68658C3.66381 0.72886 5.00631 0.25 6.59681 0.25C7.99919 0.25 9.21343 0.609145 10.2396 1.32743C11.2657 2.02862 11.9498 2.90938 12.2918 3.96972L10.0856 4.89324C9.88041 4.20913 9.46997 3.64477 8.8543 3.20011C8.25572 2.73836 7.52033 2.50748 6.64813 2.50748C5.72461 2.50748 4.94646 2.76401 4.31367 3.27708C3.68091 3.75593 3.36452 4.38016 3.36452 5.14977C3.36452 5.78254 3.6125 6.3298 4.10845 6.79156C4.65574 7.25332 5.84433 7.80058 7.67424 8.43338C9.53837 9.06614 10.8638 9.84428 11.6505 10.7678C12.4543 11.6742 12.8562 12.7944 12.8562 14.1284ZM19.1136 19.0281H16.7535V0.660452H19.1136V19.0281ZM41.2971 10.5882C41.2971 13.1535 40.536 15.1973 39.014 16.7193C37.3037 18.5322 35.0548 19.4386 32.2671 19.4386C29.5993 19.4386 27.3419 18.5151 25.4948 16.6681C23.6478 14.821 22.7243 12.5464 22.7243 9.84428C22.7243 7.14216 23.6478 4.86758 25.4948 3.02055C27.3419 1.17352 29.5993 0.25 32.2671 0.25C33.6182 0.25 34.8925 0.48943 36.0897 0.96829C37.2869 1.44715 38.27 2.12268 39.0397 2.99489L37.3465 4.68801C36.7823 4.00391 36.0469 3.47374 35.1405 3.0975C34.2512 2.70416 33.2934 2.50748 32.2671 2.50748C30.2663 2.50748 28.5732 3.20011 27.1879 4.58539C25.8198 5.98776 25.1357 7.74074 25.1357 9.84428C25.1357 11.9479 25.8198 13.7008 27.1879 15.1032C28.5732 16.4885 30.2663 17.1811 32.2671 17.1811C34.0971 17.1811 35.6193 16.6681 36.8334 15.6419C38.0477 14.6158 38.7489 13.2049 38.937 11.4091H32.2671V9.20295H41.169C41.2543 9.68181 41.2971 10.1436 41.2971 10.5882Z" fill="#99B839"/>
<path d="M49.12 19.0281V3.94406H43.9893V0.660452H57.7136V3.94406H52.5829V19.0281H49.12ZM64.9162 0.660452H68.8669L75.7676 19.0281H71.9451L70.4317 14.6414H63.3515L61.8377 19.0281H58.0155L64.9162 0.660452ZM69.303 11.4604L67.6611 6.86853L66.9942 4.6367H66.789L66.122 6.86853L64.4802 11.4604H69.303ZM84.5924 19.4386C83.8056 19.4386 83.0533 19.3274 82.335 19.1051C81.6167 18.8828 80.9583 18.5493 80.3595 18.1046C79.7611 17.66 79.2394 17.1212 78.7947 16.4885C78.3501 15.8386 77.9997 15.0861 77.7431 14.231L81.0011 12.9483C81.2405 13.8718 81.6595 14.6414 82.2579 15.2571C82.8567 15.8557 83.6432 16.155 84.6181 16.155C84.9771 16.155 85.3193 16.1122 85.6441 16.0267C85.9863 15.9241 86.2857 15.7873 86.5419 15.6162C86.8156 15.4282 87.0293 15.1973 87.1835 14.9236C87.3373 14.65 87.4144 14.3336 87.4144 13.9745C87.4144 13.6324 87.3544 13.3246 87.2345 13.0509C87.115 12.7773 86.9098 12.5208 86.619 12.2813C86.3453 12.0419 85.9777 11.811 85.5159 11.5887C85.0713 11.3664 84.5154 11.1355 83.8484 10.8961L82.7197 10.4856C82.2237 10.3146 81.7191 10.0837 81.2063 9.793C80.7103 9.50224 80.2571 9.15167 79.8467 8.74119C79.436 8.33075 79.0941 7.85189 78.8204 7.30463C78.5639 6.74025 78.4357 6.10748 78.4357 5.40628C78.4357 4.68801 78.5724 4.02103 78.8461 3.40533C79.1369 2.77256 79.5388 2.2253 80.0519 1.76354C80.5818 1.28468 81.2063 0.916983 81.9246 0.660452C82.6598 0.386818 83.4723 0.25 84.3615 0.25C85.2851 0.25 86.0805 0.378265 86.7474 0.634799C87.4315 0.874229 88.0042 1.19062 88.466 1.58397C88.9449 1.96021 89.3296 2.37921 89.6204 2.84097C89.9112 3.30273 90.125 3.73884 90.2617 4.14928L87.2092 5.43194C87.0379 4.91889 86.7217 4.45713 86.26 4.04666C85.8153 3.63621 85.1994 3.43099 84.4129 3.43099C83.6603 3.43099 83.0362 3.61055 82.5402 3.96972C82.0442 4.31176 81.7962 4.76495 81.7962 5.32934C81.7962 5.8766 82.0356 6.34689 82.5145 6.74025C82.9934 7.1165 83.7545 7.4842 84.7976 7.84333L85.952 8.22815C86.6875 8.48469 87.3544 8.78398 87.9529 9.12602C88.5688 9.45093 89.0901 9.84428 89.518 10.306C89.9626 10.7678 90.2959 11.298 90.5182 11.8965C90.7577 12.478 90.8776 13.1535 90.8776 13.9232C90.8776 14.8809 90.6806 15.7103 90.2874 16.4115C89.9112 17.0956 89.4238 17.66 88.8253 18.1046C88.2266 18.5493 87.551 18.8828 86.7985 19.1051C86.0462 19.3274 85.3108 19.4386 84.5924 19.4386ZM99.8974 0.660452H103.848L110.749 19.0281H106.927L105.413 14.6414H98.3326L96.8192 19.0281H92.9967L99.8974 0.660452ZM104.284 11.4604L102.642 6.86853L101.975 4.6367H101.77L101.103 6.86853L99.4614 11.4604H104.284Z" fill="white"/>
</g>
<defs>
<clipPath id="clip0">
<rect width="111" height="19.6629" fill="white"/>
</clipPath>
</defs>
</svg>
