<svg width="126" height="126" xmlns="http://www.w3.org/2000/svg">

 <g>
  <title>background</title>
  <rect fill="none" id="canvas_background" height="602" width="802" y="-1" x="-1"/>
 </g>
 <g>
  <title>Layer 1</title>
  <g stroke="null" id="surface1">
   <path stroke="null" id="svg_1" fill-rule="evenodd" fill="rgb(20.392157%,33.333333%,61.176471%)" d="m83.70015,66.54748c8.92331,3.07233 17.10033,8.15151 23.96534,15.00518c11.91246,11.89279 18.47254,27.7031 18.47254,44.52285l-9.85416,0c0,-29.29336 -23.87306,-53.12701 -53.21486,-53.12701c-29.34179,0 -53.21485,23.83365 -53.21485,53.12701l-9.85416,0c0,-16.81173 6.56008,-32.63006 18.47254,-44.51484c6.86902,-6.86168 15.04604,-11.94086 23.96534,-15.01319c-9.55323,-6.56927 -15.82844,-17.57281 -15.82844,-29.99835c0,-20.07234 16.35405,-36.39938 36.45957,-36.39938c20.10553,0 36.45958,16.32704 36.45958,36.39938c0,12.43355 -6.27521,23.43308 -15.82443,29.99835l-0.00402,0zm-47.24057,-29.99434c0,14.64867 11.93654,26.5655 26.60943,26.5655c14.67291,0 26.60543,-11.92083 26.60543,-26.5655c0,-14.64467 -11.93252,-26.5615 -26.60543,-26.5615c-14.6729,0 -26.60943,11.91683 -26.60943,26.5615zm0,0"/>
  </g>
 </g>
</svg>