<svg xmlns="http://www.w3.org/2000/svg" width="135" height="135" fill="none" viewBox="0 0 135 135">
    <g fill="#34559C" clip-path="url(#clip0)">
        <path d="M19.777 71.194h23.991c2.185 0 3.955-1.77 3.955-3.955 0-2.184-1.77-3.955-3.955-3.955h-23.99c-2.185 0-3.956 1.771-3.956 3.955s1.771 3.955 3.955 3.955zM75.41 23.73h23.993c2.184 0 3.955-1.77 3.955-3.955 0-2.184-1.771-3.955-3.955-3.955H75.41c-2.184 0-3.955 1.77-3.955 3.955 0 2.184 1.77 3.956 3.955 3.956zM19.777 55.372h23.991c2.185 0 3.955-1.77 3.955-3.955 0-2.184-1.77-3.955-3.955-3.955h-23.99c-2.185 0-3.956 1.77-3.956 3.955 0 2.184 1.771 3.955 3.955 3.955zM75.41 39.552h23.993c2.184 0 3.955-1.771 3.955-3.955 0-2.185-1.771-3.955-3.955-3.955H75.41c-2.184 0-3.955 1.77-3.955 3.955 0 2.184 1.77 3.955 3.955 3.955zM19.777 39.55h23.991c2.185 0 3.955-1.77 3.955-3.954v-15.82c0-2.185-1.77-3.956-3.955-3.956h-23.99c-2.185 0-3.956 1.77-3.956 3.955v15.82c0 2.185 1.771 3.956 3.955 3.956zm3.955-15.82h16.081v7.91h-16.08v-7.91z"/>
        <path d="M135 86.092c0-11.091-6.464-20.7-15.822-25.26V3.956c0-2.184-1.771-3.955-3.955-3.955H72.298c-5.09 0-9.65 2.295-12.709 5.902C56.53 2.296 51.97 0 46.881 0H3.955C1.771.001 0 1.771 0 3.956v101.671c0 2.184 1.77 3.955 3.955 3.955H91.55c3.372 2.214 7.247 3.721 11.414 4.311v17.152c0 2.184 1.771 3.955 3.955 3.955s3.955-1.771 3.955-3.955v-17.152C124.492 111.965 135 100.233 135 86.092zM72.297 7.912h38.971v50.436c-1.418-.221-2.87-.337-4.349-.337-1.252 0-2.484.083-3.693.243v-6.836c0-2.184-1.771-3.955-3.955-3.955H75.41c-2.185 0-3.956 1.77-3.956 3.955v15.82c0 2.185 1.77 3.955 3.955 3.955h7.717c-2.008 3.195-3.39 6.82-3.975 10.702h-6.854c-3.21 0-6.207.915-8.753 2.492V16.664v-.02c.01-4.817 3.933-8.733 8.752-8.733zm-8.752 90.607c.022-4.809 3.94-8.714 8.752-8.714h6.787c.576 4.346 2.15 8.38 4.484 11.867H63.545v-3.153zm27.013-35.236H79.365v-7.91h15.95v5.149c-1.68.766-3.272 1.693-4.757 2.761zM46.88 7.911c4.82 0 8.742 3.916 8.753 8.733v67.744c-2.545-1.579-5.544-2.493-8.753-2.493H7.911V7.911h38.97zM7.911 89.805h38.97c4.82 0 8.742 3.917 8.753 8.734v3.133H7.91V89.805zm99.008 16.458c-11.123 0-20.171-9.049-20.171-20.171 0-11.123 9.048-20.17 20.171-20.17 11.122 0 20.171 9.047 20.171 20.17 0 11.122-9.049 20.171-20.171 20.171z"/>
    </g>
    <defs>
        <clipPath id="clip0">
            <path fill="#fff" d="M0 0H135V135H0z"/>
        </clipPath>
    </defs>
</svg>
