<svg width="135" height="135" viewBox="0 0 135 135" fill="none" xmlns="http://www.w3.org/2000/svg">
<g clip-path="url(#clip0)">
<path d="M19.7754 71.1938H43.7664C45.9506 71.1938 47.7215 69.423 47.7215 67.2388C47.7215 65.0545 45.9506 63.2837 43.7664 63.2837H19.7754C17.5911 63.2837 15.8203 65.0545 15.8203 67.2388C15.8203 69.423 17.5911 71.1938 19.7754 71.1938V71.1938Z" fill="#C2C2C2"/>
<path d="M75.4082 23.731H99.4008C101.585 23.731 103.356 21.9599 103.356 19.7759C103.356 17.5914 101.585 15.8208 99.4008 15.8208H75.4082C73.2239 15.8208 71.4531 17.5914 71.4531 19.7759C71.4531 21.9599 73.2239 23.731 75.4082 23.731V23.731Z" fill="#C2C2C2"/>
<path d="M19.7754 55.3726H43.7664C45.9506 55.3726 47.7215 53.6017 47.7215 51.4175C47.7215 49.2332 45.9506 47.4624 43.7664 47.4624H19.7754C17.5911 47.4624 15.8203 49.2332 15.8203 51.4175C15.8203 53.6017 17.5911 55.3726 19.7754 55.3726V55.3726Z" fill="#C2C2C2"/>
<path d="M75.4082 39.5518H99.4008C101.585 39.5518 103.356 37.7809 103.356 35.5967C103.356 33.4124 101.585 31.6416 99.4008 31.6416H75.4082C73.2239 31.6416 71.4531 33.4124 71.4531 35.5967C71.4531 37.7809 73.2239 39.5518 75.4082 39.5518V39.5518Z" fill="#C2C2C2"/>
<path d="M19.7754 39.5513H43.7664C45.9506 39.5513 47.7215 37.7802 47.7215 35.5962V19.7759C47.7215 17.5914 45.9506 15.8208 43.7664 15.8208H19.7754C17.5911 15.8208 15.8203 17.5914 15.8203 19.7759V35.5962C15.8203 37.7802 17.5911 39.5513 19.7754 39.5513V39.5513ZM23.7305 23.731H39.8113V31.6411H23.7305V23.731Z" fill="#C2C2C2"/>
<path d="M135 86.092C135 75.0009 128.536 65.3916 119.178 60.8319V3.95606C119.178 1.77153 117.407 0.000976562 115.223 0.000976562H72.2975C67.2086 0.000976562 62.6482 2.29598 59.5893 5.90275C56.5302 2.29598 51.9697 0.000976562 46.8811 0.000976562H3.95508C1.77082 0.000976562 0 1.77153 0 3.95606V105.627C0 107.811 1.77082 109.582 3.95508 109.582H59.5888H59.5898H91.55C94.9224 111.796 98.7971 113.303 102.964 113.893V131.045C102.964 133.229 104.735 135 106.919 135C109.103 135 110.874 133.229 110.874 131.045V113.893C124.492 111.965 135 100.233 135 86.092V86.092ZM72.2975 7.91113H111.268V58.3481C109.85 58.1267 108.398 58.0109 106.919 58.0109C105.667 58.0109 104.435 58.0942 103.226 58.254V51.4181C103.226 49.2338 101.455 47.463 99.2709 47.463H75.4102C73.2259 47.463 71.4551 49.2338 71.4551 51.4181V67.2384C71.4551 69.4226 73.2259 71.1934 75.4102 71.1934H83.1268C81.1194 74.3878 79.7362 78.0123 79.1517 81.8954H72.2978C69.0889 81.8954 66.0907 82.8095 63.5452 84.3871V16.6643C63.5452 16.6577 63.5447 16.6508 63.5447 16.6439C63.5555 11.8267 67.4779 7.91113 72.2975 7.91113V7.91113ZM63.5449 98.5186C63.5671 93.7105 67.4844 89.8055 72.2975 89.8055H79.0836C79.6605 94.1508 81.2344 98.1858 83.5679 101.672H63.5449V98.5186ZM90.5578 63.2833H79.3652V55.3731H95.3158V60.5219C93.6349 61.2881 92.0426 62.2152 90.5578 63.2833V63.2833ZM46.8811 7.91113C51.7008 7.91113 55.6232 11.8267 55.6342 16.6439C55.6342 16.6508 55.6337 16.6577 55.6337 16.6643C55.6337 16.6711 55.6348 16.6777 55.6348 16.6846V84.3878C53.089 82.8095 50.0905 81.8954 46.8811 81.8954H7.91016V7.91113H46.8811ZM7.91016 89.8055H46.8811C51.7008 89.8055 55.6232 93.7216 55.6342 98.5386C55.6342 98.5452 55.6337 98.552 55.6337 98.5592C55.6337 98.5657 55.6348 98.5726 55.6348 98.5792V101.672H7.91016V89.8055ZM106.919 106.263C95.7965 106.263 86.748 97.2144 86.748 86.092C86.748 74.9695 95.7965 65.9211 106.919 65.9211C118.041 65.9211 127.09 74.9695 127.09 86.092C127.09 97.2142 118.041 106.263 106.919 106.263Z" fill="#C2C2C2"/>
</g>
<defs>
<clipPath id="clip0">
<rect width="135" height="135" fill="white"/>
</clipPath>
</defs>
</svg>
