<svg xmlns="http://www.w3.org/2000/svg" width="14" height="18" fill="none" viewBox="0 0 14 18">
    <path fill="#43B331" fill-rule="evenodd" d="M14 2.734v10.323c0 .377-.29.683-.65.683-.358 0-.65-.306-.65-.683V2.734c0-.753-.582-1.367-1.298-1.367H4.19c-.359 0-.65-.306-.65-.683 0-.378.291-.684.65-.684h7.212C12.834 0 14 1.227 14 2.734zM8.803 17.5H2.599C1.166 17.5 0 16.273 0 14.766V5.503c0-1.508 1.166-2.734 2.599-2.734h6.204c1.433 0 2.598 1.226 2.598 2.734v9.263c0 1.507-1.165 2.734-2.598 2.734zM2.598 4.136c-.716 0-1.299.613-1.299 1.367v9.263c0 .753.583 1.367 1.3 1.367h6.204c.716 0 1.299-.614 1.299-1.367V5.503c0-.754-.583-1.367-1.3-1.367H2.599z" clip-rule="evenodd"/>
    <path fill="#43B331" d="M6.625 10.713c-.062 0-.113.05-.113.113V13.3H5.387v-2.475c0-.062-.05-.113-.112-.113H2.8V9.588h2.475c.062 0 .112-.05.112-.112V7h1.125v2.475c0 .062.05.112.113.112H9.1v1.125H6.625z"/>
</svg>
