<svg xmlns="http://www.w3.org/2000/svg" width="126" height="126" fill="none" viewBox="0 0 126 126">
    <g fill="#34559C" clip-path="url(#clip0)">
        <path d="M73.582 78.012c2.718 0 4.922-2.204 4.922-4.922 0-2.718-2.204-4.922-4.922-4.922-2.718 0-4.922 2.204-4.922 4.922 0 2.718 2.204 4.922 4.922 4.922zM100.797 71.257L73.776 98.22c-.574.573-.998 1.279-1.233 2.054l-5.885 19.374c-.522 1.717-.067 3.583 1.186 4.867.94.963 2.215 1.485 3.524 1.485.438 0 .88-.058 1.313-.179l19.866-5.503c.818-.226 1.563-.66 2.163-1.259l26.966-26.915c5.757-5.757 5.757-15.124 0-20.882-5.757-5.756-15.125-5.756-20.879-.004zm-12.124 39.919l-9.995 2.769 2.925-9.629 18.233-18.193 6.962 6.962-18.125 18.091zm26.046-25.997l-.954.952-6.961-6.96.951-.949c1.919-1.92 5.041-1.92 6.96 0 1.919 1.92 1.919 5.041.004 6.957zM52.172 99.422c2.718 0 4.922-2.204 4.922-4.922 0-2.718-2.204-4.922-4.922-4.922-2.718 0-4.922 2.204-4.922 4.922 0 2.718 2.204 4.922 4.922 4.922zM52.172 78.012c2.718 0 4.922-2.204 4.922-4.922 0-2.718-2.204-4.922-4.922-4.922-2.718 0-4.922 2.204-4.922 4.922 0 2.718 2.204 4.922 4.922 4.922zM52.172 56.602c2.718 0 4.922-2.204 4.922-4.922 0-2.719-2.204-4.922-4.922-4.922-2.718 0-4.922 2.203-4.922 4.922 0 2.718 2.204 4.922 4.922 4.922zM30.762 78.012c2.718 0 4.922-2.204 4.922-4.922 0-2.718-2.204-4.922-4.922-4.922-2.719 0-4.922 2.204-4.922 4.922 0 2.718 2.203 4.922 4.922 4.922zM30.762 99.422c2.718 0 4.922-2.204 4.922-4.922 0-2.718-2.204-4.922-4.922-4.922-2.719 0-4.922 2.204-4.922 4.922 0 2.718 2.203 4.922 4.922 4.922zM30.762 56.602c2.718 0 4.922-2.204 4.922-4.922 0-2.719-2.204-4.922-4.922-4.922-2.719 0-4.922 2.203-4.922 4.922 0 2.718 2.203 4.922 4.922 4.922zM94.992 56.602c2.718 0 4.922-2.204 4.922-4.922 0-2.719-2.204-4.922-4.922-4.922-2.718 0-4.922 2.203-4.922 4.922 0 2.718 2.204 4.922 4.922 4.922z"/>
        <path d="M106.312 9.844h-6.398V4.922C99.914 2.204 97.71 0 94.992 0c-2.718 0-4.922 2.204-4.922 4.922v4.922H67.676V4.922C67.676 2.204 65.472 0 62.754 0c-2.719 0-4.922 2.204-4.922 4.922v4.922H35.684V4.922C35.684 2.204 33.48 0 30.762 0c-2.719 0-4.922 2.204-4.922 4.922v4.922h-6.152C8.832 9.844 0 18.676 0 29.53v76.781C0 117.168 8.832 126 19.688 126H49.71c2.718 0 4.922-2.204 4.922-4.922 0-2.718-2.204-4.922-4.922-4.922H19.688c-5.428 0-9.844-4.416-9.844-9.844v-76.78c0-5.429 4.416-9.845 9.844-9.845h6.152v4.922c0 2.719 2.203 4.922 4.922 4.922 2.718 0 4.922-2.203 4.922-4.922v-4.922h22.148v4.922c0 2.719 2.203 4.922 4.922 4.922 2.718 0 4.922-2.203 4.922-4.922v-4.922H90.07v4.922c0 2.719 2.204 4.922 4.922 4.922 2.718 0 4.922-2.203 4.922-4.922v-4.922h6.398c5.428 0 9.844 4.416 9.844 9.844V51.68c0 2.718 2.204 4.922 4.922 4.922 2.718 0 4.922-2.204 4.922-4.922V29.53c0-10.855-8.832-19.687-19.688-19.687z"/>
        <path d="M73.582 56.602c2.718 0 4.922-2.204 4.922-4.922 0-2.719-2.204-4.922-4.922-4.922-2.718 0-4.922 2.203-4.922 4.922 0 2.718 2.204 4.922 4.922 4.922z"/>
    </g>
    <defs>
        <clipPath id="clip0">
            <path fill="#fff" d="M0 0H126V126H0z"/>
        </clipPath>
    </defs>
</svg>
