<svg width="18" height="18" viewBox="0 0 18 18" fill="none" xmlns="http://www.w3.org/2000/svg">
<path d="M10.5117 8.08593C10.9 8.08593 11.2148 7.77114 11.2148 7.38281C11.2148 6.99449 10.9 6.67969 10.5117 6.67969C10.1234 6.67969 9.80859 6.99449 9.80859 7.38281C9.80859 7.77114 10.1234 8.08593 10.5117 8.08593Z" fill="white"/>
<path d="M10.5117 11.1445C10.9 11.1445 11.2148 10.8297 11.2148 10.4414C11.2148 10.0531 10.9 9.73828 10.5117 9.73828C10.1234 9.73828 9.80859 10.0531 9.80859 10.4414C9.80859 10.8297 10.1234 11.1445 10.5117 11.1445Z" fill="white"/>
<path d="M13.5703 8.08593C13.9586 8.08593 14.2734 7.77114 14.2734 7.38281C14.2734 6.99449 13.9586 6.67969 13.5703 6.67969C13.182 6.67969 12.8672 6.99449 12.8672 7.38281C12.8672 7.77114 13.182 8.08593 13.5703 8.08593Z" fill="white"/>
<path d="M17.2968 8.78905C17.6852 8.78905 18 8.47426 18 8.08592V4.21874C18 2.66793 16.7383 1.40625 15.1875 1.40625H14.2734V0.703124C14.2734 0.314788 13.9586 0 13.5703 0C13.182 0 12.8672 0.314788 12.8672 0.703124V1.40625H9.66795V0.703124C9.66795 0.314788 9.35316 0 8.96483 0C8.57649 0 8.2617 0.314788 8.2617 0.703124V1.40625H5.09765V0.703124C5.09765 0.314788 4.78286 0 4.39452 0C4.00619 0 3.6914 0.314788 3.6914 0.703124V1.40625H2.81249C1.26169 1.40625 0 2.66793 0 4.21874V15.1875C0 16.7383 1.26169 18 2.81249 18H11.6719C11.6958 18 11.7195 17.9987 11.7428 17.9964C11.7659 17.9987 11.7891 18 11.8123 18C11.9998 18 12.1838 17.9249 12.3189 17.7846L17.8033 12.0893C17.9989 11.8861 18.0542 11.5858 17.9439 11.3263C17.8335 11.0669 17.5788 10.8984 17.2968 10.8984H13.9218C12.371 10.8984 11.1094 12.1601 11.1094 13.7109V16.5937H2.81249C2.03709 16.5937 1.40625 15.9629 1.40625 15.1875V4.21874C1.40625 3.44334 2.03709 2.81249 2.81249 2.81249H3.6914V3.51562C3.6914 3.90395 4.00619 4.21874 4.39452 4.21874C4.78286 4.21874 5.09765 3.90395 5.09765 3.51562V2.81249H8.2617V3.51562C8.2617 3.90395 8.57649 4.21874 8.96483 4.21874C9.35316 4.21874 9.66795 3.90395 9.66795 3.51562V2.81249H12.8672V3.51562C12.8672 3.90395 13.182 4.21874 13.5703 4.21874C13.9586 4.21874 14.2734 3.90395 14.2734 3.51562V2.81249H15.1875C15.9629 2.81249 16.5937 3.44334 16.5937 4.21874V8.08592C16.5937 8.47426 16.9085 8.78905 17.2968 8.78905ZM12.5156 13.7109C12.5156 12.9355 13.1464 12.3047 13.9218 12.3047H15.6436L12.5156 15.553V13.7109Z" fill="white"/>
<path d="M4.39453 8.08593C4.78285 8.08593 5.09765 7.77114 5.09765 7.38281C5.09765 6.99449 4.78285 6.67969 4.39453 6.67969C4.00621 6.67969 3.69141 6.99449 3.69141 7.38281C3.69141 7.77114 4.00621 8.08593 4.39453 8.08593Z" fill="white"/>
<path d="M7.45312 11.1445C7.84145 11.1445 8.15625 10.8297 8.15625 10.4414C8.15625 10.0531 7.84145 9.73828 7.45312 9.73828C7.0648 9.73828 6.75 10.0531 6.75 10.4414C6.75 10.8297 7.0648 11.1445 7.45312 11.1445Z" fill="white"/>
<path d="M4.39453 14.2031C4.78285 14.2031 5.09765 13.8883 5.09765 13.5C5.09765 13.1117 4.78285 12.7969 4.39453 12.7969C4.00621 12.7969 3.69141 13.1117 3.69141 13.5C3.69141 13.8883 4.00621 14.2031 4.39453 14.2031Z" fill="white"/>
<path d="M4.39453 11.1445C4.78285 11.1445 5.09765 10.8297 5.09765 10.4414C5.09765 10.0531 4.78285 9.73828 4.39453 9.73828C4.00621 9.73828 3.69141 10.0531 3.69141 10.4414C3.69141 10.8297 4.00621 11.1445 4.39453 11.1445Z" fill="white"/>
<path d="M7.45312 14.2031C7.84145 14.2031 8.15625 13.8883 8.15625 13.5C8.15625 13.1117 7.84145 12.7969 7.45312 12.7969C7.0648 12.7969 6.75 13.1117 6.75 13.5C6.75 13.8883 7.0648 14.2031 7.45312 14.2031Z" fill="white"/>
<path d="M7.45312 8.08593C7.84145 8.08593 8.15625 7.77114 8.15625 7.38281C8.15625 6.99449 7.84145 6.67969 7.45312 6.67969C7.0648 6.67969 6.75 6.99449 6.75 7.38281C6.75 7.77114 7.0648 8.08593 7.45312 8.08593Z" fill="white"/>
</svg>
