<svg xmlns="http://www.w3.org/2000/svg" width="19" height="19" fill="none" viewBox="0 0 19 19">
    <path fill="#fff" d="M18.258 13.063c.41 0 .742-.333.742-.743V4.453c0-1.637-1.332-2.969-2.969-2.969h-.965V.742c0-.41-.332-.742-.742-.742s-.742.332-.742.742v.742h-3.377V.742c0-.41-.332-.742-.742-.742S8.72.332 8.72.742v.742H5.38V.742C5.38.332 5.049 0 4.639 0s-.743.332-.743.742v.742H2.97C1.332 1.484 0 2.816 0 4.454V16.03C0 17.668 1.332 19 2.969 19H16.03C17.668 19 19 17.668 19 16.031c0-.41-.332-.742-.742-.742s-.742.332-.742.742c0 .819-.666 1.485-1.485 1.485H2.97c-.819 0-1.485-.666-1.485-1.485V4.453c0-.818.666-1.484 1.485-1.484h.927v.742c0 .41.333.742.743.742s.742-.332.742-.742v-.742h3.34v.742c0 .41.332.742.742.742s.742-.332.742-.742v-.742h3.377v.742c0 .41.332.742.742.742s.742-.332.742-.742v-.742h.965c.819 0 1.485.666 1.485 1.484v7.867c0 .41.332.742.742.742z"/>
    <path fill="#fff" d="M4.639 8.535c.41 0 .742-.332.742-.742s-.332-.742-.742-.742-.743.332-.743.742.333.742.743.742zM11.096 8.535c.41 0 .742-.332.742-.742s-.332-.742-.742-.742-.742.332-.742.742.332.742.742.742zM14.324 8.535c.41 0 .742-.332.742-.742s-.332-.742-.742-.742-.742.332-.742.742.332.742.742.742zM4.639 11.764c.41 0 .742-.333.742-.742 0-.41-.332-.743-.742-.743s-.743.333-.743.742c0 .41.333.743.743.743zM4.639 14.992c.41 0 .742-.332.742-.742s-.332-.742-.742-.742-.743.332-.743.742.333.742.743.742zM7.867 8.535c.41 0 .742-.332.742-.742s-.332-.742-.742-.742-.742.332-.742.742.332.742.742.742zM7.867 11.764c.41 0 .742-.333.742-.742 0-.41-.332-.743-.742-.743s-.742.333-.742.742c0 .41.332.743.742.743zM7.867 14.992c.41 0 .742-.332.742-.742s-.332-.742-.742-.742-.742.332-.742.742.332.742.742.742zM11.096 11.764c.41 0 .742-.333.742-.742 0-.41-.332-.743-.742-.743s-.742.333-.742.742c0 .41.332.743.742.743zM14.324 11.764c.41 0 .742-.333.742-.742 0-.41-.332-.743-.742-.743s-.742.333-.742.742c0 .41.332.743.742.743zM11.096 14.992c.41 0 .742-.332.742-.742s-.332-.742-.742-.742-.742.332-.742.742.332.742.742.742z"/>
</svg>
