<svg width="20" height="20" viewBox="0 0 20 20" fill="none" xmlns="http://www.w3.org/2000/svg">
<g clip-path="url(#clip0)">
<path d="M18.2692 4.80819V3.46143C18.2692 2.50708 17.4928 1.73066 16.5385 1.73066H8.4385L8.13623 1.23704C8.03135 1.06581 7.84504 0.961426 7.64423 0.961426H1.73077C0.776423 0.961426 0 1.73785 0 2.69219V17.3076C0 18.2619 0.776423 19.0383 1.73077 19.0383H18.2692C19.2236 19.0383 20 18.2619 20 17.3076V6.53896C20 5.58462 19.2236 4.80819 18.2692 4.80819V4.80819ZM16.5385 2.8845C16.8566 2.8845 17.1154 3.14331 17.1154 3.46143V4.80758H10.3228L9.55073 3.54677L9.14512 2.8845H16.5385ZM18.8462 17.3076C18.8462 17.6257 18.5873 17.8845 18.2692 17.8845H1.73077C1.41265 17.8845 1.15385 17.6257 1.15385 17.3076V2.69219C1.15385 2.37408 1.41265 2.11527 1.73077 2.11527H7.32104L7.62327 2.60877C7.62331 2.60881 7.62331 2.60885 7.62335 2.60889L8.73554 4.425L9.50804 5.68643C9.61292 5.85766 9.79923 5.96204 10 5.96204H18.2693C18.5874 5.96204 18.8462 6.22085 18.8462 6.53896V17.3076H18.8462Z" fill="white"/>
<path d="M13.7386 9.51418C13.0055 8.90322 11.9119 9.00264 11.301 9.73579L9.24616 12.2016L8.40774 11.5728C7.64424 11.0002 6.55727 11.1555 5.98466 11.9189C5.41204 12.6824 5.56735 13.7694 6.33081 14.342L9.36162 16.6151C9.4652 16.6928 9.58674 16.7305 9.70743 16.7305C9.87312 16.7305 10.0372 16.6594 10.151 16.5229L13.9602 11.9518C14.5712 11.2186 14.4718 10.1251 13.7386 9.51418V9.51418ZM13.0738 11.2131L9.61543 15.3632L7.02312 13.4189C6.89981 13.3265 6.81993 13.1916 6.79816 13.039C6.77639 12.8864 6.81527 12.7345 6.90774 12.6113C7.02093 12.4603 7.19443 12.3807 7.37001 12.3807C7.49047 12.3807 7.61189 12.4182 7.71543 12.4959L8.99231 13.4535C9.23801 13.6378 9.58504 13.5973 9.78166 13.3613L12.1874 10.4745C12.391 10.2301 12.7555 10.1969 12.9999 10.4006C13.1183 10.4993 13.1912 10.6381 13.2051 10.7916C13.2191 10.945 13.1725 11.0948 13.0738 11.2131V11.2131Z" fill="white"/>
</g>
<defs>
<clipPath id="clip0">
<rect width="20" height="20" fill="white"/>
</clipPath>
</defs>
</svg>
