<svg width="16" height="16" viewBox="0 0 16 16" fill="none" xmlns="http://www.w3.org/2000/svg">
<circle cx="8" cy="8" r="8" fill="#58C25D"/>
<path d="M8 2C4.6916 2 2 4.69164 2 8.00004C2 11.3084 4.6916 14 8 14C11.3084 14 14 11.3084 14 8.00004C14 4.69164 11.3084 2 8 2ZM8 12.9091C5.29309 12.9091 3.09091 10.7069 3.09091 8.00004C3.09091 5.29316 5.29309 3.09091 8 3.09091C10.7069 3.09091 12.9091 5.29316 12.9091 8.00004C12.9091 10.7069 10.7069 12.9091 8 12.9091Z" fill="white"/>
<path d="M7.99959 4.5459C7.59864 4.5459 7.27246 4.8723 7.27246 5.2735C7.27246 5.67433 7.59864 6.00044 7.99959 6.00044C8.40053 6.00044 8.72672 5.67433 8.72672 5.2735C8.72672 4.8723 8.40053 4.5459 7.99959 4.5459Z" fill="white"/>
<path d="M7.99956 7.09082C7.69832 7.09082 7.4541 7.33504 7.4541 7.63628V10.909C7.4541 11.2102 7.69832 11.4545 7.99956 11.4545C8.30079 11.4545 8.54501 11.2102 8.54501 10.909V7.63628C8.54501 7.33504 8.30079 7.09082 7.99956 7.09082Z" fill="white"/>
</svg>
