<svg xmlns="http://www.w3.org/2000/svg" width="87" height="81" fill="none" viewBox="0 0 87 81">
    <path fill="#C1C1C1" d="M87 13.701v18.015c0 1.877-1.521 3.398-3.398 3.398-1.877 0-3.399-1.521-3.399-3.398V13.7c0-3.748-3.05-6.798-6.797-6.798H13.594c-3.748 0-6.797 3.05-6.797 6.798v47.585c0 3.748 3.05 6.798 6.797 6.798h23.789c1.877 0 3.398 1.522 3.398 3.4 0 1.877-1.521 3.398-3.398 3.398h-23.79C6.099 74.882 0 68.783 0 61.286V13.701C0 6.204 6.098.105 13.594.105h59.812C80.902.105 87 6.205 87 13.701zM14.255 55.497c1.496 1.134 3.627.842 4.762-.653l4.827-6.362 8.968 11.343c.644.816 1.626 1.291 2.665 1.291h.004c1.04 0 2.023-.479 2.667-1.297l26.144-33.222 5.303 6.431c1.193 1.449 3.335 1.654 4.784.46 1.448-1.194 1.654-3.336.46-4.784l-7.987-9.687c-.654-.794-1.631-1.25-2.66-1.237-1.028.012-1.996.488-2.632 1.296L35.47 52.23l-9.016-11.405c-.652-.825-1.646-1.295-2.7-1.29-1.05.01-2.037.506-2.673 1.343l-7.479 9.857c-1.135 1.495-.842 3.628.652 4.763zM84.014 43.2c3.975 3.975 3.975 10.444 0 14.42L65.395 76.207c-.414.414-.929.713-1.494.87l-13.716 3.8c-.3.083-.605.123-.908.123-.903 0-1.784-.36-2.432-1.025-.866-.887-1.18-2.176-.82-3.361l4.064-13.38c.163-.536.455-1.023.851-1.418l18.658-18.62c3.973-3.972 10.44-3.972 14.416.004zM73.74 58.27l-4.807-4.807-12.59 12.563-2.019 6.65 6.9-1.912 12.516-12.493zm5.466-10.263c-1.324-1.326-3.48-1.326-4.805 0l-.657.654 4.807 4.807.658-.657c1.323-1.323 1.323-3.48-.002-4.804z"/>
</svg>
