<svg width="22" height="22" viewBox="0 0 22 22" fill="none" xmlns="http://www.w3.org/2000/svg">
<path d="M18.5625 0H15.2969C13.4014 0 11.8594 1.54206 11.8594 3.4375V6.70312C11.8594 8.59856 13.4014 10.1406 15.2969 10.1406H18.5625C20.4579 10.1406 22 8.59856 22 6.70312V3.4375C22 1.54206 20.4579 0 18.5625 0ZM20.2812 6.70312C20.2812 7.65084 19.5102 8.42188 18.5625 8.42188H15.2969C14.3492 8.42188 13.5781 7.65084 13.5781 6.70312V3.4375C13.5781 2.48978 14.3492 1.71875 15.2969 1.71875H18.5625C19.5102 1.71875 20.2812 2.48978 20.2812 3.4375V6.70312Z" fill="#58C25D"/>
<path d="M6.70312 0H3.4375C1.54206 0 0 1.54206 0 3.4375V6.70312C0 8.59856 1.54206 10.1406 3.4375 10.1406H6.70312C8.59856 10.1406 10.1406 8.59856 10.1406 6.70312V3.4375C10.1406 1.54206 8.59856 0 6.70312 0ZM8.42188 6.70312C8.42188 7.65084 7.65084 8.42188 6.70312 8.42188H3.4375C2.48978 8.42188 1.71875 7.65084 1.71875 6.70312V3.4375C1.71875 2.48978 2.48978 1.71875 3.4375 1.71875H6.70312C7.65084 1.71875 8.42188 2.48978 8.42188 3.4375V6.70312Z" fill="#58C25D"/>
<path d="M6.70312 11.8594H3.4375C1.54206 11.8594 0 13.4014 0 15.2969V18.5625C0 20.4579 1.54206 22 3.4375 22H6.70312C8.59856 22 10.1406 20.4579 10.1406 18.5625V15.2969C10.1406 13.4014 8.59856 11.8594 6.70312 11.8594ZM8.42188 18.5625C8.42188 19.5102 7.65084 20.2812 6.70312 20.2812H3.4375C2.48978 20.2812 1.71875 19.5102 1.71875 18.5625V15.2969C1.71875 14.3492 2.48978 13.5781 3.4375 13.5781H6.70312C7.65084 13.5781 8.42188 14.3492 8.42188 15.2969V18.5625Z" fill="#58C25D"/>
<path d="M21.1406 17.7031C20.666 17.7031 20.2812 18.0879 20.2812 18.5625C20.2812 19.5102 19.5102 20.2812 18.5625 20.2812H15.2969C14.3492 20.2812 13.5781 19.5102 13.5781 18.5625V15.2969C13.5781 14.3492 14.3492 13.5781 15.2969 13.5781H18.5625C19.2459 13.5781 19.8645 13.9828 20.1384 14.6092C20.3285 15.0441 20.8352 15.2424 21.2701 15.0523C21.705 14.8621 21.9033 14.3554 21.7132 13.9206C21.1656 12.6684 19.9289 11.8594 18.5625 11.8594H15.2969C13.4014 11.8594 11.8594 13.4014 11.8594 15.2969V18.5625C11.8594 20.4579 13.4014 22 15.2969 22H18.5625C20.4579 22 22 20.4579 22 18.5625C22 18.0879 21.6153 17.7031 21.1406 17.7031Z" fill="#58C25D"/>
</svg>
