<svg xmlns="http://www.w3.org/2000/svg" width="25" height="25" fill="none" viewBox="0 0 25 25">
    <g fill="#05beee" clip-path="url(#prefix__clip0)">
        <path d="M7.923 15.508H4.94c-.54 0-.979.439-.979.979s.438.978.979.978h2.983c.54 0 .978-.438.978-.978s-.438-.978-.978-.978zM12.08 11.596H4.94c-.54 0-.978.438-.978.978s.438.978.978.978h7.14c.54 0 .979-.438.979-.978s-.438-.978-.978-.978zM12.08 7.683H4.94c-.54 0-.978.438-.978.978s.438.979.978.979H12.08c.54 0 .979-.438.979-.979 0-.54-.438-.978-.979-.978z"/>
        <path d="M13.107 1.52H3.913C1.755 1.52 0 3.275 0 5.433v14.183c0 1.045.407 2.028 1.146 2.767.74.739 1.722 1.146 2.767 1.146l9.195-.003c2.157 0 3.912-1.755 3.912-3.912V5.433c0-2.158-1.755-3.913-3.913-3.913zm1.956 3.913v14.18c0 1.08-.877 1.957-1.956 1.957l-9.194.002c-.523 0-1.014-.203-1.384-.573-.37-.37-.573-.86-.573-1.383V5.433c0-1.079.878-1.956 1.957-1.956h9.194c1.079 0 1.956.877 1.956 1.956zM24.018 15.703c.54 0 .978-.437.979-.977L25 4.406c0-1.618-1.316-2.935-2.934-2.935S19.13 2.788 19.13 4.405l-.008 15.275c0 .194.057.384.165.545l1.896 2.83c.179.268.478.43.8.435h.013c.317 0 .614-.154.798-.413l2.018-2.846c.312-.441.209-1.052-.232-1.364-.44-.313-1.051-.209-1.364.232l-1.197 1.689-.94-1.404.006-12.582h1.957l-.003 7.923c0 .54.438.978.978.978zm-2.93-10.857v-.44c0-.54.438-.978.978-.978s.978.438.978.977v.441h-1.957z"/>
    </g>
    <defs>
        <clipPath id="prefix__clip0">
            <path fill="#fff" d="M0 0H25V25H0z"/>
        </clipPath>
    </defs>
</svg>
