<svg xmlns="http://www.w3.org/2000/svg" width="23" height="23" fill="none" viewBox="0 0 23 23">
    <path fill="#fff" d="M11.5 7.053c-3.096 0-5.615 2.519-5.615 5.615s2.519 5.615 5.615 5.615 5.615-2.519 5.615-5.615-2.519-5.615-5.615-5.615zm0 9.433c-2.105 0-3.818-1.713-3.818-3.818S9.395 8.85 11.5 8.85s3.818 1.713 3.818 3.818-1.713 3.818-3.818 3.818z"/>
    <path fill="#fff" d="M20.305 4.357H17c-.105 0-.2-.057-.248-.149l-.914-1.921-.008-.016c-.354-.708-1.066-1.148-1.857-1.148H9.09c-.791 0-1.503.44-1.857 1.148l-.008.016-.914 1.921c-.049.092-.143.15-.248.15H2.695C1.21 4.357 0 5.566 0 7.052v12.129c0 1.486 1.21 2.695 2.695 2.695h17.61c1.486 0 2.695-1.21 2.695-2.695V7.052c0-1.485-1.21-2.695-2.695-2.695zm.898 14.825c0 .495-.403.898-.898.898H2.695c-.495 0-.898-.403-.898-.898V7.052c0-.495.403-.898.898-.898h3.37c.791 0 1.503-.44 1.857-1.147l.007-.016.915-1.922c.048-.092.142-.15.247-.15h4.882c.104 0 .199.058.247.15l.915 1.922.007.016c.354.707 1.066 1.147 1.858 1.147h3.305c.495 0 .898.403.898.899v12.129z"/>
    <path fill="#fff" d="M19.406 7.951H17.61v1.797h1.797V7.951z"/>
</svg>
