<svg xmlns="http://www.w3.org/2000/svg" width="26" height="26" fill="none" viewBox="0 0 26 26">
    <path fill="#676767" d="M9.166 13.762h1.524v1.523H9.166v-1.523zM11.451 7.617c0 .433-.176.832-.496 1.125l-1.789 1.637v1.86h1.524V11.05l1.294-1.184c.63-.577.99-1.396.99-2.249 0-1.68-1.366-3.047-3.046-3.047-1.68 0-3.047 1.367-3.047 3.047h1.523c0-.84.684-1.523 1.524-1.523s1.523.683 1.523 1.523z"/>
    <path fill="#676767" d="M26 17.596c0-3.79-2.553-7.101-6.154-8.099C19.619 4.222 15.258 0 9.928 0 4.453 0 0 4.453 0 9.928c0 1.784.475 3.52 1.377 5.046l-1.34 4.845 4.845-1.34c1.401.829 2.983 1.296 4.615 1.366.998 3.601 4.309 6.155 8.099 6.155 1.512 0 2.983-.403 4.276-1.168l4.091 1.131-1.131-4.091C25.597 20.579 26 19.108 26 17.596zm-20.878-.764l-2.9.802.802-2.9-.183-.287c-.862-1.348-1.318-2.91-1.318-4.52 0-4.633 3.77-8.404 8.405-8.404 4.634 0 8.404 3.77 8.404 8.405 0 4.634-3.77 8.404-8.404 8.404-1.609 0-3.171-.456-4.52-1.317l-.286-.183zm18.657 6.947l-2.153-.596-.287.187c-1.114.724-2.409 1.107-3.743 1.107-2.979 0-5.596-1.926-6.524-4.688 4.562-.526 8.191-4.156 8.717-8.717 2.762.928 4.688 3.545 4.688 6.524 0 1.334-.383 2.629-1.107 3.743l-.187.287.596 2.152z"/>
</svg>
