<svg xmlns="http://www.w3.org/2000/svg" width="27" height="27" fill="none" viewBox="0 0 27 27">
    <path fill="#58C25D" d="M19.384 13.548c-.52-.247-1.049-.46-1.587-.637 1.744-1.31 2.875-3.395 2.875-5.74C20.672 3.218 17.455 0 13.5 0 9.545 0 6.328 3.217 6.328 7.172c0 2.347 1.133 4.434 2.881 5.743-1.601.528-3.104 1.348-4.42 2.43-2.41 1.983-4.088 4.75-4.72 7.79-.199.953.039 1.932.651 2.685.61.75 1.514 1.18 2.48 1.18h12.99c.582 0 1.054-.472 1.054-1.055 0-.582-.472-1.054-1.055-1.054H3.201c-.45 0-.722-.252-.844-.401-.21-.26-.292-.596-.223-.924 1.094-5.258 5.731-9.098 11.086-9.228.093.004.186.006.28.006.095 0 .189-.002.282-.006 1.641.039 3.22.413 4.696 1.115.526.25 1.155.026 1.405-.5s.027-1.155-.5-1.405zm-5.627-1.32c-.085-.002-.171-.002-.257-.002-.085 0-.17 0-.255.002-2.674-.133-4.808-2.35-4.808-5.056 0-2.792 2.272-5.063 5.063-5.063s5.063 2.271 5.063 5.063c0 2.705-2.133 4.922-4.806 5.056z"/>
    <path fill="#58C25D" d="M25.945 20.936h-2.9v-2.9c0-.583-.472-1.056-1.055-1.056-.582 0-1.054.473-1.054 1.055v2.9h-2.9c-.583 0-1.056.473-1.056 1.055 0 .583.473 1.055 1.055 1.055h2.9v2.9c0 .583.473 1.055 1.055 1.055.583 0 1.055-.472 1.055-1.055v-2.9h2.9c.583 0 1.055-.472 1.055-1.055 0-.582-.472-1.054-1.055-1.054z"/>
</svg>
