<svg xmlns="http://www.w3.org/2000/svg" width="30" height="30" fill="none" viewBox="0 0 30 30">
    <g fill="#34559C" clip-path="url(#prefix__clip0)">
        <path d="M26.743 9.553c.282-.414.447-.913.447-1.45v-.155c0-1.423-1.158-2.58-2.58-2.58-1.424 0-2.582 1.157-2.582 2.58v.154c0 .538.166 1.037.448 1.45-1.124.166-2.09.824-2.671 1.747-.582-.923-1.547-1.58-2.671-1.746.282-.414.447-.913.447-1.45v-.155c0-1.423-1.158-2.58-2.581-2.58s-2.581 1.157-2.581 2.58v.154c0 .538.165 1.037.447 1.45-1.124.166-2.09.824-2.67 1.747-.582-.923-1.548-1.58-2.672-1.746.282-.414.448-.913.448-1.45v-.155c0-1.423-1.158-2.58-2.581-2.58-1.424 0-2.581 1.157-2.581 2.58v.154c0 .538.165 1.037.447 1.45C1.417 9.825 0 11.413 0 13.328v3.027c0 1.39.988 2.552 2.298 2.824v8.396c0 1.014.825 1.84 1.84 1.84 1.013 0 1.839-.826 1.839-1.84v-.345c.207.081.432.126.667.126 1.014 0 1.84-.825 1.84-1.84v-6.337c.694-.144 1.297-.538 1.711-1.084.415.546 1.018.94 1.712 1.084v8.396c0 1.014.825 1.84 1.84 1.84 1.014 0 1.84-.826 1.84-1.84v-.345c.206.081.431.126.667.126 1.014 0 1.839-.825 1.839-1.84v-6.337c.694-.144 1.298-.538 1.712-1.084.414.546 1.018.94 1.712 1.084v1.388c0 .324.262.586.586.586.323 0 .586-.262.586-.586v-3.077h3.841v8.027c0 .368-.299.667-.667.667-.368 0-.668-.3-.668-.667V19.41c0-.323-.262-.586-.586-.586-.323 0-.586.263-.586.586v8.164c0 .368-.299.668-.667.668-.368 0-.667-.3-.667-.668v-2.399c0-.323-.263-.586-.586-.586-.324 0-.586.263-.586.586v2.4c0 1.013.825 1.838 1.839 1.838s1.84-.825 1.84-1.839v-.345c.206.081.431.126.667.126 1.014 0 1.839-.825 1.839-1.84v-6.337c1.31-.272 2.298-1.435 2.298-2.824v-3.027c0-1.914-1.417-3.503-3.257-3.774zM23.2 7.948c0-.777.632-1.409 1.41-1.409.776 0 1.409.632 1.409 1.41v.153c0 .777-.633 1.41-1.41 1.41-.777 0-1.409-.633-1.409-1.41v-.154zm-9.61 0c0-.777.633-1.409 1.41-1.409.777 0 1.41.632 1.41 1.41v.153c0 .777-.633 1.41-1.41 1.41-.777 0-1.41-.633-1.41-1.41v-.154zm-9.609 0c0-.777.633-1.409 1.41-1.409.777 0 1.409.632 1.409 1.41v.153c0 .777-.632 1.41-1.41 1.41-.776 0-1.409-.633-1.409-1.41v-.154zm3.33 17.568c0 .368-.299.667-.667.667-.368 0-.667-.3-.667-.667V19.41c0-.323-.263-.586-.586-.586-.324 0-.586.263-.586.586v8.164c0 .368-.3.668-.668.668-.368 0-.667-.3-.667-.668V17.49H7.31v8.027zm1.172-7.553v-4.14c0-.325-.262-.587-.586-.587-.323 0-.586.262-.586.586v2.495H3.47v-2.495c0-.324-.263-.586-.586-.586-.324 0-.586.262-.586.586v4.14c-.656-.24-1.126-.87-1.126-1.608v-3.027c0-1.458 1.186-2.644 2.643-2.644h3.151c1.458 0 2.643 1.186 2.643 2.644v3.027c0 .738-.47 1.369-1.126 1.609zm8.438 7.553c0 .368-.3.667-.668.667-.368 0-.667-.3-.667-.667V19.41c0-.323-.262-.586-.586-.586-.324 0-.586.263-.586.586v8.164c0 .368-.3.668-.667.668-.369 0-.668-.3-.668-.668V17.49h3.842v8.027zm1.172-7.553v-4.14c0-.325-.263-.587-.586-.587-.324 0-.586.262-.586.586v2.495h-3.842v-2.495c0-.324-.262-.586-.586-.586-.323 0-.586.262-.586.586v4.14c-.656-.24-1.126-.87-1.126-1.608v-3.027c0-1.458 1.186-2.644 2.644-2.644h3.15c1.458 0 2.644 1.186 2.644 2.644v3.027c0 .738-.47 1.369-1.126 1.609zm10.735-1.609c0 .738-.47 1.369-1.126 1.609v-4.14c0-.325-.262-.587-.586-.587-.323 0-.586.262-.586.586v2.495H22.69v-2.495c0-.324-.263-.586-.586-.586-.324 0-.586.262-.586.586v4.14c-.657-.24-1.126-.87-1.126-1.608v-3.027c0-1.458 1.185-2.644 2.643-2.644h3.15c1.458 0 2.644 1.186 2.644 2.644v3.027z"/>
        <path d="M22.102 23.453c.155 0 .306-.063.415-.171.109-.11.172-.26.172-.415 0-.155-.063-.305-.172-.414-.11-.11-.26-.172-.415-.172-.154 0-.305.062-.414.172-.109.109-.171.26-.171.414 0 .154.062.305.171.415.11.108.26.171.415.171z"/>
    </g>
    <defs>
        <clipPath id="prefix__clip0">
            <path fill="#fff" d="M0 0H30V30H0z"/>
        </clipPath>
    </defs>
</svg>
