<svg width="18" height="18" viewBox="0 0 18 18" fill="none" xmlns="http://www.w3.org/2000/svg">
<path d="M8.99551 18C4.023 18 0 13.9725 0 9.00002C0 4.02755 4.023 4.27405e-05 8.99551 4.27405e-05C13.968 4.27405e-05 18 4.02755 18 9.00002C18 13.9725 13.968 18 8.99551 18ZM8.99998 1.80001C5.022 1.80001 1.79997 5.022 1.79997 9.00002C1.79997 12.978 5.022 16.2 8.99998 16.2C12.978 16.2 16.2 12.978 16.2 9.00002C16.2 5.02204 12.978 1.80001 8.99998 1.80001Z" fill="white"/>
<path d="M9.9 6.2998H8.09999V4.49979H9.9V6.2998Z" fill="white"/>
<path d="M9.9 13.5H8.09999V8.10001H9.9V13.5Z" fill="white"/>
</svg>
