<?xml version="1.0" encoding="utf-8"?>
<!-- Generator: Adobe Illustrator 16.0.0, SVG Export Plug-In . SVG Version: 6.00 Build 0)  -->
<!DOCTYPE svg PUBLIC "-//W3C//DTD SVG 1.1//EN" "http://www.w3.org/Graphics/SVG/1.1/DTD/svg11.dtd">
<svg version="1.1" id="Capa_1" xmlns="http://www.w3.org/2000/svg" xmlns:xlink="http://www.w3.org/1999/xlink" x="0px" y="0px"
	 width="25px" height="25px" viewBox="0 0 25 25" enable-background="new 0 0 25 25" xml:space="preserve">
<g>
	<g>
		<defs>
			<rect id="SVGID_1_" width="25" height="25"/>
		</defs>
		<clipPath id="SVGID_2_">
			<use xlink:href="#SVGID_1_"  overflow="visible"/>
		</clipPath>
		<g clip-path="url(#SVGID_2_)">
			<path fill="#33BBAB" d="M17.207,20.396H7.793c-0.405,0-0.732,0.328-0.732,0.732s0.327,0.732,0.732,0.732h9.414
				c0.404,0,0.732-0.328,0.732-0.732S17.611,20.396,17.207,20.396z"/>
			<path fill="#33BBAB" d="M17.207,0H7.793c-2.134,0-3.87,1.736-3.87,3.87v17.26c0,2.134,1.736,3.87,3.87,3.87h9.414
				c2.134,0,3.87-1.736,3.87-3.87V3.87C21.077,1.736,19.341,0,17.207,0z M10.094,1.465h4.81V2.3c0,0.462-0.375,0.837-0.836,0.837
				H10.93c-0.461,0-0.837-0.375-0.837-0.837V1.464L10.094,1.465z M19.613,21.13c0,1.326-1.08,2.405-2.406,2.405H7.793
				c-1.327,0-2.406-1.079-2.406-2.405V3.87c0-1.326,1.08-2.405,2.406-2.405h0.836V2.3c0,1.27,1.033,2.302,2.302,2.302h3.137
				c1.27,0,2.302-1.033,2.302-2.302V1.464h0.837c1.326,0,2.404,1.079,2.404,2.405v17.26L19.613,21.13z"/>
			<path fill="#33BBAB" d="M16.37,14.24v-0.172c0-1.399-0.746-2.627-1.861-3.308c0.425-0.476,0.685-1.104,0.685-1.792
				c0-1.485-1.209-2.694-2.693-2.694c-1.485,0-2.694,1.209-2.694,2.694c0,0.688,0.26,1.316,0.685,1.792
				c-1.115,0.68-1.861,1.908-1.861,3.308v0.172c-0.911,0.307-1.57,1.169-1.57,2.183c0,1.269,1.033,2.3,2.301,2.3h6.278
				c1.269,0,2.301-1.031,2.301-2.3v-0.002C17.939,15.408,17.281,14.547,16.37,14.24L16.37,14.24z M12.5,7.74
				c0.678,0,1.229,0.552,1.229,1.229c0,0.677-0.551,1.229-1.229,1.229c-0.678,0-1.229-0.551-1.229-1.229
				C11.271,8.292,11.822,7.74,12.5,7.74z M10.094,14.068c0-1.326,1.08-2.405,2.406-2.405s2.406,1.079,2.406,2.405v0.053h-4.812
				V14.068z M9.361,17.258c-0.46,0-0.836-0.374-0.836-0.837c0-0.411,0.3-0.753,0.691-0.821l3.32,1.659L9.361,17.258L9.361,17.258z
				 M16.475,16.423c0,0.41-0.3,0.753-0.69,0.822l-3.32-1.66h3.175c0.461,0,0.836,0.375,0.836,0.836V16.423z"/>
		</g>
	</g>
</g>
</svg>
