<?xml version="1.0" encoding="utf-8"?>
<!-- Generator: Adobe Illustrator 16.0.0, SVG Export Plug-In . SVG Version: 6.00 Build 0)  -->
<!DOCTYPE svg PUBLIC "-//W3C//DTD SVG 1.1//EN" "http://www.w3.org/Graphics/SVG/1.1/DTD/svg11.dtd">
<svg version="1.1" id="Capa_1" xmlns="http://www.w3.org/2000/svg" xmlns:xlink="http://www.w3.org/1999/xlink" x="0px" y="0px"
	 width="34px" height="28px" viewBox="0 0 34 28" enable-background="new 0 0 34 28" xml:space="preserve">
<g>
	<defs>
		<rect id="SVGID_1_" width="28" height="28"/>
	</defs>
	<clipPath id="SVGID_2_">
		<use xlink:href="#SVGID_1_"  overflow="visible"/>
	</clipPath>
	<g clip-path="url(#SVGID_2_)">
		<path fill="#696969" d="M17.084,17.438h-6.202c-4.824,0-8.75,3.924-8.75,8.748v0.975c0,0.463,0.376,0.839,0.84,0.839h22.022
			c0.463,0,0.839-0.376,0.839-0.839v-0.975C25.833,21.361,21.908,17.438,17.084,17.438z M13.144,26.322H3.81v-0.137
			c0-3.899,3.173-7.071,7.073-7.071h2.263v7.208H13.144z M24.156,26.322H14.82v-7.208h2.264c3.9,0,7.072,3.172,7.072,7.071V26.322z"
			/>
		<path fill="#696969" d="M20.225,20.494h-3.354c-0.463,0-0.838,0.375-0.838,0.838v2.236c0,0.229,0.094,0.447,0.26,0.605
			l1.676,1.602c0.162,0.154,0.37,0.232,0.579,0.232c0.208,0,0.417-0.078,0.579-0.232l1.676-1.602c0.166-0.158,0.26-0.377,0.26-0.605
			v-2.236C21.063,20.869,20.688,20.494,20.225,20.494z M19.387,23.209l-0.839,0.801l-0.838-0.8v-1.04h1.677V23.209L19.387,23.209z
			 M6.806,5.87L7.31,8.005C7.338,8.123,7.397,8.229,7.475,8.32l0.008,0.009c0.01,0.011,0.02,0.023,0.031,0.033l0.02,0.021
			C7.745,8.589,7.971,8.78,8.211,8.957c-0.082,0.39-0.125,0.796-0.125,1.21c0,3.252,2.645,5.897,5.897,5.897
			c3.251,0,5.897-2.646,5.897-5.896c0-0.415-0.043-0.82-0.125-1.211c0.233-0.172,0.452-0.357,0.659-0.556
			c0.088-0.077,0.16-0.173,0.206-0.287l0.01-0.023l0.002-0.005c0.022-0.057,0.327-1.365,0.468-1.958
			c0.125-0.531,0.469-1.357,0.17-1.866c-0.275-0.465-0.647-0.895-1.011-1.293c-0.653-0.718-1.417-1.354-2.25-1.853
			c-2.251-1.344-4.963-1.479-7.337-0.378C9.108,1.462,7.759,2.705,6.79,4.122c-0.178,0.26-0.267,0.501-0.197,0.844
			C6.655,5.269,6.735,5.569,6.806,5.87z M18.204,10.168c0,2.327-1.894,4.22-4.221,4.22c-2.327,0-4.22-1.893-4.22-4.22
			c0-0.115,0.005-0.229,0.014-0.342c1.184,0.481,2.59,0.724,4.206,0.724c1.617,0,3.022-0.243,4.207-0.724
			C18.198,9.939,18.204,10.053,18.204,10.168z M9.459,7.783c1.121-0.726,2.638-1.092,4.524-1.092c1.886,0,3.402,0.367,4.524,1.091
			c-1.122,0.726-2.638,1.092-4.524,1.092C12.097,8.874,10.58,8.508,9.459,7.783L9.459,7.783z M13.979,1.656
			c3.818,0,5.691,3.228,5.691,3.228L19.332,6.32c-1.384-0.867-3.176-1.305-5.35-1.305c-2.172,0-3.964,0.438-5.348,1.305L8.295,4.884
			C8.295,4.884,10.161,1.656,13.979,1.656z"/>
		<path fill="#696969" d="M13.982,4.262c0.44,0,0.86-0.385,0.838-0.838c-0.02-0.454-0.367-0.838-0.837-0.838
			c-0.439,0-0.859,0.386-0.839,0.838C13.164,3.878,13.513,4.262,13.982,4.262z"/>
	</g>
</g>
</svg>
