<svg width="128" height="128" viewBox="0 0 128 128" fill="none" xmlns="http://www.w3.org/2000/svg">
<g clip-path="url(#clip0)">
<path d="M74.1159 84.1494C70.986 81.9658 67.6413 80.1866 64.1432 78.8272C68.7966 74.5977 71.8835 68.6729 72.4206 62.0401C79.4772 55.1641 88.7272 51.3945 98.6433 51.3945C106.384 51.3945 113.817 53.7256 120.139 58.1348C122.405 59.7149 125.52 59.1602 127.1 56.8946C128.679 54.6299 128.125 51.5137 125.86 49.9346C122.73 47.751 119.384 45.9727 115.886 44.6123C121.021 39.9453 124.25 33.2158 124.25 25.7471C124.25 11.6875 112.812 0.25 98.7526 0.25C84.694 0.25 73.2565 11.6875 73.2565 25.7471C73.2565 33.1856 76.4587 39.8906 81.5583 44.5557C80.86 44.8242 80.1657 45.1084 79.4782 45.4111C76.3493 46.7881 73.4079 48.4815 70.6725 50.4697C66.9001 41.0977 57.7155 34.4649 47.0094 34.4649C32.9508 34.4649 21.5124 45.9024 21.5124 59.961C21.5124 67.3789 24.6969 74.0655 29.7692 78.7285C16.2077 83.8096 5.21157 94.7227 0.735007 108.641C-0.749369 113.256 0.0367642 118.15 2.89223 122.069C5.7477 125.987 10.1657 128.234 15.0133 128.234H58.5085C61.2692 128.234 63.5075 125.996 63.5075 123.234C63.5075 120.474 61.2692 118.235 58.5085 118.235H15.0133C13.3971 118.235 11.9245 117.486 10.9723 116.18C10.0202 114.873 9.75845 113.241 10.2526 111.702C15.194 96.3389 30.2643 85.6094 46.9001 85.6094C54.6403 85.6094 62.0739 87.9405 68.3962 92.3496C70.6608 93.9297 73.777 93.3741 75.3571 91.1094C76.9362 88.8448 76.3815 85.7285 74.1159 84.1494V84.1494ZM98.7526 10.249C107.299 10.249 114.251 17.2012 114.251 25.7471C114.251 34.292 107.299 41.2451 98.7526 41.2451C90.2077 41.2451 83.2546 34.292 83.2546 25.7471C83.2546 17.2012 90.2077 10.249 98.7526 10.249ZM47.0094 44.4629C55.5553 44.4629 62.5075 51.416 62.5075 59.961C62.5075 68.5069 55.5553 75.459 47.0094 75.459C38.4635 75.459 31.5114 68.5069 31.5114 59.961C31.5114 51.416 38.4635 44.4629 47.0094 44.4629V44.4629ZM128 104.487C128 107.248 125.761 109.486 123 109.486H109.252V123.234C109.252 125.996 107.013 128.234 104.253 128.234C101.491 128.234 99.2526 125.996 99.2526 123.234V109.486H85.5046C82.7438 109.486 80.5056 107.248 80.5056 104.487C80.5056 101.726 82.7438 99.4873 85.5046 99.4873H99.2526V85.7393C99.2526 82.9785 101.491 80.7403 104.253 80.7403C107.013 80.7403 109.252 82.9785 109.252 85.7393V99.4873H123C125.761 99.4873 128 101.726 128 104.487V104.487Z" fill="#C2C2C2"/>
</g>
<defs>
<clipPath id="clip0">
<rect width="128" height="128" fill="white"/>
</clipPath>
</defs>
</svg>
