<svg xmlns="http://www.w3.org/2000/svg" width="26" height="26" fill="none" viewBox="0 0 26 26">
    <g clip-path="url(#clip0)">
        <path fill="#fff" d="M18.235 11.494l-5.618 6.58c-1.08 1.265-2.978 1.414-4.243.335-1.264-1.08-1.414-2.978-.335-4.243l6.107-7.153c.674-.79 1.862-.883 2.652-.209s.883 1.862.209 2.652l-5.13 6.008c-.268.315-.746.352-1.06.084-.315-.269-.353-.746-.084-1.061l4.641-5.436-.858-.733-4.641 5.436c-.674.79-.58 1.978.209 2.652.79.674 1.978.58 2.652-.21l5.13-6.007c1.079-1.265.93-3.164-.335-4.243-1.265-1.08-3.164-.93-4.243.335L7.18 13.433c-1.485 1.74-1.28 4.349.46 5.834 1.74 1.485 4.35 1.28 5.834-.46l5.618-6.58-.858-.733z"/>
    </g>
    <defs>
        <clipPath id="clip0">
            <path fill="#fff" d="M0 0H18.057V18.057H0z" transform="rotate(40.489 5.862 15.895)"/>
        </clipPath>
    </defs>
</svg>
