<?xml version="1.0" encoding="utf-8"?>
<!-- Generator: Adobe Illustrator 16.0.0, SVG Export Plug-In . SVG Version: 6.00 Build 0)  -->
<!DOCTYPE svg PUBLIC "-//W3C//DTD SVG 1.1//EN" "http://www.w3.org/Graphics/SVG/1.1/DTD/svg11.dtd">
<svg version="1.1" id="Capa_1" xmlns="http://www.w3.org/2000/svg" xmlns:xlink="http://www.w3.org/1999/xlink" x="0px" y="0px"
	 width="63.5px" height="54.841px" viewBox="548.5 605.431 63.5 54.841" enable-background="new 548.5 605.431 63.5 54.841"
	 xml:space="preserve">
<title>bag</title>
<g>
	<path fill="#999999" d="M609.114,635.737c-0.868,0-1.444,0.578-1.444,1.443v18.761c0,0.868-0.576,1.444-1.442,1.444h-51.955
		c-0.868,0-1.442-0.578-1.442-1.444v-18.761c0-0.868-0.578-1.443-1.444-1.443c-0.865,0-1.442,0.578-1.442,1.443v18.761
		c0,2.453,1.875,4.33,4.33,4.33h51.953c2.455,0,4.33-1.877,4.33-4.33v-18.761C610.557,636.315,609.979,635.737,609.114,635.737z"/>
	<path fill="#999999" d="M607.67,615.532h-54.84c-2.453,0-4.33,1.877-4.33,4.33v9.237c0.013,1.992,1.382,3.719,3.318,4.185
		l22.658,5.052v4.617c0,0.868,0.578,1.443,1.443,1.443h8.66c0.868,0,1.442-0.578,1.442-1.443v-4.617l22.659-5.052
		c1.937-0.466,3.307-2.193,3.318-4.186v-9.236C612,617.409,610.123,615.532,607.67,615.532z M583.136,641.511h-5.771v-5.773h5.771
		V641.511z M609.114,629.099c0,0.722-0.433,1.3-1.155,1.443l-21.937,4.914v-1.155c0-0.868-0.577-1.443-1.442-1.443h-8.66
		c-0.868,0-1.442,0.578-1.442,1.443v1.155l-21.937-4.914c-0.723-0.144-1.155-0.722-1.155-1.442v-9.237
		c0-0.868,0.578-1.442,1.444-1.442h54.84c0.868,0,1.444,0.576,1.444,1.442V629.099z"/>
	<path fill="#999999" d="M587.466,605.431h-14.432c-2.458,0-4.329,1.872-4.329,4.33v1.442c0,0.868,0.576,1.443,1.442,1.443
		c0.865,0,1.443-0.578,1.443-1.443v-1.442c0-0.868,0.578-1.444,1.443-1.444h14.432c0.868,0,1.443,0.578,1.443,1.444v1.442
		c0,0.868,0.577,1.443,1.442,1.443c0.866,0,1.443-0.578,1.443-1.443v-1.442C591.795,607.303,589.924,605.431,587.466,605.431z"/>
</g>
</svg>
