<svg xmlns="http://www.w3.org/2000/svg" width="14" height="14" fill="none" viewBox="0 0 14 14">
    <path fill="#34559C" d="M13.453 9.625c.302 0 .547-.245.547-.547V3.281c0-1.206-.981-2.187-2.188-2.187h-.71V.547c0-.302-.245-.547-.547-.547-.302 0-.547.245-.547.547v.547H7.52V.547C7.52.245 7.275 0 6.973 0c-.302 0-.547.245-.547.547v.547H3.965V.547C3.965.245 3.72 0 3.418 0c-.302 0-.547.245-.547.547v.547h-.683C.98 1.094 0 2.075 0 3.28v8.531C0 13.02.981 14 2.188 14h9.624C13.02 14 14 13.019 14 11.812c0-.301-.245-.546-.547-.546-.302 0-.547.245-.547.546 0 .604-.49 1.094-1.094 1.094H2.188c-.604 0-1.094-.49-1.094-1.094v-8.53c0-.604.49-1.095 1.093-1.095h.684v.547c0 .302.245.547.547.547.302 0 .547-.245.547-.547v-.546h2.46v.546c0 .302.246.547.548.547.302 0 .547-.245.547-.547v-.546h2.488v.546c0 .302.245.547.547.547.302 0 .547-.245.547-.547v-.546h.71c.604 0 1.094.49 1.094 1.093v5.797c0 .302.245.547.547.547z"/>
    <path fill="#34559C" d="M3.418 6.29c.302 0 .547-.246.547-.548 0-.302-.245-.547-.547-.547-.302 0-.547.245-.547.547 0 .302.245.547.547.547zM8.176 6.29c.302 0 .547-.246.547-.548 0-.302-.245-.547-.547-.547-.302 0-.547.245-.547.547 0 .302.245.547.547.547zM10.555 6.29c.302 0 .547-.246.547-.548 0-.302-.245-.547-.547-.547-.302 0-.547.245-.547.547 0 .302.245.547.547.547zM3.418 8.668c.302 0 .547-.245.547-.547 0-.302-.245-.547-.547-.547-.302 0-.547.245-.547.547 0 .302.245.547.547.547zM3.418 11.047c.302 0 .547-.245.547-.547 0-.302-.245-.547-.547-.547-.302 0-.547.245-.547.547 0 .302.245.547.547.547zM5.797 6.29c.302 0 .547-.246.547-.548 0-.302-.245-.547-.547-.547-.302 0-.547.245-.547.547 0 .302.245.547.547.547zM5.797 8.668c.302 0 .547-.245.547-.547 0-.302-.245-.547-.547-.547-.302 0-.547.245-.547.547 0 .302.245.547.547.547zM5.797 11.047c.302 0 .547-.245.547-.547 0-.302-.245-.547-.547-.547-.302 0-.547.245-.547.547 0 .302.245.547.547.547zM8.176 8.668c.302 0 .547-.245.547-.547 0-.302-.245-.547-.547-.547-.302 0-.547.245-.547.547 0 .302.245.547.547.547zM10.555 8.668c.302 0 .547-.245.547-.547 0-.302-.245-.547-.547-.547-.302 0-.547.245-.547.547 0 .302.245.547.547.547zM8.176 11.047c.302 0 .547-.245.547-.547 0-.302-.245-.547-.547-.547-.302 0-.547.245-.547.547 0 .302.245.547.547.547z"/>
</svg>
