<?xml version="1.0" encoding="utf-8"?>
<!-- Generator: Adobe Illustrator 16.0.0, SVG Export Plug-In . SVG Version: 6.00 Build 0)  -->
<!DOCTYPE svg PUBLIC "-//W3C//DTD SVG 1.1//EN" "http://www.w3.org/Graphics/SVG/1.1/DTD/svg11.dtd">
<svg version="1.1" id="Capa_1" xmlns="http://www.w3.org/2000/svg" xmlns:xlink="http://www.w3.org/1999/xlink" x="0px" y="0px"
	 width="612px" height="612px" viewBox="0 90 612 612" enable-background="new 0 90 612 612" xml:space="preserve">
<title>stop</title>
<g>
	<path fill="#D13737" d="M306,90C136.995,90,0,226.995,0,396c0,169.005,136.995,306,306,306c169.005,0,306-136.995,306-306
		C611.797,227.079,474.922,90.203,306,90z M306,663.75C158.128,663.75,38.25,543.872,38.25,396S158.128,128.25,306,128.25
		S573.75,248.128,573.75,396S453.813,663.595,306,663.75z"/>
	<path fill="#D13737" d="M454.757,247.243c-7.468-7.469-19.577-7.471-27.047-0.003c-0.001,0.001-0.002,0.002-0.003,0.003L306,368.95
		L184.293,247.243c-7.554-7.383-19.662-7.245-27.045,0.309c-7.088,7.251-7.284,18.775-0.447,26.264l0.466,0.478L278.962,396
		L157.243,517.707c-7.383,7.553-7.245,19.662,0.309,27.045c7.251,7.088,18.775,7.284,26.263,0.447l0.479-0.467L306,423.038
		l121.707,121.719c7.47,7.47,19.58,7.47,27.05,0s7.47-19.58,0-27.05L333.05,396l121.707-121.707
		c7.47-7.468,7.471-19.578,0.003-27.047C454.759,247.246,454.758,247.244,454.757,247.243z"/>
</g>
</svg>
