<svg width="96" height="96" viewBox="0 0 96 96" fill="none" xmlns="http://www.w3.org/2000/svg">
<g clip-path="url(#clip0)">
<path d="M48 38.8125C56.9948 38.8125 64.3125 31.4948 64.3125 22.5C64.3125 13.5052 56.9948 6.1875 48 6.1875C39.0052 6.1875 31.6875 13.5052 31.6875 22.5C31.6875 31.4948 39.0052 38.8125 48 38.8125ZM48 11.8125C53.8931 11.8125 58.6875 16.6069 58.6875 22.5C58.6875 28.3931 53.8931 33.1875 48 33.1875C42.1069 33.1875 37.3125 28.3931 37.3125 22.5C37.3125 16.6069 42.1069 11.8125 48 11.8125Z" fill="#C1C1C1"/>
<path d="M81 38.8125C86.6863 38.8125 91.3125 34.1863 91.3125 28.5C91.3125 22.8137 86.6863 18.1875 81 18.1875C75.3137 18.1875 70.6875 22.8137 70.6875 28.5C70.6875 34.1863 75.3137 38.8125 81 38.8125ZM81 23.8125C83.5847 23.8125 85.6875 25.9153 85.6875 28.5C85.6875 31.0847 83.5847 33.1875 81 33.1875C78.4153 33.1875 76.3125 31.0847 76.3125 28.5C76.3125 25.9153 78.4153 23.8125 81 23.8125Z" fill="#C1C1C1"/>
<path d="M83.2688 45.1875H78.9187C73.7927 45.1875 69.3677 48.216 67.3513 52.566C63.1999 48.0341 57.2368 45.1875 50.6211 45.1875H45.3791C38.7634 45.1875 32.8003 48.0341 28.6489 52.566C26.6323 48.216 22.2073 45.1875 17.0812 45.1875H12.7313C5.71125 45.1875 0 50.8642 0 57.8419V78.3188C0 81.348 2.47388 83.8125 5.51475 83.8125H22.7136C23.0019 87.1687 25.8242 89.8125 29.2541 89.8125H66.7461C70.1758 89.8125 72.9981 87.1687 73.2866 83.8125H90.2889C93.4382 83.8125 96.0002 81.2606 96.0002 78.1238V57.8419C96 50.8642 90.2888 45.1875 83.2688 45.1875V45.1875ZM5.625 57.8419C5.625 53.9659 8.81288 50.8125 12.7313 50.8125H17.0812C20.9996 50.8125 24.1875 53.9659 24.1875 57.8419V59.7677C22.2962 64.6922 22.6875 67.6434 22.6875 78.1875H5.625V57.8419ZM67.6875 83.2461C67.6875 83.7653 67.2653 84.1875 66.7461 84.1875H29.2539C28.7347 84.1875 28.3125 83.7651 28.3125 83.2461V67.8791C28.3125 58.4685 35.9685 50.8125 45.3789 50.8125H50.6209C60.0315 50.8125 67.6875 58.4685 67.6875 67.8789V83.2461ZM90.375 78.1238C90.375 78.2207 91.4235 78.1875 73.3125 78.1875C73.3125 67.5654 73.7008 64.6841 71.8125 59.7677V57.8419C71.8125 53.9659 75.0004 50.8125 78.9187 50.8125H83.2688C87.1871 50.8125 90.375 53.9659 90.375 57.8419V78.1238Z" fill="#C1C1C1"/>
<path d="M15 38.8125C20.6863 38.8125 25.3125 34.1863 25.3125 28.5C25.3125 22.8137 20.6863 18.1875 15 18.1875C9.31369 18.1875 4.6875 22.8137 4.6875 28.5C4.6875 34.1863 9.31369 38.8125 15 38.8125ZM15 23.8125C17.5847 23.8125 19.6875 25.9153 19.6875 28.5C19.6875 31.0847 17.5847 33.1875 15 33.1875C12.4153 33.1875 10.3125 31.0847 10.3125 28.5C10.3125 25.9153 12.4153 23.8125 15 23.8125Z" fill="#C1C1C1"/>
</g>
<defs>
<clipPath id="clip0">
<rect width="96" height="96" fill="white"/>
</clipPath>
</defs>
</svg>
