<?xml version="1.0" encoding="utf-8"?>
<!-- Generator: Adobe Illustrator 16.0.0, SVG Export Plug-In . SVG Version: 6.00 Build 0)  -->
<!DOCTYPE svg PUBLIC "-//W3C//DTD SVG 1.1//EN" "http://www.w3.org/Graphics/SVG/1.1/DTD/svg11.dtd">
<svg version="1.1" id="Capa_1" xmlns="http://www.w3.org/2000/svg" xmlns:xlink="http://www.w3.org/1999/xlink" x="0px" y="0px"
	 width="23.998px" height="24px" viewBox="587.979 678 23.998 24" enable-background="new 587.979 678 23.998 24"
	 xml:space="preserve">
<g>
	<g>
		<g>
			<path fill="#0D2F9B" d="M611.359,685.553c-0.822-0.822-2.16-0.822-2.983,0c-0.253,0.254-1.868,1.87-2.115,2.117v-5.572
				c0-0.563-0.22-1.093-0.618-1.491l-1.988-1.988c-0.398-0.398-0.928-0.618-1.491-0.618h-12.074c-1.163,0-2.109,0.946-2.109,2.109
				v19.781c0,1.163,0.946,2.109,2.109,2.109h14.063c1.163,0,2.109-0.946,2.109-2.109v-6.252l5.099-5.103
				C612.184,687.712,612.185,686.377,611.359,685.553z M602.042,679.406c0.133,0,0.389-0.023,0.618,0.206l1.988,1.988
				c0.224,0.224,0.206,0.468,0.206,0.618h-2.813V679.406z M604.854,699.891c0,0.388-0.315,0.703-0.703,0.703h-14.063
				c-0.388,0-0.703-0.315-0.703-0.703v-19.781c0-0.388,0.315-0.703,0.703-0.703h10.547v3.516c0,0.389,0.315,0.703,0.703,0.703h3.516
				v5.453l-2.074,2.076l-0.994,0.993c-0.077,0.077-0.135,0.172-0.17,0.275l-0.994,2.982c-0.084,0.253-0.019,0.531,0.17,0.72
				s0.467,0.254,0.72,0.17l2.982-0.994c0.104-0.034,0.198-0.093,0.275-0.17l0.085-0.085V699.891L604.854,699.891z M603.277,692.646
				l0.995,0.994l-0.38,0.38l-1.492,0.497l0.498-1.492L603.277,692.646z M605.267,692.645l-0.995-0.994
				c0.53-0.53,2.882-2.884,3.381-3.383l0.994,0.994L605.267,692.645z M610.365,687.542l-0.725,0.726l-0.995-0.995l0.726-0.726
				c0.274-0.273,0.72-0.273,0.994,0C610.64,686.821,610.641,687.266,610.365,687.542z"/>
		</g>
	</g>
	<g>
		<g>
			<path fill="#0D2F9B" d="M601.339,685.031h-9.844c-0.388,0-0.703,0.314-0.703,0.703s0.315,0.703,0.703,0.703h9.844
				c0.389,0,0.703-0.314,0.703-0.703S601.728,685.031,601.339,685.031z"/>
		</g>
	</g>
	<g>
		<g>
			<path fill="#0D2F9B" d="M598.526,687.844h-7.031c-0.388,0-0.703,0.314-0.703,0.703s0.315,0.703,0.703,0.703h7.031
				c0.389,0,0.703-0.314,0.703-0.703S598.915,687.844,598.526,687.844z"/>
		</g>
	</g>
	<g>
		<g>
			<path fill="#0D2F9B" d="M598.526,690.656h-7.031c-0.388,0-0.703,0.314-0.703,0.703s0.315,0.703,0.703,0.703h7.031
				c0.389,0,0.703-0.314,0.703-0.703S598.915,690.656,598.526,690.656z"/>
		</g>
	</g>
	<g>
		<g>
			<path fill="#0D2F9B" d="M598.526,693.469h-7.031c-0.388,0-0.703,0.314-0.703,0.703s0.315,0.703,0.703,0.703h7.031
				c0.389,0,0.703-0.314,0.703-0.703S598.915,693.469,598.526,693.469z"/>
		</g>
	</g>
	<g>
		<g>
			<path fill="#0D2F9B" d="M601.339,697.781h-4.219c-0.388,0-0.703,0.314-0.703,0.703s0.315,0.703,0.703,0.703h4.219
				c0.389,0,0.703-0.314,0.703-0.703S601.728,697.781,601.339,697.781z"/>
		</g>
	</g>
</g>
</svg>
