<svg xmlns="http://www.w3.org/2000/svg" width="18" height="18" fill="none" viewBox="0 0 18 18">
    <g clip-path="url(#clip0)">
        <path fill="#fff" d="M16.945 1.055C16.265.375 15.36 0 14.4 0c-.962 0-1.867.375-2.547 1.055L1.787 11.12c-.086.086-.148.192-.18.309l-1.581 5.68c-.068.244.001.507.181.686.134.133.313.205.496.205.064 0 .129-.009.192-.027l5.68-1.613c.24-.068.425-.258.488-.5.063-.24-.006-.496-.182-.673L3.3 11.596l8.342-8.344 3.103 3.103-6.387 6.37c-.275.274-.276.72-.001.994.274.275.72.276.994.002l7.593-7.573C17.625 5.468 18 4.563 18 3.601c0-.962-.375-1.866-1.055-2.546zM5.041 15.334l-3.324.944.93-3.345 2.394 2.4zm10.91-10.181l-.21.21-3.103-3.105.208-.209c.415-.414.966-.643 1.553-.643.586 0 1.137.229 1.552.643.414.415.643.966.643 1.552 0 .587-.229 1.138-.643 1.552z"/>
    </g>
    <defs>
        <clipPath id="clip0">
            <path fill="#fff" d="M0 0H18V18H0z"/>
        </clipPath>
    </defs>
</svg>
