<svg xmlns="http://www.w3.org/2000/svg" width="125" height="125" fill="none" viewBox="0 0 125 125">
    <g fill="#E3E3E3" clip-path="url(#clip0)">
        <path d="M86.049 53.71c0-2.696-2.186-4.882-4.883-4.882H30.873c-2.697 0-4.883 2.186-4.883 4.883s2.186 4.883 4.883 4.883h50.293c2.697 0 4.883-2.186 4.883-4.883zM30.873 68.36c-2.697 0-4.883 2.185-4.883 4.882 0 2.697 2.186 4.883 4.883 4.883h30.545c2.697 0 4.883-2.186 4.883-4.883s-2.186-4.883-4.883-4.883H30.873z"/>
        <path d="M42.348 115.234h-16.33c-5.385 0-9.766-4.38-9.766-9.765V19.531c0-5.384 4.38-9.765 9.766-9.765h60.031c5.385 0 9.766 4.38 9.766 9.765v30.03c0 2.696 2.186 4.882 4.883 4.882 2.696 0 4.882-2.186 4.882-4.883V19.531C105.58 8.761 96.819 0 86.05 0H26.017C15.248 0 6.486 8.762 6.486 19.531v85.938c0 10.769 8.762 19.531 19.532 19.531h16.33c2.697 0 4.883-2.186 4.883-4.883s-2.186-4.883-4.883-4.883z"/>
        <path d="M114.229 70.696c-5.711-5.711-15.004-5.711-20.712-.004L66.71 97.44c-.57.569-.99 1.268-1.223 2.038l-5.839 19.22c-.517 1.704-.066 3.554 1.177 4.829.932.955 2.198 1.473 3.496 1.473.434 0 .873-.058 1.303-.178l19.708-5.459c.811-.224 1.55-.655 2.146-1.249l26.751-26.701c5.712-5.712 5.712-15.005 0-20.717zm-32.741 39.599l-9.915 2.746 2.902-9.552L92.563 85.44l6.906 6.907-17.981 17.948zm25.84-25.79l-.946.944-6.906-6.906.943-.941c1.904-1.904 5.001-1.904 6.905 0s1.904 5.001.004 6.902zM81.166 29.297H30.873c-2.697 0-4.883 2.186-4.883 4.883s2.186 4.883 4.883 4.883h50.293c2.697 0 4.883-2.187 4.883-4.883 0-2.697-2.186-4.883-4.883-4.883z"/>
    </g>
    <defs>
        <clipPath id="clip0">
            <path fill="#fff" d="M0 0H125V125H0z"/>
        </clipPath>
    </defs>
</svg>
