<?xml version="1.0" encoding="utf-8"?>
<!-- Generator: Adobe Illustrator 16.0.0, SVG Export Plug-In . SVG Version: 6.00 Build 0)  -->
<!DOCTYPE svg PUBLIC "-//W3C//DTD SVG 1.1//EN" "http://www.w3.org/Graphics/SVG/1.1/DTD/svg11.dtd">
<svg version="1.1" id="Capa_1" xmlns="http://www.w3.org/2000/svg" xmlns:xlink="http://www.w3.org/1999/xlink" x="0px" y="0px"
	 width="28.487px" height="28.486px" viewBox="483.513 483.507 28.487 28.486"
	 enable-background="new 483.513 483.507 28.487 28.486" xml:space="preserve">
<g>
	<path fill="#6D6D6D" d="M511.268,486.059c-0.689-0.915-1.741-1.438-2.887-1.438h-0.484v-0.278c0-0.461-0.374-0.835-0.835-0.835
		s-0.835,0.374-0.835,0.835v2.226c0,0.46,0.374,0.834,0.835,0.834s0.835-0.374,0.835-0.834v-0.278h0.484
		c0.616,0,1.184,0.282,1.555,0.774s0.487,1.114,0.317,1.708l-2.215,7.752c-0.618,2.164-2.621,3.675-4.871,3.675
		s-4.253-1.511-4.871-3.675l-2.216-7.753c-0.169-0.593-0.053-1.215,0.318-1.707s0.938-0.774,1.555-0.774h0.484v0.277
		c0,0.461,0.374,0.835,0.835,0.835s0.834-0.374,0.834-0.835v-2.225c0-0.461-0.373-0.835-0.834-0.835s-0.835,0.374-0.835,0.835v0.277
		h-0.484c-1.146,0-2.197,0.524-2.888,1.439c-0.689,0.914-0.904,2.069-0.59,3.171l2.215,7.753c0.405,1.418,1.242,2.638,2.421,3.526
		c0.252,0.19,0.516,0.36,0.787,0.512l2.434,5.745v0.603c0,1.63-1.326,2.956-2.955,2.956c-1.631,0-2.956-1.326-2.956-2.956v-5.724
		c0-2.639-2.146-4.785-4.785-4.785s-4.785,2.146-4.785,4.785v1.976c-1.902,0.388-3.338,2.074-3.338,4.089
		c0,2.301,1.872,4.173,4.173,4.173s4.173-1.872,4.173-4.173c0-2.015-1.437-3.701-3.339-4.089v-1.976
		c0-1.718,1.398-3.115,3.116-3.115s3.115,1.397,3.115,3.115v5.724c0,2.55,2.075,4.625,4.626,4.625c2.55,0,4.624-2.075,4.624-4.625
		v-0.603l2.435-5.745c0.271-0.151,0.535-0.321,0.787-0.512c1.178-0.889,2.015-2.108,2.421-3.526l2.215-7.753
		C512.173,488.129,511.958,486.973,511.268,486.059L511.268,486.059z M490.19,507.709c0,1.381-1.123,2.504-2.504,2.504
		s-2.504-1.123-2.504-2.504s1.123-2.504,2.504-2.504S490.19,506.328,490.19,507.709z M503.167,504.457l-1.138-2.686
		c0.372,0.063,0.752,0.096,1.138,0.096c0.385,0,0.766-0.033,1.138-0.096L503.167,504.457z"/>
	<circle fill="#6D6D6D" cx="487.686" cy="507.709" r="0.835"/>
</g>
</svg>
