<svg width="34" height="34" viewBox="0 0 34 34" fill="none" xmlns="http://www.w3.org/2000/svg">
<g clip-path="url(#clip0)">
<path d="M31.8743 20.1927C31.8743 23.1675 30.0894 23.38 29.7494 23.38H3.62381L9.24416 17.7597L7.74611 16.251L0.308973 23.6881C-0.102991 24.1025 -0.102991 24.7717 0.308973 25.1862L7.74611 32.6233L9.24416 31.1252L3.62381 25.5049H29.7494C31.2156 25.5049 33.9992 24.4424 33.9992 20.1927V17.0053H31.8743V20.1927Z" fill="#58C25D"/>
<path d="M2.12538 13.8182C2.12538 10.8434 3.9103 10.6309 4.25028 10.6309H30.3759L24.7555 16.2512L26.2536 17.7493L33.6907 10.3121C34.1027 9.89772 34.1027 9.22851 33.6907 8.81409L26.2536 1.37695L24.7449 2.88563L30.3759 8.50598H4.25028C2.7841 8.50598 0.000488281 9.56843 0.000488281 13.8182V17.0056H2.12538V13.8182Z" fill="#58C25D"/>
</g>
<defs>
<clipPath id="clip0">
<rect width="34" height="34" fill="white"/>
</clipPath>
</defs>
</svg>
