<svg xmlns="http://www.w3.org/2000/svg" width="17" height="17" fill="none" viewBox="0 0 17 17">
    <path fill="#fff" d="M.664 9.679C.297 9.679 0 9.38 0 9.015v-4.35C0 3.2 1.192 2.009 2.656 2.009h11.688C15.808 2.009 17 3.2 17 4.665v7.67c0 1.465-1.192 2.656-2.656 2.656H2.656C1.192 14.991 0 13.8 0 12.335c0-.367.297-.664.664-.664.367 0 .664.297.664.664 0 .732.596 1.328 1.328 1.328h11.688c.732 0 1.328-.596 1.328-1.328v-7.53l-5.77 3.588c-.432.27-.917.404-1.402.404-.485 0-.97-.135-1.403-.404L1.328 4.806v4.209c0 .366-.297.664-.664.664zM7.8 7.265c.432.27.97.27 1.402 0l5.917-3.679c-.218-.157-.486-.25-.774-.25H2.656c-.288 0-.556.093-.774.25L7.8 7.266z"/>
</svg>
