<?xml version="1.0" encoding="utf-8"?>
<!-- Generator: Adobe Illustrator 16.0.0, SVG Export Plug-In . SVG Version: 6.00 Build 0)  -->
<!DOCTYPE svg PUBLIC "-//W3C//DTD SVG 1.1//EN" "http://www.w3.org/Graphics/SVG/1.1/DTD/svg11.dtd">
<svg version="1.1" id="Capa_1" xmlns="http://www.w3.org/2000/svg" xmlns:xlink="http://www.w3.org/1999/xlink" x="0px" y="0px"
	 width="58px" height="58px" viewBox="-19 -19 58 58" enable-background="new -19 -19 58 58" xml:space="preserve">
<g>
	<defs>
		<rect id="SVGID_1_" x="-19" y="-19" width="58" height="58"/>
	</defs>
	<clipPath id="SVGID_2_">
		<use xlink:href="#SVGID_1_"  overflow="visible"/>
	</clipPath>
	<g clip-path="url(#SVGID_2_)">
		<path fill="#FFFFFF" d="M26.066-14.149c-6.098-4.051-13.413-5.64-20.632-4.483c-0.125,0-0.252,0.014-0.376,0.038
			c-7.629,1.323-14.288,5.538-18.751,11.869c-4.458,6.331-6.187,14.019-4.864,21.652c0.221,1.258,0.528,2.526,0.913,3.758
			c1.596,5.188,1.204,10.748-1.104,15.653c-0.406,0.85-0.272,1.86,0.334,2.582c0.609,0.726,1.569,1.022,2.488,0.776l10.828-2.957
			C-0.51,37.55,4.667,39,9.953,39c1.922,0,3.858-0.192,5.779-0.58c7.595-1.527,14.137-5.922,18.425-12.371
			c8.851-13.313,5.22-31.34-8.091-40.195V-14.149z M30.136,23.379c-3.574,5.372-9.028,9.034-15.355,10.306
			c-6.319,1.277-12.764,0.008-18.14-3.565c-0.404-0.27-0.871-0.408-1.34-0.408c-0.212,0-0.426,0.028-0.639,0.088l-7.375,2.014
			c1.248-4.75,1.154-9.782-0.316-14.56c-0.326-1.045-0.583-2.104-0.766-3.152c-1.102-6.359,0.34-12.765,4.054-18.044
			c3.655-5.186,9.078-8.667,15.304-9.832c0.115-0.003,0.231-0.014,0.347-0.034c6.106-1.056,12.316,0.255,17.482,3.689
			c11.093,7.377,14.118,22.402,6.743,33.493V23.379z"/>
		<path fill="#FFFFFF" d="M10.014-4.738c-1.334,0-2.416,1.079-2.416,2.416v14.497c0,1.334,1.079,2.416,2.416,2.416
			c1.333,0,2.416-1.082,2.416-2.416v-14.5c0-1.333-1.079-2.416-2.416-2.416V-4.738z M12.231,21.158
			c-0.119-0.312-0.289-0.578-0.504-0.796c-0.119-0.097-0.243-0.218-0.388-0.292c-0.119-0.096-0.264-0.164-0.409-0.215
			c-0.145-0.073-0.289-0.119-0.46-0.147c-0.769-0.167-1.619,0.1-2.172,0.654c-0.218,0.218-0.387,0.484-0.505,0.796
			c-0.122,0.292-0.194,0.606-0.194,0.92c0,0.314,0.072,0.626,0.194,0.915c0.119,0.292,0.29,0.558,0.505,0.799
			c0.244,0.218,0.507,0.391,0.797,0.51c0.29,0.119,0.606,0.192,0.919,0.192s0.627-0.073,0.917-0.192
			c0.29-0.119,0.554-0.292,0.797-0.51c0.218-0.241,0.385-0.507,0.51-0.799c0.119-0.289,0.189-0.601,0.189-0.915
			c0-0.313-0.07-0.628-0.189-0.92H12.231z"/>
	</g>
</g>
</svg>
