<?xml version="1.0" encoding="utf-8"?>
<!-- Generator: Adobe Illustrator 16.0.0, SVG Export Plug-In . SVG Version: 6.00 Build 0)  -->
<!DOCTYPE svg PUBLIC "-//W3C//DTD SVG 1.1//EN" "http://www.w3.org/Graphics/SVG/1.1/DTD/svg11.dtd">
<svg version="1.1" id="Layer_1" xmlns="http://www.w3.org/2000/svg" xmlns:xlink="http://www.w3.org/1999/xlink" x="0px" y="0px"
	 width="18.269px" height="13.702px" viewBox="231.731 342.298 18.269 13.702"
	 enable-background="new 231.731 342.298 18.269 13.702" xml:space="preserve">
<title>mail</title>
<g>
	<path fill="#A3A3A3" d="M246.194,347.646v-3.825c-0.001-0.84-0.682-1.521-1.523-1.522h-11.418c-0.84,0.001-1.521,0.682-1.522,1.522
		v7.612c0,0.84,0.682,1.521,1.522,1.522h8.535c0.5,1.755,2.112,3.045,4.024,3.045c0.736,0,1.458-0.193,2.094-0.561
		c0.182-0.105,0.244-0.338,0.139-0.52c-0.105-0.182-0.337-0.245-0.52-0.139l0,0c-1.638,0.945-3.733,0.384-4.679-1.254
		c-0.945-1.639-0.384-3.733,1.254-4.68c1.639-0.946,3.733-0.384,4.679,1.254c0.301,0.52,0.459,1.11,0.459,1.711v0.381
		c0.009,0.42-0.324,0.768-0.744,0.778c-0.421,0.009-0.769-0.325-0.778-0.746c0-0.01,0-0.021,0-0.032v-1.523
		c0-0.209-0.17-0.379-0.379-0.379c-0.098,0-0.192,0.038-0.263,0.105c-0.782-0.701-1.985-0.636-2.687,0.145
		c-0.702,0.782-0.637,1.985,0.145,2.687c0.783,0.702,1.985,0.636,2.687-0.145c0.006-0.006,0.011-0.012,0.016-0.018
		c0.482,0.688,1.429,0.854,2.117,0.373c0.406-0.285,0.649-0.75,0.648-1.246v-0.381C250,349.633,248.323,347.84,246.194,347.646z
		 M233.253,343.06h11.418c0.016,0,0.029,0.007,0.044,0.009l-5.439,4.466c-0.194,0.122-0.475,0.097-0.6,0.02l-5.467-4.485
		C233.225,343.067,233.238,343.06,233.253,343.06z M245.433,347.646c-2.13,0.194-3.806,1.988-3.806,4.167
		c0,0.129,0.007,0.255,0.019,0.381h-8.392c-0.42-0.001-0.761-0.341-0.761-0.762v-7.612c0-0.104,0.022-0.207,0.064-0.302l5.668,4.648
		c0.438,0.289,1.004,0.295,1.448,0.017c0.022-0.012,0.042-0.026,0.061-0.042l5.634-4.624c0.042,0.096,0.063,0.199,0.064,0.303
		V347.646z M245.813,352.955c-0.63,0-1.142-0.511-1.142-1.142c0-0.63,0.512-1.142,1.142-1.142c0.631,0,1.142,0.512,1.142,1.142
		C246.955,352.444,246.444,352.955,245.813,352.955L245.813,352.955L245.813,352.955z"/>
</g>
</svg>
