<?xml version="1.0" encoding="utf-8"?>
<!-- Generator: Adobe Illustrator 16.0.0, SVG Export Plug-In . SVG Version: 6.00 Build 0)  -->
<!DOCTYPE svg PUBLIC "-//W3C//DTD SVG 1.1//EN" "http://www.w3.org/Graphics/SVG/1.1/DTD/svg11.dtd">
<svg version="1.1" id="Capa_1" xmlns="http://www.w3.org/2000/svg" xmlns:xlink="http://www.w3.org/1999/xlink" x="0px" y="0px"
	 width="255px" height="256px" viewBox="255 256 255 256" enable-background="new 255 256 255 256" xml:space="preserve">
<g>
	<path fill="#AEBB41" d="M459.176,382.854l-16.682-16.683v-40.736c0-9.098-7.401-16.499-16.501-16.499h-83.999
		c-9.099,0-16.5,7.401-16.5,16.499v40.736c-0.488,0.487-16.424,16.422-16.702,16.704c-0.846,0.857-1.298,2.019-1.298,3.16v63
		c0,7.443,6.056,13.5,13.5,13.5h126c7.443,0,13.5-6.057,13.5-13.5v-63C460.494,384.817,459.981,383.658,459.176,382.854z
		 M448.397,384.802l-5.902,2.953V378.9L448.397,384.802z M341.994,317.935h83.999c4.137,0,7.5,3.365,7.5,7.5v66.819l-49.499,24.75
		l-49.5-24.75v-66.819C334.494,321.3,337.859,317.935,341.994,317.935z M325.494,387.755l-5.902-2.953l5.902-5.901V387.755z
		 M446.994,453.535h-126c-2.481,0-4.5-2.019-4.5-4.5v-55.719l65.487,32.744c1.267,0.633,2.758,0.633,4.024,0l65.487-32.744v55.719
		C451.493,451.517,449.475,453.535,446.994,453.535z"/>
	<path fill="#AEBB41" d="M396.026,397.57c2.361-0.776,3.646-3.319,2.87-5.681c-0.776-2.36-3.318-3.646-5.68-2.869
		c-18.835,6.188-36.213-7.576-36.213-25.485c0-14.887,12.108-27,26.991-27c14.882,0,26.99,12.113,26.99,27
		c0,11.101-8.223,11.727-8.943,1.386c-0.013-0.176-0.038-0.349-0.069-0.519c0.492-10.307-7.757-18.867-17.978-18.867
		c-9.926,0-18,8.074-18,18c0,15.988,19.426,24.027,30.728,12.716c7.503,9.783,23.262,5.274,23.262-12.716
		c0-19.851-16.146-36-35.989-36c-19.846,0-35.99,16.149-35.99,36C348.005,387.443,371.241,405.715,396.026,397.57z M383.994,372.535
		c-4.963,0-9.001-4.037-9.001-9s4.038-9,9.001-9s9,4.037,9,9S388.957,372.535,383.994,372.535z"/>
</g>
</svg>
