<?xml version="1.0" encoding="utf-8"?>
<!-- Generator: Adobe Illustrator 16.0.0, SVG Export Plug-In . SVG Version: 6.00 Build 0)  -->
<!DOCTYPE svg PUBLIC "-//W3C//DTD SVG 1.1//EN" "http://www.w3.org/Graphics/SVG/1.1/DTD/svg11.dtd">
<svg version="1.1" id="Capa_1" xmlns="http://www.w3.org/2000/svg" xmlns:xlink="http://www.w3.org/1999/xlink" x="0px" y="0px"
	 width="24.221px" height="24.223px" viewBox="2.111 -1.223 24.221 24.223" enable-background="new 2.111 -1.223 24.221 24.223"
	 xml:space="preserve">
<g>
	<g>
		<g>
			<path fill="#3A66D6" d="M25.706,6.399c-0.83-0.83-2.181-0.83-3.011,0c-0.254,0.256-1.885,1.887-2.134,2.137V2.912
				c0-0.567-0.222-1.103-0.624-1.504l-2.007-2.007c-0.402-0.403-0.936-0.624-1.503-0.624H4.24c-1.175,0-2.129,0.955-2.129,2.129
				v19.965C2.111,22.045,3.065,23,4.24,23h14.194c1.172,0,2.129-0.955,2.129-2.129v-6.311l5.146-5.15
				C26.54,8.579,26.54,7.231,25.706,6.399z M16.303,0.195c0.135,0,0.393-0.023,0.623,0.208l2.007,2.006
				c0.227,0.227,0.208,0.474,0.208,0.624h-2.84V0.195H16.303z M19.141,20.871c0,0.393-0.318,0.71-0.708,0.71H4.238
				c-0.393,0-0.709-0.317-0.709-0.71V0.906c0-0.393,0.317-0.709,0.709-0.709h10.645v3.548c0,0.392,0.318,0.709,0.71,0.709h3.548
				v5.504l-2.093,2.096l-1.003,1.002c-0.077,0.076-0.136,0.174-0.172,0.276l-1.003,3.011c-0.085,0.255-0.021,0.535,0.171,0.727
				c0.191,0.19,0.471,0.256,0.728,0.172l3.009-1.004c0.105-0.035,0.2-0.093,0.277-0.171l0.086-0.087V20.871L19.141,20.871z
				 M17.549,13.559l1.006,1.003l-0.385,0.384l-1.507,0.502l0.504-1.506L17.549,13.559z M19.558,13.557l-1.003-1.002
				c0.533-0.535,2.906-2.912,3.411-3.415l1.004,1.003L19.558,13.557z M24.702,8.407l-0.73,0.732l-1.004-1.004l0.731-0.733
				c0.278-0.275,0.728-0.275,1.003,0C24.981,7.68,24.982,8.128,24.702,8.407z"/>
		</g>
	</g>
	<g>
		<g>
			<path fill="#3A66D6" d="M15.593,5.873H5.658c-0.392,0-0.71,0.316-0.71,0.709c0,0.392,0.318,0.71,0.71,0.71h9.935
				c0.393,0,0.71-0.318,0.71-0.71C16.303,6.189,15.985,5.873,15.593,5.873z"/>
		</g>
	</g>
	<g>
		<g>
			<path fill="#3A66D6" d="M12.754,8.711H5.658c-0.392,0-0.71,0.318-0.71,0.71c0,0.393,0.318,0.709,0.71,0.709h7.096
				c0.393,0,0.71-0.317,0.71-0.709C13.464,9.029,13.146,8.711,12.754,8.711z"/>
		</g>
	</g>
	<g>
		<g>
			<path fill="#3A66D6" d="M12.754,11.55H5.658c-0.392,0-0.71,0.317-0.71,0.71c0,0.393,0.318,0.71,0.71,0.71h7.096
				c0.393,0,0.71-0.317,0.71-0.71C13.464,11.867,13.146,11.55,12.754,11.55z"/>
		</g>
	</g>
	<g>
		<g>
			<path fill="#3A66D6" d="M12.754,14.389H5.658c-0.392,0-0.71,0.318-0.71,0.71c0,0.393,0.318,0.71,0.71,0.71h7.096
				c0.393,0,0.71-0.317,0.71-0.71C13.464,14.707,13.146,14.389,12.754,14.389z"/>
		</g>
	</g>
	<g>
		<g>
			<path fill="#3A66D6" d="M15.593,18.742h-4.258c-0.392,0-0.71,0.316-0.71,0.71c0,0.393,0.318,0.709,0.71,0.709h4.258
				c0.393,0,0.71-0.316,0.71-0.709C16.303,19.059,15.985,18.742,15.593,18.742z"/>
		</g>
	</g>
</g>
</svg>
