<?xml version="1.0" encoding="utf-8"?>
<!-- Generator: Adobe Illustrator 16.0.0, SVG Export Plug-In . SVG Version: 6.00 Build 0)  -->
<!DOCTYPE svg PUBLIC "-//W3C//DTD SVG 1.1//EN" "http://www.w3.org/Graphics/SVG/1.1/DTD/svg11.dtd">
<svg version="1.1" id="Capa_1" xmlns="http://www.w3.org/2000/svg" xmlns:xlink="http://www.w3.org/1999/xlink" x="0px" y="0px"
	 width="595.238px" height="595.28px" viewBox="0.021 123.305 595.238 595.28"
	 enable-background="new 0.021 123.305 595.238 595.28" xml:space="preserve">
<g>
	<g>
		<g>
			<g>
				<path fill="#495BC0" d="M485.121,364.933c-12.184-12.183-32.007-12.182-44.195,0.002c-3.748,3.752-27.681,27.703-31.336,31.361
					v-82.539c0-8.347-3.25-16.193-9.152-22.095l-29.46-29.461c-5.901-5.903-13.749-9.153-22.096-9.153h-178.85
					c-17.23,0-31.248,14.018-31.248,31.249v293.027c0,17.23,14.018,31.248,31.248,31.248h208.311
					c17.229,0,31.247-14.018,31.247-31.248v-92.61l75.53-75.592C497.333,396.911,497.336,377.146,485.121,364.933z M347.096,273.88
					c1.968,0,5.76-0.341,9.152,3.051l29.46,29.461c3.305,3.306,3.05,6.928,3.05,9.152h-41.662V273.88z M388.758,577.324
					c0,5.743-4.671,10.417-10.415,10.417H170.032c-5.743,0-10.416-4.674-10.416-10.417V284.297c0-5.744,4.673-10.417,10.416-10.417
					h156.23v52.08c0,5.752,4.663,10.416,10.416,10.416h52.079v80.77c0,0-30.729,30.754-30.73,30.754l-14.724,14.725
					c-1.144,1.144-2.006,2.538-2.517,4.072l-14.73,44.19c-1.248,3.743-0.273,7.87,2.517,10.659
					c2.793,2.794,6.922,3.764,10.659,2.516l44.191-14.729c1.533-0.512,2.928-1.374,4.071-2.517l1.263-1.265V577.324L388.758,577.324
					z M365.399,469.99l14.731,14.73l-5.627,5.626l-22.096,7.365l7.365-22.097L365.399,469.99z M394.857,469.986l-14.73-14.73
					c7.844-7.851,42.682-42.716,50.069-50.109l14.73,14.728L394.857,469.986z M470.388,394.396l-10.737,10.745l-14.73-14.729
					l10.741-10.749c4.063-4.062,10.67-4.061,14.731,0C474.451,383.724,474.474,390.309,470.388,394.396z"/>
			</g>
		</g>
		<g>
			<g>
				<path fill="#495BC0" d="M336.679,357.208H190.865c-5.752,0-10.416,4.663-10.416,10.415c0,5.751,4.664,10.415,10.416,10.415
					h145.814c5.752,0,10.416-4.664,10.416-10.415C347.095,361.871,342.431,357.208,336.679,357.208z"/>
			</g>
		</g>
		<g>
			<g>
				<path fill="#495BC0" d="M295.016,398.868H190.865c-5.752,0-10.416,4.664-10.416,10.415c0,5.752,4.664,10.415,10.416,10.415
					h104.152c5.751,0,10.415-4.662,10.415-10.415C305.431,403.532,300.768,398.868,295.016,398.868z"/>
			</g>
		</g>
		<g>
			<g>
				<path fill="#495BC0" d="M295.016,440.529H190.865c-5.752,0-10.416,4.663-10.416,10.415s4.664,10.416,10.416,10.416h104.152
					c5.751,0,10.415-4.664,10.415-10.416S300.768,440.529,295.016,440.529z"/>
			</g>
		</g>
		<g>
			<g>
				<path fill="#495BC0" d="M295.016,482.193H190.865c-5.752,0-10.416,4.662-10.416,10.416c0,5.751,4.664,10.415,10.416,10.415
					h104.152c5.751,0,10.415-4.664,10.415-10.415C305.431,486.855,300.768,482.193,295.016,482.193z"/>
			</g>
		</g>
	</g>
	<g>
		<g>
			<path fill="#495BC0" d="M336.679,546.077h-62.491c-5.753,0-10.416,4.663-10.416,10.415c0,5.753,4.663,10.417,10.416,10.417
				h62.491c5.752,0,10.416-4.664,10.416-10.417C347.095,550.74,342.431,546.077,336.679,546.077z"/>
		</g>
	</g>
</g>
</svg>
