<?xml version="1.0" encoding="utf-8"?>
<!-- Generator: Adobe Illustrator 16.0.0, SVG Export Plug-In . SVG Version: 6.00 Build 0)  -->
<!DOCTYPE svg PUBLIC "-//W3C//DTD SVG 1.1//EN" "http://www.w3.org/Graphics/SVG/1.1/DTD/svg11.dtd">
<svg version="1.1" id="Capa_1" xmlns="http://www.w3.org/2000/svg" xmlns:xlink="http://www.w3.org/1999/xlink" x="0px" y="0px"
	 width="13.156px" height="18.02px" viewBox="581.978 773.98 13.156 18.02" enable-background="new 581.978 773.98 13.156 18.02"
	 xml:space="preserve">
<title>password (1)</title>
<g>
	<path fill="#ADADAD" d="M588.556,787.507c0.291,0,0.528-0.236,0.528-0.528v-2.186c0-0.292-0.237-0.528-0.528-0.528
		c-0.292,0-0.528,0.236-0.528,0.528v2.186C588.027,787.271,588.264,787.507,588.556,787.507z"/>
	<path fill="#ADADAD" d="M594.605,779.771h-2.498v-2.571c0-1.775-1.594-3.219-3.552-3.219c-1.959,0-3.552,1.443-3.552,3.219v2.571
		h-2.499c-0.291,0-0.527,0.237-0.527,0.528l0,0v6.751c0,2.729,2.22,4.95,4.949,4.95h3.258c2.729,0,4.949-2.221,4.949-4.95v-6.751
		C595.134,780.008,594.897,779.771,594.605,779.771L594.605,779.771z M586.06,777.199c0-1.192,1.12-2.163,2.496-2.163
		s2.496,0.971,2.496,2.163v2.571h-4.992V777.199z M594.078,787.05c-0.003,2.15-1.744,3.892-3.895,3.895h-3.257
		c-2.149-0.003-3.892-1.744-3.895-3.895v-6.223h11.046V787.05z"/>
</g>
</svg>
