<?xml version="1.0" encoding="utf-8"?>
<!-- Generator: Adobe Illustrator 16.0.0, SVG Export Plug-In . SVG Version: 6.00 Build 0)  -->
<!DOCTYPE svg PUBLIC "-//W3C//DTD SVG 1.1//EN" "http://www.w3.org/Graphics/SVG/1.1/DTD/svg11.dtd">
<svg version="1.1" id="Capa_1" xmlns="http://www.w3.org/2000/svg" xmlns:xlink="http://www.w3.org/1999/xlink" x="0px" y="0px"
	 width="45.035px" height="24px" viewBox="-16.002 2.65 45.035 24" enable-background="new -16.002 2.65 45.035 24"
	 xml:space="preserve">
<g>
	<path fill="#696969" d="M-6.06,24.65c-2.354,0-4.637-0.837-6.428-2.357c-0.421-0.357-0.815-0.753-1.173-1.177
		c-1.508-1.787-2.339-4.063-2.339-6.406c0-2.656,1.034-5.152,2.912-7.029c1.876-1.878,4.374-2.912,7.029-2.912
		s5.152,1.034,7.028,2.912c1.878,1.876,2.912,4.374,2.912,7.029c0,2.343-0.831,4.619-2.339,6.406
		c-0.358,0.424-0.752,0.819-1.173,1.177C-1.423,23.813-3.707,24.65-6.06,24.65z M-6.06,6.011c-4.796,0-8.698,3.902-8.698,8.699
		c0,2.05,0.727,4.04,2.046,5.605c0.314,0.37,0.659,0.717,1.027,1.029c1.569,1.331,3.566,2.063,5.625,2.063
		c2.06,0,4.056-0.732,5.625-2.063c0.368-0.313,0.713-0.659,1.026-1.029c1.32-1.565,2.046-3.556,2.046-5.605
		C2.638,9.913-1.263,6.011-6.06,6.011z"/>
	<path fill="#696969" d="M-6.06,14.71c-2.055,0-3.728-1.673-3.728-3.729c0-2.055,1.673-3.728,3.728-3.728
		c2.055,0,3.728,1.672,3.728,3.728C-2.332,13.037-4.005,14.71-6.06,14.71z M-6.06,8.496c-1.37,0-2.485,1.115-2.485,2.485
		c0,1.37,1.115,2.485,2.485,2.485c1.371,0,2.485-1.115,2.485-2.485C-3.574,9.612-4.689,8.496-6.06,8.496z"/>
	<path fill="#696969" d="M-0.033,22.44c-0.05,0-0.102-0.006-0.152-0.02C-0.518,22.338-0.72,22-0.636,21.667
		c0.112-0.443,0.168-0.903,0.168-1.366c0-3.04-2.471-5.548-5.509-5.591h-0.166c-3.039,0.043-5.51,2.551-5.51,5.591
		c0,0.463,0.057,0.923,0.168,1.368c0.083,0.331-0.119,0.669-0.452,0.754c-0.333,0.082-0.671-0.12-0.754-0.452
		c-0.137-0.543-0.205-1.104-0.205-1.67c0-1.809,0.7-3.513,1.97-4.8c1.27-1.286,2.962-2.008,4.768-2.033h0.008l0.089-0.001h0.096
		c1.806,0.025,3.499,0.748,4.768,2.034c1.271,1.287,1.97,2.991,1.97,4.8c0,0.565-0.069,1.127-0.206,1.67
		C0.499,22.253,0.245,22.44-0.033,22.44L-0.033,22.44z"/>
</g>
</svg>
