<?xml version="1.0" encoding="utf-8"?>
<!-- Generator: Adobe Illustrator 16.0.0, SVG Export Plug-In . SVG Version: 6.00 Build 0)  -->
<!DOCTYPE svg PUBLIC "-//W3C//DTD SVG 1.1//EN" "http://www.w3.org/Graphics/SVG/1.1/DTD/svg11.dtd">
<svg version="1.1" id="Capa_1" xmlns="http://www.w3.org/2000/svg" xmlns:xlink="http://www.w3.org/1999/xlink" x="0px" y="0px"
	 width="92.658px" height="68px" viewBox="38.092 46 92.658 68" enable-background="new 38.092 46 92.658 68" xml:space="preserve">
<title>visitante</title>
<path fill="#8C8C8C" d="M123.154,95.668c-2.77-2.786-6.141-4.904-9.852-6.189c6.826-4.685,8.563-14.016,3.879-20.842
	c-4.684-6.827-14.016-8.563-20.84-3.88c-6.826,4.687-8.564,14.017-3.881,20.842c1.045,1.521,2.359,2.836,3.881,3.88
	c-2.447,0.847-4.752,2.058-6.838,3.593c-1.729-9.146-8.217-16.665-17.008-19.725c6.826-4.683,8.564-14.012,3.879-20.838
	c-4.684-6.826-14.014-8.562-20.84-3.877c-6.824,4.686-8.563,14.013-3.877,20.839c1.043,1.521,2.355,2.833,3.877,3.876
	c-10.439,3.63-17.439,13.47-17.443,24.522h4.053c-0.039-12.081,9.725-21.905,21.807-21.943c11.541-0.037,21.125,8.901,21.895,20.416
	c-4.477,4.788-6.957,11.104-6.938,17.658h4.053c0-12.082,9.793-21.876,21.875-21.876c12.08,0,21.875,9.794,21.875,21.876h4.039
	C130.768,107.12,128.031,100.518,123.154,95.668z M64.02,71.943c-6.041,0.001-10.938-4.896-10.938-10.938
	c-0.002-6.041,4.895-10.938,10.936-10.938c6.043-0.004,10.939,4.896,10.941,10.937c0,0.001,0,0.002,0,0.004
	C74.949,67.043,70.059,71.936,64.02,71.943z M104.822,88.073c-6.041,0-10.938-4.897-10.938-10.938s4.896-10.938,10.938-10.938
	s10.938,4.896,10.938,10.938c0,0,0,0.001,0,0.002C115.754,83.175,110.859,88.066,104.822,88.073z"/>
</svg>
