<svg xmlns="http://www.w3.org/2000/svg" width="58" height="58" fill="none" viewBox="0 0 58 58">
    <path fill="#fff" d="M29 0C13.01 0 0 13.01 0 29s13.01 29 29 29 29-13.01 29-29S44.99 0 29 0zm0 52.727C15.917 52.727 5.273 42.083 5.273 29S15.917 5.273 29 5.273 52.727 15.917 52.727 29 42.083 52.727 29 52.727z"/>
    <path fill="#fff" d="M29 12.303c-1.938 0-3.515 1.577-3.515 3.516 0 1.938 1.577 3.514 3.515 3.514 1.938 0 3.514-1.576 3.514-3.513 0-1.94-1.576-3.517-3.514-3.517zM29 24.605c-1.456 0-2.636 1.18-2.636 2.637V43.06c0 1.456 1.18 2.636 2.636 2.636 1.456 0 2.637-1.18 2.637-2.636V27.242c0-1.456-1.18-2.637-2.637-2.637z"/>
</svg>
