<?xml version="1.0" encoding="utf-8"?>
<!-- Generator: Adobe Illustrator 16.0.0, SVG Export Plug-In . SVG Version: 6.00 Build 0)  -->
<!DOCTYPE svg PUBLIC "-//W3C//DTD SVG 1.1//EN" "http://www.w3.org/Graphics/SVG/1.1/DTD/svg11.dtd">
<svg version="1.1" id="Capa_1" xmlns="http://www.w3.org/2000/svg" xmlns:xlink="http://www.w3.org/1999/xlink" x="0px" y="0px"
	 width="26px" height="26px" viewBox="0 0 26 26" enable-background="new 0 0 26 26" xml:space="preserve">
<g>
	<path fill="#696969" d="M3.099,12.412c0.493,0,0.942-0.205,1.271-0.538l1.8,0.94c-0.009,0.077-0.015,0.156-0.015,0.236
		c0,1.057,0.823,1.917,1.835,1.917c1.011,0,1.834-0.86,1.834-1.917c0-0.295-0.064-0.575-0.179-0.826l2.446-2.557
		c0.24,0.12,0.508,0.188,0.791,0.188c1.012,0,1.835-0.86,1.835-1.918c0-0.199-0.03-0.392-0.085-0.573L16.76,5.7
		c0.292,0.203,0.641,0.321,1.017,0.321c1.012,0,1.835-0.86,1.835-1.917s-0.823-1.917-1.835-1.917c-1.013,0-1.835,0.86-1.835,1.917
		c0,0.2,0.028,0.393,0.083,0.574L13.9,6.343c-0.292-0.203-0.642-0.322-1.018-0.322c-1.011,0-1.834,0.86-1.834,1.917
		c0,0.296,0.064,0.577,0.179,0.826l-2.447,2.557c-0.24-0.12-0.508-0.187-0.791-0.187c-0.494,0-0.942,0.206-1.272,0.538l-1.8-0.94
		c0.01-0.078,0.016-0.157,0.016-0.238c0-1.057-0.824-1.917-1.835-1.917s-1.834,0.86-1.834,1.917
		C1.264,11.552,2.087,12.412,3.099,12.412L3.099,12.412z M17.776,3.465c0.337,0,0.611,0.287,0.611,0.639
		c0,0.353-0.274,0.639-0.611,0.639s-0.611-0.287-0.611-0.639C17.165,3.752,17.439,3.465,17.776,3.465L17.776,3.465z M12.884,7.299
		c0.337,0,0.611,0.288,0.611,0.639c0,0.353-0.274,0.64-0.611,0.64s-0.611-0.287-0.611-0.64C12.272,7.586,12.547,7.299,12.884,7.299
		L12.884,7.299z M7.991,12.412c0.337,0,0.611,0.286,0.611,0.639s-0.274,0.64-0.611,0.64s-0.612-0.287-0.612-0.64
		S7.654,12.412,7.991,12.412z M3.099,9.855c0.337,0,0.612,0.286,0.612,0.638c0,0.352-0.275,0.639-0.612,0.639
		c-0.337,0-0.611-0.287-0.611-0.639C2.488,10.141,2.762,9.855,3.099,9.855z"/>
	<path fill="#696969" d="M20.264,22.722h-0.652V9.217c0-0.353-0.273-0.639-0.611-0.639h-2.447c-0.337,0-0.611,0.286-0.611,0.639
		v13.505h-1.223v-9.671c0-0.353-0.273-0.639-0.611-0.639h-2.447c-0.337,0-0.612,0.285-0.612,0.639v9.671H9.826v-4.559
		c0-0.353-0.273-0.639-0.611-0.639H6.769c-0.338,0-0.612,0.286-0.612,0.639v4.559H4.934v-7.113c0-0.354-0.273-0.641-0.612-0.641
		H1.875c-0.337,0-0.612,0.286-0.612,0.64v7.114H0.612C0.273,22.722,0,23.009,0,23.361S0.273,24,0.612,24h19.652
		c0.338,0,0.611-0.286,0.611-0.639S20.602,22.722,20.264,22.722z M17.164,9.855h1.224v12.866h-1.222V9.855H17.164z M12.272,13.689
		h1.223v9.032h-1.223V13.689z M7.379,18.803h1.223v3.919H7.378L7.379,18.803L7.379,18.803z M2.487,16.245h1.222v6.477H2.487V16.245
		L2.487,16.245z"/>
</g>
</svg>
