<svg xmlns="http://www.w3.org/2000/svg" width="126" height="126" fill="none" viewBox="0 0 126 126">
    <g clip-path="url(#clip0)">
        <path fill="#C1C1C1" d="M86.406 79.568c3.238-4.629 5.14-10.257 5.14-16.322C91.547 47.506 78.74 34.7 63 34.7S34.453 47.506 34.453 63.246c0 15.741 12.807 28.547 28.547 28.547 6.128 0 11.811-1.942 16.468-5.241l18.627 18.627c.96.96 2.221 1.441 3.48 1.441 1.26 0 2.52-.481 3.48-1.441 1.923-1.922 1.923-5.039 0-6.96l-18.65-18.65zm-42.11-16.322c0-10.313 8.391-18.703 18.704-18.703s18.703 8.39 18.703 18.703c0 10.313-8.39 18.703-18.703 18.703-10.313 0-18.703-8.39-18.703-18.703zM126 60.54v4.922c0 8.142-6.623 14.766-14.766 14.766h-2.479c-.4 0-.704.15-.889.277-2.242 1.538-5.305.968-6.843-1.275-1.538-2.241-.967-5.306 1.275-6.843 1.912-1.31 4.144-2.003 6.457-2.003h2.479c2.714 0 4.922-2.208 4.922-4.922v-4.922c0-2.714-2.208-4.922-4.922-4.922h-2.479c-4.653 0-8.814-2.8-10.604-7.133l-.03-.072c-1.798-4.331-.836-9.256 2.453-12.546l1.754-1.752c1.919-1.92 1.919-5.042 0-6.961l-3.481-3.48c-.93-.93-2.166-1.442-3.48-1.442-1.315 0-2.551.511-3.48 1.442l-1.753 1.753c-3.29 3.29-8.215 4.252-12.546 2.452l-.073-.03c-4.332-1.789-7.132-5.95-7.132-10.603v-2.48c0-2.713-2.208-4.921-4.922-4.921h-4.922c-2.714 0-4.922 2.208-4.922 4.922v2.479c0 4.652-2.8 8.814-7.133 10.603l-.062.026c-4.342 1.803-9.266.841-12.556-2.448l-1.753-1.754c-.929-.93-2.165-1.44-3.48-1.44-1.314 0-2.55.51-3.48 1.44l-3.48 3.481c-1.92 1.919-1.92 5.041 0 6.96l1.753 1.753c3.29 3.29 4.251 8.215 2.452 12.547l-.03.073c-1.789 4.33-5.95 7.131-10.603 7.131h-2.48c-2.713 0-4.921 2.208-4.921 4.922v4.922c0 2.714 2.208 4.922 4.922 4.922h2.479c4.652 0 8.814 2.8 10.603 7.133l.037.086c1.792 4.317.83 9.242-2.46 12.532l-1.753 1.752c-.93.93-1.44 2.166-1.44 3.481 0 1.314.51 2.55 1.44 3.48l3.481 3.481c1.919 1.919 5.041 1.92 6.96 0l1.753-1.754c3.288-3.286 8.209-4.25 12.54-2.455l.063.026c4.349 1.796 7.148 5.958 7.148 10.61v2.479c0 2.714 2.208 4.922 4.922 4.922h4.922c2.714 0 4.922-2.208 4.922-4.922v-2.479c0-2.313.693-4.546 2.004-6.457 1.537-2.242 4.6-2.813 6.843-1.275 2.242 1.538 2.813 4.601 1.274 6.843-.127.185-.277.489-.277.889v2.479c0 8.143-6.624 14.766-14.766 14.766h-4.922c-8.142 0-14.766-6.623-14.766-14.766v-2.479c0-.652-.41-1.243-1.046-1.505l-.09-.038c-.64-.265-1.35-.138-1.81.323l-1.753 1.754c-5.757 5.756-15.125 5.756-20.882 0l-3.48-3.481c-2.79-2.789-4.325-6.497-4.325-10.44 0-3.945 1.536-7.653 4.325-10.442l1.753-1.753c.46-.46.587-1.17.323-1.81l-.04-.095c-.26-.631-.851-1.041-1.503-1.041h-2.48C6.624 80.227 0 73.603 0 65.46v-4.922c0-8.142 6.623-14.766 14.766-14.766h2.479c.652 0 1.243-.41 1.505-1.046l.037-.089c.266-.64.14-1.35-.322-1.811l-1.753-1.752c-5.757-5.758-5.757-15.126 0-20.883l3.48-3.48c2.79-2.788 6.498-4.325 10.44-4.325 3.945 0 7.653 1.537 10.443 4.325l1.752 1.753c.462.461 1.172.588 1.81.323l.089-.038c.637-.262 1.047-.853 1.047-1.505v-2.48C45.773 6.624 52.398 0 60.54 0h4.922c8.142 0 14.766 6.623 14.766 14.766v2.479c0 .652.41 1.243 1.045 1.505l.1.042c.63.261 1.34.134 1.801-.327l1.753-1.753c2.79-2.79 6.497-4.325 10.441-4.325 3.943 0 7.652 1.536 10.441 4.325l3.48 3.48c5.757 5.757 5.757 15.125 0 20.882l-1.753 1.753c-.461.46-.588 1.17-.323 1.81l.037.089c.263.636.854 1.047 1.506 1.047h2.479c8.143 0 14.766 6.624 14.766 14.766z"/>
    </g>
    <defs>
        <clipPath id="clip0">
            <path fill="#fff" d="M0 0H126V126H0z"/>
        </clipPath>
    </defs>
</svg>
