<svg width="24" height="24" viewBox="0 0 24 24" fill="none" xmlns="http://www.w3.org/2000/svg">
<g clip-path="url(#clip0)">
<path d="M11.9995 16.4492C11.3285 16.4492 10.7661 17.0116 10.7661 17.6826C10.7661 18.3536 11.3285 18.916 11.9995 18.916C12.6458 18.916 13.2329 18.3536 13.2033 17.7122C13.2329 17.0067 12.6754 16.4492 11.9995 16.4492Z" fill="white"/>
<path d="M23.416 20.8198C24.1906 19.4828 24.1955 17.8893 23.4259 16.5572L15.6999 3.17735C14.9352 1.83049 13.5538 1.03125 12.0046 1.03125C10.4555 1.03125 9.07409 1.83542 8.30939 3.17242L0.573551 16.5671C-0.196086 17.9139 -0.191152 19.5173 0.588352 20.8543C1.35799 22.1765 2.73446 22.9708 4.27373 22.9708H19.7059C21.2501 22.9708 22.6365 22.1667 23.416 20.8198ZM21.7386 19.8528C21.3094 20.5929 20.5496 21.032 19.701 21.032H4.2688C3.43009 21.032 2.67525 20.6027 2.2559 19.8775C1.83161 19.1424 1.82668 18.2642 2.25097 17.5242L9.98681 4.13447C10.4062 3.39936 11.1561 2.96521 12.0046 2.96521C12.8483 2.96521 13.6031 3.4043 14.0225 4.1394L21.7534 17.5291C22.1678 18.2494 22.1629 19.1177 21.7386 19.8528Z" fill="white"/>
<path d="M11.6939 7.78873C11.1068 7.95647 10.7417 8.48929 10.7417 9.13559C10.7713 9.52534 10.796 9.92003 10.8256 10.3098C10.9094 11.7948 10.9933 13.2502 11.0772 14.7352C11.1068 15.2384 11.4965 15.6035 11.9998 15.6035C12.503 15.6035 12.8977 15.2138 12.9223 14.7056C12.9223 14.3997 12.9223 14.1185 12.9519 13.8077C13.0062 12.8555 13.0654 11.9033 13.1197 10.9511C13.1493 10.3344 13.2036 9.71775 13.2332 9.10106C13.2332 8.87905 13.2036 8.6817 13.1197 8.48436C12.8681 7.9318 12.281 7.65059 11.6939 7.78873Z" fill="white"/>
</g>
<defs>
<clipPath id="clip0">
<rect width="24" height="24" fill="white"/>
</clipPath>
</defs>
</svg>
