<svg xmlns="http://www.w3.org/2000/svg" width="13" height="13" fill="none" viewBox="0 0 13 13">
    <g clip-path="url(#clip0)">
        <path fill="#34559C" d="M13 5.332c0 .926-.241 1.838-.698 2.638-.138.244-.449.329-.692.19-.244-.14-.329-.45-.19-.693.37-.647.564-1.385.564-2.135 0-2.38-1.936-4.316-4.316-4.316S3.352 2.952 3.352 5.332s1.936 4.316 4.316 4.316c.74 0 1.471-.19 2.112-.55.245-.138.555-.052.692.193.137.244.05.554-.194.691-.793.446-1.695.682-2.61.682-1.282 0-2.46-.455-3.38-1.211l-3.422 3.4c-.1.098-.229.147-.358.147-.13 0-.261-.05-.36-.15-.198-.199-.197-.52.002-.718l3.418-3.395c-.769-.924-1.232-2.111-1.232-3.405C2.336 2.392 4.728 0 7.668 0S13 2.392 13 5.332zm-6.598-.2c-.194-.265-.308-.59-.308-.943 0-.882.717-1.6 1.6-1.6.881 0 1.599.718 1.599 1.6 0 .352-.115.678-.308.942.578.35 1.01.928 1.153 1.622.052.25-.01.508-.172.706-.16.197-.398.31-.652.31h-3.24c-.255 0-.493-.113-.654-.31-.161-.198-.224-.456-.172-.706.144-.694.576-1.273 1.154-1.622zm.707-.943c0 .322.262.584.584.584.322 0 .584-.261.584-.584 0-.322-.262-.584-.584-.584-.322 0-.584.262-.584.584zm-.808 2.565h2.784c-.209-.57-.758-.965-1.378-.965H7.68c-.62 0-1.17.395-1.379.965z"/>
    </g>
    <defs>
        <clipPath id="clip0">
            <path fill="#fff" d="M0 0H13V13H0z"/>
        </clipPath>
    </defs>
</svg>
