<?xml version="1.0" encoding="utf-8"?>
<!-- Generator: Adobe Illustrator 16.0.0, SVG Export Plug-In . SVG Version: 6.00 Build 0)  -->
<!DOCTYPE svg PUBLIC "-//W3C//DTD SVG 1.1//EN" "http://www.w3.org/Graphics/SVG/1.1/DTD/svg11.dtd">
<svg version="1.1" id="Layer_1" xmlns="http://www.w3.org/2000/svg" xmlns:xlink="http://www.w3.org/1999/xlink" x="0px" y="0px"
	 width="38.142px" height="31.785px" viewBox="557.14 637.193 38.142 31.785" enable-background="new 557.14 637.193 38.142 31.785"
	 xml:space="preserve">
<g>
	<g>
		<g>
			<path fill="#666666" d="M592.103,641.962h-7.946v-1.59c0-1.753-1.425-3.179-3.178-3.179h-9.536c-1.753,0-3.178,1.426-3.178,3.179
				v1.59h-7.946c-1.753,0-3.179,1.425-3.179,3.178v20.66c0,1.753,1.426,3.179,3.179,3.179h31.784c1.753,0,3.179-1.426,3.179-3.179
				v-20.66C595.281,643.387,593.856,641.962,592.103,641.962z M569.854,640.372c0-0.876,0.713-1.589,1.589-1.589h9.536
				c0.876,0,1.589,0.713,1.589,1.589v1.59h-12.714V640.372z M593.693,665.8c0,0.876-0.714,1.59-1.59,1.59h-31.784
				c-0.876,0-1.59-0.714-1.59-1.59v-20.66c0-0.876,0.714-1.589,1.59-1.589h31.784c0.876,0,1.59,0.713,1.59,1.589V665.8z"/>
			<path fill="#666666" d="M583.363,653.086h-3.974v-3.973c0-0.439-0.355-0.795-0.794-0.795h-4.769
				c-0.438,0-0.794,0.355-0.794,0.795v3.973h-3.974c-0.438,0-0.794,0.355-0.794,0.795v4.768c0,0.439,0.355,0.795,0.794,0.795h3.974
				v3.973c0,0.439,0.355,0.795,0.794,0.795h4.769c0.438,0,0.794-0.355,0.794-0.795v-3.973h3.974c0.438,0,0.794-0.355,0.794-0.795
				v-4.768C584.156,653.441,583.801,653.086,583.363,653.086z M582.568,657.854h-3.973c-0.439,0-0.795,0.355-0.795,0.795v3.974
				h-3.179v-3.974c0-0.439-0.355-0.795-0.795-0.795h-3.973v-3.178h3.973c0.439,0,0.795-0.355,0.795-0.795v-3.973h3.179v3.973
				c0,0.439,0.355,0.795,0.795,0.795h3.973V657.854L582.568,657.854z"/>
		</g>
	</g>
</g>
</svg>
