<?xml version="1.0" encoding="utf-8"?>
<!-- Generator: Adobe Illustrator 16.0.0, SVG Export Plug-In . SVG Version: 6.00 Build 0)  -->
<!DOCTYPE svg PUBLIC "-//W3C//DTD SVG 1.1//EN" "http://www.w3.org/Graphics/SVG/1.1/DTD/svg11.dtd">
<svg version="1.1" id="Capa_1" xmlns="http://www.w3.org/2000/svg" xmlns:xlink="http://www.w3.org/1999/xlink" x="0px" y="0px"
	 width="160px" height="160px" viewBox="858.75 497.625 160 160" enable-background="new 858.75 497.625 160 160"
	 xml:space="preserve">
<title>visitante</title>
<circle fill="#C5CF55" cx="938.75" cy="577.625" r="80"/>
<path fill="#FFFFFF" d="M977.573,597.293c-2.771-2.786-6.141-4.904-9.853-6.189c6.826-4.685,8.563-14.016,3.88-20.842
	c-4.684-6.827-14.015-8.563-20.841-3.88c-6.826,4.686-8.563,14.016-3.88,20.842c1.044,1.521,2.359,2.836,3.88,3.88
	c-2.447,0.846-4.752,2.057-6.837,3.592c-1.729-9.145-8.217-16.665-17.007-19.724c6.825-4.683,8.563-14.012,3.878-20.838
	c-4.684-6.826-14.014-8.562-20.839-3.877s-8.563,14.013-3.877,20.839c1.043,1.52,2.355,2.833,3.877,3.876
	c-10.44,3.63-17.44,13.47-17.445,24.522h4.053c-0.038-12.081,9.726-21.905,21.807-21.943c11.542-0.037,21.125,8.901,21.895,20.416
	c-4.476,4.788-6.958,11.104-6.938,17.658h4.052c0-12.082,9.794-21.876,21.875-21.876c12.082,0,21.876,9.794,21.876,21.876h4.04
	C985.186,608.745,982.45,602.143,977.573,597.293z M918.438,573.568c-6.041,0.001-10.938-4.896-10.938-10.938
	c-0.001-6.041,4.895-10.938,10.936-10.939c6.042-0.003,10.939,4.896,10.941,10.937c0,0.001,0,0.002,0,0.004
	C929.367,568.668,924.476,573.561,918.438,573.568z M959.24,589.698c-6.041,0-10.938-4.897-10.938-10.938
	s4.897-10.938,10.938-10.938c6.042,0,10.938,4.896,10.938,10.938c0,0,0,0.001,0,0.002C970.172,584.8,965.278,589.691,959.24,589.698
	z"/>
</svg>
