<?xml version="1.0" encoding="utf-8"?>
<!-- Generator: Adobe Illustrator 16.0.0, SVG Export Plug-In . SVG Version: 6.00 Build 0)  -->
<!DOCTYPE svg PUBLIC "-//W3C//DTD SVG 1.1//EN" "http://www.w3.org/Graphics/SVG/1.1/DTD/svg11.dtd">
<svg version="1.1" id="Capa_1" xmlns="http://www.w3.org/2000/svg" xmlns:xlink="http://www.w3.org/1999/xlink" x="0px" y="0px"
	 width="611.963px" height="621.577px" viewBox="0.009 85.211 611.963 621.577"
	 enable-background="new 0.009 85.211 611.963 621.577" xml:space="preserve">
<title>nueva visita</title>
<path fill="#555555" d="M600.781,152.564h-56.093V96.471c0.016-6.204-5.001-11.245-11.205-11.26c-0.018,0-0.036,0-0.055,0h-7.483
	c-6.195,0-11.219,5.023-11.219,11.219l0,0v56.093h-56.093c-6.195,0-11.219,5.022-11.219,11.218l0,0v7.525
	c0,6.198,5.021,11.225,11.219,11.232h56.093v56.093c0,6.196,5.023,11.218,11.219,11.218l0,0h7.483
	c6.198,0,11.225-5.021,11.232-11.218v-56.093h56.093c6.198-0.008,11.219-5.034,11.219-11.232v-7.483
	C611.973,157.597,606.967,152.579,600.781,152.564z"/>
<path fill="#555555" d="M545.961,684.352h-96.356l-0.588-275.758c-0.008-6.19-5.028-11.205-11.219-11.205l0,0
	c-6.196,0.015-11.206,5.05-11.191,11.246l0,0l0.588,275.717h-32.615l-0.288-122.693c-0.015-6.19-5.041-11.198-11.231-11.191l0,0
	c-6.196,0.016-11.207,5.051-11.191,11.246l0,0l0.287,122.639h-27.267v-148.51c31.754-2.805,56.736-28.908,56.736-60.607V366.483
	c0.002-17.2-3.64-34.205-10.686-49.896c21.995,1.38,42.784,10.536,58.651,25.83c17.203,16.37,26.961,39.064,27.007,62.81
	l0.205,63.851c0.022,6.182,5.036,11.184,11.219,11.191l0,0c6.198-0.023,11.206-5.062,11.191-11.26l-0.206-63.851
	c-0.049-29.815-12.275-58.317-33.847-78.899c-12.295-11.865-27.084-20.834-43.287-26.254c23.763-22.565,24.734-60.121,2.17-83.885
	c-11.212-11.807-26.782-18.487-43.063-18.478h-0.123c-9.529,0.022-18.914,2.336-27.362,6.745
	c-5.337,3.147-7.111,10.025-3.964,15.362c2.931,4.971,9.155,6.907,14.389,4.476c5.249-2.757,11.091-4.194,17.02-4.187
	c20.401-0.042,36.973,16.463,37.015,36.864c0.041,20.401-16.463,36.973-36.864,37.015c-0.458,0.004-0.915,0.041-1.368,0.109
	l-1.792,0.082c-16.104-22.041-38.845-38.343-64.89-46.516c27.354-23.952,30.113-65.544,6.161-92.899s-65.544-30.113-92.899-6.161
	c-27.354,23.952-30.113,65.544-6.161,92.899c2.504,2.86,5.252,5.499,8.212,7.885c-23.935,8.599-44.755,24.154-59.787,44.669
	c-1.779-0.082-3.557-0.123-5.322-0.123h-2.517h-0.616c-20.401,0.007-36.945-16.525-36.953-36.926
	c-0.007-20.401,16.525-36.945,36.926-36.953c6.159-0.002,12.221,1.536,17.634,4.474c5.364,3.116,12.239,1.293,15.354-4.071
	s1.292-12.239-4.072-15.354c-0.183-0.106-0.368-0.207-0.557-0.303c-28.815-15.637-64.852-4.954-80.489,23.862
	c-13.261,24.437-7.784,54.804,13.178,73.069c-42.412,16.349-72.51,56.667-72.51,103.69v63.645
	c0.216,6.199,5.417,11.05,11.617,10.833c5.896-0.206,10.627-4.938,10.833-10.833v-63.646c0-46.516,37.145-84.823,84.303-88.695
	c-7.011,15.662-10.638,32.627-10.644,49.786v108.751c0,32.329,25.994,58.829,58.637,60.744v148.414h-30.66V561.686
	c0-6.195-5.022-11.219-11.218-11.219s-11.219,5.023-11.219,11.219v122.666h-27.595V408.73c0-6.196-5.023-11.219-11.219-11.219
	s-11.218,5.022-11.218,11.219v275.621H11.219c-6.196,0.005-11.214,5.032-11.209,11.228c0.005,6.188,5.021,11.204,11.209,11.209
	h534.742c6.196,0.006,11.223-5.013,11.229-11.209c0.005-6.195-5.014-11.223-11.21-11.228
	C545.974,684.352,545.967,684.352,545.961,684.352z M226.205,198.163c-0.008-23.967,19.416-43.402,43.383-43.41
	s43.403,19.416,43.411,43.383c0.008,23.968-19.416,43.403-43.383,43.411c-0.009,0-0.018,0-0.027,0
	C245.64,241.516,226.235,222.11,226.205,198.163z M333.656,359.04c-6.198,0.008-11.219,5.034-11.219,11.232v314.079h-39.962v-156.13
	c-0.216-6.199-5.417-11.05-11.617-10.834c-5.896,0.206-10.627,4.938-10.833,10.834v156.13h-34.285V370.272
	c0.005-6.196-5.013-11.223-11.209-11.228s-11.223,5.013-11.228,11.209c0,0.006,0,0.013,0,0.019v143.16
	c-20.275-1.848-36.187-18.292-36.187-38.308V366.483c-0.007-19.444,5.671-38.466,16.335-54.725
	c19.578-29.935,53.11-47.816,89.708-47.816c36.598,0,70.212,17.922,89.776,47.884c10.602,16.217,16.249,35.171,16.253,54.547
	v108.751c0,19.332-14.926,35.366-34.285,38.033V370.272C344.895,364.067,339.862,359.04,333.656,359.04z"/>
</svg>
