<svg xmlns="http://www.w3.org/2000/svg" width="20" height="20" fill="none" viewBox="0 0 20 20">
    <g clip-path="url(#clip0)">
        <path fill="#01719d" d="M10.006 17.537c-2.43 0-4.662-.874-6.634-2.598C1.768 13.536.74 11.897.27 11.044c-.362-.656-.359-1.438.009-2.091.478-.851 1.52-2.489 3.126-3.891 1.977-1.726 4.198-2.6 6.602-2.6 2.405 0 4.625.875 6.6 2.602 1.603 1.403 2.642 3.04 3.118 3.892.365.651.368 1.431.009 2.085-.218.396-.581 1.009-1.081 1.687-.256.347-.745.421-1.093.165-.347-.256-.42-.745-.165-1.092.45-.609.775-1.158.97-1.512.098-.179.097-.392-.003-.57-.958-1.713-3.69-5.695-8.355-5.695-4.665 0-7.405 3.982-8.366 5.694-.1.178-.102.392-.003.572.943 1.71 3.646 5.685 8.369 5.685 1.739 0 3.372-.544 4.854-1.616.35-.252.838-.174 1.09.175.253.35.175.838-.175 1.091-1.753 1.269-3.695 1.912-5.77 1.912zM14.609 10c0-2.54-2.068-4.608-4.609-4.608S5.392 7.458 5.392 9.999c0 2.542 2.067 4.609 4.608 4.609 2.541 0 4.609-2.067 4.609-4.609zm-1.563 0c0 1.68-1.366 3.047-3.046 3.047-1.68 0-3.046-1.367-3.046-3.047 0-1.68 1.366-3.046 3.046-3.046 1.68 0 3.046 1.367 3.046 3.046zm-2.17.212c-.599-.04-1.076-.54-1.09-1.14v-.015c-.004-.342-.382-.54-.664-.349-.444.303-.724.828-.68 1.416.06.76.674 1.375 1.435 1.434.587.045 1.113-.235 1.415-.68.192-.281-.007-.66-.348-.663l-.068-.003z"/>
    </g>
    <defs>
        <clipPath id="clip0">
            <path fill="#fff" d="M0 0H20V20H0z"/>
        </clipPath>
    </defs>
</svg>
