<?xml version="1.0" encoding="utf-8"?>
<!-- Generator: Adobe Illustrator 16.0.0, SVG Export Plug-In . SVG Version: 6.00 Build 0)  -->
<!DOCTYPE svg PUBLIC "-//W3C//DTD SVG 1.1//EN" "http://www.w3.org/Graphics/SVG/1.1/DTD/svg11.dtd">
<svg version="1.1" id="Capa_1" xmlns="http://www.w3.org/2000/svg" xmlns:xlink="http://www.w3.org/1999/xlink" x="0px" y="0px"
	 width="24px" height="24px" viewBox="294 383.984 24 24" enable-background="new 294 383.984 24 24" xml:space="preserve">
<title>notepad</title>
<path fill="#0D2F9B" d="M314.483,385.615h-5.147c-0.813-1.381-2.965-2.007-4.808-1.397c-0.833,0.275-1.498,0.773-1.865,1.397h-5.146
	c-1.942,0.001-3.516,1.181-3.518,2.636v17.098c0.002,1.455,1.576,2.635,3.518,2.636h16.966c1.94-0.003,3.513-1.182,3.517-2.636
	v-17.098C317.998,386.796,316.425,385.617,314.483,385.615z M303.243,386.816c0.376,0,0.702-0.196,0.782-0.471
	c0.197-0.672,1.025-1.159,1.976-1.159c0.951,0,1.779,0.488,1.975,1.159c0.081,0.275,0.406,0.471,0.782,0.471h1.587v0.528
	c-0.001,0.792-0.857,1.435-1.915,1.436h-4.859c-1.058-0.001-1.915-0.644-1.916-1.436v-0.528H303.243z M316.398,405.349
	c0,0.793-0.857,1.436-1.915,1.436h-16.966c-1.058,0-1.916-0.643-1.917-1.436v-17.098c0.001-0.793,0.858-1.436,1.917-1.436h2.536
	v0.528c0.002,1.455,1.576,2.634,3.518,2.636h4.858c1.941-0.001,3.515-1.181,3.517-2.636v-0.528h2.537
	c1.058,0.001,1.914,0.644,1.915,1.436V405.349L316.398,405.349z"/>
</svg>
