<?xml version="1.0" encoding="utf-8"?>
<!-- Generator: Adobe Illustrator 16.0.0, SVG Export Plug-In . SVG Version: 6.00 Build 0)  -->
<!DOCTYPE svg PUBLIC "-//W3C//DTD SVG 1.1//EN" "http://www.w3.org/Graphics/SVG/1.1/DTD/svg11.dtd">
<svg version="1.1" id="Capa_1" xmlns="http://www.w3.org/2000/svg" xmlns:xlink="http://www.w3.org/1999/xlink" x="0px" y="0px"
	 width="15.333px" height="15.334px" viewBox="8.667 8.667 15.333 15.334" enable-background="new 8.667 8.667 15.333 15.334"
	 xml:space="preserve">
<title>visitante</title>
<path fill="#767777" d="M21.755,18.58c-0.819-0.822-1.815-1.448-2.914-1.828c2.02-1.385,2.533-4.144,1.149-6.161
	c-1.388-2.018-4.146-2.531-6.165-1.147s-2.533,4.143-1.148,6.162c0.309,0.448,0.698,0.838,1.148,1.146
	c-0.724,0.249-1.406,0.606-2.023,1.062c-0.001-0.006-0.001-0.011-0.002-0.015c-0.008,0.005-0.019,0.009-0.028,0.013
	c-0.046,0.04-0.095,0.078-0.141,0.114c-0.334,0.252-0.598,0.575-0.911,0.851c0,0.002,0,0.003,0,0.005
	c-1.323,1.415-2.058,3.282-2.053,5.22h1.199c0-3.571,2.897-6.466,6.47-6.466s6.47,2.895,6.47,6.466H24
	C24.008,21.967,23.198,20.016,21.755,18.58z M16.333,16.336c-1.786,0-3.235-1.448-3.235-3.233c0-1.786,1.449-3.234,3.235-3.234
	s3.235,1.448,3.235,3.234v0.001C19.566,14.888,18.119,16.334,16.333,16.336z"/>
</svg>
