<?xml version="1.0" encoding="utf-8"?>
<!-- Generator: Adobe Illustrator 16.0.0, SVG Export Plug-In . SVG Version: 6.00 Build 0)  -->
<!DOCTYPE svg PUBLIC "-//W3C//DTD SVG 1.1//EN" "http://www.w3.org/Graphics/SVG/1.1/DTD/svg11.dtd">
<svg version="1.1" id="Capa_1" xmlns="http://www.w3.org/2000/svg" xmlns:xlink="http://www.w3.org/1999/xlink" x="0px" y="0px"
	 width="30px" height="20.395px" viewBox="500.124 526.184 30 20.395" enable-background="new 500.124 526.184 30 20.395"
	 xml:space="preserve">
<title>visitante</title>
<path fill="#0D2F9B" d="M514.104,536.782c-0.874-0.88-1.939-1.549-3.111-1.955c2.157-1.479,2.705-4.429,1.226-6.586
	c-1.48-2.157-4.429-2.706-6.586-1.226c-2.156,1.479-2.706,4.428-1.226,6.586c0.33,0.479,0.745,0.896,1.226,1.226
	c-0.772,0.267-1.501,0.649-2.16,1.135c0-0.006-0.002-0.011-0.003-0.016c-0.01,0.005-0.02,0.01-0.03,0.014
	c-0.05,0.042-0.102,0.083-0.151,0.12c-0.356,0.271-0.638,0.617-0.972,0.91c0,0.002,0,0.003,0,0.006
	c-1.415,1.513-2.198,3.508-2.192,5.58h1.279c0-3.818,3.096-6.913,6.913-6.913c3.816,0,6.912,3.095,6.912,6.913h1.276
	C516.51,540.401,515.646,538.315,514.104,536.782z M508.312,534.383c-1.909,0-3.456-1.548-3.456-3.456
	c0-1.909,1.547-3.457,3.456-3.457s3.457,1.548,3.457,3.457l0,0C511.767,532.835,510.22,534.381,508.312,534.383z"/>
<path fill="#0D2F9B" d="M527.723,540.786c-0.875-0.88-1.939-1.549-3.112-1.955c2.157-1.481,2.706-4.429,1.226-6.586
	c-1.479-2.157-4.429-2.706-6.586-1.227c-2.157,1.48-2.705,4.429-1.226,6.585c0.33,0.481,0.746,0.896,1.226,1.228
	c-0.772,0.266-1.501,0.649-2.16,1.134c0-0.005-0.001-0.01-0.003-0.016c-0.01,0.006-0.02,0.01-0.03,0.013
	c-0.05,0.043-0.102,0.085-0.151,0.122c-0.356,0.271-0.637,0.615-0.972,0.91c0,0.002,0,0.003,0,0.005
	c-1.415,1.514-2.198,3.508-2.192,5.579h1.28c0-3.816,3.095-6.911,6.912-6.911c3.818,0,6.912,3.095,6.912,6.911h1.277
	C530.128,544.404,529.264,542.319,527.723,540.786z M521.93,538.387c-1.909,0-3.456-1.548-3.456-3.457s1.547-3.456,3.456-3.456
	s3.457,1.547,3.457,3.456v0.001C525.384,536.839,523.838,538.384,521.93,538.387z"/>
</svg>
