<?xml version="1.0" encoding="utf-8"?>
<!-- Generator: Adobe Illustrator 16.0.0, SVG Export Plug-In . SVG Version: 6.00 Build 0)  -->
<!DOCTYPE svg PUBLIC "-//W3C//DTD SVG 1.1//EN" "http://www.w3.org/Graphics/SVG/1.1/DTD/svg11.dtd">
<svg version="1.1" id="Capa_1" xmlns="http://www.w3.org/2000/svg" xmlns:xlink="http://www.w3.org/1999/xlink" x="0px" y="0px"
	 width="23px" height="23px" viewBox="0 0 23 23" enable-background="new 0 0 23 23" xml:space="preserve">
<path fill="#FFFFFF" d="M19.903,10.039c-0.422-0.113-0.727-0.388-0.879-0.798c-0.066-0.177-0.141-0.354-0.219-0.526
	c-0.182-0.398-0.162-0.808,0.057-1.187c0.474-0.815,0.338-1.85-0.326-2.515c-0.666-0.666-1.7-0.8-2.516-0.327
	c-0.379,0.22-0.789,0.239-1.187,0.057c-0.173-0.079-0.351-0.152-0.526-0.218c-0.41-0.153-0.686-0.457-0.798-0.88
	c-0.242-0.91-1.069-1.546-2.01-1.546S9.733,2.735,9.49,3.645c-0.112,0.423-0.388,0.727-0.797,0.88
	c-0.177,0.066-0.354,0.14-0.527,0.218C7.768,4.925,7.358,4.905,6.979,4.686c-0.815-0.473-1.85-0.339-2.515,0.327
	c-0.81,0.81-0.81,2.13,0,2.94l0.081,0.082c-0.352,0.608-0.62,1.256-0.802,1.934H3.63c-1.147,0-2.08,0.933-2.08,2.08
	c0,0.94,0.636,1.767,1.547,2.011c0.422,0.111,0.726,0.388,0.88,0.797c0.065,0.177,0.139,0.354,0.217,0.525
	c0.182,0.398,0.163,0.809-0.057,1.188c-0.473,0.815-0.338,1.85,0.327,2.515c0.666,0.666,1.7,0.8,2.515,0.328
	c0.38-0.22,0.79-0.24,1.187-0.058c0.173,0.078,0.35,0.151,0.527,0.218c0.41,0.153,0.685,0.457,0.797,0.88
	c0.243,0.91,1.07,1.547,2.01,1.547s1.768-0.636,2.01-1.547c0.112-0.422,0.388-0.727,0.798-0.88c0.178-0.066,0.354-0.14,0.526-0.218
	c0.397-0.183,0.808-0.162,1.187,0.058c0.815,0.472,1.85,0.338,2.516-0.328c0.664-0.665,0.8-1.7,0.326-2.515
	c-0.22-0.379-0.24-0.789-0.057-1.188c0.078-0.172,0.152-0.349,0.219-0.525c0.152-0.41,0.457-0.686,0.879-0.797
	c0.91-0.244,1.547-1.07,1.547-2.011C21.45,11.108,20.813,10.281,19.903,10.039z M19.557,12.756c-0.85,0.226-1.487,0.806-1.795,1.629
	c-0.055,0.147-0.116,0.294-0.183,0.438c-0.365,0.8-0.323,1.661,0.117,2.423c0.168,0.288,0.121,0.652-0.113,0.887
	s-0.6,0.28-0.887,0.114c-0.762-0.442-1.623-0.483-2.422-0.117c-0.144,0.065-0.291,0.126-0.438,0.181
	c-0.824,0.309-1.402,0.945-1.628,1.797c-0.086,0.319-0.377,0.545-0.708,0.545c-0.33,0-0.622-0.225-0.707-0.547
	c-0.227-0.85-0.805-1.486-1.629-1.795c-0.147-0.055-0.294-0.115-0.437-0.181c-0.361-0.165-0.735-0.247-1.105-0.247
	c-0.452,0-0.9,0.121-1.319,0.364c-0.287,0.167-0.652,0.12-0.886-0.114c-0.234-0.234-0.281-0.599-0.114-0.887
	c0.442-0.762,0.483-1.622,0.117-2.423c-0.065-0.144-0.126-0.29-0.181-0.438c-0.308-0.823-0.946-1.403-1.796-1.629
	c-0.321-0.085-0.545-0.376-0.545-0.707c0-0.404,0.328-0.732,0.731-0.732h0.65c0.323,0,0.6-0.229,0.662-0.546
	c0.17-0.882,0.513-1.709,1.019-2.456c0.18-0.268,0.146-0.626-0.082-0.854l-0.46-0.46c-0.286-0.286-0.286-0.75,0-1.035
	c0.233-0.234,0.598-0.281,0.886-0.115c0.761,0.442,1.622,0.484,2.423,0.118c0.143-0.066,0.29-0.127,0.437-0.182
	c0.824-0.307,1.402-0.945,1.629-1.795c0.085-0.321,0.376-0.546,0.707-0.546s0.622,0.225,0.708,0.546
	c0.226,0.85,0.804,1.488,1.628,1.795c0.147,0.055,0.295,0.116,0.438,0.182c0.799,0.366,1.66,0.324,2.422-0.118
	c0.287-0.166,0.652-0.12,0.887,0.115c0.234,0.234,0.281,0.598,0.113,0.886c-0.44,0.762-0.482,1.622-0.117,2.423
	c0.066,0.143,0.128,0.29,0.182,0.438c0.309,0.824,0.946,1.402,1.796,1.628c0.321,0.086,0.546,0.377,0.546,0.708
	C20.103,12.379,19.878,12.671,19.557,12.756z"/>
<path fill="#FFFFFF" d="M11.5,6.783c-2.903,0-5.264,2.362-5.264,5.265c0,2.904,2.361,5.266,5.265,5.266
	c2.902,0,5.265-2.361,5.265-5.266C16.766,9.145,14.403,6.783,11.5,6.783L11.5,6.783z M11.5,15.966c-0.655,0-1.273-0.162-1.816-0.447
	c0.387-0.627,1.07-1.017,1.817-1.017c0.742,0,1.43,0.399,1.814,1.017C12.772,15.804,12.155,15.966,11.5,15.966L11.5,15.966z
	 M10.441,12.048c0-0.584,0.475-1.06,1.06-1.06c0.584,0,1.061,0.476,1.061,1.06c0,0.585-0.477,1.061-1.061,1.061
	C10.916,13.108,10.441,12.633,10.441,12.048z M14.387,14.694c-0.219-0.322-0.489-0.61-0.803-0.844
	c-0.095-0.07-0.192-0.137-0.292-0.196c0.383-0.427,0.615-0.99,0.615-1.606c0-1.327-1.08-2.407-2.406-2.407
	c-1.328,0-2.408,1.08-2.408,2.407c0,0.616,0.233,1.178,0.615,1.604c-0.432,0.261-0.807,0.615-1.095,1.041
	c-0.64-0.697-1.03-1.625-1.03-2.645c0-2.16,1.758-3.917,3.918-3.917s3.917,1.757,3.917,3.917
	C15.418,13.067,15.026,13.997,14.387,14.694z"/>
</svg>
