<?xml version="1.0" encoding="utf-8"?>
<!-- Generator: Adobe Illustrator 16.0.0, SVG Export Plug-In . SVG Version: 6.00 Build 0)  -->
<!DOCTYPE svg PUBLIC "-//W3C//DTD SVG 1.1//EN" "http://www.w3.org/Graphics/SVG/1.1/DTD/svg11.dtd">
<svg version="1.1" id="Capa_1" xmlns="http://www.w3.org/2000/svg" xmlns:xlink="http://www.w3.org/1999/xlink" x="0px" y="0px"
	 width="100px" height="100px" viewBox="187.667 218.667 100 100" enable-background="new 187.667 218.667 100 100"
	 xml:space="preserve">
<circle fill="#AFC12D" cx="237.667" cy="268.666" r="50"/>
<g>
	<path fill="#FFFFFF" d="M212.592,271.629c-0.123-1.033-0.188-2.06-0.188-2.962c0-13.472,11.113-24.585,24.585-24.585
		c6.283,0,12.167,2.534,16.494,6.484l-2.17,2.209c-0.489,0.488-0.678,1.203-0.489,1.881c0.227,0.64,0.753,1.129,1.43,1.279
		c0.379,0.075,12.821,4.085,12.03,3.926c1.008,0.336,2.498-0.739,2.221-2.22c-0.078-0.379-2.832-14.201-2.674-13.409
		c-0.15-0.677-0.639-1.241-1.316-1.43c-0.639-0.188-1.355,0-1.844,0.489l-1.844,1.806c-5.682-5.306-13.484-8.541-21.837-8.541
		c-17.648,0-32.11,14.462-32.11,32.11v0.075c0,1.061,0.049,1.88,0.104,2.507c0.075,0.832,0.688,1.512,1.506,1.676l3.865,0.772
		C211.612,273.949,212.744,272.895,212.592,271.629z"/>
	<path fill="#FFFFFF" d="M267.5,264.405l-3.877-0.789c-1.26-0.257-2.398,0.799-2.244,2.071c0.135,1.098,0.195,2.166,0.195,2.979
		c0,13.472-11.114,24.584-24.585,24.584c-6.284,0-12.167-2.533-16.494-6.522l2.17-2.17c0.488-0.488,0.677-1.203,0.488-1.882
		c-0.226-0.639-0.752-1.129-1.429-1.279c-0.379-0.075-12.821-4.084-12.029-3.926c-0.64-0.112-1.279,0.076-1.693,0.527
		c-0.451,0.413-0.64,1.091-0.527,1.693c0.077,0.379,2.832,14.074,2.673,13.282c0.149,0.678,0.64,1.242,1.316,1.43
		c0.785,0.197,1.44-0.04,1.844-0.488l1.807-1.807c5.682,5.307,13.483,8.668,21.875,8.668c17.647,0,32.111-14.463,32.111-32.11
		v-0.113c0-0.834-0.031-1.653-0.1-2.467C268.928,265.256,268.319,264.572,267.5,264.405z"/>
</g>
</svg>
