<?xml version="1.0" encoding="utf-8"?>
<!-- Generator: Adobe Illustrator 16.0.0, SVG Export Plug-In . SVG Version: 6.00 Build 0)  -->
<!DOCTYPE svg PUBLIC "-//W3C//DTD SVG 1.1//EN" "http://www.w3.org/Graphics/SVG/1.1/DTD/svg11.dtd">
<svg version="1.1" id="Capa_1" xmlns="http://www.w3.org/2000/svg" xmlns:xlink="http://www.w3.org/1999/xlink" x="0px" y="0px"
	 width="36px" height="36px" viewBox="6 6 36 36" enable-background="new 6 6 36 36" xml:space="preserve">
<g>
	<path fill="none" d="M0,0h48v48H0V0z"/>
	<path fill="#FFFFFF" d="M34,6H10c-2.21,0-4,1.79-4,4v28c0,2.21,1.79,4,4,4h28c2.21,0,4-1.79,4-4V14L34,6z M24,38
		c-3.31,0-6-2.689-6-6s2.69-6,6-6c3.311,0,6,2.689,6,6S27.311,38,24,38z M30,18H10v-8h20V18z"/>
</g>
</svg>
