<svg width="87" height="87" viewBox="0 0 87 87" fill="none" xmlns="http://www.w3.org/2000/svg">
<g clip-path="url(#clip0)">
<path d="M87.0008 35.6836C87.0008 41.8804 85.3866 47.9857 82.3326 53.3402C81.4027 54.9704 79.3278 55.5379 77.6969 54.608C76.0667 53.6781 75.4986 51.6025 76.4292 49.9723C78.8983 45.6426 80.2039 40.7016 80.2039 35.6836C80.2039 19.7554 67.2454 6.79688 51.3172 6.79688C35.389 6.79688 22.4305 19.7554 22.4305 35.6836C22.4305 51.6118 35.389 64.5703 51.3172 64.5703C56.2742 64.5703 61.1627 63.2946 65.4539 60.8811C67.0901 59.9612 69.1623 60.542 70.0823 62.1775C71.0023 63.8136 70.4222 65.8859 68.786 66.8052C63.4799 69.7901 57.4391 71.3672 51.3172 71.3672C42.7402 71.3672 34.8607 68.3245 28.6997 63.2627L5.7941 86.013C5.13167 86.6708 4.26547 87 3.39927 87C2.52576 87 1.65226 86.6655 0.987838 85.9964C-0.334367 84.6649 -0.327065 82.513 1.00443 81.1901L23.8795 58.471C18.7334 52.2855 15.6336 44.3403 15.6336 35.6836C15.6336 16.0078 31.6415 0 51.3172 0C70.993 0 87.0008 16.0078 87.0008 35.6836V35.6836ZM74.1485 34.2393C74.9722 35.4115 74.9722 36.9746 74.1491 38.1468C74.0297 38.3167 73.6195 38.8975 73.3646 39.2181C72.2269 40.6485 69.5626 44.0005 65.8555 46.9588C61.1023 50.7522 56.2111 52.6758 51.3172 52.6758C46.424 52.6758 41.5328 50.7522 36.7796 46.9588C33.0719 44.0005 30.4075 40.6492 29.2699 39.2181C29.015 38.8975 28.6054 38.3174 28.4853 38.1468C27.6622 36.9746 27.6622 35.4115 28.486 34.2393C28.6054 34.0693 29.015 33.4892 29.2699 33.1693C30.4075 31.7376 33.0725 28.3862 36.7796 25.4279C41.5321 21.6345 46.424 19.7109 51.3172 19.7109C56.2111 19.7109 61.1023 21.6345 65.8555 25.4279C69.5626 28.3862 72.2269 31.7376 73.3646 33.1693C73.6195 33.4899 74.029 34.0693 74.1485 34.2393V34.2393ZM67.0596 36.1934C61.6559 29.7649 56.3651 26.5078 51.3172 26.5078C46.27 26.5078 40.9792 29.7649 35.5756 36.1934C40.9792 42.6218 46.27 45.8789 51.3172 45.8789C56.3651 45.8789 61.6552 42.6225 67.0596 36.1934ZM51.4872 29.7363C47.9208 29.7363 45.0301 32.627 45.0301 36.1934C45.0301 39.7597 47.9208 42.6504 51.4872 42.6504C55.0535 42.6504 57.9442 39.7597 57.9442 36.1934C57.9442 32.627 55.0535 29.7363 51.4872 29.7363Z" fill="#C1C1C1"/>
</g>
<defs>
<clipPath id="clip0">
<rect width="87" height="87" fill="white"/>
</clipPath>
</defs>
</svg>
