<?xml version="1.0" encoding="utf-8"?>
<!-- Generator: Adobe Illustrator 16.0.0, SVG Export Plug-In . SVG Version: 6.00 Build 0)  -->
<!DOCTYPE svg PUBLIC "-//W3C//DTD SVG 1.1//EN" "http://www.w3.org/Graphics/SVG/1.1/DTD/svg11.dtd">
<svg version="1.1" id="Layer_1" xmlns="http://www.w3.org/2000/svg" xmlns:xlink="http://www.w3.org/1999/xlink" x="0px" y="0px"
	 width="24px" height="24px" viewBox="244 244 24 24" enable-background="new 244 244 24 24" xml:space="preserve">
<g>
	<path fill="#0D2F9B" d="M267.049,266.451h-1.9v-18.967c0-0.428-0.426-0.774-0.95-0.774h-7.129v-1.936
		c0-0.428-0.426-0.774-0.951-0.774h-6.594c-0.525,0-0.95,0.347-0.95,0.774v1.936h-0.772c-0.525,0-0.951,0.346-0.951,0.774v18.967
		h-1.901c-0.525,0-0.95,0.348-0.95,0.774c0,0.428,0.425,0.774,0.95,0.774h22.099c0.525,0,0.951-0.347,0.951-0.774
		S267.574,266.451,267.049,266.451z M250.475,245.548h4.693v1.161h-4.693V245.548z M254.099,266.451v-3.29h3.802v3.29H254.099z
		 M259.802,266.451v-3.29h0.416c0.524,0,0.95-0.347,0.95-0.774c0-0.427-0.426-0.773-0.95-0.773c-3.307,0-5.374,0-8.436,0
		c-0.525,0-0.95,0.347-0.95,0.773c0,0.428,0.425,0.774,0.95,0.774h0.416v3.29h-3.446v-18.193h14.495v18.193H259.802z
		 M254.633,250.532c0,0.428-0.425,0.774-0.95,0.774h-1.069c-0.525,0-0.951-0.347-0.951-0.774s0.426-0.774,0.951-0.774h1.069
		C254.208,249.758,254.633,250.104,254.633,250.532z M260.277,250.532c0,0.428-0.426,0.774-0.951,0.774h-1.069
		c-0.524,0-0.95-0.347-0.95-0.774s0.426-0.774,0.95-0.774h1.069C259.852,249.758,260.277,250.104,260.277,250.532z M254.633,253.436
		c0,0.427-0.425,0.774-0.95,0.774h-1.069c-0.525,0-0.951-0.347-0.951-0.774c0-0.428,0.426-0.774,0.951-0.774h1.069
		C254.208,252.661,254.633,253.008,254.633,253.436z M260.277,253.436c0,0.427-0.426,0.774-0.951,0.774h-1.069
		c-0.524,0-0.95-0.347-0.95-0.774c0-0.428,0.426-0.774,0.95-0.774h1.069C259.852,252.661,260.277,253.008,260.277,253.436z
		 M254.633,256.339c0,0.428-0.425,0.774-0.95,0.774h-1.069c-0.525,0-0.951-0.347-0.951-0.774s0.426-0.774,0.951-0.774h1.069
		C254.208,255.564,254.633,255.911,254.633,256.339z M260.277,256.339c0,0.428-0.426,0.774-0.951,0.774h-1.069
		c-0.524,0-0.95-0.347-0.95-0.774s0.426-0.774,0.95-0.774h1.069C259.852,255.564,260.277,255.911,260.277,256.339z M254.633,259.242
		c0,0.428-0.425,0.774-0.95,0.774h-1.069c-0.525,0-0.951-0.347-0.951-0.774s0.426-0.774,0.951-0.774h1.069
		C254.208,258.468,254.633,258.814,254.633,259.242z M260.277,259.242c0,0.428-0.426,0.774-0.951,0.774h-1.069
		c-0.524,0-0.95-0.347-0.95-0.774s0.426-0.774,0.95-0.774h1.069C259.852,258.468,260.277,258.814,260.277,259.242z"/>
</g>
</svg>
