<?xml version="1.0" encoding="utf-8"?>
<!-- Generator: Adobe Illustrator 16.0.0, SVG Export Plug-In . SVG Version: 6.00 Build 0)  -->
<!DOCTYPE svg PUBLIC "-//W3C//DTD SVG 1.1//EN" "http://www.w3.org/Graphics/SVG/1.1/DTD/svg11.dtd">
<svg version="1.1" id="Capa_1" xmlns="http://www.w3.org/2000/svg" xmlns:xlink="http://www.w3.org/1999/xlink" x="0px" y="0px"
	 width="212px" height="212px" viewBox="121 122 212 212" enable-background="new 121 122 212 212" xml:space="preserve">
<g>
	<path fill="#E0E0E0" d="M227,334c58.542,0,106-47.458,106-106s-47.458-106-106-106s-106,47.458-106,106S168.458,334,227,334z"/>
	<path fill="none" stroke="#FFFFFF" stroke-width="10" d="M328,228c0,55.781-45.219,101-101,101c-55.78,0-101-45.219-101-101
		c0-55.78,45.22-101,101-101C282.781,127,328,172.22,328,228z"/>
</g>
<path fill="#FFFFFF" d="M249.534,187.542c11.014,11.55,11.014,30.277,0,41.827c-11.015,11.551-28.872,11.551-39.886,0
	c-11.015-11.55-11.015-30.277,0-41.827C220.662,175.992,238.52,175.992,249.534,187.542"/>
<path fill="#FFFFFF" d="M274.911,255.863c-26.937-17.705-63.711-17.705-90.647,0c-3.996,2.625-6.384,7.06-6.384,11.867v24.906
	h103.415V267.73C281.295,262.923,278.907,258.488,274.911,255.863z"/>
<path fill="#FFFFFF" d="M178.345,262.754H280.87v53.869H178.345V262.754z"/>
<ellipse fill="#FFFFFF" cx="229.608" cy="305.328" rx="42.574" ry="25.197"/>
</svg>
