<svg xmlns="http://www.w3.org/2000/svg" width="22" height="22" fill="none" viewBox="0 0 22 22">
    <path fill="#34559C" fill-rule="evenodd" d="M14.228 11.732c1.517.523 2.907 1.388 4.074 2.555 2.025 2.025 3.14 4.717 3.14 7.581h-1.675c0-4.988-4.058-9.046-9.046-9.046-4.988 0-9.046 4.058-9.046 9.046H0c0-2.863 1.115-5.556 3.14-7.58 1.168-1.168 2.558-2.033 4.074-2.556C5.59 10.613 4.523 8.74 4.523 6.624c0-3.418 2.78-6.198 6.198-6.198 3.418 0 6.198 2.78 6.198 6.198 0 2.117-1.067 3.99-2.69 5.108zm-8.03-5.107c0 2.494 2.029 4.523 4.523 4.523 2.494 0 4.523-2.03 4.523-4.523 0-2.494-2.029-4.523-4.523-4.523-2.494 0-4.523 2.029-4.523 4.523z" clip-rule="evenodd"/>
</svg>
