<?xml version="1.0" encoding="utf-8"?>
<!-- Generator: Adobe Illustrator 16.0.0, SVG Export Plug-In . SVG Version: 6.00 Build 0)  -->
<!DOCTYPE svg PUBLIC "-//W3C//DTD SVG 1.1//EN" "http://www.w3.org/Graphics/SVG/1.1/DTD/svg11.dtd">
<svg version="1.1" id="Capa_1" xmlns="http://www.w3.org/2000/svg" xmlns:xlink="http://www.w3.org/1999/xlink" x="0px" y="0px"
	 width="454px" height="455px" viewBox="0 0 454 455" enable-background="new 0 0 454 455" xml:space="preserve">
<g>
	<defs>
		<rect id="SVGID_1_" width="454" height="455"/>
	</defs>
	<clipPath id="SVGID_2_">
		<use xlink:href="#SVGID_1_"  overflow="visible"/>
	</clipPath>
	<g clip-path="url(#SVGID_2_)">
		<g>
			<defs>
				<rect id="SVGID_3_" width="454" height="455"/>
			</defs>
			<clipPath id="SVGID_4_">
				<use xlink:href="#SVGID_3_"  overflow="visible"/>
			</clipPath>
			<g opacity="0.14" clip-path="url(#SVGID_4_)" enable-background="new    ">
				<g>
					<defs>
						<rect id="SVGID_5_" width="454" height="455"/>
					</defs>
					<clipPath id="SVGID_6_">
						<use xlink:href="#SVGID_5_"  overflow="visible"/>
					</clipPath>
					<g clip-path="url(#SVGID_6_)">
						<defs>
							<rect id="SVGID_7_" width="454" height="455"/>
						</defs>
						<clipPath id="SVGID_8_">
							<use xlink:href="#SVGID_7_"  overflow="visible"/>
						</clipPath>
						<image overflow="visible" clip-path="url(#SVGID_8_)" width="454" height="455" xlink:href="A51330AE.png" >
						</image>
					</g>
				</g>
			</g>
			<path clip-path="url(#SVGID_4_)" fill="#C2CF4C" d="M220,28.89c106.039,0,192,85.961,192,192s-85.961,192-192,192
				s-192-85.961-192-192S113.961,28.89,220,28.89"/>
			
				<circle clip-path="url(#SVGID_4_)" fill="none" stroke="#FFFFFF" stroke-width="40" stroke-miterlimit="10" cx="220" cy="220.89" r="192"/>
			<path clip-path="url(#SVGID_4_)" fill="#FFFFFF" d="M220,133.89c27.642,0,50.05,22.408,50.05,50.05s-22.408,50.051-50.05,50.051
				c-27.642,0-50.05-22.409-50.05-50.051S192.358,133.89,220,133.89"/>
			<path clip-path="url(#SVGID_4_)" fill="#FFFFFF" d="M296.78,270.07c-45.63-30.83-107.93-30.83-153.56,0
				c-6.818,4.663-10.873,12.409-10.82,20.67V408.22H307.6V290.74C307.653,282.479,303.598,274.733,296.78,270.07"/>
		</g>
	</g>
</g>
</svg>
