<svg width="22" height="22" viewBox="0 0 22 22" fill="none" xmlns="http://www.w3.org/2000/svg">
<g clip-path="url(#clip0)">
<path d="M18.9477 3.38499C16.8713 1.21764 13.9983 -0.00550411 10.9968 1.86213e-05C4.93112 -0.00762116 0.00764849 4.90343 8.708e-06 10.9692C-0.00376516 13.9685 1.21924 16.8388 3.38499 18.9138C3.39129 18.92 3.39364 18.9295 3.3999 18.935C3.4635 18.9963 3.53263 19.0481 3.59706 19.107C3.77379 19.2641 3.95051 19.4267 4.13668 19.5783C4.23641 19.6569 4.3401 19.7354 4.44222 19.8076C4.61817 19.9388 4.79411 20.07 4.97788 20.191C5.10279 20.2695 5.2316 20.348 5.35959 20.4266C5.52923 20.5287 5.69814 20.6316 5.8733 20.725C6.02177 20.8036 6.17332 20.8711 6.32414 20.9426C6.48908 21.0212 6.65168 21.0997 6.82054 21.1704C6.9894 21.2411 7.15908 21.2961 7.33029 21.3573C7.50149 21.4186 7.64918 21.4751 7.81334 21.5254C7.99872 21.5812 8.1888 21.6243 8.37731 21.6707C8.53438 21.7092 8.68677 21.7532 8.84858 21.7846C9.06535 21.8278 9.28529 21.8553 9.50524 21.8851C9.64114 21.904 9.77387 21.9307 9.91129 21.9441C10.2711 21.9794 10.6339 21.9991 10.9999 21.9991C11.3659 21.9991 11.7288 21.9794 12.0885 21.9441C12.226 21.9307 12.3587 21.904 12.4946 21.8851C12.7145 21.8553 12.9344 21.8278 13.1513 21.7846C13.3083 21.7532 13.4655 21.706 13.6225 21.6707C13.811 21.6243 14.0011 21.5811 14.1865 21.5254C14.3507 21.4751 14.5093 21.4139 14.6695 21.3573C14.8298 21.3007 15.012 21.2395 15.1793 21.1704C15.3466 21.1012 15.5107 21.0203 15.6757 20.9426C15.8265 20.8711 15.9781 20.8036 16.1265 20.725C16.3017 20.6316 16.4706 20.5287 16.6402 20.4266C16.7683 20.348 16.8971 20.2766 17.022 20.191C17.2058 20.07 17.3817 19.9388 17.5576 19.8076C17.6597 19.7291 17.7634 19.6584 17.8632 19.5783C18.0493 19.429 18.226 19.2704 18.4028 19.107C18.4672 19.0481 18.5363 18.9963 18.5999 18.935C18.6062 18.9295 18.6086 18.9201 18.6148 18.9138C22.995 14.7175 23.144 7.76503 18.9477 3.38499ZM17.1823 18.0914C17.0394 18.2171 16.8917 18.3365 16.7425 18.4519C16.6546 18.5195 16.5666 18.5862 16.4762 18.6507C16.3341 18.7536 16.1895 18.851 16.0426 18.9444C15.9358 19.0128 15.8267 19.0787 15.7167 19.1432C15.5784 19.2217 15.4378 19.3002 15.2956 19.3788C15.17 19.4432 15.0419 19.5037 14.9131 19.5634C14.7844 19.6231 14.6422 19.6867 14.5031 19.7425C14.3641 19.7982 14.2165 19.8508 14.0711 19.8995C13.9384 19.9451 13.8057 19.9922 13.6713 20.0323C13.5142 20.0794 13.3501 20.1179 13.1875 20.1572C13.0602 20.187 12.9346 20.2208 12.8058 20.246C12.6196 20.2821 12.4295 20.3072 12.2387 20.3331C12.1303 20.3472 12.0227 20.3669 11.9135 20.3779C11.6118 20.4069 11.3063 20.4242 10.9976 20.4242C10.6889 20.4242 10.3834 20.407 10.0818 20.3779C9.9726 20.3669 9.865 20.3472 9.75657 20.3331C9.56571 20.3072 9.37564 20.2821 9.18947 20.246C9.06065 20.2208 8.93497 20.187 8.80776 20.1572C8.64516 20.1179 8.48335 20.0786 8.32392 20.0323C8.18963 19.9922 8.05685 19.9451 7.92412 19.8995C7.77883 19.8493 7.63349 19.7982 7.49211 19.7425C7.35072 19.6867 7.21721 19.6254 7.08209 19.5634C6.94697 19.5014 6.82524 19.4432 6.69959 19.3788C6.55743 19.305 6.41683 19.2272 6.27858 19.1432C6.16863 19.0788 6.05942 19.0128 5.9526 18.9444C5.80574 18.851 5.66118 18.7536 5.51902 18.6507C5.42867 18.5863 5.34072 18.5195 5.25273 18.4519C5.10348 18.3365 4.95584 18.2163 4.81289 18.0914C4.77833 18.0655 4.74689 18.0325 4.71316 18.0026C4.74827 15.3307 6.46479 12.9714 8.99627 12.1156C10.262 12.7177 11.7316 12.7177 12.9974 12.1156C15.5288 12.9714 17.2453 15.3306 17.2805 18.0026C17.2475 18.0325 17.2161 18.0624 17.1823 18.0914ZM8.25788 6.29769C9.10833 4.78519 11.0239 4.24852 12.5363 5.09898C14.0488 5.94943 14.5855 7.86495 13.7351 9.37744C13.4529 9.87927 13.0382 10.2939 12.5363 10.5761C12.5324 10.5761 12.5277 10.5761 12.523 10.5808C12.3147 10.6968 12.0946 10.79 11.8663 10.8589C11.8255 10.8707 11.7878 10.8864 11.7446 10.8966C11.6661 10.917 11.5836 10.9312 11.5027 10.9453C11.3503 10.9719 11.1962 10.9874 11.0416 10.9916H10.9521C10.7975 10.9874 10.6433 10.9719 10.491 10.9453C10.4124 10.9312 10.3292 10.917 10.2491 10.8966C10.2075 10.8864 10.1705 10.8707 10.1274 10.8589C9.89914 10.79 9.67902 10.6968 9.47072 10.5808L9.45659 10.5761C7.9441 9.72569 7.40742 7.81018 8.25788 6.29769ZM18.6739 16.4451C18.1699 14.0941 16.6217 12.101 14.4686 11.031C16.2287 9.11364 16.1012 6.13242 14.1839 4.37228C12.2665 2.61213 9.28529 2.73962 7.52515 4.65697C5.87045 6.4595 5.87045 9.22851 7.52515 11.031C5.37197 12.1011 3.82386 14.0941 3.31982 16.4451C0.307901 12.2026 1.30549 6.32171 5.54801 3.30979C9.79053 0.297878 15.6714 1.29547 18.6833 5.53799C19.8155 7.13282 20.4233 9.04051 20.4223 10.9964C20.4223 12.9506 19.811 14.8558 18.6739 16.4451Z" fill="#58C25D"/>
</g>
<defs>
<clipPath id="clip0">
<rect width="22" height="22" fill="white"/>
</clipPath>
</defs>
</svg>
