<?xml version="1.0" encoding="utf-8"?>
<!-- Generator: Adobe Illustrator 16.0.0, SVG Export Plug-In . SVG Version: 6.00 Build 0)  -->
<!DOCTYPE svg PUBLIC "-//W3C//DTD SVG 1.1//EN" "http://www.w3.org/Graphics/SVG/1.1/DTD/svg11.dtd">
<svg version="1.1" id="icons" xmlns="http://www.w3.org/2000/svg" xmlns:xlink="http://www.w3.org/1999/xlink" x="0px" y="0px"
	 width="32.531px" height="32.527px" viewBox="0.364 0.294 32.531 32.527" enable-background="new 0.364 0.294 32.531 32.527"
	 xml:space="preserve">
<title>steering-wheel</title>
<g>
	<path fill="#FFFFFF" d="M16.627,4.169c-6.83,0-12.388,5.558-12.388,12.388c0,6.831,5.558,12.389,12.388,12.389
		c6.831,0,12.389-5.558,12.389-12.389C29.016,9.727,23.458,4.169,16.627,4.169z M16.627,6.075c5.131,0,9.409,3.703,10.31,8.577
		c-0.599-0.092-4.14,0.565-6.834-2.307c-1.525-1.625-3.533-1.518-3.476-1.505c-1.33,0-2.564,0.535-3.474,1.505
		c-1.376,1.466-3.367,2.307-5.463,2.307H6.319C7.218,9.778,11.499,6.075,16.627,6.075z M6.907,20.481
		c3.694-0.778,7.234,2.317,6.838,6.155C10.633,25.746,8.109,23.449,6.907,20.481L6.907,20.481z M15.624,26.99
		c0.647-5.238-4.181-9.504-9.268-8.338c-0.139-0.677-0.211-1.377-0.211-2.095c0.632-0.101,5.046,0.664,8.398-2.909
		c1.126-1.201,3.035-1.21,4.17,0c3.355,3.576,7.751,2.806,8.397,2.909c0,0.718-0.073,1.418-0.211,2.095
		c-5.098-1.168-9.913,3.11-9.268,8.338C16.981,27.054,16.323,27.06,15.624,26.99L15.624,26.99z M19.509,26.637
		c-0.396-3.842,3.149-6.933,6.839-6.155C25.145,23.449,22.622,25.746,19.509,26.637z"/>
	<path fill="#FFFFFF" d="M19.486,17.511c0-1.577-1.281-2.859-2.859-2.859c-1.576,0-2.858,1.283-2.858,2.859
		c0,1.576,1.283,2.858,2.858,2.858C18.205,20.369,19.486,19.087,19.486,17.511z M16.627,18.464c-0.525,0-0.953-0.427-0.953-0.953
		c0-0.526,0.428-0.953,0.953-0.953c0.526,0,0.953,0.427,0.953,0.953C17.58,18.037,17.153,18.464,16.627,18.464z"/>
	<path fill="#FFFFFF" d="M28.115,5.07c-3.081-3.08-7.161-4.776-11.488-4.776c-8.955,0-16.263,7.309-16.263,16.264
		c0,8.955,7.309,16.264,16.263,16.264c4.327,0,8.407-1.696,11.488-4.776C34.486,21.672,34.488,11.445,28.115,5.07z M16.627,30.916
		c-7.916,0-14.358-6.442-14.358-14.358C2.269,8.641,8.711,2.2,16.627,2.2c7.917,0,14.357,6.441,14.357,14.357
		C30.984,24.474,24.544,30.916,16.627,30.916z"/>
</g>
</svg>
