<?xml version="1.0" encoding="utf-8"?>
<!-- Generator: Adobe Illustrator 16.0.0, SVG Export Plug-In . SVG Version: 6.00 Build 0)  -->
<!DOCTYPE svg PUBLIC "-//W3C//DTD SVG 1.1//EN" "http://www.w3.org/Graphics/SVG/1.1/DTD/svg11.dtd">
<svg version="1.1" id="Capa_1" xmlns="http://www.w3.org/2000/svg" xmlns:xlink="http://www.w3.org/1999/xlink" x="0px" y="0px"
	 width="87.621px" height="64.305px" viewBox="972.5 556.215 87.621 64.305" enable-background="new 972.5 556.215 87.621 64.305"
	 xml:space="preserve">
<title>visitante</title>
<path fill="#FFFFFF" d="M1052.939,603.184c-2.619-2.635-5.806-4.637-9.315-5.854c6.455-4.429,8.098-13.253,3.669-19.709
	c-4.43-6.455-13.253-8.098-19.709-3.669c-6.455,4.43-8.098,13.254-3.669,19.709c0.987,1.438,2.23,2.683,3.669,3.669
	c-2.313,0.8-4.493,1.945-6.465,3.396c-1.637-8.646-7.77-15.76-16.082-18.65c6.454-4.43,8.096-13.252,3.666-19.706
	c-4.429-6.455-13.252-8.097-19.706-3.667s-8.096,13.252-3.667,19.706c0.986,1.438,2.229,2.681,3.667,3.667
	c-9.873,3.432-16.493,12.736-16.497,23.189h3.831c-0.036-11.425,9.197-20.716,20.622-20.751
	c10.914-0.034,19.979,8.417,20.705,19.308c-4.233,4.527-6.58,10.499-6.563,16.697h3.831c0-11.425,9.262-20.687,20.687-20.687
	c11.426,0,20.688,9.262,20.688,20.687h3.82C1060.139,614.014,1057.553,607.771,1052.939,603.184z M997.018,580.748
	c-5.713,0.001-10.345-4.63-10.346-10.343s4.63-10.345,10.343-10.346s10.345,4.629,10.346,10.342c0,0.002,0,0.003,0,0.004
	C1007.354,576.114,1002.728,580.741,997.018,580.748z M1035.604,596.002c-5.713,0-10.345-4.632-10.345-10.345
	s4.632-10.344,10.345-10.344s10.344,4.631,10.344,10.344c0,0.001,0,0.001,0,0.002
	C1045.94,591.369,1041.313,595.996,1035.604,596.002z"/>
</svg>
