<?xml version="1.0" encoding="utf-8"?>
<!-- Generator: Adobe Illustrator 16.0.0, SVG Export Plug-In . SVG Version: 6.00 Build 0)  -->
<!DOCTYPE svg PUBLIC "-//W3C//DTD SVG 1.1//EN" "http://www.w3.org/Graphics/SVG/1.1/DTD/svg11.dtd">
<svg version="1.1" id="Capa_1" xmlns="http://www.w3.org/2000/svg" xmlns:xlink="http://www.w3.org/1999/xlink" x="0px" y="0px"
	 width="83.621px" height="61.369px" viewBox="976.5 559.15 83.621 61.369" enable-background="new 976.5 559.15 83.621 61.369"
	 xml:space="preserve">
<title>visitante</title>
<path fill="#999999" d="M1053.268,603.975c-2.5-2.514-5.541-4.425-8.891-5.586c6.161-4.227,7.729-12.648,3.502-18.809
	c-4.228-6.161-12.648-7.729-18.81-3.502c-6.16,4.228-7.729,12.648-3.501,18.81c0.941,1.372,2.129,2.56,3.501,3.501
	c-2.208,0.764-4.288,1.856-6.17,3.241c-1.562-8.252-7.415-15.04-15.348-17.799c6.159-4.227,7.727-12.646,3.499-18.807
	c-4.227-6.16-12.646-7.727-18.807-3.499c-6.16,4.227-7.727,12.646-3.499,18.807c0.941,1.371,2.127,2.558,3.499,3.499
	c-9.423,3.275-15.74,12.155-15.744,22.131h3.656c-0.034-10.903,8.777-19.77,19.681-19.804c10.416-0.033,19.065,8.033,19.76,18.426
	c-4.04,4.321-6.28,10.021-6.263,15.936h3.656c0-10.903,8.839-19.742,19.742-19.742s19.742,8.839,19.742,19.742h3.646
	C1060.138,614.311,1057.67,608.353,1053.268,603.975z M999.898,582.563c-5.452,0.001-9.873-4.418-9.873-9.87
	c-0.001-5.452,4.418-9.873,9.87-9.874s9.872,4.418,9.874,9.87c0,0.001,0,0.002,0,0.004
	C1009.763,578.142,1005.348,582.557,999.898,582.563z M1036.723,597.121c-5.452,0-9.872-4.42-9.872-9.872s4.42-9.872,9.872-9.872
	s9.872,4.42,9.872,9.872c0,0,0,0.001,0,0.002C1046.588,592.7,1042.172,597.115,1036.723,597.121z"/>
</svg>
