<svg xmlns="http://www.w3.org/2000/svg" width="128" height="128" fill="none" viewBox="0 0 128 128">
    <g clip-path="url(#clip0)">
        <path fill="#34559C" d="M74.116 84.15c-3.13-2.184-6.475-3.963-9.973-5.323 4.654-4.23 7.74-10.154 8.278-16.787 7.056-6.876 16.306-10.645 26.222-10.645 7.741 0 15.174 2.33 21.496 6.74 2.266 1.58 5.381 1.025 6.961-1.24 1.579-2.265 1.025-5.381-1.24-6.96-3.13-2.184-6.476-3.962-9.974-5.323 5.135-4.667 8.364-11.396 8.364-18.865C124.25 11.687 112.812.25 98.753.25S73.257 11.688 73.257 25.747c0 7.439 3.202 14.144 8.301 18.809-.698.268-1.392.552-2.08.855-3.129 1.377-6.07 3.07-8.805 5.059-3.773-9.372-12.958-16.005-23.664-16.005-14.058 0-25.497 11.437-25.497 25.496 0 7.418 3.185 14.105 8.257 18.767C16.208 83.81 5.212 94.724.735 108.641c-1.484 4.615-.698 9.509 2.157 13.428 2.856 3.918 7.274 6.165 12.121 6.165h43.495c2.761 0 5-2.238 5-5 0-2.76-2.239-4.999-5-4.999H15.014c-1.616 0-3.088-.749-4.04-2.055-.953-1.307-1.215-2.939-.72-4.478C15.194 96.339 30.264 85.609 46.9 85.609c7.74 0 15.174 2.332 21.496 6.74 2.265 1.58 5.381 1.025 6.961-1.24 1.58-2.264 1.025-5.38-1.241-6.96zm24.637-73.901c8.546 0 15.498 6.952 15.498 15.498 0 8.545-6.952 15.498-15.498 15.498-8.545 0-15.498-6.953-15.498-15.498 0-8.546 6.953-15.498 15.498-15.498zM47.009 44.463c8.546 0 15.498 6.953 15.498 15.498 0 8.546-6.952 15.498-15.498 15.498-8.545 0-15.498-6.952-15.498-15.498 0-8.545 6.953-15.498 15.498-15.498zM128 104.487c0 2.761-2.239 4.999-5 4.999h-13.748v13.748c0 2.762-2.239 5-4.999 5-2.762 0-5-2.238-5-5v-13.748H85.505c-2.761 0-5-2.238-5-4.999 0-2.761 2.239-5 5-5h13.748V85.74c0-2.76 2.238-4.999 5-4.999 2.76 0 4.999 2.239 4.999 5v13.747H123c2.761 0 5 2.239 5 5z"/>
    </g>
    <defs>
        <clipPath id="clip0">
            <path fill="#fff" d="M0 0H128V128H0z"/>
        </clipPath>
    </defs>
</svg>
