<?xml version="1.0" encoding="utf-8"?>
<!-- Generator: Adobe Illustrator 16.0.0, SVG Export Plug-In . SVG Version: 6.00 Build 0)  -->
<!DOCTYPE svg PUBLIC "-//W3C//DTD SVG 1.1//EN" "http://www.w3.org/Graphics/SVG/1.1/DTD/svg11.dtd">
<svg version="1.1" id="Capa_1" xmlns="http://www.w3.org/2000/svg" xmlns:xlink="http://www.w3.org/1999/xlink" x="0px" y="0px"
	 width="612px" height="792px" viewBox="0 0 612 792" enable-background="new 0 0 612 792" xml:space="preserve">
<title>notepad</title>
<g>
	<path fill="#18D65C" d="M515.796,53.778h-127.29C368.404,8.207,315.165-12.439,269.594,7.663
		c-20.586,9.081-37.035,25.529-46.116,46.116H96.204C48.182,53.822,9.264,92.741,9.22,140.762v564.253
		C9.272,753.034,48.186,791.947,96.204,792h419.592c47.997-0.104,86.88-38.987,86.984-86.984V140.762
		C602.728,92.744,563.814,53.831,515.796,53.778z M237.806,93.403c9.297,0.001,17.342-6.468,19.337-15.548
		c4.866-22.19,25.359-38.23,48.865-38.23c23.506,0,43.983,16.087,48.85,38.23c1.989,9.083,10.037,15.555,19.337,15.548h39.26v17.435
		c-0.026,26.156-21.219,47.356-47.375,47.391H245.921c-26.163-0.026-47.365-21.229-47.391-47.391V93.403H237.806z M563.172,705.016
		c-0.018,26.158-21.219,47.358-47.376,47.376H96.204c-26.16-0.018-47.365-21.216-47.391-47.376V140.762
		c0.026-26.163,21.229-47.365,47.391-47.391h62.734v17.435c0.052,48.018,38.966,86.931,86.984,86.984h120.158
		c48.016-0.053,86.924-38.968,86.968-86.984V93.371h62.749c26.156,0.035,47.35,21.235,47.376,47.391V705.016z"/>
	<path fill="#18D65C" d="M403.991,365.83L274.023,492.755l-66.015-64.429c-7.751-7.713-20.287-7.681-27.999,0.071
		c-7.712,7.751-7.68,20.286,0.071,27.998l0.27,0.254l79.835,77.949c7.688,7.517,19.971,7.517,27.658,0l143.821-140.414
		c7.826-7.637,7.979-20.173,0.341-27.999s-20.173-7.979-27.998-0.341L403.991,365.83z"/>
</g>
</svg>
