<?xml version="1.0" encoding="utf-8"?>
<!-- Generator: Adobe Illustrator 16.0.0, SVG Export Plug-In . SVG Version: 6.00 Build 0)  -->
<!DOCTYPE svg PUBLIC "-//W3C//DTD SVG 1.1//EN" "http://www.w3.org/Graphics/SVG/1.1/DTD/svg11.dtd">
<svg version="1.1" id="Layer_1" xmlns="http://www.w3.org/2000/svg" xmlns:xlink="http://www.w3.org/1999/xlink" x="0px" y="0px"
	 width="22.806px" height="18.942px" viewBox="572.474 649.221 22.806 18.942"
	 enable-background="new 572.474 649.221 22.806 18.942" xml:space="preserve">
<g>
	<g>
		<path fill="#5B5B5B" d="M593.997,656.904l0.036,0.007h-15.261l4.798-4.808c0.234-0.235,0.363-0.553,0.363-0.887
			c0-0.333-0.129-0.649-0.363-0.885l-0.747-0.747c-0.234-0.234-0.547-0.364-0.881-0.364s-0.646,0.129-0.882,0.363l-8.224,8.223
			c-0.235,0.236-0.364,0.55-0.363,0.885c-0.001,0.335,0.128,0.649,0.363,0.885l8.224,8.224c0.235,0.234,0.548,0.363,0.882,0.363
			s0.646-0.13,0.881-0.363l0.747-0.747c0.234-0.234,0.363-0.547,0.363-0.881s-0.129-0.63-0.363-0.865l-4.853-4.835h15.297
			c0.688,0,1.265-0.592,1.265-1.278v-1.057C595.28,657.449,594.685,656.904,593.997,656.904z"/>
	</g>
</g>
</svg>
