<svg xmlns="http://www.w3.org/2000/svg" width="20" height="20" fill="none" viewBox="0 0 20 20">
    <g clip-path="url(#clip0)">
        <path fill="#565933" d="M17.752 12.325l-1.479-1.479-6.656-6.655C8.39 2.973 6.41 2.977 5.188 4.199 3.966 5.42 3.962 7.4 5.18 8.628l6.656 6.658c.272.272.713.272.986 0 .272-.273.272-.714 0-.987L6.166 7.642c-.68-.681-.68-1.785 0-2.465.68-.681 1.784-.681 2.465 0l6.658 6.655 1.479 1.48c1.225 1.226 1.225 3.213 0 4.438-1.227 1.225-3.214 1.225-4.44 0l-1.232-1.234-6.902-6.902L3.7 9.12c-1.724-1.778-1.702-4.61.049-6.36C5.5 1.01 8.332.987 10.11 2.71l7.396 7.396c.176.176.433.245.673.18.24-.064.429-.252.493-.493.065-.24-.004-.497-.18-.673l-7.396-7.396c-2.316-2.305-6.061-2.3-8.372.01-2.31 2.31-2.315 6.056-.01 8.372l7.396 7.396 1.234 1.232c1.78 1.71 4.6 1.681 6.346-.064 1.745-1.745 1.772-4.566.062-6.345z"/>
    </g>
    <defs>
        <clipPath id="clip0">
            <path fill="#fff" d="M0 0H20V20H0z"/>
        </clipPath>
    </defs>
</svg>
