<?xml version="1.0" encoding="utf-8"?>
<!-- Generator: Adobe Illustrator 16.0.0, SVG Export Plug-In . SVG Version: 6.00 Build 0)  -->
<!DOCTYPE svg PUBLIC "-//W3C//DTD SVG 1.1//EN" "http://www.w3.org/Graphics/SVG/1.1/DTD/svg11.dtd">
<svg version="1.1" id="Capa_1" xmlns="http://www.w3.org/2000/svg" xmlns:xlink="http://www.w3.org/1999/xlink" x="0px" y="0px"
	 width="17.5px" height="28px" viewBox="3.249 -2 17.5 28" enable-background="new 3.249 -2 17.5 28" xml:space="preserve">
<path fill="#FFFFFF" d="M11.999,26c-4.825,0-8.75-3.925-8.75-8.75V5c0-0.646,0.522-1.167,1.167-1.167
	C5.06,3.833,5.582,4.354,5.582,5v12.25c0,3.537,2.879,6.417,6.417,6.417s6.417-2.88,6.417-6.417V4.417
	c0-2.252-1.832-4.084-4.084-4.084c-2.251,0-4.083,1.832-4.083,4.084v11.666c0,0.965,0.785,1.75,1.75,1.75s1.75-0.785,1.75-1.75V5
	c0-0.646,0.522-1.167,1.167-1.167c0.644,0,1.166,0.521,1.166,1.167v11.083c0,2.252-1.831,4.084-4.083,4.084
	s-4.083-1.832-4.083-4.084V4.417C7.916,0.88,10.794-2,14.332-2c3.539,0,6.417,2.88,6.417,6.417V17.25
	C20.749,22.075,16.824,26,11.999,26z"/>
</svg>
