<svg xmlns="http://www.w3.org/2000/svg" width="26" height="26" fill="none" viewBox="0 0 26 26">
    <g clip-path="url(#clip0)">
        <path fill="#fff" d="M18.235 11.494l-5.618 6.58c-1.08 1.265-2.979 1.415-4.243.335-1.265-1.08-1.414-2.978-.335-4.243l6.107-7.152c.674-.79 1.862-.884 2.651-.21.79.675.884 1.863.21 2.652l-5.13 6.008c-.269.315-.746.353-1.06.084-.315-.269-.353-.746-.084-1.06l4.64-5.437-.857-.732-4.642 5.435c-.674.79-.58 1.978.21 2.652.79.675 1.977.58 2.652-.209l5.129-6.008c1.08-1.265.93-3.163-.335-4.243-1.264-1.08-3.163-.93-4.243.335l-6.106 7.152c-1.485 1.74-1.28 4.35.46 5.834 1.74 1.486 4.349 1.28 5.834-.46l5.618-6.58-.858-.733z"/>
    </g>
    <defs>
        <clipPath id="clip0">
            <path fill="#fff" d="M0 0H18.057V18.057H0z" transform="rotate(40.489 5.862 15.895)"/>
        </clipPath>
    </defs>
</svg>
