<svg width="26" height="26" viewBox="0 0 26 26" fill="none" xmlns="http://www.w3.org/2000/svg">
<g clip-path="url(#clip0)">
<path d="M18.2348 11.4939L12.6168 18.0743C11.5372 19.3389 9.63845 19.4887 8.37388 18.409C7.1093 17.3294 6.95951 15.4307 8.03915 14.1661L14.1457 7.01355C14.8198 6.22391 16.0079 6.13018 16.7975 6.80434C17.5871 7.4785 17.6809 8.66652 17.0067 9.45616L11.8772 15.4643C11.6085 15.779 11.1312 15.8167 10.8165 15.548C10.5018 15.2793 10.4641 14.802 10.7328 14.4873L15.3738 9.05132L14.5155 8.31854L9.8745 13.7545C9.20034 14.5441 9.29406 15.7322 10.0837 16.4063C10.8734 17.0805 12.0614 16.9868 12.7355 16.1971L17.865 10.1889C18.9446 8.92437 18.7949 7.02567 17.5303 5.94603C16.2657 4.8664 14.367 5.01619 13.2874 6.28077L7.18084 13.4333C5.69573 15.1728 5.90159 17.7822 7.6411 19.2673C9.3806 20.7525 11.99 20.5466 13.4751 18.8071L19.0931 12.2267L18.2348 11.4939Z" fill="white"/>
</g>
<defs>
<clipPath id="clip0">
<rect width="18.0571" height="18.0571" fill="white" transform="translate(11.7246) rotate(40.4891)"/>
</clipPath>
</defs>
</svg>
