<?xml version="1.0" encoding="utf-8"?>
<!-- Generator: Adobe Illustrator 16.0.0, SVG Export Plug-In . SVG Version: 6.00 Build 0)  -->
<!DOCTYPE svg PUBLIC "-//W3C//DTD SVG 1.1//EN" "http://www.w3.org/Graphics/SVG/1.1/DTD/svg11.dtd">
<svg version="1.1" id="Capa_1" xmlns="http://www.w3.org/2000/svg" xmlns:xlink="http://www.w3.org/1999/xlink" x="0px" y="0px"
	 width="73.5px" height="63.477px" viewBox="538.5 596.795 73.5 63.477" enable-background="new 538.5 596.795 73.5 63.477"
	 xml:space="preserve">
<title>bag</title>
<g>
	<path fill="#FFFFFF" d="M608.659,631.874c-1.005,0-1.671,0.668-1.671,1.671v21.715c0,1.005-0.667,1.671-1.669,1.671h-60.139
		c-1.005,0-1.669-0.669-1.669-1.671v-21.715c0-1.005-0.669-1.671-1.671-1.671s-1.67,0.668-1.67,1.671v21.715
		c0,2.84,2.171,5.012,5.012,5.012h60.135c2.841,0,5.012-2.172,5.012-5.012v-21.715C610.329,632.542,609.661,631.874,608.659,631.874
		z"/>
	<path fill="#FFFFFF" d="M606.988,608.487h-63.477c-2.84,0-5.012,2.172-5.012,5.011v10.692c0.015,2.306,1.6,4.305,3.842,4.844
		l26.226,5.847v5.345c0,1.005,0.669,1.671,1.671,1.671h10.023c1.005,0,1.669-0.669,1.669-1.671v-5.345l26.228-5.847
		c2.242-0.539,3.828-2.539,3.842-4.845v-10.691C612,610.659,609.828,608.487,606.988,608.487z M578.591,638.556h-6.682v-6.682h6.682
		V638.556z M608.659,624.189c0,0.835-0.501,1.504-1.336,1.671l-25.393,5.688v-1.337c0-1.005-0.667-1.671-1.669-1.671h-10.023
		c-1.005,0-1.669,0.669-1.669,1.671v1.337l-25.393-5.688c-0.835-0.167-1.336-0.836-1.336-1.67v-10.692
		c0-1.005,0.669-1.669,1.671-1.669h63.477c1.005,0,1.671,0.667,1.671,1.669V624.189z"/>
	<path fill="#FFFFFF" d="M583.602,596.795h-16.703c-2.846,0-5.012,2.166-5.012,5.011v1.67c0,1.005,0.667,1.671,1.669,1.671
		s1.671-0.669,1.671-1.671v-1.67c0-1.005,0.67-1.671,1.672-1.671h16.703c1.005,0,1.672,0.669,1.672,1.671v1.67
		c0,1.005,0.667,1.671,1.669,1.671s1.671-0.669,1.671-1.671v-1.67C588.613,598.961,586.447,596.795,583.602,596.795z"/>
</g>
</svg>
