<svg xmlns="http://www.w3.org/2000/svg" id="bell" width="86.344" height="95.155" viewBox="0 0 86.344 95.155">
    <defs>
        <style>
            .cls-1{fill:#b1b1b1}
        </style>
    </defs>
    <g id="Grupo_9" transform="translate(0)">
        <g id="Grupo_8">
            <path id="Trazado_30" d="M31.08 60a36.152 36.152 0 0 1 9.43-18.713 3.717 3.717 0 1 0-5.368-5.142 43.559 43.559 0 0 0-11.38 22.544 3.717 3.717 0 0 0 3 4.315 3.762 3.762 0 0 0 .661.059A3.718 3.718 0 0 0 31.08 60z" class="cls-1" transform="translate(-23.703 -28.495)"/>
            <path id="Trazado_31" d="M121.045 62.407a13.734 13.734 0 0 1-5.236-3.929 3.717 3.717 0 1 0-5.819 4.622 20.9 20.9 0 0 0 5.862 5.011 12.6 12.6 0 0 1-1.941 4.908 8.088 8.088 0 0 1-7.146 3.545H61.421c-5.749 0-8.314-4.817-9.056-8.474a22.343 22.343 0 0 0 3.734-2.71 18.972 18.972 0 0 0 6.435-14.464V37.913a21.606 21.606 0 0 1 21.195-21.556c.032 0 .064 0 .1-.006s.054 0 .082 0c.1 0 .194-.007.29-.015s.172.015.259.017a21.7 21.7 0 0 1 21.381 21.557v5.2a3.717 3.717 0 0 0 7.434 0v-5.2A29.167 29.167 0 0 0 87.624 9.128V3.717a3.717 3.717 0 1 0-7.434 0v5.457A29.03 29.03 0 0 0 55.1 37.913v13.01c0 8.3-7.478 11.3-7.96 11.485a3.652 3.652 0 0 0-2.447 3.492 20.312 20.312 0 0 0 3.718 11.41A15.647 15.647 0 0 0 61.421 84h11.521a11.151 11.151 0 1 0 22.3 0h11.521a15.412 15.412 0 0 0 13.254-6.741 20.527 20.527 0 0 0 3.476-11.359 3.65 3.65 0 0 0-2.448-3.493zM84.093 87.721A3.721 3.721 0 0 1 80.376 84h7.434a3.721 3.721 0 0 1-3.717 3.721z" class="cls-1" transform="translate(-40.792)"/>
            <path id="Trazado_32" d="M409.587 57.989a44.461 44.461 0 0 0-11.5-22.854 3.717 3.717 0 0 0-5.349 5.163 36.951 36.951 0 0 1 9.535 19 3.717 3.717 0 1 0 7.317-1.312z" class="cls-1" transform="translate(-323.302 -27.681)"/>
        </g>
    </g>
</svg>
