<svg width="28" height="28" viewBox="0 0 28 28" fill="none" xmlns="http://www.w3.org/2000/svg">
<g clip-path="url(#clip0)">
<path d="M24.792 28H4.37533C2.60549 28 1.16699 26.5615 1.16699 24.7917V3.20833C1.16699 1.4385 2.60549 0 4.37533 0H22.4587C22.9417 0 23.3337 0.392 23.3337 0.875V4.66667H24.792C25.275 4.66667 25.667 5.05867 25.667 5.54167V27.125C25.667 27.608 25.275 28 24.792 28ZM2.91699 6.0655V24.7917C2.91699 25.5955 3.57149 26.25 4.37533 26.25H23.917V6.41667H4.37533C3.85033 6.41667 3.35449 6.29067 2.91699 6.0655ZM4.37533 1.75C3.57149 1.75 2.91699 2.4045 2.91699 3.20833C2.91699 4.01217 3.57149 4.66667 4.37533 4.66667H21.5837V1.75H4.37533Z" fill="#34559C"/>
<path d="M14.2913 22.166C14.1315 22.166 13.974 22.1229 13.8317 22.0365L10.4997 19.9855L7.16767 22.0365C6.89701 22.2034 6.55984 22.2092 6.28101 22.0552C6.00334 21.9 5.83301 21.6072 5.83301 21.291V5.54102H7.58301V19.7254L10.04 18.2134C10.3223 18.0407 10.6758 18.0407 10.9582 18.2134L13.4152 19.7254V5.54102H15.1663V21.291C15.1663 21.6072 14.996 21.9 14.7183 22.0552C14.5853 22.1287 14.4383 22.166 14.2913 22.166Z" fill="#34559C"/>
</g>
<defs>
<clipPath id="clip0">
<rect width="28" height="28" fill="white"/>
</clipPath>
</defs>
</svg>
