<svg xmlns="http://www.w3.org/2000/svg" width="30" height="30" fill="none" viewBox="0 0 30 30">
    <g fill="#34559C" clip-path="url(#prefix__clip0)">
        <path d="M26.562 27.52H3.438C1.54 27.52 0 25.977 0 24.082V8.457C0 6.56 1.541 5.02 3.438 5.02h7.5c.517 0 .937.42.937.937 0 .518-.42.938-.937.938h-7.5c-.862 0-1.563.7-1.563 1.562v15.625c0 .861.701 1.563 1.563 1.563h23.124c.862 0 1.563-.702 1.563-1.563V8.457c0-.861-.701-1.562-1.563-1.562h-7.5c-.517 0-.937-.42-.937-.938 0-.517.42-.937.937-.937h7.5C28.46 5.02 30 6.56 30 8.457v15.625c0 1.896-1.541 3.438-3.438 3.438z"/>
        <path d="M17.812 9.394h-5.625c-1.206 0-2.187-.98-2.187-2.187v-2.5c0-1.206.981-2.187 2.187-2.187h5.625C19.02 2.52 20 3.5 20 4.707v2.5c0 1.206-.981 2.187-2.188 2.187zm-5.625-5c-.172 0-.312.14-.312.313v2.5c0 .173.14.312.312.312h5.625c.173 0 .313-.14.313-.312v-2.5c0-.172-.14-.312-.313-.312h-5.625zM9.375 17.52c-1.723 0-3.125-1.403-3.125-3.125 0-1.723 1.402-3.125 3.125-3.125s3.125 1.402 3.125 3.125c0 1.722-1.402 3.125-3.125 3.125zm0-4.375c-.689 0-1.25.56-1.25 1.25 0 .688.561 1.25 1.25 1.25s1.25-.562 1.25-1.25c0-.69-.561-1.25-1.25-1.25zM14.063 23.77c-.518 0-.938-.42-.938-.938v-.625c0-.861-.701-1.563-1.563-1.563H7.188c-.862 0-1.563.702-1.563 1.563v.625c0 .518-.42.938-.938.938-.517 0-.937-.42-.937-.938v-.625c0-1.896 1.541-3.438 3.438-3.438h4.374c1.897 0 3.438 1.542 3.438 3.438v.625c0 .518-.42.938-.938.938zM25.312 13.77h-6.875c-.517 0-.937-.42-.937-.938s.42-.938.938-.938h6.874c.518 0 .938.42.938.938s-.42.938-.938.938zM25.312 18.77h-6.875c-.517 0-.937-.42-.937-.938s.42-.938.938-.938h6.874c.518 0 .938.42.938.938 0 .517-.42.938-.938.938zM25.312 23.77h-6.875c-.517 0-.937-.42-.937-.938s.42-.938.938-.938h6.874c.518 0 .938.42.938.938 0 .517-.42.938-.938.938z"/>
    </g>
    <defs>
        <clipPath id="prefix__clip0">
            <path fill="#fff" d="M0 0H30V30H0z"/>
        </clipPath>
    </defs>
</svg>
