<?xml version="1.0" encoding="utf-8"?>
<!-- Generator: Adobe Illustrator 16.0.0, SVG Export Plug-In . SVG Version: 6.00 Build 0)  -->
<!DOCTYPE svg PUBLIC "-//W3C//DTD SVG 1.1//EN" "http://www.w3.org/Graphics/SVG/1.1/DTD/svg11.dtd">
<svg version="1.1" id="Capa_1" xmlns="http://www.w3.org/2000/svg" xmlns:xlink="http://www.w3.org/1999/xlink" x="0px" y="0px"
	 width="24px" height="24px" viewBox="299 301.211 24 24" enable-background="new 299 301.211 24 24" xml:space="preserve">
<title>calendar</title>
<g>
	<circle fill="#0D2F9B" cx="317.094" cy="311.055" r="0.938"/>
	<path fill="#0D2F9B" d="M319.25,303.086h-1.219v-0.938c0-0.518-0.42-0.938-0.938-0.938s-0.938,0.42-0.938,0.938v0.938h-4.266
		v-0.938c0-0.518-0.42-0.938-0.938-0.938s-0.938,0.42-0.938,0.938v0.938h-4.219v-0.938c0-0.518-0.42-0.938-0.938-0.938
		s-0.938,0.42-0.938,0.938v0.938h-1.172c-2.07,0.003-3.748,1.681-3.75,3.75v14.625c0.002,2.07,1.68,3.748,3.75,3.75h7.172
		c0.518,0,0.938-0.419,0.938-0.938c0-0.518-0.42-0.938-0.938-0.938h-7.172c-1.035,0-1.875-0.839-1.875-1.874v-14.626
		c0-1.035,0.84-1.875,1.875-1.875h1.172v0.938c0,0.519,0.42,0.938,0.938,0.938s0.938-0.419,0.938-0.938v-0.938h4.219v0.938
		c0,0.519,0.42,0.938,0.938,0.938s0.938-0.419,0.938-0.938v-0.938h4.266v0.938c0,0.519,0.42,0.938,0.938,0.938
		s0.938-0.419,0.938-0.938v-0.938h1.219c1.035,0,1.875,0.84,1.875,1.875v5.344c0,0.519,0.42,0.938,0.938,0.938
		S323,312.698,323,312.18v-5.344C322.998,304.767,321.32,303.089,319.25,303.086z"/>
	<path fill="#0D2F9B" d="M317.328,313.867c-3.133,0-5.672,2.54-5.672,5.672c0,3.133,2.539,5.672,5.672,5.672
		s5.672-2.539,5.672-5.672C322.996,316.408,320.459,313.871,317.328,313.867z M317.328,323.336c-2.097,0-3.797-1.699-3.797-3.797
		c0-2.097,1.7-3.797,3.797-3.797s3.797,1.7,3.797,3.797C321.122,321.636,319.424,323.334,317.328,323.336z"/>
	<path fill="#0D2F9B" d="M318.688,318.602h-0.422v-0.984c0-0.518-0.42-0.938-0.938-0.938s-0.938,0.42-0.938,0.938v1.922
		c0,0.519,0.42,0.938,0.938,0.938h1.359c0.518,0,0.938-0.419,0.938-0.938C319.625,319.021,319.205,318.602,318.688,318.602z"/>
	<circle fill="#0D2F9B" cx="313.016" cy="311.055" r="0.938"/>
	<circle fill="#0D2F9B" cx="308.938" cy="315.133" r="0.938"/>
	<circle fill="#0D2F9B" cx="304.859" cy="311.055" r="0.938"/>
	<circle fill="#0D2F9B" cx="304.859" cy="315.133" r="0.938"/>
	<circle fill="#0D2F9B" cx="304.859" cy="319.211" r="0.938"/>
	<circle fill="#0D2F9B" cx="308.938" cy="319.211" r="0.938"/>
	<circle fill="#0D2F9B" cx="308.938" cy="311.055" r="0.938"/>
</g>
</svg>
