<svg xmlns="http://www.w3.org/2000/svg" id="calendar_1_" width="97.536" height="97.536" viewBox="0 0 97.536 97.536">
    <defs>
        <style>
            .cls-1{fill:#b1b1b1}
        </style>
    </defs>
    <g id="Grupo_65">
        <g id="Grupo_64">
            <path id="Trazado_253" d="M93.726 67.056a3.81 3.81 0 0 0 3.81-3.81V22.86A15.257 15.257 0 0 0 82.3 7.62h-4.957V3.81a3.81 3.81 0 1 0-7.62 0v3.81H52.387V3.81a3.81 3.81 0 0 0-7.62 0v3.81H27.622V3.81a3.81 3.81 0 0 0-7.62 0v3.81H15.24A15.257 15.257 0 0 0 0 22.86V82.3a15.257 15.257 0 0 0 15.24 15.24H82.3A15.257 15.257 0 0 0 97.536 82.3a3.81 3.81 0 1 0-7.62 0 7.629 7.629 0 0 1-7.62 7.62H15.24a7.629 7.629 0 0 1-7.62-7.62V22.86a7.629 7.629 0 0 1 7.62-7.62H20v3.81a3.81 3.81 0 1 0 7.62 0v-3.81h17.147v3.81a3.81 3.81 0 1 0 7.62 0v-3.81h17.336v3.81a3.81 3.81 0 1 0 7.62 0v-3.81H82.3a7.629 7.629 0 0 1 7.62 7.62v40.386a3.81 3.81 0 0 0 3.806 3.81z" class="cls-1"/>
            <path id="Trazado_254" d="M178.1 237.195a3.81 3.81 0 0 0 3.81-3.81v-10.478h10.477a3.81 3.81 0 1 0 0-7.62h-10.48V204.81a3.81 3.81 0 1 0-7.62 0v10.477H163.81a3.81 3.81 0 0 0 0 7.62h10.477v10.477a3.81 3.81 0 0 0 3.813 3.811z" class="cls-1" transform="translate(-129.52 -162.71)"/>
        </g>
    </g>
</svg>
