<?xml version="1.0" encoding="utf-8"?>
<!-- Generator: Adobe Illustrator 16.0.0, SVG Export Plug-In . SVG Version: 6.00 Build 0)  -->
<!DOCTYPE svg PUBLIC "-//W3C//DTD SVG 1.1//EN" "http://www.w3.org/Graphics/SVG/1.1/DTD/svg11.dtd">
<svg version="1.1" id="Capa_1" xmlns="http://www.w3.org/2000/svg" xmlns:xlink="http://www.w3.org/1999/xlink" x="0px" y="0px"
	 width="24px" height="24px" viewBox="0 0 24 24" enable-background="new 0 0 24 24" xml:space="preserve">
<title>calendar</title>
<g>
	<circle fill="#FFFFFF" cx="18.096" cy="9.844" r="0.938"/>
	<path fill="#FFFFFF" d="M20.252,1.875h-1.219V0.938c0-0.519-0.42-0.938-0.938-0.938c-0.52,0-0.939,0.42-0.939,0.938v0.938h-4.266
		V0.938c0-0.519-0.42-0.938-0.938-0.938s-0.938,0.42-0.938,0.938v0.938h-4.22V0.938c0-0.519-0.42-0.938-0.938-0.938
		c-0.518,0-0.938,0.42-0.938,0.938v0.938H3.748C1.678,1.878,0,3.557-0.002,5.625V20.25C0,22.32,1.678,23.998,3.748,24h7.172
		c0.518,0,0.938-0.419,0.938-0.938s-0.42-0.938-0.938-0.938H3.748c-1.035,0-1.875-0.839-1.875-1.874V5.624
		c0-1.035,0.84-1.875,1.875-1.875H4.92v0.938c0,0.519,0.42,0.938,0.938,0.938c0.519,0,0.938-0.419,0.938-0.938V3.749h4.22v0.938
		c0,0.519,0.42,0.938,0.938,0.938s0.938-0.419,0.938-0.938V3.749h4.266v0.938c0,0.519,0.42,0.938,0.939,0.938
		c0.518,0,0.938-0.419,0.938-0.938V3.749h1.219c1.035,0,1.875,0.84,1.875,1.875v5.345c0,0.519,0.42,0.938,0.938,0.938
		s0.938-0.419,0.938-0.938V5.625C24,3.557,22.322,1.878,20.252,1.875z"/>
	<path fill="#FFFFFF" d="M18.33,12.656c-3.133,0-5.672,2.54-5.672,5.672c0,3.133,2.539,5.672,5.672,5.672s5.672-2.539,5.672-5.672
		C23.998,15.197,21.461,12.66,18.33,12.656z M18.33,22.125c-2.098,0-3.797-1.699-3.797-3.797s1.699-3.797,3.797-3.797
		s3.797,1.699,3.797,3.797C22.123,20.425,20.426,22.123,18.33,22.125z"/>
	<path fill="#FFFFFF" d="M19.689,17.391h-0.422v-0.983c0-0.519-0.42-0.938-0.938-0.938s-0.938,0.42-0.938,0.938v1.922
		c0,0.519,0.42,0.938,0.938,0.938h1.359c0.518,0,0.938-0.42,0.938-0.938S20.207,17.391,19.689,17.391z"/>
	<circle fill="#FFFFFF" cx="14.018" cy="9.844" r="0.938"/>
	<circle fill="#FFFFFF" cx="9.939" cy="13.922" r="0.938"/>
	<circle fill="#FFFFFF" cx="5.861" cy="9.844" r="0.938"/>
	<circle fill="#FFFFFF" cx="5.861" cy="13.922" r="0.938"/>
	<circle fill="#FFFFFF" cx="5.861" cy="18" r="0.938"/>
	<circle fill="#FFFFFF" cx="9.939" cy="18" r="0.938"/>
	<circle fill="#FFFFFF" cx="9.939" cy="9.844" r="0.938"/>
</g>
</svg>
