<?xml version="1.0" encoding="utf-8"?>
<!-- Generator: Adobe Illustrator 16.0.0, SVG Export Plug-In . SVG Version: 6.00 Build 0)  -->
<!DOCTYPE svg PUBLIC "-//W3C//DTD SVG 1.1//EN" "http://www.w3.org/Graphics/SVG/1.1/DTD/svg11.dtd">
<svg version="1.1" id="Capa_1" xmlns="http://www.w3.org/2000/svg" xmlns:xlink="http://www.w3.org/1999/xlink" x="0px" y="0px"
	 width="512.001px" height="448.015px" viewBox="0 31.993 512.001 448.015" enable-background="new 0 31.993 512.001 448.015"
	 xml:space="preserve">
<g>
	<path fill="#FFFFFF" d="M301.249,226.744c24.994,24.994,24.994,65.518,0,90.512c-24.994,24.995-65.518,24.995-90.513,0
		c-24.994-24.994-24.994-65.518,0-90.512C235.732,201.75,276.255,201.75,301.249,226.744"/>
	<path fill="#FFFFFF" d="M447.998,95.996h-44.221l-32.016-64.002H140.207l-31.985,64.034l-44.158,0.079
		c-35.203,0.063-63.861,28.751-63.892,63.971L0,415.99c0,35.298,28.704,64.018,64.002,64.018h383.996
		c35.299,0,64.003-28.704,64.003-64.002V159.997C512,124.699,483.296,95.996,447.998,95.996z M255.992,400.005
		c-70.581,0-128.005-57.424-128.005-128.005c0-70.581,57.424-128.004,128.005-128.004c70.58,0,128.004,57.423,128.004,128.004
		C383.996,342.581,326.573,400.005,255.992,400.005L255.992,400.005z"/>
</g>
</svg>
