<svg xmlns="http://www.w3.org/2000/svg" width="24" height="24" fill="none" viewBox="0 0 24 24">
    <g fill="#34559C" clip-path="url(#prefix__clip0)">
        <path d="M21.25 22.016H2.75c-1.517 0-2.75-1.233-2.75-2.75v-12.5c0-1.518 1.233-2.75 2.75-2.75h6c.414 0 .75.336.75.75s-.336.75-.75.75h-6c-.689 0-1.25.56-1.25 1.25v12.5c0 .689.561 1.25 1.25 1.25h18.5c.689 0 1.25-.561 1.25-1.25v-12.5c0-.69-.561-1.25-1.25-1.25h-6c-.414 0-.75-.336-.75-.75s.336-.75.75-.75h6c1.517 0 2.75 1.232 2.75 2.75v12.5c0 1.517-1.233 2.75-2.75 2.75z"/>
        <path d="M14.25 7.516h-4.5C8.785 7.516 8 6.73 8 5.766v-2c0-.965.785-1.75 1.75-1.75h4.5c.965 0 1.75.785 1.75 1.75v2c0 .965-.785 1.75-1.75 1.75zm-4.5-4c-.138 0-.25.112-.25.25v2c0 .138.112.25.25.25h4.5c.138 0 .25-.112.25-.25v-2c0-.138-.112-.25-.25-.25h-4.5zM7.5 14.016c-1.378 0-2.5-1.122-2.5-2.5s1.122-2.5 2.5-2.5 2.5 1.122 2.5 2.5-1.122 2.5-2.5 2.5zm0-3.5c-.551 0-1 .449-1 1 0 .55.449 1 1 1 .55 0 1-.45 1-1 0-.551-.45-1-1-1zM11.25 19.016c-.414 0-.75-.336-.75-.75v-.5c0-.69-.561-1.25-1.25-1.25h-3.5c-.689 0-1.25.56-1.25 1.25v.5c0 .414-.336.75-.75.75S3 18.68 3 18.266v-.5c0-1.517 1.233-2.75 2.75-2.75h3.5c1.517 0 2.75 1.233 2.75 2.75v.5c0 .414-.336.75-.75.75zM20.25 11.016h-5.5c-.414 0-.75-.336-.75-.75s.336-.75.75-.75h5.5c.414 0 .75.336.75.75s-.336.75-.75.75zM20.25 15.016h-5.5c-.414 0-.75-.336-.75-.75s.336-.75.75-.75h5.5c.414 0 .75.336.75.75s-.336.75-.75.75zM20.25 19.016h-5.5c-.414 0-.75-.336-.75-.75s.336-.75.75-.75h5.5c.414 0 .75.336.75.75s-.336.75-.75.75z"/>
    </g>
    <defs>
        <clipPath id="prefix__clip0">
            <path fill="#fff" d="M0 0H24V24H0z"/>
        </clipPath>
    </defs>
</svg>
