<svg xmlns="http://www.w3.org/2000/svg" width="21" height="21" fill="none" viewBox="0 0 21 21">
    <g fill="#58C25D" clip-path="url(#clip0)">
        <path d="M19.217 12.574c-.17-.42-.648-.623-1.068-.453-.42.17-.623.648-.453 1.068l.966 2.39-2.87-1.265c-.207-.091-.443-.093-.652-.004-.98.419-2.031.63-3.122.63-4.392 0-7.342-3.438-7.342-6.65 0-3.666 3.293-6.65 7.342-6.65 4.048 0 7.341 2.984 7.341 6.65 0 .287-.026.63-.073.94-.067.449.242.866.69.933.449.067.866-.242.933-.69.059-.394.091-.814.091-1.182 0-2.229-.944-4.32-2.657-5.888C16.65.853 14.403 0 12.018 0 9.632 0 7.386.853 5.692 2.403c-1.53 1.402-2.447 3.22-2.624 5.182C1.142 8.86 0 10.905 0 13.105c0 1.376.433 2.68 1.258 3.803L.06 19.872c-.125.31-.05.664.19.897.156.151.361.231.57.231.112 0 .225-.023.331-.07l3.455-1.523c.869.324 1.788.488 2.736.488l.06-.003c1.372-.01 2.705-.372 3.86-1.047 1.034-.604 1.885-1.435 2.482-2.416.582-.105 1.151-.263 1.704-.474l4.4 1.94c.107.047.22.07.332.07.209 0 .414-.08.57-.232.24-.232.315-.586.19-.896l-1.723-4.263zM7.342 18.252l-.033.002c-.838-.005-1.644-.17-2.397-.49-.209-.09-.445-.088-.653.003l-1.921.847.62-1.533c.114-.283.062-.607-.137-.84-.772-.906-1.18-1.99-1.18-3.136 0-1.31.551-2.553 1.516-3.494.3 1.637 1.148 3.204 2.427 4.434 1.59 1.531 3.695 2.419 5.968 2.525-1.067 1.05-2.594 1.682-4.21 1.682z"/>
        <path d="M11.977 9.146c.453 0 .82-.367.82-.82 0-.453-.367-.82-.82-.82-.454 0-.82.367-.82.82 0 .453.367.82.82.82zM15.258 9.146c.453 0 .82-.367.82-.82 0-.453-.367-.82-.82-.82-.453 0-.82.367-.82.82 0 .453.367.82.82.82zM8.695 9.146c.453 0 .82-.367.82-.82 0-.453-.367-.82-.82-.82-.453 0-.82.367-.82.82 0 .453.367.82.82.82z"/>
    </g>
    <defs>
        <clipPath id="clip0">
            <path fill="#fff" d="M0 0H21V21H0z"/>
        </clipPath>
    </defs>
</svg>
