<?xml version="1.0" encoding="utf-8"?>
<!-- Generator: Adobe Illustrator 16.0.0, SVG Export Plug-In . SVG Version: 6.00 Build 0)  -->
<!DOCTYPE svg PUBLIC "-//W3C//DTD SVG 1.1//EN" "http://www.w3.org/Graphics/SVG/1.1/DTD/svg11.dtd">
<svg version="1.1" id="Capa_1" xmlns="http://www.w3.org/2000/svg" xmlns:xlink="http://www.w3.org/1999/xlink" x="0px" y="0px"
	 width="24px" height="24px" viewBox="360.789 482.54 24 24" enable-background="new 360.789 482.54 24 24" xml:space="preserve">
<title>visitante</title>
<path fill="#0D2F9B" d="M381.273,498.057c-1.282-1.288-2.842-2.268-4.56-2.863c3.16-2.167,3.964-6.484,1.796-9.643
	c-2.169-3.158-6.488-3.962-9.648-1.795s-3.965,6.484-1.796,9.643c0.482,0.703,1.092,1.313,1.796,1.795
	c-1.133,0.391-2.2,0.951-3.165,1.662c-0.002-0.008-0.003-0.016-0.005-0.023c-0.014,0.008-0.028,0.015-0.044,0.02
	c-0.073,0.063-0.148,0.122-0.222,0.178c-0.522,0.396-0.935,0.901-1.424,1.332c0,0.003,0,0.006,0,0.008
	c-2.072,2.215-3.222,5.137-3.213,8.17h1.876c0-5.59,4.534-10.121,10.127-10.121s10.127,4.531,10.127,10.121h1.87
	C384.798,503.356,383.532,500.302,381.273,498.057z M372.787,494.543c-2.797,0-5.064-2.266-5.064-5.061s2.268-5.061,5.064-5.061
	s5.063,2.266,5.063,5.061v0.001C377.848,492.277,375.582,494.541,372.787,494.543z"/>
</svg>
