<?xml version="1.0" encoding="utf-8"?>
<!-- Generator: Adobe Illustrator 16.0.0, SVG Export Plug-In . SVG Version: 6.00 Build 0)  -->
<!DOCTYPE svg PUBLIC "-//W3C//DTD SVG 1.1//EN" "http://www.w3.org/Graphics/SVG/1.1/DTD/svg11.dtd">
<svg version="1.1" id="Layer_1" xmlns="http://www.w3.org/2000/svg" xmlns:xlink="http://www.w3.org/1999/xlink" x="0px" y="0px"
	 width="49.141px" height="49.141px" viewBox="554.999 669.444 49.141 49.141"
	 enable-background="new 554.999 669.444 49.141 49.141" xml:space="preserve">
<g>
	<g>
		<g>
			<path fill="#6EB72E" d="M579.571,669.444c-13.592,0-24.571,10.968-24.571,24.571c0,13.602,10.968,24.569,24.571,24.569
				c13.602,0,24.569-10.968,24.569-24.569C604.14,680.412,593.16,669.444,579.571,669.444z M579.571,715.299
				c-11.793,0-21.285-9.492-21.285-21.285c0-11.791,9.492-21.285,21.285-21.285c11.791,0,21.285,9.494,21.285,21.285
				C600.856,705.807,591.362,715.299,579.571,715.299z"/>
		</g>
	</g>
	<g>
		<g>
			<path fill="#6EB72E" d="M591.362,686.808c-0.649-0.649-1.636-0.649-2.299,0l-12.604,12.604l-6.383-6.384
				c-0.649-0.649-1.636-0.649-2.299,0c-0.649,0.649-0.649,1.637,0,2.3l7.532,7.531c0.325,0.324,0.649,0.487,1.149,0.487
				c0.487,0,0.825-0.163,1.15-0.487l13.752-13.753C592.011,688.456,592.011,687.47,591.362,686.808z"/>
		</g>
	</g>
</g>
</svg>
