<svg xmlns="http://www.w3.org/2000/svg" width="103.518" height="91.332" viewBox="0 0 103.518 91.332">
    <defs>
        <style>
            .cls-1{fill:#b1b1b1}
        </style>
    </defs>
    <g id="contract" transform="translate(0 -30.136)">
        <g id="Grupo_69" transform="translate(0 30.136)">
            <g id="Grupo_68">
                <path id="Trazado_257" d="M97.534 317.615H85.181a4.05 4.05 0 0 0 0 8.1h12.353a4.05 4.05 0 0 0 0-8.1z" class="cls-1" transform="translate(-64.728 -259.492)"/>
                <path id="Trazado_258" d="M114.749 237.485H85.182a4.05 4.05 0 0 0 0 8.1h29.566a4.05 4.05 0 0 0 0-8.1z" class="cls-1" transform="translate(-64.728 -195.563)"/>
                <path id="Trazado_259" d="M114.749 157.355H85.182a4.05 4.05 0 1 0 0 8.1h29.567a4.05 4.05 0 1 0 0-8.1z" class="cls-1" transform="translate(-64.728 -131.633)"/>
                <path id="Trazado_260" d="M54.273 31.136H16.2A16.219 16.219 0 0 0 0 47.337v58.728a16.2 16.2 0 0 0 16.2 16.2l38.072-.009a16.22 16.22 0 0 0 16.2-16.2V47.337a16.22 16.22 0 0 0-16.199-16.201zm8.1 16.2v58.719a8.11 8.11 0 0 1-8.1 8.1l-38.072.009a8.1 8.1 0 0 1-8.1-8.1V47.337a8.11 8.11 0 0 1 8.1-8.1h38.072a8.11 8.11 0 0 1 8.1 8.1z" class="cls-1" transform="translate(0 -30.934)"/>
                <path id="Trazado_261" d="M411.9 89.067a4.05 4.05 0 0 0 4.05-4.049l.016-42.731a12.151 12.151 0 0 0-24.3 0l-.035 63.248a4.049 4.049 0 0 0 .685 2.256l7.849 11.723a4.05 4.05 0 0 0 3.311 1.8h.054a4.05 4.05 0 0 0 3.3-1.708l8.357-11.787a4.05 4.05 0 1 0-6.608-4.685l-4.958 6.992-3.894-5.815.029-52.1h8.1l-.012 32.805a4.051 4.051 0 0 0 4.056 4.051zm-12.132-44.958v-1.823a4.05 4.05 0 0 1 8.1 0v1.824h-8.1z" class="cls-1" transform="translate(-312.452 -30.136)"/>
            </g>
        </g>
    </g>
</svg>
