<svg xmlns="http://www.w3.org/2000/svg" width="24" height="24" fill="none" viewBox="0 0 24 24">
    <path fill="#58C25D" d="M7.937 17.39c.626-.605 1.016-1.453 1.016-2.39 0-1.835-1.493-3.328-3.328-3.328-1.835 0-3.328 1.493-3.328 3.328 0 .934.387 1.78 1.01 2.385C1.358 18.203 0 20.02 0 22.125c0 .388.315.703.703.703.388 0 .703-.315.703-.703 0-2.094 1.893-3.797 4.219-3.797 2.3 0 4.172 1.703 4.172 3.797 0 .388.315.703.703.703.388 0 .703-.315.703-.703 0-2.1-1.34-3.913-3.266-4.735zM3.703 15c0-1.06.862-1.922 1.922-1.922S7.547 13.94 7.547 15s-.862 1.922-1.922 1.922S3.703 16.06 3.703 15zM12.797 11.625c0 .388.315.703.703.703.388 0 .703-.315.703-.703 0-2.094 1.872-3.797 4.172-3.797 2.326 0 4.219 1.703 4.219 3.797 0 .388.315.703.703.703.388 0 .703-.315.703-.703 0-2.105-1.358-3.922-3.307-4.74.622-.605 1.01-1.45 1.01-2.385 0-1.835-1.493-3.328-3.328-3.328-1.835 0-3.328 1.493-3.328 3.328 0 .937.39 1.785 1.016 2.39-1.925.822-3.266 2.635-3.266 4.735zM16.453 4.5c0-1.06.862-1.922 1.922-1.922s1.922.862 1.922 1.922-.862 1.922-1.922 1.922-1.922-.862-1.922-1.922zM2.953 10.078h6.844c.775 0 1.406-.631 1.406-1.407V7.124c.06-.06.51-.563 1.785-2.013.92-.921.465-2.218-.69-2.428-.145-.027.48-.012-9.345-.012-.775 0-1.406.631-1.406 1.407V8.67c0 .776.63 1.407 1.406 1.407zm0-6h9.079c-.088.09-.584.611-1.789 1.97-.288.298-.446.675-.446 1.076v1.547H2.953V4.078zM16.86 17.04c-.324.219-.41.649-.195.975.203.308.636.418.975.194.322-.217.41-.647.194-.975-.214-.318-.643-.412-.975-.194zM19.56 17.762c.128.619.934.77 1.274.253.339-.514-.093-1.197-.722-1.08-.38.08-.625.439-.552.827z"/>
    <path fill="#58C25D" d="M24 19.922v-4.594c0-.776-.63-1.406-1.406-1.406-11.57 0-10.756-.014-10.891.01-1.156.211-1.611 1.508-.69 2.43 1.275 1.449 1.724 1.952 1.784 2.013v1.547c0 .775.631 1.406 1.407 1.406h8.39c.776 0 1.406-.631 1.406-1.406zm-1.406 0h-8.39v-1.547c0-.401-.159-.78-.447-1.077-1.205-1.359-1.7-1.88-1.788-1.97h10.625v4.594z"/>
</svg>
