<svg xmlns="http://www.w3.org/2000/svg" width="58" height="58" fill="none" viewBox="0 0 58 58">
    <path fill="#fff" d="M41.82 19.798c.884.885.884 2.32 0 3.204l-15.2 15.2c-.885.885-2.319.885-3.204 0l-7.235-7.236c-.885-.885-.885-2.32 0-3.204.884-.885 2.319-.885 3.203 0l5.634 5.634 13.597-13.598c.885-.884 2.32-.884 3.204 0zM58 29c0 16.03-12.972 29-29 29C12.97 58 0 45.028 0 29 0 12.97 12.973 0 29 0c16.03 0 29 12.973 29 29zm-4.531 0C53.469 15.475 42.523 4.531 29 4.531 15.475 4.531 4.531 15.477 4.531 29c0 13.525 10.946 24.469 24.469 24.469 13.525 0 24.469-10.946 24.469-24.469z"/>
</svg>
