<svg xmlns="http://www.w3.org/2000/svg" width="99" height="99" fill="none" viewBox="0 0 99 99">
    <path fill="#BED138" d="M71.381 33.793c1.511 1.51 1.511 3.96 0 5.47L45.438 65.207c-1.51 1.51-3.959 1.51-5.47 0l-12.35-12.351c-1.51-1.51-1.51-3.959 0-5.469 1.51-1.51 3.96-1.51 5.47 0l9.615 9.616 23.21-23.21c1.51-1.51 3.959-1.51 5.468 0zM99 49.5C99 76.861 76.857 99 49.5 99 22.139 99 0 76.857 0 49.5 0 22.139 22.143 0 49.5 0 76.861 0 99 22.143 99 49.5zm-7.734 0c0-23.086-18.683-41.766-41.766-41.766-23.086 0-41.766 18.683-41.766 41.766 0 23.086 18.683 41.766 41.766 41.766 23.086 0 41.766-18.683 41.766-41.766z"/>
</svg>
