<?xml version="1.0" encoding="utf-8"?>
<!-- Generator: Adobe Illustrator 16.0.0, SVG Export Plug-In . SVG Version: 6.00 Build 0)  -->
<!DOCTYPE svg PUBLIC "-//W3C//DTD SVG 1.1//EN" "http://www.w3.org/Graphics/SVG/1.1/DTD/svg11.dtd">
<svg version="1.1" id="Capa_1" xmlns="http://www.w3.org/2000/svg" xmlns:xlink="http://www.w3.org/1999/xlink" x="0px" y="0px"
	 width="23.998px" height="24px" viewBox="0 0 23.998 24" enable-background="new 0 0 23.998 24" xml:space="preserve">
<g>
	<g>
		<g>
			<path fill="#FFFFFF" d="M23.378,7.553c-0.822-0.822-2.16-0.822-2.982,0c-0.252,0.254-1.867,1.87-2.115,2.117V4.098
				c0-0.563-0.219-1.093-0.617-1.49l-1.988-1.988c-0.398-0.398-0.928-0.618-1.49-0.618H2.11c-1.164,0-2.109,0.946-2.109,2.109v19.78
				C0.001,23.054,0.946,24,2.11,24h14.063c1.162,0,2.109-0.946,2.109-2.109v-6.252l5.098-5.103
				C24.204,9.712,24.204,8.377,23.378,7.553z M14.062,1.406c0.133,0,0.389-0.023,0.617,0.206L16.667,3.6
				c0.225,0.225,0.207,0.469,0.207,0.618H14.06V1.406H14.062z M16.874,21.891c0,0.389-0.316,0.703-0.703,0.703H2.108
				c-0.389,0-0.703-0.314-0.703-0.703V2.11c0-0.389,0.314-0.703,0.703-0.703h10.547v3.516c0,0.389,0.314,0.703,0.703,0.703h3.516
				v5.453L14.8,13.155l-0.994,0.993c-0.076,0.076-0.135,0.172-0.17,0.274l-0.994,2.982c-0.084,0.253-0.02,0.53,0.17,0.72
				c0.189,0.188,0.467,0.254,0.721,0.17l2.98-0.994c0.105-0.034,0.199-0.093,0.275-0.17l0.086-0.085V21.891L16.874,21.891z
				 M15.296,14.646l0.996,0.993l-0.381,0.38l-1.492,0.497l0.498-1.491L15.296,14.646z M17.286,14.645l-0.994-0.993
				c0.529-0.53,2.881-2.885,3.381-3.384l0.994,0.994L17.286,14.645z M22.384,9.542l-0.725,0.726l-0.994-0.994l0.725-0.727
				c0.275-0.272,0.721-0.272,0.994,0C22.659,8.821,22.661,9.266,22.384,9.542z"/>
		</g>
	</g>
	<g>
		<g>
			<path fill="#FFFFFF" d="M13.358,7.031H3.515c-0.389,0-0.703,0.313-0.703,0.703c0,0.389,0.314,0.703,0.703,0.703h9.844
				c0.389,0,0.703-0.314,0.703-0.703C14.062,7.345,13.747,7.031,13.358,7.031z"/>
		</g>
	</g>
	<g>
		<g>
			<path fill="#FFFFFF" d="M10.546,9.844H3.515c-0.389,0-0.703,0.314-0.703,0.703s0.314,0.703,0.703,0.703h7.031
				c0.389,0,0.703-0.314,0.703-0.703S10.935,9.844,10.546,9.844z"/>
		</g>
	</g>
	<g>
		<g>
			<path fill="#FFFFFF" d="M10.546,12.656H3.515c-0.389,0-0.703,0.313-0.703,0.703c0,0.389,0.314,0.703,0.703,0.703h7.031
				c0.389,0,0.703-0.314,0.703-0.703C11.249,12.97,10.935,12.656,10.546,12.656z"/>
		</g>
	</g>
	<g>
		<g>
			<path fill="#FFFFFF" d="M10.546,15.469H3.515c-0.389,0-0.703,0.314-0.703,0.703s0.314,0.703,0.703,0.703h7.031
				c0.389,0,0.703-0.314,0.703-0.703S10.935,15.469,10.546,15.469z"/>
		</g>
	</g>
	<g>
		<g>
			<path fill="#FFFFFF" d="M13.358,19.781H9.14c-0.389,0-0.703,0.313-0.703,0.703c0,0.389,0.314,0.703,0.703,0.703h4.219
				c0.389,0,0.703-0.314,0.703-0.703C14.062,20.095,13.747,19.781,13.358,19.781z"/>
		</g>
	</g>
</g>
</svg>
