<svg xmlns="http://www.w3.org/2000/svg" width="25" height="25" fill="none" viewBox="0 0 25 25">
    <g clip-path="url(#clip0)">
        <path fill="#58C25D" d="M12.204 25h-.019c-1.47-.01-2.713-1.283-2.713-2.78V11.097c0-1.056.599-1.99 1.563-2.439.962-.448 2.06-.31 2.873.358l8.81 6.535c.023.017.045.035.066.053.788.698 1.052 1.763.688 2.779-.387 1.081-1.365 1.807-2.49 1.849h-.036l-4.103.004-2.512 3.618-.009.012C13.79 24.608 13.058 25 12.204 25zm-.005-14.647c-.158 0-.285.05-.34.076-.13.06-.434.247-.434.668V22.22c0 .47.408.825.773.827.154.002.323-.023.533-.314l2.798-4.03c.183-.263.482-.42.802-.42l4.593-.004c.384-.02.622-.31.71-.555.063-.177.091-.428-.12-.635l-8.791-6.52-.047-.037c-.163-.137-.333-.179-.476-.179zm-4.512 7.559c.264-.47.097-1.066-.373-1.33C4.85 15.199 3.32 12.587 3.32 9.765c0-4.308 3.505-7.812 7.812-7.812 4.308 0 7.812 3.504 7.812 7.812 0 .54.437.976.977.976.539 0 .976-.437.976-.976 0-5.384-4.38-9.765-9.765-9.765-5.384 0-9.765 4.38-9.765 9.765 0 3.527 1.912 6.791 4.99 8.52.152.085.316.125.478.125.341 0 .673-.18.852-.498zm0-4.607c.442-.309.551-.917.243-1.36-.46-.66-.704-1.431-.704-2.229 0-2.154 1.752-3.906 3.906-3.906 1.434 0 2.703.743 3.394 1.988.262.471.857.641 1.328.38.472-.262.642-.857.38-1.328-.5-.898-1.225-1.65-2.1-2.172-.9-.537-1.937-.82-3.002-.82-3.23 0-5.859 2.628-5.859 5.858 0 1.199.365 2.355 1.054 3.345.19.273.494.419.802.419.193 0 .388-.057.558-.175z"/>
    </g>
    <defs>
        <clipPath id="clip0">
            <path fill="#fff" d="M0 0H25V25H0z"/>
        </clipPath>
    </defs>
</svg>
