<svg width="17" height="17" viewBox="0 0 17 17" fill="none" xmlns="http://www.w3.org/2000/svg">
<path d="M11.2589 8.18338C11.1385 7.94325 10.8934 7.79168 10.625 7.79168H9.20829V0.708322C9.20829 0.317322 8.89167 0 8.49997 0C8.10827 0 7.79165 0.317322 7.79165 0.708322V7.79164H6.37497C6.10652 7.79164 5.86142 7.94322 5.74103 8.18334C5.62203 8.42347 5.64753 8.71034 5.80833 8.92497L7.93333 11.7583C7.94252 11.7703 7.9567 11.7746 7.96663 11.7859C8.01338 11.8412 8.06863 11.8837 8.13025 11.9226C8.15575 11.9382 8.17558 11.9587 8.2032 11.9715C8.29388 12.014 8.39302 12.0416 8.5 12.0416C8.60699 12.0416 8.70613 12.014 8.7975 11.9715C8.82443 11.9587 8.84495 11.9382 8.86975 11.9226C8.93138 11.8837 8.98663 11.8412 9.03338 11.7859C9.04258 11.7746 9.05745 11.7703 9.06668 11.7583L11.1917 8.92497C11.3531 8.71038 11.3786 8.4235 11.2589 8.18338Z" fill="white"/>
<path d="M16.2917 10.625C15.9 10.625 15.5834 10.9423 15.5834 11.3333V13.4583C15.5834 14.6299 14.6299 15.5833 13.4584 15.5833H3.54168C2.37011 15.5833 1.41668 14.6299 1.41668 13.4583V11.3333C1.41668 10.9423 1.10005 10.625 0.708355 10.625C0.316625 10.625 0 10.9423 0 11.3333V13.4583C0 15.4112 1.5888 17 3.54168 17H13.4584C15.4112 17 17 15.4112 17 13.4583V11.3333C17 10.9423 16.6834 10.625 16.2917 10.625Z" fill="white"/>
</svg>
