<svg xmlns="http://www.w3.org/2000/svg" width="14" height="14" fill="none" viewBox="0 0 14 14">
    <path fill="#fff" d="M10.46 6.381c-.07-.156-.226-.256-.397-.256h-1.75V.437C8.313.197 8.117 0 7.875 0h-1.75c-.241 0-.437.196-.437.438v5.687h-1.75c-.172 0-.328.1-.399.256-.071.157-.043.34.07.47l3.062 3.5c.083.095.203.149.329.149s.246-.055.329-.15l3.063-3.5c.113-.128.14-.312.069-.469z"/>
    <path fill="#fff" d="M11.813 9.625v2.625H2.187V9.625H.438v3.5c0 .484.393.875.875.875h11.376c.483 0 .874-.391.874-.875v-3.5h-1.75z"/>
</svg>
