<svg width="18" height="18" viewBox="0 0 18 18" fill="none" xmlns="http://www.w3.org/2000/svg">
<g clip-path="url(#clip0)">
<path d="M16.9454 1.0549C16.2652 0.374625 15.3608 0 14.3988 0C13.4368 0 12.5324 0.374625 11.8521 1.05486L1.78709 11.12C1.70145 11.2056 1.6394 11.3119 1.60691 11.4286L0.0260048 17.1083C-0.0421632 17.3533 0.0272001 17.616 0.207517 17.7954C0.34111 17.9282 0.520126 18 0.703431 18C0.767485 18 0.832102 17.9912 0.895489 17.9732L6.57523 16.3599C6.81485 16.2918 7.00062 16.102 7.06348 15.8609C7.12634 15.6199 7.05694 15.3635 6.88105 15.1871L3.30032 11.5955L11.6434 3.25234L14.7462 6.35516L8.35927 12.7247C8.08431 12.999 8.08371 13.4441 8.35793 13.7191C8.63211 13.9941 9.07737 13.9946 9.35229 13.7205L16.9453 6.14809C17.6256 5.46785 18.0002 4.56346 18.0002 3.60148C18.0002 2.6395 17.6256 1.7351 16.9454 1.0549ZM5.04147 15.3337L1.71681 16.278L2.64792 12.9329L5.04147 15.3337ZM15.9517 5.15303L15.742 5.36217L12.6378 2.25798L12.8466 2.04922C13.2612 1.63459 13.8124 1.40625 14.3988 1.40625C14.9852 1.40625 15.5364 1.63459 15.951 2.04926C16.3656 2.46386 16.594 3.01511 16.594 3.60148C16.594 4.18785 16.3656 4.7391 15.9517 5.15303Z" fill="white"/>
</g>
<defs>
<clipPath id="clip0">
<rect width="18" height="18" fill="white"/>
</clipPath>
</defs>
</svg>
