<?xml version="1.0" encoding="utf-8"?>
<!-- Generator: Adobe Illustrator 16.0.0, SVG Export Plug-In . SVG Version: 6.00 Build 0)  -->
<!DOCTYPE svg PUBLIC "-//W3C//DTD SVG 1.1//EN" "http://www.w3.org/Graphics/SVG/1.1/DTD/svg11.dtd">
<svg version="1.1" id="Layer_1" xmlns="http://www.w3.org/2000/svg" xmlns:xlink="http://www.w3.org/1999/xlink" x="0px" y="0px"
	 width="612.002px" height="612.009px" viewBox="-0.003 89.998 612.002 612.009"
	 enable-background="new -0.003 89.998 612.002 612.009" xml:space="preserve">
<title>pencil</title>
<g>
	<path fill="#2068AF" d="M595.7,189.329l-83.453-83.532c-21.033-21.046-57.608-21.085-78.72,0L59.669,483.385
		c-1.648,1.671-2.85,3.729-3.495,5.985L0.535,684.26c-2.11,7.396,2.175,15.103,9.571,17.213c1.238,0.353,2.52,0.532,3.807,0.534
		c1.292-0.003,2.578-0.183,3.821-0.535l194.72-55.679c2.253-0.649,4.308-1.855,5.972-3.508L595.7,268.049
		c21.731-21.746,21.731-56.987,0-78.733V189.329z M372.933,207.024l51.18,51.193L156.801,525.528l-19.182-38.388
		c-2.364-4.704-7.175-7.675-12.439-7.681h-22.272L372.933,207.024z M34.164,667.843l18.125-63.425l45.3,45.3L34.164,667.843z
		 M194.733,622.021l-66.502,19.012l-67.206-67.258l19.012-66.502h36.511l23.967,47.946c1.348,2.69,3.53,4.872,6.22,6.22
		l47.947,23.98v36.511L194.733,622.021z M222.547,599.15v-22.337c-0.002-5.269-2.98-10.084-7.693-12.439l-38.376-19.182
		l267.312-267.312l51.193,51.207L222.547,599.15z M576.063,248.776l-61.286,60.778L392.491,187.269l60.752-61.286
		c10.51-10.51,28.817-10.51,39.327,0l83.453,83.453c10.84,10.858,10.84,28.443,0,39.301L576.063,248.776z"/>
</g>
</svg>
