<svg xmlns="http://www.w3.org/2000/svg" width="25" height="25" fill="none" viewBox="0 0 25 25">
    <path fill="#4AAC8F" d="M21.52 1.717c-1.26-1.258-3.3-1.258-4.56 0l-1.142 1.148L3.667 15.01l-.026.026c-.006.006-.006.012-.013.012-.012.02-.032.039-.045.058 0 .007-.006.007-.006.013l-.033.052c-.006.006-.006.013-.012.02l-.02.051c0 .006-.006.006-.006.013L.809 23.364c-.08.23-.02.486.154.658.123.12.287.187.459.187.07-.001.139-.012.206-.032l8.102-2.703c.006 0 .006 0 .012-.006.02-.006.04-.015.058-.026.005-.001.01-.003.013-.007l.065-.039c.019-.012.039-.032.058-.045.006-.006.013-.006.013-.013.006-.006.02-.012.026-.025L23.269 8.019c1.258-1.26 1.258-3.3 0-4.56L21.52 1.716zM9.524 19.957l-4.49-4.488L16.27 4.232l4.49 4.49L9.522 19.958zm-5.122-3.295l3.922 3.922-5.889 1.96 1.967-5.882zM22.36 7.116l-.684.69-4.49-4.49.691-.69c.756-.754 1.98-.754 2.735 0l1.755 1.755c.75.758.746 1.98-.007 2.735z"/>
</svg>
