<svg xmlns="http://www.w3.org/2000/svg" width="20" height="20" fill="none" viewBox="0 0 20 20">
    <g fill="#fff" clip-path="url(#clip0)">
        <path d="M15.54 1.673C13.438.276 10.915-.272 8.426.127c-.043 0-.087.005-.13.013C5.665.596 3.369 2.05 1.83 4.233.293 6.416-.303 9.067.153 11.699c.076.434.182.871.315 1.296.55 1.789.415 3.706-.381 5.398-.14.293-.094.641.115.89.21.25.541.353.858.268l3.734-1.02C6.376 19.5 8.161 20 9.984 20c.662 0 1.33-.066 1.993-.2 2.619-.527 4.875-2.042 6.353-4.266 3.052-4.59 1.8-10.807-2.79-13.86zm1.403 12.94c-1.232 1.853-3.113 3.115-5.294 3.554-2.18.44-4.402.003-6.256-1.23-.139-.092-.3-.14-.462-.14-.073 0-.147.01-.22.03l-2.543.694c.43-1.637.398-3.372-.109-5.02-.112-.36-.201-.725-.264-1.087-.38-2.193.117-4.402 1.398-6.222 1.26-1.788 3.13-2.989 5.277-3.39.04-.001.08-.005.12-.012 2.106-.364 4.247.088 6.028 1.272 3.826 2.544 4.868 7.725 2.325 11.55z"/>
        <path d="M10.003 4.918c-.46 0-.833.372-.833.833v4.999c0 .46.372.833.833.833.46 0 .833-.373.833-.833V5.75c0-.46-.372-.833-.833-.833zM10.769 13.848c-.042-.108-.1-.2-.175-.275-.042-.033-.084-.075-.134-.1-.041-.033-.091-.057-.141-.075-.05-.025-.1-.041-.159-.05-.265-.058-.558.034-.748.225-.075.075-.134.167-.175.275-.042.1-.067.208-.067.317 0 .108.025.216.067.316.041.1.1.192.175.275.083.075.174.134.274.175.1.042.209.067.317.067.108 0 .216-.025.316-.067.1-.041.19-.1.275-.175.075-.083.133-.175.175-.275.041-.1.066-.208.066-.316 0-.108-.025-.217-.066-.317z"/>
    </g>
    <defs>
        <clipPath id="clip0">
            <path fill="#fff" d="M0 0H20V20H0z"/>
        </clipPath>
    </defs>
</svg>
