<svg xmlns="http://www.w3.org/2000/svg" width="22" height="22" fill="none" viewBox="0 0 22 22">
    <g fill="#58C25D" clip-path="url(#clip0)">
        <path d="M15.145 9.453c0-.475-.385-.86-.86-.86H5.434c-.475 0-.86.385-.86.86s.385.86.86.86h8.851c.475 0 .86-.385.86-.86zM5.434 12.031c-.475 0-.86.385-.86.86 0 .474.385.859.86.859h5.375c.475 0 .86-.385.86-.86 0-.474-.385-.859-.86-.859H5.434z"/>
        <path d="M7.454 20.281H4.58c-.948 0-1.719-.77-1.719-1.718V3.438c0-.948.771-1.72 1.72-1.72h10.565c.947 0 1.718.772 1.718 1.72v5.285c0 .474.385.859.86.859.474 0 .86-.385.86-.86V3.439C18.583 1.542 17.04 0 15.145 0H4.58C2.685 0 1.143 1.542 1.143 3.438v15.124C1.143 20.459 2.685 22 4.58 22h2.874c.475 0 .86-.385.86-.86 0-.474-.385-.859-.86-.859z"/>
        <path d="M20.106 12.444c-1.005-1.006-2.64-1.006-3.645-.001l-4.718 4.707c-.1.1-.174.224-.216.359L10.5 20.892c-.091.3-.012.625.207.85.164.168.387.259.615.259.077 0 .154-.01.23-.031l3.468-.961c.143-.04.273-.115.378-.22l4.708-4.7c1.005-1.005 1.005-2.64 0-3.645zm-5.762 6.969l-1.745.483.51-1.681 3.184-3.177 1.216 1.216-3.165 3.159zm4.548-4.54l-.167.167-1.215-1.215.166-.166c.335-.335.88-.335 1.215 0 .335.335.335.88 0 1.215zM14.285 5.156H5.434c-.475 0-.86.385-.86.86 0 .474.385.859.86.859h8.851c.475 0 .86-.385.86-.86 0-.474-.385-.859-.86-.859z"/>
    </g>
    <defs>
        <clipPath id="clip0">
            <path fill="#fff" d="M0 0H22V22H0z"/>
        </clipPath>
    </defs>
</svg>
