<svg width="22" height="22" viewBox="0 0 22 22" fill="none" xmlns="http://www.w3.org/2000/svg">
<g clip-path="url(#clip0)">
<path d="M15.1448 9.45312C15.1448 8.97849 14.76 8.59375 14.2854 8.59375H5.43384C4.95921 8.59375 4.57446 8.97849 4.57446 9.45312C4.57446 9.92776 4.95921 10.3125 5.43384 10.3125H14.2854C14.76 10.3125 15.1448 9.92776 15.1448 9.45312Z" fill="#58C25D"/>
<path d="M5.43384 12.0312C4.95921 12.0312 4.57446 12.416 4.57446 12.8906C4.57446 13.3653 4.95921 13.75 5.43384 13.75H10.8097C11.2843 13.75 11.6691 13.3653 11.6691 12.8906C11.6691 12.416 11.2843 12.0312 10.8097 12.0312H5.43384Z" fill="#58C25D"/>
<path d="M7.4536 20.2812H4.57947C3.63175 20.2812 2.86072 19.5102 2.86072 18.5625V3.4375C2.86072 2.48978 3.63175 1.71875 4.57947 1.71875H15.145C16.0927 1.71875 16.8638 2.48978 16.8638 3.4375V8.72266C16.8638 9.19729 17.2485 9.58203 17.7231 9.58203C18.1978 9.58203 18.5825 9.19729 18.5825 8.72266V3.4375C18.5825 1.54206 17.0404 0 15.145 0H4.57947C2.68403 0 1.14197 1.54206 1.14197 3.4375V18.5625C1.14197 20.4579 2.68403 22 4.57947 22H7.4536C7.92824 22 8.31298 21.6153 8.31298 21.1406C8.31298 20.666 7.92824 20.2812 7.4536 20.2812Z" fill="#58C25D"/>
<path d="M20.1049 12.4427C19.0997 11.4375 17.4641 11.4375 16.4596 12.442L11.7415 17.1497C11.6413 17.2497 11.5673 17.3728 11.5262 17.5083L10.4987 20.891C10.4076 21.1909 10.4869 21.5166 10.7058 21.7409C10.8698 21.909 11.0925 22.0002 11.321 22.0002C11.3974 22.0002 11.4746 21.99 11.5504 21.969L15.019 21.0081C15.1618 20.9686 15.2919 20.8928 15.3967 20.7882L20.1049 16.0888C21.1101 15.0836 21.1101 13.448 20.1049 12.4427ZM14.3424 19.4121L12.5974 19.8955L13.1081 18.2142L16.2916 15.0377L17.5072 16.2533L14.3424 19.4121ZM18.8902 14.873L18.7237 15.0391L17.5083 13.8237L17.6743 13.6581C18.0094 13.3231 18.5545 13.3231 18.8896 13.6581C19.2247 13.9932 19.2247 14.5384 18.8902 14.873Z" fill="#58C25D"/>
<path d="M14.2854 5.15625H5.43384C4.95921 5.15625 4.57446 5.54099 4.57446 6.01562C4.57446 6.49026 4.95921 6.875 5.43384 6.875H14.2854C14.76 6.875 15.1448 6.49026 15.1448 6.01562C15.1448 5.54099 14.76 5.15625 14.2854 5.15625Z" fill="#58C25D"/>
</g>
<defs>
<clipPath id="clip0">
<rect width="22" height="22" fill="white"/>
</clipPath>
</defs>
</svg>
