<svg xmlns="http://www.w3.org/2000/svg" width="16" height="16" fill="none" viewBox="0 0 16 16">
    <g fill="#fff" clip-path="url(#clip0)">
        <path d="M11.014 6.875c0-.345-.28-.625-.625-.625H3.95c-.345 0-.625.28-.625.625s.28.625.625.625h6.438c.345 0 .625-.28.625-.625zM3.951 8.75c-.345 0-.625.28-.625.625s.28.625.625.625h3.91c.345 0 .625-.28.625-.625s-.28-.625-.625-.625H3.95z"/>
        <path d="M5.42 14.75H3.33c-.69 0-1.25-.56-1.25-1.25v-11c0-.69.56-1.25 1.25-1.25h7.684c.69 0 1.25.56 1.25 1.25v3.844c0 .345.28.625.625.625s.625-.28.625-.625V2.5c0-1.379-1.121-2.5-2.5-2.5H3.33C1.952 0 .83 1.121.83 2.5v11c0 1.379 1.122 2.5 2.5 2.5h2.09c.346 0 .625-.28.625-.625s-.28-.625-.625-.625z"/>
        <path d="M14.62 9.05c-.73-.732-1.92-.732-2.65-.001l-3.432 3.424c-.073.072-.126.162-.156.26l-.748 2.46c-.066.219-.008.456.151.619.12.122.281.188.447.188.056 0 .112-.007.167-.023l2.523-.698c.104-.029.198-.084.275-.16L14.62 11.7c.73-.731.73-1.92 0-2.652zm-4.19 5.068l-1.27.351.372-1.222 2.316-2.31.883.884-2.301 2.297zm3.307-3.301l-.12.12-.885-.883.121-.12c.244-.244.64-.244.884 0 .244.243.244.64 0 .883zM10.389 3.75H3.95c-.345 0-.625.28-.625.625s.28.625.625.625h6.438c.345 0 .625-.28.625-.625s-.28-.625-.625-.625z"/>
    </g>
    <defs>
        <clipPath id="clip0">
            <path fill="#fff" d="M0 0H16V16H0z"/>
        </clipPath>
    </defs>
</svg>
