<?xml version="1.0" encoding="utf-8"?>
<!-- Generator: Adobe Illustrator 16.0.0, SVG Export Plug-In . SVG Version: 6.00 Build 0)  -->
<!DOCTYPE svg PUBLIC "-//W3C//DTD SVG 1.1//EN" "http://www.w3.org/Graphics/SVG/1.1/DTD/svg11.dtd">
<svg version="1.1" id="Capa_1" xmlns="http://www.w3.org/2000/svg" xmlns:xlink="http://www.w3.org/1999/xlink" x="0px" y="0px"
	 width="595.279px" height="470.742px" viewBox="0 185.574 595.279 470.742" enable-background="new 0 185.574 595.279 470.742"
	 xml:space="preserve">
<g>
	<g>
		<g>
			<path fill="#FFFFFF" d="M484.395,301.19H269.627l-42.721-50.774c-1.437-1.727-3.59-2.696-5.836-2.626H47.797
				C21.343,247.982,0,269.483,0,295.938v312.289c0.032,26.545,21.544,48.057,48.089,48.089h436.306
				c26.545-0.032,48.057-21.544,48.089-48.089V349.279C532.451,322.734,510.94,301.222,484.395,301.19z"/>
		</g>
	</g>
	<g>
		<g>
			<path fill="#FFFFFF" d="M547.483,238.978H332.656l-42.72-50.774c-1.438-1.728-3.591-2.696-5.836-2.626H110.886
				c-24.004,0.04-44.302,17.772-47.564,41.553h157.982c8.284-0.021,16.15,3.636,21.477,9.979l36.476,43.362h205.139
				c37.941,0.064,68.685,30.807,68.749,68.749v244.415c24.056-3.001,42.117-23.438,42.136-47.681V287.008
				C595.217,260.599,573.891,239.17,547.483,238.978z"/>
		</g>
	</g>
</g>
</svg>
