<?xml version="1.0" encoding="utf-8"?>
<!-- Generator: Adobe Illustrator 16.0.0, SVG Export Plug-In . SVG Version: 6.00 Build 0)  -->
<!DOCTYPE svg PUBLIC "-//W3C//DTD SVG 1.1//EN" "http://www.w3.org/Graphics/SVG/1.1/DTD/svg11.dtd">
<svg version="1.1" id="Livello_1" xmlns="http://www.w3.org/2000/svg" xmlns:xlink="http://www.w3.org/1999/xlink" x="0px" y="0px"
	 width="21.235px" height="21.146px" viewBox="261.765 547.859 21.235 21.146"
	 enable-background="new 261.765 547.859 21.235 21.146" xml:space="preserve">
<title></title>
<g id="info">
</g>
<g id="icons_2_">
	<path id="search_2_" fill="#969696" d="M282.42,565.74l-4.632-4.615c0.868-1.344,1.353-2.886,1.353-4.615
		c0-4.807-3.86-8.65-8.688-8.65s-8.688,3.844-8.688,8.65c0,4.805,3.859,8.652,8.688,8.652c1.74,0,3.283-0.483,4.633-1.346
		l4.632,4.614c0.389,0.387,0.868,0.575,1.354,0.575c1.063,0,1.93-0.866,1.93-1.925C283,566.509,282.808,566.028,282.42,565.74z
		 M265.626,556.512c0-2.69,2.125-4.805,4.827-4.805c2.704,0,4.826,2.113,4.826,4.805c0,2.688-2.122,4.807-4.826,4.807
		C267.751,561.319,265.626,559.203,265.626,556.512z"/>
</g>
</svg>
