<?xml version="1.0" encoding="utf-8"?>
<!-- Generator: Adobe Illustrator 16.0.0, SVG Export Plug-In . SVG Version: 6.00 Build 0)  -->
<!DOCTYPE svg PUBLIC "-//W3C//DTD SVG 1.1//EN" "http://www.w3.org/Graphics/SVG/1.1/DTD/svg11.dtd">
<svg version="1.1" id="Capa_1" xmlns="http://www.w3.org/2000/svg" xmlns:xlink="http://www.w3.org/1999/xlink" x="0px" y="0px"
	 width="53.275px" height="53.276px" viewBox="0.457 0.457 53.275 53.276" enable-background="new 0.457 0.457 53.275 53.276"
	 xml:space="preserve">
<g>
	<g>
		<path d="M52.735,47.92L40.414,35.6V8.227c0-1.839-1.489-3.329-3.33-3.329h-22.31c-0.514-2.533-2.753-4.44-5.438-4.44
			c-2.685,0-4.924,1.907-5.438,4.44H3.787c-1.84,0-3.33,1.49-3.33,3.329v42.177c0,1.839,1.49,3.33,3.33,3.33h33.297
			c1.841,0,3.33-1.491,3.33-3.33V45.23l7.507,7.505c0.639,0.641,1.505,1,2.408,0.999c0.903,0,1.771-0.359,2.408-0.998
			C54.066,51.405,54.065,49.248,52.735,47.92z M9.335,2.676c1.45,0,2.684,0.928,3.141,2.221H6.198
			C6.655,3.603,7.887,2.676,9.335,2.676z M38.195,50.403c0,0.613-0.497,1.11-1.11,1.11H3.787c-0.612,0-1.109-0.497-1.109-1.11V8.226
			c0-0.613,0.497-1.109,1.109-1.109h8.879v12.209c0,0.612-0.497,1.109-1.109,1.109s-1.109-0.497-1.109-1.109V9.336h-2.22v9.989
			c0,1.839,1.49,3.329,3.33,3.329c1.839,0,3.329-1.49,3.329-3.329V7.116h22.198c0.612,0,1.109,0.496,1.109,1.109v25.151l-3.33-3.33
			V10.445c0-0.612-0.497-1.109-1.108-1.109H17.107v2.22h15.539v16.516l-6.163-3.075c-0.313-0.156-0.682-0.156-0.994,0
			c-0.06,0.03-0.114,0.065-0.166,0.104l-0.002-0.002l-3.15,2.359l-1.774-6.215c-0.052-0.184-0.149-0.348-0.283-0.481
			c-0.434-0.434-1.136-0.433-1.569,0l-3.005,3.005h-8.42c-0.611,0-1.108,0.497-1.108,1.11v23.308c0,0.613,0.497,1.11,1.108,1.11
			h26.639c0.612,0,1.109-0.497,1.109-1.11v-8.504l3.33,3.33v7.394H38.195z M29.534,30.603l-1.068-2.139l2.139,1.069L29.534,30.603z
			 M32.645,37.459v9.614H8.227V25.985h7.77c0.294,0,0.575-0.116,0.783-0.323l1.998-1.997l1.7,5.954
			c0.037,0.131,0.099,0.254,0.18,0.362c0.368,0.489,1.063,0.59,1.556,0.222l3.372-2.53l2.652,5.306l0.003-0.001
			c0.052,0.103,0.12,0.198,0.205,0.284L32.645,37.459z M30.8,32.477l1.677-1.678l14.662,14.662l-1.678,1.677L30.8,32.477z
			 M51.166,51.166c-0.463,0.464-1.214,0.464-1.677,0l-2.459-2.458l1.678-1.677l2.458,2.458C51.63,49.952,51.63,50.703,51.166,51.166
			z"/>
	</g>
</g>
</svg>
