<svg width="16" height="16" viewBox="0 0 16 16" fill="none" xmlns="http://www.w3.org/2000/svg">
<path d="M9.30042 0H2.96331C2.48071 0 2.0881 0.392604 2.0881 0.87521V15.1248C2.0881 15.6074 2.48071 16 2.96331 16H13.0368C13.5194 16 13.912 15.6074 13.912 15.1248V4.31967C13.912 4.08599 13.8209 3.86624 13.6558 3.7009L9.90949 0.246663C9.74531 0.087448 9.52957 0 9.30042 0ZM12.818 14.906H3.18212V1.09401H8.41638V4.02859C8.41638 4.67661 8.94333 5.20385 9.59106 5.20385H12.818V14.906V14.906ZM9.59106 4.10984C9.54664 4.10984 9.51047 4.07337 9.51047 4.02859V1.72533L12.0608 4.10977H9.59106V4.10984ZM5.06885 6.46393H11.013V7.55795H5.06885V6.46393ZM5.06885 8.28729H11.013V9.3813H5.06885V8.28729ZM5.06885 10.1106H11.013V11.2046H5.06885V10.1106ZM5.06885 11.9339H8.46029V13.0279H5.06885V11.9339Z" fill="white"/>
</svg>
