<svg xmlns="http://www.w3.org/2000/svg" width="26" height="18" fill="none" viewBox="0 0 26 18">
    <g clip-path="url(#clip0)">
        <path fill="#58C25D" d="M12.444 8.697c-.333-.158-.673-.294-1.019-.409 1.12-.84 1.846-2.179 1.846-3.684C13.27 2.065 11.205 0 8.667 0c-2.54 0-4.605 2.065-4.605 4.604 0 1.507.728 2.847 1.85 3.687-1.028.339-1.993.865-2.837 1.56C1.527 11.124.45 12.9.044 14.853c-.127.611.025 1.24.418 1.723.392.481.972.757 1.593.757h8.338c.374 0 .677-.303.677-.677 0-.374-.303-.677-.677-.677H2.055c-.29 0-.464-.161-.542-.257-.135-.166-.187-.383-.143-.593.702-3.375 3.68-5.841 7.117-5.924l.18.003c.06 0 .12 0 .18-.003 1.054.025 2.068.265 3.015.715.338.161.742.017.903-.32.16-.338.016-.742-.321-.903zM8.832 7.85l-.165-.001-.164.001c-1.716-.086-3.086-1.509-3.086-3.246 0-1.792 1.458-3.25 3.25-3.25s3.25 1.458 3.25 3.25c0 1.737-1.37 3.16-3.085 3.246z"/>
    </g>
    <g clip-path="url(#clip1)">
        <path fill="#58C25D" d="M21.11 8.697c-.333-.158-.673-.294-1.019-.409 1.12-.84 1.846-2.179 1.846-3.684C21.937 2.065 19.87 0 17.333 0c-2.54 0-4.604 2.065-4.604 4.604 0 1.507.727 2.847 1.85 3.687-1.029.339-1.994.865-2.838 1.56-1.548 1.273-2.625 3.05-3.031 5.002-.127.611.025 1.24.418 1.723.392.481.972.757 1.593.757h8.338c.374 0 .677-.303.677-.677 0-.374-.303-.677-.677-.677h-8.338c-.29 0-.464-.161-.542-.257-.135-.166-.187-.383-.143-.593.702-3.375 3.68-5.841 7.117-5.924l.18.003c.06 0 .12 0 .18-.003 1.054.025 2.068.265 3.015.715.338.161.742.017.903-.32.16-.338.017-.742-.321-.903zm-3.612-.847l-.165-.001-.164.001c-1.716-.086-3.086-1.509-3.086-3.246 0-1.792 1.458-3.25 3.25-3.25s3.25 1.458 3.25 3.25c0 1.737-1.37 3.16-3.085 3.246z"/>
    </g>
    <defs>
        <clipPath id="clip0">
            <path fill="#fff" d="M0 0H17.333V17.333H0z"/>
        </clipPath>
        <clipPath id="clip1">
            <path fill="#fff" d="M0 0H17.333V17.333H0z" transform="translate(8.666)"/>
        </clipPath>
    </defs>
</svg>
