<svg xmlns="http://www.w3.org/2000/svg" width="14" height="16" fill="none" viewBox="0 0 14 16">
    <path fill="#fff" d="M13.365 2.59L7.24.049c-.154-.064-.326-.064-.48 0L.635 2.59c-.233.097-.385.324-.385.577v3.091c0 4.257 2.573 8.086 6.514 9.695.151.061.32.061.472 0 3.941-1.609 6.514-5.438 6.514-9.695V3.168c0-.253-.152-.48-.385-.577zM12.5 6.26c0 3.618-2.125 6.95-5.5 8.436-3.285-1.447-5.5-4.72-5.5-8.437V3.585L7 1.302l5.5 2.283V6.26zM6.31 8.365L8.995 5.68c.244-.244.64-.244.883 0 .245.244.245.64 0 .884L6.751 9.692c-.244.244-.64.244-.884 0L4.121 7.945c-.245-.244-.245-.64 0-.884.244-.244.64-.244.883 0L6.31 8.366z"/>
</svg>
