<svg width="131" height="50" viewBox="0 0 131 50" fill="none" xmlns="http://www.w3.org/2000/svg">
<path d="M20.2955 4.68751L19.6993 8.96025C17.2814 8.03284 15.1616 7.56913 13.3399 7.56913C12.1144 7.56913 11.0379 7.76786 10.1105 8.16532C9.19965 8.54623 8.48752 9.09274 7.97413 9.80487C7.4773 10.5004 7.22888 11.3202 7.22888 12.2642C7.22888 13.7381 7.74228 14.8643 8.76906 15.6426C9.8124 16.421 11.6341 17.4892 14.2342 18.8472C16.8508 20.1886 18.8133 21.5549 20.1216 22.946C21.43 24.3206 22.0841 26.1506 22.0841 28.436C22.0841 30.4233 21.6038 32.2036 20.6433 33.7769C19.6828 35.3502 18.3165 36.5592 16.5445 37.4038C14.789 38.2484 12.7685 38.6707 10.4831 38.6707C7.78368 38.6707 5.20844 38.2236 2.75741 37.3293L3.25424 32.7584C5.75495 33.9508 7.97413 34.547 9.91177 34.547C11.2863 34.547 12.5036 34.3152 13.5635 33.8515C14.6399 33.3878 15.4597 32.7253 16.0228 31.8641C16.6024 30.9864 16.8922 29.9596 16.8922 28.7838C16.8922 27.0946 16.3209 25.8194 15.1782 24.9582C14.0355 24.0805 12.222 23.0454 9.73788 21.853C7.25373 20.6606 5.37405 19.4268 4.09885 18.1516C2.82365 16.8599 2.18605 15.0464 2.18605 12.7113C2.18605 10.8896 2.62492 9.28319 3.50266 7.89207C4.39695 6.48438 5.65559 5.39135 7.27857 4.61299C8.91811 3.83462 10.7812 3.44543 12.8679 3.44543C15.5011 3.44543 17.977 3.85946 20.2955 4.68751ZM29.0397 14.9967C30.3978 14.2018 31.7392 13.6222 33.0641 13.2578C34.4055 12.8935 35.838 12.7113 37.3617 12.7113C39.6968 12.7113 41.651 13.1585 43.2243 14.0528C44.8141 14.9305 45.9154 16.1809 46.5282 17.8038C47.0416 19.1618 47.2983 21.4638 47.2983 24.7098V29.5539C47.2983 31.4253 47.3148 33.0648 47.348 34.4725C47.3976 35.8636 47.4639 37.0395 47.5467 38H43.3236C43.2905 37.4204 43.2739 36.7745 43.2739 36.0624C43.2739 35.1846 43.2905 34.4063 43.3236 33.7273C42.3631 35.3337 41.2204 36.5095 39.8955 37.2548C38.5706 37.9834 36.9311 38.3478 34.9769 38.3478C33.2545 38.3478 31.7309 38.0414 30.406 37.4286C29.0977 36.8159 28.0875 35.9464 27.3754 34.8203C26.6798 33.6776 26.332 32.361 26.332 30.8705C26.332 29.5622 26.6136 28.4112 27.1766 27.4175C27.7563 26.4073 28.6009 25.5544 29.7105 24.8588C30.8201 24.1467 32.1781 23.6168 33.7845 23.269C35.3909 22.9212 37.2457 22.7473 39.349 22.7473C40.6076 22.7473 41.7669 22.7804 42.8268 22.8467C42.7937 20.7103 42.272 19.1453 41.2618 18.1516C40.2516 17.1414 38.7031 16.6363 36.6164 16.6363C35.2584 16.6363 34.0163 16.8267 32.8902 17.2076C31.764 17.572 30.5634 18.1765 29.2882 19.0211L29.0397 14.9967ZM42.9262 26.25C41.8994 26.1506 41.063 26.1009 40.4172 26.1009C34.2896 26.1009 31.2258 27.6742 31.2258 30.8208C31.2258 31.5826 31.4245 32.2533 31.822 32.833C32.2195 33.4126 32.7825 33.868 33.5112 34.1992C34.2399 34.5305 35.068 34.6961 35.9954 34.6961C37.7012 34.6961 39.0674 34.3235 40.0942 33.5782C41.121 32.833 41.8497 31.831 42.2803 30.5724C42.7109 29.3137 42.9262 27.8729 42.9262 26.25ZM59.2222 1.35875V38H54.5768V1.35875H59.2222ZM86.4485 13.1336L77.5056 38H72.2143L63.0478 13.1336H68.0409L73.1335 27.4672C73.4316 28.3615 73.6965 29.1399 73.9284 29.8023C74.1768 30.4482 74.3838 31.0775 74.5494 31.6903C74.7316 32.2864 74.8724 32.9489 74.9717 33.6776C75.1373 32.568 75.4934 31.2431 76.0399 29.7029L81.8777 13.1336H86.4485ZM91.6901 14.9967C93.0481 14.2018 94.3895 13.6222 95.7144 13.2578C97.0559 12.8935 98.4884 12.7113 100.012 12.7113C102.347 12.7113 104.301 13.1585 105.875 14.0528C107.464 14.9305 108.566 16.1809 109.179 17.8038C109.692 19.1618 109.949 21.4638 109.949 24.7098V29.5539C109.949 31.4253 109.965 33.0648 109.998 34.4725C110.048 35.8636 110.114 37.0395 110.197 38H105.974C105.941 37.4204 105.924 36.7745 105.924 36.0624C105.924 35.1846 105.941 34.4063 105.974 33.7273C105.013 35.3337 103.871 36.5095 102.546 37.2548C101.221 37.9834 99.5814 38.3478 97.6272 38.3478C95.9049 38.3478 94.3812 38.0414 93.0564 37.4286C91.748 36.8159 90.7378 35.9464 90.0257 34.8203C89.3301 33.6776 88.9824 32.361 88.9824 30.8705C88.9824 29.5622 89.2639 28.4112 89.827 27.4175C90.4066 26.4073 91.2512 25.5544 92.3608 24.8588C93.4704 24.1467 94.8284 23.6168 96.4348 23.269C98.0412 22.9212 99.8961 22.7473 101.999 22.7473C103.258 22.7473 104.417 22.7804 105.477 22.8467C105.444 20.7103 104.922 19.1453 103.912 18.1516C102.902 17.1414 101.353 16.6363 99.2668 16.6363C97.9087 16.6363 96.6667 16.8267 95.5405 17.2076C94.4144 17.572 93.2137 18.1765 91.9385 19.0211L91.6901 14.9967ZM105.576 26.25C104.55 26.1506 103.713 26.1009 103.068 26.1009C96.9399 26.1009 93.8761 27.6742 93.8761 30.8208C93.8761 31.5826 94.0749 32.2533 94.4723 32.833C94.8698 33.4126 95.4329 33.868 96.1616 34.1992C96.8902 34.5305 97.7183 34.6961 98.6457 34.6961C100.351 34.6961 101.718 34.3235 102.745 33.5782C103.771 32.833 104.5 31.831 104.931 30.5724C105.361 29.3137 105.576 27.8729 105.576 26.25Z" fill="#C1C1C1"/>
<path d="M20.2955 4.68751L21.2211 4.81666L21.3262 4.06326L20.6098 3.80741L20.2955 4.68751ZM19.6993 8.96025L19.3647 9.83281L20.4624 10.2539L20.6249 9.0894L19.6993 8.96025ZM10.1105 8.16532L10.4711 9.02755L10.4786 9.0243L10.1105 8.16532ZM7.97413 9.80487L7.21605 9.25834L7.21366 9.26167L7.97413 9.80487ZM8.76906 15.6426L8.20448 16.3874L8.21024 16.3917L8.76906 15.6426ZM14.2342 18.8472L13.8015 19.6756L13.8079 19.6788L14.2342 18.8472ZM20.1216 22.946L19.4409 23.5863L19.4447 23.5903L20.1216 22.946ZM16.5445 37.4038L16.1424 36.5602L16.1393 36.5617L16.5445 37.4038ZM2.75741 37.3293L1.82834 37.2283L1.74922 37.9562L2.43708 38.2072L2.75741 37.3293ZM3.25424 32.7584L3.65646 31.9149L2.46751 31.348L2.32517 32.6575L3.25424 32.7584ZM13.5635 33.8515L13.1937 32.9932L13.1889 32.9953L13.5635 33.8515ZM16.0228 31.8641L15.2429 31.3491L15.2406 31.3527L16.0228 31.8641ZM15.1782 24.9582L14.6089 25.6994L14.6157 25.7045L15.1782 24.9582ZM4.09885 18.1516L3.43377 18.8082L3.43803 18.8124L4.09885 18.1516ZM3.50266 7.89207L2.71383 7.39093L2.71229 7.39338L3.50266 7.89207ZM7.27857 4.61299L6.87777 3.76875L6.87444 3.77034L7.27857 4.61299ZM19.37 4.55836L18.7738 8.8311L20.6249 9.0894L21.2211 4.81666L19.37 4.55836ZM20.034 8.0877C17.5507 7.1352 15.3133 6.63459 13.3399 6.63459V8.50367C15.0099 8.50367 17.0121 8.93047 19.3647 9.83281L20.034 8.0877ZM13.3399 6.63459C12.0143 6.63459 10.8082 6.84955 9.74237 7.30635L10.4786 9.0243C11.2676 8.68617 12.2144 8.50367 13.3399 8.50367V6.63459ZM9.74995 7.30314C8.70035 7.74206 7.84245 8.38947 7.21605 9.25834L8.73221 10.3514C9.13259 9.79602 9.69894 9.35039 10.4711 9.02751L9.74995 7.30314ZM7.21366 9.26167C6.59184 10.1322 6.29434 11.1467 6.29434 12.2642H8.16342C8.16342 11.4937 8.36276 10.8686 8.7346 10.3481L7.21366 9.26167ZM6.29434 12.2642C6.29434 13.9826 6.90893 15.4052 8.2045 16.3874L9.33362 14.8979C8.57562 14.3233 8.16342 13.4936 8.16342 12.2642H6.29434ZM8.21024 16.3917C9.31838 17.2184 11.1981 18.3158 13.8015 19.6755L14.6668 18.0188C12.0702 16.6626 10.3064 15.6236 9.32788 14.8936L8.21024 16.3917ZM13.8079 19.6788C16.3751 20.9949 18.2342 22.3033 19.4409 23.5863L20.8024 22.3058C19.3924 20.8066 17.3266 19.3823 14.6605 18.0156L13.8079 19.6788ZM19.4447 23.5903C20.555 24.7568 21.1496 26.3385 21.1496 28.436H23.0187C23.0187 25.9627 22.3049 23.8844 20.7986 22.3017L19.4447 23.5903ZM21.1496 28.436C21.1496 30.2654 20.7097 31.8748 19.8457 33.29L21.4409 34.2639C22.498 32.5325 23.0187 30.5812 23.0187 28.436H21.1496ZM19.8457 33.29C18.9858 34.6983 17.7619 35.7883 16.1424 36.5602L16.9466 38.2474C18.8711 37.3301 20.3797 36.0021 21.4409 34.2639L19.8457 33.29ZM16.1393 36.5617C14.5303 37.3358 12.6524 37.7362 10.4831 37.7362V39.6053C12.8847 39.6053 15.0477 39.161 16.9496 38.2459L16.1393 36.5617ZM10.4831 37.7362C7.8891 37.7362 5.42258 37.3069 3.07773 36.4514L2.43708 38.2072C4.99431 39.1402 7.67825 39.6053 10.4831 39.6053V37.7362ZM3.68648 37.4303L4.18331 32.8594L2.32517 32.6575L1.82834 37.2283L3.68648 37.4303ZM2.85202 33.602C5.42818 34.8304 7.78839 35.4816 9.91177 35.4816V33.6125C8.15987 33.6125 6.08173 33.0713 3.65646 31.9149L2.85202 33.602ZM9.91177 35.4816C11.3914 35.4816 12.74 35.2318 13.9381 34.7077L13.1889 32.9953C12.2672 33.3985 11.1813 33.6125 9.91177 33.6125V35.4816ZM13.9332 34.7098C15.1541 34.1838 16.128 33.411 16.805 32.3756L15.2406 31.3527C14.7915 32.0396 14.1258 32.5917 13.1937 32.9932L13.9332 34.7098ZM16.8026 32.3791C17.4948 31.331 17.8268 30.1204 17.8268 28.7838H15.9577C15.9577 29.7989 15.71 30.6419 15.2429 31.3492L16.8026 32.3791ZM17.8268 28.7838C17.8268 26.861 17.1616 25.2827 15.7406 24.2119L14.6157 25.7045C15.4802 26.356 15.9577 27.3282 15.9577 28.7838H17.8268ZM15.7475 24.2171C14.5261 23.2789 12.6422 22.2104 10.1423 21.0105L9.33347 22.6955C11.8019 23.8804 13.5448 24.882 14.6089 25.6993L15.7475 24.2171ZM10.1423 21.0105C7.70844 19.8423 5.93177 18.6629 4.75967 17.4908L3.43803 18.8124C4.81633 20.1907 6.79901 21.479 9.33347 22.6955L10.1423 21.0105ZM4.76392 17.4951C3.70693 16.4244 3.12059 14.8742 3.12059 12.7113H1.25151C1.25151 15.2187 1.94037 17.2954 3.43378 18.8082L4.76392 17.4951ZM3.12059 12.7113C3.12059 11.0465 3.51942 9.61684 4.29302 8.39075L2.71229 7.39338C1.73042 8.94955 1.25151 10.7327 1.25151 12.7113H3.12059ZM4.29147 8.3932C5.08457 7.14481 6.20437 6.16462 7.68269 5.45563L6.87444 3.77034C5.10681 4.61808 3.70933 5.82395 2.71384 7.39094L4.29147 8.3932ZM7.67936 5.45722C9.17618 4.74661 10.8991 4.37997 12.8679 4.37997V2.51089C10.6633 2.51089 8.66003 2.92263 6.87777 3.76875L7.67936 5.45722ZM12.8679 4.37997C15.4015 4.37997 17.7704 4.77802 19.9812 5.56761L20.6098 3.80741C18.1836 2.9409 15.6007 2.51089 12.8679 2.51089V4.37997ZM29.0397 14.9967L28.5676 14.1902L28.0716 14.4806L28.107 15.0543L29.0397 14.9967ZM33.0641 13.2578L32.8191 12.356L32.8163 12.3567L33.0641 13.2578ZM43.2243 14.0528L42.7624 14.8653L42.7726 14.8709L43.2243 14.0528ZM46.5282 17.8038L45.6539 18.1339L45.654 18.1343L46.5282 17.8038ZM47.348 34.4725L46.4136 34.4945L46.414 34.5059L47.348 34.4725ZM47.5467 38V38.9345H48.5653L48.4778 37.9197L47.5467 38ZM43.3236 38L42.3906 38.0533L42.441 38.9345H43.3236V38ZM43.3236 33.7273L44.2571 33.7728L42.5215 33.2477L43.3236 33.7273ZM39.8955 37.2548L40.3459 38.0737L40.3537 38.0693L39.8955 37.2548ZM30.406 37.4286L30.0097 38.275L30.0137 38.2769L30.406 37.4286ZM27.3754 34.8203L26.5771 35.3062L26.5812 35.313L26.5855 35.3198L27.3754 34.8203ZM27.1766 27.4175L26.366 26.9524L26.3636 26.9568L27.1766 27.4175ZM29.7105 24.8588L30.2069 25.6507L30.2152 25.6453L29.7105 24.8588ZM42.8268 22.8467L42.7685 23.7794L43.7769 23.8424L43.7612 22.8322L42.8268 22.8467ZM41.2618 18.1516L40.6009 18.8125L40.6064 18.8179L41.2618 18.1516ZM32.8902 17.2076L33.1779 18.0969L33.1896 18.0929L32.8902 17.2076ZM29.2882 19.0211L28.3554 19.0787L28.4551 20.6938L29.8042 19.8002L29.2882 19.0211ZM42.9262 26.25H43.8607V25.4015L43.0162 25.3198L42.9262 26.25ZM33.5112 34.1992L33.1245 35.05L33.5112 34.1992ZM40.0942 33.5782L39.5453 32.8219L40.0942 33.5782ZM29.5119 15.8033C30.8095 15.0437 32.076 14.4988 33.3119 14.1589L32.8163 12.3567C31.4024 12.7456 29.986 13.36 28.5676 14.1902L29.5119 15.8033ZM33.309 14.1597C34.5634 13.819 35.9129 13.6459 37.3617 13.6459V11.7768C35.7632 11.7768 34.2477 11.968 32.8191 12.356L33.309 14.1597ZM37.3617 13.6459C39.5807 13.6459 41.3651 14.0709 42.7624 14.8652L43.6861 13.2403C41.9369 12.246 39.8128 11.7768 37.3617 11.7768V13.6459ZM42.7726 14.8709C44.178 15.6468 45.1235 16.729 45.6539 18.1339L47.4025 17.4737C46.7074 15.6327 45.4503 14.2142 43.6759 13.2346L42.7726 14.8709ZM45.654 18.1343C46.1023 19.32 46.3637 21.4717 46.3637 24.7098H48.2328C48.2328 21.4559 47.9809 19.0037 47.4023 17.4734L45.654 18.1343ZM46.3637 24.7098V29.5539H48.2328V24.7098H46.3637ZM46.3637 29.5539C46.3637 31.4304 46.3803 33.0775 46.4137 34.4945L48.2822 34.4505C48.2493 33.0521 48.2328 31.4202 48.2328 29.5539H46.3637ZM46.414 34.5059C46.464 35.9064 46.531 37.099 46.6156 38.0803L48.4778 37.9197C48.3968 36.98 48.3312 35.8208 48.2819 34.4391L46.414 34.5059ZM47.5467 37.0655H43.3236V38.9345H47.5467V37.0655ZM44.2566 37.9467C44.2247 37.3882 44.2085 36.7605 44.2085 36.0624H42.3394C42.3394 36.7885 42.3563 37.4525 42.3906 38.0533L44.2566 37.9467ZM44.2085 36.0624C44.2085 35.1957 44.2248 34.433 44.2571 33.7728L42.3902 33.6817C42.3562 34.3795 42.3394 35.1735 42.3394 36.0624H44.2085ZM42.5215 33.2477C41.6254 34.7464 40.591 35.7913 39.4373 36.4402L40.3537 38.0693C41.8497 37.2277 43.1008 35.9209 44.1257 34.2069L42.5215 33.2477ZM39.4451 36.4359C38.2928 37.0697 36.8184 37.4132 34.9769 37.4132V39.2823C37.0437 39.2823 38.8484 38.8972 40.3459 38.0736L39.4451 36.4359ZM34.9769 37.4132C33.3659 37.4132 31.9801 37.127 30.7983 36.5804L30.0137 38.2769C31.4817 38.9558 33.1432 39.2823 34.9769 39.2823V37.4132ZM30.8024 36.5823C29.6415 36.0386 28.774 35.2834 28.1652 34.3208L26.5855 35.3198C27.401 36.6094 28.5539 37.5932 30.0097 38.275L30.8024 36.5823ZM28.1736 34.3344C27.5771 33.3544 27.2666 32.2097 27.2666 30.8705H25.3975C25.3975 32.5122 25.7825 34.0008 26.5771 35.3062L28.1736 34.3344ZM27.2666 30.8705C27.2666 29.6998 27.5172 28.712 27.9897 27.8782L26.3636 26.9568C25.7099 28.1103 25.3975 29.4245 25.3975 30.8705H27.2666ZM27.9872 27.8826C28.4814 27.0213 29.2108 26.275 30.2068 25.6507L29.2141 24.067C27.9909 24.8338 27.0311 25.7933 26.366 26.9524L27.9872 27.8826ZM30.2152 25.6453C31.2109 25.0063 32.459 24.5121 33.9822 24.1824L33.5867 22.3556C31.8971 22.7214 30.4292 23.2871 29.2057 24.0723L30.2152 25.6453ZM33.9822 24.1824C35.5086 23.8519 37.2948 23.6818 39.349 23.6818V21.8128C37.1967 21.8128 35.2732 21.9905 33.5867 22.3556L33.9822 24.1824ZM39.349 23.6818C40.5916 23.6818 41.7312 23.7146 42.7685 23.7794L42.8851 21.9139C41.8026 21.8463 40.6236 21.8128 39.349 21.8128V23.6818ZM43.7612 22.8322C43.7262 20.573 43.1738 18.7214 41.9171 17.4854L40.6064 18.8179C41.3702 19.5691 41.8611 20.8476 41.8924 22.8612L43.7612 22.8322ZM41.9226 17.4908C40.6703 16.2385 38.837 15.7017 36.6164 15.7017V17.5708C38.5692 17.5708 39.8328 18.0443 40.601 18.8124L41.9226 17.4908ZM36.6164 15.7017C35.1708 15.7017 33.826 15.9046 32.5908 16.3224L33.1896 18.0929C34.2067 17.7489 35.346 17.5708 36.6164 17.5708V15.7017ZM32.6025 16.3185C31.376 16.7153 30.0986 17.3633 28.7721 18.2419L29.8042 19.8002C31.0281 18.9896 32.152 18.4287 33.1779 18.0968L32.6025 16.3185ZM30.2209 18.9635L29.9725 14.9392L28.107 15.0543L28.3554 19.0787L30.2209 18.9635ZM43.0162 25.3198C41.9748 25.219 41.1054 25.1664 40.4172 25.1664V27.0354C41.0207 27.0354 41.8239 27.0822 42.8361 27.1802L43.0162 25.3198ZM40.4172 25.1664C37.3037 25.1664 34.827 25.561 33.0967 26.4495C32.218 26.9008 31.5061 27.4927 31.0164 28.247C30.5237 29.006 30.2913 29.8756 30.2913 30.8208H32.1603C32.1603 30.1927 32.3109 29.6856 32.5841 29.2647C32.8604 28.8391 33.2974 28.4476 33.9505 28.1122C35.284 27.4274 37.403 27.0354 40.4172 27.0354V25.1664ZM30.2913 30.8208C30.2913 31.7547 30.5381 32.6131 31.0513 33.3615L32.5927 32.3045C32.311 31.8936 32.1603 31.4106 32.1603 30.8208H30.2913ZM31.0513 33.3615C31.5578 34.1002 32.2628 34.6583 33.1245 35.05L33.8979 33.3485C33.3022 33.0777 32.8811 32.725 32.5927 32.3045L31.0513 33.3615ZM33.1245 35.05C33.9924 35.4445 34.9556 35.6306 35.9954 35.6306V33.7615C35.1803 33.7615 34.4874 33.6164 33.8979 33.3485L33.1245 35.05ZM35.9954 35.6306C37.8314 35.6306 39.41 35.2296 40.6432 34.3345L39.5453 32.8219C38.7249 33.4173 37.571 33.7615 35.9954 33.7615V35.6306ZM40.6432 34.3345C41.8336 33.4705 42.6748 32.3063 43.1645 30.8749L41.3961 30.2699C41.0246 31.3557 40.4084 32.1954 39.5453 32.8219L40.6432 34.3345ZM43.1645 30.8749C43.6348 29.5001 43.8607 27.954 43.8607 26.25H41.9916C41.9916 27.7919 41.7869 29.1273 41.3961 30.2699L43.1645 30.8749ZM59.2222 1.35875H60.1567V0.424206H59.2222V1.35875ZM59.2222 38V38.9345H60.1567V38H59.2222ZM54.5768 38H53.6423V38.9345H54.5768V38ZM54.5768 1.35875V0.424206H53.6423V1.35875H54.5768ZM58.2877 1.35875V38H60.1567V1.35875H58.2877ZM59.2222 37.0655H54.5768V38.9345H59.2222V37.0655ZM55.5114 38V1.35875H53.6423V38H55.5114ZM54.5768 2.29329H59.2222V0.424206H54.5768V2.29329ZM86.4485 13.1336L87.3279 13.4499L87.7778 12.1991H86.4485V13.1336ZM77.5056 38V38.9345H78.1626L78.385 38.3163L77.5056 38ZM72.2143 38L71.3375 38.3232L71.5628 38.9345H72.2143V38ZM63.0478 13.1336V12.1991H61.7073L62.1709 13.4569L63.0478 13.1336ZM68.0409 13.1336L68.9216 12.8208L68.7007 12.1991H68.0409V13.1336ZM73.1335 27.4672L74.02 27.1717L74.0171 27.163L74.0141 27.1543L73.1335 27.4672ZM73.9284 29.8023L73.0463 30.111L73.051 30.1245L73.0561 30.1378L73.9284 29.8023ZM74.5494 31.6903L73.6473 31.9341L73.6512 31.9488L73.6557 31.9633L74.5494 31.6903ZM74.9717 33.6776L74.0458 33.8038L75.896 33.8155L74.9717 33.6776ZM76.0399 29.7029L76.9207 30.0154L76.9214 30.0135L76.0399 29.7029ZM81.8777 13.1336V12.1991H81.2161L80.9962 12.8231L81.8777 13.1336ZM85.5691 12.8174L76.6262 37.6837L78.385 38.3163L87.3279 13.4499L85.5691 12.8174ZM77.5056 37.0655H72.2143V38.9345H77.5056V37.0655ZM73.0912 37.6768L63.9247 12.8104L62.1709 13.4569L71.3375 38.3232L73.0912 37.6768ZM63.0478 14.0682H68.0409V12.1991H63.0478V14.0682ZM67.1603 13.4465L72.2528 27.7801L74.0141 27.1543L68.9216 12.8208L67.1603 13.4465ZM72.2469 27.7627C72.546 28.66 72.8125 29.443 73.0463 30.111L74.8105 29.4936C74.5806 28.8367 74.3171 28.0629 74.02 27.1717L72.2469 27.7627ZM73.0561 30.1378C73.294 30.7563 73.4907 31.355 73.6473 31.9341L75.4516 31.4464C75.2769 30.8 75.0596 30.1401 74.8006 29.4668L73.0561 30.1378ZM73.6557 31.9633C73.8209 32.5039 73.952 33.1163 74.0458 33.8038L75.8977 33.5513C75.7927 32.7815 75.6423 32.069 75.4432 31.4172L73.6557 31.9633ZM75.896 33.8155C76.0498 32.7856 76.386 31.5222 76.9207 30.0154L75.1592 29.3904C74.6008 30.9641 74.2249 32.3504 74.0474 33.5396L75.896 33.8155ZM76.9214 30.0135L82.7591 13.4442L80.9962 12.8231L75.1585 29.3924L76.9214 30.0135ZM81.8777 14.0682H86.4485V12.1991H81.8777V14.0682ZM91.6901 14.9967L91.218 14.1902L90.7219 14.4806L90.7573 15.0543L91.6901 14.9967ZM95.7144 13.2578L95.4695 12.356L95.4666 12.3567L95.7144 13.2578ZM105.875 14.0528L105.413 14.8653L105.423 14.8709L105.875 14.0528ZM109.179 17.8038L108.304 18.1339L108.304 18.1343L109.179 17.8038ZM109.998 34.4725L109.064 34.4945L109.064 34.5059L109.998 34.4725ZM110.197 38V38.9345H111.216L111.128 37.9197L110.197 38ZM105.974 38L105.041 38.0533L105.091 38.9345H105.974V38ZM105.974 33.7273L106.907 33.7728L105.172 33.2477L105.974 33.7273ZM102.546 37.2548L102.996 38.0737L103.004 38.0693L102.546 37.2548ZM93.0564 37.4286L92.66 38.275L92.6641 38.2769L93.0564 37.4286ZM90.0257 34.8203L89.2274 35.3062L89.2316 35.313L89.2358 35.3198L90.0257 34.8203ZM89.827 27.4175L89.0164 26.9524L89.0139 26.9568L89.827 27.4175ZM92.3608 24.8588L92.8572 25.6507L92.8656 25.6453L92.3608 24.8588ZM105.477 22.8467L105.419 23.7794L106.427 23.8424L106.412 22.8322L105.477 22.8467ZM103.912 18.1516L103.251 18.8125L103.257 18.8179L103.912 18.1516ZM95.5405 17.2076L95.8282 18.0969L95.84 18.0929L95.5405 17.2076ZM91.9385 19.0211L91.0057 19.0787L91.1054 20.6938L92.4546 19.8002L91.9385 19.0211ZM105.576 26.25H106.511V25.4015L105.667 25.3198L105.576 26.25ZM96.1616 34.1992L95.7748 35.05L96.1616 34.1992ZM102.745 33.5782L102.196 32.8219L102.745 33.5782ZM92.1622 15.8033C93.4598 15.0437 94.7263 14.4988 95.9622 14.1589L95.4666 12.3567C94.0527 12.7456 92.6363 13.36 91.218 14.1902L92.1622 15.8033ZM95.9594 14.1597C97.2137 13.819 98.5633 13.6459 100.012 13.6459V11.7768C98.4135 11.7768 96.898 11.968 95.4695 12.356L95.9594 14.1597ZM100.012 13.6459C102.231 13.6459 104.015 14.0709 105.413 14.8652L106.336 13.2403C104.587 12.246 102.463 11.7768 100.012 11.7768V13.6459ZM105.423 14.8709C106.828 15.6468 107.774 16.729 108.304 18.1339L110.053 17.4737C109.358 15.6327 108.101 14.2142 106.326 13.2346L105.423 14.8709ZM108.304 18.1343C108.753 19.32 109.014 21.4717 109.014 24.7098H110.883C110.883 21.4559 110.631 19.0037 110.053 17.4734L108.304 18.1343ZM109.014 24.7098V29.5539H110.883V24.7098H109.014ZM109.014 29.5539C109.014 31.4304 109.031 33.0775 109.064 34.4945L110.933 34.4505C110.9 33.0521 110.883 31.4202 110.883 29.5539H109.014ZM109.064 34.5059C109.114 35.9064 109.181 37.099 109.266 38.0803L111.128 37.9197C111.047 36.98 110.982 35.8208 110.932 34.4391L109.064 34.5059ZM110.197 37.0655H105.974V38.9345H110.197V37.0655ZM106.907 37.9467C106.875 37.3882 106.859 36.7605 106.859 36.0624H104.99C104.99 36.7885 105.007 37.4525 105.041 38.0533L106.907 37.9467ZM106.859 36.0624C106.859 35.1957 106.875 34.433 106.907 33.7728L105.041 33.6817C105.006 34.3795 104.99 35.1735 104.99 36.0624H106.859ZM105.172 33.2477C104.276 34.7464 103.241 35.7913 102.088 36.4402L103.004 38.0693C104.5 37.2277 105.751 35.9209 106.776 34.2069L105.172 33.2477ZM102.095 36.4359C100.943 37.0697 99.4688 37.4132 97.6272 37.4132V39.2823C99.6941 39.2823 101.499 38.8972 102.996 38.0736L102.095 36.4359ZM97.6272 37.4132C96.0162 37.4132 94.6304 37.127 93.4487 36.5804L92.6641 38.2769C94.1321 38.9558 95.7935 39.2823 97.6272 39.2823V37.4132ZM93.4527 36.5823C92.2918 36.0386 91.4243 35.2834 90.8156 34.3208L89.2358 35.3198C90.0514 36.6094 91.2043 37.5932 92.66 38.275L93.4527 36.5823ZM90.824 34.3344C90.2275 33.3544 89.9169 32.2097 89.9169 30.8705H88.0478C88.0478 32.5122 88.4328 34.0008 89.2274 35.3062L90.824 34.3344ZM89.9169 30.8705C89.9169 29.6998 90.1676 28.712 90.64 27.8782L89.0139 26.9568C88.3602 28.1103 88.0478 29.4245 88.0478 30.8705H89.9169ZM90.6376 27.8826C91.1318 27.0213 91.8612 26.275 92.8572 25.6507L91.8644 24.067C90.6413 24.8338 89.6814 25.7933 89.0164 26.9524L90.6376 27.8826ZM92.8656 25.6453C93.8613 25.0063 95.1094 24.5121 96.6326 24.1824L96.2371 22.3556C94.5474 22.7214 93.0795 23.2871 91.856 24.0723L92.8656 25.6453ZM96.6326 24.1824C98.1589 23.8519 99.9451 23.6818 101.999 23.6818V21.8128C99.847 21.8128 97.9236 21.9905 96.2371 22.3556L96.6326 24.1824ZM101.999 23.6818C103.242 23.6818 104.381 23.7146 105.419 23.7794L105.535 21.9139C104.453 21.8463 103.274 21.8128 101.999 21.8128V23.6818ZM106.412 22.8322C106.377 20.573 105.824 18.7214 104.567 17.4854L103.257 18.8179C104.021 19.5691 104.511 20.8476 104.543 22.8612L106.412 22.8322ZM104.573 17.4908C103.321 16.2385 101.487 15.7017 99.2668 15.7017V17.5708C101.22 17.5708 102.483 18.0443 103.251 18.8124L104.573 17.4908ZM99.2668 15.7017C97.8212 15.7017 96.4763 15.9046 95.2411 16.3224L95.84 18.0929C96.857 17.7489 97.9963 17.5708 99.2668 17.5708V15.7017ZM95.2529 16.3185C94.0264 16.7153 92.749 17.3633 91.4224 18.2419L92.4546 19.8002C93.6784 18.9896 94.8024 18.4287 95.8282 18.0968L95.2529 16.3185ZM92.8713 18.9635L92.6228 14.9392L90.7573 15.0543L91.0057 19.0787L92.8713 18.9635ZM105.667 25.3198C104.625 25.219 103.756 25.1664 103.068 25.1664V27.0354C103.671 27.0354 104.474 27.0822 105.486 27.1802L105.667 25.3198ZM103.068 25.1664C99.9541 25.1664 97.4774 25.561 95.7471 26.4495C94.8684 26.9008 94.1564 27.4927 93.6667 28.247C93.174 29.006 92.9416 29.8756 92.9416 30.8208H94.8107C94.8107 30.1927 94.9612 29.6856 95.2345 29.2647C95.5107 28.8391 95.9477 28.4476 96.6009 28.1122C97.9344 27.4274 100.053 27.0354 103.068 27.0354V25.1664ZM92.9416 30.8208C92.9416 31.7547 93.1884 32.6131 93.7016 33.3615L95.2431 32.3045C94.9613 31.8936 94.8107 31.4106 94.8107 30.8208H92.9416ZM93.7016 33.3615C94.2081 34.1002 94.9132 34.6583 95.7748 35.05L96.5483 33.3485C95.9526 33.0777 95.5315 32.725 95.2431 32.3045L93.7016 33.3615ZM95.7748 35.05C96.6428 35.4445 97.6059 35.6306 98.6457 35.6306V33.7615C97.8307 33.7615 97.1377 33.6164 96.5483 33.3485L95.7748 35.05ZM98.6457 35.6306C100.482 35.6306 102.06 35.2296 103.294 34.3345L102.196 32.8219C101.375 33.4173 100.221 33.7615 98.6457 33.7615V35.6306ZM103.294 34.3345C104.484 33.4705 105.325 32.3063 105.815 30.8749L104.046 30.2699C103.675 31.3557 103.059 32.1954 102.196 32.8219L103.294 34.3345ZM105.815 30.8749C106.285 29.5001 106.511 27.954 106.511 26.25H104.642C104.642 27.7919 104.437 29.1273 104.046 30.2699L105.815 30.8749Z" fill="#C1C1C1"/>
</svg>
