<svg width="20" height="19" viewBox="0 0 20 19" fill="none" xmlns="http://www.w3.org/2000/svg">
<path d="M10 5.15625C7.30762 5.15625 5.11719 7.34668 5.11719 10.0391C5.11719 12.7314 7.30762 14.9219 10 14.9219C12.6924 14.9219 14.8828 12.7314 14.8828 10.0391C14.8828 7.34668 12.6924 5.15625 10 5.15625ZM10 13.3594C8.16918 13.3594 6.67969 11.8699 6.67969 10.0391C6.67969 8.20824 8.16918 6.71875 10 6.71875C11.8308 6.71875 13.3203 8.20824 13.3203 10.0391C13.3203 11.8699 11.8308 13.3594 10 13.3594Z" fill="#05BEEE"/>
<path d="M17.6562 2.8125H14.7822C14.6912 2.8125 14.6093 2.76285 14.5671 2.68254L13.772 1.01172C13.7698 1.00715 13.7676 1.00262 13.7653 0.998086C13.4575 0.382461 12.8387 0 12.1504 0H7.90531C7.21699 0 6.59816 0.382461 6.29039 0.998125C6.28809 1.00266 6.2859 1.00719 6.28371 1.01176L5.48855 2.68266C5.44637 2.76285 5.36441 2.8125 5.27344 2.8125H2.34375C1.05141 2.8125 0 3.86391 0 5.15625V15.7031C0 16.9955 1.05141 18.0469 2.34375 18.0469H17.6562C18.9486 18.0469 20 16.9955 20 15.7031V5.15625C20 3.86391 18.9486 2.8125 17.6562 2.8125ZM18.4375 15.7031C18.4375 16.1339 18.087 16.4843 17.6562 16.4843H2.34375C1.91297 16.4843 1.5625 16.1339 1.5625 15.7031V5.15625C1.5625 4.72547 1.91297 4.375 2.34375 4.375H5.27344C5.96172 4.375 6.58055 3.99258 6.88836 3.37695C6.89066 3.37242 6.89285 3.36785 6.89508 3.36328L7.69023 1.69238C7.73238 1.61215 7.81434 1.5625 7.90531 1.5625H12.1504C12.2413 1.5625 12.3233 1.61215 12.3654 1.69234L13.1606 3.36324C13.1628 3.36781 13.165 3.37238 13.1673 3.37691C13.4751 3.99254 14.0939 4.37496 14.7822 4.37496H17.6562C18.087 4.37496 18.4375 4.72543 18.4375 5.15621V15.7031Z" fill="#05BEEE"/>
<path d="M16.8751 5.93799H15.3126V7.50049H16.8751V5.93799Z" fill="#05BEEE"/>
</svg>
