<?xml version="1.0" encoding="utf-8"?>
<!-- Generator: Adobe Illustrator 16.0.0, SVG Export Plug-In . SVG Version: 6.00 Build 0)  -->
<!DOCTYPE svg PUBLIC "-//W3C//DTD SVG 1.1//EN" "http://www.w3.org/Graphics/SVG/1.1/DTD/svg11.dtd">
<svg version="1.1" id="Capa_1" xmlns="http://www.w3.org/2000/svg" xmlns:xlink="http://www.w3.org/1999/xlink" x="0px" y="0px"
	 width="18.855px" height="18.855px" viewBox="366.396 366.396 18.855 18.855"
	 enable-background="new 366.396 366.396 18.855 18.855" xml:space="preserve">
<g>
	<path fill="#FFFFFF" d="M383.266,371.356c-0.391,0.189-0.554,0.659-0.365,1.05c0.519,1.065,0.778,2.216,0.778,3.416
		c0,4.332-3.524,7.856-7.856,7.856c-4.331,0-7.854-3.524-7.854-7.856c0-4.33,3.523-7.854,7.854-7.854
		c1.796,0,3.481,0.586,4.877,1.695c0.339,0.27,0.835,0.213,1.104-0.126c0.27-0.342,0.214-0.834-0.127-1.104
		c-1.652-1.313-3.731-2.036-5.854-2.036c-5.196,0-9.427,4.229-9.427,9.427c0,5.198,4.229,9.429,9.427,9.429
		c5.198,0,9.429-4.229,9.429-9.429c0-1.438-0.314-2.818-0.937-4.101C384.127,371.33,383.656,371.168,383.266,371.356z"/>
	<path fill="#FFFFFF" d="M375.823,369.538c-0.433,0-0.785,0.352-0.785,0.785v5.498c0,0.435,0.354,0.786,0.785,0.786h3.93
		c0.434,0,0.784-0.353,0.784-0.786c0-0.433-0.352-0.784-0.784-0.784h-3.144v-4.714C376.609,369.89,376.256,369.538,375.823,369.538z
		"/>
</g>
</svg>
