<?xml version="1.0" encoding="utf-8"?>
<!-- Generator: Adobe Illustrator 16.0.0, SVG Export Plug-In . SVG Version: 6.00 Build 0)  -->
<!DOCTYPE svg PUBLIC "-//W3C//DTD SVG 1.1//EN" "http://www.w3.org/Graphics/SVG/1.1/DTD/svg11.dtd">
<svg version="1.1" id="Capa_1" xmlns="http://www.w3.org/2000/svg" xmlns:xlink="http://www.w3.org/1999/xlink" x="0px" y="0px"
	 width="43.616px" height="52.339px" viewBox="5.054 1 43.616 52.339" enable-background="new 5.054 1 43.616 52.339"
	 xml:space="preserve">
<g>
	<path fill="#3F3F3F" d="M13.232,44.615c-0.903,0-1.636-0.733-1.636-1.636v-9.813c0-0.903,0.733-1.635,1.636-1.635h2.726
		c2.405,0,4.362,1.955,4.362,4.361c0,2.405-1.957,4.361-4.362,4.361h-1.09v2.726C14.868,43.882,14.135,44.615,13.232,44.615z
		 M14.868,36.983h1.09c0.602,0,1.09-0.489,1.09-1.091c0-0.604-0.489-1.091-1.09-1.091h-1.09V36.983z"/>
	<path fill="#3F3F3F" d="M42.672,53.339H11.051c-3.308,0-5.997-2.689-5.997-5.998V6.997C5.054,3.689,7.743,1,11.051,1h31.621
		c3.308,0,5.998,2.689,5.998,5.997v40.344C48.67,50.649,45.979,53.339,42.672,53.339z M11.051,4.272
		c-1.502,0-2.726,1.223-2.726,2.725v40.344c0,1.503,1.224,2.727,2.726,2.727h31.621c1.503,0,2.726-1.224,2.726-2.727V6.997
		c0-1.502-1.223-2.725-2.726-2.725H11.051z"/>
	<path fill="#3F3F3F" d="M27.407,44.615h-3.271c-0.903,0-1.636-0.733-1.636-1.636v-9.813c0-0.903,0.733-1.635,1.636-1.635h3.271
		c2.104,0,3.816,1.712,3.816,3.816V40.8C31.223,42.904,29.51,44.615,27.407,44.615z M25.77,41.344h1.637
		c0.302,0,0.546-0.243,0.546-0.544v-5.452c0-0.301-0.244-0.546-0.546-0.546H25.77V41.344z"/>
	<path fill="#3F3F3F" d="M35.039,44.615c-0.902,0-1.636-0.733-1.636-1.636v-7.632c0-2.104,1.712-3.816,3.816-3.816h3.272
		c0.902,0,1.636,0.731,1.636,1.635c0,0.902-0.733,1.636-1.636,1.636h-3.272c-0.301,0-0.544,0.245-0.544,0.546v7.632
		C36.676,43.882,35.942,44.615,35.039,44.615z"/>
	<path fill="#3F3F3F" d="M40.492,40.254h-5.453c-0.902,0-1.636-0.733-1.636-1.636c0-0.903,0.733-1.635,1.636-1.635h5.453
		c0.902,0,1.636,0.731,1.636,1.635C42.128,39.52,41.394,40.254,40.492,40.254z"/>
</g>
</svg>
