<?xml version="1.0" encoding="utf-8"?>
<!-- Generator: Adobe Illustrator 16.0.0, SVG Export Plug-In . SVG Version: 6.00 Build 0)  -->
<!DOCTYPE svg PUBLIC "-//W3C//DTD SVG 1.1//EN" "http://www.w3.org/Graphics/SVG/1.1/DTD/svg11.dtd">
<svg version="1.1" id="Layer_1" xmlns="http://www.w3.org/2000/svg" xmlns:xlink="http://www.w3.org/1999/xlink" x="0px" y="0px"
	 width="29.515px" height="35.545px" viewBox="582.5 729.008 29.515 35.545" enable-background="new 582.5 729.008 29.515 35.545"
	 xml:space="preserve">
<title>Edificio</title>
<g>
	<path fill="#707070" d="M599.368,747.16h1.16c0.569-0.028,1.008-0.512,0.98-1.081c-0.026-0.531-0.449-0.954-0.98-0.98h-1.16
		c-0.569,0.028-1.008,0.512-0.979,1.081C598.415,746.71,598.838,747.134,599.368,747.16z"/>
	<path fill="#707070" d="M599.368,754.897h1.16c0.569,0.028,1.054-0.41,1.082-0.98c0.027-0.568-0.411-1.053-0.98-1.081
		c-0.033-0.001-0.067-0.001-0.102,0h-1.16c-0.569,0.028-1.008,0.513-0.979,1.081C598.415,754.447,598.838,754.871,599.368,754.897z"
		/>
	<path fill="#707070" d="M599.368,751.028h1.16c0.569-0.028,1.008-0.512,0.98-1.081c-0.026-0.53-0.449-0.954-0.98-0.98h-1.16
		c-0.569,0.028-1.008,0.513-0.979,1.082C598.415,750.578,598.838,751.002,599.368,751.028z"/>
	<path fill="#707070" d="M599.368,743.29h1.16c0.569-0.027,1.008-0.512,0.98-1.08c-0.026-0.531-0.449-0.954-0.98-0.98h-1.16
		c-0.569,0.027-1.008,0.512-0.979,1.081C598.415,742.842,598.838,743.265,599.368,743.29z"/>
	<path fill="#707070" d="M594.402,748.966h-1.159c-0.569,0.027-1.009,0.512-0.98,1.08c0.026,0.53,0.449,0.954,0.98,0.98h1.159
		c0.569-0.027,1.008-0.512,0.98-1.081C595.355,749.416,594.934,748.991,594.402,748.966L594.402,748.966z"/>
	<path fill="#707070" d="M594.402,745.097h-1.159c-0.569,0.027-1.009,0.512-0.98,1.081c0.026,0.529,0.449,0.953,0.98,0.979h1.159
		c0.569-0.027,1.008-0.512,0.98-1.081C595.355,745.546,594.934,745.122,594.402,745.097z"/>
	<path fill="#707070" d="M594.402,741.228h-1.159c-0.569,0.028-1.009,0.513-0.98,1.081c0.026,0.53,0.449,0.954,0.98,0.98h1.159
		c0.569-0.027,1.008-0.513,0.98-1.081C595.355,741.678,594.934,741.254,594.402,741.228z"/>
	<path fill="#707070" d="M594.402,752.835h-1.159c-0.569,0.027-1.009,0.512-0.98,1.08c0.026,0.53,0.449,0.954,0.98,0.98h1.159
		c0.569,0.028,1.054-0.41,1.081-0.98c0.029-0.568-0.41-1.053-0.979-1.08C594.471,752.833,594.437,752.833,594.402,752.835z"/>
	<path fill="#707070" d="M609.499,763.401c-0.193-0.193-0.456-0.302-0.729-0.301h-2.062v-25.278c0-0.569-0.461-1.031-1.031-1.031
		h-0.001h-7.739v-2.579c0-0.57-0.462-1.032-1.031-1.032h-7.158c-0.568,0.001-1.029,0.463-1.029,1.032v2.579h-0.839
		c-0.57-0.001-1.033,0.459-1.034,1.028c0,0.001,0,0.002,0,0.003v25.278h-2.062c-0.57,0-1.032,0.461-1.032,1.031
		c0,0.073,0.008,0.146,0.024,0.218c0.015,0.07,0.036,0.139,0.066,0.203h25.869c0.029-0.064,0.053-0.133,0.067-0.203
		c0.015-0.071,0.023-0.145,0.023-0.218C609.803,763.856,609.693,763.594,609.499,763.401z M590.301,735.586v-1.206h6.038v2.411
		h-6.038V735.586z M599.296,763.101h-4.821v-4.036h4.821V763.101z M605.209,750.732v12.368h-4.182v-4.011h0.452
		c0.568-0.027,1.007-0.512,0.98-1.081c-0.027-0.529-0.45-0.954-0.98-0.979h-9.156c-0.569-0.029-1.054,0.409-1.082,0.979
		c-0.028,0.569,0.411,1.054,0.979,1.081c0.035,0.002,0.068,0.002,0.103,0h0.452v4.011h-4.432v-24.743h16.865V750.732z"/>
</g>
</svg>
