<?xml version="1.0" encoding="utf-8"?>
<!-- Generator: Adobe Illustrator 16.0.0, SVG Export Plug-In . SVG Version: 6.00 Build 0)  -->
<!DOCTYPE svg PUBLIC "-//W3C//DTD SVG 1.1//EN" "http://www.w3.org/Graphics/SVG/1.1/DTD/svg11.dtd">
<svg version="1.1" id="Capa_1" xmlns="http://www.w3.org/2000/svg" xmlns:xlink="http://www.w3.org/1999/xlink" x="0px" y="0px"
	 width="37px" height="37px" viewBox="0 0 37 37" enable-background="new 0 0 37 37" xml:space="preserve">
<circle fill="#353C65" cx="18.5" cy="18.5" r="18"/>
<g>
	<defs>
		<rect id="SVGID_1_" x="8.998" y="7.999" width="20" height="20"/>
	</defs>
	<clipPath id="SVGID_2_">
		<use xlink:href="#SVGID_1_"  overflow="visible"/>
	</clipPath>
	<g clip-path="url(#SVGID_2_)">
		<path fill="#FFFFFF" d="M24.538,9.672c-2.103-1.397-4.625-1.945-7.114-1.546c-0.043,0-0.087,0.005-0.13,0.013
			c-2.631,0.456-4.927,1.91-6.466,4.093c-1.537,2.183-2.133,4.834-1.677,7.466c0.076,0.434,0.182,0.871,0.315,1.296
			c0.55,1.789,0.415,3.706-0.381,5.397c-0.14,0.293-0.094,0.642,0.115,0.891c0.21,0.25,0.541,0.353,0.858,0.268l3.734-1.02
			c1.582,0.969,3.367,1.469,5.19,1.469c0.663,0,1.331-0.066,1.993-0.2c2.619-0.526,4.875-2.042,6.354-4.266
			C30.38,18.942,29.128,12.726,24.538,9.672L24.538,9.672z M25.941,22.612c-1.232,1.853-3.113,3.115-5.295,3.554
			c-2.179,0.44-4.401,0.003-6.255-1.229c-0.139-0.093-0.3-0.141-0.462-0.141c-0.073,0-0.147,0.01-0.22,0.03l-2.543,0.694
			c0.43-1.638,0.398-3.373-0.109-5.021c-0.112-0.36-0.201-0.726-0.264-1.087c-0.38-2.193,0.117-4.402,1.398-6.222
			c1.26-1.788,3.13-2.989,5.277-3.39c0.04-0.001,0.08-0.005,0.12-0.012c2.105-0.364,4.247,0.088,6.028,1.272
			c3.825,2.544,4.868,7.725,2.325,11.549V22.612z"/>
		<path fill="#FFFFFF" d="M19.003,12.917c-0.46,0-0.833,0.372-0.833,0.833v4.999c0,0.46,0.372,0.833,0.833,0.833
			c0.46,0,0.833-0.373,0.833-0.833v-5C19.836,13.289,19.464,12.916,19.003,12.917L19.003,12.917z M19.768,21.847
			c-0.041-0.107-0.1-0.199-0.174-0.274c-0.041-0.033-0.084-0.075-0.134-0.101c-0.041-0.033-0.091-0.057-0.141-0.074
			c-0.05-0.025-0.1-0.041-0.159-0.051c-0.265-0.058-0.558,0.034-0.749,0.226c-0.075,0.075-0.133,0.167-0.174,0.274
			c-0.042,0.101-0.067,0.209-0.067,0.317s0.025,0.216,0.067,0.315c0.041,0.101,0.1,0.192,0.174,0.275
			c0.084,0.075,0.175,0.135,0.275,0.176s0.209,0.066,0.317,0.066s0.216-0.025,0.316-0.066c0.1-0.041,0.191-0.101,0.275-0.176
			c0.075-0.083,0.133-0.175,0.176-0.275c0.041-0.1,0.065-0.207,0.065-0.315s-0.024-0.217-0.065-0.317H19.768z"/>
	</g>
</g>
</svg>
