<?xml version="1.0" encoding="utf-8"?>
<!-- Generator: Adobe Illustrator 16.0.0, SVG Export Plug-In . SVG Version: 6.00 Build 0)  -->
<!DOCTYPE svg PUBLIC "-//W3C//DTD SVG 1.1//EN" "http://www.w3.org/Graphics/SVG/1.1/DTD/svg11.dtd">
<svg version="1.1" id="Capa_1" xmlns="http://www.w3.org/2000/svg" xmlns:xlink="http://www.w3.org/1999/xlink" x="0px" y="0px"
	 width="38.14px" height="38.14px" viewBox="230.14 363.197 38.14 38.14" enable-background="new 230.14 363.197 38.14 38.14"
	 xml:space="preserve">
<g>
	<g>
		<g>
			<path fill="#3A3A3A" d="M266.372,380.36h-0.025c-0.241-7.048-4.787-13.223-11.445-15.545c-0.143-0.928-0.938-1.614-1.878-1.618
				h-7.628c-0.939,0.004-1.735,0.69-1.878,1.618c-6.658,2.322-11.204,8.497-11.445,15.545h-0.025c-1.054,0-1.907,0.854-1.907,1.907
				v1.271c0,1.054,0.854,1.907,1.907,1.907h34.325c1.054,0,1.907-0.854,1.907-1.907v-1.271
				C268.28,381.214,267.426,380.36,266.372,380.36z M243.489,366.179v11.003c0,0.352,0.285,0.636,0.636,0.636
				c0.352,0,0.636-0.284,0.636-0.636v-12.077c0-0.352,0.285-0.636,0.636-0.636h3.179v13.984c0,0.351,0.284,0.636,0.636,0.636
				c0.351,0,0.635-0.285,0.635-0.636v-13.984h3.179c0.351,0,0.636,0.284,0.636,0.636v12.077c0,0.352,0.284,0.636,0.636,0.636
				c0.351,0,0.636-0.284,0.636-0.636v-11.003c5.917,2.268,9.91,7.849,10.145,14.182h-31.731
				C233.579,374.027,237.572,368.446,243.489,366.179z M267.008,383.538c0,0.352-0.284,0.636-0.636,0.636h-34.325
				c-0.352,0-0.636-0.284-0.636-0.636v-1.271c0-0.352,0.284-0.636,0.636-0.636h34.325c0.352,0,0.636,0.284,0.636,0.636V383.538z"/>
			<path fill="#3A3A3A" d="M246.031,391.166h-8.264c-1.054,0-1.907,0.854-1.907,1.907v2.543c0,0.351,0.285,0.636,0.636,0.636
				c0.352,0,0.636-0.285,0.636-0.636v-2.543c0-0.351,0.285-0.636,0.636-0.636h8.264c0.351,0,0.636-0.284,0.636-0.636
				C246.667,391.451,246.382,391.166,246.031,391.166z"/>
			<path fill="#3A3A3A" d="M267.644,391.166h-2.606c-0.304-1.479-1.604-2.54-3.114-2.542h-25.427
				c-1.754,0.002-3.176,1.424-3.178,3.178h-2.543c-0.351,0-0.636,0.285-0.636,0.636v5.086c0,0.351,0.285,0.635,0.636,0.635h2.733
				c0.563,1.883,2.294,3.175,4.259,3.179h3.814c2.908-0.008,5.601-1.537,7.099-4.03c0.183-0.293,0.567-0.382,0.859-0.199
				c0.08,0.051,0.148,0.118,0.198,0.199c1.498,2.493,4.19,4.022,7.099,4.03h3.814c2.21-0.003,4.083-1.627,4.398-3.813h2.594
				c0.352,0,0.636-0.285,0.636-0.636v-5.086C268.28,391.451,267.995,391.166,267.644,391.166z M233.319,396.888h-1.907v-1.907h1.907
				V396.888z M233.319,393.709h-1.907v-0.636h1.907V393.709z M263.83,396.888c-0.003,1.754-1.424,3.176-3.179,3.178h-3.814
				c-2.461-0.007-4.74-1.301-6.008-3.411c-0.541-0.896-1.706-1.183-2.602-0.641c-0.262,0.158-0.481,0.378-0.641,0.641
				c-1.267,2.109-3.545,3.403-6.005,3.411h-3.814c-1.755-0.002-3.176-1.424-3.179-3.178v-5.086c0-1.053,0.854-1.907,1.907-1.907
				h25.427c1.053,0,1.907,0.854,1.907,1.907V396.888z M267.008,396.252h-1.907v-1.907h1.907V396.252z M267.008,393.073h-1.907
				v-0.636h1.907V393.073z"/>
			<path fill="#3A3A3A" d="M249.845,391.166h-1.271c-0.352,0-0.636,0.285-0.636,0.636c0,0.352,0.284,0.636,0.636,0.636h1.271
				c0.352,0,0.636-0.284,0.636-0.636C250.481,391.451,250.197,391.166,249.845,391.166z"/>
		</g>
	</g>
</g>
</svg>
