<?xml version="1.0" encoding="utf-8"?>
<!-- Generator: Adobe Illustrator 16.0.0, SVG Export Plug-In . SVG Version: 6.00 Build 0)  -->
<!DOCTYPE svg PUBLIC "-//W3C//DTD SVG 1.1//EN" "http://www.w3.org/Graphics/SVG/1.1/DTD/svg11.dtd">
<svg version="1.1" id="Capa_1" xmlns="http://www.w3.org/2000/svg" xmlns:xlink="http://www.w3.org/1999/xlink" x="0px" y="0px"
	 width="24.52px" height="24.605px" viewBox="344.293 384.695 24.52 24.605" enable-background="new 344.293 384.695 24.52 24.605"
	 xml:space="preserve">
<title>support</title>
<g>
	<path fill="#0D2F9B" d="M356.51,387.822c0.267,0,0.483-0.216,0.483-0.483v-2.159c0-0.268-0.217-0.484-0.483-0.484
		c-0.268,0-0.484,0.216-0.484,0.484v2.159C356.025,387.605,356.242,387.822,356.51,387.822L356.51,387.822z"/>
	<path fill="#0D2F9B" d="M368.34,401.322l-0.855-0.853c-0.509-0.505-1.288-0.616-1.918-0.273l-1.61-1.609l0.078-0.078
		c0.652-0.656,0.652-1.716,0-2.372c-0.23-0.231-0.523-0.39-0.843-0.456c0.045-0.153,0.067-0.312,0.067-0.471
		c0-0.794-0.557-1.479-1.334-1.641c0.045-0.153,0.067-0.312,0.067-0.471c0-0.793-0.557-1.479-1.334-1.641
		c0.262-0.887-0.245-1.818-1.132-2.08c-0.213-0.063-0.437-0.083-0.658-0.059l-3.192-0.604c-0.486-0.092-1.094-0.153-1.479,0.197
		c-0.025,0.024-0.05,0.049-0.073,0.075c-0.614-0.225-1.303-0.073-1.766,0.389c-0.315,0.314-0.492,0.741-0.49,1.187
		c0,0.159,0.022,0.318,0.066,0.471c-0.907,0.191-1.488,1.082-1.297,1.989c0.009,0.042,0.019,0.084,0.031,0.125
		c-0.907,0.19-1.488,1.08-1.298,1.987c0.046,0.216,0.133,0.42,0.257,0.603c-0.876,0.299-1.345,1.252-1.046,2.129
		c0.083,0.243,0.221,0.464,0.402,0.645l0.078,0.078l-1.611,1.606c-0.616-0.29-1.349-0.163-1.831,0.316l-0.855,0.854
		c-0.629,0.632-0.629,1.652,0,2.283l1.067,1.066c0.188,0.191,0.493,0.195,0.685,0.009c0.191-0.188,0.195-0.493,0.009-0.685
		c-0.003-0.003-0.006-0.006-0.009-0.009l-1.065-1.066c-0.25-0.253-0.25-0.66,0-0.913l0.855-0.853
		c0.211-0.209,0.535-0.249,0.79-0.097c0.048,0.075,0.116,0.135,0.196,0.173l4.906,4.896c0.048,0.104,0.131,0.188,0.233,0.235
		c0.225,0.256,0.213,0.643-0.026,0.884l-0.854,0.856c-0.254,0.251-0.662,0.251-0.916,0l-1.067-1.068
		c-0.183-0.194-0.489-0.203-0.684-0.021c-0.194,0.184-0.204,0.489-0.021,0.685c0.006,0.007,0.013,0.014,0.02,0.02l1.069,1.069
		c0.632,0.626,1.65,0.626,2.282,0l0.856-0.855c0.531-0.533,0.625-1.361,0.227-1.999l1.813-1.812l0.006-0.006
		c0.208-0.215,0.786-0.175,1.346-0.136c0.397,0.028,0.84,0.059,1.273,0.009l1.985,1.983c-0.343,0.629-0.23,1.408,0.275,1.916
		l0.854,0.854c0.632,0.628,1.651,0.628,2.283,0l5.185-5.181C368.97,402.975,368.97,401.953,368.34,401.322L368.34,401.322z
		 M355.495,389.666l2.1,0.397l-1.257,1.256c-0.277-0.143-0.531-0.328-0.753-0.547c-0.4-0.385-0.687-0.824-0.713-1.1l0,0
		c-0.001-0.016-0.001-0.032,0-0.048c0.063-0.015,0.231-0.033,0.625,0.042H355.495z M353.044,390.061
		c0.242-0.241,0.62-0.277,0.903-0.086c0.154,0.658,0.717,1.256,0.971,1.497c0.188,0.179,0.788,0.716,1.395,0.865
		c0.224,0.322,0.146,0.765-0.177,0.989c-0.283,0.197-0.667,0.163-0.91-0.082l0,0l-2.182-2.18
		C352.77,390.786,352.77,390.338,353.044,390.061z M351.78,392.172c0.278-0.276,0.727-0.276,1.005,0l1.758,1.754
		c0.277,0.278,0.276,0.729-0.002,1.007c-0.279,0.277-0.729,0.276-1.007-0.002l0,0l0,0l-1.333-1.333l-0.007-0.006l-0.417-0.417
		c-0.277-0.277-0.277-0.726,0-1.003L351.78,392.172z M350.513,394.284c0.277-0.273,0.723-0.275,1.002-0.003l1.337,1.337
		c0.277,0.276,0.277,0.725,0.001,1.001c-0.134,0.134-0.314,0.208-0.504,0.208c-0.189,0.001-0.371-0.073-0.506-0.206l-0.484-0.485
		l0,0l-0.849-0.847c-0.275-0.278-0.275-0.727,0-1.004H350.513z M349.67,396.82c0.279-0.277,0.73-0.277,1.009,0l0.485,0.485
		c0.277,0.278,0.275,0.729-0.003,1.006c-0.279,0.276-0.729,0.275-1.006-0.004l-0.063-0.061v-0.003l-0.003-0.002l-0.42-0.418
		C349.394,397.547,349.394,397.098,349.67,396.82L349.67,396.82z M359.531,402.32c-0.188-0.188-0.495-0.188-0.684,0l-0.433,0.43
		c-0.409,0.409-1.15,0.358-1.867,0.309c-0.778-0.055-1.581-0.11-2.104,0.427l-1.783,1.777l-4.457-4.45l1.578-1.575
		c0.79,0.484,1.823,0.236,2.307-0.554c0.162-0.265,0.248-0.567,0.247-0.878c0-0.003,0-0.008,0-0.012h0.013
		c0.925,0.002,1.676-0.746,1.679-1.671c0-0.001,0-0.003,0-0.005c0-0.004,0-0.009,0-0.013h0.013c0.923,0.003,1.675-0.743,1.678-1.666
		c0-0.007,0-0.015,0-0.022h0.013c0.928-0.001,1.679-0.754,1.677-1.681c0-0.307-0.084-0.608-0.244-0.871l1.383-1.382
		c0.1-0.098,0.226-0.165,0.363-0.192c0.014-0.001,0.028-0.003,0.043-0.006c0.388-0.055,0.746,0.216,0.801,0.604
		c0.03,0.219-0.043,0.44-0.198,0.598l-0.422,0.419l-0.004,0.004l-0.485,0.484c-0.187,0.191-0.183,0.498,0.008,0.685
		c0.188,0.183,0.488,0.184,0.676,0l0.423-0.422l0,0l0.064-0.064c0.278-0.275,0.728-0.274,1.004,0.003s0.276,0.726,0,1.002
		l-0.424,0.425l0,0l-0.484,0.483c-0.199,0.179-0.215,0.484-0.036,0.683s0.484,0.215,0.684,0.036c0.011-0.01,0.022-0.021,0.032-0.032
		l0.487-0.485c0.277-0.277,0.728-0.278,1.005,0c0.277,0.277,0.277,0.727,0.001,1.004l-0.845,0.845
		c-0.191,0.187-0.195,0.492-0.009,0.684s0.493,0.195,0.685,0.009c0.003-0.003,0.006-0.006,0.009-0.009l0.413-0.414l0.008-0.006
		c0.277-0.278,0.727-0.278,1.004-0.001c0.278,0.276,0.278,0.727,0.002,1.004l-0.421,0.42l0,0l-0.668,0.667
		c-0.189,0.189-0.189,0.496-0.001,0.686s0.495,0.189,0.685,0.001l0.327-0.326l1.565,1.563l-4.457,4.452l-1.598-1.596
		c0.114-0.073,0.222-0.158,0.318-0.254l0.432-0.433C359.721,402.815,359.721,402.51,359.531,402.32
		C359.532,402.32,359.532,402.32,359.531,402.32L359.531,402.32z M367.657,402.92l-5.188,5.182c-0.254,0.249-0.66,0.249-0.913,0
		l-0.855-0.854c-0.251-0.253-0.251-0.661,0-0.913l5.186-5.181c0.253-0.249,0.66-0.249,0.913,0l0.854,0.853
		c0.251,0.253,0.251,0.66,0,0.913L367.657,402.92z"/>
	<path fill="#0D2F9B" d="M350.083,387.414c0.189,0.189,0.496,0.188,0.685,0c0.188-0.189,0.188-0.496-0.001-0.685l0,0l-1.764-1.76
		c-0.191-0.187-0.497-0.183-0.684,0.009c-0.184,0.188-0.184,0.488,0,0.676L350.083,387.414z"/>
	<path fill="#0D2F9B" d="M362.594,387.555c0.129,0,0.252-0.051,0.342-0.142l1.763-1.76c0.189-0.189,0.189-0.496,0-0.685
		c-0.188-0.189-0.495-0.189-0.685,0l-1.762,1.76c-0.189,0.189-0.189,0.495,0,0.684C362.343,387.504,362.466,387.555,362.594,387.555
		z"/>
	<path fill="#0D2F9B" d="M347.269,405.513c-0.188,0.19-0.185,0.497,0.006,0.685l0,0c0.191,0.187,0.498,0.184,0.685-0.008
		s0.183-0.498-0.009-0.685C347.76,405.318,347.454,405.322,347.269,405.513L347.269,405.513z"/>
	<path fill="#0D2F9B" d="M360.715,401.624c0.267-0.001,0.483-0.218,0.482-0.484c0-0.268-0.217-0.484-0.484-0.483
		c-0.075,0-0.149,0.018-0.216,0.051h-0.003c-0.237,0.124-0.329,0.416-0.206,0.653c0.083,0.159,0.247,0.259,0.427,0.26V401.624z"/>
</g>
</svg>
