<?xml version="1.0" encoding="utf-8"?>
<!-- Generator: Adobe Illustrator 16.0.0, SVG Export Plug-In . SVG Version: 6.00 Build 0)  -->
<!DOCTYPE svg PUBLIC "-//W3C//DTD SVG 1.1//EN" "http://www.w3.org/Graphics/SVG/1.1/DTD/svg11.dtd">
<svg version="1.1" id="Capa_1" xmlns="http://www.w3.org/2000/svg" xmlns:xlink="http://www.w3.org/1999/xlink" x="0px" y="0px"
	 width="73.854px" height="63.779px" viewBox="43.073 48.11 73.854 63.779" enable-background="new 43.073 48.11 73.854 63.779"
	 xml:space="preserve">
<title>visitante</title>
<title>bag</title>
<g>
	<path fill="#8C8C8C" d="M113.567,83.357c-1.01,0-1.68,0.673-1.68,1.679v21.818c0,1.011-0.67,1.681-1.68,1.681H49.784
		c-1.01,0-1.678-0.672-1.678-1.681V85.036c0-1.01-0.674-1.679-1.682-1.679s-1.678,0.673-1.678,1.679v21.818
		c0,2.854,2.182,5.035,5.035,5.035h60.424c2.855,0,5.035-2.183,5.035-5.035V85.036C115.245,84.03,114.573,83.357,113.567,83.357z"/>
	<path fill="#8C8C8C" d="M111.89,59.858H48.11c-2.854,0-5.037,2.184-5.037,5.034v10.743c0.016,2.317,1.607,4.325,3.859,4.867
		l26.354,5.875v5.37c0,1.01,0.672,1.679,1.678,1.679h10.072c1.01,0,1.678-0.673,1.678-1.679v-5.37l26.354-5.875
		c2.252-0.542,3.846-2.551,3.859-4.868V64.893C116.925,62.042,114.741,59.858,111.89,59.858z M83.354,90.072h-6.713v-6.715h6.713
		V90.072z M113.567,75.637c0,0.84-0.502,1.514-1.344,1.681L86.71,83.032v-1.344c0-1.011-0.672-1.68-1.678-1.68H74.96
		c-1.01,0-1.678,0.672-1.678,1.68v1.344l-25.514-5.715c-0.84-0.167-1.344-0.841-1.344-1.68V64.896c0-1.011,0.672-1.679,1.682-1.679
		h63.779c1.01,0,1.68,0.671,1.68,1.679L113.567,75.637L113.567,75.637z"/>
	<path fill="#8C8C8C" d="M88.392,48.11H71.608c-2.859,0-5.035,2.178-5.035,5.034v1.68c0,1.01,0.67,1.679,1.678,1.679
		c1.006,0,1.68-0.673,1.68-1.679v-1.68c0-1.01,0.672-1.68,1.68-1.68h16.783c1.01,0,1.68,0.672,1.68,1.68v1.68
		c0,1.01,0.67,1.679,1.678,1.679s1.68-0.673,1.68-1.679v-1.68C93.427,50.288,91.249,48.11,88.392,48.11z"/>
</g>
</svg>
