<?xml version="1.0" encoding="utf-8"?>
<!-- Generator: Adobe Illustrator 16.0.0, SVG Export Plug-In . SVG Version: 6.00 Build 0)  -->
<!DOCTYPE svg PUBLIC "-//W3C//DTD SVG 1.1//EN" "http://www.w3.org/Graphics/SVG/1.1/DTD/svg11.dtd">
<svg version="1.1" id="Capa_1" xmlns="http://www.w3.org/2000/svg" xmlns:xlink="http://www.w3.org/1999/xlink" x="0px" y="0px"
	 width="28.682px" height="44.5px" viewBox="392.319 467.5 28.682 44.5" enable-background="new 392.319 467.5 28.682 44.5"
	 xml:space="preserve">
<g>
	<path fill="#6D6D6D" d="M402.748,499.188V477.93h-2.607v21.258c-1.518,0.538-2.607,1.987-2.607,3.687
		c0,2.156,1.755,3.911,3.911,3.911s3.911-1.755,3.911-3.911C405.356,501.175,404.266,499.726,402.748,499.188L402.748,499.188z
		 M401.445,504.178c-0.719,0-1.304-0.585-1.304-1.304s0.585-1.304,1.304-1.304s1.304,0.585,1.304,1.304
		S402.163,504.178,401.445,504.178z"/>
	<path fill="#6D6D6D" d="M401.445,467.5c-3.595,0-6.519,2.924-6.519,6.519v22.509c-1.664,1.705-2.607,3.986-2.607,6.347
		c0,5.032,4.094,9.126,9.126,9.126s9.126-4.094,9.126-9.126c0-2.36-0.943-4.642-2.607-6.347v-22.509
		C407.963,470.424,405.039,467.5,401.445,467.5z M401.445,509.393c-3.595,0-6.519-2.924-6.519-6.519
		c0-3.347,2.458-5.019,2.607-5.212v-23.644c0-2.156,1.755-3.911,3.911-3.911s3.911,1.755,3.911,3.911v23.644
		c0.153,0.198,2.607,1.845,2.607,5.212C407.963,506.469,405.039,509.393,401.445,509.393z"/>
	<path fill="#6D6D6D" d="M410.571,470.194H421v2.607h-10.43V470.194z"/>
	<path fill="#6D6D6D" d="M410.571,480.624H421v2.607h-10.43V480.624z"/>
	<path fill="#6D6D6D" d="M410.571,491.054H421v2.607h-10.43V491.054z"/>
	<path fill="#6D6D6D" d="M410.571,485.839h5.215v2.607h-5.215V485.839z"/>
	<path fill="#6D6D6D" d="M410.571,475.409h5.215v2.607h-5.215V475.409z"/>
</g>
</svg>
