<?xml version="1.0" encoding="utf-8"?>
<!-- Generator: Adobe Illustrator 16.0.0, SVG Export Plug-In . SVG Version: 6.00 Build 0)  -->
<!DOCTYPE svg PUBLIC "-//W3C//DTD SVG 1.1//EN" "http://www.w3.org/Graphics/SVG/1.1/DTD/svg11.dtd">
<svg version="1.1" id="Capa_1" xmlns="http://www.w3.org/2000/svg" xmlns:xlink="http://www.w3.org/1999/xlink" x="0px" y="0px"
	 width="86.616px" height="52.657px" viewBox="0 0.001 86.616 52.657" enable-background="new 0 0.001 86.616 52.657"
	 xml:space="preserve">
<g>
	<path fill="#ECEFF1" d="M54.411,45.639H29.838c-0.968,0-1.756-0.788-1.756-1.756c0-0.97,0-34.135,0-35.104
		c0-0.969,0.788-1.755,1.756-1.755h24.573c0.968,0,1.755,0.786,1.755,1.755v35.104C56.166,44.851,55.379,45.639,54.411,45.639z"/>
	<g>
		<path fill="#388E3C" d="M36.858,17.555h-7.021c-0.97,0-1.758-0.787-1.758-1.757c0-0.969,0.788-1.755,1.758-1.755h7.021
			c0.97,0,1.755,0.786,1.755,1.755C38.613,16.768,37.826,17.555,36.858,17.555z"/>
		<path fill="#388E3C" d="M36.858,24.576h-7.021c-0.97,0-1.758-0.788-1.758-1.756c0-0.969,0.788-1.756,1.758-1.756h7.021
			c0.97,0,1.755,0.787,1.755,1.756C38.613,23.789,37.826,24.576,36.858,24.576z"/>
		<path fill="#388E3C" d="M36.858,31.596h-7.021c-0.97,0-1.758-0.787-1.758-1.756s0.788-1.756,1.758-1.756h7.021
			c0.97,0,1.755,0.787,1.755,1.756S37.826,31.596,36.858,31.596z"/>
		<path fill="#388E3C" d="M36.858,38.616h-7.021c-0.97,0-1.758-0.786-1.758-1.755c0-0.971,0.788-1.757,1.758-1.757h7.021
			c0.97,0,1.755,0.786,1.755,1.757C38.613,37.83,37.826,38.616,36.858,38.616z"/>
		<path fill="#388E3C" d="M47.388,17.555h-3.51c-0.969,0-1.757-0.787-1.757-1.757c0-0.969,0.788-1.755,1.757-1.755h3.51
			c0.97,0,1.757,0.786,1.757,1.755C49.145,16.768,48.358,17.555,47.388,17.555z"/>
		<path fill="#388E3C" d="M47.388,24.576h-3.51c-0.969,0-1.757-0.788-1.757-1.756c0-0.969,0.788-1.756,1.757-1.756h3.51
			c0.97,0,1.757,0.787,1.757,1.756C49.145,23.789,48.358,24.576,47.388,24.576z"/>
		<path fill="#388E3C" d="M47.388,31.596h-3.51c-0.969,0-1.757-0.787-1.757-1.756s0.788-1.756,1.757-1.756h3.51
			c0.97,0,1.757,0.787,1.757,1.756S48.358,31.596,47.388,31.596z"/>
		<path fill="#388E3C" d="M47.388,38.616h-3.51c-0.969,0-1.757-0.786-1.757-1.755c0-0.971,0.788-1.757,1.757-1.757h3.51
			c0.97,0,1.757,0.786,1.757,1.757C49.145,37.83,48.358,38.616,47.388,38.616z"/>
	</g>
	<path fill="#2E7D32" d="M30.957,0.406c-0.398-0.333-0.938-0.477-1.441-0.372L1.432,5.301C0.601,5.455,0,6.178,0,7.024v38.612
		c0,0.845,0.601,1.57,1.432,1.724l28.083,5.267c0.105,0.021,0.213,0.031,0.322,0.031c0.407,0,0.805-0.141,1.119-0.403
		c0.403-0.334,0.636-0.833,0.636-1.352V1.758C31.593,1.236,31.36,0.74,30.957,0.406z"/>
	<path fill="#FAFAFA" d="M24.136,32.197l-5.55-6.343l5.613-7.217c0.597-0.765,0.456-1.867-0.306-2.463
		c-0.761-0.598-1.864-0.456-2.464,0.304l-5.198,6.683l-4.381-5.005c-0.642-0.737-1.751-0.803-2.474-0.166
		c-0.73,0.64-0.804,1.75-0.165,2.476l4.827,5.519l-4.893,6.291c-0.596,0.765-0.457,1.866,0.305,2.464
		c0.323,0.25,0.707,0.367,1.081,0.367c0.522,0,1.039-0.231,1.387-0.675l4.476-5.758l5.104,5.83c0.346,0.4,0.832,0.604,1.318,0.604
		c0.411,0,0.821-0.145,1.156-0.435C24.703,34.032,24.775,32.924,24.136,32.197z"/>
</g>
<g>
	<g>
		<path fill="#FFFFFF" d="M86.073,31.393l-1.11-1.111c-0.349-0.348-0.814-0.542-1.312-0.542c-0.496,0-1.005,0.194-1.354,0.542
			l-7.18,7.138V14.743c0-1.022-0.747-1.855-1.77-1.855h-1.572c-1.021,0-1.956,0.833-1.956,1.855v22.758l-7.166-7.22
			c-0.349-0.348-0.789-0.542-1.285-0.542c-0.497,0-0.95,0.194-1.299,0.542l-1.104,1.111c-0.723,0.724-0.72,1.899,0.003,2.623
			l12.237,12.235c0.349,0.349,0.816,0.541,1.316,0.541h0.005c0.497,0,0.963-0.192,1.312-0.541l12.234-12.235
			C86.797,33.292,86.797,32.116,86.073,31.393z"/>
	</g>
</g>
</svg>
