<svg xmlns="http://www.w3.org/2000/svg" width="137" height="48" fill="none" viewBox="0 0 137 48">
    <path fill="#34559C" d="M73.223 15.411h-8.269V37.22H61.63V15.411h-8.201v-2.936h19.795v2.936z"/>
    <path fill="#34559C" fill-rule="evenodd" d="M90.5 37.219h3.757l-10.26-24.744H80.41l-9.66 24.744h3.518l2.78-7.528h10.5L90.5 37.22zm-7.447-19.25c.264.725 1.425 3.767 3.483 9.122h-8.545l2.815-7.41c.537-1.417.966-2.958 1.287-4.624h.085c.32 1.215.612 2.186.876 2.911z" clip-rule="evenodd"/>
    <path fill="#34559C" d="M108.883 20.272c-.135-1.6-.706-2.802-1.711-3.608-1.006-.805-2.447-1.208-4.322-1.208-1.695 0-3.073.32-4.135.96-1.062.64-1.594 1.571-1.594 2.794 0 1.086.41 1.894 1.23 2.425.818.531 2.386 1.06 4.702 1.584 2.056.458 3.734.927 5.034 1.406 1.298.48 2.412 1.226 3.338 2.237.927 1.011 1.39 2.368 1.39 4.07 0 2.16-.85 3.954-2.551 5.382-1.701 1.428-3.918 2.142-6.652 2.142-3.491 0-6.105-.788-7.839-2.365-1.734-1.576-2.652-3.621-2.754-6.135l3.119-.274c.147 2.011.915 3.476 2.305 4.396 1.39.92 3.068 1.38 5.034 1.38 1.841 0 3.33-.383 4.465-1.149 1.136-.765 1.704-1.805 1.704-3.119 0-1.371-.593-2.37-1.78-3-1.187-.627-3.177-1.248-5.974-1.859-2.796-.61-4.81-1.47-6.043-2.58-1.231-1.108-1.847-2.547-1.847-4.318 0-2.011.78-3.674 2.34-4.987 1.558-1.314 3.682-1.971 6.372-1.971 2.756 0 4.974.655 6.652 1.963s2.568 3.167 2.669 5.577l-3.152.257z"/>
    <path fill="#34559C" fill-rule="evenodd" d="M132.564 37.219h3.758L126.06 12.475h-3.585l-9.661 24.744h3.518l2.78-7.528h10.501l2.951 7.528zm-7.447-19.25c.263.725 1.424 3.767 3.483 9.122h-8.545l2.814-7.41c.538-1.417.967-2.958 1.287-4.624h.086c.32 1.215.612 2.186.875 2.911z" clip-rule="evenodd"/>
    <path fill="#fff" d="M40.311 13.368s-1.298 10.337-8.532 16.759c-7.689 7.846-18.638 6.715-18.638 6.715l-8.164 8.572 2.468-9.528S.655 33.409 0 33.315c0 0 8.44.584 18.504-3.324 9.995-3.802 21.807-16.623 21.807-16.623z"/>
    <path fill="#BAD6F0" d="M39.057 15.546s-1.27 7.253-8.256 14.088c-7.534 7.517-17.937 6.14-17.937 6.14l-6.707 7.599 2.371-8.058s-5.054-1.538-5.71-1.632c0 0 11.47 1.99 26.175-8.403 4.972-3.43 10.064-9.734 10.064-9.734z"/>
    <path fill="#fff" d="M.188 16.497s10.1-4.275 19.106-1.342c10.456 2.562 14.991 12.223 14.991 12.223l11.72 2.645-9.437 2.87s1.42 7.025 1.649 7.658c0 0-8.111-14.572-21.797-19.152C11.085 18.852.187 16.497.187 16.497z"/>
    <path fill="#34559C" d="M2.563 16.427s8.89-2.956 17.155.084c10.098 2.604 14.007 11.855 14.007 11.855l10.054 1.77-8.193 2.135s1.272 5.137 1.5 5.77c0 0-4.558-11.499-20.483-17.772-5.335-2.548-14.04-3.841-14.04-3.841z"/>
    <path fill="#fff" d="M22.788 47.219s-9.647-8.096-9.647-20.48c-.018-9.55 5.13-15.047 5.13-15.047L15.71 0l6.593 7.42s5.58-4.15 6.195-4.704c0 0-7.977 10.542-8.232 24.577-.43 7.27 2.52 19.926 2.52 19.926z"/>
    <path fill="#C5CF55" d="M21.581 44.914s-7.084-7.332-7.454-18.175c-.017-9.55 5.299-14.725 5.299-14.725l-2.711-9.92 5.421 6.47s3.943-3.204 4.56-3.759c0 0-7.324 8.453-7.578 22.489-.432 7.269 2.463 17.62 2.463 17.62z"/>
</svg>
