<?xml version="1.0" encoding="utf-8"?>
<!-- Generator: Adobe Illustrator 16.0.0, SVG Export Plug-In . SVG Version: 6.00 Build 0)  -->
<!DOCTYPE svg PUBLIC "-//W3C//DTD SVG 1.1//EN" "http://www.w3.org/Graphics/SVG/1.1/DTD/svg11.dtd">
<svg version="1.1" id="Capa_1" xmlns="http://www.w3.org/2000/svg" xmlns:xlink="http://www.w3.org/1999/xlink" x="0px" y="0px"
	 width="30.962px" height="24.004px" viewBox="360.788 482.539 30.962 24.004"
	 enable-background="new 360.788 482.539 30.962 24.004" xml:space="preserve">
<title>visitante</title>
<g>
	<path fill="#555555" d="M371.663,492.403c-0.681-0.684-1.51-1.204-2.422-1.52c1.678-1.15,2.105-3.443,0.953-5.12
		c-1.15-1.676-3.443-2.103-5.12-0.952c-1.679,1.15-2.105,3.441-0.953,5.119c0.254,0.372,0.579,0.696,0.953,0.953
		c-0.603,0.207-1.167,0.503-1.68,0.882c-0.001-0.005-0.002-0.009-0.004-0.013c-0.008,0.005-0.014,0.009-0.023,0.011
		c-0.038,0.035-0.077,0.065-0.118,0.095c-0.275,0.211-0.496,0.479-0.756,0.708c0,0.002,0,0.003,0,0.004
		c-1.099,1.176-1.709,2.727-1.705,4.337h0.995c0-2.967,2.408-5.372,5.376-5.372c2.97,0,5.376,2.405,5.376,5.372h0.993
		C373.534,495.216,372.862,493.594,371.663,492.403z M367.158,490.537c-1.485,0-2.688-1.202-2.688-2.687s1.205-2.688,2.688-2.688
		c1.484,0,2.688,1.203,2.688,2.688v0.002C369.844,489.334,368.642,490.535,367.158,490.537z"/>
</g>
<g>
	<path fill="#555555" d="M381.477,495.628c-0.593-0.595-1.314-1.049-2.109-1.323c1.462-1.002,1.834-2.998,0.831-4.459
		c-1.003-1.46-2.999-1.831-4.46-0.829c-1.462,1.001-1.834,2.997-0.83,4.458c0.221,0.324,0.504,0.607,0.83,0.83
		c-0.524,0.181-1.017,0.438-1.464,0.769c0-0.004-0.001-0.008-0.002-0.011c-0.008,0.004-0.013,0.007-0.021,0.009
		c-0.033,0.03-0.067,0.058-0.103,0.083c-0.24,0.184-0.433,0.417-0.658,0.616c0,0.002,0,0.003,0,0.004
		c-0.957,1.023-1.489,2.375-1.485,3.777h0.867c0-2.584,2.097-4.679,4.683-4.679s4.682,2.095,4.682,4.679h0.865
		C383.106,498.08,382.521,496.667,381.477,495.628z M377.553,494.003c-1.293,0-2.342-1.047-2.342-2.34s1.051-2.341,2.342-2.341
		c1.294,0,2.341,1.048,2.341,2.341v0.002C379.893,492.957,378.845,494.002,377.553,494.003z"/>
</g>
</svg>
