<?xml version="1.0" encoding="utf-8"?>
<!-- Generator: Adobe Illustrator 16.0.0, SVG Export Plug-In . SVG Version: 6.00 Build 0)  -->
<!DOCTYPE svg PUBLIC "-//W3C//DTD SVG 1.1//EN" "http://www.w3.org/Graphics/SVG/1.1/DTD/svg11.dtd">
<svg version="1.1" id="Capa_1" xmlns="http://www.w3.org/2000/svg" xmlns:xlink="http://www.w3.org/1999/xlink" x="0px" y="0px"
	 width="29.46px" height="39.28px" viewBox="491.41 679.305 29.46 39.28" enable-background="new 491.41 679.305 29.46 39.28"
	 xml:space="preserve">
<g>
	<g>
		<g>
			<path fill="#727272" d="M505.781,694.396c-0.479-0.479-1.257-0.48-1.737-0.002l-4.041,4.043l-1.586-1.588
				c-0.479-0.479-1.257-0.479-1.736,0c-0.479,0.479-0.479,1.257,0,1.735l2.455,2.455c0.238,0.24,0.553,0.361,0.867,0.361
				c0.313,0,0.628-0.121,0.869-0.358l4.909-4.91C506.261,695.653,506.261,694.875,505.781,694.396z"/>
		</g>
	</g>
	<g>
		<g>
			<path fill="#727272" d="M505.781,704.216c-0.479-0.479-1.257-0.481-1.737-0.002l-4.041,4.043l-1.586-1.586
				c-0.479-0.479-1.257-0.479-1.736,0c-0.479,0.479-0.479,1.257,0,1.735l2.455,2.455c0.238,0.238,0.553,0.358,0.867,0.358
				c0.313,0,0.628-0.12,0.869-0.358l4.909-4.91C506.261,705.473,506.261,704.694,505.781,704.216z"/>
		</g>
	</g>
	<g>
		<g>
			<path fill="#727272" d="M514.733,696.49h-4.91c-0.677,0-1.228,0.55-1.228,1.228s0.551,1.228,1.228,1.228h4.91
				c0.678,0,1.228-0.55,1.228-1.228S515.41,696.49,514.733,696.49z"/>
		</g>
	</g>
	<g>
		<g>
			<path fill="#727272" d="M514.733,706.31h-4.91c-0.677,0-1.228,0.551-1.228,1.228c0,0.678,0.551,1.228,1.228,1.228h4.91
				c0.678,0,1.228-0.55,1.228-1.228C515.96,706.86,515.41,706.31,514.733,706.31z"/>
		</g>
	</g>
	<g>
		<g>
			<path fill="#727272" d="M518.415,684.215h-4.91v-1.228c0-0.678-0.55-1.228-1.228-1.228h-2.663
				c-0.509-1.429-1.873-2.455-3.475-2.455c-1.601,0-2.965,1.026-3.474,2.455h-2.663c-0.678,0-1.228,0.55-1.228,1.228v1.228h-4.91
				c-1.353,0-2.455,1.103-2.455,2.455v29.46c0,1.353,1.103,2.455,2.455,2.455h24.55c1.353,0,2.455-1.103,2.455-2.455v-29.46
				C520.87,685.317,519.768,684.215,518.415,684.215z M501.231,684.215h2.455c0.677,0,1.228-0.55,1.228-1.228
				s0.55-1.228,1.227-1.228c0.678,0,1.228,0.55,1.228,1.228s0.551,1.228,1.228,1.228h2.455v2.455h-9.819V684.215z M518.415,716.13
				h-24.55v-29.46h4.91v1.228c0,0.678,0.55,1.228,1.228,1.228h12.274c0.678,0,1.228-0.55,1.228-1.228v-1.228h4.91V716.13z"/>
		</g>
	</g>
</g>
</svg>
