<?xml version="1.0" encoding="utf-8"?>
<!-- Generator: Adobe Illustrator 16.0.0, SVG Export Plug-In . SVG Version: 6.00 Build 0)  -->
<!DOCTYPE svg PUBLIC "-//W3C//DTD SVG 1.1//EN" "http://www.w3.org/Graphics/SVG/1.1/DTD/svg11.dtd">
<svg version="1.1" id="Capa_1" xmlns="http://www.w3.org/2000/svg" xmlns:xlink="http://www.w3.org/1999/xlink" x="0px" y="0px"
	 width="53.275px" height="53.275px" viewBox="0 0 53.275 53.275" enable-background="new 0 0 53.275 53.275" xml:space="preserve">
<g>
	<path fill="#595959" d="M15.083,41.667c-0.506,0-0.917-0.411-0.917-0.917v-9.167c0-0.506,0.411-0.917,0.917-0.917h2.75
		c2.021,0,3.666,1.645,3.666,3.667S19.854,38,17.833,38h-1.834v2.75C15.999,41.256,15.589,41.667,15.083,41.667z M15.999,36.167
		h1.834c1.01,0,1.833-0.823,1.833-1.834c0-1.01-0.823-1.833-1.833-1.833h-1.834V36.167z"/>
	<path fill="#595959" d="M40.75,49H13.249c-2.526,0-4.583-2.057-4.583-4.583V9.583C8.666,7.056,10.722,5,13.249,5H40.75
		c2.526,0,4.583,2.057,4.583,4.583v34.834C45.333,46.943,43.276,49,40.75,49z M13.249,6.833c-1.516,0-2.75,1.233-2.75,2.75v34.834
		c0,1.516,1.234,2.75,2.75,2.75H40.75c1.516,0,2.75-1.234,2.75-2.75V9.583c0-1.517-1.234-2.75-2.75-2.75H13.249z"/>
	<path fill="#595959" d="M27.916,41.667H24.25c-0.507,0-0.917-0.411-0.917-0.917v-9.167c0-0.506,0.41-0.917,0.917-0.917h3.666
		c1.517,0,2.75,1.234,2.75,2.75v5.501C30.666,40.432,29.432,41.667,27.916,41.667z M25.166,39.833h2.75
		c0.506,0,0.917-0.41,0.917-0.916v-5.501c0-0.506-0.411-0.916-0.917-0.916h-2.75V39.833z"/>
	<path fill="#595959" d="M33.416,41.667c-0.506,0-0.916-0.411-0.916-0.917v-7.334c0-1.516,1.233-2.75,2.75-2.75h3.666
		c0.506,0,0.917,0.411,0.917,0.917S39.422,32.5,38.916,32.5H35.25c-0.507,0-0.917,0.41-0.917,0.916v7.334
		C34.333,41.256,33.922,41.667,33.416,41.667z"/>
	<path fill="#595959" d="M38.916,38h-5.5c-0.506,0-0.916-0.411-0.916-0.917s0.41-0.916,0.916-0.916h5.5
		c0.506,0,0.917,0.41,0.917,0.916S39.422,38,38.916,38z"/>
</g>
</svg>
