<?xml version="1.0" encoding="utf-8"?>
<!-- Generator: Adobe Illustrator 16.0.0, SVG Export Plug-In . SVG Version: 6.00 Build 0)  -->
<!DOCTYPE svg PUBLIC "-//W3C//DTD SVG 1.1//EN" "http://www.w3.org/Graphics/SVG/1.1/DTD/svg11.dtd">
<svg version="1.1" id="Capa_1" xmlns="http://www.w3.org/2000/svg" xmlns:xlink="http://www.w3.org/1999/xlink" x="0px" y="0px"
	 width="73.765px" height="74.017px" viewBox="43.118 42.991 73.765 74.017" enable-background="new 43.118 42.991 73.765 74.017"
	 xml:space="preserve">
<title>visitante</title>
<g>
	<path fill="#8C8C8C" d="M79.873,52.396c0.805,0,1.455-0.648,1.457-1.454v-6.495c0-0.805-0.652-1.456-1.457-1.456
		c-0.803,0-1.455,0.651-1.455,1.456v6.495c0,0.806,0.652,1.456,1.455,1.456V52.396z"/>
	<path fill="#8C8C8C" d="M115.461,93.01l-2.57-2.564c-1.529-1.52-3.877-1.854-5.771-0.82l-4.846-4.844l0.234-0.233
		c1.963-1.976,1.963-5.16,0-7.134c-0.689-0.696-1.572-1.175-2.533-1.371c0.133-0.46,0.201-0.938,0.201-1.416
		c0.002-2.391-1.674-4.451-4.014-4.938c0.135-0.461,0.201-0.938,0.201-1.417c0.002-2.388-1.674-4.448-4.012-4.936
		c0.789-2.669-0.736-5.472-3.404-6.258c-0.643-0.188-1.314-0.248-1.98-0.177l-9.604-1.816c-1.465-0.278-3.291-0.462-4.447,0.592
		c-0.078,0.072-0.15,0.146-0.223,0.228c-1.846-0.676-3.918-0.221-5.313,1.168c-0.947,0.945-1.479,2.23-1.475,3.569
		c0,0.479,0.066,0.956,0.199,1.417c-2.73,0.574-4.479,3.253-3.902,5.982c0.027,0.127,0.061,0.253,0.096,0.378
		c-2.729,0.57-4.477,3.249-3.902,5.978c0.137,0.649,0.398,1.268,0.771,1.813c-2.637,0.897-4.047,3.768-3.145,6.404
		c0.248,0.729,0.662,1.396,1.207,1.939l0.234,0.233l-4.846,4.831c-1.854-0.871-4.057-0.49-5.508,0.953l-2.574,2.567
		c-1.893,1.897-1.893,4.97,0,6.868l3.213,3.208c0.563,0.575,1.482,0.586,2.059,0.022c0.574-0.563,0.586-1.481,0.023-2.059
		c-0.008-0.009-0.018-0.018-0.023-0.026l-3.205-3.208c-0.75-0.761-0.75-1.983,0-2.746l2.572-2.564
		c0.635-0.628,1.611-0.747,2.375-0.289c0.146,0.225,0.354,0.404,0.594,0.519l14.76,14.73c0.143,0.313,0.393,0.563,0.703,0.709
		c0.676,0.771,0.641,1.932-0.082,2.659l-2.568,2.572c-0.764,0.757-1.992,0.757-2.754,0l-3.211-3.212
		c-0.553-0.586-1.475-0.611-2.059-0.063c-0.586,0.551-0.615,1.473-0.064,2.058c0.021,0.021,0.039,0.041,0.061,0.063l3.217,3.215
		c1.898,1.885,4.965,1.885,6.865,0l2.578-2.573c1.596-1.603,1.877-4.093,0.682-6.012l5.455-5.449l0.018-0.018
		c0.625-0.646,2.363-0.525,4.049-0.409c1.195,0.084,2.525,0.177,3.83,0.025l5.973,5.967c-1.029,1.893-0.691,4.236,0.826,5.765
		l2.572,2.57c1.898,1.889,4.969,1.889,6.869,0l15.596-15.586C117.357,97.979,117.357,94.906,115.461,93.01L115.461,93.01z
		 M76.822,57.943l6.314,1.195l-3.779,3.779c-0.836-0.432-1.6-0.984-2.266-1.646c-1.205-1.156-2.064-2.479-2.145-3.31l0,0
		c-0.006-0.048-0.006-0.098,0-0.146c0.189-0.046,0.693-0.098,1.879,0.126L76.822,57.943L76.822,57.943z M69.449,59.132
		c0.729-0.727,1.865-0.833,2.717-0.259c0.463,1.979,2.156,3.777,2.922,4.502c0.563,0.539,2.371,2.151,4.191,2.602
		c0.676,0.968,0.439,2.3-0.529,2.978c-0.852,0.593-2.006,0.487-2.736-0.246l0,0l-6.564-6.56
		C68.623,61.313,68.623,59.968,69.449,59.132z M65.646,65.484c0.838-0.831,2.188-0.831,3.023,0l5.287,5.276
		c0.834,0.838,0.832,2.193-0.006,3.028s-2.193,0.832-3.027-0.008l0,0l0,0l-4.012-4.01l-0.02-0.02l-1.256-1.253
		c-0.832-0.835-0.832-2.188,0-3.021L65.646,65.484z M61.834,71.836c0.834-0.823,2.176-0.827,3.016-0.011l4.021,4.021
		c0.832,0.831,0.832,2.18,0.002,3.012c-0.4,0.401-0.947,0.626-1.516,0.624c-0.57,0.005-1.117-0.219-1.521-0.62l-1.457-1.456l0,0
		l-2.553-2.55c-0.83-0.836-0.83-2.186,0-3.021L61.834,71.836L61.834,71.836z M59.299,79.468c0.84-0.836,2.195-0.836,3.035,0
		l1.461,1.458c0.832,0.839,0.828,2.192-0.012,3.026c-0.838,0.83-2.191,0.826-3.023-0.013l-0.189-0.184v-0.007l-0.01-0.009
		l-1.262-1.258C58.469,81.652,58.469,80.302,59.299,79.468L59.299,79.468z M88.967,96.013c-0.568-0.568-1.49-0.568-2.061,0
		l-1.301,1.293c-1.23,1.231-3.461,1.076-5.617,0.926c-2.342-0.161-4.758-0.33-6.33,1.284l-5.365,5.349L54.887,91.477l4.746-4.737
		c2.377,1.456,5.484,0.709,6.941-1.668c0.484-0.794,0.742-1.707,0.742-2.639c0-0.012,0-0.023,0-0.038h0.037
		c2.781,0.007,5.041-2.243,5.049-5.022c0-0.008,0-0.013,0-0.018c0-0.014,0-0.025,0-0.038h0.039c2.775,0.011,5.037-2.232,5.047-5.012
		c0-0.022,0-0.046,0-0.068h0.039c2.789-0.003,5.049-2.267,5.045-5.057c0-0.924-0.256-1.83-0.734-2.619l4.158-4.158
		c0.301-0.295,0.682-0.496,1.094-0.578c0.043-0.005,0.086-0.012,0.127-0.021c1.168-0.163,2.246,0.649,2.41,1.815
		c0.092,0.659-0.129,1.324-0.596,1.798L87.76,64.68l-0.012,0.012l-1.459,1.457c-0.563,0.575-0.553,1.497,0.023,2.06
		c0.564,0.554,1.469,0.554,2.033,0.003l1.271-1.271l0,0l0.189-0.19c0.84-0.827,2.188-0.823,3.021,0.009
		c0.83,0.834,0.83,2.183,0,3.018l-1.273,1.276l0,0l-1.459,1.454c-0.6,0.538-0.646,1.458-0.107,2.056
		c0.537,0.598,1.459,0.646,2.057,0.108c0.033-0.03,0.066-0.063,0.098-0.099l1.467-1.46c0.834-0.835,2.188-0.836,3.021-0.002
		c0.836,0.833,0.836,2.188,0.002,3.021l-2.539,2.542c-0.576,0.561-0.588,1.48-0.025,2.059c0.563,0.575,1.482,0.587,2.059,0.025
		c0.01-0.01,0.02-0.019,0.027-0.025l1.242-1.246l0.021-0.02c0.834-0.835,2.188-0.837,3.021-0.003
		c0.838,0.833,0.838,2.187,0.006,3.021l-1.27,1.264l0,0l-2.008,2.009c-0.568,0.565-0.57,1.488-0.004,2.061
		c0.568,0.571,1.492,0.571,2.063,0.004l0.982-0.98l4.707,4.704l-13.408,13.393l-4.805-4.799c0.346-0.221,0.666-0.478,0.957-0.765
		l1.301-1.302C89.531,97.504,89.531,96.583,88.967,96.013C88.967,96.013,88.967,96.012,88.967,96.013L88.967,96.013z
		 M113.408,97.817l-15.607,15.585c-0.762,0.751-1.984,0.751-2.746,0l-2.574-2.568c-0.756-0.761-0.756-1.987,0-2.747l15.602-15.582
		c0.762-0.751,1.984-0.751,2.746,0l2.57,2.563c0.754,0.763,0.754,1.985,0,2.747L113.408,97.817z"/>
	<path fill="#8C8C8C" d="M60.541,51.169c0.57,0.566,1.492,0.565,2.061-0.002c0.566-0.569,0.566-1.491-0.002-2.062l0,0l-5.307-5.294
		c-0.574-0.561-1.498-0.549-2.059,0.027c-0.553,0.564-0.551,1.468,0.002,2.033L60.541,51.169z"/>
	<path fill="#8C8C8C" d="M98.178,51.594c0.387,0.001,0.756-0.152,1.029-0.425l5.301-5.295c0.568-0.568,0.568-1.49,0.002-2.062
		c-0.568-0.566-1.49-0.567-2.061-0.001l-5.303,5.296c-0.566,0.568-0.566,1.49,0,2.061C97.42,51.44,97.791,51.594,98.178,51.594z"/>
	<path fill="#8C8C8C" d="M52.076,105.616c-0.563,0.574-0.557,1.496,0.018,2.063l0,0c0.574,0.561,1.498,0.549,2.061-0.026
		c0.561-0.575,0.549-1.497-0.027-2.059c-0.572-0.562-1.49-0.55-2.053,0.021L52.076,105.616z"/>
	<path fill="#8C8C8C" d="M92.523,93.917c0.805-0.001,1.455-0.654,1.455-1.458c-0.002-0.806-0.652-1.455-1.459-1.454
		c-0.227,0.001-0.447,0.054-0.648,0.155h-0.01c-0.713,0.369-0.99,1.25-0.617,1.964c0.248,0.478,0.742,0.777,1.279,0.78V93.917
		L92.523,93.917z"/>
</g>
</svg>
