<?xml version="1.0" encoding="utf-8"?>
<!-- Generator: Adobe Illustrator 16.0.0, SVG Export Plug-In . SVG Version: 6.00 Build 0)  -->
<!DOCTYPE svg PUBLIC "-//W3C//DTD SVG 1.1//EN" "http://www.w3.org/Graphics/SVG/1.1/DTD/svg11.dtd">
<svg version="1.1" id="Capa_1" xmlns="http://www.w3.org/2000/svg" xmlns:xlink="http://www.w3.org/1999/xlink" x="0px" y="0px"
	 width="86.42px" height="61.936px" viewBox="36.79 49.032 86.42 61.936" enable-background="new 36.79 49.032 86.42 61.936"
	 xml:space="preserve">
<title>visitante</title>
<title>bag</title>
<g>
	<rect x="116.009" y="95.123" fill="#8C8C8C" width="5.76" height="2.881"/>
	<g>
		<path fill="#8C8C8C" d="M56.956,93.685c-4.773,0-8.643,3.868-8.643,8.641c0,4.773,3.869,8.643,8.643,8.643
			c4.771,0,8.641-3.869,8.641-8.643C65.593,97.556,61.726,93.688,56.956,93.685z M56.956,108.086
			c-3.184,0.001-5.764-2.578-5.766-5.762c0-3.183,2.578-5.762,5.76-5.764c3.184-0.001,5.766,2.578,5.766,5.761
			c0,0.001,0,0.003,0,0.003C62.712,105.505,60.136,108.083,56.956,108.086L56.956,108.086z"/>
		<path fill="#8C8C8C" d="M105.927,93.685c-4.775,0-8.643,3.868-8.643,8.641c0,4.773,3.867,8.643,8.643,8.643
			c4.77,0,8.641-3.869,8.641-8.643C114.562,97.556,110.694,93.688,105.927,93.685z M105.927,108.086
			c-3.184,0.001-5.764-2.578-5.766-5.762c-0.002-3.183,2.578-5.762,5.762-5.764c3.182-0.001,5.762,2.578,5.764,5.761
			c0,0.001,0,0.003,0,0.003C111.685,105.506,109.104,108.083,105.927,108.086L105.927,108.086z"/>
		<path fill="#8C8C8C" d="M122.979,85.701l-12.963-20.163c-0.266-0.41-0.721-0.66-1.211-0.66H92.962
			c-0.795-0.001-1.439,0.642-1.439,1.437c0,0,0,0.002,0,0.003v36.009c-0.002,0.795,0.643,1.439,1.438,1.44c0,0,0,0,0.004,0h5.76
			v-2.882h-4.32V67.759h13.615l12.309,19.146v13.979h-7.199v2.882h8.643c0.795,0,1.438-0.644,1.439-1.438c0-0.001,0-0.003,0-0.004
			V86.481C123.21,86.205,123.13,85.935,122.979,85.701z"/>
		<path fill="#8C8C8C" d="M100.163,83.6V73.518h11.523v-2.88H98.724c-0.795,0-1.439,0.646-1.439,1.44v12.964
			c-0.002,0.794,0.643,1.438,1.438,1.438c0,0,0.002,0,0.004,0h21.604v-2.882L100.163,83.6L100.163,83.6z"/>
		<path fill="#8C8C8C" d="M92.964,54.796H38.231c-0.795,0-1.439,0.645-1.439,1.438v46.09c-0.002,0.795,0.643,1.439,1.436,1.44
			c0.002,0,0.004,0,0.004,0h11.523v-2.882H39.673V57.674h51.852v43.209H64.157v2.882h28.809c0.793,0,1.438-0.644,1.438-1.438
			c0-0.001,0-0.003,0-0.004v-46.09c0.002-0.795-0.641-1.438-1.436-1.438C92.964,54.796,92.964,54.796,92.964,54.796z"/>
		<rect x="38.229" y="95.123" fill="#8C8C8C" width="8.641" height="2.881"/>
		<rect x="67.036" y="95.123" fill="#8C8C8C" width="24.486" height="2.881"/>
		<rect x="42.552" y="60.557" fill="#8C8C8C" width="50.412" height="2.88"/>
		<rect x="55.515" y="100.884" fill="#8C8C8C" width="2.881" height="2.882"/>
		<rect x="104.485" y="100.884" fill="#8C8C8C" width="2.881" height="2.882"/>
		<rect x="42.552" y="49.032" fill="#8C8C8C" width="20.164" height="2.883"/>
	</g>
	<rect x="36.79" y="49.032" fill="#8C8C8C" width="2.881" height="2.883"/>
</g>
</svg>
