<svg xmlns="http://www.w3.org/2000/svg" width="22" height="22" fill="none" viewBox="0 0 22 22">
    <g clip-path="url(#clip0)">
        <path fill="#58C25D" d="M16.113 9.453c-.474 0-.86-.385-.86-.86 0-.236-.192-.429-.429-.429s-.43.193-.43.43c0 .474-.384.86-.859.86s-.86-.386-.86-.86c0-1.185.965-2.149 2.15-2.149 1.184 0 2.148.964 2.148 2.149 0 .474-.385.86-.86.86zm-6.746-.86c0-1.184-.964-2.148-2.148-2.148-1.185 0-2.149.964-2.149 2.149 0 .474.385.86.86.86.474 0 .86-.386.86-.86 0-.237.192-.43.429-.43s.43.193.43.43c0 .474.384.86.859.86.474 0 .86-.386.86-.86zm7.325 11.822c.406-.246.535-.775.29-1.18-.246-.407-.775-.536-1.18-.29-1.444.874-3.104 1.336-4.802 1.336-5.118 0-9.281-4.163-9.281-9.281S5.882 1.719 11 1.719 20.281 5.882 20.281 11c0 1.83-.544 3.611-1.573 5.151-.264.395-.158.929.236 1.192.395.264.929.158 1.192-.236C21.356 15.283 22 13.17 22 11c0-2.938-1.144-5.7-3.222-7.778C16.701 1.144 13.938 0 11 0 8.062 0 5.3 1.144 3.222 3.222 1.144 5.299 0 8.062 0 11c0 2.938 1.144 5.7 3.222 7.778C5.299 20.856 8.062 22 11 22c2.011 0 3.98-.548 5.692-1.585zm-1.997-7.911c-.28 0-.527.134-.684.341 0 0-1.118 1.206-3.011 1.206s-3.01-1.206-3.01-1.206c-.158-.207-.405-.341-.685-.341-.475 0-.86.385-.86.86 0 .244.103.464.267.62.155.173 1.68 1.786 4.288 1.786 2.608 0 4.133-1.613 4.288-1.786.164-.156.267-.376.267-.62 0-.475-.385-.86-.86-.86z"/>
    </g>
    <defs>
        <clipPath id="clip0">
            <path fill="#fff" d="M0 0H22V22H0z"/>
        </clipPath>
    </defs>
</svg>
