<svg xmlns="http://www.w3.org/2000/svg" width="96.504" height="96.504" viewBox="0 0 96.504 96.504">
    <defs>
        <style>
            .cls-1{fill:#b1b1b1}
        </style>
    </defs>
    <g id="injection" transform="translate(0.001 0)">
        <g id="Grupo_78" transform="translate(-0.001 0)">
            <path id="Trazado_310" d="M95.675 15.488L81.014.828a2.827 2.827 0 0 0-4 4l1.333 1.333-12 12-6-6a2.827 2.827 0 0 0-4 4l.666.666L21.2 52.649a8.493 8.493 0 0 0-.628 11.291l-6.035 6.035a2.827 2.827 0 0 0 0 4l2 2-15.7 15.7a2.827 2.827 0 0 0 4 4l15.7-15.7 2 2a2.827 2.827 0 0 0 4 0l6.035-6.035a8.493 8.493 0 0 0 11.291-.628l35.819-35.834.666.666a2.827 2.827 0 0 0 4-4l-6-6 12-12 1.333 1.333a2.827 2.827 0 0 0 4-4zM55.1 26.738l5.919-5.919 5.331 5.331-5.915 5.92zM24.528 75.973l-4-4 4-4 4 4zm15.327-4.665a2.83 2.83 0 0 1-4 0l-10.66-10.662a2.83 2.83 0 0 1 0-4l1.921-1.921 2 2a2.827 2.827 0 0 0 4-4l-2-2 4-4 2 2a2.827 2.827 0 0 0 4-4l-2-2 4-4 2 2a2.827 2.827 0 0 0 4-4l-2-2 4-4L65.766 45.4zM69.764 41.4l-5.331-5.331 5.919-5.919 5.331 5.331zm4.586-15.249l-4-4 12-12 4 4z" class="cls-1" transform="translate(0.001 0)"/>
        </g>
        <g id="Grupo_79" transform="translate(68.231 53.152)">
            <path id="Trazado_311" d="M384.618 298.487v-1.409h.942a2.827 2.827 0 0 0 2.827-2.827V288.6a6.6 6.6 0 0 0-6.6-6.6h-11.305a6.6 6.6 0 0 0-6.6 6.6v5.655a2.827 2.827 0 0 0 2.827 2.827h.942v1.409A15.49 15.49 0 0 0 362 310.472v8.283a6.6 6.6 0 0 0 6.6 6.6h15.079a6.6 6.6 0 0 0 6.6-6.6v-8.283a15.49 15.49 0 0 0-5.661-11.985zm-15.079-9.89a.943.943 0 0 1 .942-.942h11.309a.943.943 0 0 1 .942.942v2.827h-13.193zm15.079 30.157a.943.943 0 0 1-.942.942H368.6a.943.943 0 0 1-.942-.942v-8.283a9.851 9.851 0 0 1 4.4-8.213 2.827 2.827 0 0 0 1.259-2.352v-2.827h5.654v2.827a2.827 2.827 0 0 0 1.259 2.352 9.851 9.851 0 0 1 4.4 8.213z" class="cls-1" transform="translate(-362 -282)"/>
        </g>
    </g>
</svg>
