<svg width="126" height="126" viewBox="0 0 126 126" fill="none" xmlns="http://www.w3.org/2000/svg">
<g clip-path="url(#clip0)">
<path d="M86.4058 79.5681C89.6445 74.9394 91.5469 69.311 91.5469 63.2461C91.5469 47.5057 78.7404 34.6992 63 34.6992C47.2596 34.6992 34.4531 47.5057 34.4531 63.2461C34.4531 78.9874 47.2596 91.793 63 91.793C69.1283 91.793 74.8115 89.8511 79.4681 86.5519L98.0953 105.179C99.0556 106.139 100.316 106.62 101.575 106.62C102.835 106.62 104.095 106.139 105.055 105.179C106.978 103.257 106.978 100.14 105.055 98.2183L86.4058 79.5681ZM44.2969 63.2461C44.2969 52.9332 52.6871 44.543 63 44.543C73.3129 44.543 81.7031 52.9332 81.7031 63.2461C81.7031 73.559 73.3129 81.9492 63 81.9492C52.6871 81.9492 44.2969 73.559 44.2969 63.2461ZM126 60.5391V65.4609C126 73.6032 119.377 80.2266 111.234 80.2266H108.755C108.355 80.2266 108.051 80.3775 107.866 80.5044C105.624 82.0425 102.561 81.4715 101.023 79.2287C99.4853 76.9879 100.056 73.9233 102.298 72.3862C104.21 71.0759 106.442 70.3828 108.755 70.3828H111.234C113.948 70.3828 116.156 68.1747 116.156 65.4609V60.5391C116.156 57.8253 113.948 55.6172 111.234 55.6172H108.755C104.102 55.6172 99.941 52.8169 98.151 48.4843L98.1212 48.4122C96.3226 44.0806 97.2849 39.1558 100.574 35.8662L102.328 34.1138C104.247 32.1941 104.247 29.0717 102.328 27.153L98.847 23.6731C97.9174 22.7435 96.6812 22.2311 95.3671 22.2311C94.052 22.2311 92.8158 22.7425 91.8872 23.6731L90.1338 25.4255C86.8442 28.7151 81.9194 29.6783 77.5878 27.8778L77.5147 27.848C73.1831 26.059 70.3828 21.8975 70.3828 17.2448V14.7656C70.3828 12.0519 68.1747 9.84375 65.4609 9.84375H60.5391C57.8253 9.84375 55.6172 12.0519 55.6172 14.7656V17.2448C55.6172 21.8975 52.8169 26.059 48.4843 27.848L48.4218 27.874C44.0796 29.6774 39.1558 28.7151 35.8662 25.4255L34.1128 23.6721C33.1842 22.7425 31.948 22.2311 30.6329 22.2311C29.3188 22.2311 28.0826 22.7425 27.153 23.6721L23.6721 27.153C21.7533 29.0717 21.7533 32.1941 23.6721 34.1138L25.4255 35.8662C28.7151 39.1558 29.6774 44.0806 27.8778 48.4132L27.848 48.4862C26.059 52.8169 21.8975 55.6172 17.2448 55.6172H14.7656C12.0519 55.6172 9.84375 57.8253 9.84375 60.5391V65.4609C9.84375 68.1747 12.0519 70.3828 14.7656 70.3828H17.2448C21.8966 70.3828 26.059 73.1831 27.848 77.5157L27.8845 77.6022C29.6774 81.9194 28.7151 86.8442 25.4255 90.1338L23.6721 91.8862C22.7425 92.8158 22.2311 94.052 22.2311 95.3671C22.2311 96.6812 22.7425 97.9174 23.6721 98.847L27.153 102.328C29.0717 104.247 32.1941 104.248 34.1138 102.328L35.8662 100.574C39.1539 97.2878 44.0748 96.3236 48.4055 98.1193L48.4689 98.1453C52.8179 99.941 55.6172 104.103 55.6172 108.755V111.234C55.6172 113.948 57.8253 116.156 60.5391 116.156H65.4609C68.1747 116.156 70.3828 113.948 70.3828 111.234V108.755C70.3828 106.442 71.0759 104.209 72.3871 102.298C73.9243 100.056 76.9879 99.4853 79.2297 101.023C81.4715 102.561 82.0425 105.624 80.5044 107.866C80.3775 108.051 80.2266 108.355 80.2266 108.755V111.234C80.2266 119.377 73.6032 126 65.4609 126H60.5391C52.3968 126 45.7734 119.377 45.7734 111.234V108.755C45.7734 108.103 45.363 107.512 44.7266 107.25L44.6372 107.212C43.9979 106.947 43.2875 107.074 42.827 107.535L41.0736 109.289C35.3173 115.045 25.9494 115.045 20.1922 109.289L16.7113 105.808C13.9226 103.019 12.3874 99.3113 12.3874 95.3671C12.3874 91.4229 13.9226 87.7151 16.7123 84.9264L18.4647 83.173C18.9252 82.7125 19.0521 82.0021 18.7877 81.3638L18.7473 81.2677C18.4878 80.637 17.8966 80.2266 17.2448 80.2266H14.7656C6.62338 80.2266 0 73.6032 0 65.4609V60.5391C0 52.3968 6.62338 45.7734 14.7656 45.7734H17.2448C17.8966 45.7734 18.4878 45.363 18.7502 44.7275L18.7868 44.6381C19.053 43.9989 18.9261 43.2885 18.4647 42.827L16.7123 41.0746C10.955 35.3173 10.955 25.9494 16.7123 20.1922L20.1922 16.7123C22.9819 13.9235 26.6896 12.3874 30.6329 12.3874C34.5771 12.3874 38.2849 13.9235 41.0746 16.7123L42.827 18.4647C43.2885 18.9261 43.9989 19.053 44.6372 18.7877L44.7256 18.7502C45.363 18.4878 45.7734 17.8966 45.7734 17.2448V14.7656C45.7734 6.62338 52.3978 0 60.5391 0H65.4609C73.6032 0 80.2266 6.62338 80.2266 14.7656V17.2448C80.2266 17.8966 80.637 18.4878 81.2725 18.7502L81.3724 18.7916C82.0021 19.053 82.7125 18.9261 83.173 18.4647L84.9264 16.7123C87.7151 13.9226 91.4229 12.3874 95.3671 12.3874C99.3104 12.3874 103.019 13.9226 105.808 16.7123L109.288 20.1922C115.045 25.9494 115.045 35.3173 109.288 41.0736L107.535 42.827C107.074 43.2875 106.947 43.9979 107.212 44.6372L107.249 44.7256C107.512 45.362 108.103 45.7734 108.755 45.7734H111.234C119.377 45.7734 126 52.3968 126 60.5391V60.5391Z" fill="#34559C"/>
</g>
<defs>
<clipPath id="clip0">
<rect width="126" height="126" fill="white"/>
</clipPath>
</defs>
</svg>
