<svg width="26" height="26" viewBox="0 0 26 26" fill="none" xmlns="http://www.w3.org/2000/svg">
<g clip-path="url(#clip0)">
<path d="M9.37108 23.2706C8.80511 23.2706 8.27435 23.0505 7.87534 22.6504L0.619609 15.3946C-0.206536 14.5698 -0.206536 13.2275 0.619609 12.4016L2.32947 10.6917C3.15429 9.8656 4.49769 9.8656 5.3225 10.6917L9.37108 14.7403L20.6767 3.43602C21.5015 2.60987 22.8449 2.60987 23.6698 3.43602L25.3796 5.14588C25.78 5.54622 26.0001 6.07698 26.0001 6.64184C26.0001 7.20648 25.78 7.73857 25.3796 8.13758L10.8682 22.649C10.468 23.0494 9.93705 23.2706 9.37108 23.2706ZM10.226 22.0093H10.2382H10.226ZM3.82543 11.8852C3.74793 11.8852 3.67066 11.9142 3.61131 11.9736L1.90145 13.6834C1.78277 13.8019 1.78277 13.993 1.90145 14.1115L9.15718 21.3672C9.27077 21.4821 9.47161 21.4821 9.5852 21.3672L24.0967 6.85574C24.2151 6.73727 24.2151 6.54618 24.0967 6.42772L22.3868 4.71786C22.2681 4.59917 22.077 4.59917 21.9586 4.71786L10.0121 16.6643C9.65783 17.0186 9.08323 17.0186 8.72894 16.6643L4.03823 11.9747C3.98021 11.9142 3.90404 11.8852 3.82543 11.8852Z" fill="white"/>
</g>
<defs>
<clipPath id="clip0">
<rect width="26" height="26" fill="white"/>
</clipPath>
</defs>
</svg>
