<svg width="19" height="19" viewBox="0 0 19 19" fill="none" xmlns="http://www.w3.org/2000/svg">
<g clip-path="url(#clip0)">
<path d="M13.0796 8.16406C13.0796 7.75415 12.7473 7.42188 12.3374 7.42188H4.69287C4.28296 7.42188 3.95068 7.75415 3.95068 8.16406C3.95068 8.57397 4.28296 8.90625 4.69287 8.90625H12.3374C12.7473 8.90625 13.0796 8.57397 13.0796 8.16406Z" fill="white"/>
<path d="M4.69287 10.3906C4.28296 10.3906 3.95068 10.7229 3.95068 11.1328C3.95068 11.5427 4.28296 11.875 4.69287 11.875H9.33566C9.74557 11.875 10.0778 11.5427 10.0778 11.1328C10.0778 10.7229 9.74557 10.3906 9.33566 10.3906H4.69287Z" fill="white"/>
<path d="M6.43704 17.5156H3.95483C3.13635 17.5156 2.47046 16.8497 2.47046 16.0312V2.96875C2.47046 2.15027 3.13635 1.48438 3.95483 1.48438H13.0796C13.8981 1.48438 14.564 2.15027 14.564 2.96875V7.5332C14.564 7.94311 14.8963 8.27539 15.3062 8.27539C15.7161 8.27539 16.0484 7.94311 16.0484 7.5332V2.96875C16.0484 1.33178 14.7166 0 13.0796 0H3.95483C2.31787 0 0.986084 1.33178 0.986084 2.96875V16.0312C0.986084 17.6682 2.31787 19 3.95483 19H6.43704C6.84695 19 7.17923 18.6677 7.17923 18.2578C7.17923 17.8479 6.84695 17.5156 6.43704 17.5156Z" fill="white"/>
<path d="M17.363 10.7449C16.4949 9.8768 15.0823 9.87677 14.2148 10.7443L10.14 14.81C10.0535 14.8964 9.98968 15.0028 9.95413 15.1197L9.06673 18.0412C8.98806 18.3002 9.0566 18.5814 9.24563 18.7752C9.38724 18.9203 9.57962 18.9991 9.77693 18.9991C9.84295 18.9991 9.90959 18.9903 9.97502 18.9721L12.9707 18.1423C13.0939 18.1082 13.2063 18.0428 13.2969 17.9524L17.363 13.8938C18.2312 13.0257 18.2312 11.6132 17.363 10.7449ZM12.3863 16.7639L10.8793 17.1814L11.3203 15.7294L14.0697 12.986L15.1195 14.0359L12.3863 16.7639ZM16.314 12.8438L16.1702 12.9873L15.1205 11.9376L15.2638 11.7946C15.5532 11.5052 16.0241 11.5052 16.3134 11.7946C16.6028 12.084 16.6028 12.5548 16.314 12.8438Z" fill="white"/>
<path d="M12.3374 4.45312H4.69287C4.28296 4.45312 3.95068 4.7854 3.95068 5.19531C3.95068 5.60522 4.28296 5.9375 4.69287 5.9375H12.3374C12.7473 5.9375 13.0796 5.60522 13.0796 5.19531C13.0796 4.7854 12.7473 4.45312 12.3374 4.45312Z" fill="white"/>
</g>
<defs>
<clipPath id="clip0">
<rect width="19" height="19" fill="white"/>
</clipPath>
</defs>
</svg>
