<svg xmlns="http://www.w3.org/2000/svg" width="25" height="25" fill="none" viewBox="0 0 25 25">
    <path fill="#58C25D" d="M22.925 15.479c.349-.39.561-.903.561-1.465 0-1.212-.986-2.198-2.197-2.198h-4.265c.423-1.281.603-2.982.603-3.711v-.732c0-1.615-1.314-2.93-2.93-2.93h-.732c-.336 0-.63.229-.71.555l-.4 1.596c-.559 2.236-2.334 4.702-4.17 5.15-.322-.814-1.117-1.392-2.044-1.392H2.246c-.404 0-.732.328-.732.732v13.184c0 .404.328.732.732.732h4.395c.873 0 1.629-.512 1.983-1.252l2.517.838c.822.275 1.68.414 2.547.414h6.136c1.212 0 2.197-.986 2.197-2.197 0-.286-.054-.56-.154-.81.932-.254 1.62-1.108 1.62-2.12 0-.562-.213-1.076-.562-1.465.349-.389.561-.903.561-1.465s-.212-1.075-.56-1.465zM7.373 22.803c0 .403-.329.732-.732.732H2.979V11.816H6.64c.403 0 .732.329.732.733v10.254zm12.451-6.592h1.465c.404 0 .732.329.732.732 0 .404-.328.733-.732.733h-1.465c-.404 0-.732.328-.732.732 0 .404.328.733.732.733h1.465c.404 0 .732.328.732.732 0 .404-.328.732-.732.732h-1.465c-.404 0-.732.329-.732.733 0 .404.328.732.732.732.404 0 .733.329.733.733 0 .403-.329.732-.733.732h-6.136c-.71 0-1.411-.114-2.085-.338l-2.765-.922v-9.063c1.149-.218 2.273-.946 3.289-2.137.99-1.163 1.794-2.705 2.15-4.125l.26-1.042h.16c.808 0 1.465.657 1.465 1.465v.732c0 .983-.307 2.87-.701 3.711h-1.496c-.405 0-.733.329-.733.733 0 .404.329.732.733.732h7.324c.404 0 .732.329.732.733 0 .404-.328.732-.732.732h-1.465c-.404 0-.732.328-.732.732 0 .405.328.733.732.733z"/>
    <path fill="#58C25D" d="M5.176 22.07c.404 0 .732-.328.732-.732 0-.405-.328-.733-.732-.733-.405 0-.733.328-.733.733 0 .404.328.732.733.732zM15.43 0c-.405 0-.733.328-.733.732v1.514c0 .405.328.733.733.733.404 0 .732-.328.732-.733V.732c0-.404-.328-.732-.732-.732zM12.321 3.23l-1.035-1.036c-.287-.286-.75-.286-1.036 0-.286.286-.286.75 0 1.036l1.036 1.036c.286.286.75.286 1.035 0 .286-.286.286-.75 0-1.036zM20.608 2.194c-.286-.286-.75-.286-1.035 0L18.537 3.23c-.286.286-.286.75 0 1.036.286.286.75.286 1.036 0l1.035-1.036c.286-.286.286-.75 0-1.036z"/>
</svg>
