<svg xmlns="http://www.w3.org/2000/svg" width="86.341" height="86.341" viewBox="0 0 86.341 86.341">
    <defs>
        <style>
            .cls-1{fill:#b1b1b1}
        </style>
    </defs>
    <g id="medical-records" transform="translate(0 -0.001)">
        <path id="Trazado_247" d="M83.812 22.284h-7.43V2.531A2.53 2.53 0 0 0 73.852 0H8.842a2.53 2.53 0 0 0-2.529 2.531v20.877H2.529A2.53 2.53 0 0 0 0 25.937v57.875a2.53 2.53 0 0 0 2.529 2.529h71.385a12.442 12.442 0 0 0 12.427-12.427v-49.1a2.53 2.53 0 0 0-2.529-2.529zm-78.753 59V28.467h18.207l3.288 5.893a2.529 2.529 0 0 0 2.209 1.3h32.723v38.233a12.4 12.4 0 0 0 2.432 7.39H5.059zm61.486-7.389V33.128a2.53 2.53 0 0 0-2.53-2.528H30.249l-3.289-5.9a2.529 2.529 0 0 0-2.209-1.3H11.372V5.06h59.951v75.75a7.4 7.4 0 0 1-4.778-6.917zm14.738.021a7.381 7.381 0 0 1-4.9 6.942V27.343h4.9z" class="cls-1"/>
        <path id="Trazado_248" d="M133.953 269.933h-4.816v-5.11a2.53 2.53 0 0 0-2.529-2.529h-9.787a2.53 2.53 0 0 0-2.529 2.529v5.11h-4.816a2.53 2.53 0 0 0-2.529 2.529v10.179a2.53 2.53 0 0 0 2.529 2.529h4.816v5.11a2.53 2.53 0 0 0 2.529 2.53h9.787a2.53 2.53 0 0 0 2.529-2.53v-5.11h4.816a2.53 2.53 0 0 0 2.53-2.529v-10.179a2.53 2.53 0 0 0-2.53-2.529zm-2.529 10.179h-4.816a2.53 2.53 0 0 0-2.529 2.529v5.11h-4.729v-5.11a2.53 2.53 0 0 0-2.529-2.529H112v-5.12h4.816a2.53 2.53 0 0 0 2.529-2.529v-5.11h4.728v5.11a2.53 2.53 0 0 0 2.529 2.529h4.816z" class="cls-1" transform="translate(-88.911 -218.061)"/>
    </g>
</svg>
