<svg xmlns="http://www.w3.org/2000/svg" width="68.71" height="86.341" viewBox="0 0 68.71 86.341">
    <defs>
        <style>
            .cls-1{fill:#b1b1b1}
        </style>
    </defs>
    <g id="medical-result_1_" transform="translate(-52.275)">
        <g id="Grupo_71" transform="translate(52.275)">
            <g id="Grupo_70">
                <path id="Trazado_262" d="M120.348 78.209l-.082-.157-3.431-5.09V5.715A5.721 5.721 0 0 0 111.12 0H62.729a5.721 5.721 0 0 0-5.715 5.715v19.243a8.111 8.111 0 0 0-4.739 7.368v45.913a8.111 8.111 0 0 0 8.1 8.1h55.112c.131 0 .261 0 .389-.013a5.447 5.447 0 0 0 4.389-2.792 5.578 5.578 0 0 0 .083-5.325zM63.364 6.35h47.121v57.191L86.767 28.35q-.035-.062-.072-.123c-.726-1.2-2.427-4-5.669-4H63.364zm-2.987 73.641a1.775 1.775 0 0 1-1.752-1.752V32.326a1.775 1.775 0 0 1 1.752-1.752h20.246a7.631 7.631 0 0 1 .629.925l.071.137 29.7 44.065.009.013 2.883 4.277z" class="cls-1" transform="translate(-52.275)"/>
            </g>
        </g>
        <g id="Grupo_73" transform="translate(64.232 44.262)">
            <g id="Grupo_72">
                <path id="Trazado_263" d="M140.981 269.786h-4.139v-4.14a3.175 3.175 0 0 0-6.35 0v4.14h-4.139a3.175 3.175 0 0 0 0 6.35h4.139v4.139a3.175 3.175 0 0 0 6.35 0v-4.139h4.139a3.175 3.175 0 0 0 0-6.35z" class="cls-1" transform="translate(-123.177 -262.471)"/>
            </g>
        </g>
        <g id="Grupo_75" transform="translate(67.687 11.838)">
            <g id="Grupo_74">
                <path id="Trazado_264" d="M179.031 70.2h-32.189a3.175 3.175 0 0 0 0 6.35h32.189a3.175 3.175 0 0 0 0-6.35z" class="cls-1" transform="translate(-143.667 -70.2)"/>
            </g>
        </g>
        <g id="Grupo_77" transform="translate(90.508 24.327)">
            <g id="Grupo_76">
                <path id="Trazado_265" d="M291.539 144.257h-9.368a3.175 3.175 0 1 0 0 6.35h9.368a3.175 3.175 0 1 0 0-6.35z" class="cls-1" transform="translate(-278.996 -144.257)"/>
            </g>
        </g>
    </g>
</svg>
