<svg xmlns="http://www.w3.org/2000/svg" width="96.101" height="90.502" viewBox="0 0 96.101 90.502">
    <defs>
        <style>
            .cls-1{fill:#b1b1b1}
        </style>
    </defs>
    <g id="medical-result_2_" transform="translate(0 -8.652)">
        <path id="Trazado_266" d="M131.7 168.873h-5.9v-5.9a3.258 3.258 0 0 0-6.515 0v5.9h-5.9a3.258 3.258 0 1 0 0 6.515h5.9v5.9a3.258 3.258 0 1 0 6.515 0v-5.9h5.9a3.258 3.258 0 1 0 0-6.515z" class="cls-1" transform="translate(-74.486 -102.181)"/>
        <path id="Trazado_267" d="M92.843 42.246H90.5V11.91a3.258 3.258 0 0 0-3.258-3.258H8.857A3.258 3.258 0 0 0 5.6 11.91v19.138H3.258A3.258 3.258 0 0 0 0 34.306v50.759a14.1 14.1 0 0 0 14.088 14.089h67.924A14.1 14.1 0 0 0 96.1 85.065V45.5a3.258 3.258 0 0 0-3.257-3.254zM12.115 15.167h71.871v27.08h-45.12l-4.7-9.4a3.257 3.257 0 0 0-2.914-1.8H12.115zm77.471 69.9a7.582 7.582 0 0 1-7.573 7.573H14.088a7.582 7.582 0 0 1-7.573-7.573v-47.5H29.24l4.7 9.4a3.257 3.257 0 0 0 2.914 1.8h52.731z" class="cls-1"/>
        <path id="Trazado_268" d="M143.733 50.841h28a2.28 2.28 0 0 0 0-4.56h-28a2.28 2.28 0 0 0 0 4.56z" class="cls-1" transform="translate(-95.683 -25.453)"/>
        <path id="Trazado_269" d="M88 48.561a2.28 2.28 0 0 0-2.28-2.28h-11.2a2.28 2.28 0 1 0 0 4.56h11.2a2.28 2.28 0 0 0 2.28-2.28z" class="cls-1" transform="translate(-48.863 -25.453)"/>
        <path id="Trazado_270" d="M143.733 85.449h28a2.28 2.28 0 0 0 0-4.56h-28a2.28 2.28 0 0 0 0 4.56z" class="cls-1" transform="translate(-95.683 -48.863)"/>
    </g>
</svg>
