<?xml version="1.0" encoding="utf-8"?>
<!-- Generator: Adobe Illustrator 16.0.0, SVG Export Plug-In . SVG Version: 6.00 Build 0)  -->
<!DOCTYPE svg PUBLIC "-//W3C//DTD SVG 1.1//EN" "http://www.w3.org/Graphics/SVG/1.1/DTD/svg11.dtd">
<svg version="1.1" id="Capa_1" xmlns="http://www.w3.org/2000/svg" xmlns:xlink="http://www.w3.org/1999/xlink" x="0px" y="0px"
	 width="160px" height="160px" viewBox="858.75 497.625 160 160" enable-background="new 858.75 497.625 160 160"
	 xml:space="preserve">
<title>visitante</title>
<circle fill="#C5CF55" cx="938.75" cy="577.625" r="80"/>
<title>bag</title>
<g>
	<rect x="978.634" y="593.022" fill="#FFFFFF" width="5.761" height="2.88"/>
	<g>
		<path fill="#FFFFFF" d="M919.582,591.583c-4.773,0-8.643,3.868-8.643,8.641s3.869,8.642,8.643,8.642
			c4.772,0,8.641-3.869,8.641-8.642C928.218,595.454,924.352,591.587,919.582,591.583z M919.582,605.984
			c-3.184,0.001-5.764-2.578-5.766-5.761c0-3.183,2.578-5.762,5.761-5.764c3.183-0.001,5.764,2.578,5.765,5.761
			c0,0.001,0,0.003,0,0.003C925.338,603.403,922.762,605.981,919.582,605.984L919.582,605.984z"/>
		<path fill="#FFFFFF" d="M968.552,591.583c-4.774,0-8.642,3.868-8.642,8.641s3.867,8.642,8.642,8.642
			c4.771,0,8.641-3.869,8.641-8.642C977.188,595.454,973.321,591.587,968.552,591.583z M968.552,605.984
			c-3.183,0.001-5.763-2.578-5.765-5.761s2.578-5.762,5.761-5.764c3.183-0.001,5.763,2.578,5.765,5.761c0,0.001,0,0.003,0,0.003
			C974.31,603.404,971.731,605.981,968.552,605.984L968.552,605.984z"/>
		<path fill="#FFFFFF" d="M985.605,583.6l-12.963-20.163c-0.265-0.411-0.721-0.661-1.21-0.661h-15.844
			c-0.795-0.001-1.439,0.642-1.439,1.437c0,0,0,0.002,0,0.003v36.009c-0.002,0.795,0.642,1.439,1.437,1.44c0,0,0.001,0,0.003,0
			h5.761v-2.882h-4.321v-33.126h13.616l12.308,19.147v13.979h-7.199v2.882h8.643c0.794,0,1.438-0.643,1.439-1.437
			c0-0.001,0-0.003,0-0.004V584.38C985.835,584.104,985.755,583.833,985.605,583.6z"/>
		<path fill="#FFFFFF" d="M962.79,581.498v-10.082h11.522v-2.88H961.35c-0.795,0-1.439,0.646-1.439,1.441v12.963
			c-0.002,0.794,0.641,1.438,1.436,1.439c0,0,0.002,0,0.004,0h21.604v-2.882H962.79z"/>
		<path fill="#FFFFFF" d="M955.589,552.694h-54.732c-0.795,0-1.439,0.645-1.439,1.439v46.09c-0.001,0.795,0.642,1.439,1.435,1.44
			c0.002,0,0.004,0,0.005,0h11.522v-2.882h-10.082v-43.209h51.853v43.209h-27.368v2.882h28.808c0.793,0,1.439-0.643,1.439-1.437
			c0-0.001,0-0.003,0-0.004v-46.09c0.001-0.795-0.642-1.439-1.437-1.439C955.59,552.694,955.59,552.694,955.589,552.694z"/>
		<rect x="900.856" y="593.022" fill="#FFFFFF" width="8.641" height="2.88"/>
		<rect x="929.663" y="593.022" fill="#FFFFFF" width="24.486" height="2.88"/>
		<rect x="905.178" y="558.455" fill="#FFFFFF" width="50.411" height="2.88"/>
		<rect x="918.14" y="598.782" fill="#FFFFFF" width="2.882" height="2.882"/>
		<rect x="967.111" y="598.782" fill="#FFFFFF" width="2.882" height="2.882"/>
		<rect x="905.178" y="546.931" fill="#FFFFFF" width="20.164" height="2.882"/>
	</g>
	<rect x="899.417" y="546.931" fill="#FFFFFF" width="2.88" height="2.882"/>
</g>
</svg>
