<?xml version="1.0" encoding="utf-8"?>
<!-- Generator: Adobe Illustrator 16.0.0, SVG Export Plug-In . SVG Version: 6.00 Build 0)  -->
<!DOCTYPE svg PUBLIC "-//W3C//DTD SVG 1.1//EN" "http://www.w3.org/Graphics/SVG/1.1/DTD/svg11.dtd">
<svg version="1.1" id="Capa_1" xmlns="http://www.w3.org/2000/svg" xmlns:xlink="http://www.w3.org/1999/xlink" x="0px" y="0px"
	 width="160px" height="160px" viewBox="858.75 497.625 160 160" enable-background="new 858.75 497.625 160 160"
	 xml:space="preserve">
<title>visitante</title>
<circle fill="#C5CF55" cx="938.75" cy="577.625" r="80"/>
<g>
	<path fill="#FFFFFF" d="M938.62,544.716c0.804,0,1.455-0.649,1.456-1.454v-6.495c0-0.805-0.652-1.456-1.456-1.456
		s-1.455,0.651-1.455,1.456v6.495c0,0.805,0.651,1.456,1.455,1.456V544.716z"/>
	<path fill="#FFFFFF" d="M974.208,585.329l-2.572-2.564c-1.528-1.52-3.876-1.854-5.77-0.821l-4.847-4.843l0.235-0.234
		c1.962-1.975,1.962-5.16,0-7.134c-0.69-0.696-1.572-1.174-2.534-1.371c0.134-0.46,0.201-0.938,0.201-1.416
		c0.002-2.39-1.673-4.451-4.012-4.938c0.134-0.461,0.201-0.938,0.201-1.417c0.001-2.388-1.674-4.448-4.012-4.936
		c0.788-2.669-0.736-5.471-3.405-6.258c-0.643-0.188-1.313-0.248-1.979-0.176l-9.604-1.817c-1.465-0.278-3.291-0.462-4.448,0.592
		c-0.077,0.072-0.151,0.146-0.222,0.228c-1.847-0.676-3.919-0.221-5.312,1.168c-0.948,0.945-1.479,2.23-1.475,3.569
		c0,0.479,0.065,0.956,0.198,1.417c-2.729,0.574-4.477,3.253-3.901,5.982c0.026,0.127,0.059,0.253,0.095,0.378
		c-2.729,0.571-4.476,3.249-3.903,5.978c0.138,0.649,0.399,1.267,0.773,1.813c-2.638,0.898-4.047,3.768-3.146,6.405
		c0.249,0.729,0.662,1.395,1.208,1.939l0.235,0.233l-4.847,4.832c-1.854-0.872-4.057-0.491-5.508,0.953l-2.573,2.567
		c-1.894,1.897-1.894,4.97,0,6.868l3.212,3.208c0.562,0.575,1.482,0.586,2.059,0.023c0.575-0.563,0.586-1.482,0.024-2.059
		c-0.008-0.009-0.018-0.018-0.025-0.026l-3.204-3.208c-0.751-0.761-0.751-1.984,0-2.746l2.573-2.565
		c0.633-0.628,1.61-0.747,2.375-0.289c0.146,0.225,0.353,0.404,0.593,0.519l14.76,14.73c0.143,0.313,0.392,0.563,0.702,0.709
		c0.677,0.771,0.642,1.932-0.081,2.659l-2.569,2.573c-0.764,0.756-1.991,0.756-2.754,0l-3.211-3.212
		c-0.552-0.586-1.474-0.612-2.059-0.063c-0.586,0.551-0.614,1.473-0.063,2.058c0.02,0.021,0.039,0.041,0.06,0.062l3.216,3.215
		c1.9,1.885,4.966,1.885,6.865,0l2.579-2.573c1.595-1.603,1.877-4.093,0.681-6.012l5.456-5.449l0.018-0.018
		c0.625-0.646,2.363-0.525,4.048-0.409c1.196,0.084,2.526,0.177,3.83,0.026l5.973,5.966c-1.03,1.893-0.692,4.237,0.827,5.765
		l2.572,2.57c1.898,1.889,4.969,1.889,6.868,0l15.597-15.586C976.104,590.299,976.104,587.226,974.208,585.329L974.208,585.329z
		 M935.568,550.263l6.315,1.195l-3.78,3.779c-0.835-0.431-1.6-0.984-2.266-1.646c-1.204-1.156-2.064-2.479-2.144-3.31l0,0
		c-0.005-0.048-0.005-0.097,0-0.146c0.189-0.046,0.694-0.098,1.879,0.126L935.568,550.263L935.568,550.263z M928.196,551.451
		c0.727-0.726,1.864-0.833,2.716-0.259c0.464,1.979,2.157,3.778,2.922,4.502c0.563,0.539,2.371,2.152,4.192,2.602
		c0.675,0.968,0.438,2.3-0.53,2.977c-0.852,0.593-2.005,0.488-2.737-0.246l0,0l-6.563-6.559
		C927.369,553.633,927.369,552.287,928.196,551.451z M924.393,557.804c0.838-0.831,2.188-0.831,3.024,0l5.286,5.276
		c0.835,0.838,0.832,2.193-0.006,3.028s-2.193,0.832-3.028-0.007l0,0l0,0l-4.01-4.01l-0.021-0.02l-1.255-1.253
		c-0.833-0.835-0.833-2.187,0-3.021L924.393,557.804z M920.58,564.155c0.835-0.823,2.175-0.827,3.016-0.011l4.021,4.021
		c0.832,0.831,0.833,2.18,0.002,3.012c-0.401,0.401-0.947,0.626-1.516,0.624c-0.569,0.005-1.117-0.219-1.521-0.62l-1.457-1.457l0,0
		l-2.552-2.549c-0.831-0.836-0.831-2.186,0-3.021H920.58L920.58,564.155z M918.045,571.787c0.839-0.836,2.196-0.836,3.035,0
		l1.461,1.458c0.832,0.839,0.828,2.192-0.011,3.026c-0.838,0.831-2.192,0.827-3.025-0.012l-0.188-0.184v-0.007l-0.01-0.008
		l-1.262-1.258C917.214,573.972,917.214,572.621,918.045,571.787L918.045,571.787z M947.712,588.332
		c-0.568-0.568-1.49-0.568-2.059,0l-1.302,1.293c-1.229,1.231-3.461,1.076-5.617,0.926c-2.341-0.161-4.757-0.33-6.329,1.284
		l-5.366,5.349l-13.406-13.388l4.746-4.737c2.377,1.456,5.485,0.709,6.941-1.668c0.485-0.794,0.742-1.707,0.742-2.639
		c0-0.012,0-0.023,0-0.038h0.038c2.781,0.007,5.041-2.243,5.048-5.023c0-0.007,0-0.012,0-0.017c0-0.014,0-0.025,0-0.038h0.039
		c2.777,0.011,5.037-2.233,5.047-5.012c0-0.022,0-0.046,0-0.068h0.039c2.789-0.003,5.049-2.267,5.045-5.057
		c0-0.924-0.256-1.83-0.734-2.619l4.158-4.158c0.301-0.295,0.681-0.496,1.094-0.578c0.043-0.005,0.086-0.012,0.128-0.021
		c1.167-0.163,2.246,0.65,2.41,1.816c0.092,0.659-0.129,1.324-0.597,1.798l-1.27,1.262l-0.013,0.012l-1.459,1.457
		c-0.563,0.575-0.552,1.497,0.023,2.06c0.565,0.553,1.469,0.553,2.033,0.002l1.272-1.271l0,0l0.19-0.191
		c0.839-0.827,2.188-0.823,3.021,0.009c0.831,0.834,0.831,2.183,0,3.018l-1.274,1.276l0,0l-1.459,1.454
		c-0.598,0.538-0.646,1.458-0.107,2.056c0.537,0.598,1.459,0.646,2.057,0.108c0.033-0.03,0.066-0.063,0.098-0.098l1.467-1.46
		c0.834-0.835,2.187-0.836,3.021-0.002c0.836,0.833,0.837,2.188,0.003,3.021l-2.54,2.542c-0.576,0.561-0.588,1.481-0.026,2.059
		c0.563,0.575,1.483,0.587,2.06,0.025c0.009-0.009,0.018-0.018,0.026-0.025l1.243-1.246l0.022-0.02
		c0.833-0.835,2.187-0.837,3.021-0.003c0.837,0.833,0.837,2.187,0.005,3.021l-1.268,1.264l0,0l-2.008,2.008
		c-0.57,0.566-0.572,1.489-0.004,2.061c0.567,0.571,1.491,0.571,2.061,0.004l0.983-0.981l4.708,4.705l-13.408,13.392l-4.805-4.799
		c0.345-0.22,0.666-0.477,0.957-0.764l1.301-1.302C948.277,589.823,948.277,588.902,947.712,588.332
		C947.713,588.332,947.713,588.331,947.712,588.332L947.712,588.332z M972.154,590.137l-15.608,15.585
		c-0.761,0.751-1.983,0.751-2.746,0l-2.573-2.569c-0.756-0.761-0.756-1.987,0-2.747l15.601-15.582c0.762-0.751,1.985-0.751,2.747,0
		l2.57,2.563c0.754,0.762,0.754,1.985,0,2.747L972.154,590.137z"/>
	<path fill="#FFFFFF" d="M919.288,543.488c0.569,0.567,1.491,0.566,2.059-0.002c0.568-0.569,0.567-1.491-0.002-2.061l0,0
		l-5.306-5.294c-0.575-0.561-1.497-0.549-2.059,0.027c-0.552,0.565-0.551,1.468,0.002,2.033L919.288,543.488z"/>
	<path fill="#FFFFFF" d="M956.924,543.913c0.386,0.001,0.756-0.152,1.029-0.425l5.301-5.295c0.569-0.568,0.569-1.49,0.001-2.061
		c-0.567-0.567-1.49-0.568-2.06-0.001l-5.302,5.296c-0.567,0.568-0.567,1.49,0,2.06C956.167,543.76,956.537,543.913,956.924,543.913
		z"/>
	<path fill="#FFFFFF" d="M910.822,597.936c-0.563,0.574-0.557,1.496,0.018,2.062l0,0c0.575,0.561,1.497,0.549,2.06-0.026
		c0.561-0.575,0.55-1.497-0.026-2.059c-0.574-0.561-1.492-0.55-2.054,0.021L910.822,597.936z"/>
	<path fill="#FFFFFF" d="M951.27,586.236c0.805-0.001,1.455-0.654,1.454-1.458c-0.001-0.805-0.652-1.455-1.458-1.454
		c-0.226,0.001-0.447,0.054-0.649,0.155h-0.009c-0.714,0.37-0.99,1.25-0.618,1.964c0.249,0.478,0.742,0.778,1.28,0.781V586.236z"/>
</g>
</svg>
