<?xml version="1.0" encoding="utf-8"?>
<!-- Generator: Adobe Illustrator 16.0.0, SVG Export Plug-In . SVG Version: 6.00 Build 0)  -->
<!DOCTYPE svg PUBLIC "-//W3C//DTD SVG 1.1//EN" "http://www.w3.org/Graphics/SVG/1.1/DTD/svg11.dtd">
<svg version="1.1" id="Capa_1" xmlns="http://www.w3.org/2000/svg" xmlns:xlink="http://www.w3.org/1999/xlink" x="0px" y="0px"
	 width="160px" height="160px" viewBox="0 0 160 160" enable-background="new 0 0 160 160" xml:space="preserve">
<title>visitante</title>
<circle fill="#C5CF55" cx="80" cy="80" r="80"/>
<g>
	<title>visitante</title>
	<path fill="#FFFFFF" d="M101.224,91.501c-3.283-3.294-7.273-5.805-11.675-7.324c8.089-5.547,10.15-16.598,4.602-24.688
		c-5.558-8.082-16.608-10.141-24.698-4.595c-8.089,5.547-10.149,16.598-4.599,24.686c1.231,1.795,2.795,3.359,4.599,4.592
		c-2.899,1.002-5.635,2.435-8.104,4.255c-0.005-0.021-0.005-0.043-0.01-0.058c-0.035,0.02-0.075,0.037-0.115,0.053
		c-0.185,0.159-0.38,0.31-0.565,0.457c-1.34,1.013-2.397,2.303-3.652,3.409c0,0.008,0,0.016,0,0.021
		c-5.297,5.67-8.244,13.148-8.224,20.913h4.805c0-14.31,11.604-25.907,25.922-25.907c14.321,0,25.923,11.598,25.923,25.907h4.787
		C110.249,105.065,107.004,97.25,101.224,91.501z M79.502,82.508c-7.159,0-12.963-5.802-12.963-12.957
		c0-7.154,5.806-12.956,12.963-12.956c7.154,0,12.959,5.802,12.959,12.956v0.005C92.455,76.706,86.656,82.502,79.502,82.508z"/>
</g>
</svg>
