<?xml version="1.0" encoding="utf-8"?>
<!-- Generator: Adobe Illustrator 16.0.0, SVG Export Plug-In . SVG Version: 6.00 Build 0)  -->
<!DOCTYPE svg PUBLIC "-//W3C//DTD SVG 1.1//EN" "http://www.w3.org/Graphics/SVG/1.1/DTD/svg11.dtd">
<svg version="1.1" id="Capa_1" xmlns="http://www.w3.org/2000/svg" xmlns:xlink="http://www.w3.org/1999/xlink" x="0px" y="0px"
	 width="160px" height="160px" viewBox="858.75 497.625 160 160" enable-background="new 858.75 497.625 160 160"
	 xml:space="preserve">
<title>visitante</title>
<circle fill="#C5CF55" cx="938.75" cy="577.625" r="80"/>
<title>bag</title>
<g>
	<path fill="#FFFFFF" d="M973.61,581.565c-1.011,0-1.681,0.673-1.681,1.679v21.818c0,1.011-0.67,1.681-1.678,1.681h-60.425
		c-1.01,0-1.678-0.672-1.678-1.681v-21.818c0-1.01-0.673-1.679-1.681-1.679c-1.007,0-1.678,0.673-1.678,1.679v21.818
		c0,2.854,2.181,5.036,5.036,5.036h60.423c2.855,0,5.036-2.183,5.036-5.036v-21.818C975.288,582.238,974.616,581.565,973.61,581.565
		z"/>
	<path fill="#FFFFFF" d="M971.931,558.066h-63.779c-2.854,0-5.036,2.184-5.036,5.035v10.743c0.015,2.317,1.606,4.325,3.858,4.867
		l26.354,5.875v5.37c0,1.01,0.672,1.679,1.678,1.679h10.072c1.01,0,1.678-0.673,1.678-1.679v-5.37l26.354-5.875
		c2.252-0.542,3.846-2.551,3.858-4.868v-10.742C976.967,560.25,974.783,558.066,971.931,558.066z M943.396,588.28h-6.713v-6.715
		h6.713V588.28z M973.61,573.845c0,0.84-0.503,1.513-1.345,1.68l-25.513,5.715v-1.343c0-1.011-0.671-1.68-1.678-1.68h-10.072
		c-1.01,0-1.677,0.672-1.677,1.68v1.343l-25.514-5.715c-0.841-0.167-1.344-0.84-1.344-1.679v-10.742
		c0-1.011,0.672-1.679,1.681-1.679h63.779c1.011,0,1.681,0.671,1.681,1.679L973.61,573.845L973.61,573.845z"/>
	<path fill="#FFFFFF" d="M948.433,546.318h-16.783c-2.859,0-5.035,2.178-5.035,5.035v1.679c0,1.01,0.67,1.679,1.678,1.679
		c1.006,0,1.679-0.673,1.679-1.679v-1.679c0-1.01,0.672-1.68,1.68-1.68h16.783c1.011,0,1.68,0.672,1.68,1.68v1.679
		c0,1.01,0.671,1.679,1.678,1.679s1.679-0.673,1.679-1.679v-1.679C953.468,548.496,951.291,546.318,948.433,546.318z"/>
</g>
</svg>
