<?xml version="1.0" encoding="utf-8"?>
<!-- Generator: Adobe Illustrator 16.0.0, SVG Export Plug-In . SVG Version: 6.00 Build 0)  -->
<!DOCTYPE svg PUBLIC "-//W3C//DTD SVG 1.1//EN" "http://www.w3.org/Graphics/SVG/1.1/DTD/svg11.dtd">
<svg version="1.1" id="Capa_1" xmlns="http://www.w3.org/2000/svg" xmlns:xlink="http://www.w3.org/1999/xlink" x="0px" y="0px"
	 width="612px" height="792px" viewBox="0 0 612 792" enable-background="new 0 0 612 792" xml:space="preserve">
<title>man</title>
<g>
	<path fill="#444444" d="M569.173,299.929c28.679-27.064,29.987-72.253,2.923-100.933c-27.064-28.679-72.254-29.987-100.933-2.923
		s-29.987,72.254-2.923,100.933c3.921,4.155,8.327,7.825,13.123,10.93C467.387,317.42,459.013,333.209,459,350.1v71.4h-40.8v-51
		c-0.057-36.128-27.064-66.534-62.935-70.852c28.542-27.209,29.623-72.404,2.414-100.946s-72.404-29.623-100.946-2.414
		c-28.542,27.209-29.623,72.404-2.414,100.946c0.786,0.824,1.59,1.628,2.414,2.414c-35.87,4.318-62.877,34.723-62.934,70.852v51H153
		v-71.4c-0.012-16.891-8.387-32.68-22.363-42.165c33.101-21.431,42.561-65.638,21.13-98.739
		c-21.431-33.101-65.638-42.561-98.739-21.13c-33.101,21.431-42.561,65.638-21.13,98.739c3.105,4.796,6.774,9.202,10.93,13.123
		C18.202,303.927,0.083,325.152,0,350.1v153c0.041,24.221,17.078,45.085,40.8,49.968V707.1h20.4v-153H153V696.9
		c0,5.633,4.567,10.199,10.2,10.199h61.2c5.633,0,10.2-4.566,10.2-10.199V533.7h61.2v153H255V707.1h102V686.7h-40.8v-153h61.2v163.2
		c0,5.633,4.566,10.199,10.199,10.199h61.2c5.634,0,10.2-4.566,10.2-10.199V554.1h91.8v153h20.4V553.067
		c23.726-4.878,40.765-25.746,40.8-49.968v-153C611.917,325.152,593.798,303.927,569.173,299.929z M469.2,248.1
		c0-28.167,22.833-51,51-51c28.166,0,51,22.833,51,51s-22.834,51-51,51C492.033,299.1,469.2,276.267,469.2,248.1z M255,248.1
		c0-28.167,22.833-51,51-51c28.167,0,51,22.833,51,51s-22.833,51-51,51C277.833,299.1,255,276.267,255,248.1z M321.887,319.5
		L306,361.855L290.113,319.5H321.887z M214.2,370.5c0-28.167,22.833-51,51-51h3.136l28.05,74.983
		c1.96,5.281,7.831,7.973,13.111,6.013c2.784-1.033,4.98-3.229,6.014-6.013l28.05-74.983h3.238c28.167,0,51,22.833,51,51v51H357
		c-5.633,0-10.2,4.566-10.2,10.2v40.8h-81.6v-40.8c0-5.634-4.567-10.2-10.2-10.2h-40.8V370.5z M40.8,248.1c0-28.167,22.833-51,51-51
		s51,22.833,51,51s-22.833,51-51,51S40.8,276.267,40.8,248.1z M214.2,686.7h-40.8V543.9c0-5.634-4.566-10.2-10.2-10.2H51
		c-16.9,0-30.6-13.7-30.6-30.601v-153c0-16.9,13.7-30.6,30.6-30.6h51c16.9,0,30.6,13.7,30.6,30.6v81.6c0,5.633,4.566,10.2,10.2,10.2
		h102v30.6H102v-91.8H81.6v102c0,5.633,4.566,10.2,10.2,10.2h91.8c16.9,0,30.6,13.7,30.6,30.6V686.7z M378.548,513.3H233.453
		c-1.466-7.388-4.559-14.355-9.053-20.399h163.2C383.106,498.944,380.014,505.912,378.548,513.3z M591.6,503.1
		C591.6,520,577.9,533.7,561,533.7H448.8c-5.633,0-10.2,4.566-10.2,10.2v142.8h-40.8V523.5c0-16.899,13.7-30.6,30.601-30.6h91.8
		c5.633,0,10.2-4.567,10.2-10.2v-102H510v91.8H367.2v-30.6h102c5.633,0,10.2-4.567,10.2-10.2v-81.6c0-16.9,13.699-30.6,30.6-30.6h51
		c16.9,0,30.6,13.7,30.6,30.6V503.1z"/>
	<rect x="295.8" y="421.5" fill="#444444" width="20.4" height="20.4"/>
	<path fill="#444444" d="M112.2,156.3H153v20.4c0,5.633,4.567,10.2,10.2,10.2c2.207,0,4.354-0.716,6.12-2.04l38.072-28.56H255
		c5.633,0,10.2-4.566,10.2-10.2v-51c0-5.633-4.567-10.2-10.2-10.2H112.2c-5.633,0-10.2,4.567-10.2,10.2v51
		C102,151.733,106.567,156.3,112.2,156.3z M122.4,105.3h122.4v30.6H204c-2.207,0-4.354,0.716-6.12,2.04L173.4,156.3v-10.2
		c0-5.633-4.566-10.2-10.2-10.2h-40.8V105.3z"/>
	<rect x="357" y="115.5" fill="#444444" width="20.4" height="20.4"/>
	<rect x="397.8" y="115.5" fill="#444444" width="20.4" height="20.4"/>
	<rect x="438.6" y="115.5" fill="#444444" width="20.4" height="20.4"/>
</g>
</svg>
