<?xml version="1.0" encoding="utf-8"?>
<!-- Generator: Adobe Illustrator 16.0.0, SVG Export Plug-In . SVG Version: 6.00 Build 0)  -->
<!DOCTYPE svg PUBLIC "-//W3C//DTD SVG 1.1//EN" "http://www.w3.org/Graphics/SVG/1.1/DTD/svg11.dtd">
<svg version="1.1" id="Capa_1" xmlns="http://www.w3.org/2000/svg" xmlns:xlink="http://www.w3.org/1999/xlink" x="0px" y="0px"
	 width="24.001px" height="24.002px" viewBox="294.007 383.98 24.001 24.002" enable-background="new 294.007 383.98 24.001 24.002"
	 xml:space="preserve">
<title>think</title>
<g>
	<path fill="#0D2F9B" d="M314.046,393.148c-0.188-0.184-0.495-0.184-0.684,0c-0.189,0.183-0.189,0.479,0,0.662l0.021,0.021
		c0.194,0.177,0.501,0.167,0.685-0.021C314.251,393.622,314.241,393.325,314.046,393.148z"/>
	<path fill="#0D2F9B" d="M313.065,392.378c-0.271-0.179-0.554-0.34-0.846-0.483c-1.604-0.783-3.305-0.939-4.918-0.455
		c-0.254,0.08-0.395,0.344-0.313,0.59c0.08,0.244,0.348,0.38,0.601,0.306c1.369-0.412,2.819-0.274,4.195,0.396
		c0.255,0.125,0.501,0.267,0.737,0.422c0.221,0.146,0.521,0.091,0.671-0.125C313.344,392.814,313.286,392.523,313.065,392.378z"/>
	<path fill="#0D2F9B" d="M317.465,398.444c-0.198-0.403-0.525-1.07-0.532-1.291c0.565-1.353,0.359-2.847-0.582-4.214
		c-1.45-2.104-4.417-3.631-7.06-3.631c-1.387-0.002-2.754,0.319-3.986,0.938c-0.412-2.18-2.568-3.624-4.816-3.225
		c-2.247,0.398-3.736,2.489-3.325,4.67c0.212,1.123,0.907,2.104,1.912,2.701c0.356,0.211,0.438,0.396,0.467,0.696v2.743
		c0,0.524,0.438,0.948,0.979,0.949h0.164c0.264,2.052,1.301,3.937,2.916,5.288c0.015,0.047,0.06,0.264-0.133,0.911
		c-0.15,0.505-0.379,1.064-0.58,1.56c-0.135,0.331-0.252,0.617-0.322,0.833c-0.08,0.247,0.062,0.51,0.315,0.588
		c0.048,0.015,0.097,0.021,0.146,0.021h6.897c0.229,0,0.538-0.1,0.734-0.567c0.086-0.204,0.141-0.45,0.2-0.71
		c0.059-0.26,0.192-0.847,0.326-0.918c0.009-0.001,0.018-0.001,0.025,0c0.025,0.004,0.05,0.006,0.075,0.006
		c0.726,0,1.313,0.031,1.837,0.061c1.528,0.082,2.451,0.132,3.26-0.998c0.412-0.575,0.365-1.413,0.316-2.302
		c-0.025-0.457-0.052-0.93-0.006-1.321c0.137-0.111,0.278-0.215,0.429-0.311c0.455-0.303,0.886-0.59,0.886-1.024
		C318.006,399.566,317.8,399.13,317.465,398.444z M299.578,393.594c-1.495-0.886-1.967-2.779-1.053-4.229s2.867-1.906,4.361-1.02
		c1.495,0.885,1.967,2.778,1.053,4.229c-0.264,0.416-0.623,0.766-1.053,1.02c-0.451,0.268-0.72,0.581-0.848,1.004h-1.614
		C300.301,394.175,300.029,393.861,299.578,393.594z M301.958,395.536v0.686h-1.451v-0.686H301.958z M300.52,397.845
		c-0.006-0.001-0.012-0.006-0.013-0.012v-0.674h1.451v0.674c-0.001,0.006-0.005,0.011-0.013,0.012H300.52z M316.571,400.151
		c-0.417,0.275-0.774,0.516-0.829,0.878c-0.073,0.497-0.042,1.046-0.014,1.576c0.036,0.658,0.078,1.406-0.146,1.716
		c-0.48,0.672-0.896,0.679-2.412,0.597c-0.499-0.026-1.119-0.06-1.854-0.061c-0.282-0.033-0.762,0.019-1.079,0.619
		c-0.162,0.306-0.249,0.688-0.326,1.026c-0.038,0.184-0.086,0.364-0.146,0.541h-6.048l0.065-0.159
		c0.697-1.701,1.138-2.948,0.466-3.511c-1.411-1.175-2.332-2.809-2.591-4.594h0.29c0.541-0.001,0.978-0.427,0.979-0.949v-2.741
		c0.028-0.301,0.108-0.484,0.467-0.697c1.133-0.666,1.864-1.822,1.965-3.104c1.189-0.686,2.549-1.045,3.933-1.044
		c2.303,0,4.992,1.382,6.253,3.213c0.54,0.785,1.063,2.006,0.48,3.367c-0.189,0.441,0.092,1.057,0.564,2.021
		c0.154,0.313,0.377,0.766,0.437,0.978C316.882,399.942,316.73,400.052,316.571,400.151L316.571,400.151z"/>
	<path fill="#0D2F9B" d="M303.604,390.307c-0.145-0.516-0.498-0.924-1.026-1.188c-0.237-0.119-0.529-0.028-0.651,0.202
		c-0.123,0.229-0.029,0.513,0.208,0.631c0.291,0.145,0.464,0.34,0.537,0.6c0.114,0.41-0.06,0.854-0.134,0.969
		c-0.139,0.222-0.066,0.51,0.162,0.645c0.221,0.13,0.509,0.068,0.652-0.141C303.559,391.71,303.796,390.994,303.604,390.307z"/>
	<path fill="#0D2F9B" d="M301.232,383.98c-0.267,0-0.483,0.211-0.483,0.47v1.336c0,0.259,0.217,0.469,0.483,0.469
		c0.268,0,0.483-0.21,0.483-0.469v-1.336C301.716,384.191,301.5,383.98,301.232,383.98z"/>
	<path fill="#0D2F9B" d="M295.868,390.52h-1.378c-0.268,0-0.483,0.209-0.483,0.469c0,0.259,0.216,0.469,0.483,0.469h1.378
		c0.267,0,0.483-0.21,0.483-0.469C296.352,390.729,296.135,390.52,295.868,390.52z"/>
	<path fill="#0D2F9B" d="M298.969,386.249l-0.689-1.157c-0.135-0.223-0.43-0.298-0.661-0.167c-0.228,0.13-0.306,0.413-0.177,0.636
		l0.689,1.157c0.133,0.226,0.428,0.304,0.66,0.177c0.232-0.129,0.313-0.414,0.182-0.64
		C298.971,386.252,298.971,386.25,298.969,386.249z"/>
	<path fill="#0D2F9B" d="M296.828,387.98l-1.193-0.668c-0.232-0.127-0.527-0.049-0.658,0.176c-0.131,0.224-0.054,0.507,0.176,0.637
		l1.193,0.668c0.072,0.042,0.156,0.063,0.241,0.063c0.267,0,0.483-0.209,0.483-0.467C297.07,388.221,296.979,388.064,296.828,387.98
		z"/>
	<path fill="#0D2F9B" d="M307.491,387.484c-0.133-0.225-0.429-0.301-0.66-0.172l-1.194,0.668c-0.232,0.129-0.313,0.414-0.181,0.64
		s0.427,0.304,0.659,0.176c0.002-0.001,0.004-0.002,0.006-0.003l1.193-0.668C307.546,387.996,307.625,387.709,307.491,387.484z"/>
	<path fill="#0D2F9B" d="M297.005,393.357c-0.133-0.225-0.429-0.301-0.659-0.172l-1.195,0.666c-0.23,0.129-0.311,0.416-0.176,0.641
		c0.133,0.224,0.428,0.301,0.66,0.172l0,0l1.193-0.668C297.059,393.866,297.137,393.581,297.005,393.357z"/>
	<path fill="#0D2F9B" d="M298.691,395.254c-0.23-0.129-0.526-0.052-0.659,0.172l-0.591,0.99c-0.135,0.223-0.058,0.511,0.174,0.642
		c0.23,0.132,0.525,0.057,0.662-0.168c0-0.002,0.002-0.003,0.002-0.005l0.59-0.99C299.003,395.67,298.924,395.384,298.691,395.254z"
		/>
	<path fill="#0D2F9B" d="M304.846,384.919c-0.23-0.129-0.527-0.053-0.66,0.172l-0.688,1.158c-0.136,0.224-0.058,0.51,0.172,0.642
		c0.229,0.131,0.526,0.057,0.662-0.166c0.001-0.002,0.002-0.004,0.003-0.006l0.689-1.156
		C305.157,385.336,305.078,385.049,304.846,384.919L304.846,384.919z"/>
</g>
</svg>
