<svg xmlns="http://www.w3.org/2000/svg" width="18" height="14" fill="none" viewBox="0 0 18 14">
    <path fill="#676767" d="M16.216 5.678l.027.006H4.746L8.36 2.13c.177-.173.274-.408.274-.655 0-.246-.097-.48-.274-.654L7.797.27C7.621.096 7.385 0 7.134 0c-.252 0-.488.095-.664.269L.274 6.346C.096 6.52-.001 6.752 0 7c0 .248.096.48.274.654l6.196 6.078c.176.174.412.269.664.269.251 0 .487-.095.663-.269l.563-.552c.177-.173.274-.404.274-.65 0-.247-.097-.467-.274-.64L4.705 8.316h11.524c.518 0 .953-.438.953-.946v-.78c0-.508-.448-.912-.966-.912z"/>
</svg>
