<?xml version="1.0" encoding="utf-8"?>
<!-- Generator: Adobe Illustrator 16.0.0, SVG Export Plug-In . SVG Version: 6.00 Build 0)  -->
<!DOCTYPE svg PUBLIC "-//W3C//DTD SVG 1.1//EN" "http://www.w3.org/Graphics/SVG/1.1/DTD/svg11.dtd">
<svg version="1.1" id="Capa_1" xmlns="http://www.w3.org/2000/svg" xmlns:xlink="http://www.w3.org/1999/xlink" x="0px" y="0px"
	 width="53.275px" height="53.275px" viewBox="0 0 53.275 53.275" enable-background="new 0 0 53.275 53.275" xml:space="preserve">
<g>
	<g>
		<path fill="#8E8E8E" d="M52.735,47.92L40.414,35.6V8.227c0-1.839-1.489-3.329-3.33-3.329h-22.31
			c-0.515-2.532-2.753-4.439-5.438-4.439c-2.685,0-4.924,1.907-5.438,4.439H3.787c-1.84,0-3.33,1.49-3.33,3.329v42.177
			c0,1.84,1.49,3.33,3.33,3.33h33.297c1.841,0,3.33-1.49,3.33-3.33V45.23l7.507,7.505c0.64,0.642,1.505,1,2.408,0.999
			c0.903,0,1.771-0.358,2.408-0.998C54.066,51.406,54.065,49.248,52.735,47.92z M9.335,2.676c1.45,0,2.685,0.928,3.142,2.221H6.198
			C6.655,3.603,7.887,2.676,9.335,2.676z M38.195,50.403c0,0.613-0.497,1.11-1.11,1.11H3.787c-0.612,0-1.108-0.497-1.108-1.11V8.226
			c0-0.613,0.496-1.108,1.108-1.108h8.879v12.209c0,0.611-0.497,1.108-1.108,1.108c-0.612,0-1.109-0.497-1.109-1.108v-9.99h-2.22
			v9.989c0,1.839,1.489,3.328,3.33,3.328c1.839,0,3.329-1.489,3.329-3.328V7.116h22.197c0.612,0,1.109,0.495,1.109,1.108v25.151
			l-3.33-3.33V10.445c0-0.611-0.497-1.108-1.108-1.108H17.107v2.22h15.539v16.517l-6.163-3.075c-0.313-0.156-0.683-0.156-0.994,0
			c-0.06,0.029-0.114,0.064-0.166,0.104l-0.002-0.002l-3.15,2.359l-1.773-6.215c-0.052-0.185-0.149-0.349-0.283-0.481
			c-0.434-0.434-1.136-0.433-1.569,0l-3.005,3.005H7.12c-0.611,0-1.107,0.497-1.107,1.11v23.308c0,0.613,0.496,1.11,1.107,1.11
			h26.639c0.612,0,1.109-0.497,1.109-1.11v-8.504l3.33,3.33v7.395h-0.003V50.403z M29.534,30.603l-1.068-2.139l2.14,1.069
			L29.534,30.603z M32.645,37.459v9.614H8.227V25.985h7.77c0.294,0,0.575-0.115,0.783-0.322l1.998-1.997l1.7,5.954
			c0.037,0.131,0.099,0.254,0.18,0.361c0.368,0.489,1.063,0.59,1.556,0.223l3.372-2.53l2.652,5.306l0.003-0.001
			c0.052,0.104,0.12,0.198,0.205,0.284L32.645,37.459z M30.8,32.477l1.678-1.678l14.662,14.662l-1.679,1.677L30.8,32.477z
			 M51.166,51.166c-0.463,0.464-1.214,0.464-1.677,0l-2.459-2.458l1.678-1.677l2.458,2.458C51.63,49.952,51.63,50.703,51.166,51.166
			z"/>
	</g>
</g>
</svg>
