<?xml version="1.0" encoding="utf-8"?>
<!-- Generator: Adobe Illustrator 16.0.0, SVG Export Plug-In . SVG Version: 6.00 Build 0)  -->
<svg version="1.2" baseProfile="tiny" id="Capa_1" xmlns="http://www.w3.org/2000/svg" xmlns:xlink="http://www.w3.org/1999/xlink"
	 x="0px" y="0px" width="136.06px" height="345.83px" viewBox="0 0 136.06 345.83" xml:space="preserve">
<path fill="#48C0E8" stroke="#4CC2F0" stroke-miterlimit="10" d="M130.165,329.146c0,6.627-5.373,12-12,12h-99
	c-6.627,0-12-5.373-12-12v-310c0-6.627,5.373-12,12-12h99c6.627,0,12,5.373,12,12V329.146z"/>
<text transform="matrix(4.489659e-011 -1 1 4.489659e-011 90.165 266.1465)" fill="#FFFFFF" font-family="'MyriadPro-Regular'" font-size="72">N</text>
<text transform="matrix(4.489659e-011 -1 1 4.489659e-011 90.165 218.7715)" fill="#FFFFFF" font-family="'MyriadPro-Regular'" font-size="72">u</text>
<text transform="matrix(4.489659e-011 -1 1 4.489659e-011 90.165 179.0996)" fill="#FFFFFF" font-family="'MyriadPro-Regular'" font-size="72">e</text>
<text transform="matrix(4.489659e-011 -1 1 4.489659e-011 90.165 143.0283)" fill="#FFFFFF" font-family="'MyriadPro-Regular'" font-size="72">v</text>
<text transform="matrix(4.489659e-011 -1 1 4.489659e-011 90.165 109.1172)" fill="#FFFFFF" font-family="'MyriadPro-Regular'" font-size="72">o</text>
</svg>
