<svg xmlns="http://www.w3.org/2000/svg" width="20" height="20" fill="none" viewBox="0 0 20 20">
    <g clip-path="url(#clip0)">
        <path fill="#fff" d="M10.006 17.537c-2.43 0-4.662-.874-6.634-2.598C1.768 13.536.74 11.896.27 11.044c-.362-.656-.359-1.438.009-2.092.478-.851 1.52-2.488 3.126-3.89C5.381 3.335 7.602 2.46 10.006 2.46c2.405 0 4.625.875 6.6 2.602 1.603 1.403 2.642 3.04 3.118 3.892.365.652.368 1.432.009 2.086-.218.395-.581 1.009-1.081 1.687-.256.347-.745.42-1.093.165-.347-.256-.42-.745-.165-1.093.45-.608.775-1.158.97-1.511.098-.18.097-.393-.003-.571-.958-1.712-3.69-5.695-8.355-5.695-4.665 0-7.405 3.982-8.366 5.694-.1.179-.102.393-.003.572.943 1.71 3.646 5.685 8.369 5.685 1.739 0 3.372-.543 4.854-1.615.35-.253.838-.175 1.09.175.253.35.175.838-.175 1.09-1.753 1.27-3.695 1.913-5.77 1.913zm4.603-7.538c0-2.541-2.068-4.609-4.609-4.609S5.392 7.458 5.392 10 7.459 14.607 10 14.607c2.541 0 4.609-2.067 4.609-4.608zm-1.563 0c0 1.68-1.366 3.046-3.046 3.046-1.68 0-3.046-1.366-3.046-3.046 0-1.68 1.366-3.046 3.046-3.046 1.68 0 3.046 1.366 3.046 3.046zm-2.17.212c-.599-.04-1.076-.54-1.09-1.141v-.015c-.004-.341-.382-.54-.664-.348-.444.302-.724.828-.68 1.415.06.761.674 1.376 1.435 1.434.587.046 1.113-.235 1.415-.68.192-.28-.007-.659-.348-.662l-.068-.003z"/>
    </g>
    <defs>
        <clipPath id="clip0">
            <path fill="#fff" d="M0 0H20V20H0z"/>
        </clipPath>
    </defs>
</svg>
