<svg xmlns="http://www.w3.org/2000/svg" width="15" height="15" fill="none" viewBox="0 0 15 15">
    <path fill="#fff" d="M6.338 6.973v-5.81C6.338.52 6.858 0 7.5 0c.641 0 1.162.52 1.162 1.162v5.811c0 .641-.52 1.162-1.162 1.162-.641 0-1.162-.52-1.162-1.162zm5.769-5.269c-.377-.298-.926-.233-1.224.145-.298.377-.233.925.144 1.224 1.383 1.09 2.175 2.724 2.175 4.482 0 3.144-2.558 5.702-5.701 5.702-3.144 0-5.703-2.558-5.703-5.702 0-1.758.792-3.39 2.173-4.48.378-.298.443-.846.145-1.225-.298-.377-.846-.442-1.225-.144C1.09 3.129.055 5.26.055 7.555.055 11.66 3.395 15 7.5 15s7.445-3.34 7.445-7.445c0-2.296-1.035-4.428-2.838-5.85z"/>
</svg>
