<?xml version="1.0" encoding="utf-8"?>
<!-- Generator: Adobe Illustrator 16.0.0, SVG Export Plug-In . SVG Version: 6.00 Build 0)  -->
<!DOCTYPE svg PUBLIC "-//W3C//DTD SVG 1.1//EN" "http://www.w3.org/Graphics/SVG/1.1/DTD/svg11.dtd">
<svg version="1.1" id="Capa_1" xmlns="http://www.w3.org/2000/svg" xmlns:xlink="http://www.w3.org/1999/xlink" x="0px" y="0px"
	 width="24px" height="24.002px" viewBox="0 -0.001 24 24.002" enable-background="new 0 -0.001 24 24.002" xml:space="preserve">
<g>
	<title>visitante</title>
	<path fill="#FFFFFF" d="M20.486,15.517c-1.283-1.288-2.842-2.268-4.561-2.862c3.16-2.167,3.965-6.484,1.797-9.644
		c-2.17-3.158-6.488-3.962-9.648-1.795S4.109,7.7,6.277,10.859c0.482,0.702,1.092,1.313,1.797,1.795
		c-1.133,0.391-2.201,0.95-3.166,1.662c-0.002-0.009-0.002-0.017-0.004-0.023c-0.014,0.008-0.029,0.015-0.045,0.02
		c-0.072,0.063-0.148,0.122-0.221,0.179c-0.523,0.396-0.936,0.9-1.426,1.332c0,0.003,0,0.006,0,0.008
		c-2.07,2.215-3.221,5.137-3.213,8.17h1.877c0-5.59,4.533-10.121,10.127-10.121s10.127,4.531,10.127,10.121H24
		C24.012,20.816,22.744,17.762,20.486,15.517z M12,12.003c-2.797,0-5.064-2.266-5.064-5.061c0-2.796,2.268-5.062,5.064-5.062
		c2.795,0,5.063,2.266,5.063,5.062v0.001C17.061,9.737,14.795,12.001,12,12.003z"/>
</g>
</svg>
