<?xml version="1.0" encoding="utf-8"?>
<!-- Generator: Adobe Illustrator 16.0.0, SVG Export Plug-In . SVG Version: 6.00 Build 0)  -->
<!DOCTYPE svg PUBLIC "-//W3C//DTD SVG 1.1//EN" "http://www.w3.org/Graphics/SVG/1.1/DTD/svg11.dtd">
<svg version="1.1" id="Capa_1" xmlns="http://www.w3.org/2000/svg" xmlns:xlink="http://www.w3.org/1999/xlink" x="0px" y="0px"
	 width="24px" height="24.003px" viewBox="360.789 482.538 24 24.003" enable-background="new 360.789 482.538 24 24.003"
	 xml:space="preserve">
<title>visitante</title>
<g>
	<path fill="#0D2F9B" d="M381.273,498.057c-1.281-1.288-2.842-2.268-4.561-2.862c3.16-2.167,3.965-6.484,1.797-9.644
		c-2.17-3.158-6.488-3.962-9.648-1.795s-3.965,6.484-1.795,9.644c0.48,0.702,1.092,1.313,1.795,1.795
		c-1.133,0.391-2.199,0.95-3.164,1.662c-0.002-0.009-0.004-0.017-0.006-0.023c-0.014,0.008-0.027,0.015-0.045,0.02
		c-0.072,0.063-0.146,0.122-0.221,0.179c-0.521,0.396-0.936,0.9-1.424,1.332c0,0.003,0,0.006,0,0.008
		c-2.072,2.215-3.221,5.137-3.213,8.17h1.875c0-5.59,4.535-10.121,10.127-10.121c5.594,0,10.127,4.531,10.127,10.121h1.871
		C384.798,503.356,383.533,500.302,381.273,498.057z M372.787,494.543c-2.797,0-5.064-2.266-5.064-5.061
		c0-2.796,2.27-5.062,5.064-5.062c2.797,0,5.063,2.266,5.063,5.062v0.001C377.847,492.277,375.582,494.541,372.787,494.543z"/>
</g>
</svg>
