<?xml version="1.0" encoding="utf-8"?>
<!-- Generator: Adobe Illustrator 16.0.0, SVG Export Plug-In . SVG Version: 6.00 Build 0)  -->
<!DOCTYPE svg PUBLIC "-//W3C//DTD SVG 1.1//EN" "http://www.w3.org/Graphics/SVG/1.1/DTD/svg11.dtd">
<svg version="1.1" id="Capa_1" xmlns="http://www.w3.org/2000/svg" xmlns:xlink="http://www.w3.org/1999/xlink" x="0px" y="0px"
	 width="25px" height="25px" viewBox="0 0 25 25" enable-background="new 0 0 25 25" xml:space="preserve">
<g>
	<defs>
		<rect id="SVGID_1_" width="25" height="25"/>
	</defs>
	<clipPath id="SVGID_2_">
		<use xlink:href="#SVGID_1_"  overflow="visible"/>
	</clipPath>
	<g clip-path="url(#SVGID_2_)">
		<path d="M17.967,25c-0.807,0-1.607-0.143-2.39-0.427c-3.446-1.253-6.646-3.292-9.252-5.898C3.719,16.07,1.679,12.87,0.427,9.422
			C0.025,8.314-0.094,7.171,0.074,6.023c0.158-1.075,0.574-2.118,1.204-3.018c0.633-0.903,1.477-1.654,2.44-2.172
			C4.746,0.28,5.868,0,7.052,0C7.42,0,7.738,0.257,7.815,0.618L9.042,6.34C9.097,6.599,9.018,6.869,8.83,7.056L6.735,9.151
			c1.977,3.93,5.184,7.137,9.115,9.115l2.094-2.096c0.188-0.188,0.457-0.268,0.717-0.212l5.722,1.226
			C24.742,17.262,25,17.58,25,17.948c0,1.185-0.279,2.306-0.833,3.334c-0.519,0.963-1.271,1.807-2.173,2.44
			c-0.898,0.629-1.942,1.045-3.018,1.203C18.641,24.977,18.303,25,17.967,25z M6.427,1.597c-1.562,0.172-2.948,0.99-3.87,2.305
			C1.522,5.38,1.281,7.197,1.895,8.889c2.408,6.626,7.59,11.808,14.216,14.216c1.691,0.613,3.51,0.373,4.986-0.664
			c1.314-0.92,2.133-2.307,2.305-3.869l-4.654-0.997l-2.188,2.188c-0.233,0.232-0.588,0.295-0.885,0.154
			c-4.648-2.184-8.41-5.945-10.594-10.593C4.942,9.027,5.004,8.673,5.237,8.44l2.188-2.188L6.427,1.597z M24.218,13.28
			c-0.431,0-0.78-0.35-0.78-0.78c0-6.031-4.906-10.938-10.938-10.938c-0.431,0-0.781-0.35-0.781-0.78C11.719,0.35,12.069,0,12.5,0
			c3.339,0,6.479,1.3,8.838,3.661C23.7,6.021,25,9.161,25,12.499C25,12.931,24.65,13.281,24.218,13.28L24.218,13.28z"/>
		<path d="M21.093,13.28c-0.431,0-0.78-0.349-0.78-0.78c0-4.308-3.504-7.813-7.813-7.813c-0.431,0-0.781-0.35-0.781-0.78
			c0-0.432,0.35-0.782,0.781-0.782c5.17,0,9.375,4.205,9.375,9.375C21.875,12.931,21.525,13.28,21.093,13.28z"/>
		<path d="M17.968,13.281c-0.43,0-0.78-0.35-0.78-0.781c0-2.585-2.103-4.688-4.688-4.688c-0.431,0-0.781-0.35-0.781-0.78
			c0-0.432,0.35-0.782,0.781-0.782c3.445,0,6.25,2.804,6.25,6.25C18.75,12.931,18.4,13.281,17.968,13.281z"/>
	</g>
</g>
</svg>
