<svg xmlns="http://www.w3.org/2000/svg" width="21" height="21" fill="none" viewBox="0 0 21 21">
    <g clip-path="url(#clip0)">
        <path fill="#58C25D" d="M3.4 12.76c.14.094.298.139.455.139.264 0 .524-.128.682-.365 1.326-1.98 3.541-3.163 5.927-3.163 2.38 0 4.591 1.177 5.918 3.149.253.376.762.476 1.138.223.376-.253.476-.763.223-1.139-1.06-1.575-2.58-2.738-4.316-3.36 1.042-.85 1.708-2.143 1.708-3.59C15.135 2.1 13.055.02 10.5.02c-2.556 0-4.635 2.079-4.635 4.634 0 1.436.657 2.722 1.685 3.572-1.764.62-3.306 1.796-4.376 3.396-.252.376-.151.886.225 1.138zm7.1-11.1c1.651 0 2.994 1.343 2.994 2.994 0 1.651-1.343 2.994-2.994 2.994-1.651 0-2.994-1.343-2.994-2.994 0-1.65 1.343-2.994 2.994-2.994zm3.271 12.884l-1.223.883c-.181.13-.258.364-.188.576l.492 1.427c.021.064.03.126.026.185-.017.384-.498.646-.85.392l-1.223-.883c-.09-.065-.198-.098-.305-.098-.107 0-.214.033-.305.098l-1.223.883c-.352.254-.835-.008-.85-.392-.003-.059.005-.121.026-.185l.492-1.427c.07-.213-.006-.445-.188-.576l-1.223-.883c-.407-.293-.198-.99.305-.99h1.511c.225 0 .425-.086.494-.298l.467-1.437c.078-.237.286-.356.494-.356.208 0 .416.119.494.356l.467 1.437c.07.212.269.299.494.299h1.511c.503 0 .712.696.305.99zm7.014 2.872l-1.223.882c-.182.13-.258.364-.189.576l.493 1.427c.02.064.029.126.026.185-.017.384-.498.646-.85.392l-1.223-.883c-.091-.065-.198-.098-.305-.098-.107 0-.215.033-.305.098l-1.223.883c-.353.254-.836-.008-.85-.392-.003-.059.005-.121.026-.185l.492-1.427c.07-.212-.007-.445-.189-.576l-1.223-.882c-.407-.294-.197-.99.305-.99h1.512c.225 0 .424-.087.494-.3l.467-1.436c.078-.237.286-.356.494-.356.208 0 .416.119.494.356l.466 1.437c.07.212.27.299.494.299h1.512c.503 0 .712.696.305.99zm-14.027 0l-1.223.882c-.182.13-.258.364-.189.576l.493 1.427c.02.064.028.126.026.185-.018.384-.498.646-.85.392l-1.224-.883c-.09-.065-.198-.098-.305-.098-.107 0-.214.033-.305.098l-1.223.883c-.352.254-.835-.008-.85-.392-.003-.059.006-.121.026-.185l.493-1.427c.069-.212-.007-.445-.19-.576l-1.222-.882c-.407-.294-.198-.99.305-.99h1.512c.225 0 .424-.087.494-.3l.467-1.436c.077-.237.285-.356.493-.356.208 0 .416.119.494.356l.467 1.437c.07.212.269.299.494.299h1.511c.503 0 .713.696.306.99z"/>
    </g>
    <defs>
        <clipPath id="clip0">
            <path fill="#fff" d="M0 0H21V21H0z"/>
        </clipPath>
    </defs>
</svg>
