<?xml version="1.0" encoding="utf-8"?>
<!-- Generator: Adobe Illustrator 16.0.0, SVG Export Plug-In . SVG Version: 6.00 Build 0)  -->
<!DOCTYPE svg PUBLIC "-//W3C//DTD SVG 1.1//EN" "http://www.w3.org/Graphics/SVG/1.1/DTD/svg11.dtd">
<svg version="1.1" id="Capa_1" xmlns="http://www.w3.org/2000/svg" xmlns:xlink="http://www.w3.org/1999/xlink" x="0px" y="0px"
	 width="612px" height="753.956px" viewBox="0 19.022 612 753.956" enable-background="new 0 19.022 612 753.956"
	 xml:space="preserve">
<title>rejected</title>
<g>
	<g>
		<path fill="#ED902B" d="M605.535,214.771L416.251,25.487c-4.141-4.138-9.755-6.463-15.609-6.465h-319.4
			C36.394,19.071,0.049,55.416,0,100.264v591.473c0.049,44.848,36.394,81.192,81.242,81.241h449.516
			c44.849-0.049,81.193-36.393,81.242-81.241V230.38C611.999,224.526,609.674,218.912,605.535,214.771L605.535,214.771z
			 M422.73,94.433L536.59,208.292h-76.81c-20.452-0.024-37.025-16.598-37.05-37.05V94.433z M530.758,728.801H81.242
			c-20.46-0.024-37.04-16.604-37.064-37.064V100.264c0.024-20.46,16.604-37.04,37.064-37.064h297.312v108.042
			c0.049,44.84,36.387,81.178,81.227,81.227h108.043v439.268C567.799,712.196,551.219,728.776,530.758,728.801z"/>
		<path fill="#ED902B" d="M306,302.934c-103.668,0-187.708,84.04-187.708,187.709c0,103.668,84.04,187.708,187.708,187.708
			c103.669,0,187.708-84.04,187.708-187.708c0-0.001,0-0.001,0-0.001C493.595,387.021,409.621,303.047,306,302.934z M306,634.158
			c-79.27,0-143.531-64.261-143.531-143.531c0-79.27,64.261-143.531,143.531-143.531c79.271,0,143.531,64.262,143.531,143.531
			c0,0.005,0,0.01,0,0.015C449.434,569.869,385.228,634.069,306,634.158z"/>
	</g>
	<path fill="#ED902B" d="M371.81,424.833c-8.624-8.629-22.609-8.634-31.238-0.01c-0.003,0.003-0.007,0.006-0.01,0.01L306,459.395
		l-34.576-34.562c-8.774-8.475-22.758-8.231-31.233,0.543c-8.268,8.56-8.268,22.13,0,30.69l34.576,34.575l-34.576,34.562
		c-8.645,8.625-8.662,22.625-0.037,31.271c8.625,8.645,22.625,8.661,31.27,0.036l0,0L306,521.875l34.562,34.635
		c8.629,8.629,22.619,8.629,31.248,0c8.628-8.629,8.628-22.619,0-31.248l-34.576-34.561l34.576-34.576
		c8.641-8.611,8.665-22.597,0.054-31.238C371.846,424.869,371.827,424.851,371.81,424.833z"/>
</g>
</svg>
