<svg xmlns="http://www.w3.org/2000/svg" width="20" height="20" fill="none" viewBox="0 0 20 20">
    <path fill="#fff" d="M17.906 14.87c-.347-.257-.836-.185-1.094.16-.141.191-.293.378-.45.556-.286.323-.255.817.068 1.103.148.131.333.196.517.196.216 0 .431-.09.586-.264.186-.21.365-.432.533-.658.258-.346.186-.835-.16-1.093zM19.212 11.207c-.42-.092-.837.175-.93.597-.05.232-.11.464-.18.69-.128.413.103.85.515.977.077.024.155.035.231.035.334 0 .643-.215.746-.55.083-.27.156-.545.216-.82.091-.421-.176-.838-.598-.93zM14.147 17.372c-.207.116-.422.224-.638.322-.393.178-.568.64-.39 1.034.13.288.414.46.712.46.107 0 .216-.023.32-.07.257-.116.512-.244.758-.381.377-.21.511-.687.301-1.063-.21-.377-.686-.512-1.063-.302zM9.219 3.75v5.926l-2.865 2.865c-.305.305-.305.8 0 1.105.152.153.352.229.552.229.2 0 .4-.076.553-.229l3.093-3.094c.147-.146.23-.345.23-.552V3.75c0-.431-.35-.781-.782-.781-.432 0-.781.35-.781.781z"/>
    <path fill="#fff" d="M19.219 1.68c-.432 0-.782.35-.782.78v2.17C16.62 1.778 13.444 0 10 0 7.329 0 4.818 1.04 2.929 2.929 1.04 4.818 0 7.329 0 10c0 2.671 1.04 5.182 2.929 7.071C4.818 18.96 7.329 20 10 20l.02-.001.02.001c.28 0 .565-.012.844-.035.43-.036.75-.414.714-.844-.036-.43-.414-.75-.844-.713-.236.02-.477.03-.715.03H10c-4.652 0-8.438-3.785-8.438-8.438 0-4.652 3.786-8.438 8.438-8.438 2.998 0 5.756 1.599 7.263 4.141h-2.148c-.431 0-.781.35-.781.781 0 .432.35.782.781.782H17.5c.476 0 .92-.134 1.3-.366.024-.014.048-.029.07-.045.68-.447 1.13-1.216 1.13-2.09V2.462c0-.432-.35-.781-.781-.781z"/>
</svg>
