<?xml version="1.0" encoding="utf-8"?>
<!-- Generator: Adobe Illustrator 16.0.0, SVG Export Plug-In . SVG Version: 6.00 Build 0)  -->
<!DOCTYPE svg PUBLIC "-//W3C//DTD SVG 1.1//EN" "http://www.w3.org/Graphics/SVG/1.1/DTD/svg11.dtd">
<svg version="1.1" id="Capa_1" xmlns="http://www.w3.org/2000/svg" xmlns:xlink="http://www.w3.org/1999/xlink" x="0px" y="0px"
	 width="54.19px" height="54.19px" viewBox="727.494 941.633 54.19 54.19" enable-background="new 727.494 941.633 54.19 54.19"
	 xml:space="preserve">
<g>
	<g>
		<g>
			<path d="M771.525,946.147H733.14c-3.117,0.004-5.642,2.53-5.646,5.646v38.385c0.004,3.117,2.528,5.642,5.646,5.646h31.61
				c3.117-0.004,5.642-2.528,5.646-5.646v-24.836h1.129c3.115-0.004,5.64-2.53,5.644-5.646v-7.903
				C777.164,948.678,774.64,946.151,771.525,946.147z M774.91,959.696c0,1.87-1.516,3.386-3.386,3.386h-2.258
				c-0.624,0-1.131,0.507-1.131,1.131v25.965c0,1.872-1.516,3.388-3.386,3.388h-31.61c-1.872,0-3.388-1.516-3.388-3.388v-38.385
				c0-1.869,1.516-3.386,3.388-3.386h38.385c1.87,0,3.386,1.517,3.386,3.386V959.696z"/>
		</g>
	</g>
	<g>
		<g>
			<rect x="768.138" y="955.18" width="2.258" height="9.031"/>
		</g>
	</g>
	<g>
		<g>
			<path d="M737.896,941.639c-0.081-0.004-0.162-0.006-0.241-0.006c-2.494,0-4.517,2.022-4.515,4.515v1.131h2.258v-1.131
				c-0.004-0.62,0.252-1.215,0.703-1.641c0.452-0.427,1.058-0.65,1.677-0.616c1.243,0.133,2.172,1.202,2.135,2.449v12.228
				c0,1.247-1.01,2.258-2.258,2.258c-1.247,0-2.257-1.011-2.257-2.258v-7.903h-2.258v7.903c0,2.495,2.021,4.515,4.515,4.515
				c2.495,0,4.518-2.02,4.518-4.515V946.34C742.223,943.885,740.345,941.819,737.896,941.639z"/>
		</g>
	</g>
	<g>
		<g>
			<path d="M759.105,954.051h-14.676v2.26h14.676c0.624,0,1.131,0.504,1.131,1.128v19.192c0,0.623-0.507,1.129-1.131,1.129h-20.321
				c-0.623,0-1.129-0.506-1.129-1.129v-11.289h-2.257v11.289c0,1.87,1.516,3.387,3.386,3.387h20.321
				c1.872,0,3.388-1.517,3.388-3.387v-19.192C762.492,955.567,760.977,954.051,759.105,954.051z"/>
		</g>
	</g>
	<g>
		<g>
			<path d="M748.944,959.696c-2.492,0-4.515,2.022-4.515,4.517c0,2.493,2.022,4.515,4.515,4.515c2.495,0,4.518-2.021,4.518-4.515
				C753.461,961.719,751.439,959.696,748.944,959.696z M748.944,966.471c-1.247,0-2.257-1.013-2.257-2.258
				c0-1.247,1.01-2.259,2.257-2.259c1.248,0,2.26,1.012,2.26,2.259C751.203,965.458,750.192,966.471,748.944,966.471z"/>
		</g>
	</g>
	<g>
		<g>
			<path d="M750.074,967.6h-2.259c-3.74,0.004-6.771,3.034-6.774,6.774h2.259c0-2.495,2.022-4.518,4.516-4.518h2.259
				c2.493,0,4.516,2.022,4.516,4.518h2.257C756.843,970.634,753.813,967.604,750.074,967.6z"/>
		</g>
	</g>
	<g>
		<g>
			<path d="M778.299,941.633h-30.483c-1.87,0-3.387,1.517-3.387,3.386v2.26h2.258v-2.26c0-0.622,0.506-1.128,1.129-1.128h30.483
				c0.622,0,1.128,0.506,1.128,1.128v41.772c0,0.623-0.506,1.129-1.128,1.129h-9.032v2.258h9.032c1.869,0,3.386-1.517,3.386-3.387
				v-41.772C781.685,943.149,780.168,941.633,778.299,941.633z"/>
		</g>
	</g>
	<g>
		<g>
			<rect x="769.267" y="982.276" width="6.772" height="2.258"/>
		</g>
	</g>
	<g>
		<g>
			<rect x="769.267" y="976.631" width="6.772" height="2.258"/>
		</g>
	</g>
	<g>
		<g>
			<rect x="769.267" y="970.985" width="6.772" height="2.258"/>
		</g>
	</g>
	<g>
		<g>
			<rect x="732.009" y="989.049" width="11.291" height="2.258"/>
		</g>
	</g>
	<g>
		<g>
			<rect x="732.009" y="984.534" width="6.774" height="2.257"/>
		</g>
	</g>
	<g>
		<g>
			<rect x="745.558" y="989.049" width="2.258" height="2.258"/>
		</g>
	</g>
</g>
</svg>
