<?xml version="1.0" encoding="utf-8"?>
<!-- Generator: Adobe Illustrator 16.0.0, SVG Export Plug-In . SVG Version: 6.00 Build 0)  -->
<!DOCTYPE svg PUBLIC "-//W3C//DTD SVG 1.1//EN" "http://www.w3.org/Graphics/SVG/1.1/DTD/svg11.dtd">
<svg version="1.1" id="Capa_1" xmlns="http://www.w3.org/2000/svg" xmlns:xlink="http://www.w3.org/1999/xlink" x="0px" y="0px"
	 width="29px" height="24px" viewBox="0 0 29 24" enable-background="new 0 0 29 24" xml:space="preserve">
<path fill="#6D6D6D" d="M16.775,7.674h-0.803c-0.177-0.496-0.684-0.793-1.201-0.705c-0.52,0.09-0.898,0.539-0.898,1.065
	c0,0.526,0.379,0.975,0.897,1.064c0.518,0.089,1.025-0.209,1.2-0.704h0.805c0.045,0.575,0.195,1.138,0.447,1.658l-0.699,0.403
	c-0.347-0.297-0.842-0.344-1.237-0.118c-0.477,0.273-0.673,0.86-0.455,1.365c0.217,0.505,0.78,0.766,1.306,0.606
	c0.525-0.16,0.848-0.69,0.747-1.23l0.695-0.401c0.328,0.475,0.739,0.887,1.215,1.214l-0.401,0.695
	c-0.522-0.099-1.039,0.193-1.226,0.691c-0.185,0.5,0.017,1.06,0.478,1.326c0.461,0.266,1.047,0.16,1.385-0.25
	c0.341-0.41,0.334-1.004-0.014-1.408l0.403-0.696c0.521,0.25,1.082,0.401,1.658,0.444v0.806c-0.496,0.175-0.793,0.683-0.704,1.2
	c0.089,0.519,0.538,0.898,1.064,0.898c0.525,0,0.975-0.381,1.063-0.897c0.09-0.519-0.208-1.026-0.704-1.201v-0.806
	c0.575-0.043,1.139-0.194,1.658-0.444l0.402,0.696c-0.301,0.346-0.348,0.845-0.116,1.24c0.272,0.48,0.864,0.68,1.372,0.461
	c0.509-0.219,0.77-0.785,0.607-1.313c-0.162-0.53-0.697-0.851-1.24-0.747l-0.4-0.695c0.477-0.327,0.887-0.739,1.214-1.214
	l0.696,0.401c-0.084,0.449,0.123,0.901,0.518,1.13c0.475,0.278,1.082,0.153,1.41-0.287c0.328-0.441,0.271-1.058-0.13-1.434
	c-0.399-0.375-1.021-0.389-1.438-0.032l-0.697-0.403c0.25-0.52,0.402-1.083,0.445-1.658h0.805c0.175,0.495,0.682,0.793,1.199,0.704
	C28.622,9.009,29,8.56,29,8.034c0-0.526-0.379-0.976-0.896-1.065c-0.52-0.088-1.026,0.209-1.201,0.705h-0.805
	c-0.043-0.576-0.195-1.138-0.445-1.658l0.699-0.405c0.344,0.3,0.842,0.348,1.235,0.119c0.478-0.273,0.675-0.86,0.456-1.365
	c-0.218-0.505-0.779-0.766-1.307-0.606c-0.525,0.16-0.848,0.69-0.746,1.23l-0.696,0.402c-0.327-0.476-0.739-0.888-1.215-1.215
	l0.403-0.698c0.063,0.014,0.127,0.023,0.191,0.025c0.096,0,0.189-0.012,0.281-0.036c0.472-0.121,0.807-0.54,0.82-1.028
	c0.012-0.487-0.301-0.923-0.764-1.07c-0.466-0.145-0.971,0.035-1.238,0.442c-0.269,0.407-0.234,0.942,0.084,1.311L23.454,3.82
	c-0.521-0.251-1.082-0.403-1.657-0.447V2.569c0.496-0.176,0.793-0.683,0.704-1.201C22.412,0.85,21.963,0.47,21.438,0.47
	c-0.526,0-0.976,0.379-1.064,0.897c-0.09,0.518,0.208,1.025,0.704,1.2v0.805c-0.576,0.044-1.138,0.195-1.658,0.446L19.016,3.12
	c0.301-0.345,0.348-0.843,0.117-1.238c-0.244-0.423-0.742-0.629-1.215-0.502c-0.473,0.126-0.8,0.554-0.8,1.043
	c0,0.488,0.327,0.916,0.8,1.043c0.092,0.024,0.188,0.036,0.281,0.036c0.064-0.003,0.129-0.012,0.191-0.026l0.403,0.698
	c-0.476,0.328-0.887,0.74-1.215,1.215l-0.695-0.4c0.084-0.449-0.124-0.902-0.518-1.131c-0.476-0.282-1.087-0.16-1.418,0.282
	c-0.332,0.442-0.277,1.064,0.127,1.44c0.403,0.378,1.028,0.39,1.446,0.03l0.701,0.404C16.973,6.534,16.82,7.097,16.775,7.674
	L16.775,7.674z M16.006,11.584c-0.126,0.074-0.283,0.064-0.398-0.025c-0.115-0.089-0.166-0.238-0.129-0.379
	c0.037-0.14,0.155-0.245,0.299-0.264c0.146-0.019,0.287,0.051,0.361,0.177C16.238,11.265,16.178,11.485,16.006,11.584L16.006,11.584
	z M18.509,13.824c-0.063,0.113-0.183,0.182-0.312,0.183c-0.129,0-0.248-0.069-0.313-0.181c-0.063-0.112-0.063-0.25,0.003-0.361
	c0.047-0.083,0.125-0.145,0.217-0.168c0.03-0.008,0.063-0.012,0.095-0.013c0.128,0,0.247,0.069,0.311,0.18
	C18.573,13.576,18.573,13.713,18.509,13.824z M24.77,13.297c0.166,0.044,0.277,0.2,0.267,0.37c-0.013,0.172-0.142,0.312-0.313,0.334
	c-0.17,0.022-0.332-0.078-0.387-0.241c-0.057-0.162,0.012-0.341,0.16-0.427C24.579,13.285,24.677,13.271,24.77,13.297L24.77,13.297z
	 M26.736,11.093c0.072-0.126,0.215-0.196,0.359-0.177c0.143,0.02,0.262,0.123,0.299,0.264c0.039,0.14-0.012,0.29-0.127,0.379
	c-0.117,0.088-0.273,0.099-0.4,0.026C26.695,11.485,26.637,11.265,26.736,11.093L26.736,11.093z M26.867,4.483
	c0.127-0.073,0.283-0.063,0.4,0.025c0.114,0.089,0.166,0.238,0.127,0.38c-0.037,0.14-0.156,0.244-0.299,0.263
	c-0.145,0.02-0.287-0.05-0.359-0.177c-0.049-0.082-0.063-0.18-0.037-0.273C26.723,4.608,26.784,4.53,26.867,4.483z M24.365,2.243
	c0.047-0.083,0.126-0.143,0.218-0.168c0.03-0.008,0.062-0.012,0.094-0.012c0.128,0,0.247,0.069,0.312,0.18
	c0.063,0.111,0.063,0.248,0,0.36c-0.047,0.083-0.127,0.143-0.219,0.168c-0.093,0.024-0.189,0.011-0.273-0.036
	C24.324,2.635,24.266,2.415,24.365,2.243z M18.105,2.771c-0.176-0.046-0.291-0.216-0.267-0.395c0.024-0.18,0.177-0.314,0.358-0.313
	c0.031,0,0.064,0.004,0.094,0.012c0.191,0.052,0.307,0.249,0.255,0.441S18.296,2.822,18.105,2.771z M16.139,4.974
	c-0.089,0.152-0.271,0.218-0.437,0.158c-0.164-0.06-0.261-0.229-0.229-0.4c0.029-0.173,0.18-0.298,0.354-0.298
	c0.063,0,0.125,0.017,0.18,0.049c0.173,0.1,0.229,0.32,0.13,0.491H16.139z M14.958,8.394c-0.199,0-0.36-0.162-0.36-0.36
	c0-0.2,0.161-0.36,0.36-0.36s0.36,0.16,0.36,0.36C15.318,8.232,15.157,8.394,14.958,8.394z M21.438,14.872
	c-0.199,0-0.36-0.16-0.36-0.36c0-0.197,0.161-0.359,0.36-0.359s0.359,0.162,0.359,0.359C21.797,14.712,21.637,14.872,21.438,14.872z
	 M27.916,7.674c0.197,0,0.359,0.16,0.359,0.36c0,0.198-0.162,0.36-0.359,0.36c-0.2,0-0.359-0.162-0.359-0.36
	C27.557,7.834,27.716,7.674,27.916,7.674z M21.436,1.195c0.201,0,0.36,0.161,0.36,0.36c0,0.199-0.159,0.36-0.36,0.36
	c-0.197,0-0.358-0.161-0.358-0.36c0-0.199,0.161-0.36,0.36-0.36H21.436z M21.436,4.075c2.188,0,3.961,1.772,3.961,3.959
	c0,2.186-1.773,3.959-3.961,3.959c-2.186,0-3.957-1.773-3.957-3.96c0.002-2.185,1.772-3.956,3.959-3.959L21.436,4.075z"/>
<path fill="#6D6D6D" d="M20.537,7.674c0.695,0,1.26-0.564,1.26-1.26c0-0.696-0.564-1.26-1.26-1.26c-0.696,0-1.26,0.564-1.26,1.26
	C19.277,7.11,19.841,7.674,20.537,7.674z M20.537,5.874c0.298,0,0.54,0.242,0.54,0.54s-0.242,0.54-0.54,0.54
	c-0.299,0-0.54-0.242-0.54-0.54S20.238,5.874,20.537,5.874z M21.077,9.475c0,0.795,0.646,1.44,1.44,1.44s1.439-0.645,1.439-1.44
	s-0.645-1.44-1.439-1.44S21.077,8.68,21.077,9.475z M22.518,8.755c0.396,0,0.719,0.322,0.719,0.72c0,0.397-0.322,0.72-0.719,0.72
	c-0.398,0-0.721-0.323-0.721-0.72C21.797,9.077,22.119,8.755,22.518,8.755z M23.236,6.954c0.199,0,0.361-0.16,0.361-0.36
	c0-0.198-0.162-0.36-0.361-0.36c-0.198,0-0.359,0.162-0.359,0.36C22.877,6.794,23.038,6.954,23.236,6.954z M19.637,9.474
	c0.199,0,0.36-0.161,0.36-0.36c0-0.199-0.161-0.36-0.36-0.36s-0.359,0.161-0.359,0.36C19.277,9.313,19.438,9.474,19.637,9.474z
	 M11.025,9.472c1.11-0.938,1.815-2.332,1.815-3.886c0-2.82-2.32-5.115-5.172-5.115c-2.851,0-5.17,2.294-5.17,5.115
	c0,1.554,0.704,2.948,1.814,3.886c-2.306,1.2-3.882,3.592-3.882,6.344v6.164c0,0.44,0.284,0.832,0.707,0.971
	c2.11,0.695,4.308,1.05,6.532,1.05c2.225,0,4.423-0.354,6.533-1.05c0.422-0.139,0.707-0.53,0.707-0.971v-6.164
	C14.909,13.064,13.332,10.671,11.025,9.472L11.025,9.472z M4.565,5.586c0-1.692,1.393-3.07,3.103-3.07
	c1.711,0,3.103,1.378,3.103,3.07S9.38,8.655,7.668,8.655C5.958,8.655,4.566,7.278,4.565,5.586L4.565,5.586z M12.84,21.229
	c-3.361,0.959-6.982,0.959-10.343,0v-5.412c0-2.82,2.32-5.115,5.171-5.115c2.852,0,5.172,2.294,5.172,5.115V21.229z"/>
</svg>
