<?xml version="1.0" encoding="utf-8"?>
<!-- Generator: Adobe Illustrator 16.0.0, SVG Export Plug-In . SVG Version: 6.00 Build 0)  -->
<!DOCTYPE svg PUBLIC "-//W3C//DTD SVG 1.1//EN" "http://www.w3.org/Graphics/SVG/1.1/DTD/svg11.dtd">
<svg version="1.1" id="Capa_1" xmlns="http://www.w3.org/2000/svg" xmlns:xlink="http://www.w3.org/1999/xlink" x="0px" y="0px"
	 width="18px" height="20.27px" viewBox="297 386.344 18 20.27" enable-background="new 297 386.344 18 20.27" xml:space="preserve"
	>
<title>power-button</title>
<g>
	<path fill="#F42222" d="M306,406.613c-4.963,0-9-4.037-9-9c0.004-2.906,1.407-5.632,3.77-7.324
		c0.647-0.444,1.532-0.279,1.976,0.368c0.432,0.629,0.29,1.488-0.323,1.944c-2.768,1.976-3.411,5.822-1.435,8.589
		c1.976,2.769,5.822,3.41,8.589,1.435c2.769-1.976,3.41-5.821,1.435-8.589c-0.396-0.555-0.88-1.039-1.435-1.435
		c-0.63-0.469-0.76-1.359-0.291-1.989c0.456-0.612,1.314-0.755,1.944-0.323c2.362,1.692,3.766,4.418,3.77,7.324
		C315,402.574,310.963,406.613,306,406.613z"/>
	<path fill="#F42222" d="M306,397.21c-0.785,0-1.421-0.636-1.421-1.421v-8.053c0.016-0.785,0.665-1.408,1.45-1.392
		c0.763,0.015,1.377,0.63,1.393,1.392v8.053C307.421,396.574,306.785,397.21,306,397.21z"/>
</g>
</svg>
