<svg xmlns="http://www.w3.org/2000/svg" width="131" height="50" fill="none" viewBox="0 0 131 50">
    <path fill="#C1C1C1" d="M20.296 4.688l-.597 4.272c-2.418-.927-4.537-1.39-6.36-1.39-1.225 0-2.301.198-3.229.595-.91.381-1.622.928-2.136 1.64-.497.695-.745 1.515-.745 2.46 0 1.473.513 2.6 1.54 3.378 1.043.778 2.865 1.846 5.465 3.204 2.617 1.342 4.58 2.708 5.888 4.099 1.308 1.375 1.962 3.205 1.962 5.49 0 1.987-.48 3.768-1.44 5.34-.961 1.574-2.327 2.783-4.1 3.628-1.755.844-3.776 1.267-6.06 1.267-2.7 0-5.276-.447-7.727-1.342l.497-4.57c2.501 1.192 4.72 1.788 6.658 1.788 1.374 0 2.592-.232 3.651-.695 1.077-.464 1.897-1.127 2.46-1.988.58-.878.87-1.904.87-3.08 0-1.69-.572-2.965-1.715-3.826-1.143-.877-2.956-1.913-5.44-3.105-2.484-1.192-4.364-2.426-5.64-3.701-1.274-1.292-1.912-3.106-1.912-5.44 0-1.822.439-3.429 1.317-4.82.894-1.408 2.153-2.5 3.776-3.279 1.64-.778 3.502-1.168 5.589-1.168 2.633 0 5.109.414 7.428 1.243zm8.744 10.309c1.358-.795 2.7-1.375 4.024-1.74 1.342-.364 2.774-.546 4.298-.546 2.335 0 4.289.447 5.862 1.342 1.59.877 2.691 2.128 3.304 3.75.514 1.359.77 3.66.77 6.907v4.844c0 1.871.017 3.51.05 4.918.05 1.392.116 2.567.199 3.528h-4.223c-.033-.58-.05-1.225-.05-1.938 0-.877.017-1.656.05-2.335-.96 1.607-2.104 2.783-3.428 3.528-1.325.728-2.965 1.093-4.92 1.093-1.721 0-3.245-.307-4.57-.92-1.308-.612-2.319-1.482-3.03-2.608-.696-1.142-1.044-2.459-1.044-3.95 0-1.308.282-2.459.845-3.453.58-1.01 1.424-1.863 2.534-2.558 1.11-.712 2.467-1.242 4.074-1.59 1.606-.348 3.46-.522 5.564-.522 1.259 0 2.418.033 3.478.1-.033-2.137-.555-3.702-1.565-4.695-1.01-1.01-2.559-1.516-4.646-1.516-1.358 0-2.6.19-3.726.572-1.126.364-2.327.969-3.602 1.813l-.248-4.024zM42.926 26.25c-1.027-.1-1.863-.15-2.509-.15-6.127 0-9.191 1.574-9.191 4.72 0 .763.198 1.433.596 2.013.397.58.96 1.035 1.69 1.366.728.332 1.556.497 2.483.497 1.706 0 3.072-.372 4.1-1.118 1.026-.745 1.755-1.747 2.185-3.006.43-1.258.646-2.7.646-4.322zM59.222 1.359V38h-4.645V1.359h4.645zm27.226 11.775L77.506 38h-5.292l-9.166-24.866h4.993l5.093 14.333c.298.895.563 1.673.794 2.335.249.646.456 1.276.621 1.888.183.596.323 1.259.423 1.988.165-1.11.521-2.435 1.068-3.975l5.838-16.57h4.57zm5.242 1.863c1.358-.795 2.7-1.375 4.024-1.74 1.342-.364 2.774-.546 4.298-.546 2.335 0 4.289.447 5.863 1.342 1.589.877 2.691 2.128 3.304 3.75.513 1.359.77 3.66.77 6.907v4.844c0 1.871.016 3.51.049 4.918.05 1.392.116 2.567.199 3.528h-4.223c-.033-.58-.05-1.225-.05-1.938 0-.877.017-1.656.05-2.335-.961 1.607-2.103 2.783-3.428 3.528-1.325.728-2.965 1.093-4.919 1.093-1.722 0-3.246-.307-4.57-.92-1.309-.612-2.32-1.482-3.031-2.608-.696-1.142-1.044-2.459-1.044-3.95 0-1.308.282-2.459.845-3.453.58-1.01 1.424-1.863 2.534-2.558 1.11-.712 2.467-1.242 4.074-1.59 1.606-.348 3.461-.522 5.564-.522 1.259 0 2.418.033 3.478.1-.033-2.137-.555-3.702-1.565-4.695-1.01-1.01-2.559-1.516-4.645-1.516-1.358 0-2.6.19-3.727.572-1.126.364-2.326.969-3.602 1.813l-.248-4.024zm13.886 11.253c-1.026-.1-1.863-.15-2.508-.15-6.128 0-9.192 1.574-9.192 4.72 0 .763.199 1.433.596 2.013.398.58.96 1.035 1.69 1.366.728.332 1.556.497 2.484.497 1.705 0 3.072-.372 4.099-1.118 1.026-.745 1.755-1.747 2.186-3.006.43-1.258.645-2.7.645-4.322z"/>
    <path fill="#C1C1C1" d="M20.296 4.688l.925.129.105-.754-.716-.256-.314.88zm-.597 4.272l-.334.873 1.097.42.163-1.164-.926-.129zm-9.589-.795l.361.863.008-.004-.368-.859zm-2.136 1.64l-.758-.547-.002.004.76.543zm.795 5.838l-.565.744.006.005.56-.75zm5.465 3.204l-.432.829.006.003.426-.832zm5.888 4.099l-.681.64.004.004.677-.644zm-3.578 14.458l-.402-.844-.003.002.405.842zm-13.787-.075l-.929-.1-.079.727.688.251.32-.878zm.497-4.57l.402-.844-1.188-.567-.143 1.31.93.1zm10.31 1.093l-.37-.859-.005.002.374.857zm2.459-1.988l-.78-.515-.002.004.782.511zm-.845-6.906l-.57.741.008.005.562-.746zm-11.08-6.806l-.664.656.004.004.66-.66zm-.595-10.26l-.79-.501v.002l.79.5zm3.776-3.279l-.401-.844-.004.001.405.843zm12.091-.055l-.596 4.273 1.85.258.597-4.272-1.851-.259zm.664 3.53c-2.483-.953-4.72-1.453-6.694-1.453v1.869c1.67 0 3.672.426 6.025 1.329l.669-1.745zM13.34 6.635c-1.326 0-2.532.215-3.598.671l.737 1.718c.789-.338 1.735-.52 2.86-.52v-1.87zm-3.59.668c-1.05.44-1.908 1.086-2.534 1.955l1.516 1.093c.4-.555.967-1 1.74-1.323L9.75 7.303zM7.214 9.262c-.622.87-.92 1.885-.92 3.002h1.87c0-.77.199-1.395.57-1.916l-1.52-1.086zm-.92 3.002c0 1.719.615 3.141 1.91 4.123l1.13-1.49c-.758-.574-1.17-1.403-1.17-2.633h-1.87zm1.916 4.128c1.108.826 2.988 1.924 5.591 3.284l.866-1.657c-2.597-1.356-4.36-2.395-5.34-3.125L8.21 16.392zm5.598 3.287c2.567 1.316 4.426 2.624 5.633 3.907l1.361-1.28c-1.41-1.5-3.475-2.924-6.141-4.29l-.853 1.663zm5.637 3.911c1.11 1.167 1.705 2.748 1.705 4.846h1.869c0-2.473-.714-4.552-2.22-6.134l-1.354 1.288zm1.705 4.846c0 1.83-.44 3.439-1.304 4.854l1.595.974c1.057-1.732 1.578-3.683 1.578-5.828h-1.87zm-1.304 4.854c-.86 1.408-2.084 2.498-3.704 3.27l.805 1.687c1.924-.917 3.433-2.245 4.494-3.983l-1.595-.974zm-3.707 3.272c-1.609.774-3.487 1.174-5.656 1.174v1.87c2.402 0 4.565-.445 6.467-1.36l-.81-1.684zm-5.656 1.174c-2.594 0-5.06-.43-7.405-1.285l-.64 1.756c2.556.933 5.24 1.398 8.045 1.398v-1.869zm-6.797-.306l.497-4.57-1.858-.203-.497 4.571 1.858.202zm-.834-3.828c2.576 1.228 4.936 1.88 7.06 1.88v-1.87c-1.752 0-3.83-.54-6.256-1.697l-.804 1.687zm7.06 1.88c1.48 0 2.828-.25 4.026-.774l-.75-1.713c-.92.404-2.007.617-3.276.617v1.87zm4.021-.772c1.221-.526 2.195-1.299 2.872-2.334l-1.564-1.023c-.45.687-1.115 1.239-2.047 1.64l.74 1.717zm2.87-2.33c.692-1.049 1.024-2.26 1.024-3.596h-1.87c0 1.015-.247 1.858-.714 2.565l1.56 1.03zm1.024-3.596c0-1.923-.665-3.501-2.086-4.572l-1.125 1.492c.864.652 1.342 1.624 1.342 3.08h1.869zm-2.08-4.567c-1.22-.938-3.105-2.007-5.605-3.206l-.809 1.684c2.469 1.185 4.212 2.187 5.276 3.004l1.139-1.482zm-5.605-3.206c-2.434-1.169-4.21-2.348-5.382-3.52l-1.322 1.321c1.378 1.379 3.361 2.667 5.895 3.883l.81-1.684zm-5.378-3.516c-1.057-1.07-1.643-2.62-1.643-4.784H1.25c0 2.508.69 4.584 2.183 6.097l1.33-1.313zM3.12 12.711c0-1.665.398-3.094 1.172-4.32l-1.58-.998c-.983 1.557-1.461 3.34-1.461 5.318H3.12zm1.17-4.318c.794-1.248 1.913-2.228 3.392-2.937L6.874 3.77c-1.767.848-3.165 2.054-4.16 3.62L4.29 8.394zM7.68 5.457c1.497-.71 3.22-1.077 5.189-1.077V2.51c-2.205 0-4.208.413-5.99 1.259l.801 1.688zm5.189-1.077c2.534 0 4.902.398 7.113 1.188l.629-1.76C18.184 2.94 15.6 2.51 12.868 2.51V4.38zM29.04 14.997l-.472-.807-.496.29.035.574.933-.057zm4.024-1.74l-.245-.901h-.003l.248.902zm10.16.796l-.462.812.01.006.452-.818zm3.304 3.75l-.874.33v.001l.874-.33zm.82 16.67l-.934.022v.01l.934-.033zM47.547 38v.934h1.018l-.087-1.014-.931.08zm-4.223 0l-.933.053.05.882h.883V38zm0-4.273l.933.046-1.735-.525.802.48zm-3.428 3.528l.45.819.008-.005-.459-.814zm-9.49.174l-.396.846.004.002.392-.848zm-3.03-2.609l-.799.486.004.007.005.007.79-.5zm-.2-7.402l-.81-.466-.002.005.813.46zm2.535-2.56l.496.793.008-.006-.505-.786zm13.116-2.011l-.058.932 1.008.063-.016-1.01-.934.015zm-1.565-4.695l-.661.66.005.006.656-.666zm-8.372-.944l.288.889.012-.004-.3-.885zm-3.602 1.813l-.933.058.1 1.615 1.35-.894-.517-.779zm13.638 7.229h.935v-.849l-.845-.081-.09.93zm-9.415 7.95l-.387.85.387-.85zm6.583-.622l-.549-.756.55.756zM29.512 15.803c1.297-.76 2.564-1.304 3.8-1.644l-.496-1.802c-1.414.389-2.83 1.003-4.248 1.833l.944 1.613zm3.797-1.643c1.254-.341 2.604-.514 4.053-.514v-1.87c-1.599 0-3.114.192-4.543.58l.49 1.804zm4.053-.514c2.219 0 4.003.425 5.4 1.22l.924-1.626c-1.75-.994-3.873-1.463-6.324-1.463v1.869zm5.41 1.225c1.406.776 2.352 1.858 2.882 3.263l1.748-.66c-.695-1.841-1.952-3.26-3.726-4.24l-.903 1.637zm2.882 3.263c.448 1.186.71 3.338.71 6.576h1.869c0-3.254-.252-5.706-.83-7.237l-1.749.661zm.71 6.576v4.844h1.869V24.71h-1.87zm0 4.844c0 1.876.016 3.524.05 4.94l1.868-.044c-.033-1.398-.05-3.03-.05-4.896h-1.868zm.05 4.952c.05 1.4.117 2.593.202 3.574l1.862-.16c-.081-.94-.147-2.1-.196-3.48l-1.868.066zm1.133 2.56h-4.223v1.868h4.223v-1.868zm-3.29.88c-.032-.558-.048-1.185-.048-1.884h-1.87c0 .727.017 1.39.052 1.991l1.866-.106zm-.048-1.884c0-.866.016-1.629.048-2.29l-1.867-.09c-.034.697-.05 1.491-.05 2.38h1.868zm-1.688-2.814c-.896 1.498-1.93 2.543-3.084 3.192l.917 1.63c1.496-.842 2.747-2.15 3.772-3.863l-1.604-.96zm-3.076 3.188c-1.152.634-2.627.977-4.468.977v1.87c2.067 0 3.871-.386 5.369-1.21l-.9-1.637zm-4.468.977c-1.611 0-2.997-.286-4.179-.833l-.784 1.697c1.468.679 3.13 1.005 4.963 1.005v-1.869zm-4.175-.83c-1.16-.544-2.028-1.3-2.637-2.262l-1.58.999c.816 1.29 1.969 2.273 3.425 2.955l.792-1.693zm-2.628-2.249c-.597-.98-.907-2.124-.907-3.464h-1.87c0 1.642.386 3.13 1.18 4.436l1.597-.972zm-.907-3.464c0-1.17.25-2.158.723-2.992l-1.626-.921c-.654 1.153-.966 2.467-.966 3.913h1.869zm.72-2.987c.494-.862 1.224-1.608 2.22-2.232l-.993-1.584c-1.223.767-2.183 1.726-2.848 2.885l1.621.93zm2.228-2.238c.996-.639 2.244-1.133 3.767-1.463l-.395-1.826c-1.69.365-3.158.931-4.381 1.716l1.01 1.573zm3.767-1.463c1.527-.33 3.313-.5 5.367-.5v-1.87c-2.152 0-4.076.178-5.762.544l.395 1.826zm5.367-.5c1.243 0 2.382.033 3.42.097l.116-1.865c-1.082-.068-2.261-.101-3.536-.101v1.869zm4.412-.85c-.035-2.259-.587-4.11-1.844-5.347l-1.31 1.333c.763.751 1.254 2.03 1.285 4.043l1.87-.029zm-1.838-5.341c-1.253-1.253-3.086-1.79-5.307-1.79v1.87c1.953 0 3.217.473 3.985 1.241l1.322-1.321zm-5.307-1.79c-1.445 0-2.79.204-4.025.621l.599 1.77c1.017-.343 2.156-.521 3.426-.521V15.7zm-4.014.617c-1.226.397-2.503 1.045-3.83 1.924l1.032 1.558c1.224-.81 2.348-1.371 3.374-1.703l-.575-1.779zm-2.381 2.645l-.248-4.024-1.866.115.248 4.025 1.866-.116zm12.795 6.357c-1.041-.101-1.91-.154-2.599-.154v1.87c.604 0 1.407.046 2.42.144l.18-1.86zm-2.599-.154c-3.113 0-5.59.395-7.32 1.284-.879.45-1.59 1.043-2.08 1.797-.493.759-.726 1.629-.726 2.574h1.87c0-.628.15-1.135.423-1.556.276-.426.713-.817 1.366-1.153 1.334-.685 3.453-1.077 6.467-1.077v-1.869zm-10.126 5.655c0 .934.247 1.792.76 2.54l1.542-1.056c-.282-.411-.433-.894-.433-1.484h-1.869zm.76 2.54c.507.74 1.212 1.297 2.073 1.689l.774-1.701c-.596-.271-1.017-.624-1.305-1.044L31.05 33.36zm2.073 1.689c.868.395 1.832.58 2.871.58v-1.869c-.815 0-1.508-.145-2.097-.413l-.774 1.702zm2.871.58c1.836 0 3.415-.4 4.648-1.296l-1.098-1.512c-.82.595-1.974.94-3.55.94v1.869zm4.648-1.296c1.19-.864 2.032-2.028 2.521-3.46l-1.768-.604c-.371 1.086-.988 1.925-1.85 2.552l1.097 1.512zm2.521-3.46c.47-1.374.697-2.92.697-4.624h-1.87c0 1.542-.204 2.877-.595 4.02l1.768.605zM59.222 1.36h.935V.424h-.935v.935zm0 36.641v.934h.935V38h-.935zm-4.645 0h-.935v.934h.935V38zm0-36.641V.424h-.935v.935h.935zm3.71 0V38h1.87V1.359h-1.87zm.935 35.706h-4.645v1.87h4.645v-1.87zm-3.71.935V1.359h-1.87V38h1.87zm-.935-35.707h4.645V.424h-4.645v1.87zm31.871 10.84l.88.317.45-1.25h-1.33v.934zM77.506 38v.934h.657l.222-.618-.88-.316zm-5.292 0l-.876.323.225.611h.651V38zm-9.166-24.866v-.935h-1.34l.463 1.258.877-.323zm4.993 0l.88-.313-.22-.622h-.66v.935zm5.093 14.333l.886-.295-.003-.009-.003-.009-.88.313zm.794 2.335l-.882.309.005.014.005.013.872-.336zm.621 1.888l-.902.244.004.015.005.014.893-.273zm.423 1.988l-.926.126 1.85.011-.924-.137zm1.068-3.975l.88.312.001-.002-.881-.31zm5.838-16.57V12.2h-.662l-.22.624.882.31zm3.691-.316l-8.943 24.867 1.759.632 8.943-24.866-1.759-.633zm-8.063 24.248h-5.292v1.87h5.292v-1.87zm-4.415.612L63.925 12.81l-1.754.647 9.167 24.866 1.753-.646zM63.048 14.068h4.993V12.2h-4.993v1.87zm4.112-.621l5.093 14.333 1.761-.626-5.092-14.333-1.762.626zm5.087 14.316c.299.897.566 1.68.8 2.348l1.764-.617c-.23-.657-.494-1.431-.791-2.322l-1.773.59zm.81 2.375c.237.618.434 1.217.59 1.796l1.805-.488c-.175-.646-.392-1.306-.651-1.98l-1.745.672zm.599 1.825c.165.54.296 1.153.39 1.84l1.852-.252c-.105-.77-.256-1.482-.455-2.134l-1.787.546zm2.24 1.852c.154-1.03.49-2.293 1.025-3.8l-1.762-.625c-.558 1.574-.934 2.96-1.112 4.15l1.849.276zm1.025-3.801l5.838-16.57-1.763-.62-5.837 16.568 1.762.622zm4.957-15.946h4.57V12.2h-4.57v1.87zm9.812.929l-.472-.807-.496.29.035.574.933-.057zm4.024-1.74l-.245-.901h-.002l.247.902zm10.161.796l-.462.812.01.006.452-.818zm3.304 3.75l-.875.33v.001l.875-.33zm.819 16.67l-.934.022v.01l.934-.033zm.199 3.527v.934h1.019l-.088-1.014-.931.08zm-4.223 0l-.933.053.05.882h.883V38zm0-4.273l.933.046-1.735-.525.802.48zm-3.428 3.528l.45.819.008-.005-.458-.814zm-9.49.174l-.396.846.004.002.392-.848zm-3.03-2.609l-.799.486.005.007.004.007.79-.5zm-.199-7.402l-.81-.466-.003.005.813.46zm2.534-2.56l.496.793.009-.006-.505-.786zm13.116-2.011l-.058.932 1.008.063-.015-1.01-.935.015zm-1.565-4.695l-.661.66.006.006.655-.666zm-8.372-.944l.288.889.012-.004-.3-.885zm-3.602 1.813l-.932.058.1 1.615 1.349-.894-.516-.779zm13.638 7.229h.935v-.849l-.844-.081-.091.93zm-9.414 7.95l-.387.85.387-.85zm6.583-.622l-.549-.756.549.756zM92.162 15.803c1.298-.76 2.564-1.304 3.8-1.644l-.495-1.802c-1.414.389-2.83 1.003-4.249 1.833l.944 1.613zm3.797-1.643c1.255-.341 2.604-.514 4.053-.514v-1.87c-1.599 0-3.114.192-4.543.58l.49 1.804zm4.053-.514c2.219 0 4.003.425 5.401 1.22l.923-1.626c-1.749-.994-3.873-1.463-6.324-1.463v1.869zm5.411 1.225c1.405.776 2.351 1.858 2.881 3.263l1.749-.66c-.695-1.841-1.952-3.26-3.727-4.24l-.903 1.637zm2.881 3.263c.449 1.186.71 3.338.71 6.576h1.869c0-3.254-.252-5.706-.83-7.237l-1.749.661zm.71 6.576v4.844h1.869V24.71h-1.869zm0 4.844c0 1.876.017 3.524.05 4.94l1.869-.044c-.033-1.398-.05-3.03-.05-4.896h-1.869zm.05 4.952c.05 1.4.117 2.593.202 3.574l1.862-.16c-.081-.94-.146-2.1-.196-3.48l-1.868.066zm1.133 2.56h-4.223v1.868h4.223v-1.868zm-3.29.88c-.032-.558-.048-1.185-.048-1.884h-1.869c0 .727.017 1.39.051 1.991l1.866-.106zm-.048-1.884c0-.866.016-1.629.048-2.29l-1.866-.09c-.035.697-.051 1.491-.051 2.38h1.869zm-1.687-2.814c-.896 1.498-1.931 2.543-3.084 3.192l.916 1.63c1.496-.842 2.747-2.15 3.772-3.863l-1.604-.96zm-3.077 3.188c-1.152.634-2.626.977-4.468.977v1.87c2.067 0 3.872-.386 5.369-1.21l-.901-1.637zm-4.468.977c-1.61 0-2.997-.286-4.178-.833l-.785 1.697c1.468.679 3.13 1.005 4.963 1.005v-1.869zm-4.174-.83c-1.161-.544-2.029-1.3-2.637-2.262l-1.58.999c.815 1.29 1.968 2.273 3.424 2.955l.793-1.693zm-2.629-2.249c-.596-.98-.907-2.124-.907-3.464h-1.87c0 1.642.386 3.13 1.18 4.436l1.597-.972zm-.907-3.464c0-1.17.25-2.158.723-2.992l-1.626-.921c-.654 1.153-.966 2.467-.966 3.913h1.869zm.72-2.987c.495-.862 1.224-1.608 2.22-2.232l-.993-1.584c-1.223.767-2.183 1.726-2.848 2.885l1.622.93zm2.229-2.238c.995-.639 2.243-1.133 3.767-1.463l-.396-1.826c-1.69.365-3.157.931-4.381 1.716l1.01 1.573zm3.767-1.463c1.526-.33 3.312-.5 5.366-.5v-1.87c-2.152 0-4.075.178-5.762.544l.396 1.826zm5.366-.5c1.243 0 2.382.033 3.42.097l.116-1.865c-1.082-.068-2.261-.101-3.536-.101v1.869zm4.413-.85c-.035-2.259-.588-4.11-1.845-5.347l-1.31 1.333c.764.751 1.254 2.03 1.286 4.043l1.869-.029zm-1.839-5.341c-1.252-1.253-3.086-1.79-5.306-1.79v1.87c1.953 0 3.216.473 3.984 1.241l1.322-1.321zm-5.306-1.79c-1.446 0-2.79.204-4.026.621l.599 1.77c1.017-.343 2.156-.521 3.427-.521V15.7zm-4.014.617c-1.227.397-2.504 1.045-3.83 1.924l1.032 1.558c1.223-.81 2.347-1.371 3.373-1.703l-.575-1.779zm-2.382 2.645l-.248-4.024-1.866.115.249 4.025 1.865-.116zm12.796 6.357c-1.042-.101-1.911-.154-2.599-.154v1.87c.603 0 1.406.046 2.418.144l.181-1.86zm-2.599-.154c-3.114 0-5.59.395-7.32 1.284-.88.45-1.592 1.043-2.081 1.797-.493.759-.725 1.629-.725 2.574h1.869c0-.628.15-1.135.423-1.556.277-.426.714-.817 1.367-1.153 1.333-.685 3.452-1.077 6.467-1.077v-1.869zm-10.126 5.655c0 .934.246 1.792.76 2.54l1.541-1.056c-.282-.411-.432-.894-.432-1.484h-1.87zm.76 2.54c.506.74 1.211 1.297 2.073 1.689l.773-1.701c-.595-.271-1.017-.624-1.305-1.044l-1.541 1.056zm2.073 1.689c.868.395 1.83.58 2.87.58v-1.869c-.814 0-1.507-.145-2.097-.413l-.773 1.702zm2.87.58c1.837 0 3.415-.4 4.649-1.296l-1.098-1.512c-.821.595-1.975.94-3.55.94v1.869zm4.649-1.296c1.19-.864 2.031-2.028 2.521-3.46l-1.769-.604c-.371 1.086-.987 1.925-1.85 2.552l1.098 1.512zm2.521-3.46c.47-1.374.696-2.92.696-4.624h-1.869c0 1.542-.205 2.877-.596 4.02l1.769.605z"/>
</svg>
