<svg xmlns="http://www.w3.org/2000/svg" width="156" height="93" fill="none" viewBox="0 0 156 93">
    <path fill="#408B41" d="M28.31 3.666C32.964 1.556 37.968.015 43.124 0c26.699 0 53.397.015 80.088 0 8.219.124 16.51 3.353 22.277 9.29 6.385 6.073 9.986 14.985 9.549 23.794.32 11.537-6.524 22.776-16.633 28.21-4.603 2.655-9.934 3.688-15.178 4.037-17.484.044-34.968-.03-52.451.022-8.262.684-16.008 5.9-19.884 13.232-2.328 4.19-3.113 9.035-3.099 13.777C28.95 93.81 10.47 81.422 3.504 64.058c-4.597-11.1-4.72-24.05-.066-35.15C7.924 17.633 17.16 8.402 28.31 3.666zm47.178 9.392c-.225 1.556-.509 3.113-.501 4.691.036 9.232.029 18.47.007 27.701-.022 1.84.276 3.652.53 5.463 2.19.088 4.372.08 6.56-.029.146-12.6.132-25.198.008-37.797-2.174-.691-4.436-.8-6.604-.03zM26.07 17.444c-4.204 3.499-4.408 10.562-.633 14.447 3.193 3.179 8.044 3.79 11.338 6.801 2.204 1.957.938 5.71-1.694 6.562-4.335 1.593-8.648-.8-12.466-2.634-.189 2.03-.996 4.569.342 6.3 5.236 3.644 12.735 3.666 18.036.13 4.43-3.054 5.695-9.805 2.684-14.242-2.77-4.183-8.182-4.838-11.95-7.726-2.32-1.527-1.854-5.492.823-6.372 3.6-1.448 7.076 1.055 10.436 2.088.24-1.404.59-2.823.422-4.263-.553-2.168-2.887-2.946-4.815-3.397-4.21-.938-9.12-.575-12.523 2.306zm24.036 8.715c-2.022 1.229-1.142 3.797-.603 5.608 3.563-1.404 7.309-3.506 11.258-2.386 2.269.72 2.327 3.455 2.662 5.398-3.455 1.556-7.498.05-10.924 1.825-3.156.946-5.258 4.067-4.764 7.37-.516 4.393 3.826 7.565 7.848 7.681 3.069.4 5.767-1.367 8.24-2.931.269.749.553 1.498.836 2.255 1.666-.015 3.331-.03 4.99-.066.123-6.212.072-12.417.05-18.63.102-3.127-1.694-6.335-4.727-7.405-4.793-1.862-10.386-1.098-14.866 1.28zm34.888-.277c1.89 6.947 4.603 13.654 6.589 20.58.524 1.505.895 3.193 2.05 4.371 2.75.357 5.535.11 8.299.095 2.538-5.652 4.008-11.705 6.124-17.517.924-2.859 2.342-5.689 2.153-8.78-2.073-.073-4.146-.051-6.219.087-2.138 6.38-4.058 12.832-6.123 19.24-2.342-6.342-3.695-13.006-6.16-19.305-1.375-.044-2.757-.117-4.131-.087-.953.08-2.764-.197-2.582 1.316zm28.276.218c-2.189 1.15-1.578 4.045-.378 5.718 3.237-1.68 6.844-3.383 10.589-2.517 2.531.706 2.837 3.84 2.648 6.038-4.458.37-9.528-.357-13.2 2.764-4.226 3.426-2.786 11.246 2.472 12.84 3.906 1.774 8.168.196 11.375-2.227.32.75.647 1.506.989 2.255 1.571-.014 3.142-.007 4.72 0 .647-5.215.175-10.49.335-15.734.072-3.477-.16-7.805-3.578-9.719-4.91-2.648-11.164-1.978-15.972.582z"/>
    <path fill="#408B41" d="M119.896 40.09c2.05-.4 4.152-.233 6.225-.226.138 1.768.4 3.943-1.222 5.158-1.891 1.76-5.636 2.487-7.258.029-1.236-1.855.175-4.525 2.255-4.961zM55.895 40.583c2.204-1.244 4.917-.603 7.331-.662-.065 1.324.022 2.67-.276 3.972-1.498 1.913-3.913 3.172-6.378 2.59-2.815-.415-3.106-4.728-.677-5.9z"/>
    <path fill="#408B41" d="M34.418 6.726c-1.563 0-14.565 12.408-20.87 18.612-.468 3.01-1.721 9.947-2.99 13.608C8.97 43.523 18.001 55.79 23.371 57.56c5.37 1.77 19.833 1.037 28.62 0 8.788-1.037 43.694 1.037 58.096 1.037 14.401 0 26.85-5.248 27.643-6.224.794-.977 3.601-16.599 3.601-23.433 0-6.835-7.994-15.195-10.008-17.636-2.014-2.441-43.45-5.98-48.636-6.164-5.187-.183-46.318 1.587-48.27 1.587z"/>
    <path fill="#fff" d="M42.264 16.795l-.596 4.273c-2.418-.928-4.538-1.392-6.36-1.392-1.225 0-2.301.2-3.229.597-.91.38-1.623.927-2.136 1.64-.497.695-.745 1.515-.745 2.459 0 1.474.513 2.6 1.54 3.378 1.043.778 2.865 1.847 5.465 3.205 2.617 1.341 4.58 2.707 5.887 4.099 1.309 1.374 1.963 3.204 1.963 5.49 0 1.987-.48 3.767-1.44 5.34-.962 1.574-2.328 2.783-4.1 3.627-1.755.845-3.776 1.267-6.061 1.267-2.7 0-5.275-.447-7.726-1.341l.497-4.571c2.5 1.192 4.72 1.788 6.658 1.788 1.374 0 2.591-.231 3.651-.695 1.077-.464 1.897-1.126 2.46-1.987.58-.878.869-1.905.869-3.08 0-1.69-.571-2.965-1.714-3.826-1.143-.878-2.956-1.913-5.44-3.106-2.485-1.192-4.364-2.426-5.64-3.701-1.275-1.292-1.912-3.105-1.912-5.44 0-1.822.439-3.428 1.316-4.82.895-1.407 2.153-2.5 3.776-3.279 1.64-.778 3.503-1.167 5.59-1.167 2.633 0 5.109.414 7.427 1.242zm8.744 10.31c1.358-.796 2.7-1.375 4.025-1.74 1.341-.364 2.774-.546 4.297-.546 2.336 0 4.29.447 5.863 1.341 1.59.878 2.691 2.128 3.304 3.751.513 1.358.77 3.66.77 6.906v4.844c0 1.872.017 3.511.05 4.919.05 1.391.116 2.567.198 3.527h-4.223c-.033-.58-.05-1.225-.05-1.937 0-.878.017-1.656.05-2.335-.96 1.606-2.103 2.782-3.428 3.527-1.325.729-2.964 1.093-4.918 1.093-1.723 0-3.246-.306-4.571-.919-1.309-.613-2.319-1.482-3.03-2.608-.696-1.143-1.044-2.46-1.044-3.95 0-1.308.281-2.46.844-3.453.58-1.01 1.425-1.863 2.534-2.559 1.11-.712 2.468-1.242 4.074-1.59 1.607-.347 3.462-.521 5.565-.521 1.258 0 2.418.033 3.478.1-.034-2.137-.555-3.702-1.566-4.696-1.01-1.01-2.558-1.515-4.645-1.515-1.358 0-2.6.19-3.726.571-1.126.364-2.327.969-3.602 1.813l-.248-4.024zm13.887 11.252c-1.027-.099-1.863-.149-2.51-.149-6.127 0-9.19 1.574-9.19 4.72 0 .762.198 1.433.596 2.012.397.58.96 1.035 1.689 1.367.729.33 1.557.496 2.484.496 1.706 0 3.072-.372 4.099-1.117 1.027-.746 1.755-1.748 2.186-3.006.43-1.259.646-2.7.646-4.323zm16.296-24.89v36.64h-4.645v-36.64h4.645zm27.226 11.774l-8.943 24.866h-5.29l-9.167-24.866h4.993l5.092 14.334c.298.894.563 1.672.795 2.335.249.646.456 1.275.621 1.888.182.596.323 1.258.422 1.987.166-1.11.522-2.434 1.069-3.975l5.837-16.569h4.571zm5.242 1.863c1.358-.795 2.699-1.374 4.024-1.739 1.342-.364 2.774-.546 4.298-.546 2.335 0 4.289.447 5.862 1.341 1.59.878 2.692 2.128 3.304 3.751.514 1.358.77 3.66.77 6.906v4.844c0 1.872.017 3.511.05 4.919.05 1.391.116 2.567.199 3.527h-4.223c-.033-.58-.05-1.225-.05-1.937 0-.878.017-1.656.05-2.335-.961 1.606-2.104 2.782-3.428 3.527-1.325.729-2.965 1.093-4.919 1.093-1.722 0-3.246-.306-4.571-.919-1.308-.613-2.318-1.482-3.031-2.608-.695-1.143-1.043-2.46-1.043-3.95 0-1.308.282-2.46.845-3.453.579-1.01 1.424-1.863 2.534-2.559 1.109-.712 2.467-1.242 4.074-1.59 1.606-.347 3.461-.521 5.564-.521 1.259 0 2.418.033 3.478.1-.033-2.137-.555-3.702-1.565-4.696-1.01-1.01-2.559-1.515-4.645-1.515-1.359 0-2.601.19-3.727.571-1.126.364-2.327.969-3.602 1.813l-.248-4.024zm13.886 11.253c-1.027-.099-1.863-.149-2.509-.149-6.127 0-9.191 1.574-9.191 4.72 0 .762.199 1.433.596 2.012.398.58.961 1.035 1.689 1.367.729.33 1.557.496 2.484.496 1.706 0 3.073-.372 4.099-1.117 1.027-.746 1.756-1.748 2.186-3.006.431-1.259.646-2.7.646-4.323z"/>
    <path fill="#fff" d="M42.264 16.795l.926.13.105-.754-.716-.256-.315.88zm-.596 4.273l-.335.872 1.098.421.163-1.164-.926-.13zm-9.589-.795l.36.862.008-.003-.368-.86zm-2.136 1.64l-.758-.547-.003.003.76.543zm.795 5.837l-.565.745.006.004.559-.749zm5.465 3.205l-.433.828.007.003.426-.831zm5.887 4.099l-.68.64.004.004.676-.645zM38.513 49.51l-.402-.843-.003.001.405.842zm-13.787-.074l-.929-.101-.079.728.688.25.32-.877zm.497-4.571l.402-.844-1.189-.567-.142 1.31.929.1zm10.31 1.093l-.37-.858-.005.002.374.856zm2.459-1.987l-.78-.515-.003.003.782.512zm-.845-6.906l-.57.74.008.006.562-.746zm-11.08-6.807l-.665.657.005.004.66-.661zm-.596-10.26l-.788-.5-.002.002.79.498zm3.776-3.279l-.4-.844-.004.002.404.842zm12.092-.054l-.596 4.273 1.85.258.597-4.273-1.851-.258zm.664 3.53c-2.483-.953-4.72-1.454-6.694-1.454v1.87c1.67 0 3.672.426 6.024 1.328l.67-1.745zm-6.694-1.454c-1.326 0-2.532.215-3.598.672l.736 1.718c.79-.338 1.736-.52 2.862-.52v-1.87zm-3.59.669c-1.05.438-1.908 1.086-2.534 1.955l1.516 1.093c.4-.556.967-1.001 1.739-1.324l-.721-1.724zm-2.537 1.958c-.621.87-.919 1.885-.919 3.003h1.87c0-.77.198-1.396.57-1.916l-1.52-1.087zm-.919 3.003c0 1.718.615 3.14 1.91 4.123l1.13-1.49c-.759-.574-1.17-1.404-1.17-2.633h-1.87zm1.916 4.127c1.108.827 2.988 1.924 5.591 3.284l.866-1.657c-2.597-1.356-4.36-2.395-5.34-3.125l-1.117 1.498zm5.598 3.287c2.567 1.316 4.426 2.625 5.633 3.908l1.361-1.28c-1.41-1.5-3.476-2.924-6.142-4.291l-.852 1.663zm5.636 3.912c1.11 1.166 1.705 2.748 1.705 4.845h1.87c0-2.473-.714-4.551-2.22-6.134l-1.355 1.289zm1.705 4.845c0 1.83-.44 3.44-1.304 4.854l1.596.974c1.057-1.731 1.577-3.682 1.577-5.828h-1.869zm-1.304 4.854c-.86 1.409-2.083 2.499-3.703 3.27l.804 1.688c1.925-.917 3.434-2.245 4.495-3.984l-1.596-.974zm-3.706 3.272c-1.609.774-3.487 1.175-5.656 1.175v1.869c2.401 0 4.564-.444 6.466-1.36l-.81-1.684zm-5.656 1.175c-2.594 0-5.06-.43-7.405-1.285l-.641 1.756c2.557.933 5.241 1.398 8.046 1.398v-1.87zm-6.797-.306l.497-4.571-1.858-.202-.497 4.57 1.858.203zm-.834-3.829c2.576 1.229 4.936 1.88 7.06 1.88v-1.87c-1.752 0-3.83-.54-6.256-1.697l-.804 1.687zm7.06 1.88c1.48 0 2.828-.25 4.026-.774l-.75-1.712c-.921.403-2.007.617-3.276.617v1.869zm4.021-.772c1.22-.526 2.195-1.299 2.872-2.334l-1.565-1.023c-.449.687-1.114 1.24-2.047 1.64l.74 1.717zm2.87-2.33c.692-1.049 1.023-2.26 1.023-3.596h-1.869c0 1.015-.247 1.858-.714 2.566l1.56 1.03zm1.023-3.596c0-1.923-.665-3.5-2.086-4.572l-1.125 1.493c.865.651 1.342 1.624 1.342 3.08h1.87zm-2.079-4.566c-1.221-.939-3.105-2.007-5.605-3.207l-.809 1.685c2.469 1.185 4.212 2.186 5.276 3.004l1.138-1.483zm-5.605-3.207c-2.434-1.168-4.21-2.348-5.383-3.52l-1.321 1.322c1.378 1.378 3.36 2.666 5.895 3.883l.809-1.685zm-5.378-3.516c-1.057-1.07-1.644-2.62-1.644-4.783H23.22c0 2.507.69 4.584 2.183 6.097l1.33-1.314zm-1.644-4.783c0-1.665.4-3.095 1.173-4.32L24.68 19.5c-.982 1.556-1.46 3.34-1.46 5.318h1.868zM26.26 20.5c.793-1.249 1.913-2.229 3.391-2.938l-.808-1.685c-1.767.848-3.165 2.053-4.16 3.62l1.577 1.003zm3.388-2.936c1.497-.711 3.22-1.078 5.189-1.078v-1.869c-2.205 0-4.208.412-5.99 1.258l.801 1.689zm5.189-1.078c2.533 0 4.902.398 7.113 1.188l.629-1.76c-2.427-.867-5.01-1.297-7.742-1.297v1.87zm16.171 10.617l-.472-.806-.496.29.036.574.932-.058zm4.025-1.739l-.245-.902-.003.001.248.901zm10.16.795l-.462.813.01.005.452-.818zm3.304 3.751l-.874.33.874-.33zm.82 16.669l-.935.022v.011l.935-.033zm.198 3.527v.935h1.019l-.088-1.015-.93.08zm-4.223 0l-.933.054.05.881h.883v-.935zm0-4.272l.934.045-1.736-.525.802.48zm-3.428 3.527l.45.82.008-.005-.458-.815zm-9.49.174l-.396.846.005.002.392-.848zm-3.03-2.608l-.798.486.004.006.004.007.79-.5zm-.199-7.403l-.81-.465-.003.004.813.46zm2.534-2.559l.497.792.008-.005-.505-.787zm13.117-2.012l-.059.933 1.009.063-.016-1.01-.934.014zM63.23 30.26l-.66.66.005.006.655-.666zm-8.371-.944l.288.89.011-.005-.3-.885zm-3.602 1.813l-.933.058.1 1.615 1.349-.893-.516-.78zm13.638 7.23h.934v-.85l-.844-.08-.09.93zm-9.415 7.949l-.387.85.387-.85zm6.583-.621l-.549-.757.549.757zM51.481 27.91c1.297-.76 2.564-1.305 3.8-1.645l-.496-1.802c-1.414.389-2.83 1.003-4.249 1.834l.945 1.613zm3.797-1.644c1.254-.34 2.604-.514 4.052-.514v-1.869c-1.598 0-3.114.191-4.542.58l.49 1.803zm4.052-.514c2.22 0 4.004.425 5.401 1.22l.924-1.625c-1.75-.995-3.873-1.464-6.325-1.464v1.87zm5.411 1.225c1.406.776 2.351 1.858 2.882 3.263l1.748-.66c-.695-1.84-1.952-3.26-3.726-4.239l-.904 1.636zm2.882 3.264c.448 1.185.71 3.337.71 6.575h1.869c0-3.254-.252-5.706-.83-7.236l-1.75.66zm.71 6.575v4.844h1.869v-4.844h-1.87zm0 4.844c0 1.877.016 3.524.05 4.94l1.868-.043c-.033-1.398-.05-3.03-.05-4.897h-1.868zm.05 4.952c.05 1.4.117 2.593.201 3.575l1.862-.16c-.08-.94-.146-2.1-.195-3.481l-1.868.066zm1.132 2.56h-4.223v1.869h4.223v-1.87zm-3.29.881c-.031-.558-.048-1.186-.048-1.884h-1.869c0 .726.017 1.39.051 1.99l1.866-.106zm-.048-1.884c0-.867.017-1.63.049-2.29l-1.867-.09c-.034.697-.05 1.491-.05 2.38h1.868zm-1.687-2.815c-.896 1.499-1.93 2.544-3.084 3.193l.916 1.629c1.496-.842 2.748-2.149 3.772-3.863l-1.604-.959zm-3.076 3.188c-1.153.634-2.627.978-4.468.978v1.869c2.067 0 3.871-.385 5.369-1.209l-.901-1.638zm-4.468.978c-1.611 0-2.997-.287-4.179-.833l-.785 1.696c1.468.68 3.13 1.006 4.964 1.006v-1.87zm-4.175-.831c-1.16-.544-2.028-1.3-2.637-2.262l-1.58 1c.816 1.289 1.969 2.273 3.424 2.954l.793-1.692zm-2.629-2.248c-.596-.98-.907-2.125-.907-3.464h-1.869c0 1.642.385 3.13 1.18 4.436l1.596-.972zm-.907-3.464c0-1.17.251-2.159.724-2.992l-1.627-.922c-.653 1.154-.966 2.468-.966 3.914h1.87zm.721-2.988c.494-.861 1.224-1.608 2.22-2.232l-.993-1.584c-1.223.767-2.183 1.727-2.848 2.886l1.621.93zm2.228-2.237c.996-.64 2.244-1.133 3.767-1.463l-.395-1.827c-1.69.366-3.158.931-4.381 1.717l1.009 1.573zm3.767-1.463c1.526-.33 3.313-.5 5.367-.5v-1.87c-2.152 0-4.076.178-5.762.543l.395 1.827zm5.367-.5c1.242 0 2.382.032 3.42.097l.116-1.866c-1.083-.067-2.262-.1-3.536-.1v1.868zm4.412-.85c-.035-2.26-.588-4.111-1.844-5.347l-1.31 1.332c.763.752 1.254 2.03 1.285 4.044l1.869-.03zm-1.839-5.342c-1.252-1.252-3.085-1.789-5.306-1.789v1.87c1.953 0 3.217.473 3.985 1.24l1.321-1.32zm-5.306-1.789c-1.445 0-2.79.203-4.026.62l.6 1.771c1.016-.344 2.156-.522 3.426-.522V27.81zm-4.014.617c-1.226.397-2.504 1.045-3.83 1.923l1.032 1.559c1.224-.811 2.348-1.372 3.374-1.704l-.576-1.778zM52.19 31.07l-.249-4.024-1.865.115.248 4.024 1.866-.115zm12.795 6.356c-1.041-.1-1.91-.153-2.6-.153v1.869c.605 0 1.408.047 2.42.145l.18-1.86zm-2.6-.153c-3.112 0-5.59.394-7.32 1.283-.878.451-1.59 1.043-2.08 1.797-.492.76-.725 1.63-.725 2.574h1.87c0-.628.15-1.135.423-1.556.276-.425.713-.817 1.366-1.152 1.334-.685 3.453-1.077 6.467-1.077v-1.87zM52.26 42.928c0 .934.247 1.793.76 2.54l1.541-1.056c-.281-.411-.432-.894-.432-1.484H52.26zm.76 2.54c.506.74 1.212 1.298 2.073 1.69l.774-1.702c-.596-.27-1.017-.623-1.305-1.044l-1.542 1.057zm2.073 1.69c.868.394 1.831.58 2.871.58v-1.869c-.815 0-1.508-.145-2.097-.413l-.774 1.701zm2.871.58c1.836 0 3.415-.401 4.648-1.296l-1.098-1.513c-.82.596-1.974.94-3.55.94v1.869zm4.648-1.296c1.19-.864 2.032-2.028 2.521-3.46l-1.768-.605c-.372 1.086-.988 1.926-1.851 2.552l1.098 1.513zm2.521-3.46c.47-1.374.697-2.92.697-4.625h-1.87c0 1.542-.204 2.878-.595 4.02l1.768.605zm16.058-29.516h.934v-.934h-.934v.934zm0 36.641v.935h.934v-.935h-.934zm-4.645 0h-.935v.935h.935v-.935zm0-36.64v-.935h-.935v.934h.935zm3.71 0v36.64h1.87v-36.64h-1.87zm.935 35.706h-4.645v1.869h4.645v-1.87zm-3.71.934v-36.64h-1.87v36.64h1.87zm-.935-35.706h4.645v-1.87h-4.645v1.87zm31.871 10.84l.88.316.45-1.25h-1.33v.934zm-8.943 24.866v.935h.657l.223-.618-.88-.317zm-5.29 0l-.878.324.226.611h.651v-.935zm-9.167-24.866v-.934h-1.341l.464 1.257.877-.323zm4.993 0l.88-.313-.22-.622h-.66v.935zm5.092 14.334l.887-.296-.003-.009-.003-.008-.88.313zm.795 2.335l-.882.308.005.014.005.013.872-.335zm.621 1.888l-.902.243.004.015.004.015.894-.273zm.422 1.987l-.925.126 1.85.012-.924-.138zm1.069-3.975l.88.313.001-.002-.881-.31zm5.837-16.569v-.934h-.661l-.22.623.881.311zm3.692-.316L98.595 49.79l1.759.633 8.943-24.867-1.759-.632zm-8.064 24.248h-5.29v1.869h5.29v-1.87zm-4.414.611l-9.167-24.866-1.753.646 9.166 24.867 1.754-.647zM85.017 26.176h4.993v-1.87h-4.993v1.87zm4.112-.622l5.093 14.334 1.76-.626-5.092-14.334-1.76.626zm5.087 14.316c.299.898.565 1.68.8 2.348l1.763-.617c-.23-.657-.493-1.43-.79-2.322l-1.773.591zm.809 2.375c.238.619.434 1.217.591 1.797l1.804-.488c-.174-.647-.392-1.306-.65-1.98l-1.745.671zm.6 1.826c.165.54.296 1.153.39 1.84l1.852-.252c-.106-.77-.256-1.483-.455-2.134l-1.788.546zm2.24 1.852c.154-1.03.49-2.293 1.024-3.8l-1.761-.625c-.558 1.574-.934 2.96-1.112 4.149l1.849.276zm1.025-3.802l5.838-16.57-1.763-.62L97.127 41.5l1.763.62zm4.956-15.945h4.571v-1.87h-4.571v1.87zm9.813.928l-.472-.806-.496.29.035.574.933-.058zm4.024-1.739l-.245-.902-.003.001.248.901zm10.16.795l-.462.813.011.005.451-.818zm3.304 3.751l-.874.33.874-.33zm.82 16.669l-.934.022v.011l.934-.033zm.199 3.527v.935h1.018l-.087-1.015-.931.08zm-4.223 0l-.933.054.05.881h.883v-.935zm0-4.272l.933.045-1.735-.525.802.48zm-3.428 3.527l.45.82.008-.005-.458-.815zm-9.49.174l-.396.846.004.002.392-.848zm-3.031-2.608l-.798.486.004.006.005.007.789-.5zm-.198-7.403l-.811-.465-.002.004.813.46zm2.534-2.559l.496.792.008-.005-.504-.787zm13.116-2.012l-.058.933 1.008.063-.016-1.01-.934.014zm-1.565-4.695l-.661.66.006.006.655-.666zm-8.372-.944l.288.89.012-.005-.3-.885zm-3.602 1.813l-.933.058.1 1.615 1.349-.893-.516-.78zm13.638 7.23h.935v-.85l-.845-.08-.09.93zm-9.415 7.949l-.386.85.386-.85zm6.583-.621l-.549-.757.549.757zM114.131 27.91c1.298-.76 2.564-1.305 3.8-1.645l-.496-1.802c-1.414.389-2.83 1.003-4.248 1.834l.944 1.613zm3.797-1.644c1.254-.34 2.604-.514 4.053-.514v-1.869c-1.599 0-3.114.191-4.543.58l.49 1.803zm4.053-.514c2.219 0 4.003.425 5.401 1.22l.923-1.625c-1.749-.995-3.873-1.464-6.324-1.464v1.87zm5.411 1.225c1.405.776 2.351 1.858 2.881 3.263l1.749-.66c-.696-1.84-1.953-3.26-3.727-4.239l-.903 1.636zm2.881 3.264c.448 1.185.71 3.337.71 6.575h1.869c0-3.254-.252-5.706-.831-7.236l-1.748.66zm.71 6.575v4.844h1.869v-4.844h-1.869zm0 4.844c0 1.877.016 3.524.05 4.94l1.868-.043c-.033-1.398-.049-3.03-.049-4.897h-1.869zm.05 4.952c.05 1.4.117 2.593.202 3.575l1.862-.16c-.081-.94-.147-2.1-.196-3.481l-1.868.066zm1.133 2.56h-4.223v1.869h4.223v-1.87zm-3.29.881c-.032-.558-.048-1.186-.048-1.884h-1.87c0 .726.017 1.39.052 1.99l1.866-.106zm-.048-1.884c0-.867.016-1.63.048-2.29l-1.867-.09c-.034.697-.051 1.491-.051 2.38h1.87zm-1.687-2.815c-.897 1.499-1.931 2.544-3.085 3.193l.917 1.629c1.496-.842 2.747-2.149 3.772-3.863l-1.604-.959zm-3.077 3.188c-1.152.634-2.626.978-4.468.978v1.869c2.067 0 3.872-.385 5.369-1.209l-.901-1.638zm-4.468.978c-1.611 0-2.997-.287-4.179-.833l-.784 1.696c1.468.68 3.129 1.006 4.963 1.006v-1.87zm-4.175-.831c-1.16-.544-2.028-1.3-2.637-2.262l-1.579 1c.815 1.289 1.968 2.273 3.424 2.954l.792-1.692zm-2.628-2.248c-.597-.98-.907-2.125-.907-3.464h-1.869c0 1.642.385 3.13 1.179 4.436l1.597-.972zm-.907-3.464c0-1.17.25-2.159.723-2.992l-1.626-.922c-.654 1.154-.966 2.468-.966 3.914h1.869zm.72-2.988c.495-.861 1.224-1.608 2.22-2.232l-.993-1.584c-1.223.767-2.183 1.727-2.848 2.886l1.621.93zm2.228-2.237c.996-.64 2.244-1.133 3.767-1.463l-.395-1.827c-1.69.366-3.158.931-4.381 1.717l1.009 1.573zm3.767-1.463c1.527-.33 3.313-.5 5.367-.5v-1.87c-2.152 0-4.076.178-5.762.543l.395 1.827zm5.367-.5c1.243 0 2.382.032 3.42.097l.116-1.866c-1.082-.067-2.261-.1-3.536-.1v1.868zm4.412-.85c-.035-2.26-.587-4.111-1.844-5.347l-1.31 1.332c.763.752 1.254 2.03 1.285 4.044l1.869-.03zm-1.838-5.342c-1.253-1.252-3.086-1.789-5.306-1.789v1.87c1.952 0 3.216.473 3.984 1.24l1.322-1.32zm-5.306-1.789c-1.446 0-2.791.203-4.026.62l.599 1.771c1.017-.344 2.156-.522 3.427-.522V27.81zm-4.014.617c-1.227.397-2.504 1.045-3.831 1.923l1.032 1.559c1.224-.811 2.348-1.372 3.374-1.704l-.575-1.778zm-2.382 2.645l-.248-4.024-1.866.115.248 4.024 1.866-.115zm12.795 6.356c-1.041-.1-1.911-.153-2.599-.153v1.869c.604 0 1.407.047 2.419.145l.18-1.86zm-2.599-.153c-3.113 0-5.59.394-7.32 1.283-.879.451-1.591 1.043-2.081 1.797-.492.76-.725 1.63-.725 2.574h1.869c0-.628.151-1.135.424-1.556.276-.425.713-.817 1.367-1.152 1.333-.685 3.452-1.077 6.466-1.077v-1.87zm-10.126 5.654c0 .934.247 1.793.76 2.54l1.542-1.056c-.282-.411-.433-.894-.433-1.484h-1.869zm.76 2.54c.507.74 1.212 1.298 2.074 1.69l.773-1.702c-.596-.27-1.017-.623-1.305-1.044l-1.542 1.057zm2.074 1.69c.868.394 1.831.58 2.87.58v-1.869c-.815 0-1.508-.145-2.097-.413l-.773 1.701zm2.87.58c1.836 0 3.415-.401 4.648-1.296l-1.098-1.513c-.82.596-1.974.94-3.55.94v1.869zm4.648-1.296c1.191-.864 2.032-2.028 2.522-3.46l-1.769-.605c-.371 1.086-.988 1.926-1.851 2.552l1.098 1.513zm2.522-3.46c.47-1.374.696-2.92.696-4.625h-1.869c0 1.542-.205 2.878-.596 4.02l1.769.605z"/>
</svg>
