<?xml version="1.0" encoding="utf-8"?>
<!-- Generator: Adobe Illustrator 16.0.0, SVG Export Plug-In . SVG Version: 6.00 Build 0)  -->
<!DOCTYPE svg PUBLIC "-//W3C//DTD SVG 1.1//EN" "http://www.w3.org/Graphics/SVG/1.1/DTD/svg11.dtd">
<svg version="1.1" id="Layer_1" xmlns="http://www.w3.org/2000/svg" xmlns:xlink="http://www.w3.org/1999/xlink" x="0px" y="0px"
	 width="24px" height="24px" viewBox="0 0 24 24" enable-background="new 0 0 24 24" xml:space="preserve">
<g>
	<path fill="#727272" d="M23.048,22.451h-1.9V3.484c0-0.428-0.426-0.774-0.949-0.774h-7.129V0.773C13.069,0.346,12.644,0,12.118,0
		H5.524c-0.525,0-0.95,0.348-0.95,0.773V2.71H3.802c-0.525,0-0.951,0.347-0.951,0.774v18.967h-1.9c-0.525,0-0.95,0.348-0.95,0.773
		c0,0.428,0.425,0.774,0.95,0.774h22.099c0.525,0,0.951-0.347,0.951-0.774C24,22.798,23.573,22.451,23.048,22.451z M6.474,1.548
		h4.693v1.161H6.474V1.548z M10.099,22.451v-3.29h3.801v3.29H10.099z M15.802,22.451v-3.29h0.415c0.524,0,0.95-0.347,0.95-0.774
		c0-0.427-0.426-0.772-0.95-0.772c-3.307,0-5.374,0-8.437,0c-0.524,0-0.949,0.347-0.949,0.772c0,0.428,0.425,0.774,0.949,0.774
		h0.416v3.29H4.751V4.258h14.495v18.193H15.802z M10.632,6.532c0,0.428-0.425,0.774-0.949,0.774h-1.07
		c-0.524,0-0.95-0.348-0.95-0.774s0.426-0.774,0.95-0.774h1.07C10.207,5.758,10.632,6.104,10.632,6.532z M16.276,6.532
		c0,0.428-0.426,0.774-0.951,0.774h-1.069c-0.524,0-0.95-0.348-0.95-0.774s0.426-0.774,0.95-0.774h1.069
		C15.851,5.758,16.276,6.104,16.276,6.532z M10.632,9.436c0,0.428-0.425,0.774-0.949,0.774h-1.07c-0.524,0-0.95-0.347-0.95-0.774
		s0.426-0.773,0.95-0.773h1.07C10.207,8.661,10.632,9.008,10.632,9.436z M16.276,9.436c0,0.428-0.426,0.774-0.951,0.774h-1.069
		c-0.524,0-0.95-0.347-0.95-0.774s0.426-0.773,0.95-0.773h1.069C15.851,8.661,16.276,9.008,16.276,9.436z M10.632,12.339
		c0,0.429-0.425,0.774-0.949,0.774h-1.07c-0.524,0-0.95-0.348-0.95-0.774s0.426-0.774,0.95-0.774h1.07
		C10.207,11.564,10.632,11.911,10.632,12.339z M16.276,12.339c0,0.429-0.426,0.774-0.951,0.774h-1.069
		c-0.524,0-0.95-0.348-0.95-0.774s0.426-0.774,0.95-0.774h1.069C15.851,11.564,16.276,11.911,16.276,12.339z M10.632,15.242
		c0,0.428-0.425,0.773-0.949,0.773h-1.07c-0.524,0-0.95-0.347-0.95-0.773c0-0.428,0.426-0.774,0.95-0.774h1.07
		C10.207,14.468,10.632,14.814,10.632,15.242z M16.276,15.242c0,0.428-0.426,0.773-0.951,0.773h-1.069
		c-0.524,0-0.95-0.347-0.95-0.773c0-0.428,0.426-0.774,0.95-0.774h1.069C15.851,14.468,16.276,14.814,16.276,15.242z"/>
</g>
</svg>
