<?xml version="1.0" encoding="utf-8"?>
<!-- Generator: Adobe Illustrator 16.0.0, SVG Export Plug-In . SVG Version: 6.00 Build 0)  -->
<!DOCTYPE svg PUBLIC "-//W3C//DTD SVG 1.1//EN" "http://www.w3.org/Graphics/SVG/1.1/DTD/svg11.dtd">
<svg version="1.1" id="Layer_1" xmlns="http://www.w3.org/2000/svg" xmlns:xlink="http://www.w3.org/1999/xlink" x="0px" y="0px"
	 width="34.905px" height="23.997px" viewBox="-7.842 0 34.905 23.997" enable-background="new -7.842 0 34.905 23.997"
	 xml:space="preserve">
<g>
	<path fill="#757575" d="M18.316,22.451h-1.604V3.484c0-0.428-0.36-0.774-0.801-0.774H9.887V0.773C9.885,0.346,9.527,0,9.083,0
		H3.511C3.068,0,2.708,0.348,2.708,0.773V2.71H2.056c-0.443,0-0.803,0.347-0.803,0.774v18.967h-1.606
		c-0.443,0-0.802,0.348-0.802,0.773c0,0.428,0.359,0.772,0.802,0.772h18.671c0.444,0,0.805-0.349,0.805-0.772
		C19.121,22.798,18.761,22.451,18.316,22.451z M4.313,1.548h3.966v1.161H4.313V1.548z M7.377,22.451v-3.29h3.211v3.29H7.377z
		 M12.195,22.451v-3.29h0.351c0.442,0,0.803-0.347,0.803-0.774c0-0.427-0.36-0.771-0.803-0.771c-2.794,0-4.541,0-7.129,0
		c-0.442,0-0.801,0.347-0.801,0.771c0,0.428,0.359,0.774,0.801,0.774h0.351v3.29h-2.91V4.258h12.247v18.193H12.195z M7.827,6.532
		c0,0.428-0.359,0.774-0.801,0.774H6.121c-0.443,0-0.803-0.348-0.803-0.774c0-0.426,0.36-0.774,0.803-0.774h0.904
		C7.468,5.758,7.827,6.104,7.827,6.532z M12.595,6.532c0,0.428-0.36,0.774-0.803,0.774h-0.903c-0.442,0-0.802-0.348-0.802-0.774
		c0-0.426,0.36-0.774,0.802-0.774h0.903C12.236,5.758,12.595,6.104,12.595,6.532z M7.827,9.436c0,0.428-0.359,0.774-0.801,0.774
		H6.121c-0.443,0-0.803-0.347-0.803-0.774c0-0.427,0.36-0.773,0.803-0.773h0.904C7.468,8.661,7.827,9.008,7.827,9.436z
		 M12.595,9.436c0,0.428-0.36,0.774-0.803,0.774h-0.903c-0.442,0-0.802-0.347-0.802-0.774c0-0.427,0.36-0.773,0.802-0.773h0.903
		C12.236,8.661,12.595,9.008,12.595,9.436z M7.827,12.339c0,0.429-0.359,0.774-0.801,0.774H6.121c-0.443,0-0.803-0.348-0.803-0.774
		c0-0.426,0.36-0.774,0.803-0.774h0.904C7.468,11.564,7.827,11.911,7.827,12.339z M12.595,12.339c0,0.429-0.36,0.774-0.803,0.774
		h-0.903c-0.442,0-0.802-0.348-0.802-0.774c0-0.426,0.36-0.774,0.802-0.774h0.903C12.236,11.564,12.595,11.911,12.595,12.339z
		 M7.827,15.242c0,0.428-0.359,0.773-0.801,0.773H6.121c-0.443,0-0.803-0.349-0.803-0.773c0-0.428,0.36-0.774,0.803-0.774h0.904
		C7.468,14.468,7.827,14.814,7.827,15.242z M12.595,15.242c0,0.428-0.36,0.773-0.803,0.773h-0.903c-0.442,0-0.802-0.349-0.802-0.773
		c0-0.428,0.36-0.774,0.802-0.774h0.903C12.236,14.468,12.595,14.814,12.595,15.242z"/>
</g>
<g>
	<path fill="#757575" d="M0.763,15.324c-0.204,0.14-1.191,0.723-1.816,0.723c-0.112,0-0.213-0.018-0.295-0.063
		c-0.151-0.081-0.25-0.23-0.271-0.411c-0.041-0.373-0.113-0.683-0.211-0.924c0.047,0.653,0.123,1.767,0.135,2.417
		c0,0.03,0.04,0.16,0.04,0.16l0.131,0.255c0.107,0.21,0.23,0.409,0.36,0.618c0.077,0.124,0.153,0.248,0.227,0.374
		c0.158,0.271,0.36,0.687,0.31,1.174c-0.017,0.151-0.022,0.305-0.027,0.457c-0.004,0.088-0.007,0.173-0.012,0.259L-0.737,21.6
		c-0.017,0.299-0.238,0.527-0.501,0.527c-0.011,0-0.021,0-0.031,0c-0.277-0.021-0.489-0.287-0.471-0.598l0.069-1.237
		c0.003-0.077,0.007-0.157,0.01-0.235c0.007-0.183,0.015-0.363,0.034-0.541c0.009-0.091-0.042-0.235-0.154-0.427
		c-0.067-0.116-0.139-0.231-0.211-0.347c-0.136-0.22-0.277-0.449-0.405-0.699l-0.147-0.286c-0.07-0.018-0.143-0.03-0.217-0.03
		c-0.012,0-0.028,0.007-0.041,0.01c0.003,0.536,0.008,1.07,0.005,1.609c-0.001,0.364-0.158,0.624-0.274,0.813
		c-0.022,0.036-0.045,0.072-0.065,0.111l-0.873,1.589c-0.095,0.174-0.259,0.269-0.429,0.269c-0.089,0-0.18-0.026-0.263-0.083
		c-0.235-0.163-0.311-0.509-0.165-0.774l0.871-1.589c0.031-0.054,0.061-0.105,0.093-0.158c0.038-0.062,0.093-0.154,0.1-0.187
		c0.002-0.592-0.002-1.187-0.006-1.783c0,0,0.101-3.083,0.111-3.312c-0.197,0.083-0.394,0.2-0.57,0.376
		c-0.442,0.436-0.687,1.134-0.729,2.074c-0.011,0.232-0.182,0.413-0.388,0.413c-0.007,0-0.013,0-0.021-0.001
		c-0.214-0.012-0.378-0.217-0.368-0.457c0.053-1.18,0.385-2.082,0.989-2.681c0.45-0.446,1.04-0.68,1.627-0.787
		c0.142-0.026,0.286-0.036,0.429-0.03c0.328,0.011,0.67,0.072,0.953,0.264c0.448,0.309,0.746,0.895,0.884,1.746
		c0.303-0.074,0.86-0.308,1.245-0.573c0.182-0.126,0.421-0.063,0.534,0.141C1.001,14.932,0.944,15.199,0.763,15.324z M-2.775,13.029
		c0.606,0,1.096-0.549,1.096-1.228s-0.49-1.228-1.096-1.228s-1.097,0.549-1.097,1.228S-3.381,13.029-2.775,13.029z M-5.041,17.75
		l0.534,0.265l-0.815,2.022l-2.521-1.249l0.814-2.021l0.51,0.252l0.279-0.688l0.555,0.274c-0.004-0.041,0.468,0.228,0.684,0.338
		l0.238,0.118L-5.041,17.75z M-5.337,17.306l-0.683-0.34l-0.089,0.222l0.684,0.339L-5.337,17.306z"/>
</g>
</svg>
