<?xml version="1.0" encoding="utf-8"?>
<!-- Generator: Adobe Illustrator 16.0.0, SVG Export Plug-In . SVG Version: 6.00 Build 0)  -->
<!DOCTYPE svg PUBLIC "-//W3C//DTD SVG 1.1//EN" "http://www.w3.org/Graphics/SVG/1.1/DTD/svg11.dtd">
<svg version="1.1" id="Capa_1" xmlns="http://www.w3.org/2000/svg" xmlns:xlink="http://www.w3.org/1999/xlink" x="0px" y="0px"
	 width="34px" height="20px" viewBox="0 0 34 20" enable-background="new 0 0 34 20" xml:space="preserve">
<path fill="#05BEEE" d="M32.878,0H9.575c-0.62,0-1.122,0.502-1.122,1.122v16.832c0,0.62,0.502,1.122,1.122,1.122h23.303
	c0.62,0,1.122-0.502,1.122-1.122V1.122C34,0.502,33.498,0,32.878,0z M29.816,2.244L20.93,9.771l-8.417-7.527H29.816z M31.756,16.832
	H10.697v-13.2l9.464,8.463c0.417,0.373,1.046,0.382,1.473,0.021l10.122-8.572V16.832z M6.359,8.414H4.414
	c-0.62,0-1.122,0.502-1.122,1.122s0.502,1.122,1.122,1.122h1.945c0.62,0,1.122-0.502,1.122-1.122S6.978,8.414,6.359,8.414z
	 M6.359,12.979H1.122C0.502,12.979,0,13.48,0,14.1c0,0.62,0.502,1.123,1.122,1.123H6.36c0.62,0,1.122-0.504,1.122-1.123
	s-0.503-1.123-1.122-1.123L6.359,12.979z M6.359,3.852H1.122C0.502,3.852,0,4.354,0,4.974c0,0.62,0.502,1.122,1.122,1.122H6.36
	c0.62,0,1.122-0.503,1.122-1.122C7.482,4.354,6.979,3.852,6.359,3.852L6.359,3.852z"/>
</svg>
