<svg xmlns="http://www.w3.org/2000/svg" width="18" height="18" fill="none" viewBox="0 0 18 18">
    <path fill="#fff" d="M17.25 14.25h-1.997c-.325-1.08-1.318-1.875-2.503-1.875s-2.177.794-2.503 1.875H.75c-.414 0-.75.336-.75.75s.336.75.75.75h9.497c.325 1.08 1.318 1.875 2.503 1.875s2.177-.794 2.503-1.875h1.997c.415 0 .75-.336.75-.75s-.335-.75-.75-.75zm-4.5 1.875c-.62 0-1.125-.505-1.125-1.125s.505-1.125 1.125-1.125 1.125.505 1.125 1.125-.505 1.125-1.125 1.125zM17.25 2.25h-1.997C14.927 1.17 13.935.375 12.75.375s-2.177.794-2.503 1.875H.75C.336 2.25 0 2.586 0 3s.336.75.75.75h9.497c.326 1.08 1.318 1.875 2.503 1.875s2.177-.794 2.503-1.875h1.997c.415 0 .75-.336.75-.75s-.335-.75-.75-.75zm-4.5 1.875c-.62 0-1.125-.505-1.125-1.125s.505-1.125 1.125-1.125S13.875 2.38 13.875 3s-.505 1.125-1.125 1.125zM17.25 8.25H7.753C7.427 7.17 6.435 6.375 5.25 6.375s-2.177.794-2.503 1.875H.75C.336 8.25 0 8.586 0 9s.336.75.75.75h1.997c.326 1.08 1.318 1.875 2.503 1.875s2.177-.794 2.503-1.875h9.497c.415 0 .75-.336.75-.75s-.335-.75-.75-.75zm-12 1.875c-.62 0-1.125-.505-1.125-1.125S4.63 7.875 5.25 7.875 6.375 8.38 6.375 9s-.505 1.125-1.125 1.125z"/>
</svg>
