<?xml version="1.0" encoding="utf-8"?>
<!-- Generator: Adobe Illustrator 16.0.0, SVG Export Plug-In . SVG Version: 6.00 Build 0)  -->
<!DOCTYPE svg PUBLIC "-//W3C//DTD SVG 1.1//EN" "http://www.w3.org/Graphics/SVG/1.1/DTD/svg11.dtd">
<svg version="1.1" id="Capa_1" xmlns="http://www.w3.org/2000/svg" xmlns:xlink="http://www.w3.org/1999/xlink" x="0px" y="0px"
	 width="73.76px" height="74.02px" viewBox="538.258 629.076 73.76 74.02" enable-background="new 538.258 629.076 73.76 74.02"
	 xml:space="preserve">
<title>support</title>
<g>
	<path fill="#999999" d="M575.009,638.481c0.804,0,1.455-0.65,1.456-1.454v-6.495c0-0.805-0.652-1.456-1.456-1.456
		s-1.455,0.651-1.455,1.456v6.495c0,0.804,0.651,1.456,1.455,1.456V638.481z"/>
	<path fill="#999999" d="M610.597,679.095l-2.572-2.564c-1.529-1.52-3.876-1.854-5.77-0.822l-4.846-4.842l0.235-0.235
		c1.962-1.974,1.962-5.16,0-7.134c-0.691-0.696-1.572-1.173-2.534-1.371c0.134-0.46,0.201-0.937,0.201-1.416
		c0.002-2.389-1.673-4.451-4.012-4.938c0.134-0.461,0.201-0.938,0.201-1.417c0.001-2.388-1.673-4.448-4.011-4.936
		c0.788-2.669-0.737-5.47-3.406-6.258c-0.642-0.188-1.313-0.248-1.979-0.175l-9.604-1.818c-1.464-0.278-3.291-0.462-4.448,0.592
		c-0.077,0.072-0.151,0.147-0.221,0.228c-1.847-0.676-3.919-0.221-5.312,1.168c-0.948,0.945-1.479,2.23-1.475,3.569
		c0,0.479,0.066,0.956,0.199,1.417c-2.729,0.574-4.477,3.253-3.902,5.982c0.027,0.127,0.059,0.253,0.095,0.378
		c-2.729,0.572-4.476,3.249-3.903,5.978c0.137,0.649,0.399,1.266,0.773,1.813c-2.638,0.899-4.047,3.768-3.146,6.405
		c0.249,0.73,0.662,1.395,1.208,1.94l0.235,0.233l-4.847,4.832c-1.854-0.872-4.056-0.491-5.508,0.954l-2.573,2.567
		c-1.893,1.897-1.893,4.97,0,6.868l3.212,3.208c0.562,0.575,1.483,0.586,2.059,0.024c0.575-0.563,0.586-1.483,0.024-2.059
		c-0.008-0.009-0.017-0.018-0.025-0.026l-3.204-3.208c-0.751-0.761-0.751-1.985,0-2.746l2.573-2.566
		c0.633-0.628,1.61-0.747,2.375-0.289c0.146,0.225,0.352,0.404,0.593,0.519l14.759,14.73c0.143,0.313,0.392,0.563,0.703,0.709
		c0.676,0.771,0.641,1.932-0.081,2.659l-2.57,2.574c-0.763,0.755-1.991,0.755-2.754,0l-3.211-3.212
		c-0.551-0.586-1.473-0.613-2.058-0.063c-0.586,0.551-0.614,1.473-0.063,2.058c0.02,0.021,0.039,0.041,0.06,0.061l3.216,3.215
		c1.9,1.885,4.965,1.885,6.865,0l2.579-2.573c1.595-1.603,1.877-4.093,0.681-6.012l5.456-5.449l0.017-0.018
		c0.625-0.646,2.364-0.525,4.048-0.409c1.196,0.084,2.527,0.177,3.83,0.026l5.973,5.966c-1.03,1.893-0.693,4.238,0.827,5.765
		l2.572,2.57c1.899,1.889,4.969,1.889,6.868,0l15.597-15.586C612.491,684.064,612.491,680.991,610.597,679.095L610.597,679.095z
		 M571.957,644.028l6.316,1.195l-3.78,3.779c-0.835-0.43-1.6-0.984-2.266-1.646c-1.204-1.156-2.064-2.479-2.144-3.31l0,0
		c-0.004-0.048-0.004-0.096,0-0.145c0.19-0.046,0.695-0.098,1.879,0.126H571.957z M564.585,645.217
		c0.727-0.725,1.865-0.833,2.716-0.259c0.464,1.98,2.157,3.779,2.922,4.502c0.563,0.539,2.371,2.153,4.192,2.602
		c0.675,0.968,0.438,2.3-0.53,2.976c-0.851,0.593-2.005,0.489-2.737-0.246l0,0l-6.563-6.558
		C563.758,647.398,563.758,646.053,564.585,645.217z M560.781,651.569c0.837-0.831,2.188-0.831,3.024,0l5.286,5.276
		c0.835,0.838,0.832,2.193-0.006,3.028s-2.193,0.832-3.028-0.006l0,0l0,0l-4.01-4.01l-0.021-0.02l-1.255-1.253
		c-0.833-0.835-0.833-2.186,0-3.02L560.781,651.569z M556.969,657.921c0.835-0.823,2.175-0.827,3.016-0.01l4.021,4.021
		c0.832,0.831,0.833,2.18,0.002,3.012c-0.401,0.401-0.947,0.626-1.516,0.624c-0.569,0.005-1.117-0.219-1.521-0.62l-1.457-1.457l0,0
		l-2.552-2.549c-0.831-0.836-0.831-2.186,0-3.021H556.969z M554.434,665.553c0.839-0.836,2.196-0.836,3.035,0l1.461,1.458
		c0.832,0.839,0.828,2.193-0.011,3.026c-0.838,0.832-2.192,0.828-3.025-0.011l-0.188-0.184v-0.007l-0.009-0.007l-1.262-1.258
		C553.603,667.737,553.603,666.387,554.434,665.553L554.434,665.553z M584.101,682.098c-0.568-0.568-1.49-0.568-2.059,0
		l-1.301,1.293c-1.23,1.231-3.461,1.076-5.618,0.926c-2.34-0.161-4.756-0.33-6.329,1.284l-5.366,5.349l-13.406-13.388l4.746-4.737
		c2.377,1.456,5.485,0.709,6.941-1.668c0.486-0.794,0.743-1.707,0.743-2.639c0-0.012,0-0.024,0-0.038h0.038
		c2.781,0.007,5.041-2.243,5.048-5.024c0-0.006,0-0.011,0-0.016c0-0.014,0-0.026,0-0.038h0.039c2.777,0.01,5.037-2.234,5.047-5.012
		c0-0.022,0-0.046,0-0.068h0.039c2.789-0.003,5.048-2.267,5.045-5.057c-0.001-0.924-0.256-1.83-0.735-2.619l4.158-4.158
		c0.301-0.295,0.681-0.496,1.094-0.578c0.043-0.005,0.086-0.012,0.128-0.021c1.167-0.163,2.246,0.65,2.41,1.817
		c0.092,0.659-0.129,1.324-0.597,1.797l-1.269,1.262l-0.013,0.012l-1.459,1.457c-0.562,0.575-0.551,1.497,0.024,2.059
		c0.565,0.553,1.468,0.553,2.033,0.002l1.272-1.27l0,0l0.191-0.192c0.839-0.827,2.188-0.823,3.021,0.009
		c0.831,0.834,0.831,2.183,0,3.018l-1.274,1.276l0,0l-1.459,1.454c-0.598,0.538-0.646,1.458-0.108,2.056
		c0.538,0.598,1.459,0.646,2.057,0.108c0.033-0.03,0.066-0.063,0.098-0.097l1.466-1.46c0.834-0.835,2.187-0.836,3.021-0.002
		c0.836,0.833,0.837,2.187,0.003,3.021l-2.54,2.542c-0.576,0.561-0.588,1.482-0.026,2.059c0.562,0.575,1.483,0.587,2.059,0.025
		c0.009-0.009,0.018-0.017,0.026-0.025l1.244-1.246l0.022-0.02c0.833-0.835,2.187-0.837,3.021-0.003
		c0.836,0.833,0.837,2.187,0.004,3.021l-1.267,1.264l0,0l-2.008,2.007c-0.57,0.567-0.572,1.49-0.004,2.061s1.491,0.571,2.061,0.004
		l0.983-0.982l4.708,4.705l-13.408,13.392l-4.805-4.799c0.345-0.22,0.666-0.476,0.957-0.764l1.301-1.301
		c0.568-0.567,0.569-1.488,0.002-2.057C584.102,682.098,584.102,682.097,584.101,682.098L584.101,682.098z M608.543,683.902
		l-15.608,15.585c-0.761,0.751-1.984,0.751-2.746,0l-2.573-2.57c-0.756-0.76-0.756-1.987,0-2.747l15.6-15.582
		c0.762-0.751,1.985-0.751,2.747,0l2.571,2.564c0.753,0.761,0.753,1.985,0,2.747L608.543,683.902z"/>
	<path fill="#999999" d="M555.677,637.254c0.569,0.568,1.491,0.567,2.059-0.002c0.568-0.569,0.567-1.491-0.002-2.06l0,0
		l-5.306-5.294c-0.575-0.561-1.497-0.549-2.059,0.027c-0.551,0.566-0.55,1.468,0.002,2.033L555.677,637.254z"/>
	<path fill="#999999" d="M593.313,637.679c0.386,0.001,0.756-0.152,1.029-0.425l5.301-5.295c0.569-0.568,0.569-1.49,0.001-2.06
		c-0.568-0.568-1.49-0.569-2.06-0.001l-5.301,5.296c-0.568,0.568-0.568,1.49,0,2.059
		C592.556,637.525,592.926,637.679,593.313,637.679z"/>
	<path fill="#999999" d="M547.211,691.701c-0.563,0.574-0.556,1.496,0.018,2.061l0,0c0.575,0.561,1.497,0.549,2.059-0.026
		c0.561-0.575,0.55-1.497-0.026-2.059c-0.574-0.56-1.492-0.55-2.054,0.021L547.211,691.701z"/>
	<path fill="#999999" d="M587.658,680.002c0.804-0.001,1.455-0.654,1.454-1.458s-0.653-1.455-1.458-1.454
		c-0.226,0.001-0.448,0.054-0.65,0.155h-0.009c-0.713,0.371-0.99,1.25-0.618,1.964c0.249,0.478,0.742,0.779,1.281,0.782V680.002z"/>
</g>
</svg>
