<?xml version="1.0" encoding="utf-8"?>
<!-- Generator: Adobe Illustrator 16.0.0, SVG Export Plug-In . SVG Version: 6.00 Build 0)  -->
<!DOCTYPE svg PUBLIC "-//W3C//DTD SVG 1.1//EN" "http://www.w3.org/Graphics/SVG/1.1/DTD/svg11.dtd">
<svg version="1.1" id="Capa_1" xmlns="http://www.w3.org/2000/svg" xmlns:xlink="http://www.w3.org/1999/xlink" x="0px" y="0px"
	 width="65.535px" height="65.766px" viewBox="546.482 637.33 65.535 65.766" enable-background="new 546.482 637.33 65.535 65.766"
	 xml:space="preserve">
<title>support</title>
<g>
	<path fill="#FFFFFF" d="M579.136,645.687c0.714,0,1.293-0.578,1.294-1.292v-5.771c0-0.714-0.579-1.293-1.294-1.293
		c-0.714,0-1.293,0.579-1.293,1.293v5.771c0,0.714,0.579,1.294,1.293,1.294V645.687z"/>
	<path fill="#FFFFFF" d="M610.755,681.771l-2.285-2.278c-1.358-1.351-3.443-1.647-5.126-0.73l-4.306-4.302l0.209-0.21
		c1.743-1.753,1.743-4.585,0-6.338c-0.614-0.619-1.397-1.042-2.251-1.219c0.118-0.408,0.179-0.832,0.178-1.258
		c0.002-2.122-1.486-3.954-3.563-4.388c0.118-0.409,0.179-0.833,0.178-1.26c0.002-2.12-1.485-3.951-3.563-4.384
		c0.7-2.372-0.655-4.861-3.026-5.561c-0.57-0.168-1.168-0.221-1.758-0.155l-8.533-1.616c-1.301-0.246-2.925-0.41-3.951,0.526
		c-0.07,0.063-0.136,0.131-0.196,0.202c-1.642-0.602-3.482-0.196-4.72,1.038c-0.843,0.839-1.314,1.98-1.31,3.171
		c-0.001,0.426,0.059,0.85,0.177,1.259c-2.426,0.51-3.978,2.891-3.468,5.315c0.024,0.112,0.053,0.226,0.085,0.336
		c-2.425,0.509-3.978,2.887-3.469,5.311c0.121,0.577,0.354,1.124,0.688,1.61c-2.344,0.8-3.596,3.349-2.796,5.692
		c0.221,0.649,0.589,1.238,1.073,1.724l0.21,0.208l-4.308,4.293c-1.646-0.775-3.603-0.437-4.893,0.848l-2.287,2.28
		c-1.682,1.687-1.682,4.416,0,6.103l2.854,2.851c0.499,0.511,1.318,0.521,1.829,0.021s0.521-1.318,0.021-1.829
		c-0.008-0.008-0.015-0.016-0.023-0.022l-2.846-2.851c-0.668-0.677-0.668-1.765,0-2.44l2.286-2.28
		c0.563-0.558,1.432-0.663,2.11-0.256c0.13,0.198,0.312,0.358,0.526,0.461l13.112,13.086c0.127,0.278,0.349,0.502,0.625,0.632
		c0.601,0.684,0.569,1.715-0.072,2.361l-2.283,2.288c-0.678,0.67-1.77,0.67-2.447,0l-2.853-2.854
		c-0.49-0.52-1.308-0.545-1.828-0.056c-0.521,0.49-0.545,1.309-0.056,1.829c0.017,0.018,0.035,0.035,0.054,0.054l2.856,2.856
		c1.688,1.674,4.411,1.674,6.1,0l2.292-2.287c1.417-1.424,1.668-3.636,0.604-5.341l4.848-4.842l0.016-0.016
		c0.555-0.574,2.1-0.468,3.596-0.363c1.063,0.075,2.245,0.157,3.402,0.023l5.308,5.301c-0.915,1.681-0.617,3.765,0.734,5.12
		l2.285,2.284c1.688,1.679,4.414,1.679,6.103,0l13.857-13.848c1.683-1.686,1.683-4.415,0-6.103L610.755,681.771z M576.425,650.615
		l5.611,1.063l-3.359,3.357c-0.741-0.382-1.421-0.875-2.012-1.463c-1.07-1.028-1.835-2.203-1.905-2.94l0,0
		c-0.002-0.043-0.002-0.085,0-0.129c0.17-0.041,0.618-0.087,1.67,0.112H576.425z M569.874,651.671
		c0.646-0.644,1.657-0.74,2.413-0.23c0.413,1.76,1.917,3.358,2.597,4c0.5,0.479,2.106,1.914,3.724,2.313
		c0.601,0.859,0.39,2.043-0.471,2.643c-0.756,0.527-1.781,0.436-2.432-0.218l0,0l-5.831-5.826
		C569.14,653.608,569.14,652.414,569.874,651.671z M566.494,657.314c0.744-0.737,1.943-0.737,2.688,0l4.697,4.688
		c0.742,0.744,0.739,1.949-0.006,2.691c-0.744,0.741-1.949,0.739-2.69-0.006l0,0l0,0l-3.563-3.563l-0.018-0.016l-1.114-1.114
		c-0.74-0.741-0.74-1.941,0-2.683L566.494,657.314z M563.107,662.958c0.742-0.73,1.933-0.734,2.68-0.009l3.573,3.574
		c0.739,0.738,0.739,1.936,0.001,2.675c-0.356,0.357-0.842,0.557-1.346,0.555c-0.507,0.005-0.994-0.194-1.353-0.551l-1.295-1.295
		l0,0l-2.267-2.265c-0.738-0.742-0.738-1.941,0-2.685H563.107z M560.854,669.738c0.746-0.742,1.952-0.742,2.697,0l1.297,1.297
		c0.74,0.744,0.736,1.948-0.009,2.688c-0.744,0.74-1.948,0.735-2.688-0.009l-0.167-0.164v-0.006l-0.007-0.007l-1.122-1.117
		C560.117,671.68,560.117,670.48,560.854,669.738L560.854,669.738z M587.214,684.438c-0.505-0.505-1.324-0.505-1.829,0l-1.156,1.149
		c-1.093,1.094-3.075,0.957-4.991,0.823c-2.079-0.144-4.226-0.295-5.623,1.141l-4.768,4.752l-11.912-11.896l4.217-4.209
		c2.112,1.294,4.874,0.631,6.167-1.481c0.434-0.705,0.661-1.518,0.661-2.345c0-0.01,0-0.021,0-0.033h0.033
		c2.472,0.006,4.479-1.993,4.485-4.465c0-0.004,0-0.01,0-0.014c0-0.012,0-0.023,0-0.033h0.035c2.467,0.009,4.476-1.985,4.483-4.453
		c0-0.02,0-0.04,0-0.061h0.034c2.479-0.003,4.486-2.015,4.483-4.493c-0.002-0.82-0.228-1.626-0.654-2.327l3.695-3.694
		c0.268-0.263,0.604-0.44,0.972-0.514c0.038-0.004,0.076-0.01,0.113-0.018c1.037-0.146,1.996,0.577,2.142,1.614
		c0.082,0.585-0.114,1.176-0.53,1.597l-1.127,1.121l-0.011,0.011l-1.297,1.294c-0.499,0.512-0.489,1.33,0.022,1.829
		c0.502,0.49,1.304,0.49,1.806,0.001l1.131-1.128l0,0l0.171-0.17c0.745-0.736,1.943-0.732,2.685,0.008
		c0.737,0.74,0.737,1.939,0,2.68l-1.134,1.135l0,0l-1.295,1.292c-0.531,0.479-0.575,1.296-0.097,1.827s1.296,0.573,1.827,0.096
		c0.029-0.027,0.059-0.056,0.086-0.086l1.303-1.298c0.741-0.742,1.943-0.742,2.686-0.001c0.742,0.74,0.742,1.942,0.001,2.685
		l-2.256,2.258c-0.512,0.499-0.521,1.318-0.023,1.829c0.499,0.512,1.317,0.522,1.829,0.023c0.008-0.008,0.016-0.016,0.023-0.023
		l1.105-1.106l0.02-0.017c0.74-0.743,1.942-0.745,2.685-0.004c0.742,0.74,0.744,1.943,0.003,2.686l-1.125,1.122l0,0l-1.784,1.783
		c-0.506,0.505-0.508,1.324-0.003,1.83c0.505,0.507,1.325,0.509,1.832,0.004l0.872-0.872l4.185,4.18l-11.914,11.898l-4.27-4.264
		c0.308-0.195,0.593-0.423,0.851-0.679l1.156-1.155C587.719,685.763,587.72,684.944,587.214,684.438
		C587.215,684.438,587.215,684.438,587.214,684.438L587.214,684.438z M608.931,686.042l-13.868,13.848
		c-0.676,0.668-1.764,0.668-2.44,0l-2.286-2.283c-0.671-0.675-0.671-1.766,0-2.441l13.86-13.844c0.677-0.668,1.764-0.668,2.44,0
		l2.285,2.277c0.668,0.677,0.668,1.766,0,2.441L608.931,686.042z"/>
	<path fill="#FFFFFF" d="M561.959,644.596c0.506,0.506,1.325,0.505,1.83-0.001s0.504-1.325-0.002-1.83l0,0l-4.714-4.704
		c-0.512-0.498-1.331-0.486-1.829,0.025c-0.489,0.502-0.488,1.304,0.002,1.806L561.959,644.596z"/>
	<path fill="#FFFFFF" d="M595.398,644.974c0.343,0.001,0.672-0.135,0.914-0.378l4.71-4.704c0.506-0.505,0.506-1.324,0.001-1.83
		s-1.324-0.506-1.83-0.001l-4.71,4.705c-0.505,0.506-0.505,1.325,0,1.83C594.727,644.838,595.055,644.974,595.398,644.974z"/>
	<path fill="#FFFFFF" d="M554.438,692.972c-0.501,0.51-0.494,1.329,0.016,1.831l0,0c0.512,0.498,1.33,0.487,1.829-0.023
		c0.499-0.512,0.488-1.331-0.023-1.829c-0.51-0.498-1.325-0.488-1.824,0.02L554.438,692.972z"/>
	<path fill="#FFFFFF" d="M590.375,682.577c0.714-0.002,1.293-0.581,1.291-1.295c-0.001-0.715-0.58-1.293-1.295-1.292
		c-0.2,0-0.398,0.047-0.578,0.137h-0.008c-0.634,0.331-0.88,1.112-0.549,1.745c0.221,0.425,0.659,0.693,1.139,0.696V682.577z"/>
</g>
</svg>
