<svg xmlns="http://www.w3.org/2000/svg" width="39" height="39" fill="none" viewBox="0 0 39 39">
    <g fill="#0ECA98" clip-path="url(#prefix__clip0)">
        <path d="M37.382 19.637L39 16.45l-1.692-3.333 1.043-4.464H0v21.692h38.38l-1.067-4.201L39 22.823l-1.618-3.186zM2.3 10.954h3.066v17.092H2.3V10.954zm33.125 17.092H7.664V10.954h27.788l-.574 2.457 1.543 3.04-1.618 3.186 1.618 3.186-1.549 3.05.552 2.173z"/>
        <path d="M28.053 13.396h2.3v2.442h-2.3v-2.441zM28.053 23.162h2.3v2.442h-2.3v-2.442zM28.053 18.28h2.3v2.441h-2.3V18.28zM10.075 13.406h10.85v2.3h-10.85v-2.3zM10.075 18.35h10.85v2.299h-10.85v-2.3zM10.075 23.293h5.457v2.3h-5.457v-2.3z"/>
    </g>
    <defs>
        <clipPath id="prefix__clip0">
            <path fill="#fff" d="M0 0H39V39H0z"/>
        </clipPath>
    </defs>
</svg>
