<?xml version="1.0" encoding="utf-8"?>
<!-- Generator: Adobe Illustrator 16.0.0, SVG Export Plug-In . SVG Version: 6.00 Build 0)  -->
<!DOCTYPE svg PUBLIC "-//W3C//DTD SVG 1.1//EN" "http://www.w3.org/Graphics/SVG/1.1/DTD/svg11.dtd">
<svg version="1.1" id="Capa_1" xmlns="http://www.w3.org/2000/svg" xmlns:xlink="http://www.w3.org/1999/xlink" x="0px" y="0px"
	 width="24px" height="24px" viewBox="295.189 383.999 24 24" enable-background="new 295.189 383.999 24 24" xml:space="preserve">
<g>
	<path fill="#0D2F9B" d="M311.448,391.271c-0.259,0-0.469,0.21-0.469,0.469s0.21,0.469,0.469,0.469s0.469-0.21,0.469-0.469
		S311.707,391.271,311.448,391.271z"/>
	<path fill="#0D2F9B" d="M302.93,399.789c-0.259,0-0.469,0.21-0.469,0.469s0.209,0.469,0.469,0.469c0.259,0,0.469-0.21,0.469-0.469
		S303.189,399.789,302.93,399.789z"/>
	<path fill="#0D2F9B" d="M318.607,386.882c-0.159-0.037-0.325,0.011-0.439,0.127l-1.943,1.958h-0.932l-1.025-1.063v-0.944
		l1.915-1.944c0.114-0.115,0.16-0.28,0.122-0.438c-0.037-0.157-0.152-0.284-0.306-0.335c-0.481-0.163-0.985-0.245-1.497-0.245
		c-1.526,0-2.914,0.712-3.806,1.953c-0.835,1.162-1.092,2.586-0.724,3.949l-3.453,3.453l-5.752-5.766v-1.132
		c0-0.165-0.086-0.317-0.228-0.402l-3.314-1.988c-0.185-0.111-0.421-0.082-0.573,0.07l-1.326,1.325
		c-0.152,0.152-0.181,0.389-0.07,0.573l1.988,3.314c0.085,0.141,0.237,0.228,0.402,0.228h1.131l5.753,5.766l-3.439,3.439
		c-1.363-0.368-2.788-0.11-3.95,0.725c-1.241,0.892-1.952,2.277-1.952,3.805c0,0.512,0.082,1.016,0.245,1.497
		c0.052,0.153,0.18,0.27,0.338,0.307c0.158,0.036,0.324-0.011,0.439-0.127l1.943-1.958h0.937l1.067,1.067v0.937l-1.958,1.943
		c-0.115,0.114-0.163,0.28-0.126,0.438s0.153,0.286,0.307,0.338c0.481,0.163,0.984,0.245,1.497,0.245
		c1.527,0,2.913-0.712,3.805-1.952c0.835-1.163,1.093-2.587,0.725-3.95l2.763-2.763l0.633,0.688l-0.291,0.29
		c-0.183,0.184-0.183,0.48,0,0.663c0.184,0.184,0.48,0.184,0.663,0l0.263-0.263l5.938,6.449c0.004,0.005,0.009,0.01,0.013,0.014
		c1.099,1.099,2.879,1.1,3.979,0c1.096-1.097,1.096-2.881,0-3.978c-0.005-0.005-0.01-0.01-0.015-0.014l-6.46-5.926l0.26-0.261
		c0.184-0.183,0.184-0.479,0-0.662c-0.183-0.184-0.479-0.184-0.663,0l-0.288,0.288l-0.688-0.632l2.776-2.776
		c0.395,0.105,0.802,0.159,1.214,0.159c2.585,0,4.688-2.103,4.688-4.688c0-0.512-0.082-1.016-0.244-1.497
		C318.893,387.036,318.764,386.919,318.607,386.882z M299.304,388.777c-0.088-0.088-0.207-0.133-0.332-0.133h-1.06l-1.664-2.778
		l0.808-0.808l2.773,1.664v1.06c0,0.124,0.049,0.243,0.137,0.331l5.89,5.904l-0.663,0.662L299.304,388.777z M311.228,397.92
		l6.481,5.946c0.724,0.731,0.722,1.916-0.007,2.646c-0.73,0.729-1.912,0.732-2.646,0.006l-5.957-6.471L311.228,397.92z
		 M310.537,397.286l-2.072,2.072l-0.633-0.688l2.016-2.017L310.537,397.286z M314.501,392.436c-0.41,0-0.813-0.065-1.198-0.195
		c-0.169-0.057-0.354-0.013-0.48,0.112c-2.351,2.351-7.414,7.414-9.279,9.278c-0.126,0.126-0.17,0.313-0.113,0.481
		c0.39,1.157,0.203,2.392-0.512,3.387c-0.713,0.992-1.822,1.562-3.043,1.562c-0.137,0-0.273-0.008-0.409-0.022l1.489-1.478
		c0.089-0.088,0.139-0.207,0.139-0.332v-1.326c0-0.125-0.049-0.244-0.137-0.332l-1.342-1.342c-0.088-0.088-0.207-0.137-0.331-0.137
		h-1.326c-0.125,0-0.245,0.05-0.333,0.139l-1.477,1.488c-0.015-0.135-0.022-0.271-0.022-0.408c0-1.222,0.569-2.331,1.562-3.043
		c0.995-0.715,2.229-0.902,3.387-0.512c0.168,0.057,0.355,0.013,0.481-0.113c0.026-0.025,9.272-9.271,9.279-9.278
		c0.126-0.126,0.169-0.312,0.112-0.48c-0.39-1.157-0.204-2.391,0.511-3.386c0.713-0.993,1.822-1.563,3.044-1.563
		c0.142,0,0.281,0.008,0.421,0.023l-1.458,1.479c-0.086,0.088-0.135,0.206-0.135,0.329v1.326c0,0.121,0.047,0.238,0.132,0.325
		l1.295,1.342c0.088,0.092,0.21,0.144,0.337,0.144h1.326c0.125,0,0.245-0.05,0.333-0.139l1.478-1.488
		c0.014,0.135,0.021,0.271,0.021,0.408C318.251,390.753,316.569,392.436,314.501,392.436z"/>
	<path fill="#0D2F9B" d="M309.791,392.734l-5.866,5.866c-0.183,0.183-0.183,0.479,0,0.663c0.183,0.183,0.48,0.183,0.663,0
		l5.866-5.866c0.183-0.183,0.183-0.479,0-0.663C310.27,392.551,309.973,392.551,309.791,392.734z"/>
	<path fill="#0D2F9B" d="M315.714,405.186c0.183,0.183,0.479,0.183,0.663-0.001c0.183-0.184,0.182-0.479-0.001-0.663l-4.226-4.211
		c-0.184-0.184-0.48-0.183-0.663,0.001s-0.183,0.479,0.001,0.663L315.714,405.186z"/>
</g>
</svg>
