<?xml version="1.0" encoding="utf-8"?>
<!-- Generator: Adobe Illustrator 16.0.0, SVG Export Plug-In . SVG Version: 6.00 Build 0)  -->
<!DOCTYPE svg PUBLIC "-//W3C//DTD SVG 1.1//EN" "http://www.w3.org/Graphics/SVG/1.1/DTD/svg11.dtd">
<svg version="1.1" id="Capa_1" xmlns="http://www.w3.org/2000/svg" xmlns:xlink="http://www.w3.org/1999/xlink" x="0px" y="0px"
	 width="24.005px" height="24px" viewBox="-0.003 4.062 24.005 24" enable-background="new -0.003 4.062 24.005 24"
	 xml:space="preserve">
<g>
	<path fill="#FFFFFF" d="M16.256,11.336c-0.258,0-0.469,0.209-0.469,0.469c0,0.259,0.211,0.469,0.469,0.469
		c0.26,0,0.469-0.21,0.469-0.469C16.725,11.545,16.516,11.336,16.256,11.336z"/>
	<path fill="#FFFFFF" d="M7.738,19.854c-0.259,0-0.469,0.21-0.469,0.469s0.209,0.469,0.469,0.469s0.469-0.21,0.469-0.469
		S7.998,19.854,7.738,19.854z"/>
	<path fill="#FFFFFF" d="M23.416,6.946c-0.16-0.036-0.326,0.011-0.439,0.127l-1.943,1.958h-0.932l-1.025-1.063V7.024l1.916-1.944
		c0.113-0.115,0.16-0.279,0.121-0.438c-0.037-0.157-0.152-0.284-0.307-0.335c-0.48-0.163-0.984-0.245-1.496-0.245
		c-1.525,0-2.914,0.712-3.807,1.953c-0.834,1.162-1.092,2.586-0.723,3.949l-3.453,3.453L5.576,7.651V6.52
		c0-0.165-0.086-0.316-0.229-0.402L2.033,4.129c-0.185-0.11-0.42-0.082-0.572,0.07L0.135,5.524c-0.152,0.152-0.182,0.39-0.07,0.573
		l1.988,3.314C2.138,9.553,2.289,9.64,2.455,9.64h1.131l5.752,5.766l-3.438,3.439c-1.362-0.368-2.788-0.11-3.95,0.725
		c-1.24,0.893-1.951,2.277-1.951,3.806c0,0.512,0.082,1.016,0.244,1.496c0.053,0.153,0.18,0.271,0.338,0.308
		c0.158,0.036,0.324-0.011,0.439-0.127l1.943-1.958h0.937l1.067,1.066v0.938L3.009,27.04c-0.115,0.114-0.163,0.28-0.126,0.438
		s0.152,0.286,0.307,0.338c0.48,0.163,0.984,0.245,1.497,0.245c1.526,0,2.913-0.712,3.806-1.952c0.834-1.163,1.092-2.587,0.725-3.95
		l2.764-2.763l0.633,0.688l-0.291,0.29c-0.184,0.185-0.184,0.48,0,0.663c0.184,0.185,0.479,0.185,0.662,0l0.264-0.263l5.938,6.449
		c0.004,0.005,0.01,0.01,0.014,0.014c1.098,1.1,2.879,1.101,3.979,0c1.096-1.097,1.096-2.881,0-3.978
		c-0.006-0.005-0.01-0.011-0.016-0.015l-6.459-5.926l0.26-0.261c0.184-0.184,0.184-0.479,0-0.662s-0.479-0.184-0.664,0l-0.287,0.288
		l-0.688-0.632l2.775-2.776c0.395,0.104,0.803,0.159,1.215,0.159c2.584,0,4.688-2.104,4.688-4.688c0-0.513-0.082-1.017-0.244-1.498
		C23.701,7.101,23.572,6.983,23.416,6.946z M4.113,8.842C4.024,8.754,3.906,8.709,3.781,8.709H2.721L1.057,5.931l0.809-0.808
		l2.772,1.664v1.06c0,0.124,0.049,0.243,0.137,0.331l5.89,5.904l-0.662,0.661L4.113,8.842z M16.037,17.984l6.48,5.946
		c0.725,0.73,0.723,1.916-0.008,2.646c-0.729,0.729-1.912,0.732-2.645,0.006l-5.957-6.471L16.037,17.984z M15.346,17.351
		l-2.072,2.072l-0.633-0.688l2.016-2.018L15.346,17.351z M19.311,12.5c-0.41,0-0.814-0.064-1.199-0.194
		c-0.168-0.058-0.354-0.013-0.48,0.112c-2.35,2.351-7.413,7.413-9.278,9.277c-0.126,0.126-0.17,0.313-0.112,0.481
		c0.389,1.156,0.202,2.392-0.513,3.387c-0.713,0.992-1.821,1.562-3.043,1.562c-0.138,0-0.272-0.008-0.409-0.021l1.489-1.479
		c0.089-0.088,0.14-0.207,0.14-0.332v-1.325c0-0.125-0.05-0.244-0.138-0.332l-1.342-1.343c-0.089-0.088-0.207-0.137-0.331-0.137
		H2.768c-0.125,0-0.245,0.05-0.333,0.14l-1.478,1.487c-0.014-0.135-0.021-0.271-0.021-0.408c0-1.222,0.568-2.33,1.563-3.043
		c0.994-0.715,2.229-0.901,3.387-0.512c0.168,0.058,0.355,0.013,0.48-0.113c0.026-0.024,9.271-9.271,9.279-9.277
		c0.127-0.127,0.17-0.313,0.111-0.48c-0.389-1.156-0.203-2.391,0.512-3.386C16.98,5.57,18.09,5,19.313,5
		c0.141,0,0.279,0.008,0.42,0.023l-1.457,1.479c-0.086,0.088-0.137,0.207-0.137,0.33v1.325c0,0.121,0.049,0.238,0.133,0.325
		l1.295,1.342c0.088,0.092,0.211,0.145,0.338,0.145h1.326c0.125,0,0.244-0.051,0.332-0.139l1.479-1.488
		c0.014,0.135,0.021,0.271,0.021,0.408C23.061,10.817,21.377,12.5,19.311,12.5z"/>
	<path fill="#FFFFFF" d="M14.6,12.799l-5.866,5.865c-0.183,0.184-0.183,0.479,0,0.663s0.479,0.184,0.663,0l5.865-5.866
		c0.184-0.183,0.184-0.479,0-0.662S14.781,12.615,14.6,12.799z"/>
	<path fill="#FFFFFF" d="M20.523,25.25c0.182,0.184,0.479,0.184,0.662-0.001c0.184-0.184,0.182-0.479-0.002-0.662l-4.225-4.212
		c-0.184-0.184-0.48-0.183-0.664,0.002c-0.182,0.184-0.182,0.479,0.002,0.662L20.523,25.25z"/>
</g>
</svg>
