<?xml version="1.0" encoding="utf-8"?>
<!-- Generator: Adobe Illustrator 16.0.0, SVG Export Plug-In . SVG Version: 6.00 Build 0)  -->
<!DOCTYPE svg PUBLIC "-//W3C//DTD SVG 1.1//EN" "http://www.w3.org/Graphics/SVG/1.1/DTD/svg11.dtd">
<svg version="1.1" id="Capa_1" xmlns="http://www.w3.org/2000/svg" xmlns:xlink="http://www.w3.org/1999/xlink" x="0px" y="0px"
	 width="63.521px" height="45.523px" viewBox="323.254 469.549 63.521 45.523"
	 enable-background="new 323.254 469.549 63.521 45.523" xml:space="preserve">
<title>truck</title>
<g>
	<rect x="381.48" y="503.427" fill="#FFFFFF" width="4.234" height="2.117"/>
	<g>
		<path fill="#FFFFFF" d="M338.076,502.368c-3.509,0-6.353,2.844-6.353,6.353c0,3.508,2.844,6.352,6.353,6.352
			c3.508,0,6.352-2.844,6.352-6.352C344.425,505.214,341.582,502.372,338.076,502.368z M338.076,512.955
			c-2.34,0-4.236-1.896-4.237-4.234c-0.001-2.34,1.896-4.236,4.234-4.237s4.236,1.896,4.237,4.234c0,0.001,0,0.002,0,0.003
			C342.308,511.058,340.413,512.952,338.076,512.955L338.076,512.955z"/>
		<path fill="#FFFFFF" d="M374.07,502.368c-3.508,0-6.353,2.844-6.353,6.353c0,3.508,2.845,6.352,6.353,6.352
			s6.352-2.844,6.352-6.352C380.419,505.214,377.577,502.372,374.07,502.368z M374.07,512.955c-2.339,0-4.236-1.896-4.236-4.234
			c-0.001-2.34,1.895-4.236,4.233-4.237c2.34-0.001,4.236,1.896,4.237,4.234c0,0.001,0,0.002,0,0.003
			C378.303,511.058,376.408,512.952,374.07,512.955L374.07,512.955z"/>
		<path fill="#FFFFFF" d="M386.605,496.501l-9.528-14.82c-0.194-0.303-0.529-0.486-0.889-0.486h-11.646
			c-0.583-0.001-1.058,0.472-1.058,1.056c0,0.001,0,0.002,0,0.003v26.468c-0.001,0.583,0.472,1.057,1.056,1.058
			c0.001,0,0.001,0,0.002,0h4.234v-2.117h-3.176v-24.349h10.008l9.047,14.073v10.275h-5.291v2.117h6.352
			c0.584,0.001,1.058-0.472,1.059-1.056c0-0.001,0-0.002,0-0.002v-11.646C386.774,496.871,386.716,496.672,386.605,496.501z"/>
		<path fill="#FFFFFF" d="M369.836,494.957v-7.411h8.469v-2.117h-9.528c-0.585,0.001-1.059,0.475-1.059,1.06v9.527
			c0,0.584,0.473,1.059,1.057,1.059c0,0,0.001,0,0.002,0h15.88v-2.117H369.836z"/>
		<path fill="#FFFFFF" d="M364.542,473.784h-40.229c-0.585,0-1.059,0.474-1.059,1.058v33.879c-0.001,0.583,0.472,1.057,1.056,1.058
			c0.001,0,0.002,0,0.003,0h8.47v-2.117h-7.41V475.9h38.112v31.761h-20.116v2.117h21.174c0.584,0.001,1.058-0.472,1.059-1.056
			c0-0.001,0-0.002,0-0.002v-33.879c0.001-0.583-0.472-1.058-1.056-1.058C364.544,473.784,364.543,473.784,364.542,473.784z"/>
		<rect x="324.313" y="503.427" fill="#FFFFFF" width="6.352" height="2.117"/>
		<rect x="345.486" y="503.427" fill="#FFFFFF" width="17.998" height="2.117"/>
		<rect x="327.488" y="478.019" fill="#FFFFFF" width="37.054" height="2.117"/>
		<rect x="337.017" y="507.661" fill="#FFFFFF" width="2.117" height="2.117"/>
		<rect x="373.012" y="507.661" fill="#FFFFFF" width="2.118" height="2.117"/>
		<rect x="327.488" y="469.549" fill="#FFFFFF" width="14.822" height="2.117"/>
	</g>
	<rect x="323.254" y="469.549" fill="#FFFFFF" width="2.118" height="2.117"/>
</g>
</svg>
