<?xml version="1.0" encoding="utf-8"?>
<!-- Generator: Adobe Illustrator 16.0.0, SVG Export Plug-In . SVG Version: 6.00 Build 0)  -->
<!DOCTYPE svg PUBLIC "-//W3C//DTD SVG 1.1//EN" "http://www.w3.org/Graphics/SVG/1.1/DTD/svg11.dtd">
<svg version="1.1" id="Capa_1" xmlns="http://www.w3.org/2000/svg" xmlns:xlink="http://www.w3.org/1999/xlink" x="0px" y="0px"
	 width="57.751px" height="41.39px" viewBox="329.023 473.683 57.751 41.39" enable-background="new 329.023 473.683 57.751 41.39"
	 xml:space="preserve">
<title>truck</title>
<g>
	<rect x="381.962" y="504.484" fill="#999999" width="3.85" height="1.925"/>
	<g>
		<path fill="#999999" d="M342.499,503.522c-3.189,0-5.775,2.585-5.775,5.774s2.586,5.775,5.775,5.775s5.774-2.586,5.774-5.775
			C348.271,506.109,345.687,503.525,342.499,503.522z M342.499,513.146c-2.127,0.001-3.852-1.723-3.853-3.85
			c0-2.127,1.723-3.851,3.85-3.852s3.852,1.723,3.853,3.85c0,0.001,0,0.002,0,0.002
			C346.346,511.422,344.624,513.145,342.499,513.146L342.499,513.146z"/>
		<path fill="#999999" d="M375.225,503.522c-3.19,0-5.775,2.585-5.775,5.774s2.585,5.775,5.775,5.775
			c3.188,0,5.774-2.586,5.774-5.775C380.996,506.109,378.412,503.525,375.225,503.522z M375.225,513.146
			c-2.127,0.001-3.852-1.723-3.853-3.85s1.723-3.851,3.85-3.852s3.852,1.723,3.853,3.85c0,0.001,0,0.002,0,0.002
			C379.072,511.423,377.35,513.145,375.225,513.146L375.225,513.146z"/>
		<path fill="#999999" d="M386.621,498.188l-8.663-13.475c-0.177-0.274-0.481-0.441-0.809-0.441h-10.588
			c-0.531-0.001-0.962,0.429-0.962,0.96c0,0,0,0.001,0,0.002v24.063c-0.001,0.531,0.429,0.962,0.96,0.963c0,0,0.001,0,0.002,0h3.85
			v-1.926h-2.888v-22.138h9.1l8.225,12.796v9.342h-4.811v1.926h5.775c0.53,0,0.961-0.43,0.962-0.96c0-0.001,0-0.002,0-0.003v-10.588
			C386.774,498.524,386.721,498.344,386.621,498.188z"/>
		<path fill="#999999" d="M371.374,496.783v-6.737h7.7v-1.925h-8.663c-0.531,0-0.962,0.432-0.962,0.963v8.663
			c-0.001,0.53,0.429,0.961,0.96,0.962c0,0,0.001,0,0.002,0h14.438v-1.926H371.374z"/>
		<path fill="#999999" d="M366.562,477.534h-36.576c-0.531,0-0.962,0.431-0.962,0.962v30.801c-0.001,0.531,0.429,0.962,0.959,0.963
			c0.001,0,0.002,0,0.003,0h7.7v-1.926h-6.737v-28.876H365.6v28.876h-18.289v1.926h19.251c0.53,0,0.962-0.43,0.962-0.96
			c0-0.001,0-0.002,0-0.003v-30.801c0.001-0.531-0.429-0.962-0.96-0.962C366.563,477.534,366.563,477.534,366.562,477.534z"/>
		<rect x="329.985" y="504.484" fill="#999999" width="5.774" height="1.925"/>
		<rect x="349.236" y="504.484" fill="#999999" width="16.363" height="1.925"/>
		<rect x="332.873" y="481.384" fill="#999999" width="33.688" height="1.925"/>
		<rect x="341.535" y="508.334" fill="#999999" width="1.926" height="1.926"/>
		<rect x="374.262" y="508.334" fill="#999999" width="1.926" height="1.926"/>
		<rect x="332.873" y="473.683" fill="#999999" width="13.476" height="1.926"/>
	</g>
	<rect x="329.023" y="473.683" fill="#999999" width="1.925" height="1.926"/>
</g>
</svg>
