<svg xmlns="http://www.w3.org/2000/svg" width="28" height="28" fill="none" viewBox="0 0 28 28">
    <path fill="#fff" d="M23.9 18.1c-1.525-1.524-3.34-2.653-5.32-3.337 2.12-1.46 3.514-3.905 3.514-6.67C22.094 3.632 18.463 0 14 0 9.537 0 5.906 3.63 5.906 8.094c0 2.764 1.394 5.209 3.515 6.67-1.98.683-3.796 1.812-5.32 3.337C1.456 20.745 0 24.26 0 28h2.188c0-6.513 5.299-11.813 11.812-11.813 6.513 0 11.813 5.3 11.813 11.813H28c0-3.74-1.456-7.255-4.1-9.9zM14 14c-3.257 0-5.906-2.65-5.906-5.906 0-3.257 2.65-5.906 5.906-5.906 3.257 0 5.906 2.649 5.906 5.906C19.906 11.35 17.256 14 14 14z"/>
</svg>
