<svg xmlns="http://www.w3.org/2000/svg" width="22" height="22" fill="none" viewBox="0 0 22 22">
    <path fill="#fff" fill-rule="evenodd" d="M14.598 11.6c1.556.537 2.982 1.424 4.18 2.622C20.856 16.299 22 19.062 22 22h-1.719c0-5.118-4.163-9.281-9.281-9.281S1.719 16.882 1.719 22H0c0-2.938 1.144-5.7 3.222-7.778 1.198-1.198 2.624-2.085 4.18-2.622C5.735 10.452 4.64 8.53 4.64 6.36 4.64 2.852 7.493 0 11 0s6.36 2.853 6.36 6.36c0 2.171-1.095 4.092-2.762 5.24zM6.36 6.36C6.36 8.917 8.441 11 11 11s4.64-2.082 4.64-4.64c0-2.56-2.081-4.641-4.64-4.641-2.559 0-4.64 2.082-4.64 4.64z" clip-rule="evenodd"/>
</svg>
