<svg xmlns="http://www.w3.org/2000/svg" width="18" height="18" fill="none" viewBox="0 0 18 18">
    <path fill="#fff" d="M16.572 11.426c-.596-.524-1.32-.977-2.15-1.346-.355-.158-.77.002-.928.357-.158.355.002.77.357.928.7.311 1.303.687 1.793 1.117.603.53.95 1.299.95 2.108v1.3c0 .388-.316.704-.703.704H2.109c-.387 0-.703-.316-.703-.703V14.59c0-.81.346-1.577.95-2.107.71-.625 2.78-2.077 6.644-2.077 2.869 0 5.203-2.334 5.203-5.203S11.87 0 9 0 3.797 2.334 3.797 5.203c0 1.677.798 3.171 2.034 4.124-2.262.497-3.669 1.454-4.403 2.1C.52 12.222 0 13.376 0 14.59v1.3C0 17.055.946 18 2.11 18h13.78c1.164 0 2.11-.946 2.11-2.11v-1.3c0-1.214-.52-2.367-1.428-3.164zM5.203 5.203C5.203 3.11 6.906 1.406 9 1.406c2.094 0 3.797 1.704 3.797 3.797C12.797 7.297 11.094 9 9 9 6.906 9 5.203 7.297 5.203 5.203z"/>
</svg>
