<?xml version="1.0" encoding="utf-8"?>
<!-- Generator: Adobe Illustrator 16.0.0, SVG Export Plug-In . SVG Version: 6.00 Build 0)  -->
<!DOCTYPE svg PUBLIC "-//W3C//DTD SVG 1.1//EN" "http://www.w3.org/Graphics/SVG/1.1/DTD/svg11.dtd">
<svg version="1.1" id="Capa_1" xmlns="http://www.w3.org/2000/svg" xmlns:xlink="http://www.w3.org/1999/xlink" x="0px" y="0px"
	 width="27.006px" height="27.003px" viewBox="0 0 27.006 27.003" enable-background="new 0 0 27.006 27.003" xml:space="preserve">
<title>visitante</title>
<g>
	<path fill="#FFFFFF" d="M13.852,3.728c-5.67,0-10.284,4.613-10.284,10.285c0,5.672,4.614,10.283,10.284,10.283
		c5.672,0,10.286-4.611,10.286-10.283C24.138,8.341,19.522,3.728,13.852,3.728z M13.852,5.31c4.258,0,7.812,3.073,8.559,7.121
		c-0.496-0.077-3.436,0.468-5.672-1.916c-1.266-1.348-2.934-1.259-2.887-1.249c-1.103,0-2.129,0.443-2.884,1.249
		c-1.143,1.218-2.795,1.916-4.535,1.916H5.295C6.041,8.383,9.594,5.31,13.852,5.31z M5.783,17.269
		c3.067-0.645,6.005,1.926,5.678,5.111C8.876,21.641,6.781,19.733,5.783,17.269L5.783,17.269z M13.02,22.675
		c0.536-4.352-3.472-7.891-7.695-6.924c-0.113-0.563-0.175-1.145-0.175-1.738c0.524-0.084,4.188,0.55,6.971-2.415
		c0.937-0.997,2.521-1.005,3.463,0c2.785,2.967,6.435,2.329,6.972,2.415c0,0.595-0.063,1.177-0.176,1.738
		c-4.23-0.971-8.229,2.582-7.693,6.924C14.147,22.727,13.6,22.73,13.02,22.675L13.02,22.675z M16.244,22.38
		c-0.328-3.19,2.614-5.756,5.678-5.111C20.924,19.733,18.829,21.641,16.244,22.38z"/>
	<path fill="#FFFFFF" d="M16.226,14.802c0-1.308-1.064-2.371-2.374-2.371c-1.308,0-2.373,1.063-2.373,2.371
		c0,1.313,1.065,2.375,2.373,2.375S16.226,16.113,16.226,14.802z M13.852,15.595c-0.435,0-0.791-0.354-0.791-0.793
		c0-0.436,0.356-0.789,0.791-0.789c0.438,0,0.792,0.354,0.792,0.789C14.644,15.24,14.289,15.595,13.852,15.595z"/>
	<path fill="#FFFFFF" d="M23.39,4.477c-2.559-2.558-5.945-3.967-9.538-3.967c-7.434,0-13.5,6.068-13.5,13.502
		c0,7.435,6.068,13.501,13.5,13.501c3.592,0,6.979-1.408,9.538-3.965C28.681,18.257,28.681,9.769,23.39,4.477L23.39,4.477z
		 M13.852,25.932c-6.571,0-11.918-5.347-11.918-11.919c0-6.573,5.347-11.919,11.918-11.919c6.572,0,11.92,5.346,11.92,11.919
		C25.772,20.585,20.424,25.932,13.852,25.932z"/>
</g>
</svg>
