<?xml version="1.0" encoding="utf-8"?>
<!-- Generator: Adobe Illustrator 16.0.0, SVG Export Plug-In . SVG Version: 6.00 Build 0)  -->
<!DOCTYPE svg PUBLIC "-//W3C//DTD SVG 1.1//EN" "http://www.w3.org/Graphics/SVG/1.1/DTD/svg11.dtd">
<svg version="1.1" id="Capa_1" xmlns="http://www.w3.org/2000/svg" xmlns:xlink="http://www.w3.org/1999/xlink" x="0px" y="0px"
	 width="454px" height="455px" viewBox="0 0 454 455" enable-background="new 0 0 454 455" xml:space="preserve">
<g opacity="0.4">
	<circle fill="#CECECE" cx="227" cy="217.986" r="175.352"/>
	<g>
		<path fill="#FFFFFF" d="M226.926,338.748c-66.007,0-119.719-53.704-119.719-119.718c0-66.007,53.712-119.719,119.719-119.719
			c66.021,0,119.719,53.712,119.719,119.719C346.645,285.044,292.948,338.748,226.926,338.748z M226.926,108.18
			c-61.12,0-110.851,49.73-110.851,110.851c0,61.119,49.73,110.851,110.851,110.851c61.119,0,110.851-49.715,110.851-110.851
			C337.777,157.91,288.045,108.18,226.926,108.18z"/>
		<path fill="#FFFFFF" d="M226.926,360.919c-78.234,0-141.889-63.646-141.889-141.889c0-78.234,63.653-141.889,141.889-141.889
			c78.25,0,141.889,63.655,141.889,141.889C368.815,297.273,305.176,360.919,226.926,360.919z M226.926,86.01
			c-73.346,0-133.021,59.675-133.021,133.021c0,73.346,59.676,133.021,133.021,133.021c73.345,0,133.021-59.657,133.021-133.021
			C359.947,145.685,300.271,86.01,226.926,86.01z"/>
		<path fill="#FFFFFF" d="M226.926,272.238c-24.488,0-44.34-19.854-44.34-44.323c0-24.488,19.852-44.34,44.34-44.34
			c24.487,0,44.34,19.852,44.34,44.34C271.232,252.379,251.413,272.213,226.926,272.238z M226.926,192.426
			c-19.583,0-35.472,15.881-35.472,35.473c0,19.574,15.889,35.472,35.472,35.472c19.582,0,35.472-15.896,35.472-35.472
			C262.365,208.315,246.508,192.451,226.926,192.426z"/>
		<path fill="#FFFFFF" d="M226.926,254.502c-14.688,0-26.604-11.909-26.604-26.604c0-14.688,11.908-26.604,26.604-26.604
			c14.695,0,26.604,11.908,26.604,26.604C253.513,242.586,241.606,254.484,226.926,254.502z M226.926,210.162
			c-9.793,0-17.736,7.944-17.736,17.744c0,9.793,7.929,17.736,17.736,17.736c9.792,0,17.736-7.943,17.736-17.736
			C244.662,218.106,236.718,210.162,226.926,210.162z"/>
		<path fill="#FFFFFF" d="M249.096,336.616h-0.101c-2.438-0.052-4.4-2.075-4.333-4.503c1.091-52.184,43.131-94.23,95.33-95.305
			h0.085c2.452-0.024,4.468,1.939,4.483,4.383c0.034,2.451-1.932,4.459-4.385,4.476c-47.446,0.976-85.673,39.211-86.647,86.624
			C253.479,334.693,251.496,336.616,249.096,336.616z"/>
		<path fill="#FFFFFF" d="M204.756,336.616c-2.401,0-4.375-1.923-4.435-4.337c-0.981-47.444-39.199-85.672-86.646-86.646
			c-2.452-0.024-4.417-2.016-4.384-4.477c0.017-2.451,2.031-4.425,4.477-4.384h0.092c52.186,1.094,94.224,43.147,95.297,95.332
			c0.051,2.429-1.89,4.477-4.333,4.511H204.756z"/>
		<path fill="#FFFFFF" d="M331.395,174.69H122.441c-2.452,0-4.434-1.982-4.434-4.434s1.98-4.434,4.434-4.434h208.954
			c2.451,0,4.434,1.981,4.434,4.434S333.863,174.69,331.395,174.69z"/>
	</g>
</g>
</svg>
