<?xml version="1.0" encoding="utf-8"?>
<!-- Generator: Adobe Illustrator 16.0.0, SVG Export Plug-In . SVG Version: 6.00 Build 0)  -->
<!DOCTYPE svg PUBLIC "-//W3C//DTD SVG 1.1//EN" "http://www.w3.org/Graphics/SVG/1.1/DTD/svg11.dtd">
<svg version="1.1" id="icons" xmlns="http://www.w3.org/2000/svg" xmlns:xlink="http://www.w3.org/1999/xlink" x="0px" y="0px"
	 width="33px" height="33px" viewBox="289.5 379.5 33 33" enable-background="new 289.5 379.5 33 33" xml:space="preserve">
<title>steering-wheel</title>
<g>
	<path fill="#0D2F9B" d="M306,409.922c-7.676,0-13.922-6.245-13.922-13.922c0-7.676,6.246-13.922,13.922-13.922
		c7.677,0,13.922,6.246,13.922,13.922C319.922,403.677,313.677,409.922,306,409.922z M306,383.109
		c-7.108,0-12.891,5.783-12.891,12.891c0,7.107,5.783,12.891,12.891,12.891c7.107,0,12.891-5.782,12.891-12.891
		C318.891,388.892,313.107,383.109,306,383.109z"/>
	<path fill="#0D2F9B" d="M306,412.5c-9.098,0-16.5-7.401-16.5-16.5c0-9.098,7.402-16.5,16.5-16.5c9.099,0,16.5,7.402,16.5,16.5
		C322.5,405.099,315.099,412.5,306,412.5z M306,380.531c-8.53,0-15.469,6.939-15.469,15.469c0,8.529,6.939,15.469,15.469,15.469
		c8.529,0,15.469-6.938,15.469-15.469C321.469,387.47,314.529,380.531,306,380.531z"/>
	<path fill="#0D2F9B" d="M306,402.188c-2.848,0-5.156-2.309-5.156-5.155c0-2.847,2.309-5.156,5.156-5.156
		c2.847,0,5.156,2.309,5.156,5.156C311.153,399.878,308.847,402.185,306,402.188z M306,392.906c-2.278,0-4.125,1.847-4.125,4.125
		c0,2.277,1.847,4.125,4.125,4.125c2.278,0,4.125-1.848,4.125-4.125C310.122,394.754,308.277,392.909,306,392.906z"/>
	<path fill="#0D2F9B" d="M306,400.125c-1.708,0-3.094-1.385-3.094-3.094c0-1.708,1.385-3.094,3.094-3.094s3.094,1.385,3.094,3.094
		C309.092,398.739,307.708,400.123,306,400.125z M306,394.969c-1.139,0-2.063,0.923-2.063,2.063c0,1.139,0.923,2.063,2.063,2.063
		c1.139,0,2.063-0.924,2.063-2.063C308.063,395.892,307.139,394.969,306,394.969z"/>
	<path fill="#0D2F9B" d="M308.578,409.674h-0.011c-0.284-0.006-0.512-0.241-0.505-0.524c0.127-6.068,5.017-10.958,11.086-11.083
		h0.011c0.285-0.003,0.519,0.226,0.521,0.51c0.003,0.285-0.225,0.519-0.51,0.521c-5.517,0.113-9.962,4.559-10.077,10.073
		C309.087,409.45,308.858,409.674,308.578,409.674z"/>
	<path fill="#0D2F9B" d="M303.422,409.674c-0.28,0-0.509-0.224-0.516-0.504c-0.114-5.518-4.559-9.963-10.076-10.076
		c-0.285-0.003-0.513-0.235-0.51-0.521c0.003-0.285,0.237-0.514,0.521-0.51h0.01c6.069,0.127,10.958,5.018,11.082,11.086
		c0.006,0.283-0.219,0.521-0.504,0.525L303.422,409.674z"/>
	<path fill="#0D2F9B" d="M318.149,390.844H293.85c-0.285,0-0.516-0.231-0.516-0.516c0-0.285,0.231-0.516,0.516-0.516h24.299
		c0.284,0,0.516,0.231,0.516,0.516C318.665,390.613,318.435,390.844,318.149,390.844z"/>
</g>
</svg>
