<svg xmlns="http://www.w3.org/2000/svg" width="85.275" height="93.676" viewBox="0 0 85.275 93.676">
    <path fill="#b1b1b1" d="M99.23 63.065a2.752 2.752 0 0 0-.439-.548 42.486 42.486 0 0 0-21.847-14.271 21.964 21.964 0 0 0 10.608-18.789v-.183h2.206a2.744 2.744 0 0 0 0-5.489h-2.026a22.107 22.107 0 0 0-4.368-10.552 22.656 22.656 0 0 0-9.841-7.376A8.063 8.063 0 0 0 65.779 0h-.365a8.063 8.063 0 0 0-7.744 5.857 22.657 22.657 0 0 0-9.841 7.376 22.106 22.106 0 0 0-4.368 10.553h-2.023a2.744 2.744 0 0 0 0 5.489h2.207v.183a21.964 21.964 0 0 0 10.604 18.788 42.459 42.459 0 0 0-31.29 40.908v1.778a2.744 2.744 0 0 0 2.741 2.744h79.79a2.744 2.744 0 0 0 2.744-2.744v-1.778a42.175 42.175 0 0 0-9-26.089zm-51.2-6.487a36.671 36.671 0 0 1 17.311-4.319h.507a36.67 36.67 0 0 1 17.311 4.319v11.85H48.032zm9.331-44.524v1.118a2.744 2.744 0 1 0 5.489 0V8.051a2.565 2.565 0 0 1 2.562-2.562h.365a2.565 2.565 0 0 1 2.562 2.562v5.121a2.744 2.744 0 1 0 5.489 0v-1.118a17.112 17.112 0 0 1 8.342 11.731H49.022a17.112 17.112 0 0 1 8.341-11.731zm-8.233 17.4v-.183h32.933v.183a16.467 16.467 0 0 1-32.933 0zm-6.585 30.714v11a2.744 2.744 0 0 0 2.744 2.744h40.618a2.744 2.744 0 0 0 2.744-2.744v-11a37.223 37.223 0 0 1 5.5 5.336v22.683H37.053c0-.061.009-.121.009-.183V65.592v-.1a37.223 37.223 0 0 1 5.481-5.324zM31.573 74.3V88c0 .062.005.122.009.183H28.46A36.656 36.656 0 0 1 31.573 74.3zm68.062 13.89V74.333a36.655 36.655 0 0 1 3.1 13.855z" transform="translate(-22.959)"/>
</svg>
