<svg xmlns="http://www.w3.org/2000/svg" width="15" height="15" fill="none" viewBox="0 0 15 15">
    <g fill="#fff" clip-path="url(#clip0)">
        <path d="M10.326 6.445c0-.323-.262-.586-.586-.586H3.705c-.324 0-.586.263-.586.586 0 .324.262.586.586.586H9.74c.324 0 .586-.262.586-.586zM3.705 8.203c-.324 0-.586.262-.586.586 0 .324.262.586.586.586H7.37c.324 0 .586-.262.586-.586 0-.324-.262-.586-.586-.586H3.705z"/>
        <path d="M5.082 13.828h-1.96c-.646 0-1.172-.526-1.172-1.172V2.344c0-.646.526-1.172 1.172-1.172h7.204c.646 0 1.172.526 1.172 1.172v3.603c0 .324.262.586.586.586.323 0 .586-.262.586-.586V2.344C12.67 1.05 11.618 0 10.326 0H3.122C1.83 0 .778 1.051.778 2.344v10.312C.778 13.95 1.83 15 3.122 15h1.96c.323 0 .586-.262.586-.586 0-.324-.263-.586-.586-.586z"/>
        <path d="M13.707 8.483c-.685-.686-1.8-.686-2.485 0l-3.217 3.21c-.068.067-.119.151-.147.244l-.7 2.306c-.062.204-.008.427.141.58.112.114.264.176.42.176.052 0 .104-.007.156-.021l2.365-.655c.097-.027.186-.079.257-.15l3.21-3.204c.686-.686.686-1.8 0-2.486zM9.78 13.235l-1.19.33.348-1.147 2.17-2.166.83.829-2.158 2.154zm3.1-3.095l-.113.113-.829-.829.113-.112c.229-.229.6-.229.829 0 .228.228.228.6 0 .828zM9.74 3.516H3.705c-.324 0-.586.262-.586.586 0 .323.262.585.586.585H9.74c.324 0 .586-.262.586-.585 0-.324-.262-.586-.586-.586z"/>
    </g>
    <defs>
        <clipPath id="clip0">
            <path fill="#fff" d="M0 0H15V15H0z"/>
        </clipPath>
    </defs>
</svg>
